<?xml version="1.0" encoding="UTF-8"?>
<svg xmlns="http://www.w3.org/2000/svg" xmlns:xlink="http://www.w3.org/1999/xlink" width="650px" height="650px" viewBox="0 0 650 650" version="1.1">
<g id="surface1">
<path style=" stroke:none;fill-rule:nonzero;fill:rgb(7.450981%,7.450981%,7.450981%);fill-opacity:1;" d="M 362.214844 98.988281 C 364.292969 98.988281 364.292969 98.988281 366.410156 98.988281 C 369.316406 98.984375 372.222656 98.988281 375.128906 98.992188 C 379.570312 99 384.015625 98.992188 388.457031 98.984375 C 391.292969 98.984375 394.125 98.988281 396.960938 98.988281 C 398.285156 98.988281 399.605469 98.984375 400.96875 98.984375 C 402.210938 98.984375 403.449219 98.988281 404.726562 98.996094 C 405.808594 98.996094 406.894531 98.996094 408.007812 98.996094 C 411.566406 99.167969 414.960938 99.722656 418.460938 100.375 C 418.671875 110.867188 418.875 121.359375 419.058594 131.851562 C 419.140625 136.722656 419.230469 141.59375 419.332031 146.464844 C 419.429688 151.164062 419.515625 155.863281 419.589844 160.5625 C 419.621094 162.355469 419.65625 164.152344 419.699219 165.945312 C 419.753906 168.457031 419.792969 170.964844 419.828125 173.472656 C 419.855469 174.902344 419.882812 176.332031 419.910156 177.804688 C 419.667969 181.167969 419.667969 181.167969 417.253906 183.617188 C 413.789062 183.769531 410.4375 183.78125 406.976562 183.683594 C 404.851562 183.652344 402.726562 183.621094 400.601562 183.59375 C 397.261719 183.53125 393.925781 183.464844 390.585938 183.382812 C 367.355469 182.695312 367.355469 182.695312 347.308594 193.410156 C 340.234375 204.257812 339.957031 215.28125 339.691406 227.917969 C 339.671875 228.820312 339.648438 229.722656 339.625 230.65625 C 339.542969 233.972656 339.46875 237.292969 339.394531 240.613281 C 339.222656 248.0625 339.046875 255.507812 338.867188 263.183594 C 364.734375 263.183594 390.601562 263.183594 417.253906 263.183594 C 417.253906 275.574219 417.253906 275.574219 416.515625 279.765625 C 416.355469 280.710938 416.195312 281.65625 416.027344 282.628906 C 415.851562 283.613281 415.675781 284.59375 415.492188 285.609375 C 415.3125 286.664062 415.128906 287.71875 414.941406 288.804688 C 414.363281 292.148438 413.773438 295.492188 413.183594 298.835938 C 412.414062 303.222656 411.652344 307.613281 410.894531 312.003906 C 410.617188 313.589844 410.617188 313.589844 410.335938 315.210938 C 408.953125 323.246094 407.886719 331.285156 407.011719 339.390625 C 406.402344 342.75 406.402344 342.75 403.988281 345.199219 C 401.132812 345.605469 398.421875 345.835938 395.546875 345.960938 C 394.246094 346.023438 394.246094 346.023438 392.917969 346.085938 C 382.261719 346.515625 371.613281 346.472656 360.953125 346.449219 C 359.035156 346.449219 357.121094 346.445312 355.207031 346.445312 C 350.566406 346.4375 345.921875 346.429688 341.28125 346.421875 C 341.273438 347.703125 341.269531 348.980469 341.265625 350.300781 C 341.140625 381.386719 341.007812 412.472656 340.871094 443.558594 C 340.804688 458.589844 340.738281 473.621094 340.679688 488.65625 C 340.628906 501.753906 340.574219 514.851562 340.511719 527.945312 C 340.480469 534.886719 340.449219 541.828125 340.425781 548.765625 C 340.402344 555.289062 340.371094 561.8125 340.339844 568.335938 C 340.328125 570.738281 340.316406 573.140625 340.3125 575.542969 C 340.300781 578.804688 340.285156 582.070312 340.265625 585.335938 C 340.265625 586.296875 340.261719 587.261719 340.261719 588.253906 C 340.210938 594.777344 340.210938 594.777344 338.867188 596.140625 C 336.523438 596.296875 334.171875 596.371094 331.820312 596.410156 C 329.554688 596.453125 329.554688 596.453125 327.242188 596.496094 C 325.578125 596.519531 323.914062 596.546875 322.25 596.570312 C 320.546875 596.597656 318.84375 596.625 317.140625 596.65625 C 313.558594 596.714844 309.980469 596.769531 306.398438 596.820312 C 301.835938 596.886719 297.269531 596.96875 292.707031 597.046875 C 289.183594 597.109375 285.660156 597.164062 282.132812 597.21875 C 280.453125 597.246094 278.773438 597.273438 277.09375 597.304688 C 268.21875 597.460938 259.628906 597.402344 250.835938 596.140625 C 249.511719 587.472656 249.453125 578.953125 249.46875 570.195312 C 249.464844 567.792969 249.464844 567.792969 249.464844 565.34375 C 249.460938 560.96875 249.464844 556.59375 249.472656 552.214844 C 249.476562 549.453125 249.480469 546.691406 249.480469 543.929688 C 249.5 514.675781 249.816406 485.4375 250.273438 456.1875 C 250.664062 431.484375 250.964844 406.785156 250.984375 382.074219 C 250.988281 380.796875 250.992188 379.519531 250.996094 378.203125 C 251 374.648438 251 371.097656 250.996094 367.546875 C 251 366.023438 251 366.023438 251.003906 364.46875 C 250.996094 363.042969 250.996094 363.042969 250.992188 361.585938 C 250.988281 360.777344 250.988281 359.972656 250.988281 359.140625 C 250.765625 354.882812 250.148438 350.652344 249.628906 346.421875 C 228.734375 345.816406 228.734375 345.816406 207.421875 345.199219 C 205.988281 342.285156 206.0625 340.507812 206.058594 337.257812 C 206.054688 336.117188 206.050781 334.972656 206.046875 333.796875 C 206.050781 332.554688 206.050781 331.316406 206.054688 330.035156 C 206.054688 328.75 206.054688 327.464844 206.050781 326.144531 C 206.050781 323.410156 206.054688 320.679688 206.058594 317.945312 C 206.0625 313.824219 206.058594 309.703125 206.050781 305.585938 C 206.039062 275.589844 206.039062 275.589844 207.421875 264.40625 C 208.628906 263.183594 208.628906 263.183594 212.636719 263.042969 C 214.417969 263.042969 216.199219 263.050781 217.976562 263.0625 C 218.914062 263.066406 219.847656 263.066406 220.8125 263.070312 C 223.808594 263.074219 226.808594 263.089844 229.804688 263.105469 C 231.835938 263.113281 233.863281 263.117188 235.890625 263.121094 C 240.871094 263.136719 245.851562 263.15625 250.835938 263.183594 C 250.828125 262.394531 250.824219 261.601562 250.820312 260.789062 C 250.765625 252.488281 250.730469 244.183594 250.703125 235.882812 C 250.691406 232.792969 250.675781 229.703125 250.652344 226.617188 C 250.433594 193.695312 250.433594 193.695312 253.246094 179.945312 C 253.421875 179 253.597656 178.054688 253.78125 177.082031 C 258.921875 151.097656 271.511719 130.421875 293.269531 115.449219 C 314.445312 102.398438 337.8125 98.945312 362.214844 98.988281 Z M 362.214844 98.988281 "/>
<path style=" stroke:none;fill-rule:nonzero;fill:rgb(0%,0%,0%);fill-opacity:1;" d="M 207.421875 264.40625 C 207.820312 264.40625 208.21875 264.40625 208.628906 264.40625 C 209.023438 290.261719 209.421875 316.113281 209.832031 342.75 C 224.160156 343.152344 238.484375 343.558594 253.246094 343.972656 C 253.246094 425.976562 253.246094 507.980469 253.246094 592.46875 C 280.707031 592.46875 308.164062 592.46875 336.457031 592.46875 C 336.449219 584.945312 336.445312 577.425781 336.4375 569.675781 C 336.417969 544.894531 336.402344 520.113281 336.394531 495.332031 C 336.386719 480.300781 336.378906 465.265625 336.367188 450.234375 C 336.351562 437.136719 336.34375 424.039062 336.34375 410.941406 C 336.339844 404.003906 336.335938 397.0625 336.328125 390.121094 C 336.320312 383.597656 336.316406 377.074219 336.320312 370.550781 C 336.320312 368.148438 336.316406 365.75 336.3125 363.347656 C 336.308594 360.082031 336.308594 356.820312 336.3125 353.554688 C 336.308594 352.589844 336.304688 351.628906 336.300781 350.636719 C 336.320312 344.113281 336.320312 344.113281 337.664062 342.75 C 339.734375 342.636719 341.8125 342.605469 343.886719 342.609375 C 345.214844 342.609375 346.542969 342.609375 347.910156 342.609375 C 349.355469 342.617188 350.800781 342.625 352.289062 342.628906 C 353.757812 342.632812 355.230469 342.632812 356.746094 342.636719 C 361.464844 342.640625 366.183594 342.65625 370.902344 342.671875 C 374.089844 342.679688 377.28125 342.683594 380.472656 342.691406 C 388.308594 342.703125 396.148438 342.722656 403.988281 342.75 C 404.089844 341.882812 404.1875 341.015625 404.292969 340.121094 C 404.75 336.136719 405.214844 332.152344 405.679688 328.164062 C 405.835938 326.800781 405.992188 325.4375 406.15625 324.035156 C 409.535156 295.132812 409.535156 295.132812 413.636719 288.890625 C 412.867188 299.5 411.457031 309.980469 409.894531 320.496094 C 409.484375 323.273438 409.089844 326.050781 408.695312 328.832031 C 408.4375 330.605469 408.175781 332.375 407.914062 334.148438 C 407.5625 336.539062 407.5625 336.539062 407.207031 338.976562 C 406.402344 342.75 406.402344 342.75 403.988281 345.199219 C 401.132812 345.605469 398.421875 345.835938 395.546875 345.960938 C 394.246094 346.023438 394.246094 346.023438 392.917969 346.085938 C 382.261719 346.515625 371.613281 346.472656 360.953125 346.449219 C 359.035156 346.449219 357.121094 346.445312 355.207031 346.445312 C 350.566406 346.4375 345.921875 346.429688 341.28125 346.421875 C 341.273438 347.703125 341.269531 348.980469 341.265625 350.300781 C 341.140625 381.386719 341.007812 412.472656 340.871094 443.558594 C 340.804688 458.589844 340.738281 473.621094 340.679688 488.65625 C 340.628906 501.753906 340.574219 514.851562 340.511719 527.945312 C 340.480469 534.886719 340.449219 541.828125 340.425781 548.765625 C 340.402344 555.289062 340.371094 561.8125 340.339844 568.335938 C 340.328125 570.738281 340.316406 573.140625 340.3125 575.542969 C 340.300781 578.804688 340.285156 582.070312 340.265625 585.335938 C 340.265625 586.296875 340.261719 587.261719 340.261719 588.253906 C 340.210938 594.777344 340.210938 594.777344 338.867188 596.140625 C 336.523438 596.296875 334.171875 596.371094 331.820312 596.410156 C 329.554688 596.453125 329.554688 596.453125 327.242188 596.496094 C 325.578125 596.519531 323.914062 596.546875 322.25 596.570312 C 320.546875 596.597656 318.84375 596.625 317.140625 596.65625 C 313.558594 596.714844 309.980469 596.769531 306.398438 596.820312 C 301.835938 596.886719 297.269531 596.96875 292.707031 597.046875 C 289.183594 597.109375 285.660156 597.164062 282.132812 597.21875 C 280.453125 597.246094 278.773438 597.273438 277.09375 597.304688 C 268.21875 597.460938 259.628906 597.402344 250.835938 596.140625 C 249.511719 587.472656 249.453125 578.953125 249.46875 570.195312 C 249.464844 567.792969 249.464844 567.792969 249.464844 565.34375 C 249.460938 560.96875 249.464844 556.59375 249.472656 552.214844 C 249.476562 549.453125 249.480469 546.691406 249.480469 543.929688 C 249.5 514.675781 249.816406 485.4375 250.273438 456.1875 C 250.664062 431.484375 250.964844 406.785156 250.984375 382.074219 C 250.988281 380.796875 250.992188 379.519531 250.996094 378.203125 C 251 374.648438 251 371.097656 250.996094 367.546875 C 251 366.023438 251 366.023438 251.003906 364.46875 C 250.996094 363.042969 250.996094 363.042969 250.992188 361.585938 C 250.988281 360.777344 250.988281 359.972656 250.988281 359.140625 C 250.765625 354.882812 250.148438 350.652344 249.628906 346.421875 C 235.699219 346.019531 221.773438 345.613281 207.421875 345.199219 C 205.988281 342.285156 206.0625 340.507812 206.058594 337.257812 C 206.054688 336.117188 206.050781 334.972656 206.046875 333.796875 C 206.050781 332.554688 206.050781 331.316406 206.054688 330.035156 C 206.054688 328.75 206.054688 327.464844 206.050781 326.144531 C 206.050781 323.410156 206.054688 320.679688 206.058594 317.945312 C 206.0625 313.824219 206.058594 309.703125 206.050781 305.585938 C 206.046875 291.808594 206.207031 278.136719 207.421875 264.40625 Z M 207.421875 264.40625 "/>
<path style=" stroke:none;fill-rule:nonzero;fill:rgb(0%,0%,0%);fill-opacity:1;" d="M 362.214844 98.988281 C 364.292969 98.988281 364.292969 98.988281 366.410156 98.988281 C 369.316406 98.984375 372.222656 98.988281 375.128906 98.992188 C 379.570312 99 384.015625 98.992188 388.457031 98.984375 C 391.292969 98.984375 394.125 98.988281 396.960938 98.988281 C 398.285156 98.988281 399.605469 98.984375 400.96875 98.984375 C 402.210938 98.984375 403.449219 98.988281 404.726562 98.996094 C 405.808594 98.996094 406.894531 98.996094 408.007812 98.996094 C 411.566406 99.167969 414.960938 99.722656 418.460938 100.375 C 418.671875 110.867188 418.875 121.359375 419.058594 131.851562 C 419.140625 136.722656 419.230469 141.59375 419.332031 146.464844 C 419.429688 151.164062 419.515625 155.863281 419.589844 160.5625 C 419.621094 162.355469 419.65625 164.152344 419.699219 165.945312 C 419.753906 168.457031 419.792969 170.964844 419.828125 173.472656 C 419.855469 174.902344 419.882812 176.332031 419.910156 177.804688 C 419.667969 181.167969 419.667969 181.167969 417.253906 183.617188 C 413.789062 183.769531 410.4375 183.78125 406.976562 183.683594 C 404.851562 183.652344 402.726562 183.621094 400.601562 183.59375 C 397.261719 183.53125 393.925781 183.464844 390.585938 183.382812 C 367.355469 182.695312 367.355469 182.695312 347.308594 193.410156 C 340.234375 204.257812 339.957031 215.28125 339.691406 227.917969 C 339.671875 228.820312 339.648438 229.722656 339.625 230.65625 C 339.542969 233.972656 339.46875 237.292969 339.394531 240.613281 C 339.222656 248.0625 339.046875 255.507812 338.867188 263.183594 C 364.734375 263.183594 390.601562 263.183594 417.253906 263.183594 C 417.253906 275.578125 417.253906 275.578125 416.046875 282.234375 C 415.824219 283.496094 415.601562 284.761719 415.371094 286.0625 C 415.195312 286.996094 415.023438 287.929688 414.84375 288.890625 C 414.445312 288.890625 414.046875 288.890625 413.636719 288.890625 C 413.351562 280.046875 414.429688 273.449219 416.046875 264.40625 C 390.179688 264.40625 364.3125 264.40625 337.664062 264.40625 C 337.539062 255.242188 337.414062 246.078125 337.285156 236.636719 C 337.230469 233.777344 337.175781 230.917969 337.117188 227.972656 C 336.96875 214.398438 337.195312 203.160156 343.691406 190.960938 C 344.089844 190.152344 344.488281 189.34375 344.898438 188.511719 C 350.378906 186.339844 356.074219 185.015625 361.78125 183.617188 C 361.78125 182.808594 361.78125 182 361.78125 181.167969 C 379.6875 181.167969 397.597656 181.167969 416.046875 181.167969 C 416.046875 155.316406 416.046875 129.460938 416.046875 102.824219 C 401.351562 102.078125 386.847656 101.398438 372.15625 101.441406 C 369.347656 101.449219 366.535156 101.441406 363.722656 101.433594 C 350.648438 101.425781 350.648438 101.425781 337.664062 102.824219 C 337.265625 103.230469 336.867188 103.632812 336.457031 104.050781 C 334.09375 104.257812 331.734375 104.460938 329.371094 104.660156 C 318.179688 106.148438 308.832031 111.167969 298.90625 116.402344 C 296.660156 117.515625 296.660156 117.515625 293.042969 118.738281 C 291.261719 120.519531 291.261719 120.519531 289.5 122.792969 C 286.234375 126.738281 282.800781 130.347656 279.144531 133.914062 C 269.917969 142.9375 264.242188 151.070312 261.6875 164.03125 C 260.890625 164.03125 260.097656 164.03125 259.277344 164.03125 C 259.058594 165.273438 259.058594 165.273438 258.832031 166.546875 C 258.632812 167.683594 258.429688 168.824219 258.222656 169.996094 C 258.023438 171.105469 257.828125 172.214844 257.628906 173.355469 C 257.21875 175.566406 256.796875 177.773438 256.28125 179.960938 C 254.21875 189.0625 254.035156 197.957031 253.953125 207.265625 C 253.929688 208.921875 253.90625 210.578125 253.882812 212.234375 C 253.820312 216.554688 253.773438 220.871094 253.726562 225.191406 C 253.679688 229.613281 253.617188 234.039062 253.558594 238.460938 C 253.441406 247.109375 253.34375 255.757812 253.246094 264.40625 C 238.523438 264.40625 223.796875 264.40625 208.628906 264.40625 C 208.628906 264.003906 208.628906 263.597656 208.628906 263.183594 C 222.554688 263.183594 236.484375 263.183594 250.835938 263.183594 C 250.808594 258.609375 250.777344 254.035156 250.75 249.324219 C 250.730469 244.84375 250.714844 240.363281 250.703125 235.882812 C 250.691406 232.792969 250.675781 229.703125 250.652344 226.617188 C 250.433594 193.695312 250.433594 193.695312 253.246094 179.945312 C 253.421875 179 253.597656 178.054688 253.78125 177.082031 C 258.921875 151.097656 271.511719 130.421875 293.269531 115.449219 C 314.445312 102.398438 337.8125 98.945312 362.214844 98.988281 Z M 362.214844 98.988281 "/>
<path style=" stroke:none;fill-rule:nonzero;fill:rgb(0%,0%,0%);fill-opacity:1;" d="M 207.421875 264.40625 C 207.820312 264.40625 208.21875 264.40625 208.628906 264.40625 C 209.023438 290.261719 209.421875 316.113281 209.832031 342.75 C 224.160156 343.152344 238.484375 343.558594 253.246094 343.972656 C 253.246094 425.976562 253.246094 507.980469 253.246094 592.46875 C 280.707031 592.46875 308.164062 592.46875 336.457031 592.46875 C 336.457031 510.464844 336.457031 428.460938 336.457031 343.972656 C 336.855469 343.972656 337.253906 343.972656 337.664062 343.972656 C 337.664062 426.785156 337.664062 509.59375 337.664062 594.914062 C 309.40625 594.914062 281.152344 594.914062 252.039062 594.914062 C 251.882812 568.492188 251.726562 542.070312 251.570312 515.644531 C 251.496094 503.371094 251.421875 491.101562 251.351562 478.828125 C 251.285156 468.117188 251.222656 457.402344 251.160156 446.691406 C 251.125 441.035156 251.09375 435.375 251.058594 429.71875 C 251.027344 424.382812 250.996094 419.046875 250.964844 413.710938 C 250.953125 411.683594 250.941406 409.652344 250.925781 407.625 C 250.867188 397.851562 250.824219 388.082031 250.859375 378.3125 C 250.867188 376.84375 250.871094 375.375 250.875 373.859375 C 250.886719 371.214844 250.902344 368.570312 250.925781 365.925781 C 250.933594 364.773438 250.9375 363.621094 250.945312 362.433594 C 250.953125 361.457031 250.960938 360.484375 250.96875 359.480469 C 250.789062 355.109375 250.164062 350.765625 249.628906 346.421875 C 235.699219 346.019531 221.773438 345.613281 207.421875 345.199219 C 205.988281 342.285156 206.0625 340.507812 206.058594 337.257812 C 206.054688 336.117188 206.050781 334.972656 206.046875 333.796875 C 206.050781 332.554688 206.050781 331.316406 206.054688 330.035156 C 206.054688 328.75 206.054688 327.464844 206.050781 326.144531 C 206.050781 323.410156 206.054688 320.679688 206.058594 317.945312 C 206.0625 313.824219 206.058594 309.703125 206.050781 305.585938 C 206.046875 291.808594 206.207031 278.136719 207.421875 264.40625 Z M 207.421875 264.40625 "/>
<path style=" stroke:none;fill-rule:nonzero;fill:rgb(0%,0%,0%);fill-opacity:1;" d="M 289.597656 120.460938 C 290.335938 120.699219 291.074219 120.941406 291.835938 121.1875 C 290.898438 122.101562 290.898438 122.101562 289.941406 123.035156 C 287.066406 125.847656 284.214844 128.679688 281.359375 131.515625 C 279.882812 132.953125 279.882812 132.953125 278.375 134.417969 C 269.507812 143.277344 264.136719 151.613281 261.6875 164.03125 C 260.890625 164.03125 260.097656 164.03125 259.277344 164.03125 C 259.058594 165.273438 259.058594 165.273438 258.832031 166.546875 C 258.632812 167.683594 258.429688 168.824219 258.222656 169.996094 C 258.023438 171.105469 257.828125 172.214844 257.628906 173.355469 C 257.21875 175.566406 256.796875 177.773438 256.28125 179.960938 C 254.21875 189.0625 254.035156 197.957031 253.953125 207.265625 C 253.929688 208.921875 253.90625 210.578125 253.882812 212.234375 C 253.820312 216.554688 253.773438 220.871094 253.726562 225.191406 C 253.679688 229.613281 253.617188 234.039062 253.558594 238.460938 C 253.441406 247.109375 253.34375 255.757812 253.246094 264.40625 C 238.523438 264.40625 223.796875 264.40625 208.628906 264.40625 C 208.628906 264.003906 208.628906 263.597656 208.628906 263.183594 C 222.554688 263.183594 236.484375 263.183594 250.835938 263.183594 C 250.808594 258.609375 250.777344 254.035156 250.75 249.324219 C 250.730469 244.84375 250.714844 240.363281 250.703125 235.882812 C 250.691406 232.792969 250.675781 229.703125 250.652344 226.617188 C 250.433594 193.695312 250.433594 193.695312 253.246094 179.945312 C 253.421875 179 253.597656 178.054688 253.78125 177.082031 C 258.164062 154.933594 267.851562 137.144531 284.242188 121.78125 C 287.011719 119.960938 287.011719 119.960938 289.597656 120.460938 Z M 289.597656 120.460938 "/>
<path style=" stroke:none;fill-rule:nonzero;fill:rgb(0%,0%,0%);fill-opacity:1;" d="M 361.78125 181.167969 C 374.117188 181.167969 386.453125 181.167969 399.164062 181.167969 C 396.753906 183.617188 396.753906 183.617188 394.164062 183.816406 C 393.105469 183.773438 392.046875 183.726562 390.960938 183.683594 C 389.789062 183.648438 388.617188 183.617188 387.410156 183.582031 C 385.542969 183.523438 385.542969 183.523438 383.640625 183.460938 C 372.945312 183.292969 364.265625 183.59375 354.546875 188.511719 C 353.175781 189.167969 351.808594 189.824219 350.398438 190.5 C 341.96875 198.433594 340.523438 208.335938 339.925781 219.441406 C 339.824219 222.269531 339.75 225.09375 339.691406 227.917969 C 339.671875 228.820312 339.648438 229.722656 339.625 230.65625 C 339.542969 233.972656 339.46875 237.292969 339.394531 240.613281 C 339.222656 248.0625 339.046875 255.507812 338.867188 263.183594 C 364.734375 263.183594 390.601562 263.183594 417.253906 263.183594 C 417.253906 275.578125 417.253906 275.578125 416.046875 282.234375 C 415.710938 284.128906 415.710938 284.128906 415.371094 286.0625 C 415.109375 287.460938 415.109375 287.460938 414.84375 288.890625 C 414.445312 288.890625 414.046875 288.890625 413.636719 288.890625 C 413.351562 280.046875 414.429688 273.449219 416.046875 264.40625 C 390.179688 264.40625 364.3125 264.40625 337.664062 264.40625 C 337.539062 255.242188 337.414062 246.078125 337.285156 236.636719 C 337.230469 233.777344 337.175781 230.917969 337.117188 227.972656 C 336.96875 214.398438 337.195312 203.160156 343.691406 190.960938 C 344.089844 190.152344 344.488281 189.34375 344.898438 188.511719 C 350.378906 186.339844 356.074219 185.015625 361.78125 183.617188 C 361.78125 182.808594 361.78125 182 361.78125 181.167969 Z M 361.78125 181.167969 "/>
<path style=" stroke:none;fill-rule:nonzero;fill:rgb(0%,0%,0%);fill-opacity:1;" d="M 207.421875 264.40625 C 207.820312 264.40625 208.21875 264.40625 208.628906 264.40625 C 209.023438 290.261719 209.421875 316.113281 209.832031 342.75 C 224.160156 343.152344 238.484375 343.558594 253.246094 343.972656 C 253.273438 352.074219 253.296875 360.171875 253.3125 368.269531 C 253.320312 371.019531 253.328125 373.769531 253.335938 376.519531 C 253.351562 380.492188 253.359375 384.46875 253.363281 388.441406 C 253.371094 389.652344 253.378906 390.863281 253.382812 392.109375 C 253.382812 400.597656 252.851562 408.96875 252.039062 417.421875 C 251.644531 417.421875 251.246094 417.421875 250.835938 417.421875 C 250.835938 416.675781 250.839844 415.929688 250.84375 415.164062 C 250.871094 407.378906 250.886719 399.59375 250.902344 391.808594 C 250.90625 388.90625 250.914062 386.003906 250.925781 383.101562 C 250.941406 378.921875 250.949219 374.742188 250.953125 370.558594 C 250.957031 369.269531 250.964844 367.984375 250.972656 366.65625 C 250.972656 365.429688 250.972656 364.207031 250.972656 362.945312 C 250.972656 361.878906 250.976562 360.8125 250.980469 359.714844 C 250.796875 355.265625 250.171875 350.84375 249.628906 346.421875 C 235.699219 346.019531 221.773438 345.613281 207.421875 345.199219 C 205.988281 342.285156 206.0625 340.507812 206.058594 337.257812 C 206.054688 336.117188 206.050781 334.972656 206.046875 333.796875 C 206.050781 332.554688 206.050781 331.316406 206.054688 330.035156 C 206.054688 328.75 206.054688 327.464844 206.050781 326.144531 C 206.050781 323.410156 206.054688 320.679688 206.058594 317.945312 C 206.0625 313.824219 206.058594 309.703125 206.050781 305.585938 C 206.046875 291.808594 206.207031 278.136719 207.421875 264.40625 Z M 207.421875 264.40625 "/>
<path style=" stroke:none;fill-rule:nonzero;fill:rgb(0%,0%,0%);fill-opacity:1;" d="M 380.472656 99 C 383.464844 99.011719 386.457031 99.023438 389.445312 99.03125 C 396.707031 99.058594 403.964844 99.101562 411.222656 99.152344 C 411.222656 99.554688 411.222656 99.960938 411.222656 100.375 C 410.082031 100.394531 410.082031 100.394531 408.917969 100.414062 C 400.953125 100.546875 392.992188 100.6875 385.027344 100.832031 C 382.0625 100.886719 379.09375 100.9375 376.125 100.984375 C 371.847656 101.054688 367.570312 101.132812 363.292969 101.214844 C 361.976562 101.234375 360.660156 101.253906 359.304688 101.277344 C 347.140625 100.625 347.140625 100.625 336.457031 104.050781 C 334.09375 104.257812 331.734375 104.460938 329.371094 104.660156 C 319.167969 106.023438 310.886719 110.253906 301.785156 114.949219 C 297.757812 117.027344 293.773438 118.660156 289.425781 119.960938 C 310.96875 96.203125 351.785156 98.792969 380.472656 99 Z M 380.472656 99 "/>
<path style=" stroke:none;fill-rule:nonzero;fill:rgb(0%,0%,0%);fill-opacity:1;" d="M 287.011719 119.960938 C 288.605469 120.367188 290.195312 120.769531 291.835938 121.1875 C 284.671875 128.457031 277.511719 135.730469 270.128906 143.21875 C 269.730469 141.605469 269.332031 139.988281 268.925781 138.324219 C 273.621094 131.425781 280.140625 124.667969 287.011719 119.960938 Z M 287.011719 119.960938 "/>
<path style=" stroke:none;fill-rule:nonzero;fill:rgb(0%,0%,0%);fill-opacity:1;" d="M 336.457031 102.824219 C 336.457031 103.230469 336.457031 103.632812 336.457031 104.050781 C 335.027344 104.121094 335.027344 104.121094 333.570312 104.195312 C 321.5625 105.324219 312.429688 109.457031 301.785156 114.949219 C 297.757812 117.027344 293.773438 118.660156 289.425781 119.960938 C 300.707031 107.433594 320.175781 101.652344 336.457031 102.824219 Z M 336.457031 102.824219 "/>
<path style=" stroke:none;fill-rule:nonzero;fill:rgb(0%,0%,0%);fill-opacity:1;" d="M 361.78125 181.167969 C 374.117188 181.167969 386.453125 181.167969 399.164062 181.167969 C 396.753906 183.617188 396.753906 183.617188 394.164062 183.816406 C 393.105469 183.773438 392.046875 183.726562 390.960938 183.683594 C 389.789062 183.648438 388.617188 183.617188 387.410156 183.582031 C 386.167969 183.542969 384.921875 183.503906 383.640625 183.460938 C 372.847656 183.273438 364.429688 183.851562 354.546875 188.511719 C 352.539062 189.335938 350.527344 190.152344 348.515625 190.960938 C 348.515625 190.152344 348.515625 189.34375 348.515625 188.511719 C 352.804688 185.308594 356.527344 184.234375 361.78125 183.617188 C 361.78125 182.808594 361.78125 182 361.78125 181.167969 Z M 361.78125 181.167969 "/>
<path style=" stroke:none;fill-rule:nonzero;fill:rgb(0%,0%,0%);fill-opacity:1;" d="M 308.71875 111.394531 C 305.960938 112.859375 303.199219 114.3125 300.429688 115.753906 C 299.644531 116.171875 298.859375 116.59375 298.050781 117.023438 C 296.015625 118.078125 293.929688 119.027344 291.835938 119.960938 C 291.039062 119.558594 290.246094 119.15625 289.425781 118.738281 C 291.15625 117.535156 292.890625 116.335938 294.625 115.140625 C 295.589844 114.476562 296.554688 113.808594 297.550781 113.121094 C 301.746094 110.464844 304.070312 109.929688 308.71875 111.394531 Z M 308.71875 111.394531 "/>
<path style=" stroke:none;fill-rule:nonzero;fill:rgb(0%,0%,0%);fill-opacity:1;" d="M 344.898438 188.511719 C 346.09375 188.511719 347.285156 188.511719 348.515625 188.511719 C 347.707031 193.644531 345.070312 197.574219 342.484375 201.976562 C 341.691406 201.976562 340.894531 201.976562 340.074219 201.976562 C 340.648438 200.191406 341.226562 198.40625 341.808594 196.621094 C 342.128906 195.628906 342.453125 194.632812 342.78125 193.609375 C 343.691406 190.960938 343.691406 190.960938 344.898438 188.511719 Z M 344.898438 188.511719 "/>
<path style=" stroke:none;fill-rule:nonzero;fill:rgb(0%,0%,0%);fill-opacity:1;" d="M 276.160156 129.753906 C 276.558594 130.96875 276.957031 132.179688 277.367188 133.425781 C 274.578125 135.851562 271.792969 138.273438 268.925781 140.773438 C 271.027344 136.503906 273.179688 133.386719 276.160156 129.753906 Z M 276.160156 129.753906 "/>
</g>
</svg>
