<?xml version="1.0" encoding="UTF-8"?>
<svg xmlns="http://www.w3.org/2000/svg" xmlns:xlink="http://www.w3.org/1999/xlink" width="539px" height="531px" viewBox="0 0 539 531" version="1.1">
<g id="surface1">
<path style=" stroke:none;fill-rule:nonzero;fill:rgb(7.450981%,7.450981%,7.450981%);fill-opacity:1;" d="M 300.359375 80.867188 C 302.082031 80.867188 302.082031 80.867188 303.839844 80.863281 C 306.25 80.863281 308.660156 80.867188 311.070312 80.871094 C 314.753906 80.875 318.4375 80.871094 322.121094 80.863281 C 324.472656 80.863281 326.820312 80.863281 329.171875 80.867188 C 330.269531 80.863281 331.367188 80.863281 332.496094 80.859375 C 333.523438 80.863281 334.554688 80.867188 335.613281 80.871094 C 336.511719 80.871094 337.410156 80.871094 338.332031 80.871094 C 341.28125 81.011719 344.097656 81.464844 347 82 C 347.175781 90.570312 347.34375 99.140625 347.496094 107.710938 C 347.566406 111.691406 347.640625 115.671875 347.722656 119.652344 C 347.804688 123.488281 347.875 127.328125 347.9375 131.167969 C 347.964844 132.632812 347.992188 134.097656 348.027344 135.566406 C 348.070312 137.613281 348.105469 139.664062 348.136719 141.714844 C 348.15625 142.882812 348.179688 144.050781 348.203125 145.253906 C 348 148 348 148 346 150 C 343.125 150.125 340.347656 150.132812 337.476562 150.054688 C 335.714844 150.03125 333.953125 150.003906 332.191406 149.980469 C 329.421875 149.929688 326.652344 149.875 323.886719 149.808594 C 304.621094 149.246094 304.621094 149.246094 288 158 C 282.132812 166.863281 281.902344 175.867188 281.683594 186.191406 C 281.664062 186.929688 281.644531 187.667969 281.628906 188.425781 C 281.558594 191.140625 281.5 193.851562 281.4375 196.5625 C 281.292969 202.648438 281.148438 208.730469 281 215 C 302.449219 215 323.898438 215 346 215 C 346 225.125 346 225.125 345.390625 228.546875 C 345.253906 229.320312 345.121094 230.089844 344.984375 230.886719 C 344.835938 231.6875 344.691406 232.492188 344.539062 233.320312 C 344.386719 234.183594 344.238281 235.042969 344.082031 235.929688 C 343.605469 238.664062 343.113281 241.394531 342.625 244.125 C 341.988281 247.710938 341.355469 251.296875 340.726562 254.882812 C 340.496094 256.179688 340.496094 256.179688 340.261719 257.503906 C 339.117188 264.066406 338.234375 270.632812 337.503906 277.257812 C 337 280 337 280 335 282 C 332.632812 282.332031 330.382812 282.523438 328 282.625 C 326.921875 282.675781 326.921875 282.675781 325.820312 282.726562 C 316.984375 283.074219 308.152344 283.042969 299.3125 283.023438 C 297.726562 283.023438 296.136719 283.019531 294.546875 283.019531 C 290.699219 283.015625 286.847656 283.007812 283 283 C 282.996094 284.046875 282.992188 285.089844 282.988281 286.167969 C 282.882812 311.5625 282.777344 336.957031 282.660156 362.351562 C 282.605469 374.632812 282.550781 386.914062 282.503906 399.195312 C 282.460938 409.894531 282.414062 420.59375 282.363281 431.292969 C 282.335938 436.960938 282.3125 442.628906 282.289062 448.300781 C 282.269531 453.628906 282.246094 458.957031 282.21875 464.289062 C 282.210938 466.25 282.203125 468.210938 282.195312 470.171875 C 282.1875 472.839844 282.175781 475.507812 282.160156 478.171875 C 282.15625 478.960938 282.15625 479.746094 282.15625 480.558594 C 282.113281 485.886719 282.113281 485.886719 281 487 C 279.054688 487.128906 277.105469 487.1875 275.15625 487.222656 C 273.277344 487.257812 273.277344 487.257812 271.359375 487.292969 C 269.980469 487.3125 268.597656 487.332031 267.21875 487.351562 C 265.808594 487.375 264.394531 487.398438 262.984375 487.421875 C 260.015625 487.46875 257.042969 487.515625 254.074219 487.558594 C 250.289062 487.613281 246.503906 487.675781 242.722656 487.742188 C 239.800781 487.792969 236.875 487.839844 233.953125 487.882812 C 232.5625 487.902344 231.167969 487.925781 229.773438 487.949219 C 222.414062 488.078125 215.292969 488.03125 208 487 C 206.902344 479.917969 206.855469 472.960938 206.867188 465.804688 C 206.863281 463.84375 206.863281 463.84375 206.863281 461.84375 C 206.859375 458.269531 206.863281 454.691406 206.871094 451.117188 C 206.875 448.863281 206.875 446.605469 206.878906 444.347656 C 206.890625 420.453125 207.152344 396.5625 207.535156 372.671875 C 207.855469 352.488281 208.109375 332.3125 208.125 312.125 C 208.128906 311.082031 208.128906 310.039062 208.132812 308.960938 C 208.136719 306.058594 208.136719 303.160156 208.132812 300.257812 C 208.136719 299.011719 208.136719 299.011719 208.140625 297.742188 C 208.132812 296.578125 208.132812 296.578125 208.128906 295.386719 C 208.128906 294.726562 208.128906 294.070312 208.128906 293.390625 C 207.941406 289.910156 207.433594 286.457031 207 283 C 189.675781 282.503906 189.675781 282.503906 172 282 C 170.808594 279.621094 170.875 278.167969 170.871094 275.511719 C 170.867188 274.582031 170.863281 273.648438 170.859375 272.6875 C 170.863281 271.671875 170.863281 270.660156 170.867188 269.613281 C 170.867188 268.5625 170.867188 267.515625 170.863281 266.433594 C 170.863281 264.203125 170.867188 261.96875 170.871094 259.738281 C 170.875 256.371094 170.871094 253.003906 170.863281 249.640625 C 170.855469 225.136719 170.855469 225.136719 172 216 C 173 215 173 215 176.328125 214.886719 C 177.800781 214.886719 179.277344 214.890625 180.753906 214.902344 C 181.53125 214.902344 182.304688 214.90625 183.105469 214.90625 C 185.589844 214.914062 188.078125 214.925781 190.5625 214.9375 C 192.242188 214.941406 193.925781 214.945312 195.609375 214.953125 C 199.738281 214.960938 203.871094 214.980469 208 215 C 207.996094 214.355469 207.992188 213.710938 207.988281 213.042969 C 207.941406 206.261719 207.910156 199.480469 207.890625 192.699219 C 207.878906 190.175781 207.867188 187.652344 207.847656 185.128906 C 207.667969 158.234375 207.667969 158.234375 210 147 C 210.144531 146.230469 210.292969 145.457031 210.441406 144.664062 C 214.707031 123.433594 225.144531 106.546875 243.1875 94.3125 C 260.75 83.652344 280.125 80.828125 300.359375 80.867188 Z M 300.359375 80.867188 "/>
<path style=" stroke:none;fill-rule:nonzero;fill:rgb(0%,0%,0%);fill-opacity:1;" d="M 172 216 C 172.328125 216 172.660156 216 173 216 C 173.328125 237.121094 173.660156 258.238281 174 280 C 185.878906 280.328125 197.761719 280.660156 210 281 C 210 347.988281 210 414.980469 210 484 C 232.769531 484 255.539062 484 279 484 C 278.996094 477.855469 278.988281 471.710938 278.984375 465.382812 C 278.96875 445.136719 278.957031 424.890625 278.949219 404.648438 C 278.941406 392.367188 278.9375 380.085938 278.925781 367.804688 C 278.914062 357.105469 278.90625 346.40625 278.90625 335.707031 C 278.90625 330.039062 278.902344 324.371094 278.894531 318.699219 C 278.886719 313.371094 278.886719 308.042969 278.886719 302.710938 C 278.886719 300.75 278.882812 298.789062 278.878906 296.828125 C 278.875 294.160156 278.878906 291.492188 278.878906 288.828125 C 278.875 288.039062 278.875 287.253906 278.871094 286.441406 C 278.886719 281.113281 278.886719 281.113281 280 280 C 281.71875 279.90625 283.441406 279.882812 285.164062 279.886719 C 286.261719 279.886719 287.363281 279.886719 288.5 279.886719 C 289.695312 279.890625 290.894531 279.898438 292.128906 279.902344 C 293.347656 279.902344 294.566406 279.90625 295.824219 279.90625 C 299.738281 279.914062 303.648438 279.925781 307.5625 279.9375 C 310.207031 279.941406 312.851562 279.945312 315.5 279.953125 C 322 279.960938 328.5 279.980469 335 280 C 335.082031 279.292969 335.164062 278.582031 335.25 277.855469 C 335.632812 274.597656 336.015625 271.339844 336.402344 268.085938 C 336.53125 266.972656 336.664062 265.859375 336.796875 264.710938 C 339.597656 241.101562 339.597656 241.101562 343 236 C 342.363281 244.667969 341.191406 253.230469 339.898438 261.820312 C 339.558594 264.089844 339.230469 266.359375 338.90625 268.632812 C 338.6875 270.078125 338.472656 271.527344 338.253906 272.972656 C 337.964844 274.925781 337.964844 274.925781 337.671875 276.917969 C 337 280 337 280 335 282 C 332.632812 282.332031 330.382812 282.523438 328 282.625 C 326.921875 282.675781 326.921875 282.675781 325.820312 282.726562 C 316.984375 283.074219 308.152344 283.042969 299.3125 283.023438 C 297.726562 283.023438 296.136719 283.019531 294.546875 283.019531 C 290.699219 283.015625 286.847656 283.007812 283 283 C 282.996094 284.046875 282.992188 285.089844 282.988281 286.167969 C 282.882812 311.5625 282.777344 336.957031 282.660156 362.351562 C 282.605469 374.632812 282.550781 386.914062 282.503906 399.195312 C 282.460938 409.894531 282.414062 420.59375 282.363281 431.292969 C 282.335938 436.960938 282.3125 442.628906 282.289062 448.300781 C 282.269531 453.628906 282.246094 458.957031 282.21875 464.289062 C 282.210938 466.25 282.203125 468.210938 282.195312 470.171875 C 282.1875 472.839844 282.175781 475.507812 282.160156 478.171875 C 282.15625 478.960938 282.15625 479.746094 282.15625 480.558594 C 282.113281 485.886719 282.113281 485.886719 281 487 C 279.054688 487.128906 277.105469 487.1875 275.15625 487.222656 C 273.277344 487.257812 273.277344 487.257812 271.359375 487.292969 C 269.980469 487.3125 268.597656 487.332031 267.21875 487.351562 C 265.808594 487.375 264.394531 487.398438 262.984375 487.421875 C 260.015625 487.46875 257.042969 487.515625 254.074219 487.558594 C 250.289062 487.613281 246.503906 487.675781 242.722656 487.742188 C 239.800781 487.792969 236.875 487.839844 233.953125 487.882812 C 232.5625 487.902344 231.167969 487.925781 229.773438 487.949219 C 222.414062 488.078125 215.292969 488.03125 208 487 C 206.902344 479.917969 206.855469 472.960938 206.867188 465.804688 C 206.863281 463.84375 206.863281 463.84375 206.863281 461.84375 C 206.859375 458.269531 206.863281 454.691406 206.871094 451.117188 C 206.875 448.863281 206.875 446.605469 206.878906 444.347656 C 206.890625 420.453125 207.152344 396.5625 207.535156 372.671875 C 207.855469 352.488281 208.109375 332.3125 208.125 312.125 C 208.128906 311.082031 208.128906 310.039062 208.132812 308.960938 C 208.136719 306.058594 208.136719 303.160156 208.132812 300.257812 C 208.136719 299.011719 208.136719 299.011719 208.140625 297.742188 C 208.132812 296.578125 208.132812 296.578125 208.128906 295.386719 C 208.128906 294.726562 208.128906 294.070312 208.128906 293.390625 C 207.941406 289.910156 207.433594 286.457031 207 283 C 195.449219 282.671875 183.898438 282.339844 172 282 C 170.808594 279.621094 170.875 278.167969 170.871094 275.511719 C 170.867188 274.582031 170.863281 273.648438 170.859375 272.6875 C 170.863281 271.671875 170.863281 270.660156 170.867188 269.613281 C 170.867188 268.5625 170.867188 267.515625 170.863281 266.433594 C 170.863281 264.203125 170.867188 261.96875 170.871094 259.738281 C 170.875 256.371094 170.871094 253.003906 170.863281 249.640625 C 170.859375 238.382812 170.996094 227.214844 172 216 Z M 172 216 "/>
<path style=" stroke:none;fill-rule:nonzero;fill:rgb(0%,0%,0%);fill-opacity:1;" d="M 300.359375 80.867188 C 302.082031 80.867188 302.082031 80.867188 303.839844 80.863281 C 306.25 80.863281 308.660156 80.867188 311.070312 80.871094 C 314.753906 80.875 318.4375 80.871094 322.121094 80.863281 C 324.472656 80.863281 326.820312 80.863281 329.171875 80.867188 C 330.269531 80.863281 331.367188 80.863281 332.496094 80.859375 C 333.523438 80.863281 334.554688 80.867188 335.613281 80.871094 C 336.511719 80.871094 337.410156 80.871094 338.332031 80.871094 C 341.28125 81.011719 344.097656 81.464844 347 82 C 347.175781 90.570312 347.34375 99.140625 347.496094 107.710938 C 347.566406 111.691406 347.640625 115.671875 347.722656 119.652344 C 347.804688 123.488281 347.875 127.328125 347.9375 131.167969 C 347.964844 132.632812 347.992188 134.097656 348.027344 135.566406 C 348.070312 137.613281 348.105469 139.664062 348.136719 141.714844 C 348.15625 142.882812 348.179688 144.050781 348.203125 145.253906 C 348 148 348 148 346 150 C 343.125 150.125 340.347656 150.132812 337.476562 150.054688 C 335.714844 150.03125 333.953125 150.003906 332.191406 149.980469 C 329.421875 149.929688 326.652344 149.875 323.886719 149.808594 C 304.621094 149.246094 304.621094 149.246094 288 158 C 282.132812 166.863281 281.902344 175.867188 281.683594 186.191406 C 281.664062 186.929688 281.644531 187.667969 281.628906 188.425781 C 281.558594 191.140625 281.5 193.851562 281.4375 196.5625 C 281.292969 202.648438 281.148438 208.730469 281 215 C 302.449219 215 323.898438 215 346 215 C 346 225.125 346 225.125 345 230.5625 C 344.8125 231.59375 344.628906 232.628906 344.4375 233.691406 C 344.292969 234.453125 344.148438 235.214844 344 236 C 343.671875 236 343.339844 236 343 236 C 342.761719 228.777344 343.65625 223.386719 345 216 C 323.550781 216 302.101562 216 280 216 C 279.898438 208.511719 279.792969 201.027344 279.6875 193.3125 C 279.640625 190.976562 279.597656 188.640625 279.550781 186.234375 C 279.425781 175.148438 279.613281 165.96875 285 156 C 285.328125 155.339844 285.660156 154.679688 286 154 C 290.542969 152.226562 295.265625 151.140625 300 150 C 300 149.339844 300 148.679688 300 148 C 314.851562 148 329.699219 148 345 148 C 345 126.878906 345 105.761719 345 84 C 332.8125 83.390625 320.785156 82.835938 308.605469 82.871094 C 306.273438 82.875 303.941406 82.871094 301.609375 82.863281 C 290.769531 82.859375 290.769531 82.859375 280 84 C 279.671875 84.328125 279.339844 84.660156 279 85 C 277.042969 85.171875 275.082031 85.335938 273.125 85.5 C 263.84375 86.714844 256.09375 90.816406 247.863281 95.09375 C 246 96 246 96 243 97 C 241.523438 98.457031 241.523438 98.457031 240.0625 100.3125 C 237.351562 103.535156 234.507812 106.484375 231.472656 109.394531 C 223.824219 116.769531 219.117188 123.414062 217 134 C 216.339844 134 215.679688 134 215 134 C 214.816406 135.015625 214.816406 135.015625 214.632812 136.054688 C 214.464844 136.984375 214.296875 137.917969 214.125 138.875 C 213.960938 139.78125 213.800781 140.683594 213.632812 141.617188 C 213.296875 143.421875 212.945312 145.226562 212.515625 147.015625 C 210.808594 154.449219 210.65625 161.714844 210.585938 169.320312 C 210.566406 170.671875 210.546875 172.027344 210.527344 173.378906 C 210.476562 176.90625 210.4375 180.4375 210.398438 183.964844 C 210.359375 187.578125 210.308594 191.191406 210.257812 194.804688 C 210.160156 201.871094 210.082031 208.933594 210 216 C 197.789062 216 185.578125 216 173 216 C 173 215.671875 173 215.339844 173 215 C 184.550781 215 196.101562 215 208 215 C 207.976562 211.265625 207.953125 207.527344 207.929688 203.679688 C 207.914062 200.019531 207.902344 196.359375 207.890625 192.699219 C 207.878906 190.175781 207.867188 187.652344 207.847656 185.128906 C 207.667969 158.234375 207.667969 158.234375 210 147 C 210.144531 146.230469 210.292969 145.457031 210.441406 144.664062 C 214.707031 123.433594 225.144531 106.546875 243.1875 94.3125 C 260.75 83.652344 280.125 80.828125 300.359375 80.867188 Z M 300.359375 80.867188 "/>
<path style=" stroke:none;fill-rule:nonzero;fill:rgb(0%,0%,0%);fill-opacity:1;" d="M 172 216 C 172.328125 216 172.660156 216 173 216 C 173.328125 237.121094 173.660156 258.238281 174 280 C 185.878906 280.328125 197.761719 280.660156 210 281 C 210 347.988281 210 414.980469 210 484 C 232.769531 484 255.539062 484 279 484 C 279 417.011719 279 350.019531 279 281 C 279.328125 281 279.660156 281 280 281 C 280 348.648438 280 416.300781 280 486 C 256.570312 486 233.140625 486 209 486 C 208.867188 464.414062 208.738281 442.828125 208.609375 421.242188 C 208.546875 411.21875 208.488281 401.191406 208.425781 391.164062 C 208.375 382.414062 208.320312 373.664062 208.269531 364.914062 C 208.242188 360.289062 208.214844 355.667969 208.183594 351.046875 C 208.160156 346.6875 208.132812 342.328125 208.105469 337.972656 C 208.097656 336.3125 208.085938 334.65625 208.078125 332.996094 C 208.027344 325.015625 207.992188 317.035156 208.023438 309.050781 C 208.027344 307.851562 208.03125 306.652344 208.035156 305.414062 C 208.042969 303.253906 208.058594 301.09375 208.078125 298.933594 C 208.082031 297.992188 208.085938 297.050781 208.089844 296.078125 C 208.097656 295.285156 208.101562 294.488281 208.109375 293.667969 C 207.960938 290.097656 207.445312 286.546875 207 283 C 195.449219 282.671875 183.898438 282.339844 172 282 C 170.808594 279.621094 170.875 278.167969 170.871094 275.511719 C 170.867188 274.582031 170.863281 273.648438 170.859375 272.6875 C 170.863281 271.671875 170.863281 270.660156 170.867188 269.613281 C 170.867188 268.5625 170.867188 267.515625 170.863281 266.433594 C 170.863281 264.203125 170.867188 261.96875 170.871094 259.738281 C 170.875 256.371094 170.871094 253.003906 170.863281 249.640625 C 170.859375 238.382812 170.996094 227.214844 172 216 Z M 172 216 "/>
<path style=" stroke:none;fill-rule:nonzero;fill:rgb(0%,0%,0%);fill-opacity:1;" d="M 240.144531 98.40625 C 240.757812 98.601562 241.367188 98.796875 242 99 C 241.222656 99.746094 241.222656 99.746094 240.425781 100.507812 C 238.042969 102.808594 235.679688 105.121094 233.3125 107.4375 C 232.085938 108.613281 232.085938 108.613281 230.839844 109.808594 C 223.484375 117.046875 219.027344 123.855469 217 134 C 216.339844 134 215.679688 134 215 134 C 214.816406 135.015625 214.816406 135.015625 214.632812 136.054688 C 214.464844 136.984375 214.296875 137.917969 214.125 138.875 C 213.960938 139.78125 213.800781 140.683594 213.632812 141.617188 C 213.296875 143.421875 212.945312 145.226562 212.515625 147.015625 C 210.808594 154.449219 210.65625 161.714844 210.585938 169.320312 C 210.566406 170.671875 210.546875 172.027344 210.527344 173.378906 C 210.476562 176.90625 210.4375 180.4375 210.398438 183.964844 C 210.359375 187.578125 210.308594 191.191406 210.257812 194.804688 C 210.160156 201.871094 210.082031 208.933594 210 216 C 197.789062 216 185.578125 216 173 216 C 173 215.671875 173 215.339844 173 215 C 184.550781 215 196.101562 215 208 215 C 207.976562 211.265625 207.953125 207.527344 207.929688 203.679688 C 207.914062 200.019531 207.902344 196.359375 207.890625 192.699219 C 207.878906 190.175781 207.867188 187.652344 207.847656 185.128906 C 207.667969 158.234375 207.667969 158.234375 210 147 C 210.144531 146.230469 210.292969 145.457031 210.441406 144.664062 C 214.078125 126.570312 222.113281 112.039062 235.703125 99.484375 C 238 98 238 98 240.144531 98.40625 Z M 240.144531 98.40625 "/>
<path style=" stroke:none;fill-rule:nonzero;fill:rgb(0%,0%,0%);fill-opacity:1;" d="M 300 148 C 310.230469 148 320.460938 148 331 148 C 329 150 329 150 326.851562 150.164062 C 325.976562 150.128906 325.097656 150.089844 324.195312 150.054688 C 323.222656 150.027344 322.253906 150 321.253906 149.972656 C 319.703125 149.921875 319.703125 149.921875 318.125 149.875 C 309.257812 149.734375 302.0625 149.984375 294 154 C 292.867188 154.535156 291.730469 155.074219 290.5625 155.625 C 283.570312 162.105469 282.375 170.191406 281.875 179.269531 C 281.792969 181.574219 281.734375 183.882812 281.683594 186.191406 C 281.664062 186.929688 281.644531 187.667969 281.628906 188.425781 C 281.558594 191.140625 281.5 193.851562 281.4375 196.5625 C 281.292969 202.648438 281.148438 208.730469 281 215 C 302.449219 215 323.898438 215 346 215 C 346 225.125 346 225.125 345 230.5625 C 344.722656 232.109375 344.722656 232.109375 344.4375 233.691406 C 344.222656 234.835938 344.222656 234.835938 344 236 C 343.671875 236 343.339844 236 343 236 C 342.761719 228.777344 343.65625 223.386719 345 216 C 323.550781 216 302.101562 216 280 216 C 279.898438 208.511719 279.792969 201.027344 279.6875 193.3125 C 279.640625 190.976562 279.597656 188.640625 279.550781 186.234375 C 279.425781 175.148438 279.613281 165.96875 285 156 C 285.328125 155.339844 285.660156 154.679688 286 154 C 290.542969 152.226562 295.265625 151.140625 300 150 C 300 149.339844 300 148.679688 300 148 Z M 300 148 "/>
<path style=" stroke:none;fill-rule:nonzero;fill:rgb(0%,0%,0%);fill-opacity:1;" d="M 172 216 C 172.328125 216 172.660156 216 173 216 C 173.328125 237.121094 173.660156 258.238281 174 280 C 185.878906 280.328125 197.761719 280.660156 210 281 C 210.023438 287.617188 210.042969 294.230469 210.054688 300.847656 C 210.058594 303.09375 210.066406 305.339844 210.074219 307.585938 C 210.085938 310.835938 210.09375 314.082031 210.097656 317.328125 C 210.101562 318.316406 210.109375 319.304688 210.113281 320.320312 C 210.113281 327.257812 209.671875 334.097656 209 341 C 208.671875 341 208.339844 341 208 341 C 208.003906 340.390625 208.003906 339.78125 208.007812 339.15625 C 208.027344 332.796875 208.042969 326.4375 208.054688 320.078125 C 208.058594 317.707031 208.066406 315.335938 208.074219 312.964844 C 208.085938 309.550781 208.09375 306.132812 208.097656 302.71875 C 208.101562 301.667969 208.109375 300.613281 208.113281 299.53125 C 208.113281 298.527344 208.113281 297.527344 208.113281 296.5 C 208.117188 295.628906 208.117188 294.757812 208.121094 293.859375 C 207.96875 290.222656 207.453125 286.609375 207 283 C 195.449219 282.671875 183.898438 282.339844 172 282 C 170.808594 279.621094 170.875 278.167969 170.871094 275.511719 C 170.867188 274.582031 170.863281 273.648438 170.859375 272.6875 C 170.863281 271.671875 170.863281 270.660156 170.867188 269.613281 C 170.867188 268.5625 170.867188 267.515625 170.863281 266.433594 C 170.863281 264.203125 170.867188 261.96875 170.871094 259.738281 C 170.875 256.371094 170.871094 253.003906 170.863281 249.640625 C 170.859375 238.382812 170.996094 227.214844 172 216 Z M 172 216 "/>
<path style=" stroke:none;fill-rule:nonzero;fill:rgb(0%,0%,0%);fill-opacity:1;" d="M 315.5 80.875 C 317.980469 80.886719 320.460938 80.894531 322.941406 80.902344 C 328.960938 80.925781 334.980469 80.957031 341 81 C 341 81.328125 341 81.660156 341 82 C 340.054688 82.015625 340.054688 82.015625 339.085938 82.03125 C 332.484375 82.140625 325.878906 82.253906 319.277344 82.371094 C 316.816406 82.414062 314.355469 82.457031 311.894531 82.496094 C 308.347656 82.554688 304.800781 82.617188 301.253906 82.683594 C 300.164062 82.699219 299.070312 82.71875 297.949219 82.734375 C 287.859375 82.203125 287.859375 82.203125 279 85 C 277.042969 85.171875 275.082031 85.335938 273.125 85.5 C 264.664062 86.613281 257.796875 90.070312 250.25 93.90625 C 246.910156 95.605469 243.605469 96.9375 240 98 C 257.867188 78.589844 291.710938 80.707031 315.5 80.875 Z M 315.5 80.875 "/>
<path style=" stroke:none;fill-rule:nonzero;fill:rgb(0%,0%,0%);fill-opacity:1;" d="M 238 98 C 239.320312 98.328125 240.640625 98.660156 242 99 C 236.058594 104.941406 230.121094 110.878906 224 117 C 223.671875 115.679688 223.339844 114.359375 223 113 C 226.894531 107.363281 232.300781 101.84375 238 98 Z M 238 98 "/>
<path style=" stroke:none;fill-rule:nonzero;fill:rgb(0%,0%,0%);fill-opacity:1;" d="M 279 84 C 279 84.328125 279 84.660156 279 85 C 277.816406 85.058594 277.816406 85.058594 276.605469 85.121094 C 266.648438 86.042969 259.078125 89.417969 250.25 93.90625 C 246.910156 95.605469 243.605469 96.9375 240 98 C 249.355469 87.761719 265.5 83.042969 279 84 Z M 279 84 "/>
<path style=" stroke:none;fill-rule:nonzero;fill:rgb(0%,0%,0%);fill-opacity:1;" d="M 300 148 C 310.230469 148 320.460938 148 331 148 C 329 150 329 150 326.851562 150.164062 C 325.976562 150.128906 325.097656 150.089844 324.195312 150.054688 C 323.222656 150.027344 322.253906 150 321.253906 149.972656 C 320.222656 149.941406 319.1875 149.90625 318.125 149.875 C 309.175781 149.722656 302.195312 150.195312 294 154 C 292.335938 154.671875 290.667969 155.339844 289 156 C 289 155.339844 289 154.679688 289 154 C 292.558594 151.382812 295.644531 150.507812 300 150 C 300 149.339844 300 148.679688 300 148 Z M 300 148 "/>
<path style=" stroke:none;fill-rule:nonzero;fill:rgb(0%,0%,0%);fill-opacity:1;" d="M 256 91 C 253.714844 92.195312 251.421875 93.382812 249.125 94.5625 C 248.472656 94.90625 247.824219 95.246094 247.152344 95.601562 C 245.464844 96.460938 243.734375 97.238281 242 98 C 241.339844 97.671875 240.679688 97.339844 240 97 C 241.433594 96.015625 242.871094 95.039062 244.3125 94.0625 C 245.113281 93.515625 245.914062 92.972656 246.738281 92.410156 C 250.21875 90.242188 252.144531 89.804688 256 91 Z M 256 91 "/>
<path style=" stroke:none;fill-rule:nonzero;fill:rgb(0%,0%,0%);fill-opacity:1;" d="M 286 154 C 286.988281 154 287.980469 154 289 154 C 288.328125 158.195312 286.144531 161.402344 284 165 C 283.339844 165 282.679688 165 282 165 C 282.476562 163.542969 282.957031 162.082031 283.4375 160.625 C 283.703125 159.8125 283.972656 159 284.246094 158.164062 C 285 156 285 156 286 154 Z M 286 154 "/>
<path style=" stroke:none;fill-rule:nonzero;fill:rgb(0%,0%,0%);fill-opacity:1;" d="M 229 106 C 229.328125 106.988281 229.660156 107.980469 230 109 C 227.691406 110.980469 225.378906 112.960938 223 115 C 224.742188 111.511719 226.527344 108.964844 229 106 Z M 229 106 "/>
</g>
</svg>
