<?xml version="1.0" encoding="UTF-8"?>
<svg xmlns="http://www.w3.org/2000/svg" xmlns:xlink="http://www.w3.org/1999/xlink" width="512px" height="512px" viewBox="0 0 512 512" version="1.1">
<g id="surface1">
<path style=" stroke:none;fill-rule:nonzero;fill:rgb(0.392157%,0.392157%,0.392157%);fill-opacity:1;" d="M 348.808594 112.597656 C 350.820312 112.664062 352.832031 112.730469 354.839844 112.796875 C 368.070312 113.234375 381.277344 113.867188 394.480469 114.839844 C 394.976562 114.875 395.476562 114.910156 395.988281 114.949219 C 401.328125 115.335938 406.617188 115.894531 411.90625 116.734375 C 412.371094 116.800781 412.835938 116.871094 413.3125 116.945312 C 425.75 119.039062 437.117188 127.886719 444.738281 137.5625 C 450.527344 146.019531 453.578125 156.582031 455.839844 166.480469 C 455.9375 166.898438 456.035156 167.316406 456.132812 167.75 C 457.890625 175.964844 458.476562 184.429688 459.121094 192.789062 C 459.238281 194.304688 459.359375 195.820312 459.484375 197.335938 C 460.503906 210.179688 460.902344 223 460.90625 235.878906 C 460.910156 237.292969 460.910156 238.707031 460.914062 240.121094 C 460.917969 243.070312 460.917969 246.015625 460.917969 248.964844 C 460.917969 251.929688 460.921875 254.894531 460.933594 257.859375 C 460.984375 275.847656 460.746094 293.734375 459.519531 311.679688 C 459.476562 312.355469 459.429688 313.03125 459.386719 313.726562 C 459.1875 316.753906 458.96875 319.773438 458.707031 322.796875 C 458.59375 324.136719 458.492188 325.476562 458.390625 326.816406 C 456.832031 346.027344 452.277344 366.683594 438.398438 380.800781 C 438.007812 381.203125 437.613281 381.605469 437.207031 382.015625 C 427.207031 391.460938 413.359375 395.257812 400 396.160156 C 398.839844 396.289062 397.679688 396.421875 396.519531 396.558594 C 394.480469 396.757812 392.484375 396.808594 390.433594 396.78125 C 386.257812 396.765625 382.125 397.066406 377.960938 397.359375 C 361.734375 398.4375 345.472656 398.804688 329.222656 399.292969 C 327.21875 399.355469 325.210938 399.417969 323.207031 399.476562 C 320.496094 399.5625 317.78125 399.640625 315.070312 399.71875 C 314.148438 399.746094 313.222656 399.773438 312.296875 399.800781 C 307.308594 399.945312 302.332031 400.007812 297.339844 399.992188 C 291.464844 399.976562 285.59375 400.058594 279.71875 400.164062 C 278.796875 400.179688 277.875 400.195312 276.953125 400.210938 C 273.171875 400.277344 269.390625 400.339844 265.605469 400.414062 C 254.546875 400.628906 243.554688 400.65625 232.5 400.148438 C 228.855469 399.992188 225.21875 399.980469 221.574219 399.996094 C 219.042969 400 216.515625 399.945312 213.988281 399.859375 C 213.015625 399.832031 212.046875 399.800781 211.074219 399.773438 C 209.601562 399.726562 208.125 399.679688 206.652344 399.632812 C 201.441406 399.46875 196.246094 399.34375 191.03125 399.378906 C 187.359375 399.402344 183.722656 399.285156 180.058594 399.054688 C 175.769531 398.785156 171.496094 398.644531 167.203125 398.585938 C 166.605469 398.578125 166.007812 398.566406 165.390625 398.558594 C 164.144531 398.542969 162.898438 398.527344 161.652344 398.507812 C 100.015625 397.601562 100.015625 397.601562 80.640625 385.921875 C 80.035156 385.585938 79.433594 385.25 78.808594 384.90625 C 78.359375 384.605469 77.90625 384.308594 77.441406 384 C 77.441406 383.578125 77.441406 383.15625 77.441406 382.71875 C 77.074219 382.558594 76.707031 382.398438 76.328125 382.234375 C 69.328125 378.40625 64.867188 370.078125 62.078125 362.878906 C 62.078125 362.246094 62.078125 361.613281 62.078125 360.960938 C 61.65625 360.75 61.234375 360.539062 60.800781 360.320312 C 60.308594 358.871094 59.878906 357.398438 59.480469 355.921875 C 59.152344 354.714844 59.152344 354.714844 58.816406 353.484375 C 58.625 352.785156 58.4375 352.082031 58.238281 351.359375 C 57.921875 350.410156 57.921875 350.410156 57.601562 349.441406 C 54.726562 336.878906 53.128906 324.125 52.558594 311.253906 C 52.460938 309.371094 52.324219 307.492188 52.191406 305.609375 C 50.800781 284.882812 50.394531 264.144531 50.699219 243.375 C 50.71875 241.988281 50.738281 240.597656 50.757812 239.210938 C 50.996094 221.777344 51.898438 204.390625 53.679688 187.039062 C 53.734375 186.5 53.789062 185.960938 53.847656 185.40625 C 56.105469 163.511719 60.480469 142.226562 77.882812 127.238281 C 89.207031 118.363281 102.34375 115.949219 116.28125 114.878906 C 116.796875 114.839844 117.3125 114.800781 117.84375 114.757812 C 131.542969 113.695312 145.265625 113.1875 158.996094 112.699219 C 160.449219 112.648438 161.90625 112.59375 163.359375 112.535156 C 168.753906 112.324219 174.148438 112.164062 179.546875 112.039062 C 180.636719 112.011719 181.726562 111.984375 182.8125 111.957031 C 238.109375 110.574219 293.527344 110.71875 348.808594 112.597656 Z M 348.808594 112.597656 "/>
<path style=" stroke:none;fill-rule:nonzero;fill:rgb(99.215686%,99.215686%,99.215686%);fill-opacity:1;" d="M 214.398438 195.199219 C 217.238281 196.148438 219.519531 197.058594 222.125 198.429688 C 222.859375 198.8125 223.589844 199.195312 224.34375 199.589844 C 225.109375 199.992188 225.875 200.398438 226.640625 200.800781 C 228.132812 201.582031 229.628906 202.367188 231.125 203.148438 C 232.222656 203.726562 232.222656 203.726562 233.34375 204.3125 C 236.035156 205.707031 238.75 207.054688 241.472656 208.390625 C 243.320312 209.339844 245.097656 210.375 246.878906 211.441406 C 251.085938 213.933594 255.433594 216.085938 259.820312 218.242188 C 270.996094 223.730469 282.132812 229.328125 292.894531 235.597656 C 295.816406 237.234375 298.804688 238.722656 301.816406 240.191406 C 303.550781 241.042969 305.246094 241.898438 306.898438 242.90625 C 308.46875 243.832031 310.074219 244.53125 311.753906 245.230469 C 313.914062 246.179688 315.96875 247.316406 318.039062 248.441406 C 318.476562 248.675781 318.914062 248.910156 319.367188 249.152344 C 320.433594 249.726562 321.496094 250.304688 322.558594 250.878906 C 321.816406 253.109375 321.550781 253.1875 319.558594 254.207031 C 319.0625 254.464844 318.570312 254.71875 318.058594 254.984375 C 317.523438 255.253906 316.992188 255.523438 316.441406 255.800781 C 315.894531 256.082031 315.347656 256.363281 314.785156 256.652344 C 310.851562 258.671875 306.886719 260.636719 302.917969 262.59375 C 300.371094 263.859375 297.9375 265.195312 295.597656 266.8125 C 294.1875 267.644531 292.714844 268.25 291.207031 268.882812 C 288.757812 269.945312 286.382812 271.160156 284 272.359375 C 283.4375 272.640625 282.875 272.925781 282.292969 273.214844 C 278.152344 275.300781 274.039062 277.441406 269.9375 279.613281 C 265.203125 282.121094 260.441406 284.582031 255.679688 287.039062 C 247.238281 291.398438 238.816406 295.78125 230.445312 300.273438 C 226.863281 302.195312 223.265625 304.085938 219.640625 305.921875 C 218.910156 306.289062 218.179688 306.660156 217.425781 307.039062 C 215.679688 307.839844 215.679688 307.839844 214.398438 307.839844 C 214.398438 270.667969 214.398438 233.496094 214.398438 195.199219 Z M 214.398438 195.199219 "/>
<path style=" stroke:none;fill-rule:nonzero;fill:rgb(70.19608%,70.19608%,70.19608%);fill-opacity:1;" d="M 350.078125 112.640625 C 351.023438 112.671875 351.964844 112.703125 352.90625 112.730469 C 358.363281 112.910156 363.820312 113.09375 369.28125 113.28125 C 369.28125 113.492188 369.28125 113.703125 369.28125 113.921875 C 357.558594 113.953125 345.835938 113.964844 334.113281 113.78125 C 333.191406 113.765625 332.269531 113.75 331.347656 113.738281 C 329.910156 113.714844 328.472656 113.691406 327.035156 113.667969 C 273.335938 112.832031 219.515625 112.535156 91.40625 121.402344 C 89.601562 122.238281 89.601562 122.238281 88.078125 122.039062 C 87.738281 121.894531 87.394531 121.75 87.039062 121.601562 C 88.328125 120.988281 89.621094 120.390625 90.921875 119.800781 C 92 119.296875 92 119.296875 93.101562 118.789062 C 100.457031 115.902344 108.632812 115.40625 116.441406 114.839844 C 116.949219 114.800781 117.457031 114.761719 117.984375 114.722656 C 131.636719 113.6875 145.316406 113.183594 158.996094 112.699219 C 160.449219 112.648438 161.90625 112.59375 163.359375 112.535156 C 168.753906 112.324219 174.148438 112.164062 179.546875 112.039062 C 180.636719 112.011719 181.726562 111.984375 182.8125 111.957031 C 238.539062 110.5625 294.367188 110.804688 350.078125 112.640625 Z M 350.078125 112.640625 "/>
<path style=" stroke:none;fill-rule:nonzero;fill:rgb(70.980394%,70.980394%,70.980394%);fill-opacity:1;" d="M 52.480469 202.238281 C 52.691406 202.238281 52.902344 202.238281 53.121094 202.238281 C 53.121094 202.6875 53.117188 203.136719 53.117188 203.597656 C 53.105469 214.5 53.09375 225.402344 53.085938 236.304688 C 53.082031 241.578125 53.078125 246.847656 53.070312 252.121094 C 53.066406 256.71875 53.0625 261.3125 53.058594 265.910156 C 53.058594 268.34375 53.058594 270.777344 53.050781 273.207031 C 53.046875 275.5 53.046875 277.792969 53.046875 280.085938 C 53.046875 281.320312 53.042969 282.558594 53.039062 283.796875 C 53.042969 287.40625 53.125 290.847656 53.761719 294.398438 C 54.734375 304.601562 54.464844 314.886719 54.398438 325.121094 C 54.1875 325.121094 53.976562 325.121094 53.761719 325.121094 C 53.558594 323.121094 53.359375 321.121094 53.160156 319.121094 C 53.105469 318.574219 53.046875 318.03125 52.992188 317.46875 C 52.429688 311.710938 52.128906 305.9375 51.839844 300.160156 C 51.8125 299.589844 51.78125 299.023438 51.75 298.4375 C 50.808594 280.035156 50.429688 261.683594 50.699219 243.265625 C 50.71875 241.863281 50.738281 240.464844 50.757812 239.066406 C 50.925781 226.75 51.496094 214.515625 52.480469 202.238281 Z M 52.480469 202.238281 "/>
<path style=" stroke:none;fill-rule:nonzero;fill:rgb(63.529414%,63.529414%,63.529414%);fill-opacity:1;" d="M 203.519531 398.71875 C 242.378906 398.71875 281.242188 398.71875 321.28125 398.71875 C 321.28125 398.929688 321.28125 399.140625 321.28125 399.359375 C 318.574219 399.472656 315.867188 399.574219 313.160156 399.679688 C 312.417969 399.710938 311.675781 399.742188 310.910156 399.773438 C 306.394531 399.941406 301.890625 400.015625 297.371094 399.996094 C 291.484375 399.976562 285.601562 400.058594 279.71875 400.164062 C 278.796875 400.179688 277.875 400.195312 276.953125 400.210938 C 273.171875 400.277344 269.390625 400.339844 265.605469 400.414062 C 254.546875 400.628906 243.554688 400.65625 232.5 400.148438 C 228.871094 399.992188 225.253906 399.976562 221.621094 400 C 218.0625 400 214.511719 399.835938 210.960938 399.679688 C 210.238281 399.648438 209.515625 399.617188 208.769531 399.585938 C 207.019531 399.511719 205.269531 399.4375 203.519531 399.359375 C 203.519531 399.148438 203.519531 398.9375 203.519531 398.71875 Z M 203.519531 398.71875 "/>
<path style=" stroke:none;fill-rule:nonzero;fill:rgb(48.235294%,48.235294%,48.235294%);fill-opacity:1;" d="M 124.160156 396.160156 C 127.828125 396.144531 131.492188 396.132812 135.160156 396.125 C 136.40625 396.121094 137.652344 396.117188 138.898438 396.113281 C 140.695312 396.105469 142.488281 396.101562 144.285156 396.097656 C 144.839844 396.09375 145.394531 396.089844 145.964844 396.085938 C 146.488281 396.085938 147.015625 396.085938 147.554688 396.085938 C 148.242188 396.085938 148.242188 396.085938 148.941406 396.082031 C 150.398438 396.160156 150.398438 396.160156 152.25 396.476562 C 154.273438 396.804688 156.183594 396.898438 158.234375 396.921875 C 159.011719 396.933594 159.792969 396.941406 160.59375 396.953125 C 161.425781 396.960938 162.261719 396.972656 163.121094 396.980469 C 163.996094 396.992188 164.875 397.003906 165.75 397.015625 C 168.527344 397.054688 171.304688 397.085938 174.078125 397.121094 C 177.285156 397.160156 180.488281 397.199219 183.691406 397.242188 C 184.960938 397.257812 186.226562 397.273438 187.496094 397.285156 C 192.863281 397.359375 198.171875 397.640625 203.519531 398.078125 C 203.308594 398.503906 203.097656 398.925781 202.878906 399.359375 C 200.238281 399.378906 197.601562 399.390625 194.960938 399.398438 C 193.867188 399.40625 193.867188 399.40625 192.753906 399.417969 C 188.550781 399.429688 184.378906 399.316406 180.183594 399.054688 C 173.851562 398.664062 167.519531 398.570312 161.175781 398.472656 C 148.796875 398.277344 136.496094 397.839844 124.160156 396.800781 C 124.160156 396.589844 124.160156 396.378906 124.160156 396.160156 Z M 124.160156 396.160156 "/>
<path style=" stroke:none;fill-rule:nonzero;fill:rgb(41.176471%,41.176471%,41.176471%);fill-opacity:1;" d="M 79.359375 126.078125 C 79.78125 126.292969 80.203125 126.503906 80.640625 126.71875 C 79.761719 128 79.761719 128 78.71875 129.28125 C 78.296875 129.28125 77.875 129.28125 77.441406 129.28125 C 77.289062 129.640625 77.136719 130 76.980469 130.371094 C 75.976562 132.167969 74.746094 133.398438 73.28125 134.839844 C 72.773438 135.34375 72.261719 135.847656 71.738281 136.367188 C 70.398438 137.601562 70.398438 137.601562 69.121094 138.238281 C 68.449219 139.503906 67.808594 140.785156 67.199219 142.078125 C 66.777344 142.078125 66.355469 142.078125 65.921875 142.078125 C 65.863281 142.503906 65.804688 142.929688 65.742188 143.367188 C 65.144531 145.84375 64.105469 147.992188 63 150.28125 C 62.683594 150.945312 62.683594 150.945312 62.359375 151.625 C 61.84375 152.710938 61.324219 153.796875 60.800781 154.878906 C 60.160156 153.601562 60.160156 153.601562 60.800781 151.601562 C 61.128906 150.769531 61.460938 149.945312 61.800781 149.121094 C 61.976562 148.6875 62.15625 148.253906 62.339844 147.808594 C 66.113281 138.816406 71.960938 132.34375 79.359375 126.078125 Z M 79.359375 126.078125 "/>
<path style=" stroke:none;fill-rule:nonzero;fill:rgb(44.705883%,44.705883%,44.705883%);fill-opacity:1;" d="M 124.160156 396.160156 C 127.828125 396.144531 131.492188 396.132812 135.160156 396.125 C 136.40625 396.121094 137.652344 396.117188 138.898438 396.113281 C 140.695312 396.105469 142.488281 396.101562 144.285156 396.097656 C 144.839844 396.09375 145.394531 396.089844 145.964844 396.085938 C 148.796875 396.085938 151.449219 396.226562 154.238281 396.800781 C 154.238281 397.011719 154.238281 397.222656 154.238281 397.441406 C 144.167969 398.53125 134.21875 397.609375 124.160156 396.800781 C 124.160156 396.589844 124.160156 396.378906 124.160156 396.160156 Z M 124.160156 396.160156 "/>
<path style=" stroke:none;fill-rule:nonzero;fill:rgb(43.921569%,43.921569%,43.921569%);fill-opacity:1;" d="M 53.121094 294.398438 C 53.332031 294.398438 53.542969 294.398438 53.761719 294.398438 C 54.609375 304.628906 54.464844 314.867188 54.398438 325.121094 C 54.1875 325.121094 53.976562 325.121094 53.761719 325.121094 C 52.421875 314.796875 52.523438 304.785156 53.121094 294.398438 Z M 53.121094 294.398438 "/>
<path style=" stroke:none;fill-rule:nonzero;fill:rgb(54.11765%,54.11765%,54.11765%);fill-opacity:1;" d="M 54.398438 325.121094 C 54.609375 325.121094 54.824219 325.121094 55.039062 325.121094 C 55.109375 325.574219 55.183594 326.027344 55.253906 326.496094 C 55.582031 328.585938 55.910156 330.671875 56.238281 332.761719 C 56.351562 333.476562 56.460938 334.191406 56.578125 334.925781 C 57.148438 338.539062 57.765625 342.109375 58.640625 345.660156 C 59.019531 347.582031 58.964844 349.40625 58.878906 351.359375 C 57.398438 349.878906 57.3125 349.238281 56.9375 347.21875 C 56.828125 346.640625 56.71875 346.066406 56.609375 345.472656 C 56.445312 344.566406 56.445312 344.566406 56.28125 343.640625 C 56.167969 343.054688 56.058594 342.464844 55.945312 341.859375 C 54.90625 336.242188 54.308594 330.835938 54.398438 325.121094 Z M 54.398438 325.121094 "/>
<path style=" stroke:none;fill-rule:nonzero;fill:rgb(60.392159%,60.392159%,60.392159%);fill-opacity:1;" d="M 58.878906 351.359375 C 61.28125 353.914062 61.625 355.625 62.078125 359.039062 C 62.644531 360.523438 63.292969 361.945312 63.96875 363.378906 C 64.589844 364.691406 65.140625 366.015625 65.679688 367.359375 C 66.34375 369.339844 66.34375 369.339844 67.839844 369.921875 C 68.308594 371.402344 68.738281 372.894531 69.121094 374.398438 C 66.804688 372.355469 65.488281 370.066406 64.160156 367.320312 C 63.957031 366.921875 63.753906 366.519531 63.546875 366.109375 C 62.640625 364.269531 62.078125 363.035156 62.078125 360.960938 C 61.65625 360.75 61.234375 360.539062 60.800781 360.320312 C 60.253906 358.785156 60.253906 358.785156 59.761719 356.878906 C 59.59375 356.253906 59.425781 355.628906 59.253906 354.984375 C 58.878906 353.28125 58.878906 353.28125 58.878906 351.359375 Z M 58.878906 351.359375 "/>
<path style=" stroke:none;fill-rule:nonzero;fill:rgb(68.627453%,68.627453%,68.627453%);fill-opacity:1;" d="M 68.480469 136.960938 C 68.691406 137.382812 68.902344 137.804688 69.121094 138.238281 C 68.523438 139.539062 67.882812 140.824219 67.199219 142.078125 C 66.777344 142.078125 66.355469 142.078125 65.921875 142.078125 C 65.863281 142.503906 65.804688 142.929688 65.742188 143.367188 C 65.144531 145.84375 64.105469 147.992188 63 150.28125 C 62.683594 150.945312 62.683594 150.945312 62.359375 151.625 C 61.84375 152.710938 61.324219 153.796875 60.800781 154.878906 C 60.160156 153.601562 60.160156 153.601562 60.800781 151.601562 C 61.128906 150.769531 61.460938 149.945312 61.800781 149.121094 C 61.972656 148.691406 62.148438 148.261719 62.328125 147.820312 C 65.683594 139.753906 65.683594 139.753906 68.480469 136.960938 Z M 68.480469 136.960938 "/>
<path style=" stroke:none;fill-rule:nonzero;fill:rgb(65.098041%,65.098041%,65.098041%);fill-opacity:1;" d="M 58.238281 160 C 58.453125 160 58.664062 160 58.878906 160 C 59.082031 164.296875 58.339844 168.007812 57.28125 172.160156 C 57.128906 172.777344 56.976562 173.394531 56.816406 174.03125 C 56.445312 175.542969 56.0625 177.050781 55.679688 178.558594 C 55.46875 178.558594 55.257812 178.558594 55.039062 178.558594 C 55.285156 172.152344 56.664062 166.183594 58.238281 160 Z M 58.238281 160 "/>
<path style=" stroke:none;fill-rule:nonzero;fill:rgb(57.254905%,57.254905%,57.254905%);fill-opacity:1;" d="M 92.800781 391.039062 C 97.019531 391.304688 100.921875 391.640625 104.960938 392.960938 C 106.664062 393.40625 108.371094 393.820312 110.078125 394.238281 C 107.507812 395.230469 105.125 394.570312 102.519531 394.039062 C 102.082031 393.957031 101.640625 393.871094 101.1875 393.785156 C 98.339844 393.230469 95.578125 392.511719 92.800781 391.679688 C 92.800781 391.46875 92.800781 391.257812 92.800781 391.039062 Z M 92.800781 391.039062 "/>
<path style=" stroke:none;fill-rule:nonzero;fill:rgb(75.294119%,75.294119%,75.294119%);fill-opacity:1;" d="M 432 126.078125 C 436.183594 128.128906 439.0625 131.027344 442.238281 134.398438 C 442.027344 134.824219 441.816406 135.246094 441.601562 135.679688 C 441.28125 135.347656 440.964844 135.015625 440.636719 134.671875 C 438.507812 132.488281 436.449219 130.441406 433.921875 128.71875 C 433.285156 128.269531 432.652344 127.824219 432 127.359375 C 432 126.9375 432 126.515625 432 126.078125 Z M 432 126.078125 "/>
<path style=" stroke:none;fill-rule:nonzero;fill:rgb(47.450981%,47.450981%,47.450981%);fill-opacity:1;" d="M 58.878906 351.359375 C 61.402344 354.117188 61.402344 354.117188 61.601562 356.359375 C 61.546875 356.820312 61.496094 357.285156 61.441406 357.761719 C 61.019531 357.761719 60.59375 357.761719 60.160156 357.761719 C 59.738281 355.648438 59.316406 353.535156 58.878906 351.359375 Z M 58.878906 351.359375 "/>
</g>
</svg>
