<?xml version="1.0" encoding="UTF-8"?>
<svg version="1.1" xmlns="http://www.w3.org/2000/svg" width="800" height="800">
<path d="M0 0 C3.1413068 0.10591062 6.28276043 0.20731229 9.42418671 0.30960846 C30.09534685 0.99478689 50.73272669 1.98591639 71.36022186 3.50443268 C72.13852356 3.56001343 72.91682526 3.61559418 73.71871185 3.67285919 C82.06123455 4.28062235 90.32672167 5.15504532 98.59069061 6.46146393 C99.3148114 6.57115005 100.03893219 6.68083618 100.78499603 6.79384613 C120.2217452 10.06267334 137.98359471 23.89288219 149.89147186 39.00833893 C158.9358987 52.22062664 163.70389591 68.72739333 167.23522186 84.19193268 C167.38628387 84.84653473 167.53734589 85.50113678 167.69298553 86.17557526 C170.4374133 99.00921915 171.35716308 112.23813214 172.36290741 125.3008194 C172.5460218 127.66993736 172.73689728 130.03833823 172.92858124 132.40677643 C174.52066988 152.47419203 175.14608175 172.50221856 175.15319061 192.62943268 C175.15642171 194.83866139 175.15978699 197.04788991 175.16327667 199.25711823 C175.16921176 203.86234785 175.17112268 208.46755888 175.1705246 213.07279205 C175.17044379 217.70694673 175.17732341 222.3410016 175.19103241 226.9751358 C175.27284842 255.07601292 174.90338864 283.02705614 172.98522186 311.06693268 C172.91598511 312.12311798 172.84674835 313.17930328 172.77541351 314.2674942 C172.46409465 318.99410642 172.12091043 323.71593918 171.7173996 328.43558502 C171.5403229 330.52942138 171.37897005 332.62417268 171.21764374 334.71927643 C168.78832657 364.73636861 161.66983703 397.00908833 139.98522186 419.06693268 C139.37033905 419.69470612 138.75545624 420.32247955 138.12194061 420.96927643 C122.49432141 435.72683546 100.86171689 441.65439371 79.98522186 443.06693268 C78.1719175 443.26814479 76.35922743 443.47512256 74.54772186 443.69193268 C71.3582964 444.00381039 68.24326801 444.08201099 65.03990936 444.03568268 C58.51499135 444.01516237 52.05379839 444.48613832 45.54772186 444.94193268 C20.19817687 446.62552136 -5.21429745 447.19967159 -30.60419464 447.96408844 C-33.73767453 448.05857677 -36.87110561 448.15451941 -40.00452423 448.25101471 C-44.24167023 448.38092132 -48.47891101 448.50677887 -52.71631622 448.62793732 C-54.16059266 448.66927389 -55.6048491 448.71131757 -57.0490799 448.75421906 C-64.84369546 448.98281228 -72.62401831 449.08009931 -80.42102814 449.05521393 C-89.60168866 449.02826021 -98.77729618 449.15766686 -107.95618439 449.32083893 C-109.39591588 449.3457195 -110.83564876 449.37051945 -112.275383 449.39524078 C-118.1847792 449.49732496 -124.09414727 449.59987162 -130.00330353 449.71512604 C-147.28579574 450.04952402 -164.45804448 450.08994721 -181.733284 449.30106354 C-187.42756281 449.05377596 -193.10772971 449.03898102 -198.806633 449.06182098 C-202.76150906 449.06812248 -206.70699638 448.97880088 -210.65930939 448.84818268 C-212.17688715 448.80259754 -213.69446528 448.75702501 -215.21204376 448.71146393 C-217.51488376 448.63978209 -219.81769429 448.56723673 -222.12049103 448.49417877 C-230.25983327 448.238711 -238.38281542 448.04239434 -246.52649689 448.09818268 C-252.26321819 448.13269338 -257.94972869 447.9506386 -263.67493439 447.59037018 C-270.37198068 447.17054093 -277.05130062 446.94847395 -283.76087189 446.85599518 C-284.69544724 446.84293839 -285.63002258 446.82988159 -286.5929184 446.81642914 C-288.53870199 446.78963151 -290.48448756 446.76297729 -292.43027496 446.73645782 C-388.74142008 445.31744282 -388.74142008 445.31744282 -419.01477814 427.06693268 C-419.95837189 426.5435733 -420.90196564 426.02021393 -421.87415314 425.48099518 C-422.58055939 425.01435455 -423.28696564 424.54771393 -424.01477814 424.06693268 C-424.01477814 423.40693268 -424.01477814 422.74693268 -424.01477814 422.06693268 C-424.58712189 421.81556549 -425.15946564 421.5641983 -425.74915314 421.30521393 C-436.68733102 415.32693395 -443.66039748 402.31352321 -448.01477814 391.06693268 C-448.01477814 390.07693268 -448.01477814 389.08693268 -448.01477814 388.06693268 C-448.67477814 387.73693268 -449.33477814 387.40693268 -450.01477814 387.06693268 C-450.78266691 384.80093639 -451.45595115 382.50241859 -452.07727814 380.19193268 C-452.58968048 378.30861237 -452.58968048 378.30861237 -453.11243439 376.38724518 C-453.41020782 375.29154205 -453.70798126 374.19583893 -454.01477814 373.06693268 C-454.50977814 371.58193268 -454.50977814 371.58193268 -455.01477814 370.06693268 C-459.50731006 350.43740131 -461.99914802 330.51092017 -462.89124298 310.40140533 C-463.0469524 307.45892815 -463.26032333 304.5218386 -463.46790314 301.58255768 C-465.63832165 269.19354167 -466.27549766 236.7907929 -465.79708862 204.34211731 C-465.76540954 202.17267218 -465.73637636 200.00320412 -465.70771027 197.83371735 C-465.33289395 170.59180011 -463.92266261 143.42680771 -461.13977814 116.31693268 C-461.05385406 115.47404694 -460.96792999 114.63116119 -460.87940216 113.76273346 C-457.35163761 79.5554712 -450.51433267 46.29650998 -423.32337189 22.87552643 C-405.6267857 9.01170341 -385.10414464 5.2359318 -363.32727814 3.56693268 C-362.52175507 3.50378876 -361.71623199 3.44064484 -360.88629913 3.37558746 C-339.48091897 1.71534069 -318.03574335 0.92085343 -296.58289337 0.15940094 C-294.31068327 0.07758712 -292.03868512 -0.0080411 -289.76673126 -0.09664154 C-281.3373733 -0.42381343 -272.90780597 -0.67538685 -264.474617 -0.87447357 C-262.77219751 -0.91502547 -261.06980618 -0.95677114 -259.36743927 -0.99947357 C-172.96803677 -3.16236878 -86.37562838 -2.93465857 0 0 Z " fill="#010101" transform="translate(545.014778137207,175.93306732177734)"/>
<path d="M0 0 C4.436995 1.47899833 7.99704805 2.90602211 12.0703125 5.046875 C13.215 5.645 14.3596875 6.243125 15.5390625 6.859375 C16.73448753 7.48936986 17.92979968 8.11957895 19.125 8.75 C21.46048065 9.97482985 23.79641523 11.19879455 26.1328125 12.421875 C27.84791016 13.32075439 27.84791016 13.32075439 29.59765625 14.23779297 C33.80575425 16.41733167 38.04684106 18.52536407 42.30126953 20.61279297 C45.18688703 22.09606406 47.96583031 23.70994754 50.75 25.375 C57.32264297 29.26894863 64.1133765 32.63694711 70.96630859 36.00146484 C88.43058285 44.57636061 105.83454247 53.32321574 122.6484375 63.12109375 C127.21356637 65.68033266 131.88310333 68.00497253 136.58569336 70.29980469 C139.2981335 71.62685317 141.9488186 72.96875324 144.52734375 74.54296875 C146.98370413 75.99039753 149.488269 77.08164072 152.11767578 78.17431641 C155.48986373 79.65353037 158.70294021 81.43214027 161.9375 83.1875 C162.62134766 83.55552734 163.30519531 83.92355469 164.00976562 84.30273438 C165.67460072 85.19918404 167.33750649 86.09921523 169 87 C167.83933659 90.48199023 167.42151126 90.60726596 164.30859375 92.19921875 C163.53620361 92.59987549 162.76381348 93.00053223 161.96801758 93.41333008 C161.13294678 93.83380615 160.29787598 94.25428223 159.4375 94.6875 C158.58502686 95.12666748 157.73255371 95.56583496 156.85424805 96.01831055 C150.70404955 99.17540863 144.50926103 102.24377496 138.30859375 105.30029297 C134.33080107 107.27800431 130.52672962 109.36931645 126.87109375 111.89453125 C124.66976208 113.19510925 122.36522053 114.1414899 120.01000977 115.12719727 C116.18442178 116.78837509 112.4752026 118.68949922 108.75 120.5625 C107.87013428 121.00376221 106.99026855 121.44502441 106.08374023 121.8996582 C99.61009422 125.15936345 93.18466912 128.50338536 86.78027344 131.89672852 C79.37932799 135.8146548 71.94111087 139.65916477 64.5 143.5 C51.31280535 150.30971308 38.14878528 157.16075494 25.07055664 164.17797852 C19.47303674 167.17885299 13.85523046 170.13355319 8.1875 173 C7.04667969 173.5775 5.90585937 174.155 4.73046875 174.75 C2 176 2 176 0 176 C0 117.92 0 59.84 0 0 Z " fill="#FDFDFD" transform="translate(335,305)"/>
<path d="M0 0 C1.47163787 0.04815063 2.94327688 0.09626611 4.41491699 0.14434814 C12.94348577 0.42348598 21.47184283 0.70852683 30 1 C30 1.33 30 1.66 30 2 C11.68344798 2.04958718 -6.63057287 2.07175105 -24.9453125 1.78125 C-26.38692205 1.75872373 -27.82853176 1.73620701 -29.2701416 1.71369934 C-31.51689234 1.67851719 -33.76364285 1.64332321 -36.01039124 1.60799122 C-119.91538454 0.30300659 -204.00664558 -0.16272027 -404.17578125 13.69140625 C-407 15 -407 15 -409.375 14.6875 C-409.91125 14.460625 -410.4475 14.23375 -411 14 C-408.98863501 13.04235473 -406.96506715 12.11034618 -404.9375 11.1875 C-403.24947266 10.40439453 -403.24947266 10.40439453 -401.52734375 9.60546875 C-390.03365206 5.09671145 -377.25916704 4.32491101 -365.0625 3.4375 C-364.26696716 3.37685364 -363.47143433 3.31620728 -362.65179443 3.25372314 C-341.31987028 1.63526602 -319.9447542 0.8512157 -298.56811523 0.09246826 C-296.29590513 0.01065444 -294.02390698 -0.07497377 -291.75195312 -0.16357422 C-283.32259516 -0.49074611 -274.89302784 -0.74231953 -266.45983887 -0.94140625 C-264.75741937 -0.98195815 -263.05502804 -1.02370382 -261.35266113 -1.06640625 C-174.28048724 -3.2461434 -87.04869477 -2.87003384 0 0 Z " fill="#B3B3B3" transform="translate(547,176)"/>
<path d="M0 0 C0.33 0 0.66 0 1 0 C0.99907821 0.69960877 0.99815641 1.39921755 0.99720669 2.12002659 C0.97510767 19.15503537 0.95856708 36.1900405 0.94818783 53.22506046 C0.9430349 61.46311521 0.9360113 69.70116038 0.92456055 77.93920898 C0.91458308 85.12076128 0.90813927 92.30230664 0.90591151 99.48386568 C0.90460961 103.28526858 0.9015567 107.08665164 0.89426994 110.88804817 C0.8874614 114.4691223 0.88539286 118.05016849 0.88689232 121.63124847 C0.88648786 123.56578936 0.88111791 125.50032723 0.87557983 127.43486023 C0.88224607 133.07156322 1.0088763 138.44904062 2 144 C3.52230867 159.93725617 3.09850694 176.01004968 3 192 C2.67 192 2.34 192 2 192 C1.68261302 188.87543302 1.37110417 185.75043795 1.0625 182.625 C0.97548828 181.77421875 0.88847656 180.9234375 0.79882812 180.046875 C-0.08160408 171.04690137 -0.54622992 162.02912227 -1 153 C-1.0458725 152.11127197 -1.091745 151.22254395 -1.13900757 150.30688477 C-2.61176998 121.55453878 -3.20443931 92.88313734 -2.78231049 64.10165787 C-2.75057087 61.91434127 -2.7215586 59.72700163 -2.69293213 57.53964233 C-2.43087049 38.29870655 -1.53871009 19.18245818 0 0 Z " fill="#B5B5B5" transform="translate(82,316)"/>
<path d="M0 0 C60.72 0 121.44 0 184 0 C184 0.33 184 0.66 184 1 C179.7710875 1.17353171 175.54184646 1.33741733 171.3125 1.5 C170.15298828 1.54769531 168.99347656 1.59539063 167.79882812 1.64453125 C160.73975724 1.91091128 153.70360151 2.02227139 146.640625 1.99609375 C137.44417683 1.96391662 128.25325899 2.08985357 119.05859375 2.25390625 C117.61892354 2.27881114 116.17925169 2.30362112 114.73957825 2.32833862 C108.83012046 2.43038405 102.92069176 2.53293775 97.01147461 2.64819336 C79.7289824 2.98259134 62.55673366 3.02301454 45.28149414 2.23413086 C39.61216912 1.98736274 33.95681718 1.96536638 28.28279114 2.00282288 C22.72425654 1.99804309 17.17720487 1.74632084 11.625 1.5 C10.49578125 1.45230469 9.3665625 1.40460937 8.203125 1.35546875 C5.46862634 1.23960016 2.73427137 1.12109376 0 1 C0 0.67 0 0.34 0 0 Z " fill="#A2A2A2" transform="translate(318,623)"/>
<path d="M0 0 C5.72916349 -0.02478342 11.45829552 -0.04289954 17.1875 -0.05493164 C19.13509668 -0.05994955 21.08268961 -0.06676534 23.03027344 -0.07543945 C25.83529589 -0.08761652 28.64026837 -0.09325383 31.4453125 -0.09765625 C32.31116974 -0.10281754 33.17702698 -0.10797882 34.06912231 -0.11329651 C34.88951996 -0.11337204 35.7099176 -0.11344757 36.55517578 -0.11352539 C37.62773117 -0.11685631 37.62773117 -0.11685631 38.72195435 -0.12025452 C41 0 41 0 43.88766479 0.49525452 C47.05410035 1.00877377 50.03629203 1.15169243 53.2421875 1.18945312 C54.457854 1.20617065 55.67352051 1.22288818 56.92602539 1.2401123 C58.22918701 1.25368774 59.53234863 1.26726318 60.875 1.28125 C62.24536822 1.29933061 63.61572961 1.3179354 64.98608398 1.33703613 C69.32399823 1.3964551 73.66198439 1.448602 78 1.5 C83.0060246 1.5597371 88.01198092 1.62261075 93.0178833 1.69187927 C94.99934821 1.71792005 96.98087656 1.73898579 98.96240234 1.7598877 C107.34671519 1.87284347 115.6437795 2.31215754 124 3 C123.67 3.66 123.34 4.32 123 5 C118.87501613 5.02985125 114.75006103 5.04707509 110.625 5.0625 C108.91957031 5.07506836 108.91957031 5.07506836 107.1796875 5.08789062 C100.61099778 5.10613699 94.09242142 4.92920588 87.5390625 4.5234375 C77.64165024 3.91453854 67.74823873 3.76384795 57.83496094 3.61129761 C38.49784974 3.30542509 19.27544123 2.62282207 0 1 C0 0.67 0 0.34 0 0 Z " fill="#7B7B7B" transform="translate(194,619)"/>
<path d="M0 0 C0.66 0.33 1.32 0.66 2 1 C0.625 3 0.625 3 -1 5 C-1.66 5 -2.32 5 -3 5 C-3.2371875 5.56332031 -3.474375 6.12664062 -3.71875 6.70703125 C-5.28649943 9.51272916 -7.20914597 11.43755408 -9.5 13.6875 C-10.2940625 14.47511719 -11.088125 15.26273438 -11.90625 16.07421875 C-14 18 -14 18 -16 19 C-17.04808041 20.97522846 -18.0520411 22.97481509 -19 25 C-19.66 25 -20.32 25 -21 25 C-21.09152344 25.66386719 -21.18304688 26.32773438 -21.27734375 27.01171875 C-22.21363279 30.88340045 -23.83481743 34.23739449 -25.5625 37.8125 C-26.0565332 38.85180664 -26.0565332 38.85180664 -26.56054688 39.91210938 C-27.36872251 41.61044948 -28.18368377 43.30555769 -29 45 C-30 43 -30 43 -28.99609375 39.875 C-28.48791254 38.57882588 -27.967577 37.2873748 -27.4375 36 C-27.16010986 35.32300049 -26.88271973 34.64600098 -26.59692383 33.94848633 C-20.69807599 19.90178186 -11.56189171 9.78524168 0 0 Z " fill="#696969" transform="translate(124,197)"/>
<path d="M0 0 C5.72916349 -0.02478342 11.45829552 -0.04289954 17.1875 -0.05493164 C19.13509668 -0.05994955 21.08268961 -0.06676534 23.03027344 -0.07543945 C25.83529589 -0.08761652 28.64026837 -0.09325383 31.4453125 -0.09765625 C32.31116974 -0.10281754 33.17702698 -0.10797882 34.06912231 -0.11329651 C38.4972821 -0.11370419 42.64025202 0.10386404 47 1 C47 1.33 47 1.66 47 2 C31.26360237 3.70746836 15.71446124 2.26179016 0 1 C0 0.67 0 0.34 0 0 Z " fill="#727272" transform="translate(194,619)"/>
<path d="M0 0 C0.33 0 0.66 0 1 0 C2.32971702 15.98034922 2.09869574 31.97940394 2 48 C1.67 48 1.34 48 1 48 C-1.09215803 31.86790542 -0.9343051 16.22478049 0 0 Z " fill="#707070" transform="translate(83,460)"/>
<path d="M0 0 C0.33 0 0.66 0 1 0 C1.11069824 0.71019287 1.22139648 1.42038574 1.33544922 2.15209961 C1.8456686 5.41437119 2.36030374 8.67593188 2.875 11.9375 C3.04902344 13.05447266 3.22304687 14.17144531 3.40234375 15.32226562 C4.29605831 20.96590757 5.2588316 26.54369088 6.625 32.09375 C7.21606215 35.09831593 7.1298743 37.94795386 7 41 C4.6839164 38.6839164 4.55050102 37.68225536 3.96484375 34.52734375 C3.79533203 33.62693359 3.62582031 32.72652344 3.45117188 31.79882812 C3.1969043 30.3824707 3.1969043 30.3824707 2.9375 28.9375 C2.76412109 28.02033203 2.59074219 27.10316406 2.41210938 26.15820312 C0.78798665 17.37798409 -0.14173168 8.92909562 0 0 Z " fill="#8A8A8A" transform="translate(85,508)"/>
<path d="M0 0 C3.75150132 3.99353367 4.28873343 6.66550074 5 12 C5.88016316 14.31968235 6.89317748 16.5384625 7.953125 18.78125 C8.92029838 20.83108016 9.78054633 22.89748269 10.625 25 C11.66332897 28.09281392 11.66332897 28.09281392 14 29 C14.73075648 31.3140622 15.40138258 33.64828869 16 36 C12.37968354 32.80418968 10.32565911 29.22689855 8.25 24.9375 C7.93417969 24.31294922 7.61835937 23.68839844 7.29296875 23.04492188 C5.87687265 20.17288282 5 18.24355608 5 15 C4.34 14.67 3.68 14.34 3 14 C2.1484375 11.6015625 2.1484375 11.6015625 1.375 8.625 C1.11460938 7.64789062 0.85421875 6.67078125 0.5859375 5.6640625 C0 3 0 3 0 0 Z " fill="#9A9A9A" transform="translate(92,549)"/>
<path d="M0 0 C0.33 0.66 0.66 1.32 1 2 C0.06553465 4.03144641 -0.93224776 6.03533587 -2 8 C-2.66 8 -3.32 8 -4 8 C-4.09152344 8.66386719 -4.18304688 9.32773438 -4.27734375 10.01171875 C-5.21363279 13.88340045 -6.83481743 17.23739449 -8.5625 20.8125 C-9.0565332 21.85180664 -9.0565332 21.85180664 -9.56054688 22.91210938 C-10.36872251 24.61044948 -11.18368377 26.30555769 -12 28 C-13 26 -13 26 -11.99609375 22.875 C-11.48725981 21.57908198 -10.96699884 20.2876127 -10.4375 19 C-10.16591064 18.32952637 -9.89432129 17.65905273 -9.61450195 16.96826172 C-4.36742157 4.36742157 -4.36742157 4.36742157 0 0 Z " fill="#AFAFAF" transform="translate(107,214)"/>
<path d="M0 0 C0.33 0 0.66 0 1 0 C1.31663816 6.71272902 0.15574012 12.51128872 -1.5 19 C-1.73847656 19.96550781 -1.97695312 20.93101562 -2.22265625 21.92578125 C-2.80687868 24.28603987 -3.39946281 26.64384982 -4 29 C-4.33 29 -4.66 29 -5 29 C-4.61411174 18.98619978 -2.46135018 9.66223048 0 0 Z " fill="#A6A6A6" transform="translate(91,250)"/>
<path d="M0 0 C6.59119331 0.41127315 12.68740601 0.93626735 19 3 C21.66020605 3.69458311 24.32986993 4.34417858 27 5 C22.98061669 6.54751451 19.25721749 5.5179779 15.1875 4.6875 C14.50107422 4.55666016 13.81464844 4.42582031 13.10742188 4.29101562 C8.65871178 3.41979236 4.34238872 2.29987845 0 1 C0 0.67 0 0.34 0 0 Z " fill="#929292" transform="translate(145,611)"/>
<path d="M0 0 C6.53752644 3.19921507 11.03573118 7.73179635 16 13 C15.67 13.66 15.34 14.32 15 15 C14.50371094 14.48050781 14.00742187 13.96101562 13.49609375 13.42578125 C10.16964305 10.01096184 6.94964511 6.81463563 3 4.125 C2.01 3.42375 1.02 2.7225 0 2 C0 1.34 0 0.68 0 0 Z " fill="#C0C0C0" transform="translate(675,197)"/>
<path d="M0 0 C3.93846154 4.30769231 3.93846154 4.30769231 4.25 7.8125 C4.1675 8.534375 4.085 9.25625 4 10 C3.34 10 2.68 10 2 10 C1.34 6.7 0.68 3.4 0 0 Z " fill="#797979" transform="translate(92,549)"/>
</svg>
