<?xml version="1.0" encoding="UTF-8"?>
<svg xmlns="http://www.w3.org/2000/svg" xmlns:xlink="http://www.w3.org/1999/xlink" width="64px" height="64px" viewBox="0 0 64 64" version="1.1">
<g id="surface1">
<path style=" stroke:none;fill-rule:nonzero;fill:rgb(100%,100%,100%);fill-opacity:1;" d="M 45 23.25 C 46.160156 23.355469 47.320312 23.464844 48.480469 23.574219 C 49.019531 23.625 49.558594 23.675781 50.097656 23.722656 C 50.617188 23.769531 51.140625 23.820312 51.660156 23.867188 C 51.855469 23.886719 52.054688 23.90625 52.253906 23.921875 C 52.53125 23.949219 52.808594 23.976562 53.089844 24.003906 C 53.246094 24.015625 53.40625 24.03125 53.566406 24.046875 C 54.289062 24.175781 54.777344 24.480469 55.289062 24.996094 C 55.382812 25.089844 55.476562 25.183594 55.570312 25.28125 C 55.714844 25.429688 55.714844 25.429688 55.859375 25.578125 C 56.007812 25.726562 56.007812 25.726562 56.15625 25.875 C 56.875 26.605469 56.875 26.605469 56.875 26.75 C 56.742188 26.757812 56.605469 26.765625 56.46875 26.773438 C 56.292969 26.785156 56.121094 26.792969 55.945312 26.804688 C 55.855469 26.808594 55.769531 26.816406 55.675781 26.820312 C 55.238281 26.808594 55.238281 26.808594 54.875 27 C 54.867188 27.335938 54.863281 27.671875 54.867188 28.007812 C 54.867188 28.148438 54.867188 28.148438 54.867188 28.296875 C 54.871094 28.53125 54.871094 28.765625 54.875 29 C 56.984375 30.265625 56.984375 30.265625 59.25 31.125 C 59.292969 31.300781 59.332031 31.472656 59.375 31.648438 C 59.398438 31.746094 59.421875 31.84375 59.445312 31.941406 C 59.5 32.261719 59.503906 32.554688 59.5 32.875 C 58.398438 33.167969 57.296875 33.386719 56.175781 33.585938 C 55.738281 33.667969 55.300781 33.75 54.859375 33.832031 C 54.410156 33.917969 53.957031 34 53.5 34.078125 C 51.277344 34.347656 51.277344 34.347656 49.460938 35.453125 C 49.230469 35.785156 49.050781 36.136719 48.875 36.5 C 48.714844 36.71875 48.546875 36.9375 48.375 37.148438 C 47.410156 38.414062 46.457031 39.683594 45.519531 40.964844 C 45.082031 41.558594 44.640625 42.144531 44.195312 42.730469 C 42.417969 45.160156 43.792969 48.742188 43.75 51.75 C 36.820312 51.75 29.890625 51.75 22.75 51.75 C 23.136719 50.589844 23.460938 49.769531 24.25 48.875 C 24.554688 48.265625 24.433594 47.367188 24.25 46.726562 C 24.207031 46.609375 24.167969 46.496094 24.125 46.375 C 24.355469 46.101562 24.589844 45.847656 24.875 45.625 C 25.339844 45.589844 25.578125 45.804688 25.929688 46.078125 C 25.996094 46.136719 26.0625 46.195312 26.132812 46.253906 C 26.496094 46.4375 26.730469 46.339844 27.125 46.25 C 27.429688 46.117188 27.71875 45.980469 28.007812 45.828125 C 28.089844 45.785156 28.171875 45.746094 28.257812 45.703125 C 28.515625 45.570312 28.773438 45.4375 29.03125 45.304688 C 29.289062 45.171875 29.550781 45.039062 29.8125 44.90625 C 29.972656 44.824219 30.132812 44.742188 30.292969 44.65625 C 30.847656 44.375 30.847656 44.375 31.125 44.375 C 31.09375 44.292969 31.0625 44.207031 31.03125 44.121094 C 30.890625 43.738281 30.753906 43.359375 30.617188 42.976562 C 30.570312 42.84375 30.519531 42.710938 30.46875 42.578125 C 30.425781 42.449219 30.378906 42.320312 30.332031 42.191406 C 30.289062 42.074219 30.246094 41.957031 30.203125 41.835938 C 30.117188 41.460938 30.140625 41.238281 30.25 40.875 C 30.417969 40.652344 30.417969 40.652344 30.632812 40.453125 C 30.710938 40.378906 30.792969 40.300781 30.875 40.226562 C 31.191406 39.941406 31.507812 39.660156 31.828125 39.382812 C 32.199219 39.058594 32.5625 38.726562 32.921875 38.390625 C 33.503906 37.851562 34.09375 37.316406 34.683594 36.785156 C 35.042969 36.460938 35.394531 36.136719 35.75 35.8125 C 36.308594 35.300781 36.867188 34.792969 37.429688 34.289062 C 37.789062 33.964844 38.144531 33.640625 38.5 33.3125 C 38.957031 32.894531 39.414062 32.476562 39.875 32.0625 C 40.082031 31.875 40.292969 31.6875 40.5 31.5 C 40.613281 31.398438 40.726562 31.296875 40.84375 31.191406 C 40.964844 31.082031 41.085938 30.972656 41.210938 30.859375 C 41.332031 30.75 41.457031 30.644531 41.582031 30.53125 C 41.878906 30.257812 42.109375 29.980469 42.339844 29.648438 C 42.875 28.929688 43.410156 28.363281 44.308594 28.144531 C 45.457031 28.003906 46.613281 28.03125 47.769531 28.0625 C 48.246094 28.074219 48.726562 28.074219 49.203125 28.078125 C 50.136719 28.082031 51.066406 28.101562 52 28.125 C 51.855469 27.691406 51.792969 27.664062 51.414062 27.445312 C 51.3125 27.390625 51.214844 27.332031 51.113281 27.273438 C 51.007812 27.210938 50.898438 27.148438 50.789062 27.085938 C 49.710938 26.453125 48.648438 25.796875 47.597656 25.121094 C 47.097656 24.800781 46.597656 24.480469 46.089844 24.175781 C 45.972656 24.105469 45.972656 24.105469 45.855469 24.035156 C 45.65625 23.917969 45.457031 23.800781 45.257812 23.679688 C 45.171875 23.621094 45.089844 23.5625 45 23.5 C 45 23.417969 45 23.335938 45 23.25 Z M 34 42 C 34.160156 42.433594 34.347656 42.804688 34.601562 43.191406 C 34.707031 43.351562 34.707031 43.351562 34.816406 43.519531 C 34.890625 43.632812 34.96875 43.75 35.046875 43.867188 C 35.125 43.988281 35.203125 44.105469 35.285156 44.230469 C 35.449219 44.484375 35.617188 44.734375 35.785156 44.988281 C 36.039062 45.371094 36.289062 45.757812 36.542969 46.144531 C 36.707031 46.390625 36.867188 46.636719 37.03125 46.882812 C 37.105469 46.996094 37.179688 47.113281 37.257812 47.230469 C 37.632812 47.796875 37.996094 48.296875 38.5 48.75 C 38.652344 48.625 38.652344 48.625 38.632812 48.375 C 38.628906 48.265625 38.625 48.15625 38.617188 48.042969 C 38.597656 47.339844 38.585938 46.632812 38.578125 45.929688 C 38.574219 45.625 38.566406 45.324219 38.550781 45.023438 C 38.46875 42.847656 38.789062 41.550781 40.257812 39.90625 C 40.34375 39.816406 40.425781 39.726562 40.515625 39.632812 C 40.828125 39.289062 41.101562 38.925781 41.375 38.546875 C 41.449219 38.449219 41.523438 38.347656 41.601562 38.246094 C 41.78125 37.996094 41.78125 37.996094 41.75 37.625 C 38.09375 36.570312 36.164062 39.492188 34 42 Z M 34 42 "/>
<path style=" stroke:none;fill-rule:nonzero;fill:rgb(100%,100%,100%);fill-opacity:1;" d="M 19.5 25.25 C 20.449219 25.523438 21.382812 25.835938 22.316406 26.164062 C 22.539062 26.242188 22.539062 26.242188 22.769531 26.324219 C 23.171875 26.464844 23.574219 26.605469 23.976562 26.75 C 24.226562 26.835938 24.476562 26.925781 24.730469 27.011719 C 25.824219 27.394531 26.917969 27.78125 28.011719 28.167969 C 28.242188 28.246094 28.472656 28.328125 28.703125 28.410156 C 29.5 28.691406 30.300781 28.972656 31.101562 29.253906 C 31.339844 29.339844 31.578125 29.421875 31.8125 29.507812 C 32.140625 29.625 32.46875 29.738281 32.796875 29.855469 C 32.890625 29.890625 32.984375 29.921875 33.082031 29.957031 C 35.496094 30.816406 35.496094 30.816406 36.179688 31.9375 C 36.535156 32.738281 36.503906 33.703125 36.304688 34.539062 C 35.855469 35.597656 34.777344 36.378906 33.925781 37.109375 C 33.503906 37.480469 33.097656 37.867188 32.6875 38.25 C 32.140625 38.761719 31.59375 39.265625 31.027344 39.753906 C 30.613281 40.121094 30.214844 40.496094 29.8125 40.875 C 29.261719 41.390625 28.707031 41.902344 28.132812 42.398438 C 27.78125 42.707031 27.4375 43.023438 27.09375 43.34375 C 27.023438 43.40625 26.957031 43.472656 26.882812 43.539062 C 26.742188 43.667969 26.601562 43.800781 26.460938 43.929688 C 24.742188 45.519531 24.742188 45.519531 23.875 46.25 C 23.941406 46.59375 24.011719 46.914062 24.125 47.25 C 24.246094 48.527344 24.246094 48.527344 23.90625 49.078125 C 23.617188 49.386719 23.519531 49.425781 23.125 49.5 C 23.046875 49.378906 23.046875 49.378906 22.964844 49.257812 C 21.90625 47.664062 20.839844 46.070312 19.75 44.5 C 19.945312 44 20.296875 43.699219 20.6875 43.351562 C 20.789062 43.261719 20.789062 43.261719 20.890625 43.167969 C 21.09375 42.988281 21.296875 42.804688 21.5 42.625 C 21.707031 42.441406 21.910156 42.253906 22.117188 42.070312 C 22.21875 41.980469 22.316406 41.890625 22.421875 41.796875 C 22.804688 41.449219 23.183594 41.101562 23.5625 40.75 C 24.140625 40.214844 24.722656 39.683594 25.308594 39.160156 C 25.917969 38.609375 26.523438 38.054688 27.125 37.5 C 29.246094 35.550781 29.246094 35.550781 30.199219 34.71875 C 30.300781 34.628906 30.402344 34.539062 30.507812 34.445312 C 30.597656 34.367188 30.691406 34.285156 30.785156 34.203125 C 31.011719 34.011719 31.011719 34.011719 31.125 33.75 C 31.054688 33.730469 30.984375 33.710938 30.914062 33.6875 C 29.960938 33.410156 29.023438 33.089844 28.085938 32.765625 C 27.914062 32.707031 27.742188 32.648438 27.570312 32.589844 C 27.210938 32.46875 26.851562 32.34375 26.492188 32.21875 C 26.128906 32.09375 25.765625 31.96875 25.402344 31.84375 C 24.226562 31.441406 23.050781 31.035156 21.875 30.625 C 21.742188 30.578125 21.613281 30.535156 21.476562 30.488281 C 21.140625 30.371094 20.804688 30.25 20.472656 30.132812 C 20.378906 30.097656 20.289062 30.066406 20.191406 30.035156 C 19.53125 29.792969 19.054688 29.507812 18.648438 28.929688 C 18.363281 28.105469 18.34375 27.414062 18.722656 26.617188 C 18.964844 26.152344 19.226562 25.699219 19.5 25.25 Z M 19.5 25.25 "/>
<path style=" stroke:none;fill-rule:nonzero;fill:rgb(100%,100%,100%);fill-opacity:1;" d="M 29 15.875 C 29.9375 16.511719 30.574219 17.269531 30.875 18.375 C 30.917969 18.796875 30.917969 19.203125 30.875 19.625 C 29.984375 18.90625 29.136719 18.082031 28.5 17.125 C 28.417969 17.167969 28.335938 17.207031 28.25 17.25 C 28.347656 17.355469 28.445312 17.460938 28.546875 17.570312 C 29.367188 18.457031 30.175781 19.347656 30.957031 20.265625 C 31.660156 21.09375 32.371094 21.90625 33.113281 22.695312 C 33.40625 23.011719 33.691406 23.328125 33.964844 23.664062 C 34.214844 24.003906 34.214844 24.003906 34.5 24.125 C 34.730469 24.140625 34.960938 24.148438 35.195312 24.152344 C 35.410156 24.15625 35.410156 24.15625 35.632812 24.160156 C 35.789062 24.160156 35.949219 24.164062 36.109375 24.164062 C 36.351562 24.167969 36.351562 24.167969 36.597656 24.171875 C 37.023438 24.179688 37.449219 24.183594 37.878906 24.191406 C 38.3125 24.199219 38.75 24.203125 39.183594 24.210938 C 40.039062 24.226562 40.894531 24.238281 41.75 24.25 C 41.75 25.40625 41.75 26.558594 41.75 27.75 C 40.679688 27.765625 39.609375 27.777344 38.539062 27.78125 C 38.042969 27.785156 37.542969 27.789062 37.046875 27.796875 C 36.566406 27.804688 36.085938 27.808594 35.605469 27.808594 C 35.421875 27.808594 35.242188 27.8125 35.058594 27.816406 C 33.652344 27.839844 32.550781 27.621094 31.5 26.625 C 31.285156 26.390625 31.074219 26.152344 30.867188 25.910156 C 30.605469 25.601562 30.335938 25.300781 30.0625 25 C 29.460938 24.335938 28.871094 23.664062 28.289062 22.980469 C 27.574219 22.140625 26.851562 21.3125 26.09375 20.511719 C 25.636719 20.023438 25.636719 20.023438 25.5 19.75 C 25.375 19.8125 25.375 19.8125 25.25 19.875 C 25.371094 20.007812 25.371094 20.007812 25.492188 20.140625 C 26.050781 20.753906 26.605469 21.367188 27.152344 21.996094 C 27.511719 22.40625 27.878906 22.808594 28.25 23.210938 C 28.332031 23.308594 28.414062 23.402344 28.5 23.5 C 28.613281 23.625 28.613281 23.625 28.726562 23.757812 C 28.875 24 28.875 24 28.84375 24.222656 C 28.726562 24.574219 28.5625 24.878906 28.382812 25.203125 C 28.308594 25.339844 28.238281 25.472656 28.160156 25.609375 C 28.085938 25.75 28.007812 25.886719 27.929688 26.03125 C 27.851562 26.171875 27.777344 26.3125 27.695312 26.457031 C 27.507812 26.804688 27.316406 27.152344 27.125 27.5 C 26.28125 27.328125 25.492188 27.089844 24.679688 26.796875 C 24.558594 26.753906 24.4375 26.710938 24.3125 26.664062 C 23.925781 26.527344 23.542969 26.390625 23.15625 26.25 C 22.894531 26.15625 22.636719 26.0625 22.375 25.96875 C 20.328125 25.238281 20.328125 25.238281 19.75 25 C 19.949219 24.304688 20.269531 23.703125 20.609375 23.070312 C 21.125 22.097656 21.628906 21.117188 22.125 20.132812 C 22.289062 19.800781 22.457031 19.472656 22.625 19.140625 C 22.734375 18.921875 22.84375 18.703125 22.949219 18.484375 C 23.105469 18.171875 23.261719 17.863281 23.421875 17.550781 C 23.464844 17.457031 23.511719 17.363281 23.558594 17.269531 C 23.972656 16.457031 24.589844 15.621094 25.484375 15.304688 C 26.738281 15.042969 27.882812 15.269531 29 15.875 Z M 29 15.875 "/>
<path style=" stroke:none;fill-rule:nonzero;fill:rgb(100%,100%,100%);fill-opacity:1;" d="M 10.414062 37.195312 C 10.617188 37.195312 10.617188 37.195312 10.828125 37.199219 C 13.246094 37.25 15.382812 38.191406 17.125 39.875 C 17.90625 40.707031 18.507812 41.59375 19 42.625 C 19.054688 42.738281 19.109375 42.855469 19.164062 42.972656 C 19.527344 43.789062 19.527344 43.789062 19.417969 44.152344 C 19.207031 44.429688 19.097656 44.460938 18.757812 44.523438 C 18.660156 44.542969 18.558594 44.558594 18.457031 44.578125 C 17.890625 44.65625 17.320312 44.710938 16.75 44.75 C 16.714844 44.652344 16.675781 44.554688 16.640625 44.457031 C 16.3125 43.621094 15.96875 42.925781 15.375 42.25 C 15.304688 42.167969 15.238281 42.082031 15.167969 41.996094 C 14.074219 40.78125 12.472656 40.167969 10.875 40 C 8.886719 39.949219 7.160156 40.613281 5.710938 41.976562 C 4.414062 43.363281 3.917969 45.003906 3.941406 46.871094 C 4.003906 48.554688 4.636719 49.980469 5.78125 51.21875 C 7.300781 52.628906 9.019531 53.125 11.050781 53.046875 C 12.75 52.9375 14.226562 52.140625 15.394531 50.914062 C 15.972656 50.1875 16.421875 49.367188 16.75 48.5 C 17.679688 48.621094 18.59375 48.746094 19.5 49 C 18.949219 51.320312 17.519531 53.195312 15.550781 54.488281 C 14.964844 54.847656 14.394531 55.144531 13.75 55.375 C 13.617188 55.421875 13.484375 55.472656 13.347656 55.523438 C 10.824219 56.328125 8.183594 55.980469 5.847656 54.800781 C 4.980469 54.332031 4.304688 53.707031 3.625 53 C 3.539062 52.914062 3.457031 52.832031 3.367188 52.742188 C 1.566406 50.824219 1.054688 48.40625 1.089844 45.859375 C 1.167969 43.496094 2.320312 41.261719 4 39.625 C 5.796875 38.007812 8.003906 37.171875 10.414062 37.195312 Z M 10.414062 37.195312 "/>
<path style=" stroke:none;fill-rule:nonzero;fill:rgb(100%,100%,100%);fill-opacity:1;" d="M 11 40.25 C 11.152344 40.261719 11.152344 40.261719 11.304688 40.277344 C 12.796875 40.472656 14.253906 41.246094 15.25 42.375 C 15.847656 43.164062 16.210938 43.933594 16.5 44.875 C 15.972656 44.960938 15.441406 45.046875 14.914062 45.132812 C 14.765625 45.15625 14.613281 45.183594 14.460938 45.207031 C 14.242188 45.242188 14.242188 45.242188 14.023438 45.277344 C 13.890625 45.300781 13.757812 45.320312 13.621094 45.34375 C 13.246094 45.375 12.980469 45.363281 12.625 45.25 C 12.46875 45.066406 12.3125 44.878906 12.164062 44.6875 C 11.71875 44.179688 11.074219 44.035156 10.429688 43.984375 C 9.777344 44.019531 9.15625 44.25 8.664062 44.683594 C 8.054688 45.390625 7.941406 45.953125 7.960938 46.871094 C 8.027344 47.519531 8.230469 47.976562 8.6875 48.441406 C 9.289062 48.921875 9.996094 49.171875 10.765625 49.101562 C 11.34375 48.980469 11.785156 48.746094 12.25 48.375 C 12.320312 48.257812 12.394531 48.144531 12.46875 48.023438 C 12.75 47.75 12.75 47.75 12.976562 47.71875 C 14.113281 47.808594 15.261719 48.128906 16.375 48.375 C 16.308594 48.917969 16.1875 49.296875 15.898438 49.757812 C 15.835938 49.859375 15.773438 49.960938 15.707031 50.066406 C 14.835938 51.359375 13.546875 52.34375 12.011719 52.707031 C 10.722656 52.925781 9.199219 52.929688 8 52.375 C 7.890625 52.328125 7.777344 52.277344 7.664062 52.226562 C 5.953125 51.390625 5.09375 50.070312 4.375 48.375 C 3.917969 46.839844 4.121094 44.894531 4.875 43.5 C 5.839844 41.917969 7.15625 40.859375 8.972656 40.414062 C 9.652344 40.277344 10.308594 40.191406 11 40.25 Z M 11 40.25 "/>
<path style=" stroke:none;fill-rule:nonzero;fill:rgb(100%,100%,100%);fill-opacity:1;" d="M 5 25.25 C 6.492188 25.238281 7.984375 25.230469 9.480469 25.222656 C 10.171875 25.222656 10.863281 25.21875 11.558594 25.210938 C 12.226562 25.207031 12.894531 25.203125 13.5625 25.203125 C 13.820312 25.203125 14.074219 25.199219 14.332031 25.195312 C 14.6875 25.195312 15.042969 25.191406 15.402344 25.191406 C 15.5625 25.191406 15.5625 25.191406 15.722656 25.1875 C 16.4375 25.191406 16.4375 25.191406 16.753906 25.480469 C 16.921875 25.855469 16.929688 26.179688 16.9375 26.59375 C 16.945312 26.753906 16.949219 26.914062 16.953125 27.082031 C 16.957031 27.253906 16.957031 27.421875 16.960938 27.59375 C 16.964844 27.765625 16.96875 27.9375 16.972656 28.109375 C 16.984375 28.53125 16.992188 28.953125 17 29.375 C 17.199219 29.394531 17.199219 29.394531 17.398438 29.414062 C 18.320312 29.507812 18.941406 29.640625 19.753906 30.070312 C 20.519531 30.441406 21.335938 30.699219 22.140625 30.976562 C 22.320312 31.039062 22.503906 31.101562 22.683594 31.167969 C 23.121094 31.320312 23.5625 31.472656 24 31.625 C 23.464844 32.265625 22.902344 32.863281 22.304688 33.445312 C 22.125 33.625 21.949219 33.800781 21.769531 33.980469 C 21.488281 34.257812 21.207031 34.535156 20.925781 34.8125 C 20.65625 35.078125 20.382812 35.347656 20.109375 35.617188 C 20.027344 35.703125 19.941406 35.785156 19.855469 35.871094 C 19.777344 35.949219 19.699219 36.023438 19.621094 36.105469 C 19.550781 36.171875 19.484375 36.238281 19.410156 36.308594 C 19.21875 36.511719 19.21875 36.511719 19.125 36.875 C 18.878906 36.746094 18.632812 36.617188 18.386719 36.484375 C 18.3125 36.445312 18.234375 36.40625 18.15625 36.363281 C 17.730469 36.136719 17.304688 35.910156 16.882812 35.679688 C 16.132812 35.269531 15.398438 34.871094 14.601562 34.554688 C 13.359375 34.03125 13.359375 34.03125 13 33.5 C 12.695312 32.402344 12.773438 31.246094 12.875 30.125 C 12.785156 30.09375 12.695312 30.058594 12.605469 30.027344 C 12.230469 29.867188 11.90625 29.679688 11.5625 29.464844 C 11.363281 29.34375 11.363281 29.34375 11.160156 29.21875 C 11.019531 29.128906 10.875 29.042969 10.734375 28.953125 C 10.589844 28.863281 10.441406 28.773438 10.296875 28.679688 C 9.335938 28.085938 8.378906 27.484375 7.425781 26.878906 C 6.710938 26.429688 5.996094 25.988281 5.273438 25.554688 C 5.183594 25.496094 5.09375 25.4375 5 25.375 C 5 25.332031 5 25.292969 5 25.25 Z M 5 25.25 "/>
<path style=" stroke:none;fill-rule:nonzero;fill:rgb(100%,100%,100%);fill-opacity:1;" d="M 59.25 40.5 C 61.082031 41.917969 62.285156 43.710938 62.75 46 C 62.796875 46.476562 62.804688 46.949219 62.796875 47.429688 C 62.796875 47.554688 62.792969 47.683594 62.792969 47.8125 C 62.742188 50.195312 61.800781 51.988281 60.125 53.625 C 60.042969 53.710938 59.960938 53.792969 59.875 53.882812 C 58.292969 55.410156 56.191406 55.816406 54.070312 55.800781 C 51.824219 55.746094 49.957031 54.847656 48.375 53.25 C 48.296875 53.175781 48.21875 53.101562 48.140625 53.027344 C 46.601562 51.453125 46.058594 49.246094 46.074219 47.117188 C 46.140625 44.703125 47.15625 42.773438 48.875 41.125 C 49.875 40.25 49.875 40.25 50.25 40.25 C 50.335938 40.445312 50.421875 40.644531 50.507812 40.84375 C 50.554688 40.953125 50.605469 41.0625 50.652344 41.179688 C 50.757812 41.53125 50.777344 41.667969 50.625 42 C 50.421875 42.210938 50.421875 42.210938 50.164062 42.414062 C 49.273438 43.164062 48.710938 43.925781 48.25 45 C 48.210938 45.089844 48.167969 45.179688 48.128906 45.273438 C 47.558594 46.796875 47.734375 48.597656 48.304688 50.085938 C 49.136719 51.855469 50.527344 53.125 52.359375 53.796875 C 54.109375 54.289062 55.972656 54.15625 57.585938 53.328125 C 59.265625 52.371094 60.25 51.082031 60.875 49.25 C 61.308594 47.621094 61.074219 45.734375 60.3125 44.257812 C 59.523438 42.933594 58.53125 42.007812 57.125 41.375 C 57.015625 41.324219 56.90625 41.273438 56.796875 41.21875 C 55.582031 40.722656 54.289062 40.828125 53 40.875 C 52.890625 40.675781 52.785156 40.472656 52.679688 40.273438 C 52.621094 40.160156 52.5625 40.050781 52.5 39.933594 C 52.375 39.625 52.375 39.625 52.5 39.25 C 54.769531 38.671875 57.335938 39.210938 59.25 40.5 Z M 59.25 40.5 "/>
<path style=" stroke:none;fill-rule:nonzero;fill:rgb(100%,100%,100%);fill-opacity:1;" d="M 54.671875 41.085938 C 56.324219 41.113281 57.707031 41.664062 58.933594 42.78125 C 60.304688 44.207031 60.886719 45.917969 60.875 47.875 C 60.664062 49.78125 59.839844 51.386719 58.347656 52.601562 C 56.773438 53.714844 55.015625 54.039062 53.125 53.75 C 51.46875 53.375 50.128906 52.496094 49.125 51.125 C 48.410156 49.9375 48.078125 48.828125 48.085938 47.453125 C 48.085938 47.347656 48.085938 47.242188 48.089844 47.136719 C 48.121094 45.546875 48.726562 44.121094 49.800781 42.9375 C 50.132812 42.625 50.492188 42.375 50.875 42.125 C 51.378906 42.703125 51.625 43.367188 51.625 44.125 C 51.421875 44.339844 51.214844 44.546875 51 44.75 C 50.179688 45.8125 49.984375 46.925781 50.125 48.25 C 50.367188 49.34375 50.898438 50.304688 51.808594 50.976562 C 52.980469 51.707031 54 51.863281 55.375 51.75 C 56.472656 51.492188 57.394531 50.875 58.039062 49.953125 C 58.15625 49.761719 58.265625 49.570312 58.375 49.375 C 58.417969 49.300781 58.460938 49.222656 58.503906 49.148438 C 58.9375 48.214844 58.898438 47.046875 58.636719 46.078125 C 58.117188 44.746094 57.394531 44.011719 56.125 43.375 C 55.703125 43.214844 55.359375 43.128906 54.90625 43.117188 C 54.542969 43.109375 54.226562 43.09375 53.875 43 C 53.597656 42.703125 53.488281 42.386719 53.375 42 C 53.324219 41.855469 53.273438 41.710938 53.21875 41.5625 C 53.1875 41.460938 53.15625 41.355469 53.125 41.25 C 53.425781 40.949219 54.25 41.085938 54.671875 41.085938 Z M 54.671875 41.085938 "/>
<path style=" stroke:none;fill-rule:nonzero;fill:rgb(100%,100%,100%);fill-opacity:1;" d="M 24.679688 31.851562 C 24.828125 31.902344 24.972656 31.949219 25.125 32 C 25.257812 32.039062 25.257812 32.039062 25.394531 32.082031 C 25.707031 32.179688 26.015625 32.285156 26.324219 32.390625 C 26.433594 32.429688 26.546875 32.46875 26.660156 32.507812 C 27.015625 32.628906 27.371094 32.75 27.726562 32.875 C 27.96875 32.957031 28.207031 33.039062 28.449219 33.125 C 28.679688 33.203125 28.90625 33.28125 29.136719 33.359375 C 29.242188 33.398438 29.351562 33.433594 29.460938 33.472656 C 29.613281 33.523438 29.613281 33.523438 29.765625 33.578125 C 29.851562 33.609375 29.941406 33.636719 30.03125 33.667969 C 30.25 33.75 30.25 33.75 30.5 33.875 C 30.300781 34.402344 29.910156 34.722656 29.5 35.085938 C 29.425781 35.152344 29.355469 35.21875 29.277344 35.285156 C 29.0625 35.484375 28.84375 35.679688 28.625 35.875 C 28.515625 35.972656 28.40625 36.074219 28.292969 36.175781 C 28.09375 36.355469 27.890625 36.535156 27.691406 36.714844 C 27.398438 36.976562 27.113281 37.242188 26.824219 37.503906 C 26.695312 37.621094 26.570312 37.738281 26.441406 37.851562 C 26.121094 38.144531 25.804688 38.441406 25.496094 38.746094 C 25.433594 38.804688 25.375 38.863281 25.3125 38.921875 C 25.140625 39.085938 24.976562 39.25 24.808594 39.414062 C 24.5 39.625 24.5 39.625 24.210938 39.597656 C 23.84375 39.492188 23.542969 39.347656 23.210938 39.164062 C 23.023438 39.058594 23.023438 39.058594 22.828125 38.957031 C 22.699219 38.882812 22.566406 38.808594 22.429688 38.734375 C 22.296875 38.660156 22.160156 38.585938 22.023438 38.511719 C 21.132812 38.023438 20.246094 37.523438 19.375 37 C 19.550781 36.601562 19.761719 36.328125 20.0625 36.015625 C 20.152344 35.921875 20.242188 35.832031 20.335938 35.734375 C 20.433594 35.636719 20.53125 35.535156 20.628906 35.433594 C 20.730469 35.332031 20.832031 35.230469 20.933594 35.125 C 21.144531 34.910156 21.359375 34.695312 21.570312 34.480469 C 21.898438 34.148438 22.21875 33.816406 22.542969 33.484375 C 22.746094 33.273438 22.953125 33.066406 23.160156 32.855469 C 23.304688 32.707031 23.304688 32.707031 23.453125 32.554688 C 24.128906 31.882812 24.128906 31.882812 24.679688 31.851562 Z M 24.679688 31.851562 "/>
<path style=" stroke:none;fill-rule:nonzero;fill:rgb(100%,100%,100%);fill-opacity:1;" d="M 54.125 43.375 C 55.320312 43.296875 56.296875 43.558594 57.234375 44.328125 C 57.9375 45 58.457031 45.921875 58.53125 46.902344 C 58.558594 48.382812 58.324219 49.402344 57.285156 50.503906 C 56.335938 51.324219 55.3125 51.546875 54.089844 51.535156 C 52.917969 51.449219 52.042969 50.980469 51.25 50.125 C 50.417969 49.089844 50.234375 47.925781 50.375 46.625 C 50.59375 45.746094 51.050781 45.0625 51.625 44.375 C 52 44.5 52 44.5 52.140625 44.75 C 52.183594 44.855469 52.226562 44.964844 52.269531 45.074219 C 52.316406 45.191406 52.367188 45.304688 52.414062 45.425781 C 52.488281 45.609375 52.488281 45.609375 52.5625 45.796875 C 52.660156 46.039062 52.757812 46.277344 52.855469 46.519531 C 52.898438 46.625 52.941406 46.734375 52.984375 46.84375 C 53.128906 47.128906 53.253906 47.300781 53.5 47.5 C 53.949219 47.636719 54.160156 47.664062 54.59375 47.46875 C 54.902344 47.253906 54.902344 47.253906 55.125 46.875 C 55.09375 46.097656 54.871094 45.480469 54.554688 44.773438 C 54.472656 44.589844 54.390625 44.402344 54.3125 44.214844 C 54.277344 44.136719 54.242188 44.054688 54.203125 43.972656 C 54.125 43.75 54.125 43.75 54.125 43.375 Z M 54.125 43.375 "/>
<path style=" stroke:none;fill-rule:nonzero;fill:rgb(100%,100%,100%);fill-opacity:1;" d="M 30.875 26.25 C 31.210938 26.496094 31.453125 26.765625 31.722656 27.082031 C 32.515625 27.917969 33.628906 28.09375 34.730469 28.140625 C 35.144531 28.148438 35.558594 28.15625 35.972656 28.160156 C 36.28125 28.164062 36.589844 28.167969 36.902344 28.175781 C 37.386719 28.179688 37.871094 28.1875 38.359375 28.195312 C 38.828125 28.199219 39.296875 28.207031 39.769531 28.214844 C 39.988281 28.21875 39.988281 28.21875 40.214844 28.21875 C 40.347656 28.222656 40.480469 28.222656 40.621094 28.226562 C 40.738281 28.226562 40.859375 28.230469 40.980469 28.230469 C 41.25 28.25 41.25 28.25 41.375 28.375 C 41.546875 30.054688 41.546875 30.054688 41.214844 30.671875 C 40.988281 30.894531 40.757812 31.070312 40.5 31.25 C 40.347656 31.382812 40.195312 31.515625 40.046875 31.648438 C 39.964844 31.71875 39.882812 31.792969 39.796875 31.863281 C 39.421875 32.195312 39.054688 32.535156 38.6875 32.875 C 37.722656 33.769531 37.722656 33.769531 37.289062 34.15625 C 37.175781 34.257812 37.175781 34.257812 37.0625 34.359375 C 36.875 34.5 36.875 34.5 36.625 34.5 C 36.632812 34.371094 36.640625 34.242188 36.648438 34.105469 C 36.6875 33.046875 36.699219 32.117188 36 31.25 C 35.410156 30.660156 34.84375 30.339844 34.054688 30.078125 C 33.902344 30.023438 33.902344 30.023438 33.746094 29.96875 C 33.527344 29.894531 33.308594 29.816406 33.089844 29.742188 C 32.628906 29.582031 32.175781 29.417969 31.71875 29.253906 C 31.136719 29.046875 30.558594 28.839844 29.976562 28.632812 C 29.734375 28.546875 29.492188 28.460938 29.25 28.375 C 28.667969 28.164062 28.082031 27.957031 27.5 27.75 C 27.5 27.269531 27.566406 27.125 27.875 26.75 C 28.761719 26.195312 29.855469 26.03125 30.875 26.25 Z M 30.875 26.25 "/>
<path style=" stroke:none;fill-rule:nonzero;fill:rgb(100%,100%,100%);fill-opacity:1;" d="M 32.25 8 C 32.652344 8.308594 33.019531 8.636719 33.375 9 C 33.332031 9.082031 33.292969 9.164062 33.25 9.25 C 32.9375 9.335938 32.9375 9.335938 32.527344 9.410156 C 32.308594 9.453125 32.308594 9.453125 32.082031 9.492188 C 31.851562 9.535156 31.851562 9.535156 31.617188 9.578125 C 31.386719 9.621094 31.386719 9.621094 31.148438 9.664062 C 30.765625 9.734375 30.382812 9.804688 30 9.875 C 30.246094 10.699219 30.496094 11.523438 30.75 12.375 C 32.667969 12.808594 32.667969 12.808594 34.625 13.25 C 34.371094 14.101562 34.15625 14.742188 33.75 15.5 C 33.140625 15.417969 32.578125 15.25 32 15.050781 C 31.90625 15.019531 31.808594 14.988281 31.710938 14.957031 C 31.410156 14.855469 31.105469 14.75 30.804688 14.648438 C 30.507812 14.546875 30.207031 14.445312 29.910156 14.347656 C 29.714844 14.28125 29.519531 14.214844 29.328125 14.148438 C 28.886719 14 28.453125 13.859375 28.003906 13.738281 C 27.859375 13.699219 27.710938 13.660156 27.5625 13.617188 C 27.433594 13.585938 27.308594 13.554688 27.175781 13.523438 C 26.875 13.375 26.875 13.375 26.691406 13.046875 C 26.570312 12.652344 26.527344 12.289062 26.5 11.875 C 26.480469 11.652344 26.480469 11.652344 26.464844 11.425781 C 26.417969 10.269531 26.636719 9.539062 27.273438 8.59375 C 28.617188 7.28125 30.609375 7.097656 32.25 8 Z M 32.25 8 "/>
<path style=" stroke:none;fill-rule:nonzero;fill:rgb(100%,100%,100%);fill-opacity:1;" d="M 19.625 44.75 C 19.878906 45.019531 19.878906 45.019531 20.125 45.394531 C 20.214844 45.53125 20.304688 45.664062 20.398438 45.804688 C 20.492188 45.953125 20.585938 46.097656 20.679688 46.242188 C 20.773438 46.382812 20.867188 46.523438 20.960938 46.664062 C 21.140625 46.9375 21.320312 47.214844 21.5 47.488281 C 21.828125 47.996094 22.164062 48.5 22.5 49 C 22.4375 49.125 22.4375 49.125 22.375 49.25 C 20.867188 48.957031 19.359375 48.667969 17.855469 48.375 C 17.152344 48.242188 16.453125 48.105469 15.753906 47.972656 C 15.078125 47.839844 14.402344 47.710938 13.730469 47.578125 C 13.472656 47.53125 13.214844 47.480469 12.957031 47.429688 C 12.59375 47.359375 12.234375 47.289062 11.875 47.222656 C 11.765625 47.199219 11.660156 47.179688 11.550781 47.160156 C 11.453125 47.140625 11.351562 47.121094 11.25 47.101562 C 11.167969 47.082031 11.082031 47.066406 10.992188 47.050781 C 10.742188 47 10.496094 46.9375 10.25 46.875 C 10.25 46.628906 10.25 46.378906 10.25 46.125 C 11.378906 45.945312 12.511719 45.765625 13.640625 45.585938 C 14.164062 45.503906 14.691406 45.421875 15.214844 45.335938 C 15.722656 45.257812 16.226562 45.175781 16.734375 45.097656 C 16.925781 45.066406 17.121094 45.035156 17.3125 45.003906 C 17.585938 44.960938 17.855469 44.917969 18.125 44.875 C 18.355469 44.839844 18.355469 44.839844 18.59375 44.800781 C 18.945312 44.757812 19.269531 44.71875 19.625 44.75 Z M 19.625 44.75 "/>
<path style=" stroke:none;fill-rule:nonzero;fill:rgb(100%,100%,100%);fill-opacity:1;" d="M 40.65625 37.867188 C 40.808594 37.910156 40.964844 37.957031 41.125 38 C 40.957031 38.476562 40.742188 38.835938 40.429688 39.234375 C 40.34375 39.347656 40.257812 39.460938 40.167969 39.578125 C 40.074219 39.691406 39.984375 39.808594 39.890625 39.929688 C 39.710938 40.160156 39.53125 40.394531 39.351562 40.625 C 39.234375 40.777344 39.234375 40.777344 39.113281 40.933594 C 39.035156 41.039062 38.957031 41.140625 38.875 41.25 C 38.785156 41.359375 38.695312 41.46875 38.601562 41.582031 C 38.285156 42.167969 38.300781 42.675781 38.296875 43.332031 C 38.296875 43.457031 38.292969 43.585938 38.292969 43.714844 C 38.285156 44.117188 38.285156 44.519531 38.28125 44.921875 C 38.277344 45.195312 38.273438 45.46875 38.269531 45.742188 C 38.261719 46.410156 38.253906 47.082031 38.25 47.75 C 37.679688 47.226562 37.277344 46.640625 36.851562 45.996094 C 36.746094 45.835938 36.746094 45.835938 36.636719 45.671875 C 36.410156 45.332031 36.1875 44.988281 35.960938 44.648438 C 35.808594 44.417969 35.652344 44.183594 35.5 43.953125 C 35.125 43.386719 34.75 42.816406 34.375 42.25 C 34.808594 41.3125 35.636719 40.582031 36.34375 39.84375 C 36.425781 39.757812 36.511719 39.667969 36.597656 39.578125 C 37.84375 38.300781 38.785156 37.523438 40.65625 37.867188 Z M 40.65625 37.867188 "/>
<path style=" stroke:none;fill-rule:nonzero;fill:rgb(100%,100%,100%);fill-opacity:1;" d="M 26.234375 55.484375 C 26.367188 55.484375 26.367188 55.484375 26.503906 55.484375 C 26.597656 55.484375 26.6875 55.484375 26.785156 55.484375 C 27.097656 55.484375 27.410156 55.484375 27.726562 55.484375 C 27.949219 55.484375 28.171875 55.484375 28.398438 55.484375 C 29.007812 55.484375 29.617188 55.484375 30.226562 55.484375 C 30.863281 55.484375 31.5 55.484375 32.136719 55.484375 C 33.207031 55.484375 34.277344 55.484375 35.347656 55.484375 C 36.585938 55.484375 37.824219 55.484375 39.0625 55.484375 C 40.125 55.484375 41.1875 55.484375 42.246094 55.484375 C 42.882812 55.484375 43.515625 55.484375 44.152344 55.484375 C 44.75 55.484375 45.347656 55.484375 45.941406 55.484375 C 46.164062 55.484375 46.382812 55.484375 46.601562 55.484375 C 46.898438 55.484375 47.199219 55.484375 47.496094 55.484375 C 47.585938 55.484375 47.671875 55.484375 47.765625 55.484375 C 48.359375 55.484375 48.359375 55.484375 48.5 55.625 C 48.515625 56 48.515625 56 48.5 56.375 C 48.292969 56.582031 48.042969 56.515625 47.765625 56.515625 C 47.632812 56.515625 47.632812 56.515625 47.496094 56.515625 C 47.402344 56.515625 47.3125 56.515625 47.214844 56.515625 C 46.902344 56.515625 46.589844 56.515625 46.273438 56.515625 C 46.050781 56.515625 45.828125 56.515625 45.601562 56.515625 C 44.992188 56.515625 44.382812 56.515625 43.773438 56.515625 C 43.136719 56.515625 42.5 56.515625 41.863281 56.515625 C 40.792969 56.515625 39.722656 56.515625 38.652344 56.515625 C 37.414062 56.515625 36.175781 56.515625 34.9375 56.515625 C 33.875 56.515625 32.8125 56.515625 31.753906 56.515625 C 31.117188 56.515625 30.484375 56.515625 29.847656 56.515625 C 29.25 56.515625 28.652344 56.515625 28.058594 56.515625 C 27.835938 56.515625 27.617188 56.515625 27.398438 56.515625 C 27.101562 56.515625 26.800781 56.515625 26.503906 56.515625 C 26.414062 56.515625 26.328125 56.515625 26.234375 56.515625 C 25.640625 56.515625 25.640625 56.515625 25.5 56.375 C 25.484375 56 25.484375 56 25.5 55.625 C 25.707031 55.417969 25.957031 55.484375 26.234375 55.484375 Z M 26.234375 55.484375 "/>
<path style=" stroke:none;fill-rule:nonzero;fill:rgb(100%,100%,100%);fill-opacity:1;" d="M 50.125 35.25 C 50.449219 35.410156 50.464844 35.535156 50.601562 35.863281 C 50.667969 36.023438 50.667969 36.023438 50.734375 36.183594 C 50.78125 36.296875 50.828125 36.414062 50.875 36.53125 C 50.925781 36.652344 50.976562 36.773438 51.027344 36.898438 C 51.191406 37.292969 51.351562 37.691406 51.515625 38.085938 C 51.742188 38.632812 51.96875 39.183594 52.195312 39.730469 C 52.25 39.871094 52.308594 40.007812 52.367188 40.148438 C 52.734375 41.039062 53.105469 41.921875 53.484375 42.804688 C 53.578125 43.023438 53.671875 43.242188 53.765625 43.457031 C 53.898438 43.765625 54.03125 44.074219 54.164062 44.378906 C 54.285156 44.660156 54.40625 44.941406 54.523438 45.222656 C 54.5625 45.304688 54.597656 45.386719 54.632812 45.46875 C 54.839844 45.957031 54.925781 46.347656 54.875 46.875 C 54.679688 47.175781 54.535156 47.238281 54.195312 47.351562 C 53.804688 47.378906 53.691406 47.351562 53.375 47.125 C 53.207031 46.8125 53.070312 46.515625 52.9375 46.1875 C 52.894531 46.089844 52.855469 45.992188 52.8125 45.894531 C 52.679688 45.574219 52.546875 45.25 52.414062 44.929688 C 52.320312 44.707031 52.226562 44.484375 52.136719 44.261719 C 51.941406 43.789062 51.746094 43.320312 51.550781 42.851562 C 51.300781 42.246094 51.042969 41.640625 50.785156 41.035156 C 50.585938 40.566406 50.386719 40.097656 50.191406 39.628906 C 50.09375 39.402344 50 39.175781 49.902344 38.953125 C 49.769531 38.636719 49.636719 38.320312 49.503906 38.007812 C 49.460938 37.914062 49.421875 37.820312 49.378906 37.722656 C 49.175781 37.226562 49.0625 36.890625 49.25 36.375 C 49.453125 36.066406 49.453125 36.066406 49.695312 35.773438 C 49.816406 35.625 49.816406 35.625 49.9375 35.472656 C 50 35.398438 50.0625 35.328125 50.125 35.25 Z M 50.125 35.25 "/>
<path style=" stroke:none;fill-rule:nonzero;fill:rgb(100%,100%,100%);fill-opacity:1;" d="M 48.714844 20.859375 C 49.105469 20.875 49.3125 20.914062 49.65625 21.097656 C 49.796875 21.167969 49.796875 21.167969 49.9375 21.242188 C 50.035156 21.296875 50.132812 21.351562 50.234375 21.40625 C 50.335938 21.460938 50.4375 21.515625 50.542969 21.574219 C 51.628906 22.171875 52.648438 22.867188 53.625 23.625 C 53.625 23.667969 53.625 23.707031 53.625 23.75 C 51.738281 23.671875 49.867188 23.46875 47.992188 23.269531 C 47.570312 23.222656 47.148438 23.179688 46.722656 23.136719 C 45.898438 23.050781 45.074219 22.960938 44.25 22.875 C 44.25 22.257812 44.25 21.636719 44.25 21 C 44.804688 20.980469 45.355469 20.964844 45.910156 20.945312 C 46.097656 20.941406 46.285156 20.933594 46.476562 20.929688 C 46.746094 20.917969 47.019531 20.910156 47.289062 20.902344 C 47.535156 20.894531 47.535156 20.894531 47.785156 20.886719 C 48.09375 20.878906 48.402344 20.871094 48.714844 20.859375 Z M 48.714844 20.859375 "/>
<path style=" stroke:none;fill-rule:nonzero;fill:rgb(100%,100%,100%);fill-opacity:1;" d="M 10.386719 14.484375 C 10.546875 14.484375 10.546875 14.484375 10.714844 14.484375 C 10.832031 14.484375 10.945312 14.484375 11.0625 14.484375 C 11.441406 14.484375 11.824219 14.484375 12.203125 14.484375 C 12.464844 14.484375 12.730469 14.484375 12.992188 14.484375 C 13.542969 14.484375 14.097656 14.484375 14.648438 14.484375 C 15.355469 14.484375 16.066406 14.484375 16.773438 14.484375 C 17.320312 14.484375 17.863281 14.484375 18.40625 14.484375 C 18.667969 14.484375 18.929688 14.484375 19.191406 14.484375 C 19.554688 14.484375 19.917969 14.484375 20.285156 14.484375 C 20.394531 14.484375 20.503906 14.484375 20.613281 14.484375 C 21.359375 14.484375 21.359375 14.484375 21.5 14.625 C 21.515625 15 21.515625 15 21.5 15.375 C 21.265625 15.609375 20.925781 15.515625 20.613281 15.515625 C 20.507812 15.515625 20.398438 15.515625 20.285156 15.515625 C 20.167969 15.515625 20.054688 15.515625 19.9375 15.515625 C 19.558594 15.515625 19.175781 15.515625 18.796875 15.515625 C 18.535156 15.515625 18.269531 15.515625 18.007812 15.515625 C 17.457031 15.515625 16.902344 15.515625 16.351562 15.515625 C 15.644531 15.515625 14.933594 15.515625 14.226562 15.515625 C 13.679688 15.515625 13.136719 15.515625 12.59375 15.515625 C 12.332031 15.515625 12.070312 15.515625 11.808594 15.515625 C 11.445312 15.515625 11.082031 15.515625 10.714844 15.515625 C 10.550781 15.515625 10.550781 15.515625 10.386719 15.515625 C 9.640625 15.515625 9.640625 15.515625 9.5 15.375 C 9.484375 15 9.484375 15 9.5 14.625 C 9.734375 14.390625 10.074219 14.484375 10.386719 14.484375 Z M 10.386719 14.484375 "/>
<path style=" stroke:none;fill-rule:nonzero;fill:rgb(100%,100%,100%);fill-opacity:1;" d="M 29.625 41.375 C 30.054688 41.710938 30.175781 42.171875 30.335938 42.671875 C 30.363281 42.753906 30.390625 42.835938 30.421875 42.921875 C 30.570312 43.382812 30.636719 43.769531 30.625 44.25 C 30.105469 44.523438 29.582031 44.789062 29.058594 45.058594 C 28.878906 45.148438 28.703125 45.242188 28.523438 45.332031 C 28.269531 45.464844 28.011719 45.597656 27.757812 45.726562 C 27.675781 45.769531 27.597656 45.808594 27.515625 45.851562 C 27.164062 46.03125 26.921875 46.128906 26.523438 46.097656 C 26.230469 45.992188 26.019531 45.867188 25.773438 45.679688 C 25.699219 45.621094 25.621094 45.566406 25.542969 45.507812 C 25.460938 45.441406 25.460938 45.441406 25.375 45.375 C 25.992188 44.605469 26.699219 43.953125 27.433594 43.296875 C 27.613281 43.132812 27.792969 42.972656 27.972656 42.808594 C 28.515625 42.316406 29.058594 41.835938 29.625 41.375 Z M 29.625 41.375 "/>
<path style=" stroke:none;fill-rule:nonzero;fill:rgb(100%,100%,100%);fill-opacity:1;" d="M 11.671875 44.609375 C 12.203125 45.039062 12.203125 45.039062 12.375 45.25 C 12.375 45.332031 12.375 45.414062 12.375 45.5 C 11.136719 45.6875 11.136719 45.6875 9.875 45.875 C 9.917969 46.289062 9.957031 46.699219 10 47.125 C 10.785156 47.289062 11.566406 47.453125 12.375 47.625 C 12.097656 48.179688 11.804688 48.472656 11.25 48.75 C 10.445312 48.8125 9.675781 48.871094 9 48.375 C 8.289062 47.648438 8.207031 47.148438 8.214844 46.152344 C 8.273438 45.476562 8.574219 45.167969 9.046875 44.71875 C 9.910156 44.144531 10.769531 44.109375 11.671875 44.609375 Z M 11.671875 44.609375 "/>
<path style=" stroke:none;fill-rule:nonzero;fill:rgb(100%,100%,100%);fill-opacity:1;" d="M 33.75 9.5 C 34.601562 10.476562 34.683594 11.625 34.625 12.875 C 33.84375 12.800781 33.09375 12.679688 32.328125 12.507812 C 32.230469 12.488281 32.128906 12.464844 32.027344 12.445312 C 31.933594 12.421875 31.835938 12.402344 31.738281 12.378906 C 31.652344 12.359375 31.570312 12.339844 31.480469 12.324219 C 31.25 12.25 31.25 12.25 30.875 12 C 30.730469 11.660156 30.730469 11.660156 30.601562 11.257812 C 30.558594 11.125 30.515625 10.992188 30.472656 10.855469 C 30.375 10.5 30.375 10.5 30.375 10.125 C 33.039062 9.4375 33.039062 9.4375 33.75 9.5 Z M 33.75 9.5 "/>
<path style=" stroke:none;fill-rule:nonzero;fill:rgb(100%,100%,100%);fill-opacity:1;" d="M 42.25 24.25 C 42.730469 24.234375 42.730469 24.234375 43.21875 24.21875 C 43.320312 24.214844 43.417969 24.210938 43.519531 24.203125 C 43.925781 24.199219 44.207031 24.226562 44.5625 24.421875 C 44.855469 24.933594 44.824219 25.421875 44.8125 26 C 44.8125 26.113281 44.816406 26.226562 44.820312 26.34375 C 44.816406 26.824219 44.804688 27.152344 44.5625 27.578125 C 44.117188 27.824219 43.710938 27.804688 43.21875 27.78125 C 42.898438 27.769531 42.578125 27.761719 42.25 27.75 C 42.25 26.59375 42.25 25.441406 42.25 24.25 Z M 42.25 24.25 "/>
<path style=" stroke:none;fill-rule:nonzero;fill:rgb(100%,100%,100%);fill-opacity:1;" d="M 40.257812 17.484375 C 40.457031 17.484375 40.457031 17.484375 40.664062 17.484375 C 40.8125 17.484375 40.957031 17.484375 41.109375 17.484375 C 41.257812 17.484375 41.40625 17.484375 41.5625 17.484375 C 41.878906 17.484375 42.195312 17.484375 42.511719 17.484375 C 42.996094 17.484375 43.484375 17.484375 43.96875 17.484375 C 44.277344 17.484375 44.585938 17.484375 44.890625 17.484375 C 45.039062 17.484375 45.183594 17.484375 45.335938 17.484375 C 45.46875 17.484375 45.605469 17.484375 45.742188 17.484375 C 45.863281 17.484375 45.980469 17.484375 46.105469 17.484375 C 46.375 17.5 46.375 17.5 46.5 17.625 C 46.515625 18 46.515625 18 46.5 18.375 C 46.289062 18.585938 46.03125 18.515625 45.742188 18.515625 C 45.542969 18.515625 45.542969 18.515625 45.335938 18.515625 C 45.1875 18.515625 45.042969 18.515625 44.890625 18.515625 C 44.742188 18.515625 44.59375 18.515625 44.4375 18.515625 C 44.121094 18.515625 43.804688 18.515625 43.488281 18.515625 C 43.003906 18.515625 42.515625 18.515625 42.03125 18.515625 C 41.722656 18.515625 41.414062 18.515625 41.109375 18.515625 C 40.960938 18.515625 40.816406 18.515625 40.664062 18.515625 C 40.53125 18.515625 40.394531 18.515625 40.257812 18.515625 C 40.136719 18.515625 40.019531 18.515625 39.894531 18.515625 C 39.625 18.5 39.625 18.5 39.5 18.375 C 39.484375 18 39.484375 18 39.5 17.625 C 39.710938 17.414062 39.96875 17.484375 40.257812 17.484375 Z M 40.257812 17.484375 "/>
<path style=" stroke:none;fill-rule:nonzero;fill:rgb(100%,100%,100%);fill-opacity:1;" d="M 19.257812 6.484375 C 19.457031 6.484375 19.457031 6.484375 19.664062 6.484375 C 19.8125 6.484375 19.957031 6.484375 20.109375 6.484375 C 20.257812 6.484375 20.40625 6.484375 20.5625 6.484375 C 20.878906 6.484375 21.195312 6.484375 21.511719 6.484375 C 21.996094 6.484375 22.484375 6.484375 22.96875 6.484375 C 23.277344 6.484375 23.585938 6.484375 23.890625 6.484375 C 24.039062 6.484375 24.183594 6.484375 24.335938 6.484375 C 24.46875 6.484375 24.605469 6.484375 24.742188 6.484375 C 24.863281 6.484375 24.980469 6.484375 25.105469 6.484375 C 25.375 6.5 25.375 6.5 25.5 6.625 C 25.515625 7 25.515625 7 25.5 7.375 C 25.289062 7.585938 25.03125 7.515625 24.742188 7.515625 C 24.542969 7.515625 24.542969 7.515625 24.335938 7.515625 C 24.1875 7.515625 24.042969 7.515625 23.890625 7.515625 C 23.742188 7.515625 23.59375 7.515625 23.4375 7.515625 C 23.121094 7.515625 22.804688 7.515625 22.488281 7.515625 C 22.003906 7.515625 21.515625 7.515625 21.03125 7.515625 C 20.722656 7.515625 20.414062 7.515625 20.109375 7.515625 C 19.960938 7.515625 19.816406 7.515625 19.664062 7.515625 C 19.53125 7.515625 19.394531 7.515625 19.257812 7.515625 C 19.136719 7.515625 19.019531 7.515625 18.894531 7.515625 C 18.625 7.5 18.625 7.5 18.5 7.375 C 18.484375 7 18.484375 7 18.5 6.625 C 18.710938 6.414062 18.96875 6.484375 19.257812 6.484375 Z M 19.257812 6.484375 "/>
<path style=" stroke:none;fill-rule:nonzero;fill:rgb(100%,100%,100%);fill-opacity:1;" d="M 19.164062 55.484375 C 19.28125 55.484375 19.394531 55.484375 19.511719 55.484375 C 19.699219 55.484375 19.699219 55.484375 19.890625 55.484375 C 20.019531 55.484375 20.144531 55.484375 20.277344 55.484375 C 20.546875 55.484375 20.816406 55.484375 21.085938 55.484375 C 21.5 55.484375 21.914062 55.484375 22.328125 55.484375 C 22.585938 55.484375 22.847656 55.484375 23.109375 55.484375 C 23.234375 55.484375 23.359375 55.484375 23.488281 55.484375 C 23.601562 55.484375 23.714844 55.484375 23.835938 55.484375 C 23.9375 55.484375 24.039062 55.484375 24.140625 55.484375 C 24.375 55.5 24.375 55.5 24.5 55.625 C 24.515625 56 24.515625 56 24.5 56.375 C 24.304688 56.570312 24.109375 56.515625 23.835938 56.515625 C 23.71875 56.515625 23.605469 56.515625 23.488281 56.515625 C 23.363281 56.515625 23.238281 56.515625 23.109375 56.515625 C 22.980469 56.515625 22.855469 56.515625 22.722656 56.515625 C 22.453125 56.515625 22.183594 56.515625 21.914062 56.515625 C 21.5 56.515625 21.085938 56.515625 20.671875 56.515625 C 20.414062 56.515625 20.152344 56.515625 19.890625 56.515625 C 19.703125 56.515625 19.703125 56.515625 19.511719 56.515625 C 19.398438 56.515625 19.285156 56.515625 19.164062 56.515625 C 19.0625 56.515625 18.960938 56.515625 18.859375 56.515625 C 18.625 56.5 18.625 56.5 18.5 56.375 C 18.484375 56 18.484375 56 18.5 55.625 C 18.695312 55.429688 18.890625 55.484375 19.164062 55.484375 Z M 19.164062 55.484375 "/>
<path style=" stroke:none;fill-rule:nonzero;fill:rgb(100%,100%,100%);fill-opacity:1;" d="M 55.25 27.25 C 55.828125 27.25 56.40625 27.25 57 27.25 C 57.25 27.746094 57.5 28.238281 57.75 28.734375 C 57.820312 28.875 57.894531 29.015625 57.96875 29.160156 C 58.035156 29.296875 58.101562 29.429688 58.171875 29.570312 C 58.265625 29.757812 58.265625 29.757812 58.363281 29.945312 C 58.5 30.25 58.5 30.25 58.5 30.5 C 57.773438 30.289062 57.125 29.949219 56.453125 29.609375 C 56.335938 29.550781 56.222656 29.492188 56.101562 29.433594 C 55.816406 29.289062 55.535156 29.144531 55.25 29 C 55.25 28.421875 55.25 27.84375 55.25 27.25 Z M 55.25 27.25 "/>
<path style=" stroke:none;fill-rule:nonzero;fill:rgb(100%,100%,100%);fill-opacity:1;" d="M 37.015625 17.484375 C 37.175781 17.484375 37.335938 17.484375 37.5 17.484375 C 37.660156 17.484375 37.820312 17.484375 37.984375 17.484375 C 38.375 17.5 38.375 17.5 38.5 17.625 C 38.515625 18 38.515625 18 38.5 18.375 C 38.375 18.5 38.375 18.5 37.984375 18.515625 C 37.824219 18.515625 37.664062 18.515625 37.5 18.515625 C 37.339844 18.515625 37.179688 18.515625 37.015625 18.515625 C 36.625 18.5 36.625 18.5 36.5 18.375 C 36.484375 18 36.484375 18 36.5 17.625 C 36.625 17.5 36.625 17.5 37.015625 17.484375 Z M 37.015625 17.484375 "/>
<path style=" stroke:none;fill-rule:nonzero;fill:rgb(100%,100%,100%);fill-opacity:1;" d="M 7.015625 14.484375 C 7.175781 14.484375 7.335938 14.484375 7.5 14.484375 C 7.660156 14.484375 7.820312 14.484375 7.984375 14.484375 C 8.375 14.5 8.375 14.5 8.5 14.625 C 8.515625 15 8.515625 15 8.5 15.375 C 8.375 15.5 8.375 15.5 7.984375 15.515625 C 7.824219 15.515625 7.664062 15.515625 7.5 15.515625 C 7.339844 15.515625 7.179688 15.515625 7.015625 15.515625 C 6.625 15.5 6.625 15.5 6.5 15.375 C 6.484375 15 6.484375 15 6.5 14.625 C 6.625 14.5 6.625 14.5 7.015625 14.484375 Z M 7.015625 14.484375 "/>
<path style=" stroke:none;fill-rule:nonzero;fill:rgb(100%,100%,100%);fill-opacity:1;" d="M 16.015625 6.484375 C 16.175781 6.484375 16.335938 6.484375 16.5 6.484375 C 16.660156 6.484375 16.820312 6.484375 16.984375 6.484375 C 17.375 6.5 17.375 6.5 17.5 6.625 C 17.515625 7 17.515625 7 17.5 7.375 C 17.375 7.5 17.375 7.5 16.984375 7.515625 C 16.824219 7.515625 16.664062 7.515625 16.5 7.515625 C 16.339844 7.515625 16.179688 7.515625 16.015625 7.515625 C 15.625 7.5 15.625 7.5 15.5 7.375 C 15.484375 7 15.484375 7 15.5 6.625 C 15.625 6.5 15.625 6.5 16.015625 6.484375 Z M 16.015625 6.484375 "/>
<path style=" stroke:none;fill-rule:nonzero;fill:rgb(100%,100%,100%);fill-opacity:1;" d="M 28 14.125 C 28.570312 14.195312 29.085938 14.300781 29.625 14.5 C 29.5625 14.96875 29.515625 15.226562 29.25 15.625 C 28.75 15.457031 28.25 15.292969 27.75 15.125 C 27.859375 14.40625 27.859375 14.40625 28 14.125 Z M 28 14.125 "/>
<path style=" stroke:none;fill-rule:nonzero;fill:rgb(100%,100%,100%);fill-opacity:1;" d="M 41.625 28.25 C 42.242188 28.25 42.863281 28.25 43.5 28.25 C 43.160156 28.675781 42.882812 29.003906 42.484375 29.351562 C 42.355469 29.464844 42.355469 29.464844 42.226562 29.582031 C 42 29.75 42 29.75 41.75 29.75 C 41.707031 29.253906 41.667969 28.761719 41.625 28.25 Z M 41.625 28.25 "/>
</g>
</svg>
