<?xml version="1.0" encoding="UTF-8"?>
<svg xmlns="http://www.w3.org/2000/svg" xmlns:xlink="http://www.w3.org/1999/xlink" width="64px" height="64px" viewBox="0 0 64 64" version="1.1">
<g id="surface1">
<path style=" stroke:none;fill-rule:nonzero;fill:rgb(100%,100%,100%);fill-opacity:1;" d="M 31.574219 14.824219 C 32 14.828125 32.425781 14.824219 32.847656 14.824219 C 37.070312 14.820312 41.78125 15.039062 44.960938 18.140625 C 48.464844 21.695312 48.382812 27.410156 48.398438 32.101562 C 48.402344 32.273438 48.402344 32.449219 48.402344 32.621094 C 48.40625 33.167969 48.40625 33.71875 48.40625 34.265625 C 48.40625 34.40625 48.40625 34.40625 48.40625 34.546875 C 48.40625 37.460938 48.367188 40.355469 48 43.25 C 47.980469 43.402344 47.960938 43.558594 47.941406 43.714844 C 47.605469 46.28125 46.988281 48.390625 45.25 50.375 C 45.175781 50.460938 45.101562 50.546875 45.023438 50.636719 C 43.695312 52.074219 41.859375 52.992188 39.953125 53.328125 C 39.859375 53.347656 39.769531 53.363281 39.671875 53.378906 C 39.449219 53.421875 39.222656 53.460938 39 53.5 C 39 53.351562 38.996094 53.199219 38.996094 53.046875 C 38.988281 51.628906 38.976562 50.210938 38.964844 48.792969 C 38.957031 48.0625 38.953125 47.335938 38.945312 46.605469 C 38.941406 45.902344 38.9375 45.199219 38.929688 44.492188 C 38.929688 44.226562 38.925781 43.957031 38.925781 43.691406 C 38.910156 40.917969 38.722656 38.65625 36.773438 36.5 C 35.390625 35.167969 33.5 34.644531 31.625 34.625 C 29.75 34.75 28.078125 35.605469 26.78125 36.953125 C 25.449219 38.574219 25.113281 40.472656 25.097656 42.503906 C 25.097656 42.621094 25.097656 42.742188 25.09375 42.863281 C 25.089844 43.257812 25.089844 43.648438 25.085938 44.039062 C 25.082031 44.3125 25.082031 44.585938 25.078125 44.859375 C 25.070312 45.574219 25.066406 46.289062 25.058594 47.007812 C 25.050781 47.738281 25.046875 48.46875 25.039062 49.199219 C 25.023438 50.632812 25.011719 52.066406 25 53.5 C 24.683594 53.445312 24.367188 53.386719 24.050781 53.328125 C 23.960938 53.316406 23.871094 53.300781 23.78125 53.28125 C 21.839844 52.929688 20.265625 51.867188 18.875 50.5 C 18.757812 50.386719 18.757812 50.386719 18.636719 50.265625 C 17.308594 48.859375 16.511719 46.984375 16.242188 45.085938 C 16.222656 44.945312 16.203125 44.804688 16.179688 44.65625 C 16.117188 44.1875 16.058594 43.71875 16 43.25 C 15.972656 43.019531 15.972656 43.019531 15.941406 42.78125 C 15.28125 37.175781 15.339844 31.226562 16 25.625 C 16.027344 25.351562 16.058594 25.078125 16.085938 24.804688 C 16.386719 22.144531 17.230469 20.078125 19.125 18.125 C 19.195312 18.046875 19.261719 17.96875 19.332031 17.886719 C 22.191406 14.757812 27.695312 14.804688 31.574219 14.824219 Z M 20.050781 22.347656 C 19.835938 22.683594 19.8125 22.910156 19.789062 23.308594 C 19.78125 23.441406 19.773438 23.574219 19.765625 23.710938 C 19.742188 24.371094 19.730469 25.027344 19.734375 25.6875 C 19.734375 25.816406 19.734375 25.945312 19.734375 26.082031 C 19.640625 27.714844 19.640625 27.714844 20.132812 29.203125 C 20.945312 29.859375 21.75 29.769531 22.742188 29.699219 C 23.175781 29.617188 23.410156 29.527344 23.75 29.25 C 24.132812 28.539062 24.179688 27.945312 24.175781 27.144531 C 24.175781 26.96875 24.175781 26.96875 24.175781 26.792969 C 24.175781 26.550781 24.175781 26.304688 24.175781 26.0625 C 24.171875 25.6875 24.175781 25.316406 24.175781 24.945312 C 24.175781 24.707031 24.175781 24.46875 24.175781 24.230469 C 24.175781 24.121094 24.175781 24.011719 24.175781 23.894531 C 24.167969 23.210938 24.074219 22.730469 23.75 22.125 C 23.230469 21.65625 22.664062 21.695312 22 21.703125 C 21.902344 21.703125 21.800781 21.699219 21.699219 21.699219 C 20.996094 21.703125 20.542969 21.800781 20.050781 22.347656 Z M 40.25 22.125 C 39.867188 22.839844 39.820312 23.429688 39.824219 24.230469 C 39.824219 24.347656 39.824219 24.460938 39.824219 24.582031 C 39.824219 24.824219 39.824219 25.070312 39.824219 25.3125 C 39.828125 25.6875 39.824219 26.058594 39.824219 26.429688 C 39.824219 26.667969 39.824219 26.90625 39.824219 27.144531 C 39.824219 27.253906 39.824219 27.363281 39.824219 27.480469 C 39.832031 28.164062 39.921875 28.644531 40.25 29.25 C 40.984375 29.828125 41.867188 29.820312 42.765625 29.71875 C 43.296875 29.621094 43.6875 29.460938 44.011719 28.996094 C 44.265625 28.441406 44.242188 27.847656 44.25 27.25 C 44.253906 27.082031 44.253906 27.082031 44.253906 26.910156 C 44.457031 24.410156 44.457031 24.410156 43.75 22.125 C 43.207031 21.667969 42.675781 21.691406 42 21.703125 C 41.902344 21.703125 41.800781 21.699219 41.699219 21.699219 C 41.121094 21.703125 40.695312 21.722656 40.25 22.125 Z M 40.25 22.125 "/>
<path style=" stroke:none;fill-rule:nonzero;fill:rgb(100%,100%,100%);fill-opacity:1;" d="M 34.980469 37.527344 C 35.992188 38.363281 36.65625 39.320312 36.875 40.625 C 36.886719 40.894531 36.890625 41.164062 36.894531 41.429688 C 36.894531 41.59375 36.894531 41.757812 36.894531 41.925781 C 36.894531 42.105469 36.898438 42.285156 36.898438 42.464844 C 36.898438 42.652344 36.898438 42.84375 36.898438 43.035156 C 36.902344 43.65625 36.902344 44.28125 36.90625 44.902344 C 36.90625 45.117188 36.90625 45.332031 36.90625 45.546875 C 36.910156 46.558594 36.910156 47.570312 36.910156 48.578125 C 36.914062 49.742188 36.917969 50.90625 36.921875 52.070312 C 36.925781 52.972656 36.925781 53.875 36.925781 54.773438 C 36.925781 55.3125 36.929688 55.851562 36.933594 56.386719 C 36.933594 56.894531 36.933594 57.398438 36.933594 57.90625 C 36.933594 58.089844 36.933594 58.277344 36.9375 58.460938 C 36.949219 60.054688 36.6875 61.347656 35.59375 62.5625 C 34.273438 63.761719 33.195312 64.101562 31.421875 64.042969 C 30.210938 63.96875 29.234375 63.472656 28.375 62.625 C 27.257812 61.304688 27.050781 59.878906 27.0625 58.199219 C 27.0625 58.007812 27.0625 57.816406 27.058594 57.628906 C 27.058594 57.113281 27.058594 56.601562 27.0625 56.089844 C 27.0625 55.550781 27.0625 55.011719 27.0625 54.472656 C 27.0625 53.566406 27.0625 52.664062 27.066406 51.757812 C 27.070312 50.714844 27.070312 49.671875 27.070312 48.628906 C 27.066406 47.621094 27.066406 46.613281 27.070312 45.609375 C 27.070312 45.179688 27.070312 44.753906 27.070312 44.328125 C 27.070312 43.824219 27.070312 43.320312 27.074219 42.816406 C 27.074219 42.632812 27.074219 42.449219 27.074219 42.265625 C 27.070312 40.554688 27.3125 39.242188 28.507812 37.976562 C 30.285156 36.296875 32.972656 36.085938 34.980469 37.527344 Z M 34.980469 37.527344 "/>
<path style=" stroke:none;fill-rule:nonzero;fill:rgb(100%,100%,100%);fill-opacity:1;" d="M 35.828125 1.039062 C 36.480469 1.503906 37.085938 2.019531 37.578125 2.65625 C 38.027344 3.175781 38.566406 3.5 39.25 3.625 C 39.542969 3.636719 39.839844 3.644531 40.132812 3.648438 C 40.308594 3.648438 40.484375 3.652344 40.660156 3.65625 C 40.933594 3.660156 41.210938 3.664062 41.484375 3.664062 C 43.578125 3.679688 43.578125 3.679688 44.375 4.25 C 44.503906 4.417969 44.628906 4.589844 44.75 4.761719 C 45.125 5.203125 45.371094 5.324219 45.949219 5.367188 C 46.21875 5.371094 46.492188 5.367188 46.761719 5.363281 C 46.90625 5.363281 47.050781 5.363281 47.199219 5.363281 C 47.660156 5.363281 48.117188 5.359375 48.578125 5.351562 C 49.039062 5.347656 49.5 5.347656 49.957031 5.347656 C 50.246094 5.347656 50.53125 5.34375 50.816406 5.339844 C 50.945312 5.339844 51.074219 5.335938 51.210938 5.335938 C 51.378906 5.335938 51.378906 5.335938 51.554688 5.332031 C 51.949219 5.386719 52.179688 5.515625 52.5 5.75 C 52.851562 6.28125 52.832031 6.753906 52.75 7.375 C 52.527344 7.742188 52.382812 7.933594 52 8.125 C 51.785156 8.136719 51.566406 8.140625 51.351562 8.140625 C 51.21875 8.140625 51.082031 8.140625 50.941406 8.140625 C 50.722656 8.136719 50.722656 8.136719 50.5 8.136719 C 50.347656 8.136719 50.199219 8.136719 50.046875 8.136719 C 49.566406 8.136719 49.089844 8.132812 48.609375 8.132812 C 48.285156 8.132812 47.960938 8.132812 47.636719 8.132812 C 46.839844 8.128906 46.046875 8.128906 45.25 8.125 C 45.214844 8.222656 45.175781 8.324219 45.140625 8.425781 C 44.980469 8.792969 44.839844 8.917969 44.515625 9.148438 C 44.386719 9.238281 44.386719 9.238281 44.257812 9.332031 C 43.695312 9.695312 43.320312 9.78125 42.640625 9.792969 C 42.554688 9.792969 42.472656 9.796875 42.386719 9.796875 C 42.121094 9.804688 41.859375 9.808594 41.59375 9.8125 C 39.476562 9.816406 39.476562 9.816406 37.625 10.75 C 37.394531 10.992188 37.175781 11.246094 36.960938 11.503906 C 35.796875 12.863281 34.132812 13.476562 32.382812 13.664062 C 30.570312 13.742188 28.753906 13.152344 27.402344 11.9375 C 27.09375 11.632812 26.796875 11.320312 26.5 11 C 25.726562 10.199219 25.070312 9.898438 23.953125 9.859375 C 23.726562 9.863281 23.726562 9.863281 23.5 9.863281 C 23.328125 9.859375 23.160156 9.859375 22.992188 9.855469 C 22.730469 9.851562 22.46875 9.851562 22.207031 9.851562 C 21.054688 9.859375 20.167969 9.753906 19.25 9 C 18.75 8.476562 18.75 8.476562 18.75 8.125 C 18.667969 8.125 18.582031 8.128906 18.496094 8.128906 C 17.632812 8.140625 16.765625 8.148438 15.902344 8.152344 C 15.578125 8.15625 15.253906 8.160156 14.929688 8.164062 C 14.464844 8.167969 14.003906 8.171875 13.539062 8.171875 C 13.394531 8.175781 13.25 8.179688 13.101562 8.183594 C 12.097656 8.183594 12.097656 8.183594 11.597656 7.886719 C 11.199219 7.417969 11.203125 7.039062 11.207031 6.4375 C 11.25 6.125 11.25 6.125 11.546875 5.742188 C 11.996094 5.410156 12.199219 5.359375 12.746094 5.363281 C 12.941406 5.367188 12.941406 5.367188 13.140625 5.367188 C 13.28125 5.367188 13.421875 5.371094 13.566406 5.371094 C 13.863281 5.371094 14.164062 5.371094 14.460938 5.367188 C 14.929688 5.367188 15.398438 5.367188 15.867188 5.371094 C 16.320312 5.375 16.773438 5.375 17.222656 5.371094 C 17.433594 5.375 17.433594 5.375 17.648438 5.378906 C 18.390625 5.375 18.390625 5.375 19.023438 5.03125 C 19.253906 4.769531 19.253906 4.769531 19.4375 4.496094 C 19.78125 4.042969 20.210938 3.875 20.75 3.75 C 21.417969 3.6875 22.085938 3.679688 22.757812 3.679688 C 24.601562 3.734375 24.601562 3.734375 26.195312 2.914062 C 26.265625 2.847656 26.339844 2.785156 26.414062 2.71875 C 26.632812 2.492188 26.832031 2.253906 27.03125 2.007812 C 29.179688 -0.503906 33.175781 -0.652344 35.828125 1.039062 Z M 28.933594 4.617188 C 28.332031 5.507812 28.171875 6.339844 28.300781 7.398438 C 28.515625 8.40625 29.054688 9.253906 29.875 9.875 C 30.734375 10.410156 31.714844 10.617188 32.714844 10.441406 C 33.828125 10.136719 34.5625 9.542969 35.25 8.625 C 35.761719 7.722656 35.875 6.710938 35.601562 5.710938 C 35.226562 4.652344 34.550781 3.835938 33.539062 3.332031 C 31.769531 2.636719 30.125 3.101562 28.933594 4.617188 Z M 28.933594 4.617188 "/>
</g>
</svg>
