<?xml version="1.0" encoding="UTF-8"?>
<svg xmlns="http://www.w3.org/2000/svg" xmlns:xlink="http://www.w3.org/1999/xlink" width="650px" height="650px" viewBox="0 0 650 650" version="1.1">
<g id="surface1">
<path style=" stroke:none;fill-rule:nonzero;fill:rgb(3.137255%,1.568628%,1.568628%);fill-opacity:1;" d="M 487.339844 -0.121094 C 489.859375 -0.117188 492.375 -0.113281 494.894531 -0.109375 C 517.863281 -0.0820312 540.800781 -0.0117188 563.738281 0.679688 C 566.398438 0.757812 569.0625 0.835938 571.726562 0.910156 C 594.351562 1.550781 616.949219 2.300781 639.511719 3.441406 C 640.035156 3.464844 640.554688 3.492188 641.089844 3.519531 C 641.574219 3.546875 642.0625 3.570312 642.5625 3.597656 C 642.972656 3.617188 643.382812 3.640625 643.808594 3.660156 C 645.878906 3.792969 647.9375 3.964844 650 4.128906 C 650 38.433594 650 72.738281 650 108.082031 C 582.785156 108.199219 582.785156 108.199219 561.65625 108.230469 C 555.339844 108.242188 555.339844 108.242188 549.023438 108.257812 C 546.238281 108.265625 543.449219 108.269531 540.664062 108.269531 C 507.101562 108.292969 470.421875 108.84375 444.550781 122.414062 C 425.195312 133.65625 422.675781 149.746094 422.597656 164.523438 C 422.589844 165.339844 422.585938 166.15625 422.578125 166.972656 C 422.558594 169.144531 422.542969 171.320312 422.53125 173.492188 C 422.519531 175.535156 422.5 177.578125 422.484375 179.621094 C 422.4375 185.589844 422.398438 191.554688 422.355469 197.519531 C 422.257812 210.855469 422.160156 224.191406 422.058594 237.933594 C 494.601562 237.933594 567.144531 237.933594 641.882812 237.933594 C 641.457031 241.242188 640.980469 244.46875 640.160156 247.742188 C 640.054688 248.167969 639.949219 248.59375 639.84375 249.035156 C 639.496094 250.445312 639.144531 251.859375 638.792969 253.269531 C 638.539062 254.289062 638.289062 255.308594 638.039062 256.328125 C 637.5 258.515625 636.960938 260.703125 636.417969 262.890625 C 635.632812 266.058594 634.847656 269.230469 634.066406 272.398438 C 632.796875 277.546875 631.523438 282.699219 630.25 287.847656 C 629.015625 292.835938 627.78125 297.820312 626.550781 302.804688 C 626.476562 303.113281 626.398438 303.421875 626.320312 303.738281 C 625.863281 305.585938 625.410156 307.433594 624.953125 309.277344 C 624.285156 311.976562 623.621094 314.675781 622.953125 317.375 C 622.847656 317.8125 622.847656 317.8125 622.734375 318.253906 C 621.746094 322.265625 620.753906 326.273438 619.761719 330.28125 C 619.5625 331.097656 619.359375 331.917969 619.15625 332.734375 C 619.027344 333.265625 618.894531 333.792969 618.765625 334.324219 C 618.699219 334.582031 618.636719 334.839844 618.570312 335.105469 C 618.144531 336.820312 617.722656 338.539062 617.296875 340.253906 C 617.1875 340.703125 617.074219 341.148438 616.960938 341.613281 C 616.75 342.460938 616.539062 343.3125 616.328125 344.160156 C 615.898438 345.898438 615.472656 347.640625 615.074219 349.378906 C 614.980469 349.785156 614.980469 349.785156 614.886719 350.195312 C 614.730469 350.875 614.578125 351.554688 614.425781 352.234375 C 614.152344 353.148438 614.152344 353.148438 613.476562 353.523438 C 550.308594 353.523438 487.140625 353.523438 422.058594 353.523438 C 422.058594 451.359375 422.058594 549.199219 422.058594 650 C 345.949219 650 269.835938 650 191.414062 650 C 191.414062 552.164062 191.414062 454.324219 191.414062 353.523438 C 128.25 353.523438 65.082031 353.523438 0 353.523438 C 0 315.378906 0 277.234375 0 237.933594 C 63.167969 237.933594 126.335938 237.933594 191.414062 237.933594 C 191.363281 207.035156 191.363281 207.035156 191.292969 176.136719 C 191.289062 170.132812 191.289062 170.132812 191.285156 167.316406 C 191.285156 165.363281 191.28125 163.414062 191.273438 161.464844 C 191.261719 158.964844 191.261719 156.460938 191.261719 153.960938 C 191.261719 153.050781 191.257812 152.140625 191.253906 151.230469 C 191.207031 142.914062 191.953125 134.605469 193.953125 126.355469 C 194.066406 125.878906 194.179688 125.402344 194.296875 124.910156 C 198.398438 108.253906 206.375 92.019531 219.824219 76.933594 C 220.140625 76.574219 220.460938 76.214844 220.785156 75.84375 C 231 64.382812 244.167969 53.476562 260.703125 44.507812 C 261.90625 43.84375 261.90625 43.84375 263.40625 42.78125 C 265.125 41.664062 266.914062 40.761719 268.925781 39.816406 C 270.488281 39.0625 271.984375 38.277344 273.484375 37.488281 C 285.507812 31.179688 299.519531 25.957031 313.839844 21.390625 C 314.289062 21.246094 314.734375 21.101562 315.195312 20.949219 C 367.527344 4.003906 427.835938 -0.257812 487.339844 -0.121094 Z M 487.339844 -0.121094 "/>
</g>
</svg>
