<?xml version="1.0" encoding="UTF-8"?>
<svg xmlns="http://www.w3.org/2000/svg" xmlns:xlink="http://www.w3.org/1999/xlink" width="560px" height="560px" viewBox="0 0 560 560" version="1.1">
<g id="surface1">
<path style=" stroke:none;fill-rule:nonzero;fill:rgb(3.137255%,1.568628%,1.568628%);fill-opacity:1;" d="M 419.863281 -0.105469 C 422.03125 -0.101562 424.203125 -0.0976562 426.371094 -0.09375 C 446.15625 -0.0703125 465.917969 -0.0117188 485.679688 0.585938 C 487.976562 0.652344 490.269531 0.71875 492.566406 0.785156 C 512.058594 1.335938 531.527344 1.984375 550.964844 2.964844 C 551.414062 2.988281 551.863281 3.007812 552.324219 3.03125 C 552.742188 3.054688 553.160156 3.074219 553.589844 3.097656 C 553.945312 3.117188 554.300781 3.136719 554.664062 3.152344 C 556.449219 3.265625 558.222656 3.414062 560 3.554688 C 560 33.113281 560 62.667969 560 93.117188 C 502.089844 93.21875 502.089844 93.21875 483.886719 93.242188 C 478.445312 93.253906 478.445312 93.253906 473.003906 93.269531 C 470.605469 93.273438 468.203125 93.277344 465.800781 93.277344 C 436.886719 93.300781 405.285156 93.773438 382.996094 105.464844 C 366.324219 115.152344 364.148438 129.011719 364.085938 141.746094 C 364.078125 142.449219 364.074219 143.152344 364.066406 143.855469 C 364.050781 145.726562 364.039062 147.597656 364.027344 149.46875 C 364.015625 151.230469 364 152.992188 363.988281 154.75 C 363.945312 159.890625 363.910156 165.03125 363.875 170.171875 C 363.792969 181.660156 363.707031 193.148438 363.621094 204.988281 C 426.117188 204.988281 488.617188 204.988281 553.007812 204.988281 C 552.640625 207.839844 552.230469 210.621094 551.523438 213.4375 C 551.429688 213.804688 551.339844 214.175781 551.25 214.550781 C 550.949219 215.769531 550.648438 216.988281 550.34375 218.203125 C 550.128906 219.082031 549.910156 219.960938 549.695312 220.839844 C 549.230469 222.722656 548.765625 224.605469 548.296875 226.492188 C 547.621094 229.222656 546.945312 231.953125 546.273438 234.679688 C 545.179688 239.117188 544.082031 243.554688 542.984375 247.992188 C 541.921875 252.289062 540.859375 256.582031 539.796875 260.878906 C 539.730469 261.144531 539.667969 261.410156 539.601562 261.679688 C 539.207031 263.273438 538.8125 264.863281 538.421875 266.457031 C 537.847656 268.78125 537.273438 271.105469 536.699219 273.429688 C 536.605469 273.804688 536.605469 273.804688 536.511719 274.191406 C 535.65625 277.644531 534.804688 281.097656 533.949219 284.550781 C 533.777344 285.253906 533.601562 285.957031 533.429688 286.664062 C 533.316406 287.121094 533.203125 287.578125 533.089844 288.03125 C 533.035156 288.253906 532.980469 288.476562 532.921875 288.707031 C 532.558594 290.183594 532.191406 291.664062 531.824219 293.140625 C 531.730469 293.527344 531.632812 293.914062 531.535156 294.3125 C 531.355469 295.042969 531.171875 295.777344 530.992188 296.507812 C 530.621094 298.007812 530.253906 299.503906 529.910156 301.003906 C 529.828125 301.351562 529.828125 301.351562 529.746094 301.707031 C 529.613281 302.292969 529.480469 302.878906 529.351562 303.464844 C 529.117188 304.25 529.117188 304.25 528.53125 304.574219 C 474.113281 304.574219 419.691406 304.574219 363.621094 304.574219 C 363.621094 388.863281 363.621094 473.15625 363.621094 560 C 298.046875 560 232.472656 560 164.910156 560 C 164.910156 475.710938 164.910156 391.417969 164.910156 304.574219 C 110.492188 304.574219 56.070312 304.574219 0 304.574219 C 0 271.710938 0 238.847656 0 204.988281 C 54.421875 204.988281 108.839844 204.988281 164.910156 204.988281 C 164.867188 178.367188 164.867188 178.367188 164.804688 151.75 C 164.800781 146.578125 164.800781 146.578125 164.800781 144.148438 C 164.800781 142.46875 164.796875 140.789062 164.789062 139.109375 C 164.78125 136.953125 164.777344 134.796875 164.78125 132.644531 C 164.78125 131.859375 164.777344 131.078125 164.773438 130.292969 C 164.734375 123.125 165.375 115.96875 167.097656 108.859375 C 167.195312 108.449219 167.292969 108.039062 167.394531 107.613281 C 170.929688 93.265625 177.796875 79.277344 189.386719 66.28125 C 189.660156 65.972656 189.933594 65.664062 190.214844 65.34375 C 199.015625 55.46875 210.359375 46.070312 224.605469 38.34375 C 225.640625 37.773438 225.640625 37.773438 226.933594 36.859375 C 228.417969 35.898438 229.957031 35.121094 231.691406 34.304688 C 233.035156 33.652344 234.328125 32.980469 235.617188 32.296875 C 245.976562 26.859375 258.046875 22.363281 270.386719 18.429688 C 270.769531 18.304688 271.15625 18.179688 271.554688 18.050781 C 316.640625 3.449219 368.597656 -0.222656 419.863281 -0.105469 Z M 419.863281 -0.105469 "/>
</g>
</svg>
