<?xml version="1.0" encoding="UTF-8"?>
<svg xmlns="http://www.w3.org/2000/svg" xmlns:xlink="http://www.w3.org/1999/xlink" width="580px" height="580px" viewBox="0 0 580 580" version="1.1">
<g id="surface1">
<path style=" stroke:none;fill-rule:nonzero;fill:rgb(3.137255%,1.568628%,1.568628%);fill-opacity:1;" d="M 434.855469 -0.109375 C 437.105469 -0.105469 439.351562 -0.101562 441.597656 -0.0976562 C 462.089844 -0.0742188 482.558594 -0.0117188 503.027344 0.605469 C 505.402344 0.675781 507.78125 0.746094 510.15625 0.8125 C 530.34375 1.382812 550.507812 2.054688 570.644531 3.070312 C 571.105469 3.09375 571.570312 3.117188 572.050781 3.140625 C 572.484375 3.164062 572.917969 3.1875 573.363281 3.210938 C 573.730469 3.226562 574.097656 3.246094 574.472656 3.265625 C 576.320312 3.382812 578.160156 3.539062 580 3.683594 C 580 34.292969 580 64.90625 580 96.445312 C 520.023438 96.546875 520.023438 96.546875 501.167969 96.574219 C 495.535156 96.585938 495.535156 96.585938 489.898438 96.597656 C 487.410156 96.605469 484.925781 96.609375 482.4375 96.609375 C 452.488281 96.632812 419.761719 97.121094 396.675781 109.230469 C 379.40625 119.265625 377.15625 133.621094 377.085938 146.808594 C 377.082031 147.535156 377.074219 148.261719 377.070312 148.992188 C 377.054688 150.929688 377.039062 152.867188 377.027344 154.808594 C 377.015625 156.632812 377 158.457031 376.984375 160.277344 C 376.945312 165.601562 376.910156 170.925781 376.871094 176.246094 C 376.785156 188.148438 376.699219 200.046875 376.609375 212.308594 C 441.335938 212.308594 506.066406 212.308594 572.757812 212.308594 C 572.378906 215.261719 571.953125 218.140625 571.21875 221.0625 C 571.125 221.441406 571.03125 221.824219 570.9375 222.214844 C 570.625 223.476562 570.3125 224.734375 570 225.996094 C 569.773438 226.90625 569.550781 227.816406 569.328125 228.726562 C 568.847656 230.675781 568.363281 232.628906 567.878906 234.582031 C 567.179688 237.40625 566.480469 240.234375 565.78125 243.0625 C 564.648438 247.660156 563.511719 252.253906 562.375 256.851562 C 561.273438 261.296875 560.175781 265.746094 559.074219 270.195312 C 559.007812 270.46875 558.941406 270.746094 558.871094 271.027344 C 558.464844 272.675781 558.058594 274.324219 557.648438 275.972656 C 557.054688 278.378906 556.460938 280.789062 555.867188 283.195312 C 555.769531 283.585938 555.769531 283.585938 555.671875 283.980469 C 554.789062 287.558594 553.90625 291.136719 553.019531 294.710938 C 552.839844 295.441406 552.660156 296.171875 552.480469 296.902344 C 552.363281 297.375 552.246094 297.847656 552.128906 298.320312 C 552.070312 298.550781 552.015625 298.78125 551.957031 299.015625 C 551.578125 300.546875 551.199219 302.078125 550.820312 303.613281 C 550.71875 304.011719 550.621094 304.410156 550.519531 304.824219 C 550.332031 305.582031 550.144531 306.339844 549.957031 307.097656 C 549.570312 308.648438 549.191406 310.199219 548.835938 311.753906 C 548.75 312.113281 548.75 312.113281 548.667969 312.484375 C 548.527344 313.089844 548.390625 313.695312 548.257812 314.300781 C 548.011719 315.117188 548.011719 315.117188 547.410156 315.449219 C 491.042969 315.449219 434.679688 315.449219 376.609375 315.449219 C 376.609375 402.75 376.609375 490.054688 376.609375 580 C 308.691406 580 240.777344 580 170.800781 580 C 170.800781 492.699219 170.800781 405.398438 170.800781 315.449219 C 114.4375 315.449219 58.074219 315.449219 0 315.449219 C 0 281.414062 0 247.378906 0 212.308594 C 56.363281 212.308594 112.730469 212.308594 170.800781 212.308594 C 170.753906 184.738281 170.753906 184.738281 170.691406 157.167969 C 170.6875 151.8125 170.6875 151.8125 170.6875 149.296875 C 170.683594 147.554688 170.679688 145.816406 170.671875 144.074219 C 170.664062 141.84375 170.664062 139.613281 170.664062 137.382812 C 170.664062 136.570312 170.660156 135.757812 170.65625 134.945312 C 170.617188 127.523438 171.28125 120.109375 173.066406 112.746094 C 173.167969 112.320312 173.269531 111.894531 173.375 111.457031 C 177.03125 96.597656 184.148438 82.109375 196.148438 68.648438 C 196.433594 68.328125 196.71875 68.007812 197.011719 67.675781 C 206.125 57.449219 217.871094 47.714844 232.628906 39.714844 C 233.699219 39.121094 233.699219 39.121094 235.039062 38.175781 C 236.574219 37.179688 238.171875 36.375 239.964844 35.527344 C 241.355469 34.855469 242.695312 34.15625 244.03125 33.449219 C 254.761719 27.820312 267.261719 23.160156 280.042969 19.085938 C 280.441406 18.957031 280.839844 18.828125 281.253906 18.695312 C 327.949219 3.574219 381.761719 -0.230469 434.855469 -0.109375 Z M 434.855469 -0.109375 "/>
</g>
</svg>
