<?xml version="1.0" encoding="UTF-8"?>
<svg xmlns="http://www.w3.org/2000/svg" xmlns:xlink="http://www.w3.org/1999/xlink" width="600px" height="600px" viewBox="0 0 600 600" version="1.1">
<g id="surface1">
<path style=" stroke:none;fill-rule:nonzero;fill:rgb(3.137255%,1.568628%,1.568628%);fill-opacity:1;" d="M 449.851562 -0.113281 C 452.175781 -0.109375 454.5 -0.105469 456.828125 -0.101562 C 478.027344 -0.078125 499.199219 -0.0117188 520.371094 0.628906 C 522.832031 0.699219 525.289062 0.769531 527.75 0.839844 C 548.632812 1.429688 569.492188 2.125 590.320312 3.175781 C 590.800781 3.199219 591.28125 3.222656 591.777344 3.25 C 592.222656 3.273438 592.671875 3.296875 593.132812 3.320312 C 593.511719 3.339844 593.894531 3.359375 594.285156 3.378906 C 596.195312 3.5 598.097656 3.660156 600 3.8125 C 600 35.476562 600 67.144531 600 99.769531 C 537.957031 99.878906 537.957031 99.878906 518.449219 99.902344 C 512.621094 99.917969 512.621094 99.917969 506.792969 99.929688 C 504.21875 99.9375 501.644531 99.941406 499.074219 99.941406 C 468.09375 99.964844 434.234375 100.472656 410.355469 112.996094 C 392.488281 123.375 390.160156 138.226562 390.089844 151.871094 C 390.085938 152.621094 390.078125 153.375 390.070312 154.128906 C 390.054688 156.132812 390.042969 158.140625 390.027344 160.144531 C 390.015625 162.03125 390 163.917969 389.984375 165.804688 C 389.941406 171.3125 389.90625 176.820312 389.867188 182.324219 C 389.777344 194.636719 389.6875 206.945312 389.59375 219.628906 C 456.554688 219.628906 523.515625 219.628906 592.507812 219.628906 C 592.113281 222.683594 591.675781 225.664062 590.917969 228.683594 C 590.820312 229.078125 590.722656 229.472656 590.625 229.878906 C 590.304688 231.183594 589.980469 232.484375 589.65625 233.789062 C 589.421875 234.730469 589.191406 235.671875 588.960938 236.613281 C 588.460938 238.632812 587.960938 240.652344 587.460938 242.667969 C 586.738281 245.59375 586.015625 248.519531 585.292969 251.445312 C 584.121094 256.199219 582.945312 260.953125 581.769531 265.707031 C 580.628906 270.308594 579.492188 274.910156 578.355469 279.515625 C 578.285156 279.796875 578.214844 280.082031 578.140625 280.371094 C 577.722656 282.078125 577.300781 283.78125 576.878906 285.488281 C 576.265625 287.980469 575.648438 290.46875 575.035156 292.960938 C 574.933594 293.363281 574.933594 293.363281 574.832031 293.773438 C 573.917969 297.476562 573.003906 301.175781 572.089844 304.875 C 571.902344 305.628906 571.714844 306.382812 571.53125 307.140625 C 571.410156 307.628906 571.289062 308.117188 571.167969 308.605469 C 571.109375 308.84375 571.050781 309.082031 570.988281 309.328125 C 570.597656 310.910156 570.203125 312.496094 569.8125 314.082031 C 569.710938 314.496094 569.609375 314.90625 569.503906 315.335938 C 569.308594 316.117188 569.113281 316.902344 568.917969 317.6875 C 568.523438 319.292969 568.128906 320.898438 567.761719 322.503906 C 567.675781 322.878906 567.675781 322.878906 567.585938 323.257812 C 567.441406 323.886719 567.300781 324.511719 567.164062 325.140625 C 566.910156 325.980469 566.910156 325.980469 566.285156 326.328125 C 507.976562 326.328125 449.667969 326.328125 389.59375 326.328125 C 389.59375 416.640625 389.59375 506.953125 389.59375 600 C 319.335938 600 249.078125 600 176.691406 600 C 176.691406 509.6875 176.691406 419.375 176.691406 326.328125 C 118.382812 326.328125 60.074219 326.328125 0 326.328125 C 0 291.117188 0 255.90625 0 219.628906 C 58.308594 219.628906 116.617188 219.628906 176.691406 219.628906 C 176.640625 191.109375 176.640625 191.109375 176.578125 162.589844 C 176.574219 157.046875 176.574219 157.046875 176.570312 154.445312 C 176.570312 152.644531 176.566406 150.84375 176.558594 149.042969 C 176.550781 146.734375 176.546875 144.425781 176.550781 142.117188 C 176.550781 141.277344 176.546875 140.4375 176.542969 139.597656 C 176.5 131.921875 177.1875 124.25 179.03125 116.636719 C 179.136719 116.195312 179.242188 115.753906 179.351562 115.300781 C 183.136719 99.925781 190.5 84.941406 202.914062 71.015625 C 203.207031 70.683594 203.5 70.351562 203.804688 70.011719 C 213.230469 59.429688 225.386719 49.363281 240.648438 41.082031 C 241.757812 40.472656 241.757812 40.472656 243.144531 39.492188 C 244.734375 38.460938 246.382812 37.628906 248.238281 36.753906 C 249.679688 36.058594 251.0625 35.335938 252.449219 34.605469 C 263.546875 28.78125 276.480469 23.960938 289.699219 19.746094 C 290.113281 19.613281 290.523438 19.476562 290.953125 19.339844 C 339.257812 3.699219 394.925781 -0.238281 449.851562 -0.113281 Z M 449.851562 -0.113281 "/>
</g>
</svg>
