<?xml version="1.0" encoding="UTF-8"?>
<svg xmlns="http://www.w3.org/2000/svg" xmlns:xlink="http://www.w3.org/1999/xlink" width="560px" height="560px" viewBox="0 0 560 560" version="1.1">
<g id="surface1">
<path style=" stroke:none;fill-rule:nonzero;fill:rgb(0%,0%,0%);fill-opacity:1;" d="M 390.25 147 C 376.25 147 365.75 157.5 365.75 171.5 C 365.75 185.5 376.25 196 390.25 196 C 404.25 196 414.75 185.5 414.75 171.5 C 414.75 157.5 404.25 147 390.25 147 Z M 390.25 147 "/>
<path style=" stroke:none;fill-rule:nonzero;fill:rgb(0%,0%,0%);fill-opacity:1;" d="M 280 178.5 C 222.25 178.5 176.75 225.75 176.75 281.75 C 176.75 337.75 224 385 280 385 C 336 385 383.25 337.75 383.25 281.75 C 383.25 225.75 337.75 178.5 280 178.5 Z M 280 348.25 C 243.25 348.25 213.5 318.5 213.5 281.75 C 213.5 245 243.25 215.25 280 215.25 C 316.75 215.25 346.5 245 346.5 281.75 C 346.5 318.5 316.75 348.25 280 348.25 Z M 280 348.25 "/>
<path style=" stroke:none;fill-rule:nonzero;fill:rgb(0%,0%,0%);fill-opacity:1;" d="M 364 70 L 197.75 70 C 126 70 70 126 70 196 L 70 362.25 C 70 432.25 126 488.25 196 488.25 L 362.25 488.25 C 432.25 488.25 488.25 432.25 488.25 362.25 L 488.25 196 C 490 126 434 70 364 70 Z M 449.75 364 C 449.75 411.25 411.25 451.5 362.25 451.5 L 196 451.5 C 148.75 451.5 108.5 413 108.5 364 L 108.5 197.75 C 108.5 150.5 147 110.25 196 110.25 L 362.25 110.25 C 409.5 110.25 449.75 148.75 449.75 197.75 Z M 449.75 364 "/>
</g>
</svg>
