<?xml version="1.0" encoding="UTF-8"?>
<svg xmlns="http://www.w3.org/2000/svg" xmlns:xlink="http://www.w3.org/1999/xlink" width="29px" height="29px" viewBox="0 0 29 29" version="1.1">
<g id="surface1">
<path style=" stroke:none;fill-rule:nonzero;fill:rgb(10.196079%,10.196079%,10.196079%);fill-opacity:1;" d="M 9.777344 3.171875 C 6.136719 3.171875 3.171875 6.136719 3.171875 9.78125 L 3.171875 19.21875 C 3.171875 22.863281 6.136719 25.828125 9.78125 25.828125 L 19.21875 25.828125 C 22.863281 25.828125 25.828125 22.863281 25.828125 19.21875 L 25.828125 9.777344 C 25.828125 6.136719 22.863281 3.171875 19.21875 3.171875 Z M 21.296875 6.796875 C 21.796875 6.796875 22.203125 7.203125 22.203125 7.703125 C 22.203125 8.203125 21.796875 8.609375 21.296875 8.609375 C 20.796875 8.609375 20.390625 8.203125 20.390625 7.703125 C 20.390625 7.203125 20.796875 6.796875 21.296875 6.796875 Z M 14.5 8.609375 C 17.75 8.609375 20.390625 11.25 20.390625 14.5 C 20.390625 17.75 17.75 20.390625 14.5 20.390625 C 11.25 20.390625 8.609375 17.75 8.609375 14.5 C 8.609375 11.25 11.25 8.609375 14.5 8.609375 Z M 14.5 10.421875 C 12.246094 10.421875 10.421875 12.246094 10.421875 14.5 C 10.421875 16.753906 12.246094 18.578125 14.5 18.578125 C 16.753906 18.578125 18.578125 16.753906 18.578125 14.5 C 18.578125 12.246094 16.753906 10.421875 14.5 10.421875 Z M 14.5 10.421875 "/>
</g>
</svg>
