<?xml version="1.0" encoding="UTF-8"?>
<svg version="1.1" xmlns="http://www.w3.org/2000/svg" width="736" height="736">
<path d="M0 0 C23.43 0 46.86 0 71 0 C72.25433458 3.76300374 72.10695422 7.27210909 72.0625 11.1875 C72.05798828 11.93708984 72.05347656 12.68667969 72.04882812 13.45898438 C72.03706354 15.30602383 72.01912865 17.15302213 72 19 C72.66 19.33 73.32 19.66 74 20 C77.27680453 18.32673811 80.29533353 16.49362423 83.30859375 14.3828125 C100.20513417 2.80983961 122.55873284 -2.41873916 142.72314453 1.02929688 C160.83435484 4.48862058 176.89761284 13.1293056 187.5703125 28.6015625 C202.69413433 53.97321988 203.28590093 79.84308061 203.625 108.6875 C203.65233343 110.70845188 203.68079921 112.72938602 203.70925713 114.75032234 C203.95360197 132.2493232 204.09724828 149.74929526 204.125 167.25 C204.12767883 168.19507416 204.13035767 169.14014832 204.13311768 170.11386108 C204.13898799 172.81032112 204.13726586 175.50666423 204.1328125 178.203125 C204.13478638 178.94977921 204.13676025 179.69643341 204.13879395 180.4657135 C204.10457087 188.68675176 203.48527088 196.75039502 203 205 C179.24 205 155.48 205 131 205 C129.78691676 202.57383351 129.88204998 201.05778563 129.89320374 198.3470459 C129.89547722 196.87529404 129.89547722 196.87529404 129.89779663 195.37380981 C129.904534 194.29332367 129.91127136 193.21283752 129.91821289 192.09960938 C129.92127945 190.96445892 129.92434601 189.82930847 129.92750549 188.65975952 C129.93467532 186.18685713 129.94407289 183.71396045 129.95540047 181.24107361 C129.97274729 177.32318749 129.98307723 173.40534196 129.99131775 169.48742676 C130.01546301 158.34476881 130.05116326 147.20216384 130.09594727 136.05957031 C130.12323415 129.24917594 130.13979881 122.43881167 130.15081596 115.62837219 C130.15701087 113.03533246 130.16699746 110.44229883 130.18089485 107.84928894 C130.2002067 104.21133422 130.20702107 100.57354612 130.21118164 96.93554688 C130.21994324 95.87125458 130.22870483 94.80696228 130.23773193 93.7104187 C130.22953295 87.40024382 130.02397554 81.03756545 128 75 C127.34 74.67 126.68 74.34 126 74 C125.5875 73.2575 125.175 72.515 124.75 71.75 C120.03849235 64.34620226 112.44428037 61.09285583 104.1875 59.0625 C96.14403617 58.42030728 87.8995108 61.03619197 81.75 66.19921875 C73.09498816 75.10538049 71.69453546 83.84825043 71.77294922 95.81030273 C71.77265717 96.98175339 71.77236511 98.15320404 71.77206421 99.3601532 C71.77345346 103.21804302 71.78899591 107.07573782 71.8046875 110.93359375 C71.80841907 113.61402208 71.81136379 116.29443973 71.81326294 118.97486877 C71.81946555 125.2999608 71.83585976 131.62498323 71.85596192 137.95004469 C71.87835899 145.15441321 71.8893239 152.35878515 71.89935279 159.56317985 C71.92022714 174.37548873 71.95537929 189.18774315 72 204 C69.13535504 205.43232248 66.67260999 205.14314338 63.47070312 205.16113281 C62.80062729 205.16609772 62.13055145 205.17106262 61.44017029 205.17617798 C59.22051982 205.19080024 57.00094074 205.19760058 54.78125 205.203125 C53.24190264 205.20887506 51.70255531 205.21463281 50.16320801 205.22039795 C46.93513657 205.23090719 43.70709005 205.2367508 40.47900391 205.24023438 C36.33588828 205.24572828 32.19309978 205.26977538 28.05008698 205.29820633 C24.87086003 205.31679525 21.69171262 205.32203622 18.51243591 205.32357025 C16.98455511 205.32660428 15.45667595 205.33465796 13.92884827 205.34775543 C11.79540795 205.36474349 9.66277671 205.36295447 7.52929688 205.35644531 C6.31399292 205.36009094 5.09868896 205.36373657 3.84655762 205.36749268 C2.9071936 205.24622009 1.96782959 205.12494751 1 205 C-1.47748174 201.28377739 -1.27637375 198.44830857 -1.24723816 194.14930725 C-1.25085978 192.93688068 -1.25085978 192.93688068 -1.25455457 191.69996065 C-1.26020568 188.98226547 -1.25151778 186.26480388 -1.24291992 183.54711914 C-1.24399246 181.60245195 -1.24593073 179.65778506 -1.24867249 177.71311951 C-1.25352876 172.42390964 -1.2458551 167.13478386 -1.23571944 161.84558415 C-1.22695015 156.31677038 -1.22869618 150.78795933 -1.2290802 145.25914001 C-1.22814295 135.9723062 -1.21945128 126.68550502 -1.20581055 117.39868164 C-1.19008902 106.65540211 -1.18481226 95.91215833 -1.1855461 85.16886812 C-1.18615616 74.84415061 -1.18105243 64.51944477 -1.17275429 54.19473076 C-1.16922005 49.79649197 -1.16739083 45.39825731 -1.16686058 41.00001717 C-1.16585709 35.8216769 -1.15975991 30.64336673 -1.14969444 25.46503639 C-1.14676994 23.56228571 -1.14554398 21.65953156 -1.14612198 19.75677872 C-1.14661165 17.16371245 -1.14096689 14.57073088 -1.13371277 11.97767639 C-1.13526137 11.22096635 -1.13680997 10.46425632 -1.1384055 9.68461567 C-1.12230531 6.21023922 -0.85052486 3.40209942 0 0 Z " fill="#020202" transform="translate(319,307)"/>
<path d="M0 0 C1.26897629 0.00141495 2.53795258 0.0028299 3.84538269 0.00428772 C7.17102088 0.00889118 10.49658631 0.01782819 13.82220459 0.0289917 C17.23497906 0.03933872 20.64776114 0.0438134 24.06054688 0.04882812 C30.72137372 0.05977958 37.38216705 0.07645835 44.04296875 0.09765625 C45.27882925 3.80523774 45.17776375 7.22874425 45.16322327 11.0891571 C45.16407769 11.9125144 45.16493212 12.7358717 45.16581243 13.58417922 C45.16746407 16.35260947 45.161951 19.12097959 45.15649414 21.8894043 C45.15621217 23.87011717 45.15637019 25.85083015 45.15693665 27.83154297 C45.15722425 33.21756629 45.15133341 38.60356747 45.14436269 43.98958564 C45.13812308 49.61502963 45.13752487 55.2404741 45.13633728 60.86592102 C45.13322576 71.52249058 45.12501478 82.17904992 45.11498779 92.83561498 C45.1038211 104.96604489 45.0983148 117.09647528 45.09329236 129.22690904 C45.08283203 154.18383045 45.06523604 179.14074278 45.04296875 204.09765625 C42.14381964 205.54723081 39.62868575 205.21698549 36.39013672 205.21118164 C35.36557373 205.21140068 35.36557373 205.21140068 34.3203125 205.21162415 C32.05856165 205.21092648 29.79689275 205.2031409 27.53515625 205.1953125 C25.96859787 205.1934478 24.40203891 205.19202414 22.83547974 205.19102478 C18.70906977 205.18720368 14.58269491 205.17737685 10.45629883 205.1663208 C6.24691238 205.15609795 2.03752028 205.15152528 -2.171875 205.14648438 C-10.43360987 205.13575423 -18.6953162 205.11868267 -26.95703125 205.09765625 C-27.08893692 184.64904691 -27.21937923 164.2004287 -27.34818268 143.75179958 C-27.40805054 134.25241604 -27.46835814 124.75303571 -27.52978516 115.25366211 C-27.58346219 106.95259596 -27.63622856 98.65152455 -27.68799829 90.35044628 C-27.71531765 85.97458252 -27.74302669 81.5987222 -27.77183533 77.22286797 C-27.8409452 66.69043106 -27.9012309 56.15799836 -27.94612503 45.62542868 C-27.95362173 43.88789282 -27.96143924 42.15035833 -27.96952438 40.41282511 C-27.99485668 34.92874539 -28.01452176 29.4446954 -28.02641964 23.9605695 C-28.03090836 22.22139438 -28.03709084 20.48222272 -28.0450449 18.74305999 C-28.05560465 16.34273305 -28.05981764 13.94247647 -28.06237793 11.54212952 C-28.06684276 10.82926021 -28.07130758 10.11639091 -28.07590771 9.3819195 C-28.07302419 6.3346942 -27.92922314 4.01423192 -26.95703125 1.09765625 C-17.95085987 0.27355107 -9.04116148 -0.03883547 0 0 Z " fill="#010101" transform="translate(241.95703125,306.90234375)"/>
<path d="M0 0 C6.43824261 5.72632155 11.93857787 11.36839259 12.8828125 20.26953125 C13.22309859 30.01305633 11.06062516 37.46599763 4.37890625 44.68359375 C-3.91680312 51.83752807 -15.16188575 53.78412372 -25.8359375 53.49609375 C-37.14726937 52.4261029 -45.64374245 48.56985123 -53.375 40.25 C-57.73018104 34.93929425 -59.3501331 29.11454244 -59.4375 22.25 C-58.77514583 17.36002723 -57.47075151 12.75219978 -55.4375 8.25 C-54.7775 8.25 -54.1175 8.25 -53.4375 8.25 C-53.4375 7.26 -53.4375 6.27 -53.4375 5.25 C-48.84075702 -0.73827402 -39.0162592 -4.22821009 -31.76953125 -5.5078125 C-20.89634433 -6.63702119 -8.94069349 -6.94062724 0 0 Z " fill="#0D0D0D" transform="translate(273.4375,229.75)"/>
<path d="M0 0 C23.43 0 46.86 0 71 0 C72.25433458 3.76300374 72.10695422 7.27210909 72.0625 11.1875 C72.05798828 11.93708984 72.05347656 12.68667969 72.04882812 13.45898438 C72.03706354 15.30602383 72.01912865 17.15302213 72 19 C73.65 19.33 75.3 19.66 77 20 C73.375 24.875 73.375 24.875 70 26 C70 18.08 70 10.16 70 2 C47.23 2 24.46 2 1 2 C1 68.33 1 134.66 1 203 C23.77 203 46.54 203 70 203 C69.93039062 194.33234375 69.86078125 185.6646875 69.7890625 176.734375 C69.75448585 170.528468 69.72373226 164.32263382 69.69847679 158.11669159 C69.66529411 150.08734208 69.62324088 142.05836866 69.54736328 134.02929688 C69.48729359 127.66988921 69.44878805 121.31076599 69.43546903 114.95108247 C69.42769081 111.58774421 69.40638387 108.22585961 69.36561966 104.86266327 C69.32178858 101.09513482 69.31607751 97.32926758 69.31884766 93.56152344 C69.297276 92.46387665 69.27570435 91.36622986 69.253479 90.23532104 C69.31898257 81.95187971 71.81424162 76.09254174 76 69 C76.66 69.33 77.32 69.66 78 70 C77.65066406 70.59167969 77.30132812 71.18335938 76.94140625 71.79296875 C76.48636719 72.58316406 76.03132813 73.37335938 75.5625 74.1875 C75.11003906 74.96480469 74.65757812 75.74210937 74.19140625 76.54296875 C72.19438295 80.66142008 71.87499979 84.62479505 71.87974548 89.15693665 C71.87837082 90.17350845 71.87699615 91.19008026 71.87557983 92.23745728 C71.87917511 93.34156952 71.88277039 94.44568176 71.88647461 95.58325195 C71.88632858 96.75441055 71.88618256 97.92556915 71.8860321 99.13221741 C71.88672843 103.00092424 71.89450778 106.86958284 71.90234375 110.73828125 C71.90420892 113.42156557 71.90568156 116.10484722 71.90663147 118.78813171 C71.9097367 125.12743165 71.91793918 131.46671429 71.92798096 137.80600661 C71.93916721 145.02484617 71.94465888 152.24368657 71.94967639 159.46253264 C71.96012247 174.30836444 71.97770625 189.15418108 72 204 C69.13535504 205.43232248 66.67260999 205.14314338 63.47070312 205.16113281 C62.80062729 205.16609772 62.13055145 205.17106262 61.44017029 205.17617798 C59.22051982 205.19080024 57.00094074 205.19760058 54.78125 205.203125 C53.24190264 205.20887506 51.70255531 205.21463281 50.16320801 205.22039795 C46.93513657 205.23090719 43.70709005 205.2367508 40.47900391 205.24023438 C36.33588828 205.24572828 32.19309978 205.26977538 28.05008698 205.29820633 C24.87086003 205.31679525 21.69171262 205.32203622 18.51243591 205.32357025 C16.98455511 205.32660428 15.45667595 205.33465796 13.92884827 205.34775543 C11.79540795 205.36474349 9.66277671 205.36295447 7.52929688 205.35644531 C6.31399292 205.36009094 5.09868896 205.36373657 3.84655762 205.36749268 C2.9071936 205.24622009 1.96782959 205.12494751 1 205 C-1.47748174 201.28377739 -1.27637375 198.44830857 -1.24723816 194.14930725 C-1.25085978 192.93688068 -1.25085978 192.93688068 -1.25455457 191.69996065 C-1.26020568 188.98226547 -1.25151778 186.26480388 -1.24291992 183.54711914 C-1.24399246 181.60245195 -1.24593073 179.65778506 -1.24867249 177.71311951 C-1.25352876 172.42390964 -1.2458551 167.13478386 -1.23571944 161.84558415 C-1.22695015 156.31677038 -1.22869618 150.78795933 -1.2290802 145.25914001 C-1.22814295 135.9723062 -1.21945128 126.68550502 -1.20581055 117.39868164 C-1.19008902 106.65540211 -1.18481226 95.91215833 -1.1855461 85.16886812 C-1.18615616 74.84415061 -1.18105243 64.51944477 -1.17275429 54.19473076 C-1.16922005 49.79649197 -1.16739083 45.39825731 -1.16686058 41.00001717 C-1.16585709 35.8216769 -1.15975991 30.64336673 -1.14969444 25.46503639 C-1.14676994 23.56228571 -1.14554398 21.65953156 -1.14612198 19.75677872 C-1.14661165 17.16371245 -1.14096689 14.57073088 -1.13371277 11.97767639 C-1.13526137 11.22096635 -1.13680997 10.46425632 -1.1384055 9.68461567 C-1.12230531 6.21023922 -0.85052486 3.40209942 0 0 Z " fill="#B1B1B1" transform="translate(319,307)"/>
<path d="M0 0 C1.26897629 0.00141495 2.53795258 0.0028299 3.84538269 0.00428772 C7.17102088 0.00889118 10.49658631 0.01782819 13.82220459 0.0289917 C17.23497906 0.03933872 20.64776114 0.0438134 24.06054688 0.04882812 C30.72137372 0.05977958 37.38216705 0.07645835 44.04296875 0.09765625 C45.27882925 3.80523774 45.17776375 7.22874425 45.16322327 11.0891571 C45.16407769 11.9125144 45.16493212 12.7358717 45.16581243 13.58417922 C45.16746407 16.35260947 45.161951 19.12097959 45.15649414 21.8894043 C45.15621217 23.87011717 45.15637019 25.85083015 45.15693665 27.83154297 C45.15722425 33.21756629 45.15133341 38.60356747 45.14436269 43.98958564 C45.13812308 49.61502963 45.13752487 55.2404741 45.13633728 60.86592102 C45.13322576 71.52249058 45.12501478 82.17904992 45.11498779 92.83561498 C45.1038211 104.96604489 45.0983148 117.09647528 45.09329236 129.22690904 C45.08283203 154.18383045 45.06523604 179.14074278 45.04296875 204.09765625 C42.14381964 205.54723081 39.62868575 205.21698549 36.39013672 205.21118164 C35.36557373 205.21140068 35.36557373 205.21140068 34.3203125 205.21162415 C32.05856165 205.21092648 29.79689275 205.2031409 27.53515625 205.1953125 C25.96859787 205.1934478 24.40203891 205.19202414 22.83547974 205.19102478 C18.70906977 205.18720368 14.58269491 205.17737685 10.45629883 205.1663208 C6.24691238 205.15609795 2.03752028 205.15152528 -2.171875 205.14648438 C-10.43360987 205.13575423 -18.6953162 205.11868267 -26.95703125 205.09765625 C-27.08893692 184.64904691 -27.21937923 164.2004287 -27.34818268 143.75179958 C-27.40805054 134.25241604 -27.46835814 124.75303571 -27.52978516 115.25366211 C-27.58346219 106.95259596 -27.63622856 98.65152455 -27.68799829 90.35044628 C-27.71531765 85.97458252 -27.74302669 81.5987222 -27.77183533 77.22286797 C-27.8409452 66.69043106 -27.9012309 56.15799836 -27.94612503 45.62542868 C-27.95362173 43.88789282 -27.96143924 42.15035833 -27.96952438 40.41282511 C-27.99485668 34.92874539 -28.01452176 29.4446954 -28.02641964 23.9605695 C-28.03090836 22.22139438 -28.03709084 20.48222272 -28.0450449 18.74305999 C-28.05560465 16.34273305 -28.05981764 13.94247647 -28.06237793 11.54212952 C-28.06684276 10.82926021 -28.07130758 10.11639091 -28.07590771 9.3819195 C-28.07302419 6.3346942 -27.92922314 4.01423192 -26.95703125 1.09765625 C-17.95085987 0.27355107 -9.04116148 -0.03883547 0 0 Z M-25.95703125 2.09765625 C-25.95703125 68.42765625 -25.95703125 134.75765625 -25.95703125 203.09765625 C-3.18703125 203.09765625 19.58296875 203.09765625 43.04296875 203.09765625 C43.04296875 136.76765625 43.04296875 70.43765625 43.04296875 2.09765625 C20.27296875 2.09765625 -2.49703125 2.09765625 -25.95703125 2.09765625 Z " fill="#9E9E9E" transform="translate(241.95703125,306.90234375)"/>
<path d="M0 0 C2.42930507 3.6439576 3.14682598 7.22818484 4.0625 11.4375 C4.23587891 12.18193359 4.40925781 12.92636719 4.58789062 13.69335938 C6.93099648 24.27773408 7.15559771 35.0617993 7.31640625 45.86328125 C7.33727798 47.07374619 7.35814972 48.28421112 7.37965393 49.53135681 C7.43418602 52.7857186 7.48480288 56.04010453 7.53263092 59.29457092 C7.56268529 61.32501787 7.59402589 63.35544153 7.62567139 65.38586426 C7.9086117 83.6733236 8.10216529 101.96015127 8.125 120.25 C8.1275882 121.19453033 8.13017639 122.13906067 8.13284302 123.11221313 C8.13874379 125.80922144 8.13712222 128.50611562 8.1328125 131.203125 C8.13479141 131.94980942 8.13677032 132.69649384 8.1388092 133.46580505 C8.10452929 141.68681796 7.48527006 149.75040894 7 158 C-16.76 158 -40.52 158 -65 158 C-66.21308324 155.57383351 -66.11795002 154.05778563 -66.10679626 151.3470459 C-66.10452278 149.87529404 -66.10452278 149.87529404 -66.10220337 148.37380981 C-66.095466 147.29332367 -66.08872864 146.21283752 -66.08178711 145.09960938 C-66.07872055 143.96445892 -66.07565399 142.82930847 -66.07249451 141.65975952 C-66.06532468 139.18685713 -66.05592711 136.71396045 -66.04459953 134.24107361 C-66.02725271 130.32318749 -66.01692277 126.40534196 -66.00868225 122.48742676 C-65.98453699 111.34476881 -65.94883674 100.20216384 -65.90405273 89.05957031 C-65.87676585 82.24917594 -65.86020119 75.43881167 -65.84918404 68.62837219 C-65.84298913 66.03533246 -65.83300254 63.44229883 -65.81910515 60.84928894 C-65.7997933 57.21133422 -65.79297893 53.57354612 -65.78881836 49.93554688 C-65.78005676 48.87125458 -65.77129517 47.80696228 -65.76226807 46.7104187 C-65.77046705 40.40024382 -65.97602446 34.03756545 -68 28 C-68.66 27.67 -69.32 27.34 -70 27 C-70.625 24.9375 -70.625 24.9375 -71 23 C-70.34 23 -69.68 23 -69 23 C-64.89060421 31.36812993 -63.27900107 38.1845353 -63.43237305 47.46972656 C-63.43164291 48.65166092 -63.43091278 49.83359528 -63.43016052 51.05134583 C-63.43361307 54.91492398 -63.47236622 58.77726035 -63.51171875 62.640625 C-63.52385447 65.33631715 -63.52841363 68.03200821 -63.53315735 70.72772217 C-63.54861594 77.07053205 -63.58953411 83.41290421 -63.6399048 89.75552249 C-63.70157059 97.69500349 -63.72870923 105.63455756 -63.75585938 113.57421875 C-63.80437026 127.71648565 -63.90455923 141.85779926 -64 156 C-41.23 156 -18.46 156 5 156 C4.93831543 132.82508218 4.93831543 132.82508218 4.83984375 109.65039062 C4.79147903 100.18595666 4.74696733 90.72162714 4.72900391 81.25708008 C4.71589643 74.36096269 4.68870395 67.46506051 4.64538693 60.56906444 C4.62297382 56.92595646 4.60707697 53.28311185 4.60811615 49.63992882 C4.60802722 35.27516954 4.48769485 21.43830943 0.85357666 7.45881653 C0 4 0 4 0 0 Z " fill="#BFBFBF" transform="translate(515,354)"/>
<path d="M0 0 C0.99 0.495 0.99 0.495 2 1 C1.47599609 1.88751953 1.47599609 1.88751953 0.94140625 2.79296875 C0.48636719 3.58316406 0.03132813 4.37335938 -0.4375 5.1875 C-0.88996094 5.96480469 -1.34242188 6.74210937 -1.80859375 7.54296875 C-3.80561705 11.66142008 -4.12500021 15.62479505 -4.12025452 20.15693665 C-4.12162918 21.17350845 -4.12300385 22.19008026 -4.12442017 23.23745728 C-4.12082489 24.34156952 -4.11722961 25.44568176 -4.11352539 26.58325195 C-4.11367142 27.75441055 -4.11381744 28.92556915 -4.1139679 30.13221741 C-4.11327157 34.00092424 -4.10549222 37.86958284 -4.09765625 41.73828125 C-4.09579108 44.42156557 -4.09431844 47.10484722 -4.09336853 49.78813171 C-4.0902633 56.12743165 -4.08206082 62.46671429 -4.07201904 68.80600661 C-4.06083279 76.02484617 -4.05534112 83.24368657 -4.05032361 90.46253264 C-4.03987753 105.30836444 -4.02229375 120.15418108 -4 135 C-6.87744268 136.43872134 -9.34565922 136.11937153 -12.56103516 136.11352539 C-13.23432358 136.11367142 -13.907612 136.11381744 -14.6013031 136.1139679 C-16.83058881 136.11327027 -19.05979135 136.10548489 -21.2890625 136.09765625 C-22.83320063 136.09579154 -24.37733934 136.09436789 -25.92147827 136.09336853 C-29.98870472 136.08954754 -34.05589555 136.07972082 -38.12310791 136.06866455 C-42.2721712 136.05844144 -46.42124025 136.05386898 -50.5703125 136.04882812 C-58.71355803 136.03809819 -66.85677458 136.02102677 -75 136 C-75.33 135.34 -75.66 134.68 -76 134 C-52.9 134 -29.8 134 -6 134 C-6.06960938 125.33234375 -6.13921875 116.6646875 -6.2109375 107.734375 C-6.24551415 101.528468 -6.27626774 95.32263382 -6.30152321 89.11669159 C-6.33470589 81.08734208 -6.37675912 73.05836866 -6.45263672 65.02929688 C-6.51270641 58.66988921 -6.55121195 52.31076599 -6.56453097 45.95108247 C-6.57230919 42.58774421 -6.59361613 39.22585961 -6.63438034 35.86266327 C-6.67821142 32.09513482 -6.68392249 28.32926758 -6.68115234 24.56152344 C-6.702724 23.46387665 -6.72429565 22.36622986 -6.746521 21.23532104 C-6.68101743 12.95187971 -4.18575838 7.09254174 0 0 Z " fill="#D2D2D2" transform="translate(395,376)"/>
<path d="M0 0 C23.43 0 46.86 0 71 0 C72.25433458 3.76300374 72.10695422 7.27210909 72.0625 11.1875 C72.05798828 11.93708984 72.05347656 12.68667969 72.04882812 13.45898438 C72.03706354 15.30602383 72.01912865 17.15302213 72 19 C73.65 19.33 75.3 19.66 77 20 C73.375 24.875 73.375 24.875 70 26 C70 18.08 70 10.16 70 2 C46.9 2 23.8 2 0 2 C0 1.34 0 0.68 0 0 Z " fill="#E4E4E4" transform="translate(319,307)"/>
<path d="M0 0 C3.57648074 3.15605708 6.70276342 6.43701789 9.5625 10.25 C9.2325 10.91 8.9025 11.57 8.5625 12.25 C8.12679687 11.71890625 7.69109375 11.1878125 7.2421875 10.640625 C0.6959746 2.87585299 -5.36756537 -0.99257192 -15.4375 -2.75 C-23.00202604 -3.33465421 -30.16782306 -2.95587525 -37.4375 -0.75 C-38.45070312 -0.45802734 -38.45070312 -0.45802734 -39.484375 -0.16015625 C-44.91952243 1.61995987 -49.04573861 4.64081311 -53.4375 8.25 C-53.4375 5.25 -53.4375 5.25 -52.2890625 3.75390625 C-38.9671523 -7.06663263 -14.13704389 -10.97453481 0 0 Z " fill="#E4E4E4" transform="translate(273.4375,229.75)"/>
<path d="M0 0 C0.33 0 0.66 0 1 0 C1.495 4.455 1.495 4.455 2 9 C-0.89914911 10.44957456 -3.414283 10.11932924 -6.65283203 10.11352539 C-7.67739502 10.11374443 -7.67739502 10.11374443 -8.72265625 10.1139679 C-10.9844071 10.11327023 -13.246076 10.10548465 -15.5078125 10.09765625 C-17.07437088 10.09579155 -18.64092984 10.09436789 -20.20748901 10.09336853 C-24.33389898 10.08954743 -28.46027384 10.0797206 -32.58666992 10.06866455 C-36.79605637 10.0584417 -41.00544847 10.05386903 -45.21484375 10.04882812 C-53.47657862 10.03809798 -61.73828495 10.02102642 -70 10 C-70 9.34 -70 8.68 -70 8 C-46.9 8 -23.8 8 0 8 C0 5.36 0 2.72 0 0 Z " fill="#AEAEAE" transform="translate(285,502)"/>
<path d="M0 0 C7.59 0 15.18 0 23 0 C24.25433458 3.76300374 24.10695422 7.27210909 24.0625 11.1875 C24.05798828 11.93708984 24.05347656 12.68667969 24.04882812 13.45898438 C24.03706354 15.30602383 24.01912865 17.15302213 24 19 C25.65 19.33 27.3 19.66 29 20 C25.375 24.875 25.375 24.875 22 26 C22 17.75 22 9.5 22 1 C14.74 1 7.48 1 0 1 C0 0.67 0 0.34 0 0 Z " fill="#EEEEEE" transform="translate(367,307)"/>
<path d="M0 0 C-2.51754509 2.51754509 -4.76586447 3.08092731 -8.125 4.25 C-13.89029713 6.39358994 -18.39182205 8.94870156 -23 13 C-23 10 -23 10 -21.875 8.5078125 C-19.41863681 6.53248711 -16.8315651 5.256082 -14 3.875 C-12.4221875 3.09769531 -12.4221875 3.09769531 -10.8125 2.3046875 C-6.97128623 0.52279111 -4.20160589 -0.11355692 0 0 Z " fill="#E5E5E5" transform="translate(243,225)"/>
<path d="M0 0 C1.00417969 -0.03738281 2.00835937 -0.07476562 3.04296875 -0.11328125 C6.49626334 0.41762018 7.62661691 1.6675293 9.8125 4.3125 C8.59626953 4.06113281 8.59626953 4.06113281 7.35546875 3.8046875 C-0.37197521 2.38334158 -6.57877231 2.33026633 -14.1875 4.3125 C-13.8575 3.3225 -13.5275 2.3325 -13.1875 1.3125 C-8.7940791 0.5136962 -4.46496956 0.14755713 0 0 Z " fill="#7C7C7C" transform="translate(422.1875,363.6875)"/>
<path d="M0 0 C1.06347656 0.02578125 2.12695312 0.0515625 3.22265625 0.078125 C6.27004544 0.25478524 9.2054743 0.58732762 12.1875 1.25 C12.1875 1.91 12.1875 2.57 12.1875 3.25 C13.1775 3.58 14.1675 3.91 15.1875 4.25 C13.73150391 4.00443359 13.73150391 4.00443359 12.24609375 3.75390625 C7.90473112 3.13371159 3.62752229 3.13873583 -0.75 3.1875 C-1.52923828 3.19201172 -2.30847656 3.19652344 -3.11132812 3.20117188 C-5.01175268 3.21283092 -6.91213706 3.23076123 -8.8125 3.25 C-6.21212112 -0.14568375 -4.14507449 -0.1042786 0 0 Z " fill="#D2D2D2" transform="translate(249.8125,223.75)"/>
<path d="M0 0 C0.66 0.33 1.32 0.66 2 1 C-1.3 4.3 -4.6 7.6 -8 11 C-8.33 10.34 -8.66 9.68 -9 9 C-8.06725891 7.87105124 -7.12859878 6.74699124 -6.1875 5.625 C-5.66542969 4.99851563 -5.14335937 4.37203125 -4.60546875 3.7265625 C-3 2 -3 2 0 0 Z " fill="#2C2C2C" transform="translate(228,231)"/>
<path d="M0 0 C3.3 0 6.6 0 10 0 C10 0.33 10 0.66 10 1 C6.37 1.66 2.74 2.32 -1 3 C-0.67 2.01 -0.34 1.02 0 0 Z " fill="#A2A2A2" transform="translate(409,365)"/>
<path d="M0 0 C3.0916909 2.52956528 3.90931332 5.22454612 5 9 C2.5 6.75 2.5 6.75 0 4 C0 2.68 0 1.36 0 0 Z " fill="#B5B5B5" transform="translate(508,340)"/>
</svg>
