<?xml version="1.0" encoding="UTF-8"?>
<svg xmlns="http://www.w3.org/2000/svg" xmlns:xlink="http://www.w3.org/1999/xlink" width="29px" height="29px" viewBox="0 0 29 29" version="1.1">
<g id="surface1">
<path style=" stroke:none;fill-rule:nonzero;fill:rgb(0%,0%,0%);fill-opacity:1;" d="M 28.992188 29 L 29 29 L 29 18.363281 C 29 13.160156 27.878906 9.152344 21.796875 9.152344 C 18.871094 9.152344 16.910156 10.757812 16.109375 12.277344 L 16.023438 12.277344 L 16.023438 9.636719 L 10.257812 9.636719 L 10.257812 29 L 16.261719 29 L 16.261719 19.410156 C 16.261719 16.886719 16.742188 14.445312 19.867188 14.445312 C 22.949219 14.445312 22.992188 17.328125 22.992188 19.574219 L 22.992188 29 Z M 28.992188 29 "/>
<path style=" stroke:none;fill-rule:nonzero;fill:rgb(0%,0%,0%);fill-opacity:1;" d="M 0.476562 9.640625 L 6.492188 9.640625 L 6.492188 29 L 0.476562 29 Z M 0.476562 9.640625 "/>
<path style=" stroke:none;fill-rule:nonzero;fill:rgb(0%,0%,0%);fill-opacity:1;" d="M 3.480469 0 C 1.558594 0 0 1.558594 0 3.480469 C 0 5.40625 1.558594 6.996094 3.480469 6.996094 C 5.40625 6.996094 6.964844 5.40625 6.964844 3.480469 C 6.964844 1.558594 5.402344 0 3.480469 0 Z M 3.480469 0 "/>
</g>
</svg>
