<?xml version="1.0" standalone="no"?>
<!DOCTYPE svg PUBLIC "-//W3C//DTD SVG 20010904//EN"
 "http://www.w3.org/TR/2001/REC-SVG-20010904/DTD/svg10.dtd">
<svg version="1.0" xmlns="http://www.w3.org/2000/svg"
 width="62.000000pt" height="46.000000pt" viewBox="0 0 62.000000 46.000000"
 preserveAspectRatio="xMidYMid meet">

<g transform="translate(0.000000,46.000000) scale(0.100000,-0.100000)"
fill="#000000" stroke="none">
<path d="M277 382 c-24 -27 -21 -67 8 -99 l25 -28 20 24 c22 26 27 90 8 109
-17 17 -42 15 -61 -6z"/>
<path d="M21 125 c1 -20 3 -24 6 -10 3 11 12 25 20 32 13 10 12 12 -6 10 -17
-1 -21 -7 -20 -32z"/>
<path d="M78 155 c-12 -13 4 -35 26 -36 19 -1 19 -2 -4 -9 -24 -9 -24 -9 5 -7
25 2 31 7 33 32 4 29 3 29 -15 12 -24 -21 -31 -21 -35 -1 -2 9 -6 13 -10 9z"/>
<path d="M157 153 c-4 -3 -7 -17 -7 -30 0 -19 5 -23 29 -23 34 0 45 12 36 40
-6 19 -44 28 -58 13z m41 -26 c2 -10 -3 -17 -12 -17 -10 0 -16 9 -16 21 0 24
23 21 28 -4z"/>
<path d="M234 146 c-10 -27 4 -46 33 -45 l28 1 -25 8 c-25 8 -25 8 -2 9 17 1
22 6 20 19 -4 22 -46 29 -54 8z m36 -6 c0 -5 -4 -10 -10 -10 -5 0 -10 5 -10
10 0 6 5 10 10 10 6 0 10 -4 10 -10z"/>
</g>
</svg>
