<?xml version="1.0" encoding="UTF-8"?>
<svg xmlns="http://www.w3.org/2000/svg" xmlns:xlink="http://www.w3.org/1999/xlink" width="64px" height="64px" viewBox="0 0 64 64" version="1.1">
<g id="surface1">
<path style=" stroke:none;fill-rule:nonzero;fill:rgb(100%,100%,100%);fill-opacity:1;" d="M 29.375 16 C 30.210938 16.652344 30.667969 17.503906 31 18.5 C 31.015625 18.835938 31.003906 19.164062 31 19.5 C 30.792969 19.5 30.582031 19.5 30.375 19.5 C 30.449219 19.578125 30.449219 19.578125 30.523438 19.65625 C 32.476562 21.738281 32.476562 21.738281 33.320312 22.765625 C 33.378906 22.832031 33.433594 22.902344 33.492188 22.972656 C 33.605469 23.109375 33.71875 23.246094 33.828125 23.382812 C 34.117188 23.742188 34.117188 23.742188 34.5 24 C 34.714844 24.015625 34.925781 24.019531 35.140625 24.023438 C 35.273438 24.027344 35.40625 24.027344 35.542969 24.03125 C 35.6875 24.03125 35.835938 24.035156 35.984375 24.035156 C 36.132812 24.039062 36.28125 24.039062 36.433594 24.042969 C 36.910156 24.050781 37.382812 24.054688 37.859375 24.0625 C 38.484375 24.070312 39.109375 24.082031 39.734375 24.089844 C 39.878906 24.089844 40.023438 24.09375 40.171875 24.09375 C 40.304688 24.097656 40.4375 24.097656 40.578125 24.101562 C 40.753906 24.105469 40.753906 24.105469 40.933594 24.105469 C 41.25 24.125 41.25 24.125 41.75 24.25 C 41.75 25.40625 41.75 26.558594 41.75 27.75 C 41.183594 27.832031 40.707031 27.890625 40.152344 27.894531 C 40.015625 27.894531 39.878906 27.894531 39.738281 27.894531 C 39.59375 27.894531 39.449219 27.894531 39.296875 27.894531 C 39.070312 27.898438 39.070312 27.898438 38.839844 27.898438 C 38.519531 27.898438 38.199219 27.898438 37.878906 27.898438 C 37.394531 27.898438 36.90625 27.902344 36.417969 27.902344 C 36.109375 27.902344 35.796875 27.902344 35.484375 27.902344 C 35.339844 27.90625 35.195312 27.90625 35.046875 27.90625 C 34.242188 27.902344 33.53125 27.832031 32.75 27.625 C 33.808594 28.011719 34.808594 28.019531 35.921875 28.03125 C 36.226562 28.035156 36.53125 28.039062 36.832031 28.042969 C 37.308594 28.050781 37.785156 28.054688 38.261719 28.058594 C 38.722656 28.066406 39.183594 28.070312 39.640625 28.078125 C 39.785156 28.078125 39.929688 28.078125 40.074219 28.082031 C 40.273438 28.082031 40.273438 28.082031 40.476562 28.085938 C 40.652344 28.089844 40.652344 28.089844 40.828125 28.089844 C 41.125 28.125 41.125 28.125 41.5 28.375 C 41.527344 28.742188 41.535156 29.085938 41.523438 29.453125 C 41.523438 29.554688 41.519531 29.652344 41.519531 29.757812 C 41.515625 30.003906 41.507812 30.253906 41.5 30.5 C 41.664062 30.292969 41.828125 30.085938 42 29.875 C 41.875 29.792969 41.753906 29.710938 41.625 29.625 C 41.589844 29.300781 41.589844 29.300781 41.601562 28.921875 C 41.605469 28.796875 41.609375 28.671875 41.613281 28.542969 C 41.617188 28.398438 41.617188 28.398438 41.625 28.25 C 41.757812 28.253906 41.886719 28.253906 42.023438 28.257812 C 42.199219 28.261719 42.378906 28.261719 42.554688 28.265625 C 42.683594 28.269531 42.683594 28.269531 42.816406 28.273438 C 43.273438 28.277344 43.675781 28.246094 44.117188 28.125 C 44.871094 27.953125 45.621094 27.957031 46.390625 27.949219 C 46.542969 27.945312 46.699219 27.945312 46.855469 27.941406 C 47.34375 27.933594 47.832031 27.925781 48.320312 27.921875 C 48.652344 27.917969 48.984375 27.914062 49.316406 27.90625 C 50.128906 27.894531 50.9375 27.882812 51.75 27.875 C 51.75 27.792969 51.75 27.710938 51.75 27.625 C 51.644531 27.59375 51.535156 27.5625 51.425781 27.53125 C 50.96875 27.363281 50.574219 27.144531 50.164062 26.890625 C 50.085938 26.84375 50.003906 26.792969 49.921875 26.742188 C 48.953125 26.148438 47.992188 25.542969 47.035156 24.929688 C 46.761719 24.757812 46.484375 24.585938 46.210938 24.417969 C 46.128906 24.367188 46.046875 24.316406 45.960938 24.261719 C 45.808594 24.167969 45.65625 24.074219 45.5 23.980469 C 45.300781 23.855469 45.300781 23.855469 45 23.625 C 45 23.5 45 23.378906 45 23.25 C 45.453125 23.25 45.90625 23.25 46.375 23.25 C 45.671875 23.167969 44.972656 23.085938 44.25 23 C 44.25 22.339844 44.25 21.679688 44.25 21 C 44.621094 20.816406 45.003906 20.835938 45.410156 20.820312 C 45.5 20.820312 45.59375 20.816406 45.6875 20.8125 C 45.878906 20.804688 46.074219 20.796875 46.265625 20.792969 C 46.558594 20.78125 46.851562 20.769531 47.140625 20.753906 C 48.703125 20.695312 49.796875 20.929688 51.117188 21.773438 C 51.214844 21.832031 51.308594 21.894531 51.410156 21.957031 C 53.050781 22.996094 53.050781 22.996094 53.625 23.5 C 53.625 23.582031 53.625 23.664062 53.625 23.75 C 52.964844 23.75 52.304688 23.75 51.625 23.75 C 51.785156 23.761719 51.945312 23.773438 52.109375 23.789062 C 52.324219 23.804688 52.535156 23.824219 52.75 23.84375 C 52.855469 23.851562 52.960938 23.859375 53.066406 23.867188 C 53.816406 23.9375 54.34375 24.125 55 24.5 C 55 24.582031 55 24.664062 55 24.75 C 55.105469 24.789062 55.105469 24.789062 55.210938 24.828125 C 55.535156 25.019531 55.730469 25.257812 55.960938 25.550781 C 56.144531 25.78125 56.144531 25.78125 56.46875 26.085938 C 56.75 26.375 56.75 26.375 56.875 26.75 C 56.308594 27.035156 55.488281 26.960938 54.875 27 C 54.875 27.660156 54.875 28.320312 54.875 29 C 54.957031 29 55.039062 29 55.125 29 C 55.167969 28.421875 55.207031 27.84375 55.25 27.25 C 55.867188 27.25 56.488281 27.25 57.125 27.25 C 57.355469 27.699219 57.585938 28.144531 57.8125 28.59375 C 57.910156 28.785156 57.910156 28.785156 58.011719 28.976562 C 58.074219 29.101562 58.136719 29.222656 58.199219 29.351562 C 58.257812 29.460938 58.3125 29.574219 58.375 29.691406 C 58.5 30 58.5 30 58.5 30.5 C 57.902344 30.429688 57.433594 30.253906 56.890625 29.992188 C 56.746094 29.921875 56.601562 29.855469 56.453125 29.785156 C 56.292969 29.707031 56.292969 29.707031 56.125 29.625 C 56.265625 29.691406 56.40625 29.757812 56.550781 29.828125 C 56.640625 29.867188 56.730469 29.910156 56.824219 29.957031 C 57.019531 30.046875 57.214844 30.140625 57.410156 30.234375 C 57.914062 30.472656 58.421875 30.699219 58.9375 30.90625 C 59.375 31.125 59.375 31.125 59.464844 31.34375 C 59.507812 31.679688 59.511719 32.003906 59.507812 32.34375 C 59.507812 32.46875 59.503906 32.589844 59.503906 32.71875 C 59.503906 32.855469 59.503906 32.855469 59.5 33 C 58.890625 33.132812 58.28125 33.265625 57.671875 33.398438 C 57.578125 33.417969 57.488281 33.4375 57.394531 33.457031 C 56.367188 33.679688 55.34375 33.886719 54.304688 34.054688 C 54.222656 34.066406 54.136719 34.082031 54.050781 34.097656 C 53.648438 34.160156 53.25 34.21875 52.847656 34.277344 C 51.992188 34.410156 51.265625 34.59375 50.5 35 C 50.390625 35.058594 50.28125 35.113281 50.164062 35.171875 C 49.550781 35.558594 49.246094 35.902344 48.929688 36.546875 C 48.707031 36.953125 48.4375 37.304688 48.15625 37.664062 C 48.101562 37.734375 48.046875 37.804688 47.988281 37.875 C 47.878906 38.015625 47.769531 38.15625 47.65625 38.300781 C 47.335938 38.710938 47.023438 39.132812 46.710938 39.554688 C 46.441406 39.914062 46.164062 40.269531 45.886719 40.625 C 44.492188 42.414062 43.476562 43.761719 43.476562 46.085938 C 43.476562 46.214844 43.476562 46.339844 43.476562 46.472656 C 43.484375 47.429688 43.558594 48.355469 43.695312 49.300781 C 43.773438 50.113281 43.75 50.933594 43.75 51.75 C 36.820312 51.75 29.890625 51.75 22.75 51.75 C 23.03125 50.484375 23.03125 50.484375 23.328125 49.992188 C 23.382812 49.898438 23.441406 49.804688 23.496094 49.707031 C 23.558594 49.605469 23.558594 49.605469 23.625 49.5 C 23.476562 49.507812 23.476562 49.507812 23.328125 49.515625 C 23.164062 49.507812 23.164062 49.507812 23 49.5 C 22.773438 49.25 22.773438 49.25 22.625 49 C 22.582031 49.082031 22.542969 49.164062 22.5 49.25 C 21.226562 49.179688 19.988281 48.925781 18.738281 48.679688 C 18.507812 48.636719 18.28125 48.589844 18.050781 48.546875 C 17.449219 48.429688 16.851562 48.3125 16.25 48.195312 C 15.757812 48.101562 15.269531 48.007812 14.777344 47.910156 C 14.191406 47.796875 13.605469 47.683594 13.019531 47.570312 C 12.851562 47.539062 12.851562 47.539062 12.683594 47.503906 C 12.367188 47.445312 12.050781 47.382812 11.738281 47.320312 C 11.644531 47.304688 11.550781 47.285156 11.457031 47.265625 C 11.050781 47.1875 10.648438 47.105469 10.25 47 C 10.25 46.671875 10.25 46.339844 10.25 46 C 11.25 45.835938 12.246094 45.671875 13.246094 45.511719 C 13.710938 45.4375 14.175781 45.359375 14.636719 45.285156 C 15.085938 45.210938 15.535156 45.136719 15.984375 45.066406 C 16.15625 45.039062 16.324219 45.011719 16.496094 44.980469 C 17.589844 44.800781 18.640625 44.714844 19.75 44.75 C 19.773438 44.574219 19.773438 44.574219 19.800781 44.390625 C 19.886719 43.945312 19.992188 43.8125 20.320312 43.507812 C 20.410156 43.421875 20.503906 43.335938 20.597656 43.25 C 20.925781 42.953125 21.257812 42.660156 21.59375 42.371094 C 21.9375 42.070312 22.277344 41.757812 22.617188 41.445312 C 23.238281 40.875 23.867188 40.308594 24.5 39.75 C 24.34375 39.703125 24.191406 39.660156 24.03125 39.613281 C 23.261719 39.355469 22.574219 38.96875 21.867188 38.578125 C 21.671875 38.472656 21.671875 38.472656 21.472656 38.363281 C 20.757812 37.972656 20.0625 37.566406 19.375 37.125 C 19.476562 36.625 19.707031 36.289062 20 35.875 C 19.527344 36.308594 19.527344 36.308594 19.25 36.875 C 18.699219 36.796875 18.253906 36.585938 17.769531 36.328125 C 17.6875 36.285156 17.605469 36.242188 17.523438 36.199219 C 17.261719 36.0625 17 35.925781 16.742188 35.789062 C 16.488281 35.65625 16.230469 35.523438 15.972656 35.386719 C 15.808594 35.300781 15.640625 35.210938 15.472656 35.125 C 14.835938 34.792969 14.195312 34.480469 13.542969 34.175781 C 13.117188 33.921875 12.925781 33.675781 12.789062 33.195312 C 12.75 32.875 12.734375 32.566406 12.738281 32.238281 C 12.738281 32.125 12.738281 32.007812 12.738281 31.886719 C 12.742188 31.707031 12.742188 31.707031 12.742188 31.523438 C 12.742188 31.402344 12.742188 31.277344 12.742188 31.152344 C 12.746094 30.851562 12.746094 30.550781 12.75 30.25 C 12.574219 30.152344 12.574219 30.152344 12.394531 30.054688 C 11.238281 29.417969 10.117188 28.734375 9.003906 28.023438 C 8.21875 27.523438 7.421875 27.035156 6.628906 26.546875 C 6.335938 26.363281 6.042969 26.183594 5.75 26 C 5.671875 25.949219 5.589844 25.902344 5.507812 25.851562 C 5.335938 25.742188 5.167969 25.621094 5 25.5 C 5 25.417969 5 25.335938 5 25.25 C 6.226562 25.101562 7.445312 25.101562 8.679688 25.101562 C 8.84375 25.097656 8.84375 25.097656 9.007812 25.097656 C 9.578125 25.097656 10.152344 25.09375 10.722656 25.09375 C 11.3125 25.09375 11.902344 25.089844 12.492188 25.085938 C 12.949219 25.085938 13.402344 25.085938 13.859375 25.085938 C 14.078125 25.085938 14.292969 25.082031 14.511719 25.082031 C 14.816406 25.078125 15.117188 25.078125 15.421875 25.082031 C 15.511719 25.078125 15.601562 25.078125 15.695312 25.078125 C 16.074219 25.082031 16.339844 25.105469 16.675781 25.292969 C 17.066406 25.703125 17.015625 26.140625 17.011719 26.675781 C 17.011719 26.914062 17.011719 26.914062 17.011719 27.152344 C 17.007812 27.398438 17.007812 27.398438 17.007812 27.648438 C 17.007812 27.816406 17.007812 27.980469 17.007812 28.148438 C 17.003906 28.558594 17.003906 28.964844 17 29.375 C 17.226562 29.371094 17.226562 29.371094 17.460938 29.367188 C 17.867188 29.367188 18.230469 29.402344 18.625 29.5 C 18.769531 29.535156 18.769531 29.535156 18.914062 29.570312 C 18.984375 29.589844 19.054688 29.605469 19.125 29.625 C 19.023438 29.511719 18.925781 29.398438 18.820312 29.28125 C 18.570312 28.976562 18.410156 28.777344 18.375 28.375 C 18.359375 28.230469 18.34375 28.085938 18.328125 27.9375 C 18.335938 26.976562 18.878906 26.046875 19.375 25.25 C 19.703125 25.292969 20.035156 25.332031 20.375 25.375 C 20.167969 25.292969 19.960938 25.210938 19.75 25.125 C 19.820312 24.511719 20.015625 24.035156 20.300781 23.496094 C 20.390625 23.316406 20.484375 23.140625 20.574219 22.960938 C 20.621094 22.867188 20.671875 22.773438 20.722656 22.675781 C 20.992188 22.144531 21.257812 21.605469 21.519531 21.070312 C 21.691406 20.726562 21.859375 20.386719 22.03125 20.042969 C 22.144531 19.808594 22.261719 19.578125 22.375 19.34375 C 22.546875 19 22.71875 18.65625 22.886719 18.3125 C 22.9375 18.210938 22.988281 18.109375 23.039062 18 C 24.011719 16.0625 24.011719 16.0625 24.820312 15.5625 C 24.910156 15.503906 25 15.445312 25.09375 15.386719 C 26.421875 14.742188 28.199219 15.226562 29.375 16 Z M 49.25 23.5 C 49.25 23.542969 49.25 23.582031 49.25 23.625 C 49.578125 23.625 49.910156 23.625 50.25 23.625 C 50.25 23.582031 50.25 23.542969 50.25 23.5 C 49.921875 23.5 49.589844 23.5 49.25 23.5 Z M 28.875 23.875 C 28.855469 23.941406 28.835938 24.011719 28.816406 24.078125 C 28.582031 24.839844 28.25 25.496094 27.851562 26.179688 C 27.738281 26.378906 27.625 26.574219 27.511719 26.773438 C 27.460938 26.859375 27.410156 26.945312 27.359375 27.03125 C 27.230469 27.246094 27.230469 27.246094 27.25 27.5 C 26.878906 27.457031 26.507812 27.417969 26.125 27.375 C 26.585938 27.679688 26.941406 27.875 27.5 27.875 C 27.519531 27.71875 27.542969 27.566406 27.5625 27.40625 C 27.644531 27.070312 27.695312 26.917969 27.972656 26.703125 C 28.671875 26.351562 29.3125 26.234375 30.09375 26.179688 C 30.3125 26.164062 30.3125 26.164062 30.539062 26.148438 C 30.648438 26.140625 30.761719 26.132812 30.875 26.125 C 30.515625 25.558594 30.121094 25.066406 29.664062 24.578125 C 29.601562 24.511719 29.539062 24.441406 29.476562 24.371094 C 29.320312 24.203125 29.160156 24.039062 29 23.875 C 28.957031 23.875 28.917969 23.875 28.875 23.875 Z M 21.875 30.75 C 22.195312 31.070312 22.433594 31.066406 22.875 31.125 C 22.554688 30.804688 22.316406 30.808594 21.875 30.75 Z M 35.875 31.25 C 35.917969 31.375 35.957031 31.496094 36 31.625 C 36 31.5 36 31.378906 36 31.25 C 35.957031 31.25 35.917969 31.25 35.875 31.25 Z M 24 31.5 C 23.8125 31.746094 23.8125 31.746094 23.625 32 C 23.667969 32.082031 23.707031 32.164062 23.75 32.25 C 24.089844 32.046875 24.421875 31.84375 24.75 31.625 C 24.378906 31.5625 24.378906 31.5625 24 31.5 Z M 36.125 31.625 C 36.25 31.875 36.25 31.875 36.25 31.875 Z M 36.25 31.875 C 36.292969 32.121094 36.332031 32.371094 36.375 32.625 C 36.460938 32.386719 36.460938 32.386719 36.5 32.125 C 36.417969 32.042969 36.335938 31.960938 36.25 31.875 Z M 36.5 32.75 C 36.488281 32.875 36.476562 33.003906 36.460938 33.132812 C 36.445312 33.304688 36.425781 33.472656 36.40625 33.640625 C 36.398438 33.722656 36.390625 33.808594 36.382812 33.890625 C 36.308594 34.527344 36.128906 34.882812 35.75 35.375 C 35.792969 35.457031 35.832031 35.539062 35.875 35.625 C 36 35.542969 36.121094 35.460938 36.25 35.375 C 36.25 35.292969 36.25 35.210938 36.25 35.125 C 36.328125 35.089844 36.40625 35.058594 36.484375 35.023438 C 36.789062 34.878906 36.789062 34.878906 37 34.5 C 36.875 34.5 36.753906 34.5 36.625 34.5 C 36.625 33.921875 36.625 33.34375 36.625 32.75 C 36.582031 32.75 36.542969 32.75 36.5 32.75 Z M 30.25 33.625 C 30.375 33.6875 30.375 33.6875 30.5 33.75 C 30.457031 33.957031 30.417969 34.164062 30.375 34.375 C 30.625 34.277344 30.625 34.277344 30.875 34.125 C 30.917969 34 30.957031 33.878906 31 33.75 C 30.628906 33.6875 30.628906 33.6875 30.25 33.625 Z M 34.875 36.25 C 34.75 36.4375 34.75 36.4375 34.625 36.625 C 34.789062 36.542969 34.953125 36.460938 35.125 36.375 C 35.042969 36.332031 34.960938 36.292969 34.875 36.25 Z M 34 37 C 33.671875 37.328125 33.339844 37.660156 33 38 C 33.375 38.039062 33.375 38.039062 33.601562 37.808594 C 33.679688 37.726562 33.757812 37.644531 33.835938 37.5625 C 33.953125 37.441406 33.953125 37.441406 34.070312 37.316406 C 34.128906 37.253906 34.1875 37.191406 34.25 37.125 C 34.167969 37.082031 34.085938 37.042969 34 37 Z M 34.796875 40.980469 C 34.285156 41.519531 34.285156 41.519531 34.117188 42.210938 C 34.3125 42.816406 34.652344 43.300781 35.007812 43.828125 C 35.082031 43.941406 35.15625 44.050781 35.230469 44.164062 C 35.378906 44.386719 35.527344 44.609375 35.675781 44.828125 C 35.839844 45.074219 36.003906 45.320312 36.164062 45.566406 C 36.398438 45.917969 36.636719 46.273438 36.875 46.625 C 36.921875 46.695312 36.96875 46.765625 37.019531 46.839844 C 37.171875 47.0625 37.324219 47.285156 37.476562 47.507812 C 37.613281 47.707031 37.613281 47.707031 37.753906 47.910156 C 37.949219 48.179688 38.121094 48.414062 38.375 48.625 C 38.457031 48.625 38.539062 48.625 38.625 48.625 C 38.621094 48.46875 38.621094 48.308594 38.617188 48.144531 C 38.609375 47.550781 38.601562 46.957031 38.597656 46.363281 C 38.59375 46.109375 38.589844 45.851562 38.585938 45.597656 C 38.542969 42.921875 38.992188 41.171875 40.863281 39.160156 C 41.515625 38.484375 41.515625 38.484375 41.75 37.625 C 38.71875 36.691406 36.652344 38.976562 34.796875 40.980469 Z M 26.5 37.75 C 26.457031 37.832031 26.417969 37.914062 26.375 38 C 26.5 37.957031 26.621094 37.917969 26.75 37.875 C 26.667969 37.832031 26.585938 37.792969 26.5 37.75 Z M 32.625 38.25 C 32.425781 38.445312 32.425781 38.445312 32.234375 38.6875 C 32.167969 38.769531 32.101562 38.851562 32.03125 38.933594 C 31.980469 38.996094 31.929688 39.058594 31.875 39.125 C 32.34375 38.914062 32.570312 38.664062 32.875 38.25 C 32.792969 38.25 32.710938 38.25 32.625 38.25 Z M 31.25 39.5 C 31.046875 39.746094 31.046875 39.746094 30.875 40 C 31.265625 39.835938 31.265625 39.835938 31.5 39.5 C 31.417969 39.5 31.335938 39.5 31.25 39.5 Z M 30.625 40.125 C 29.882812 40.804688 29.882812 40.804688 29.125 41.5 C 29.25 41.5 29.371094 41.5 29.5 41.5 C 29.710938 41.578125 29.917969 41.660156 30.125 41.75 C 30.136719 41.617188 30.144531 41.480469 30.15625 41.34375 C 30.257812 40.839844 30.359375 40.691406 30.75 40.375 C 30.707031 40.292969 30.667969 40.210938 30.625 40.125 Z M 28.375 42.125 C 28.25 42.3125 28.25 42.3125 28.125 42.5 C 28.289062 42.417969 28.453125 42.335938 28.625 42.25 C 28.542969 42.207031 28.460938 42.167969 28.375 42.125 Z M 30.5 43 C 30.625 43.25 30.625 43.25 30.625 43.25 Z M 27 43.375 C 26.957031 43.457031 26.917969 43.539062 26.875 43.625 C 27 43.582031 27.121094 43.542969 27.25 43.5 C 27.167969 43.457031 27.085938 43.417969 27 43.375 Z M 30.625 43.375 C 30.625 43.703125 30.625 44.035156 30.625 44.375 C 30.75 44.375 30.871094 44.375 31 44.375 C 30.929688 43.953125 30.867188 43.738281 30.625 43.375 Z M 25.625 44.75 C 25.480469 44.871094 25.332031 44.996094 25.1875 45.117188 C 25.105469 45.183594 25.023438 45.253906 24.941406 45.324219 C 24.878906 45.382812 24.816406 45.441406 24.75 45.5 C 24.75 45.542969 24.75 45.582031 24.75 45.625 C 24.996094 45.625 25.246094 45.625 25.5 45.625 C 25.585938 45.3125 25.625 45.078125 25.625 44.75 Z M 25.5 45.625 C 25.542969 45.707031 25.582031 45.789062 25.625 45.875 C 25.707031 45.832031 25.789062 45.792969 25.875 45.75 C 25.75 45.707031 25.628906 45.667969 25.5 45.625 Z M 24.125 46 C 23.964844 46.132812 23.964844 46.132812 23.992188 46.445312 C 23.996094 46.546875 23.996094 46.644531 24 46.75 C 24.136719 46.515625 24.136719 46.515625 24.25 46.25 C 24.207031 46.167969 24.167969 46.085938 24.125 46 Z M 26 46 C 26.042969 46.082031 26.082031 46.164062 26.125 46.25 C 26.453125 46.25 26.785156 46.25 27.125 46.25 C 27.125 46.207031 27.125 46.167969 27.125 46.125 C 26.753906 46.082031 26.382812 46.042969 26 46 Z M 24.125 46.75 C 24.125 46.957031 24.125 47.164062 24.125 47.375 C 24.167969 47.375 24.207031 47.375 24.25 47.375 C 24.25 47.167969 24.25 46.960938 24.25 46.75 C 24.207031 46.75 24.167969 46.75 24.125 46.75 Z M 24.25 47.375 C 24.25 47.746094 24.25 48.117188 24.25 48.5 C 24.292969 48.5 24.332031 48.5 24.375 48.5 C 24.375 48.128906 24.375 47.757812 24.375 47.375 C 24.332031 47.375 24.292969 47.375 24.25 47.375 Z M 22 48 C 22.125 48.25 22.125 48.25 22.125 48.25 Z M 22.25 48.375 C 22.375 48.625 22.375 48.625 22.375 48.625 Z M 24.125 48.625 C 24.25 48.875 24.25 48.875 24.25 48.875 Z M 24.125 48.625 "/>
<path style=" stroke:none;fill-rule:nonzero;fill:rgb(100%,100%,100%);fill-opacity:1;" d="M 16.578125 39.257812 C 17.667969 40.1875 18.410156 41.273438 19.0625 42.539062 C 19.105469 42.621094 19.148438 42.707031 19.195312 42.792969 C 19.445312 43.296875 19.574219 43.6875 19.5 44.25 C 19.015625 44.734375 18.175781 44.746094 17.515625 44.757812 C 17.300781 44.753906 17.089844 44.746094 16.875 44.734375 C 16.59375 44.722656 16.59375 44.722656 16.375 45 C 13.691406 45.617188 13.691406 45.617188 12.625 45.375 C 12.34375 45.179688 12.148438 44.984375 11.9375 44.714844 C 11.5625 44.28125 11.089844 44.179688 10.527344 44.121094 C 9.851562 44.128906 9.296875 44.367188 8.765625 44.773438 C 8.210938 45.507812 8.039062 46.214844 8.125 47.125 C 8.335938 47.777344 8.601562 48.1875 9.125 48.625 C 9.851562 48.972656 10.644531 49.023438 11.417969 48.785156 C 11.964844 48.53125 12.257812 48.234375 12.625 47.75 C 13.066406 47.570312 13.429688 47.65625 13.882812 47.75 C 14.101562 47.792969 14.101562 47.792969 14.324219 47.835938 C 14.476562 47.867188 14.625 47.898438 14.78125 47.929688 C 14.933594 47.960938 15.085938 47.992188 15.242188 48.023438 C 15.621094 48.097656 16 48.171875 16.375 48.25 C 16.375 48.539062 16.375 48.828125 16.375 49.125 C 16.457031 48.917969 16.539062 48.710938 16.625 48.5 C 17.601562 48.558594 18.546875 48.652344 19.5 48.875 C 19.441406 49.625 19.28125 50.1875 18.9375 50.851562 C 18.894531 50.9375 18.847656 51.023438 18.800781 51.113281 C 17.617188 53.34375 15.621094 54.921875 13.230469 55.671875 C 10.605469 56.410156 7.890625 56.035156 5.5 54.75 C 5.082031 54.496094 4.734375 54.207031 4.375 53.875 C 4.28125 53.792969 4.28125 53.792969 4.1875 53.707031 C 2.03125 51.753906 1.199219 49.539062 0.972656 46.644531 C 0.886719 44.136719 1.847656 41.847656 3.5 40 C 6.953125 36.324219 12.699219 36.214844 16.578125 39.257812 Z M 9.25 40.125 C 9.25 40.167969 9.25 40.207031 9.25 40.25 C 10.035156 40.25 10.816406 40.25 11.625 40.25 C 11.625 40.207031 11.625 40.167969 11.625 40.125 C 10.800781 40.011719 10.074219 40.003906 9.25 40.125 Z M 8.25 40.5 C 8.578125 40.457031 8.910156 40.417969 9.25 40.375 C 9.25 40.332031 9.25 40.292969 9.25 40.25 C 8.785156 40.226562 8.652344 40.230469 8.25 40.5 Z M 11.625 40.25 C 12.125 40.375 12.125 40.375 12.125 40.375 Z M 7.375 40.75 C 7.332031 40.832031 7.292969 40.914062 7.25 41 C 7.375 40.957031 7.496094 40.917969 7.625 40.875 C 7.542969 40.832031 7.460938 40.792969 7.375 40.75 Z M 6.75 41.125 C 6.707031 41.207031 6.667969 41.289062 6.625 41.375 C 6.75 41.332031 6.871094 41.292969 7 41.25 C 6.917969 41.207031 6.835938 41.167969 6.75 41.125 Z M 6.375 41.375 C 6.25 41.5625 6.25 41.5625 6.125 41.75 C 6.289062 41.667969 6.453125 41.585938 6.625 41.5 C 6.542969 41.457031 6.460938 41.417969 6.375 41.375 Z M 5.5 42.25 C 5.417969 42.414062 5.335938 42.578125 5.25 42.75 C 5.375 42.667969 5.496094 42.585938 5.625 42.5 C 5.582031 42.417969 5.542969 42.335938 5.5 42.25 Z M 5.125 42.75 C 5.125 43.125 5.125 43.125 5.125 43.125 Z M 4.875 43.125 C 4.875 43.5 4.875 43.5 4.875 43.5 Z M 15.875 43.125 C 16 43.375 16 43.375 16 43.375 Z M 16 43.375 C 16.125 43.625 16.125 43.625 16.125 43.625 Z M 4.625 43.5 C 4.75 43.75 4.75 43.75 4.75 43.75 Z M 16.125 43.625 C 16.25 43.875 16.25 43.875 16.25 43.875 Z M 4.5 43.875 C 4.625 44.125 4.625 44.125 4.625 44.125 Z M 16.25 43.875 C 16.375 44.125 16.375 44.125 16.375 44.125 Z M 4.375 44.125 C 4.5 44.5 4.5 44.5 4.5 44.5 Z M 16.375 44.125 C 16.5 44.5 16.5 44.5 16.5 44.5 Z M 4.25 44.5 C 4.375 44.875 4.375 44.875 4.375 44.875 Z M 4.125 45 C 4.25 45.5 4.25 45.5 4.25 45.5 Z M 4 45.75 C 4 46.285156 4 46.824219 4 47.375 C 4.042969 47.375 4.082031 47.375 4.125 47.375 C 4.125 46.839844 4.125 46.300781 4.125 45.75 C 4.082031 45.75 4.042969 45.75 4 45.75 Z M 4.125 47.875 C 4.25 48.25 4.25 48.25 4.25 48.25 Z M 4.25 48.375 C 4.375 48.625 4.375 48.625 4.375 48.625 Z M 4.375 48.75 C 4.5 49 4.5 49 4.5 49 Z M 4.5 49 C 4.625 49.25 4.625 49.25 4.625 49.25 Z M 4.625 49.25 C 4.75 49.5 4.75 49.5 4.75 49.5 Z M 16.125 49.375 C 16.25 49.625 16.25 49.625 16.25 49.625 Z M 4.75 49.5 C 4.875 49.75 4.875 49.75 4.875 49.75 Z M 16 49.625 C 16 50 16 50 16 50 Z M 4.875 49.75 C 5.015625 50.214844 5.015625 50.214844 5.375 50.5 C 5.234375 50.035156 5.234375 50.035156 4.875 49.75 Z M 15.75 50 C 15.75 50.375 15.75 50.375 15.75 50.375 Z M 15.5 50.375 C 15.375 50.5 15.253906 50.621094 15.125 50.75 C 15.167969 50.832031 15.207031 50.914062 15.25 51 C 15.375 50.875 15.496094 50.753906 15.625 50.625 C 15.582031 50.542969 15.542969 50.460938 15.5 50.375 Z M 5.375 50.5 C 5.539062 50.890625 5.539062 50.890625 5.875 51.125 C 5.710938 50.734375 5.710938 50.734375 5.375 50.5 Z M 6 51.25 C 6.125 51.414062 6.246094 51.578125 6.375 51.75 C 6.457031 51.707031 6.539062 51.667969 6.625 51.625 C 6.453125 51.433594 6.453125 51.433594 6.25 51.25 C 6.167969 51.25 6.085938 51.25 6 51.25 Z M 14.625 51.25 C 14.421875 51.496094 14.421875 51.496094 14.25 51.75 C 14.640625 51.585938 14.640625 51.585938 14.875 51.25 C 14.792969 51.25 14.710938 51.25 14.625 51.25 Z M 6.625 51.75 C 6.667969 51.832031 6.707031 51.914062 6.75 52 C 6.832031 51.957031 6.914062 51.917969 7 51.875 C 6.875 51.832031 6.753906 51.792969 6.625 51.75 Z M 8.875 52.75 C 9.375 52.875 9.375 52.875 9.375 52.875 Z M 11.5 52.75 C 11.5 52.792969 11.5 52.832031 11.5 52.875 C 11.707031 52.875 11.914062 52.875 12.125 52.875 C 12.125 52.832031 12.125 52.792969 12.125 52.75 C 11.917969 52.75 11.710938 52.75 11.5 52.75 Z M 9.5 52.875 C 9.5 52.917969 9.5 52.957031 9.5 53 C 10.160156 53 10.820312 53 11.5 53 C 11.5 52.957031 11.5 52.917969 11.5 52.875 C 10.839844 52.875 10.179688 52.875 9.5 52.875 Z M 9.5 52.875 "/>
<path style=" stroke:none;fill-rule:nonzero;fill:rgb(100%,100%,100%);fill-opacity:1;" d="M 50 35.25 C 50.226562 35.265625 50.226562 35.265625 50.5 35.375 C 50.691406 35.699219 50.691406 35.699219 50.867188 36.132812 C 50.917969 36.246094 50.917969 36.246094 50.964844 36.359375 C 51.066406 36.605469 51.167969 36.847656 51.265625 37.09375 C 51.332031 37.257812 51.402344 37.417969 51.46875 37.582031 C 51.734375 38.21875 51.996094 38.859375 52.25 39.5 C 52.332031 39.375 52.414062 39.253906 52.5 39.125 C 54.375 38.511719 56.6875 39.105469 58.398438 39.882812 C 60.5 40.996094 61.925781 42.953125 62.664062 45.1875 C 63.234375 47.324219 62.914062 49.652344 61.878906 51.589844 C 61.476562 52.238281 61.011719 52.8125 60.5 53.375 C 60.429688 53.457031 60.355469 53.539062 60.28125 53.625 C 58.808594 55.214844 56.796875 55.765625 54.695312 55.902344 C 52.5 55.960938 50.429688 55.316406 48.804688 53.8125 C 48.574219 53.585938 48.347656 53.359375 48.125 53.125 C 48.039062 53.039062 47.953125 52.957031 47.863281 52.867188 C 46.867188 51.824219 46.398438 50.519531 46.125 49.125 C 46.082031 48.914062 46.082031 48.914062 46.039062 48.695312 C 45.820312 46.214844 46.347656 44.023438 47.882812 42.054688 C 49.125 40.601562 49.125 40.601562 49.75 40.25 C 49.957031 40.246094 50.167969 40.246094 50.375 40.25 C 50.335938 40.167969 50.300781 40.085938 50.261719 40 C 50.089844 39.628906 49.917969 39.25 49.75 38.875 C 49.691406 38.746094 49.628906 38.617188 49.570312 38.484375 C 49.242188 37.75 49.003906 37.183594 49.125 36.375 C 49.316406 36.03125 49.316406 36.03125 49.5625 35.75 C 49.644531 35.65625 49.726562 35.558594 49.808594 35.460938 C 49.871094 35.390625 49.933594 35.320312 50 35.25 Z M 52.625 40.5 C 52.75 40.871094 52.871094 41.242188 53 41.625 C 53.042969 41.460938 53.082031 41.296875 53.125 41.125 C 54.074219 41.125 55.023438 41.125 56 41.125 C 56 41.082031 56 41.042969 56 41 C 55.332031 40.859375 54.691406 40.859375 54.015625 40.867188 C 53.90625 40.867188 53.796875 40.867188 53.683594 40.867188 C 53.414062 40.871094 53.144531 40.871094 52.875 40.875 C 52.832031 40.75 52.792969 40.628906 52.75 40.5 C 52.707031 40.5 52.667969 40.5 52.625 40.5 Z M 50.5 40.625 C 50.625 40.875 50.625 40.875 50.625 40.875 Z M 50.625 40.875 C 50.75 41.125 50.75 41.125 50.75 41.125 Z M 56 41.125 C 56.339844 41.414062 56.339844 41.414062 56.648438 41.328125 C 56.722656 41.300781 56.796875 41.277344 56.875 41.25 C 56.585938 41.207031 56.296875 41.167969 56 41.125 Z M 50.75 41.25 C 50.707031 41.539062 50.667969 41.828125 50.625 42.125 C 50.75 42.167969 50.871094 42.207031 51 42.25 C 51.210938 42.445312 51.210938 42.445312 51.375 42.625 C 51.320312 42.441406 51.261719 42.261719 51.203125 42.078125 C 51.171875 41.976562 51.140625 41.875 51.105469 41.769531 C 51.011719 41.480469 51.011719 41.480469 50.75 41.25 Z M 53.125 41.625 C 53.25 41.875 53.25 41.875 53.25 41.875 Z M 53.25 42 C 53.375 42.25 53.375 42.25 53.375 42.25 Z M 53.625 42.875 C 53.75 43.246094 53.871094 43.617188 54 44 C 54.042969 44 54.082031 44 54.125 44 C 54.125 43.792969 54.125 43.585938 54.125 43.375 C 54.363281 43.394531 54.597656 43.410156 54.835938 43.429688 C 54.96875 43.441406 55.101562 43.449219 55.234375 43.460938 C 55.582031 43.496094 55.910156 43.550781 56.25 43.625 C 56.152344 43.355469 56.152344 43.355469 55.90625 43.300781 C 55.308594 43.175781 54.714844 43.082031 54.105469 43.03125 C 53.875 43 53.875 43 53.625 42.875 Z M 51.5 43 C 51.625 43.375 51.625 43.375 51.625 43.375 Z M 51.625 43.375 C 51.582031 43.703125 51.542969 44.035156 51.5 44.375 C 51.808594 44.4375 51.808594 44.4375 52.125 44.5 C 52 44.128906 51.878906 43.757812 51.75 43.375 C 51.707031 43.375 51.667969 43.375 51.625 43.375 Z M 49 43.625 C 49.125 43.875 49.125 43.875 49.125 43.875 Z M 48.75 44 C 48.875 44.25 48.875 44.25 48.875 44.25 Z M 60 44 C 60.125 44.25 60.125 44.25 60.125 44.25 Z M 48.625 44.25 C 48.75 44.5 48.75 44.5 48.75 44.5 Z M 60.125 44.25 C 60.207031 44.414062 60.289062 44.578125 60.375 44.75 C 60.332031 44.585938 60.292969 44.421875 60.25 44.25 C 60.207031 44.25 60.167969 44.25 60.125 44.25 Z M 48.5 44.5 C 48.625 44.75 48.625 44.75 48.625 44.75 Z M 51.125 44.625 C 51.125 45 51.125 45 51.125 45 Z M 54.375 44.625 C 54.5 44.875 54.5 44.875 54.5 44.875 Z M 48.375 44.75 C 48.316406 44.882812 48.257812 45.011719 48.195312 45.148438 C 48.160156 45.222656 48.128906 45.296875 48.09375 45.371094 C 47.589844 46.726562 47.726562 48.683594 48.25 50 C 48.4375 50.28125 48.4375 50.28125 48.625 50.5 C 48.558594 50.144531 48.480469 49.808594 48.375 49.460938 C 48.242188 48.972656 48.164062 48.5 48.125 48 C 48.117188 47.917969 48.113281 47.832031 48.105469 47.75 C 48.074219 46.96875 48.246094 46.257812 48.429688 45.503906 C 48.53125 45.121094 48.53125 45.121094 48.375 44.75 Z M 60.375 44.75 C 60.5 45 60.5 45 60.5 45 Z M 54.5 44.875 C 54.625 45.125 54.625 45.125 54.625 45.125 Z M 50.875 45 C 50.875 45.375 50.875 45.375 50.875 45.375 Z M 60.5 45 C 60.625 45.375 60.625 45.375 60.625 45.375 Z M 50.625 45.375 C 50.582031 45.539062 50.542969 45.703125 50.5 45.875 C 50.582031 45.710938 50.664062 45.546875 50.75 45.375 C 50.707031 45.375 50.667969 45.375 50.625 45.375 Z M 52.5 45.375 C 52.625 45.625 52.625 45.625 52.625 45.625 Z M 60.625 45.375 C 60.75 45.75 60.75 45.75 60.75 45.75 Z M 54.75 45.5 C 54.875 45.75 54.875 45.75 54.875 45.75 Z M 50.375 45.875 C 50.5 46.25 50.5 46.25 50.5 46.25 Z M 58.375 45.875 C 58.5 46.125 58.5 46.125 58.5 46.125 Z M 60.75 45.875 C 60.875 46.375 60.875 46.375 60.875 46.375 Z M 52.75 46 C 52.875 46.25 52.875 46.25 52.875 46.25 Z M 54.875 46 C 55 46.375 55 46.375 55 46.375 Z M 58.5 46.125 C 58.503906 46.21875 58.503906 46.308594 58.507812 46.40625 C 58.53125 47.707031 58.4375 48.757812 57.75 49.875 C 57.792969 49.957031 57.832031 50.039062 57.875 50.125 C 57.976562 49.972656 58.074219 49.816406 58.171875 49.664062 C 58.226562 49.578125 58.28125 49.492188 58.339844 49.40625 C 58.703125 48.773438 58.785156 48.289062 58.78125 47.554688 C 58.78125 47.3125 58.78125 47.3125 58.78125 47.0625 C 58.753906 46.667969 58.710938 46.453125 58.5 46.125 Z M 50.25 46.25 C 50.375 46.75 50.375 46.75 50.375 46.75 Z M 60.875 46.5 C 60.867188 46.640625 60.863281 46.777344 60.855469 46.921875 C 60.808594 47.925781 60.746094 48.898438 60.5 49.875 C 60.964844 49.410156 61.015625 48.804688 61.023438 48.171875 C 61.023438 47.972656 61.019531 47.769531 61.015625 47.570312 C 61.015625 47.414062 61.015625 47.414062 61.011719 47.257812 C 61.007812 47.003906 61.003906 46.753906 61 46.5 C 60.957031 46.5 60.917969 46.5 60.875 46.5 Z M 53 46.625 C 53.125 46.875 53.125 46.875 53.125 46.875 Z M 54.875 46.625 C 54.75 46.871094 54.628906 47.121094 54.5 47.375 C 54.75 47.277344 54.75 47.277344 55 47.125 C 55.042969 47 55.082031 46.878906 55.125 46.75 C 55.042969 46.707031 54.960938 46.667969 54.875 46.625 Z M 50.125 47 C 50.074219 47.871094 50.171875 48.566406 50.5 49.375 C 50.667969 48.875 50.546875 48.476562 50.445312 47.976562 C 50.425781 47.882812 50.410156 47.789062 50.390625 47.691406 C 50.34375 47.460938 50.296875 47.230469 50.25 47 C 50.207031 47 50.167969 47 50.125 47 Z M 53.375 47.25 C 53.417969 47.332031 53.457031 47.414062 53.5 47.5 C 53.828125 47.5 54.160156 47.5 54.5 47.5 C 54.5 47.457031 54.5 47.417969 54.5 47.375 C 54.128906 47.332031 53.757812 47.292969 53.375 47.25 Z M 50.625 49.375 C 50.667969 49.5 50.707031 49.621094 50.75 49.75 C 50.75 49.625 50.75 49.503906 50.75 49.375 C 50.707031 49.375 50.667969 49.375 50.625 49.375 Z M 50.875 49.75 C 50.917969 49.875 50.957031 49.996094 51 50.125 C 51 50 51 49.878906 51 49.75 C 50.957031 49.75 50.917969 49.75 50.875 49.75 Z M 60.375 49.875 C 60.292969 50.121094 60.210938 50.371094 60.125 50.625 C 60.25 50.5 60.371094 50.378906 60.5 50.25 C 60.457031 50.125 60.417969 50.003906 60.375 49.875 Z M 51.125 50.125 C 51.207031 50.289062 51.289062 50.453125 51.375 50.625 C 51.457031 50.582031 51.539062 50.542969 51.625 50.5 C 51.460938 50.375 51.296875 50.253906 51.125 50.125 Z M 57.375 50.375 C 57.332031 50.457031 57.292969 50.539062 57.25 50.625 C 57.332031 50.625 57.414062 50.625 57.5 50.625 C 57.457031 50.542969 57.417969 50.460938 57.375 50.375 Z M 48.625 50.5 C 48.75 50.75 48.75 50.75 48.75 50.75 Z M 60 50.625 C 60.125 50.875 60.125 50.875 60.125 50.875 Z M 51.75 50.75 C 51.792969 50.832031 51.832031 50.914062 51.875 51 C 51.957031 50.957031 52.039062 50.917969 52.125 50.875 C 52 50.832031 51.878906 50.792969 51.75 50.75 Z M 56.875 50.75 C 56.75 50.9375 56.75 50.9375 56.625 51.125 C 56.789062 51.042969 56.953125 50.960938 57.125 50.875 C 57.042969 50.832031 56.960938 50.792969 56.875 50.75 Z M 48.875 50.875 C 49 51.125 49 51.125 49 51.125 Z M 59.875 50.875 C 60 51.125 60 51.125 60 51.125 Z M 55.945312 51.226562 C 55.308594 51.4375 54.660156 51.523438 54 51.625 C 54 51.667969 54 51.707031 54 51.75 C 54.996094 51.816406 55.726562 51.6875 56.625 51.25 C 56.261719 51.085938 56.261719 51.085938 55.945312 51.226562 Z M 59.625 51.25 C 59.625 51.625 59.625 51.625 59.625 51.625 Z M 53.25 51.5 C 53.25 51.542969 53.25 51.582031 53.25 51.625 C 53.457031 51.625 53.664062 51.625 53.875 51.625 C 53.875 51.582031 53.875 51.542969 53.875 51.5 C 53.667969 51.5 53.460938 51.5 53.25 51.5 Z M 52.25 53.625 C 52.589844 53.914062 52.589844 53.914062 52.898438 53.828125 C 52.972656 53.800781 53.046875 53.777344 53.125 53.75 C 52.835938 53.707031 52.546875 53.667969 52.25 53.625 Z M 55.5 53.75 C 55.5 53.792969 55.5 53.832031 55.5 53.875 C 55.707031 53.875 55.914062 53.875 56.125 53.875 C 56.125 53.832031 56.125 53.792969 56.125 53.75 C 55.917969 53.75 55.710938 53.75 55.5 53.75 Z M 53.25 53.875 C 53.25 53.917969 53.25 53.957031 53.25 54 C 53.992188 54 54.734375 54 55.5 54 C 55.5 53.957031 55.5 53.917969 55.5 53.875 C 54.757812 53.875 54.015625 53.875 53.25 53.875 Z M 53.25 53.875 "/>
<path style=" stroke:none;fill-rule:nonzero;fill:rgb(100%,100%,100%);fill-opacity:1;" d="M 32.296875 7.929688 C 32.542969 8.109375 32.773438 8.296875 33 8.5 C 33.070312 8.5625 33.140625 8.625 33.214844 8.6875 C 33.375 8.875 33.375 8.875 33.375 9.25 C 33.46875 9.300781 33.5625 9.347656 33.65625 9.398438 C 34.328125 9.84375 34.507812 10.558594 34.664062 11.320312 C 34.753906 11.878906 34.746094 12.328125 34.625 12.875 C 34.253906 12.875 33.882812 12.875 33.5 12.875 C 33.871094 12.957031 34.242188 13.039062 34.625 13.125 C 34.566406 13.988281 34.222656 14.714844 33.875 15.5 C 32.613281 15.457031 31.488281 15.039062 30.304688 14.640625 C 30.097656 14.570312 29.890625 14.503906 29.683594 14.433594 C 29.210938 14.28125 28.742188 14.125 28.269531 13.964844 C 28.078125 13.902344 27.886719 13.839844 27.691406 13.777344 C 27.589844 13.746094 27.488281 13.714844 27.386719 13.679688 C 27.292969 13.652344 27.203125 13.625 27.109375 13.59375 C 26.875 13.5 26.875 13.5 26.625 13.25 C 26.226562 11.828125 26.199219 10.289062 26.902344 8.960938 C 28.066406 7.246094 30.558594 6.878906 32.296875 7.929688 Z M 30.125 9.875 C 30.167969 10.164062 30.207031 10.453125 30.25 10.75 C 30.292969 10.75 30.332031 10.75 30.375 10.75 C 30.375 10.503906 30.375 10.253906 30.375 10 C 30.53125 9.984375 30.683594 9.96875 30.84375 9.953125 C 31.234375 9.90625 31.535156 9.835938 31.875 9.625 C 31.265625 9.585938 30.710938 9.730469 30.125 9.875 Z M 30.5 11.375 C 30.625 11.625 30.625 11.625 30.625 11.625 Z M 30.625 11.75 C 30.75 12 30.75 12 30.75 12 Z M 30.75 12 C 30.75 12.125 30.75 12.246094 30.75 12.375 C 30.914062 12.332031 31.078125 12.292969 31.25 12.25 C 31.085938 12.167969 30.921875 12.085938 30.75 12 Z M 31.25 12.375 C 31.75 12.5 31.75 12.5 31.75 12.5 Z M 31.75 12.5 C 32.25 12.625 32.25 12.625 32.25 12.625 Z M 32.375 12.625 C 32.875 12.75 32.875 12.75 32.875 12.75 Z M 32.375 12.625 "/>
<path style=" stroke:none;fill-rule:nonzero;fill:rgb(100%,100%,100%);fill-opacity:1;" d="M 41.125 37.875 C 40.949219 39.003906 40.0625 39.882812 39.359375 40.742188 C 39.300781 40.816406 39.246094 40.886719 39.1875 40.957031 C 39.136719 41.019531 39.085938 41.082031 39.03125 41.148438 C 38.554688 41.84375 38.445312 42.382812 38.441406 43.207031 C 38.4375 43.359375 38.4375 43.359375 38.433594 43.515625 C 38.429688 43.839844 38.425781 44.167969 38.421875 44.492188 C 38.417969 44.816406 38.414062 45.140625 38.40625 45.464844 C 38.402344 45.667969 38.402344 45.871094 38.398438 46.070312 C 38.390625 46.640625 38.34375 47.1875 38.25 47.75 C 37.609375 47.265625 37.1875 46.738281 36.738281 46.074219 C 36.671875 45.972656 36.601562 45.875 36.53125 45.769531 C 36.386719 45.558594 36.242188 45.347656 36.101562 45.136719 C 35.882812 44.8125 35.660156 44.492188 35.4375 44.167969 C 35.296875 43.960938 35.160156 43.757812 35.019531 43.550781 C 34.953125 43.453125 34.886719 43.359375 34.816406 43.261719 C 34.371094 42.589844 34.371094 42.589844 34.382812 42.144531 C 35.058594 40.578125 36.917969 38.769531 38.40625 37.972656 C 39.238281 37.648438 40.277344 37.59375 41.125 37.875 Z M 41.125 37.875 "/>
<path style=" stroke:none;fill-rule:nonzero;fill:rgb(100%,100%,100%);fill-opacity:1;" d="M 11.554688 44.40625 C 11.878906 44.625 12.136719 44.8125 12.375 45.125 C 12.332031 45.289062 12.292969 45.453125 12.25 45.625 C 11.136719 45.8125 11.136719 45.8125 10 46 C 10 46.371094 10 46.742188 10 47.125 C 10.160156 47.140625 10.320312 47.15625 10.484375 47.171875 C 11.125 47.242188 11.746094 47.363281 12.375 47.5 C 12.269531 48.035156 12.035156 48.265625 11.625 48.625 C 10.984375 49.007812 10.3125 48.941406 9.601562 48.789062 C 8.933594 48.476562 8.523438 48.164062 8.257812 47.476562 C 8.035156 46.679688 8.09375 45.957031 8.445312 45.210938 C 9.320312 44.25 10.304688 43.953125 11.554688 44.40625 Z M 11.554688 44.40625 "/>
<path style=" stroke:none;fill-rule:nonzero;fill:rgb(100%,100%,100%);fill-opacity:1;" d="M 43.226562 24.101562 C 43.355469 24.101562 43.484375 24.097656 43.621094 24.097656 C 44.019531 24.125 44.277344 24.171875 44.625 24.375 C 44.949219 24.898438 44.914062 25.472656 44.90625 26.070312 C 44.90625 26.164062 44.90625 26.257812 44.910156 26.355469 C 44.90625 27.277344 44.90625 27.277344 44.625 27.625 C 44.140625 27.898438 43.703125 27.90625 43.15625 27.898438 C 43.011719 27.898438 42.867188 27.898438 42.71875 27.894531 C 42.375 27.875 42.375 27.875 42.25 27.75 C 42.238281 27.492188 42.238281 27.230469 42.238281 26.972656 C 42.238281 26.816406 42.238281 26.65625 42.238281 26.496094 C 42.238281 26.328125 42.242188 26.160156 42.242188 25.992188 C 42.242188 25.824219 42.242188 25.65625 42.242188 25.488281 C 42.246094 25.074219 42.246094 24.664062 42.25 24.25 C 42.585938 24.082031 42.851562 24.105469 43.226562 24.101562 Z M 43.226562 24.101562 "/>
<path style=" stroke:none;fill-rule:nonzero;fill:rgb(100%,100%,100%);fill-opacity:1;" d="M 27.875 14.125 C 28.523438 14.097656 29.015625 14.175781 29.625 14.375 C 29.648438 14.867188 29.636719 15.199219 29.375 15.625 C 28.804688 15.554688 28.289062 15.449219 27.75 15.25 C 27.734375 14.40625 27.734375 14.40625 27.875 14.125 Z M 27.875 14.125 "/>
</g>
</svg>
