<?xml version="1.0" encoding="UTF-8"?>
<svg xmlns="http://www.w3.org/2000/svg" xmlns:xlink="http://www.w3.org/1999/xlink" width="350px" height="150px" viewBox="0 0 350 150" version="1.1">
<g id="surface1">
<path style=" stroke:none;fill-rule:nonzero;fill:rgb(92.156863%,38.431373%,17.647059%);fill-opacity:1;" d="M 18.164062 30.710938 C 18.300781 30.710938 18.433594 30.707031 18.574219 30.707031 C 18.796875 30.707031 18.796875 30.707031 19.027344 30.707031 C 19.183594 30.707031 19.34375 30.707031 19.503906 30.707031 C 20.039062 30.703125 20.570312 30.707031 21.105469 30.707031 C 21.484375 30.703125 21.867188 30.703125 22.246094 30.703125 C 23.179688 30.699219 24.109375 30.699219 25.039062 30.699219 C 25.796875 30.699219 26.554688 30.699219 27.3125 30.699219 C 29.460938 30.695312 31.613281 30.695312 33.765625 30.695312 C 33.878906 30.695312 33.996094 30.695312 34.117188 30.695312 C 34.289062 30.695312 34.289062 30.695312 34.46875 30.695312 C 36.34375 30.695312 38.21875 30.691406 40.09375 30.6875 C 42.023438 30.683594 43.953125 30.679688 45.882812 30.679688 C 46.964844 30.679688 48.046875 30.679688 49.128906 30.675781 C 50.148438 30.675781 51.167969 30.675781 52.1875 30.675781 C 52.5625 30.675781 52.933594 30.675781 53.304688 30.675781 C 58.515625 30.652344 63.710938 31.304688 67.703125 38.304688 C 70.792969 44.3125 71.242188 52.394531 71.230469 60.328125 C 71.230469 60.945312 71.230469 61.558594 71.234375 62.171875 C 71.234375 63.824219 71.234375 65.476562 71.234375 67.128906 C 71.234375 68.515625 71.234375 69.898438 71.238281 71.28125 C 71.238281 74.542969 71.238281 77.804688 71.238281 81.066406 C 71.234375 84.429688 71.238281 87.789062 71.242188 91.152344 C 71.246094 94.046875 71.246094 96.941406 71.246094 99.835938 C 71.246094 101.558594 71.246094 103.285156 71.246094 105.011719 C 71.25 106.628906 71.25 108.25 71.246094 109.867188 C 71.246094 110.460938 71.246094 111.054688 71.246094 111.648438 C 71.25 112.460938 71.246094 113.269531 71.246094 114.082031 C 71.246094 114.316406 71.25 114.550781 71.25 114.792969 C 71.238281 116.402344 71.046875 117.351562 70.554688 118.679688 C 70.066406 119.132812 69.542969 119.011719 69.007812 119.015625 C 68.882812 119.019531 68.753906 119.019531 68.621094 119.023438 C 68.199219 119.027344 67.773438 119.03125 67.351562 119.035156 C 67.207031 119.035156 67.0625 119.035156 66.914062 119.039062 C 66.148438 119.042969 65.382812 119.046875 64.617188 119.050781 C 63.828125 119.054688 63.035156 119.0625 62.246094 119.074219 C 61.636719 119.082031 61.027344 119.085938 60.421875 119.085938 C 60.128906 119.085938 59.839844 119.089844 59.546875 119.097656 C 59.140625 119.101562 58.730469 119.101562 58.324219 119.101562 C 58.140625 119.105469 58.140625 119.105469 57.957031 119.113281 C 57.40625 119.101562 57.058594 119 56.582031 118.472656 C 55.945312 117.179688 55.90625 115.878906 55.910156 114.183594 C 55.910156 113.964844 55.910156 113.742188 55.910156 113.519531 C 55.90625 112.785156 55.910156 112.050781 55.910156 111.320312 C 55.910156 110.792969 55.90625 110.269531 55.90625 109.742188 C 55.90625 108.609375 55.902344 107.476562 55.902344 106.347656 C 55.902344 104.554688 55.902344 102.765625 55.898438 100.972656 C 55.890625 96.523438 55.886719 92.078125 55.882812 87.628906 C 55.878906 84.171875 55.875 80.714844 55.871094 77.257812 C 55.867188 75.480469 55.863281 73.699219 55.863281 71.921875 C 55.863281 70.8125 55.863281 69.703125 55.859375 68.59375 C 55.859375 68.082031 55.859375 67.570312 55.859375 67.054688 C 55.859375 66.355469 55.859375 65.652344 55.855469 64.949219 C 55.855469 64.75 55.859375 64.546875 55.859375 64.339844 C 55.847656 62.824219 55.644531 61.722656 55.335938 60.34375 C 55.289062 60.121094 55.242188 59.894531 55.191406 59.664062 C 54.972656 59.035156 54.785156 58.902344 54.414062 58.621094 C 54.238281 58.472656 54.066406 58.324219 53.886719 58.171875 C 53.132812 57.605469 52.488281 57.433594 51.679688 57.429688 C 51.503906 57.429688 51.324219 57.425781 51.140625 57.425781 C 50.949219 57.425781 50.753906 57.425781 50.554688 57.425781 C 50.347656 57.421875 50.140625 57.421875 49.933594 57.421875 C 49.371094 57.417969 48.808594 57.414062 48.25 57.414062 C 47.898438 57.414062 47.546875 57.410156 47.195312 57.410156 C 46.09375 57.40625 44.996094 57.402344 43.894531 57.402344 C 42.628906 57.402344 41.359375 57.394531 40.09375 57.386719 C 39.109375 57.382812 38.128906 57.378906 37.148438 57.378906 C 36.5625 57.378906 35.976562 57.375 35.390625 57.371094 C 34.839844 57.367188 34.289062 57.367188 33.738281 57.367188 C 33.441406 57.367188 33.144531 57.363281 32.847656 57.359375 C 31.683594 57.371094 30.679688 57.4375 29.761719 58.925781 C 29.097656 61.171875 29.144531 63.914062 29.109375 66.414062 C 29.101562 66.746094 29.097656 67.074219 29.089844 67.414062 C 29.078125 68.21875 29.0625 69.023438 29.050781 69.828125 C 29.136719 69.828125 29.21875 69.824219 29.304688 69.824219 C 31.351562 69.804688 33.398438 69.792969 35.445312 69.78125 C 36.433594 69.777344 37.425781 69.773438 38.414062 69.761719 C 39.367188 69.753906 40.324219 69.746094 41.277344 69.746094 C 41.640625 69.746094 42.007812 69.742188 42.371094 69.738281 C 42.882812 69.730469 43.390625 69.730469 43.902344 69.730469 C 44.050781 69.726562 44.203125 69.722656 44.359375 69.71875 C 45.199219 69.726562 45.796875 69.808594 46.421875 70.976562 C 46.464844 72.476562 46.46875 73.976562 46.472656 75.476562 C 46.476562 75.984375 46.480469 76.488281 46.488281 76.996094 C 46.496094 77.722656 46.5 78.453125 46.5 79.179688 C 46.503906 79.40625 46.507812 79.632812 46.511719 79.867188 C 46.507812 80.871094 46.484375 81.464844 46.132812 82.246094 C 45.4375 82.992188 44.828125 82.910156 44.042969 82.890625 C 43.878906 82.890625 43.71875 82.890625 43.550781 82.890625 C 43.015625 82.890625 42.480469 82.878906 41.945312 82.871094 C 41.574219 82.867188 41.203125 82.867188 40.832031 82.867188 C 39.855469 82.863281 38.878906 82.851562 37.902344 82.835938 C 36.90625 82.824219 35.910156 82.820312 34.914062 82.816406 C 32.960938 82.800781 31.007812 82.78125 29.050781 82.757812 C 29.070312 83.996094 29.089844 85.238281 29.109375 86.476562 C 29.113281 86.824219 29.117188 87.171875 29.125 87.53125 C 29.132812 90.941406 29.132812 90.941406 29.867188 93.949219 C 30.542969 94.914062 31.09375 95.1875 31.9375 95.191406 C 32.113281 95.195312 32.289062 95.199219 32.472656 95.203125 C 32.757812 95.203125 32.757812 95.203125 33.046875 95.203125 C 33.347656 95.210938 33.652344 95.214844 33.957031 95.21875 C 34.699219 95.234375 35.441406 95.238281 36.183594 95.246094 C 41.410156 95.296875 46.824219 95.71875 51.1875 101.722656 C 51.285156 101.859375 51.386719 101.992188 51.492188 102.132812 C 53.8125 105.519531 54.820312 110.960938 55.265625 116.203125 C 55.355469 117.71875 55.355469 117.71875 55.335938 118.390625 C 54.960938 119.089844 54.761719 119.035156 54.25 119.042969 C 54.140625 119.042969 54.035156 119.039062 53.921875 119.039062 C 53.75 119.039062 53.75 119.039062 53.570312 119.042969 C 53.183594 119.042969 52.792969 119.042969 52.40625 119.039062 C 52.128906 119.039062 51.851562 119.042969 51.570312 119.042969 C 50.816406 119.046875 50.058594 119.042969 49.300781 119.042969 C 48.507812 119.042969 47.714844 119.042969 46.921875 119.042969 C 45.585938 119.042969 44.25 119.042969 42.917969 119.039062 C 41.378906 119.039062 39.839844 119.039062 38.300781 119.042969 C 36.980469 119.042969 35.65625 119.042969 34.335938 119.042969 C 33.546875 119.042969 32.757812 119.042969 31.96875 119.042969 C 31.222656 119.046875 30.480469 119.042969 29.734375 119.042969 C 29.464844 119.039062 29.191406 119.039062 28.921875 119.042969 C 25.710938 119.054688 22.320312 118.65625 19.859375 114.296875 C 17.191406 108.945312 17.167969 101.949219 17.179688 95.070312 C 17.179688 94.371094 17.179688 93.671875 17.179688 92.972656 C 17.179688 91.472656 17.179688 89.972656 17.183594 88.472656 C 17.1875 86.304688 17.1875 84.132812 17.1875 81.964844 C 17.1875 78.445312 17.191406 74.925781 17.191406 71.40625 C 17.195312 67.988281 17.199219 64.570312 17.199219 61.152344 C 17.199219 60.941406 17.199219 60.730469 17.199219 60.515625 C 17.199219 59.457031 17.199219 58.398438 17.199219 57.339844 C 17.203125 48.570312 17.207031 39.800781 17.214844 31.035156 C 17.570312 30.703125 17.769531 30.710938 18.164062 30.710938 Z M 18.164062 30.710938 "/>
<path style=" stroke:none;fill-rule:nonzero;fill:rgb(17.647059%,17.647059%,18.039216%);fill-opacity:1;" d="M 17.214844 56.609375 C 17.367188 56.75 17.367188 56.75 17.523438 56.898438 C 17.960938 56.933594 18.390625 56.949219 18.828125 56.957031 C 18.960938 56.957031 19.097656 56.960938 19.238281 56.964844 C 19.683594 56.972656 20.132812 56.980469 20.578125 56.988281 C 20.890625 56.992188 21.199219 57 21.507812 57.003906 C 22.324219 57.019531 23.140625 57.035156 23.957031 57.050781 C 24.789062 57.0625 25.621094 57.078125 26.453125 57.097656 C 28.089844 57.125 29.722656 57.15625 31.355469 57.183594 C 31.21875 57.3125 31.21875 57.3125 31.078125 57.441406 C 30.222656 58.25 29.703125 58.910156 29.359375 60.632812 C 29.167969 62.527344 29.15625 64.4375 29.117188 66.363281 C 29.109375 66.863281 29.109375 66.863281 29.097656 67.371094 C 29.082031 68.191406 29.066406 69.007812 29.050781 69.828125 C 29.175781 69.828125 29.175781 69.828125 29.304688 69.824219 C 31.351562 69.804688 33.398438 69.792969 35.445312 69.78125 C 36.433594 69.777344 37.425781 69.773438 38.414062 69.761719 C 39.367188 69.753906 40.324219 69.746094 41.277344 69.746094 C 41.640625 69.746094 42.007812 69.742188 42.371094 69.738281 C 42.882812 69.730469 43.390625 69.730469 43.902344 69.730469 C 44.128906 69.726562 44.128906 69.726562 44.359375 69.71875 C 45.199219 69.726562 45.796875 69.808594 46.421875 70.976562 C 46.464844 72.476562 46.46875 73.976562 46.472656 75.476562 C 46.476562 75.984375 46.480469 76.488281 46.488281 76.996094 C 46.496094 77.722656 46.5 78.453125 46.5 79.179688 C 46.503906 79.40625 46.507812 79.632812 46.511719 79.867188 C 46.507812 80.871094 46.484375 81.464844 46.132812 82.246094 C 45.4375 82.992188 44.828125 82.910156 44.042969 82.890625 C 43.878906 82.890625 43.71875 82.890625 43.550781 82.890625 C 43.015625 82.890625 42.480469 82.878906 41.945312 82.871094 C 41.574219 82.867188 41.203125 82.867188 40.832031 82.867188 C 39.855469 82.863281 38.878906 82.851562 37.902344 82.835938 C 36.90625 82.824219 35.910156 82.820312 34.914062 82.816406 C 32.960938 82.800781 31.007812 82.78125 29.050781 82.757812 C 29.070312 83.996094 29.089844 85.238281 29.109375 86.476562 C 29.113281 86.824219 29.117188 87.171875 29.125 87.53125 C 29.132812 90.941406 29.132812 90.941406 29.867188 93.949219 C 30.542969 94.914062 31.09375 95.1875 31.9375 95.191406 C 32.113281 95.195312 32.289062 95.199219 32.472656 95.203125 C 32.757812 95.203125 32.757812 95.203125 33.046875 95.203125 C 33.347656 95.210938 33.652344 95.214844 33.957031 95.21875 C 34.699219 95.234375 35.441406 95.238281 36.183594 95.246094 C 41.410156 95.296875 46.824219 95.71875 51.1875 101.722656 C 51.285156 101.859375 51.386719 101.992188 51.492188 102.132812 C 53.8125 105.519531 54.820312 110.960938 55.265625 116.203125 C 55.355469 117.71875 55.355469 117.71875 55.335938 118.390625 C 54.960938 119.089844 54.761719 119.035156 54.25 119.042969 C 54.140625 119.042969 54.035156 119.039062 53.921875 119.039062 C 53.75 119.039062 53.75 119.039062 53.570312 119.042969 C 53.183594 119.042969 52.792969 119.042969 52.40625 119.039062 C 52.128906 119.039062 51.851562 119.042969 51.570312 119.042969 C 50.816406 119.046875 50.058594 119.042969 49.300781 119.042969 C 48.507812 119.042969 47.714844 119.042969 46.921875 119.042969 C 45.585938 119.042969 44.25 119.042969 42.917969 119.039062 C 41.378906 119.039062 39.839844 119.039062 38.300781 119.042969 C 36.980469 119.042969 35.65625 119.042969 34.335938 119.042969 C 33.546875 119.042969 32.757812 119.042969 31.96875 119.042969 C 31.222656 119.046875 30.480469 119.042969 29.734375 119.042969 C 29.464844 119.039062 29.191406 119.039062 28.921875 119.042969 C 25.710938 119.054688 22.320312 118.65625 19.859375 114.296875 C 17.535156 109.640625 17.164062 103.527344 17.179688 97.417969 C 17.179688 96.972656 17.179688 96.523438 17.179688 96.074219 C 17.179688 94.871094 17.183594 93.667969 17.183594 92.464844 C 17.1875 91.203125 17.1875 89.941406 17.1875 88.675781 C 17.1875 86.292969 17.191406 83.90625 17.195312 81.519531 C 17.195312 78.804688 17.199219 76.085938 17.199219 73.367188 C 17.203125 67.78125 17.207031 62.195312 17.214844 56.609375 Z M 17.214844 56.609375 "/>
<path style=" stroke:none;fill-rule:nonzero;fill:rgb(94.901961%,56.470591%,12.54902%);fill-opacity:1;" d="M 18.160156 30.710938 C 18.296875 30.710938 18.429688 30.710938 18.570312 30.710938 C 18.71875 30.710938 18.867188 30.710938 19.019531 30.710938 C 19.253906 30.710938 19.253906 30.710938 19.496094 30.710938 C 20.023438 30.710938 20.554688 30.714844 21.085938 30.714844 C 21.464844 30.714844 21.84375 30.714844 22.222656 30.714844 C 23.039062 30.714844 23.855469 30.714844 24.671875 30.714844 C 25.851562 30.71875 27.035156 30.71875 28.214844 30.71875 C 30.132812 30.722656 32.046875 30.722656 33.964844 30.726562 C 35.824219 30.726562 37.6875 30.730469 39.550781 30.730469 C 39.664062 30.730469 39.78125 30.730469 39.902344 30.730469 C 40.808594 30.730469 41.714844 30.734375 42.621094 30.734375 C 47.0625 30.734375 51.507812 30.742188 55.949219 30.746094 C 55.949219 41.273438 55.949219 51.800781 55.949219 62.644531 C 55.847656 62.265625 55.746094 61.886719 55.644531 61.496094 C 55.535156 61.199219 55.429688 60.902344 55.316406 60.597656 C 55.027344 59.769531 55.027344 59.769531 55.027344 59.195312 C 53.695312 57.898438 52.628906 57.429688 51.148438 57.429688 C 51.003906 57.429688 50.859375 57.425781 50.714844 57.425781 C 50.230469 57.421875 49.75 57.421875 49.269531 57.421875 C 48.925781 57.417969 48.578125 57.417969 48.234375 57.414062 C 47.492188 57.410156 46.75 57.40625 46.007812 57.40625 C 44.832031 57.402344 43.660156 57.394531 42.488281 57.386719 C 40.84375 57.375 39.199219 57.367188 37.554688 57.359375 C 37.449219 57.359375 37.347656 57.355469 37.238281 57.355469 C 35.757812 57.347656 34.277344 57.34375 32.792969 57.335938 C 32.6875 57.335938 32.585938 57.335938 32.476562 57.335938 C 32.371094 57.332031 32.269531 57.332031 32.160156 57.332031 C 30.425781 57.324219 28.6875 57.316406 26.949219 57.304688 C 25.78125 57.296875 24.613281 57.289062 23.445312 57.289062 C 22.722656 57.285156 21.996094 57.28125 21.273438 57.273438 C 20.933594 57.273438 20.597656 57.269531 20.261719 57.269531 C 19.800781 57.269531 19.34375 57.265625 18.886719 57.261719 C 18.75 57.261719 18.617188 57.261719 18.476562 57.265625 C 17.558594 57.25 17.558594 57.25 17.214844 56.609375 C 17.1875 55.796875 17.175781 55.011719 17.179688 54.195312 C 17.179688 53.945312 17.179688 53.695312 17.179688 53.441406 C 17.179688 52.613281 17.183594 51.785156 17.1875 50.957031 C 17.1875 50.386719 17.1875 49.8125 17.1875 49.242188 C 17.1875 47.730469 17.191406 46.222656 17.195312 44.714844 C 17.199219 43.175781 17.199219 41.636719 17.199219 40.097656 C 17.203125 37.078125 17.210938 34.054688 17.214844 31.035156 C 17.570312 30.703125 17.765625 30.710938 18.160156 30.710938 Z M 18.160156 30.710938 "/>
<path style=" stroke:none;fill-rule:nonzero;fill:rgb(92.156863%,38.431373%,18.039216%);fill-opacity:1;" d="M 154.171875 30.460938 C 156.503906 30.460938 158.839844 30.460938 161.242188 30.460938 C 161.25 36.328125 161.253906 42.195312 161.257812 48.0625 C 161.261719 50.789062 161.261719 53.511719 161.265625 56.238281 C 161.269531 58.617188 161.269531 60.992188 161.273438 63.371094 C 161.273438 64.628906 161.273438 65.882812 161.273438 67.140625 C 161.277344 68.328125 161.277344 69.515625 161.277344 70.703125 C 161.277344 71.132812 161.277344 71.566406 161.28125 71.996094 C 161.285156 74.316406 161.238281 76.597656 161.105469 78.902344 C 161.09375 79.113281 161.078125 79.324219 161.066406 79.539062 C 160.769531 84.222656 159.804688 88.449219 158.324219 92.242188 C 158.25 92.425781 158.179688 92.613281 158.109375 92.804688 C 156.160156 97.488281 152.933594 99.875 149.894531 100.742188 C 145.929688 101.597656 141.820312 100.355469 138.597656 95.726562 C 135.800781 91.304688 134.273438 84.902344 133.882812 78.160156 C 133.691406 70.886719 134.132812 63.546875 136.796875 57.832031 C 138.832031 53.632812 141.574219 50.613281 144.648438 50.230469 C 145.171875 50.1875 145.695312 50.167969 146.21875 50.160156 C 146.382812 50.160156 146.546875 50.15625 146.71875 50.152344 C 149.402344 50.207031 151.628906 51.988281 153.554688 55.421875 C 153.863281 56.035156 153.863281 56.035156 154.019531 56.609375 C 154.09375 43.664062 154.09375 43.664062 154.171875 30.460938 Z M 143.566406 64.082031 C 143.472656 64.21875 143.375 64.355469 143.277344 64.496094 C 142.027344 66.554688 141.210938 70.035156 141.074219 73.109375 C 141.058594 73.867188 141.054688 74.621094 141.058594 75.378906 C 141.058594 75.644531 141.058594 75.910156 141.0625 76.1875 C 141.078125 78.105469 141.171875 79.820312 141.566406 81.609375 C 141.644531 81.96875 141.644531 81.96875 141.722656 82.335938 C 142.421875 85.28125 143.507812 87.441406 145.089844 88.757812 C 146.722656 89.867188 148.355469 89.902344 150 88.78125 C 151.679688 87.308594 152.746094 85.066406 153.449219 81.847656 C 154.25 77.488281 154.320312 72.839844 153.332031 68.558594 C 152.414062 65.15625 151.3125 63.1875 149.410156 61.855469 C 147.351562 60.699219 145.214844 61.617188 143.566406 64.082031 Z M 143.566406 64.082031 "/>
<path style=" stroke:none;fill-rule:nonzero;fill:rgb(92.156863%,38.431373%,18.039216%);fill-opacity:1;" d="M 104.984375 51.4375 C 107.265625 51.4375 109.550781 51.4375 111.902344 51.4375 C 112.078125 52.09375 112.074219 52.457031 112.074219 53.1875 C 112.074219 53.433594 112.078125 53.679688 112.078125 53.933594 C 112.078125 54.203125 112.078125 54.472656 112.078125 54.753906 C 112.078125 55.039062 112.078125 55.320312 112.078125 55.613281 C 112.078125 56.234375 112.082031 56.855469 112.082031 57.472656 C 112.082031 58.457031 112.085938 59.4375 112.085938 60.421875 C 112.09375 63.214844 112.101562 66.007812 112.105469 68.800781 C 112.105469 70.507812 112.113281 72.214844 112.117188 73.921875 C 112.121094 74.570312 112.121094 75.222656 112.121094 75.871094 C 112.121094 76.785156 112.125 77.695312 112.128906 78.609375 C 112.125 78.875 112.125 79.140625 112.125 79.414062 C 112.144531 82.160156 112.730469 84.511719 113.746094 86.496094 C 115.089844 88.574219 116.414062 89.554688 118.167969 89.308594 C 119.179688 89.027344 119.96875 88.40625 120.816406 87.355469 C 121.019531 87.105469 121.019531 87.105469 121.230469 86.851562 C 122.355469 84.808594 122.960938 82.234375 123.027344 79.300781 C 123.03125 78.789062 123.035156 78.273438 123.03125 77.761719 C 123.035156 77.476562 123.035156 77.195312 123.035156 76.902344 C 123.039062 75.976562 123.042969 75.054688 123.042969 74.128906 C 123.042969 73.480469 123.046875 72.835938 123.050781 72.191406 C 123.054688 70.496094 123.058594 68.804688 123.0625 67.113281 C 123.066406 64.394531 123.078125 61.675781 123.085938 58.957031 C 123.089844 58.007812 123.09375 57.058594 123.09375 56.109375 C 123.09375 55.53125 123.097656 54.953125 123.097656 54.375 C 123.097656 54.109375 123.097656 53.84375 123.097656 53.570312 C 123.105469 51.757812 123.105469 51.757812 123.277344 51.4375 C 123.488281 51.410156 123.699219 51.398438 123.910156 51.398438 C 124.046875 51.398438 124.183594 51.398438 124.320312 51.398438 C 124.46875 51.398438 124.613281 51.398438 124.765625 51.398438 C 124.914062 51.398438 125.0625 51.398438 125.21875 51.398438 C 125.535156 51.398438 125.851562 51.398438 126.167969 51.398438 C 126.65625 51.402344 127.140625 51.398438 127.628906 51.398438 C 127.9375 51.398438 128.242188 51.398438 128.550781 51.398438 C 128.695312 51.398438 128.84375 51.398438 128.996094 51.398438 C 129.128906 51.398438 129.265625 51.398438 129.402344 51.398438 C 129.523438 51.398438 129.640625 51.398438 129.765625 51.398438 C 130.039062 51.4375 130.039062 51.4375 130.191406 51.722656 C 130.207031 52.109375 130.214844 52.492188 130.214844 52.878906 C 130.214844 53.125 130.214844 53.375 130.21875 53.628906 C 130.21875 54.042969 130.21875 54.042969 130.21875 54.460938 C 130.21875 54.75 130.21875 55.039062 130.21875 55.335938 C 130.222656 56.292969 130.222656 57.253906 130.222656 58.210938 C 130.226562 58.878906 130.226562 59.542969 130.226562 60.210938 C 130.230469 61.613281 130.230469 63.015625 130.230469 64.414062 C 130.230469 66.203125 130.234375 67.992188 130.238281 69.777344 C 130.242188 71.160156 130.242188 72.539062 130.242188 73.917969 C 130.242188 74.574219 130.246094 75.234375 130.246094 75.890625 C 130.265625 83.140625 129.640625 89.46875 126.828125 94.855469 C 125.3125 97.597656 123.347656 99.355469 121.277344 100 C 121.226562 106.164062 121.175781 112.328125 121.125 118.679688 C 120.773438 119.003906 120.582031 119.003906 120.195312 119.007812 C 120.066406 119.007812 119.9375 119.011719 119.804688 119.011719 C 119.667969 119.011719 119.527344 119.011719 119.386719 119.015625 C 119.242188 119.015625 119.101562 119.015625 118.953125 119.015625 C 118.652344 119.019531 118.351562 119.019531 118.050781 119.019531 C 117.589844 119.019531 117.128906 119.023438 116.667969 119.03125 C 116.375 119.03125 116.085938 119.03125 115.792969 119.03125 C 115.652344 119.035156 115.515625 119.035156 115.371094 119.039062 C 115.242188 119.039062 115.117188 119.035156 114.984375 119.035156 C 114.871094 119.035156 114.757812 119.035156 114.640625 119.035156 C 114.359375 118.964844 114.359375 118.964844 114.054688 118.390625 C 114.011719 117.632812 114.011719 117.632812 114.003906 116.664062 C 114 116.300781 114 115.9375 113.996094 115.566406 C 113.992188 115.167969 113.992188 114.773438 113.988281 114.375 C 113.988281 113.96875 113.984375 113.5625 113.980469 113.160156 C 113.972656 112.09375 113.96875 111.027344 113.960938 109.960938 C 113.953125 108.871094 113.945312 107.78125 113.941406 106.695312 C 113.925781 104.558594 113.910156 102.421875 113.898438 100.289062 C 113.714844 100.175781 113.527344 100.066406 113.335938 99.953125 C 113.085938 99.800781 112.835938 99.648438 112.585938 99.5 C 112.464844 99.425781 112.34375 99.355469 112.214844 99.28125 C 109.5625 97.660156 107.46875 94.109375 106.167969 89.539062 C 105.34375 86.261719 104.960938 83.296875 104.96875 79.6875 C 104.96875 79.382812 104.96875 79.074219 104.96875 78.761719 C 104.96875 77.753906 104.96875 76.746094 104.96875 75.738281 C 104.96875 75.039062 104.96875 74.339844 104.96875 73.640625 C 104.972656 71.800781 104.972656 69.960938 104.972656 68.121094 C 104.976562 66.242188 104.976562 64.363281 104.976562 62.488281 C 104.980469 58.804688 104.980469 55.121094 104.984375 51.4375 Z M 104.984375 51.4375 "/>
<path style=" stroke:none;fill-rule:nonzero;fill:rgb(95.294118%,56.862748%,12.54902%);fill-opacity:1;" d="M 282.828125 52.300781 C 285.109375 52.300781 287.394531 52.300781 289.746094 52.300781 C 289.886719 53.085938 289.917969 53.546875 289.917969 54.359375 C 289.917969 54.605469 289.921875 54.847656 289.921875 55.097656 C 289.921875 55.367188 289.921875 55.632812 289.921875 55.910156 C 289.921875 56.191406 289.921875 56.472656 289.921875 56.761719 C 289.921875 57.375 289.925781 57.988281 289.925781 58.601562 C 289.925781 59.574219 289.929688 60.542969 289.929688 61.515625 C 289.9375 64.277344 289.945312 67.039062 289.949219 69.800781 C 289.949219 71.488281 289.957031 73.179688 289.960938 74.867188 C 289.964844 75.511719 289.964844 76.152344 289.964844 76.796875 C 289.964844 77.699219 289.96875 78.597656 289.972656 79.5 C 289.96875 79.765625 289.96875 80.027344 289.96875 80.300781 C 289.988281 83.109375 290.613281 85.265625 291.589844 87.355469 C 292.722656 89.363281 294.050781 90.0625 295.585938 90.230469 C 296.761719 90.117188 297.6875 89.421875 298.660156 88.21875 C 298.863281 87.96875 298.863281 87.96875 299.074219 87.714844 C 300.199219 85.671875 300.804688 83.097656 300.871094 80.164062 C 300.875 79.648438 300.878906 79.136719 300.875 78.625 C 300.878906 78.339844 300.878906 78.058594 300.878906 77.765625 C 300.882812 76.839844 300.886719 75.914062 300.886719 74.988281 C 300.886719 74.34375 300.890625 73.699219 300.894531 73.050781 C 300.898438 71.359375 300.902344 69.667969 300.90625 67.976562 C 300.910156 65.257812 300.921875 62.539062 300.929688 59.820312 C 300.933594 58.871094 300.933594 57.921875 300.9375 56.96875 C 300.9375 56.390625 300.941406 55.816406 300.941406 55.238281 C 300.941406 54.972656 300.941406 54.707031 300.941406 54.433594 C 300.949219 52.617188 300.949219 52.617188 301.121094 52.300781 C 301.332031 52.269531 301.542969 52.261719 301.753906 52.261719 C 301.890625 52.261719 302.027344 52.261719 302.164062 52.257812 C 302.3125 52.257812 302.457031 52.261719 302.609375 52.261719 C 302.757812 52.261719 302.90625 52.261719 303.0625 52.261719 C 303.378906 52.257812 303.695312 52.261719 304.011719 52.261719 C 304.5 52.261719 304.984375 52.261719 305.472656 52.257812 C 305.78125 52.257812 306.085938 52.261719 306.394531 52.261719 C 306.539062 52.261719 306.6875 52.257812 306.839844 52.257812 C 306.972656 52.261719 307.109375 52.261719 307.246094 52.261719 C 307.367188 52.261719 307.484375 52.261719 307.609375 52.261719 C 307.882812 52.300781 307.882812 52.300781 308.035156 52.585938 C 308.050781 52.96875 308.058594 53.355469 308.058594 53.738281 C 308.058594 53.988281 308.058594 54.234375 308.0625 54.492188 C 308.0625 54.902344 308.0625 54.902344 308.0625 55.324219 C 308.0625 55.613281 308.0625 55.902344 308.0625 56.195312 C 308.066406 57.15625 308.066406 58.113281 308.066406 59.074219 C 308.070312 59.738281 308.070312 60.40625 308.070312 61.074219 C 308.074219 62.472656 308.074219 63.875 308.074219 65.277344 C 308.074219 67.066406 308.078125 68.851562 308.082031 70.640625 C 308.085938 72.019531 308.085938 73.398438 308.085938 74.777344 C 308.085938 75.4375 308.089844 76.097656 308.089844 76.753906 C 308.109375 84.003906 307.484375 90.328125 304.671875 95.71875 C 303.15625 98.457031 301.191406 100.21875 299.121094 100.863281 C 299.070312 107.027344 299.019531 113.191406 298.96875 119.539062 C 298.617188 119.867188 298.425781 119.867188 298.039062 119.871094 C 297.910156 119.871094 297.78125 119.871094 297.648438 119.875 C 297.511719 119.875 297.371094 119.875 297.230469 119.875 C 297.085938 119.875 296.945312 119.878906 296.796875 119.878906 C 296.496094 119.878906 296.195312 119.882812 295.894531 119.878906 C 295.433594 119.882812 294.972656 119.886719 294.511719 119.890625 C 294.21875 119.894531 293.929688 119.894531 293.636719 119.894531 C 293.496094 119.894531 293.359375 119.898438 293.214844 119.898438 C 293.085938 119.898438 292.960938 119.898438 292.828125 119.898438 C 292.714844 119.898438 292.601562 119.898438 292.484375 119.898438 C 292.203125 119.828125 292.203125 119.828125 291.898438 119.253906 C 291.855469 118.484375 291.855469 118.484375 291.847656 117.5 C 291.84375 117.132812 291.84375 116.761719 291.839844 116.382812 C 291.835938 115.980469 291.835938 115.578125 291.832031 115.171875 C 291.832031 114.761719 291.828125 114.351562 291.824219 113.9375 C 291.816406 112.855469 291.8125 111.773438 291.804688 110.6875 C 291.796875 109.582031 291.789062 108.476562 291.78125 107.371094 C 291.769531 105.203125 291.753906 103.03125 291.742188 100.863281 C 291.578125 100.820312 291.410156 100.78125 291.238281 100.738281 C 288.714844 100.015625 286.59375 96.953125 284.980469 93.390625 C 283.503906 89.558594 282.800781 85.246094 282.8125 80.550781 C 282.8125 80.242188 282.8125 79.9375 282.8125 79.625 C 282.8125 78.617188 282.8125 77.609375 282.8125 76.601562 C 282.8125 75.902344 282.8125 75.199219 282.8125 74.5 C 282.816406 72.660156 282.816406 70.820312 282.816406 68.984375 C 282.820312 67.105469 282.820312 65.226562 282.820312 63.347656 C 282.824219 59.664062 282.824219 55.980469 282.828125 52.300781 Z M 282.828125 52.300781 "/>
<path style=" stroke:none;fill-rule:nonzero;fill:rgb(95.294118%,56.862748%,12.54902%);fill-opacity:1;" d="M 242.863281 52.011719 C 243.03125 52.105469 243.195312 52.199219 243.367188 52.296875 C 246.375 54.234375 248.855469 58.261719 250.292969 63.554688 C 251.308594 67.5 251.804688 71.628906 251.796875 76.011719 C 251.796875 76.277344 251.796875 76.542969 251.796875 76.816406 C 251.796875 77.691406 251.792969 78.570312 251.792969 79.445312 C 251.792969 80.054688 251.792969 80.664062 251.792969 81.269531 C 251.792969 82.871094 251.789062 84.46875 251.789062 86.070312 C 251.789062 87.988281 251.785156 89.910156 251.785156 91.832031 C 251.785156 94.746094 251.78125 97.660156 251.777344 100.574219 C 249.445312 100.574219 247.113281 100.574219 244.707031 100.574219 C 244.65625 98.203125 244.605469 95.832031 244.554688 93.390625 C 244.292969 94.101562 244.292969 94.101562 244.027344 94.828125 C 242.570312 98.527344 240.65625 100.777344 238.226562 101.597656 C 234.808594 102.324219 231.753906 101.175781 229.03125 97.125 C 226.289062 92.785156 224.871094 86.382812 224.457031 79.8125 C 224.441406 79.359375 224.425781 78.902344 224.417969 78.449219 C 224.410156 78.171875 224.40625 77.894531 224.398438 77.605469 C 224.3125 69.875 225.578125 63.226562 228.433594 57.597656 C 232.035156 51.015625 238.132812 49.253906 242.863281 52.011719 Z M 233.292969 66.46875 C 231.792969 69.96875 231.410156 74.371094 231.640625 78.734375 C 231.855469 81.40625 232.339844 83.726562 233.179688 85.917969 C 233.289062 86.222656 233.402344 86.523438 233.515625 86.835938 C 234.890625 89.40625 236.488281 90.464844 238.40625 90.515625 C 240.105469 90.332031 241.621094 89.148438 242.777344 86.769531 C 244.476562 82.773438 244.804688 78.230469 244.554688 73.277344 C 244.214844 69.730469 243.277344 66.65625 241.789062 64.367188 C 238.996094 60.777344 235.542969 61.957031 233.292969 66.46875 Z M 233.292969 66.46875 "/>
<path style=" stroke:none;fill-rule:nonzero;fill:rgb(95.294118%,56.862748%,12.54902%);fill-opacity:1;" d="M 217.707031 54.882812 C 220.550781 58.882812 221.699219 64.734375 222.363281 71.039062 C 222.449219 72.71875 222.441406 74.390625 222.4375 76.078125 C 222.441406 76.429688 222.441406 76.785156 222.441406 77.148438 C 222.441406 77.65625 222.441406 77.65625 222.441406 78.175781 C 222.441406 78.480469 222.441406 78.789062 222.441406 79.105469 C 222.417969 79.886719 222.417969 79.886719 222.265625 80.746094 C 216.535156 80.746094 210.800781 80.746094 204.898438 80.746094 C 205.90625 84.515625 206.542969 86.527344 208.625 87.996094 C 210.15625 88.917969 211.589844 89.125 213.1875 89.171875 C 213.359375 89.175781 213.53125 89.183594 213.710938 89.191406 C 214.257812 89.207031 214.800781 89.226562 215.347656 89.242188 C 215.722656 89.253906 216.09375 89.265625 216.464844 89.28125 C 217.375 89.3125 218.28125 89.339844 219.191406 89.367188 C 219.191406 93.066406 219.191406 96.765625 219.191406 100.574219 C 218.039062 100.59375 216.882812 100.609375 215.730469 100.621094 C 215.195312 100.625 214.65625 100.628906 214.117188 100.640625 C 209.421875 100.722656 204.765625 100.085938 201.199219 93.679688 C 200.996094 93.300781 200.792969 92.914062 200.59375 92.527344 C 200.492188 92.339844 200.390625 92.152344 200.285156 91.957031 C 197.78125 87.039062 197.285156 80.625 197.324219 74.117188 C 197.402344 68.59375 198.410156 63.476562 200.285156 59.195312 C 200.410156 58.890625 200.410156 58.890625 200.539062 58.582031 C 204.484375 49.453125 212.707031 48.648438 217.707031 54.882812 Z M 207.511719 63.21875 C 207.414062 63.3125 207.316406 63.40625 207.214844 63.503906 C 205.832031 65.070312 205.257812 68.046875 204.839844 70.816406 C 204.738281 71.472656 204.738281 71.472656 204.742188 71.839844 C 208.242188 71.839844 211.742188 71.839844 215.347656 71.839844 C 215.160156 68.652344 214.820312 66.171875 213.523438 63.972656 C 211.792969 61.5 209.40625 61.257812 207.511719 63.21875 Z M 207.511719 63.21875 "/>
<path style=" stroke:none;fill-rule:nonzero;fill:rgb(92.156863%,38.431373%,18.039216%);fill-opacity:1;" d="M 184.605469 53.449219 C 185.273438 54.40625 185.863281 55.488281 186.453125 56.609375 C 186.554688 56.792969 186.65625 56.972656 186.761719 57.160156 C 188.804688 61.058594 189.695312 67.667969 189.699219 72.976562 C 189.699219 73.34375 189.699219 73.710938 189.699219 74.089844 C 189.699219 74.464844 189.699219 74.84375 189.699219 75.234375 C 189.699219 75.621094 189.699219 76.007812 189.699219 76.394531 C 189.699219 76.945312 189.699219 76.945312 189.699219 77.503906 C 189.699219 77.835938 189.699219 78.167969 189.699219 78.511719 C 189.679688 79.308594 189.679688 79.308594 189.527344 79.886719 C 183.84375 79.980469 178.164062 80.074219 172.308594 80.171875 C 173.414062 84.296875 174.210938 86.085938 176.496094 87.582031 C 177.824219 88.253906 179.21875 88.269531 180.582031 88.308594 C 180.75 88.316406 180.917969 88.320312 181.09375 88.328125 C 181.628906 88.347656 182.160156 88.363281 182.695312 88.378906 C 183.058594 88.390625 183.421875 88.40625 183.785156 88.417969 C 184.675781 88.449219 185.5625 88.476562 186.453125 88.503906 C 186.453125 92.203125 186.453125 95.902344 186.453125 99.710938 C 185.296875 99.730469 184.144531 99.75 182.992188 99.757812 C 182.453125 99.761719 181.914062 99.769531 181.378906 99.777344 C 176.566406 99.863281 171.988281 99.070312 168.335938 92.613281 C 166.523438 89.253906 165.292969 85.144531 164.777344 80.460938 C 164.734375 80.089844 164.734375 80.089844 164.691406 79.714844 C 164.207031 72.777344 164.78125 65.160156 167.082031 59.484375 C 167.519531 58.476562 167.980469 57.535156 168.46875 56.609375 C 168.582031 56.386719 168.699219 56.164062 168.816406 55.9375 C 172.730469 48.847656 180.074219 47.933594 184.605469 53.449219 Z M 173.539062 64.367188 C 172.675781 66.375 172.15625 68.382812 172.15625 70.976562 C 175.605469 70.976562 179.054688 70.976562 182.609375 70.976562 C 182.441406 67.835938 182.082031 65.507812 180.917969 63.21875 C 178.671875 59.847656 175.449219 60.476562 173.539062 64.367188 Z M 173.539062 64.367188 "/>
<path style=" stroke:none;fill-rule:nonzero;fill:rgb(95.294118%,56.862748%,12.54902%);fill-opacity:1;" d="M 263.882812 52.265625 C 264.015625 52.265625 264.148438 52.265625 264.285156 52.265625 C 264.726562 52.265625 265.167969 52.269531 265.605469 52.269531 C 265.910156 52.269531 266.21875 52.273438 266.523438 52.273438 C 267.328125 52.273438 268.128906 52.277344 268.933594 52.277344 C 269.898438 52.28125 270.863281 52.285156 271.824219 52.285156 C 273.289062 52.289062 274.753906 52.292969 276.21875 52.300781 C 276.21875 55.996094 276.21875 59.695312 276.21875 63.503906 C 275.363281 63.511719 274.507812 63.519531 273.628906 63.527344 C 273.085938 63.535156 272.542969 63.542969 272 63.550781 C 271.140625 63.566406 270.28125 63.578125 269.421875 63.582031 C 268.726562 63.589844 268.035156 63.597656 267.339844 63.613281 C 267.074219 63.617188 266.8125 63.617188 266.546875 63.617188 C 266.175781 63.617188 265.804688 63.625 265.433594 63.636719 C 265.324219 63.636719 265.21875 63.632812 265.105469 63.632812 C 264.339844 63.660156 263.898438 64.042969 263.308594 64.941406 C 263.039062 65.941406 263.0625 67.015625 263.152344 68.101562 C 263.488281 68.894531 263.75 69.378906 264.230469 69.828125 C 264.445312 69.855469 264.660156 69.871094 264.875 69.871094 C 265.011719 69.875 265.144531 69.878906 265.28125 69.882812 C 265.5 69.886719 265.5 69.886719 265.726562 69.886719 C 266.035156 69.894531 266.347656 69.90625 266.65625 69.914062 C 267.144531 69.925781 267.632812 69.933594 268.121094 69.941406 C 271.21875 69.996094 274.453125 70.171875 276.832031 74.425781 C 278.652344 78.144531 278.816406 82.675781 278.707031 87.488281 C 278.5625 91.035156 277.417969 94.421875 276.066406 96.839844 C 274.335938 99.578125 272.386719 100.625 270.164062 100.605469 C 270.019531 100.605469 269.878906 100.605469 269.730469 100.609375 C 269.261719 100.605469 268.792969 100.605469 268.324219 100.601562 C 267.996094 100.601562 267.671875 100.601562 267.34375 100.601562 C 266.488281 100.601562 265.632812 100.597656 264.773438 100.59375 C 263.898438 100.589844 263.023438 100.589844 262.152344 100.589844 C 260.433594 100.585938 258.71875 100.582031 257.003906 100.574219 C 257.003906 96.875 257.003906 93.179688 257.003906 89.367188 C 257.921875 89.355469 258.835938 89.347656 259.78125 89.335938 C 260.363281 89.328125 260.945312 89.316406 261.527344 89.308594 C 262.449219 89.292969 263.371094 89.277344 264.296875 89.269531 C 265.039062 89.261719 265.785156 89.25 266.527344 89.234375 C 266.8125 89.230469 267.097656 89.226562 267.378906 89.226562 C 267.777344 89.222656 268.175781 89.214844 268.574219 89.203125 C 268.746094 89.207031 268.746094 89.207031 268.925781 89.207031 C 269.757812 89.179688 270.550781 88.925781 271.300781 88.21875 C 271.628906 87.105469 271.691406 86.027344 271.605469 84.769531 C 271.273438 83.488281 270.949219 82.882812 270.238281 82.355469 C 269.617188 82.027344 268.992188 82.070312 268.351562 82.078125 C 268.042969 82.074219 267.734375 82.066406 267.429688 82.0625 C 266.949219 82.058594 266.472656 82.058594 265.992188 82.058594 C 263.035156 82.050781 260.003906 81.753906 257.773438 77.585938 C 256.15625 73.984375 255.785156 69.828125 255.929688 65.230469 C 256.246094 61.128906 257.378906 57.792969 259.070312 55.160156 C 260.574219 53.089844 262.027344 52.25 263.882812 52.265625 Z M 263.882812 52.265625 "/>
<path style=" stroke:none;fill-rule:nonzero;fill:rgb(92.156863%,38.431373%,18.039216%);fill-opacity:1;" d="M 95.636719 51.324219 C 95.933594 51.328125 95.933594 51.328125 96.238281 51.328125 C 96.757812 51.332031 97.277344 51.34375 97.796875 51.359375 C 98.332031 51.371094 98.863281 51.375 99.398438 51.378906 C 100.441406 51.390625 101.484375 51.414062 102.523438 51.4375 C 102.523438 55.136719 102.523438 58.832031 102.523438 62.644531 C 102.066406 62.65625 101.609375 62.671875 101.132812 62.6875 C 100.691406 62.703125 100.246094 62.71875 99.800781 62.734375 C 99.492188 62.746094 99.183594 62.757812 98.875 62.765625 C 98.429688 62.777344 97.984375 62.792969 97.542969 62.8125 C 97.402344 62.816406 97.265625 62.820312 97.125 62.820312 C 96.996094 62.828125 96.863281 62.832031 96.730469 62.839844 C 96.617188 62.84375 96.503906 62.847656 96.386719 62.851562 C 96.011719 62.945312 95.773438 63.109375 95.453125 63.503906 C 95.15625 64.394531 95.109375 65.085938 95.105469 66.125 C 95.101562 66.421875 95.101562 66.71875 95.097656 67.023438 C 95.097656 67.347656 95.097656 67.671875 95.097656 68.003906 C 95.097656 68.515625 95.097656 68.515625 95.09375 69.039062 C 95.089844 69.976562 95.085938 70.914062 95.085938 71.851562 C 95.082031 72.832031 95.078125 73.808594 95.074219 74.789062 C 95.066406 76.644531 95.0625 78.496094 95.054688 80.351562 C 95.050781 82.464844 95.042969 84.574219 95.035156 86.6875 C 95.019531 91.027344 95.007812 95.371094 94.992188 99.710938 C 92.660156 99.710938 90.328125 99.710938 87.921875 99.710938 C 87.914062 94.902344 87.902344 90.089844 87.898438 85.28125 C 87.894531 83.046875 87.894531 80.8125 87.886719 78.578125 C 87.882812 76.628906 87.878906 74.679688 87.878906 72.730469 C 87.878906 71.699219 87.878906 70.667969 87.875 69.640625 C 87.871094 68.484375 87.871094 67.332031 87.871094 66.175781 C 87.867188 65.839844 87.867188 65.503906 87.867188 65.15625 C 87.875 61.230469 88.375 57.71875 89.8125 54.777344 C 91.445312 51.875 93.453125 51.253906 95.636719 51.324219 Z M 95.636719 51.324219 "/>
<path style=" stroke:none;fill-rule:nonzero;fill:rgb(18.431373%,18.039216%,18.039216%);fill-opacity:1;" d="M 291.742188 100.863281 C 294.179688 100.863281 296.613281 100.863281 299.121094 100.863281 C 299.070312 107.027344 299.019531 113.191406 298.96875 119.539062 C 298.617188 119.867188 298.425781 119.867188 298.039062 119.871094 C 297.910156 119.871094 297.78125 119.871094 297.648438 119.875 C 297.511719 119.875 297.371094 119.875 297.230469 119.875 C 297.085938 119.875 296.945312 119.878906 296.796875 119.878906 C 296.496094 119.878906 296.195312 119.882812 295.894531 119.878906 C 295.433594 119.882812 294.972656 119.886719 294.511719 119.890625 C 294.21875 119.894531 293.929688 119.894531 293.636719 119.894531 C 293.496094 119.894531 293.359375 119.898438 293.214844 119.898438 C 293.023438 119.898438 293.023438 119.898438 292.828125 119.898438 C 292.714844 119.898438 292.601562 119.898438 292.484375 119.898438 C 292.203125 119.828125 292.203125 119.828125 291.898438 119.253906 C 291.855469 118.484375 291.855469 118.484375 291.847656 117.5 C 291.84375 117.132812 291.84375 116.761719 291.839844 116.382812 C 291.835938 115.980469 291.835938 115.578125 291.832031 115.171875 C 291.832031 114.761719 291.828125 114.351562 291.824219 113.9375 C 291.816406 112.855469 291.8125 111.773438 291.804688 110.6875 C 291.796875 109.386719 291.789062 108.089844 291.777344 106.789062 C 291.765625 104.8125 291.753906 102.835938 291.742188 100.863281 Z M 291.742188 100.863281 "/>
<path style=" stroke:none;fill-rule:nonzero;fill:rgb(0%,0%,0%);fill-opacity:1;" d="M 256.628906 110.902344 C 256.816406 110.910156 256.816406 110.910156 257.003906 110.917969 C 257.375 112.828125 257.632812 114.753906 257.871094 116.734375 C 258.003906 117.878906 258.003906 117.878906 258.234375 118.964844 C 258.640625 116.691406 259.046875 114.414062 259.464844 112.070312 C 260.386719 111.78125 260.386719 111.78125 260.695312 112.070312 C 260.828125 112.636719 260.828125 112.636719 260.960938 113.375 C 261.007812 113.644531 261.054688 113.910156 261.101562 114.183594 C 261.152344 114.464844 261.199219 114.742188 261.25 115.03125 C 261.324219 115.449219 261.324219 115.449219 261.402344 115.871094 C 261.613281 117.070312 261.769531 117.976562 261.769531 119.253906 C 261.871094 119.253906 261.972656 119.253906 262.078125 119.253906 C 262.09375 118.988281 262.113281 118.726562 262.128906 118.453125 C 262.246094 116.933594 262.4375 115.449219 262.625 113.953125 C 262.679688 113.515625 262.679688 113.515625 262.734375 113.070312 C 262.820312 112.351562 262.910156 111.636719 263 110.917969 C 263.304688 110.917969 263.609375 110.917969 263.921875 110.917969 C 264.175781 112.367188 263.953125 113.546875 263.738281 114.960938 C 263.6875 115.324219 263.6875 115.324219 263.632812 115.691406 C 262.949219 120.308594 262.949219 120.308594 262.539062 121.839844 C 262.132812 121.839844 261.726562 121.839844 261.308594 121.839844 C 260.902344 119.5625 260.496094 117.289062 260.078125 114.941406 C 259.679688 117.105469 259.679688 117.105469 259.285156 119.265625 C 259.234375 119.535156 259.183594 119.800781 259.132812 120.078125 C 259.082031 120.351562 259.03125 120.628906 258.980469 120.914062 C 258.847656 121.550781 258.847656 121.550781 258.695312 121.839844 C 258.335938 121.851562 257.976562 121.851562 257.621094 121.839844 C 257.113281 119.902344 256.789062 117.960938 256.503906 115.875 C 256.464844 115.585938 256.421875 115.292969 256.378906 114.992188 C 256.039062 112.523438 256.039062 112.523438 256.082031 111.207031 C 256.234375 110.917969 256.234375 110.917969 256.628906 110.902344 Z M 256.628906 110.902344 "/>
<path style=" stroke:none;fill-rule:nonzero;fill:rgb(0%,0%,0%);fill-opacity:1;" d="M 215.195312 106.898438 C 215.550781 106.898438 215.90625 106.898438 216.269531 106.898438 C 216.449219 107.5625 216.449219 107.960938 216.453125 108.699219 C 216.457031 108.953125 216.460938 109.210938 216.460938 109.472656 C 216.46875 110.632812 216.476562 111.796875 216.480469 112.960938 C 216.480469 113.574219 216.484375 114.1875 216.492188 114.800781 C 216.5 115.683594 216.503906 116.570312 216.503906 117.453125 C 216.507812 117.726562 216.511719 118 216.515625 118.28125 C 216.515625 119.605469 216.503906 120.207031 216.066406 121.285156 C 215.421875 122.15625 214.921875 122.179688 214.148438 122.199219 C 213.871094 122.210938 213.871094 122.210938 213.589844 122.222656 C 212.769531 122.078125 212.28125 121.558594 211.699219 120.492188 C 211.019531 118.824219 210.984375 117.035156 211.125 115.035156 C 211.324219 113.191406 211.800781 112.273438 212.582031 111.207031 C 213.082031 110.898438 213.453125 110.882812 213.976562 110.882812 C 214.140625 110.882812 214.300781 110.882812 214.472656 110.882812 C 214.886719 110.917969 214.886719 110.917969 215.195312 111.207031 C 215.195312 109.785156 215.195312 108.363281 215.195312 106.898438 Z M 212.582031 113.792969 C 212.136719 115.140625 212.195312 116.566406 212.273438 118.101562 C 212.519531 119.199219 212.816406 119.773438 213.351562 120.402344 C 213.738281 120.515625 213.738281 120.515625 214.136719 120.472656 C 214.339844 120.46875 214.339844 120.46875 214.542969 120.460938 C 214.894531 120.441406 214.894531 120.441406 215.195312 120.113281 C 215.207031 118.976562 215.21875 117.839844 215.222656 116.703125 C 215.226562 116.378906 215.230469 116.054688 215.234375 115.71875 C 215.238281 115.410156 215.238281 115.101562 215.242188 114.78125 C 215.242188 114.496094 215.246094 114.210938 215.246094 113.917969 C 215.230469 113.6875 215.214844 113.457031 215.195312 113.21875 C 214.304688 112.105469 213.3125 112.300781 212.582031 113.792969 Z M 212.582031 113.792969 "/>
<path style=" stroke:none;fill-rule:nonzero;fill:rgb(0%,0%,0%);fill-opacity:1;" d="M 265.304688 106.898438 C 265.609375 106.898438 265.914062 106.898438 266.226562 106.898438 C 266.527344 107.453125 266.441406 108.46875 266.46875 109.214844 C 266.480469 109.585938 266.492188 109.953125 266.507812 110.335938 C 266.515625 110.625 266.523438 110.910156 266.535156 111.207031 C 266.6875 111.113281 266.839844 111.015625 266.996094 110.917969 C 267.851562 110.777344 268.597656 110.710938 269.386719 111.386719 C 269.933594 112.378906 270.195312 113.304688 270.277344 114.726562 C 270.273438 115.21875 270.273438 115.21875 270.269531 115.722656 C 270.265625 116.257812 270.265625 116.257812 270.265625 116.804688 C 270.261719 117.175781 270.257812 117.542969 270.253906 117.925781 C 270.25 118.488281 270.25 118.488281 270.246094 119.0625 C 270.242188 119.988281 270.234375 120.914062 270.222656 121.839844 C 269.917969 121.851562 269.609375 121.851562 269.300781 121.839844 C 269.035156 121.34375 269.117188 120.667969 269.109375 119.992188 C 269.105469 119.675781 269.101562 119.355469 269.09375 119.027344 C 269.085938 118.355469 269.078125 117.683594 269.070312 117.007812 C 269.0625 116.53125 269.0625 116.53125 269.050781 116.042969 C 269.046875 115.75 269.042969 115.457031 269.039062 115.152344 C 268.992188 114.363281 268.917969 113.882812 268.6875 113.21875 C 268.328125 112.882812 268.097656 112.882812 267.699219 112.878906 C 267.578125 112.875 267.457031 112.867188 267.332031 112.863281 C 266.949219 112.890625 266.949219 112.890625 266.535156 113.503906 C 266.457031 114.367188 266.457031 114.367188 266.457031 115.386719 C 266.449219 115.757812 266.445312 116.132812 266.441406 116.519531 C 266.4375 116.914062 266.433594 117.3125 266.429688 117.707031 C 266.425781 118.105469 266.417969 118.507812 266.414062 118.90625 C 266.402344 119.882812 266.390625 120.859375 266.382812 121.839844 C 266.027344 121.839844 265.671875 121.839844 265.304688 121.839844 C 265.304688 116.90625 265.304688 111.976562 265.304688 106.898438 Z M 265.304688 106.898438 "/>
<path style=" stroke:none;fill-rule:nonzero;fill:rgb(0%,0%,0%);fill-opacity:1;" d="M 286.539062 111.105469 C 287.234375 111.765625 287.660156 112.714844 287.902344 114.082031 C 287.945312 114.875 287.929688 115.578125 287.902344 116.378906 C 287.238281 116.828125 286.609375 117.097656 285.914062 117.277344 C 285.734375 117.324219 285.554688 117.375 285.371094 117.421875 C 284.824219 117.527344 284.296875 117.546875 283.75 117.527344 C 284.027344 118.695312 284.234375 119.457031 284.828125 120.113281 C 285.722656 120.351562 286.605469 120.214844 287.441406 119.539062 C 287.542969 119.917969 287.640625 120.300781 287.746094 120.691406 C 287.257812 121.667969 286.960938 122.082031 286.230469 122.195312 C 284.917969 122.25 284.046875 122.046875 283.078125 120.332031 C 282.464844 118.386719 282.441406 116.535156 282.675781 114.367188 C 282.964844 112.851562 283.378906 112.132812 284.058594 111.207031 C 284.847656 110.714844 285.738281 110.652344 286.539062 111.105469 Z M 283.902344 114.082031 C 283.855469 114.746094 283.804688 115.40625 283.75 116.09375 C 284.714844 115.902344 285.679688 115.710938 286.671875 115.515625 C 286.902344 114.363281 286.902344 114.363281 286.535156 113.433594 C 286.171875 112.6875 285.902344 112.5 285.363281 112.445312 C 284.648438 112.542969 284.316406 112.949219 283.902344 114.082031 Z M 283.902344 114.082031 "/>
<path style=" stroke:none;fill-rule:nonzero;fill:rgb(0%,0%,0%);fill-opacity:1;" d="M 275.625 111.105469 C 276.320312 111.765625 276.746094 112.714844 276.988281 114.082031 C 277.03125 114.875 277.015625 115.578125 276.988281 116.378906 C 276.324219 116.828125 275.695312 117.097656 275 117.277344 C 274.820312 117.324219 274.640625 117.375 274.457031 117.421875 C 273.914062 117.527344 273.382812 117.546875 272.835938 117.527344 C 273.113281 118.695312 273.320312 119.457031 273.914062 120.113281 C 274.8125 120.351562 275.691406 120.214844 276.527344 119.539062 C 276.628906 119.917969 276.730469 120.300781 276.832031 120.691406 C 276.34375 121.667969 276.050781 122.082031 275.320312 122.195312 C 274.003906 122.25 273.132812 122.046875 272.164062 120.332031 C 271.550781 118.386719 271.527344 116.535156 271.761719 114.367188 C 272.050781 112.851562 272.464844 112.132812 273.144531 111.207031 C 273.933594 110.714844 274.824219 110.652344 275.625 111.105469 Z M 272.992188 114.082031 C 272.941406 114.746094 272.890625 115.40625 272.835938 116.09375 C 273.800781 115.902344 274.765625 115.710938 275.757812 115.515625 C 275.988281 114.363281 275.988281 114.363281 275.625 113.433594 C 275.257812 112.6875 274.988281 112.5 274.449219 112.445312 C 273.734375 112.542969 273.402344 112.949219 272.992188 114.082031 Z M 272.992188 114.082031 "/>
<path style=" stroke:none;fill-rule:nonzero;fill:rgb(0%,0%,0%);fill-opacity:1;" d="M 242.882812 111.105469 C 243.582031 111.765625 244.003906 112.714844 244.246094 114.082031 C 244.292969 114.875 244.277344 115.578125 244.246094 116.378906 C 243.585938 116.828125 242.953125 117.097656 242.257812 117.277344 C 242.078125 117.324219 241.898438 117.375 241.714844 117.421875 C 241.171875 117.527344 240.644531 117.546875 240.097656 117.527344 C 240.375 118.695312 240.578125 119.457031 241.171875 120.113281 C 242.070312 120.351562 242.949219 120.214844 243.785156 119.539062 C 243.886719 119.917969 243.988281 120.300781 244.09375 120.691406 C 243.605469 121.667969 243.308594 122.082031 242.578125 122.195312 C 241.261719 122.25 240.394531 122.046875 239.425781 120.332031 C 238.808594 118.386719 238.785156 116.535156 239.019531 114.367188 C 239.3125 112.851562 239.726562 112.132812 240.402344 111.207031 C 241.191406 110.714844 242.085938 110.652344 242.882812 111.105469 Z M 240.25 114.082031 C 240.199219 114.746094 240.148438 115.40625 240.097656 116.09375 C 241.058594 115.902344 242.023438 115.710938 243.015625 115.515625 C 243.246094 114.363281 243.246094 114.363281 242.882812 113.433594 C 242.519531 112.6875 242.246094 112.5 241.710938 112.445312 C 240.996094 112.542969 240.660156 112.949219 240.25 114.082031 Z M 240.25 114.082031 "/>
<path style=" stroke:none;fill-rule:nonzero;fill:rgb(0%,0%,0%);fill-opacity:1;" d="M 230.585938 111.105469 C 231.285156 111.765625 231.707031 112.714844 231.949219 114.082031 C 231.996094 114.875 231.980469 115.578125 231.949219 116.378906 C 231.289062 116.828125 230.65625 117.097656 229.960938 117.277344 C 229.78125 117.324219 229.601562 117.375 229.417969 117.421875 C 228.875 117.527344 228.347656 117.546875 227.800781 117.527344 C 228.078125 118.695312 228.28125 119.457031 228.875 120.113281 C 229.773438 120.351562 230.652344 120.214844 231.488281 119.539062 C 231.589844 119.917969 231.691406 120.300781 231.796875 120.691406 C 231.308594 121.667969 231.011719 122.082031 230.28125 122.195312 C 228.964844 122.25 228.097656 122.046875 227.128906 120.332031 C 226.511719 118.386719 226.488281 116.535156 226.722656 114.367188 C 227.015625 112.851562 227.429688 112.132812 228.105469 111.207031 C 228.894531 110.714844 229.789062 110.652344 230.585938 111.105469 Z M 227.953125 114.082031 C 227.902344 114.746094 227.851562 115.40625 227.800781 116.09375 C 228.761719 115.902344 229.726562 115.710938 230.71875 115.515625 C 230.949219 114.363281 230.949219 114.363281 230.585938 113.433594 C 230.222656 112.6875 229.949219 112.5 229.414062 112.445312 C 228.699219 112.542969 228.363281 112.949219 227.953125 114.082031 Z M 227.953125 114.082031 "/>
<path style=" stroke:none;fill-rule:nonzero;fill:rgb(0%,0%,0%);fill-opacity:1;" d="M 221.824219 111.105469 C 222.523438 111.765625 222.945312 112.714844 223.1875 114.082031 C 223.234375 114.875 223.21875 115.578125 223.1875 116.378906 C 222.527344 116.828125 221.894531 117.097656 221.199219 117.277344 C 221.019531 117.324219 220.84375 117.375 220.65625 117.421875 C 220.113281 117.527344 219.585938 117.546875 219.039062 117.527344 C 219.316406 118.695312 219.519531 119.457031 220.113281 120.113281 C 221.011719 120.351562 221.890625 120.214844 222.726562 119.539062 C 222.828125 119.917969 222.929688 120.300781 223.035156 120.691406 C 222.546875 121.667969 222.25 122.082031 221.519531 122.195312 C 220.203125 122.25 219.335938 122.046875 218.367188 120.332031 C 217.75 118.386719 217.730469 116.535156 217.960938 114.367188 C 218.253906 112.851562 218.667969 112.132812 219.34375 111.207031 C 220.132812 110.714844 221.027344 110.652344 221.824219 111.105469 Z M 219.191406 114.082031 C 219.140625 114.746094 219.089844 115.40625 219.039062 116.09375 C 220.003906 115.902344 220.964844 115.710938 221.957031 115.515625 C 222.1875 114.363281 222.1875 114.363281 221.824219 113.433594 C 221.460938 112.6875 221.1875 112.5 220.652344 112.445312 C 219.9375 112.542969 219.601562 112.949219 219.191406 114.082031 Z M 219.191406 114.082031 "/>
<path style=" stroke:none;fill-rule:nonzero;fill:rgb(0%,0%,0%);fill-opacity:1;" d="M 249.933594 110.917969 C 250.289062 110.828125 250.289062 110.828125 250.703125 110.917969 C 251.058594 111.867188 251.289062 112.867188 251.511719 113.941406 C 251.601562 114.382812 251.601562 114.382812 251.695312 114.832031 C 251.789062 115.285156 251.789062 115.285156 251.882812 115.75 C 251.949219 116.058594 252.011719 116.367188 252.078125 116.6875 C 252.234375 117.445312 252.390625 118.207031 252.546875 118.964844 C 253.089844 116.691406 253.488281 114.464844 253.808594 112.054688 C 253.929688 111.207031 253.929688 111.207031 254.085938 110.917969 C 254.390625 110.90625 254.699219 110.90625 255.007812 110.917969 C 255.0625 112.820312 254.878906 114.300781 254.546875 116.09375 C 254.496094 116.355469 254.449219 116.617188 254.398438 116.886719 C 253.007812 124.269531 253.007812 124.269531 251.625 126.148438 C 251.097656 126.292969 251.097656 126.292969 250.703125 126.148438 C 250.589844 125.664062 250.589844 125.664062 250.550781 125 C 250.792969 124.308594 250.792969 124.308594 251.136719 123.582031 C 251.570312 122.644531 251.871094 121.871094 252.085938 120.691406 C 251.933594 120.59375 251.78125 120.5 251.625 120.402344 C 251.429688 119.761719 251.265625 119.152344 251.105469 118.480469 C 251.058594 118.289062 251.011719 118.097656 250.964844 117.898438 C 249.726562 112.695312 249.726562 112.695312 249.839844 111.382812 C 249.871094 111.230469 249.902344 111.078125 249.933594 110.917969 Z M 249.933594 110.917969 "/>
<path style=" stroke:none;fill-rule:nonzero;fill:rgb(0%,0%,0%);fill-opacity:1;" d="M 205.203125 110.917969 C 205.558594 110.828125 205.558594 110.828125 205.972656 110.917969 C 206.328125 111.867188 206.558594 112.867188 206.78125 113.941406 C 206.871094 114.382812 206.871094 114.382812 206.964844 114.832031 C 207.058594 115.285156 207.058594 115.285156 207.15625 115.75 C 207.21875 116.058594 207.28125 116.367188 207.347656 116.6875 C 207.503906 117.445312 207.660156 118.207031 207.816406 118.964844 C 208.359375 116.691406 208.757812 114.464844 209.078125 112.054688 C 209.199219 111.207031 209.199219 111.207031 209.355469 110.917969 C 209.660156 110.90625 209.96875 110.90625 210.277344 110.917969 C 210.332031 112.820312 210.148438 114.300781 209.816406 116.09375 C 209.765625 116.355469 209.71875 116.617188 209.667969 116.886719 C 208.277344 124.269531 208.277344 124.269531 206.894531 126.148438 C 206.367188 126.292969 206.367188 126.292969 205.972656 126.148438 C 205.859375 125.664062 205.859375 125.664062 205.820312 125 C 206.0625 124.308594 206.0625 124.308594 206.40625 123.582031 C 206.84375 122.644531 207.140625 121.871094 207.355469 120.691406 C 207.203125 120.59375 207.050781 120.5 206.894531 120.402344 C 206.699219 119.761719 206.535156 119.152344 206.375 118.480469 C 206.328125 118.289062 206.285156 118.097656 206.234375 117.898438 C 204.996094 112.695312 204.996094 112.695312 205.109375 111.382812 C 205.140625 111.230469 205.171875 111.078125 205.203125 110.917969 Z M 205.203125 110.917969 "/>
<path style=" stroke:none;fill-rule:nonzero;fill:rgb(0%,0%,0%);fill-opacity:1;" d="M 232.871094 110.917969 C 233.226562 110.828125 233.226562 110.828125 233.640625 110.917969 C 234 111.867188 234.214844 112.835938 234.410156 113.933594 C 234.464844 114.222656 234.515625 114.515625 234.570312 114.816406 C 234.625 115.121094 234.679688 115.421875 234.734375 115.734375 C 234.84375 116.335938 234.953125 116.9375 235.0625 117.542969 C 235.113281 117.808594 235.160156 118.074219 235.207031 118.347656 C 235.304688 118.953125 235.304688 118.953125 235.484375 119.253906 C 235.992188 116.503906 236.5 113.753906 237.023438 110.917969 C 237.328125 110.917969 237.632812 110.917969 237.945312 110.917969 C 238.117188 111.871094 238.082031 112.421875 237.910156 113.371094 C 237.867188 113.621094 237.820312 113.871094 237.777344 114.125 C 237.726562 114.390625 237.679688 114.652344 237.628906 114.925781 C 237.578125 115.191406 237.53125 115.460938 237.480469 115.738281 C 237.089844 117.839844 236.636719 119.851562 236.101562 121.839844 C 235.695312 121.839844 235.289062 121.839844 234.871094 121.839844 C 234.222656 119.664062 233.726562 117.417969 233.265625 115.085938 C 233.210938 114.808594 233.152344 114.53125 233.09375 114.242188 C 233.019531 113.847656 233.019531 113.847656 232.941406 113.441406 C 232.894531 113.207031 232.847656 112.96875 232.800781 112.726562 C 232.710938 112.007812 232.746094 111.609375 232.871094 110.917969 Z M 232.871094 110.917969 "/>
<path style=" stroke:none;fill-rule:nonzero;fill:rgb(0%,0%,0%);fill-opacity:1;" d="M 281.90625 111.207031 C 281.90625 111.679688 281.90625 112.15625 281.90625 112.644531 C 281.714844 112.667969 281.714844 112.667969 281.519531 112.695312 C 281.269531 112.734375 281.269531 112.734375 281.011719 112.769531 C 280.847656 112.792969 280.679688 112.816406 280.511719 112.839844 C 280.050781 112.902344 280.050781 112.902344 279.601562 113.21875 C 279.550781 116.0625 279.5 118.90625 279.445312 121.839844 C 279.089844 121.839844 278.738281 121.839844 278.371094 121.839844 C 278.019531 120.535156 278.179688 118.730469 278.179688 117.296875 C 278.175781 116.925781 278.171875 116.558594 278.167969 116.175781 C 278.167969 115.820312 278.167969 115.464844 278.167969 115.097656 C 278.164062 114.773438 278.164062 114.445312 278.164062 114.109375 C 278.222656 113.109375 278.355469 112.582031 278.679688 111.78125 C 279.558594 110.765625 280.949219 110.3125 281.90625 111.207031 Z M 281.90625 111.207031 "/>
<path style=" stroke:none;fill-rule:nonzero;fill:rgb(0%,0%,0%);fill-opacity:1;" d="M 249.164062 111.207031 C 249.164062 111.679688 249.164062 112.15625 249.164062 112.644531 C 248.972656 112.667969 248.972656 112.667969 248.777344 112.695312 C 248.527344 112.734375 248.527344 112.734375 248.273438 112.769531 C 248.105469 112.792969 247.941406 112.816406 247.769531 112.839844 C 247.3125 112.902344 247.3125 112.902344 246.859375 113.21875 C 246.808594 116.0625 246.757812 118.90625 246.707031 121.839844 C 246.351562 121.839844 245.996094 121.839844 245.628906 121.839844 C 245.28125 120.535156 245.441406 118.730469 245.4375 117.296875 C 245.433594 116.925781 245.433594 116.558594 245.429688 116.175781 C 245.425781 115.820312 245.425781 115.464844 245.425781 115.097656 C 245.425781 114.773438 245.421875 114.445312 245.421875 114.109375 C 245.484375 113.109375 245.613281 112.582031 245.9375 111.78125 C 246.816406 110.765625 248.207031 110.3125 249.164062 111.207031 Z M 249.164062 111.207031 "/>
<path style=" stroke:none;fill-rule:nonzero;fill:rgb(0%,0%,0%);fill-opacity:1;" d="M 204.4375 111.207031 C 204.4375 111.679688 204.4375 112.15625 204.4375 112.644531 C 204.242188 112.667969 204.242188 112.667969 204.046875 112.695312 C 203.796875 112.734375 203.796875 112.734375 203.542969 112.769531 C 203.375 112.792969 203.210938 112.816406 203.039062 112.839844 C 202.582031 112.902344 202.582031 112.902344 202.128906 113.21875 C 202.078125 116.0625 202.027344 118.90625 201.976562 121.839844 C 201.621094 121.839844 201.265625 121.839844 200.898438 121.839844 C 200.550781 120.535156 200.710938 118.730469 200.707031 117.296875 C 200.703125 116.925781 200.703125 116.558594 200.699219 116.175781 C 200.699219 115.820312 200.695312 115.464844 200.695312 115.097656 C 200.695312 114.773438 200.691406 114.445312 200.691406 114.109375 C 200.753906 113.109375 200.882812 112.582031 201.207031 111.78125 C 202.089844 110.765625 203.476562 110.3125 204.4375 111.207031 Z M 204.4375 111.207031 "/>
</g>
</svg>
