<?xml version="1.0" encoding="UTF-8"?>
<svg xmlns="http://www.w3.org/2000/svg" xmlns:xlink="http://www.w3.org/1999/xlink" width="144px" height="33px" viewBox="0 0 143 33" version="1.1">
<g id="surface1">
<path style=" stroke:none;fill-rule:nonzero;fill:rgb(92.156863%,38.431373%,17.647059%);fill-opacity:1;" d="M 7.421875 6.757812 C 7.476562 6.757812 7.53125 6.753906 7.589844 6.753906 C 7.679688 6.753906 7.679688 6.753906 7.773438 6.757812 C 7.839844 6.753906 7.902344 6.753906 7.96875 6.753906 C 8.1875 6.753906 8.40625 6.753906 8.621094 6.753906 C 8.777344 6.753906 8.933594 6.753906 9.089844 6.753906 C 9.46875 6.753906 9.851562 6.753906 10.230469 6.753906 C 10.539062 6.753906 10.847656 6.753906 11.160156 6.753906 C 12.039062 6.753906 12.917969 6.753906 13.792969 6.753906 C 13.84375 6.753906 13.890625 6.753906 13.9375 6.753906 C 14.011719 6.753906 14.011719 6.753906 14.082031 6.753906 C 14.847656 6.753906 15.617188 6.753906 16.382812 6.75 C 17.171875 6.75 17.957031 6.75 18.746094 6.75 C 19.1875 6.75 19.628906 6.75 20.074219 6.75 C 20.488281 6.75 20.90625 6.75 21.324219 6.75 C 21.476562 6.75 21.628906 6.75 21.777344 6.75 C 23.910156 6.742188 26.03125 6.886719 27.660156 8.425781 C 28.925781 9.75 29.105469 11.527344 29.101562 13.273438 C 29.101562 13.40625 29.101562 13.542969 29.105469 13.679688 C 29.105469 14.042969 29.105469 14.40625 29.105469 14.769531 C 29.105469 15.074219 29.105469 15.378906 29.105469 15.683594 C 29.105469 16.398438 29.105469 17.117188 29.105469 17.835938 C 29.105469 18.574219 29.105469 19.3125 29.105469 20.054688 C 29.109375 20.691406 29.109375 21.328125 29.109375 21.964844 C 29.109375 22.34375 29.109375 22.722656 29.109375 23.101562 C 29.109375 23.457031 29.109375 23.816406 29.109375 24.171875 C 29.109375 24.300781 29.109375 24.433594 29.109375 24.5625 C 29.109375 24.742188 29.109375 24.917969 29.109375 25.097656 C 29.109375 25.148438 29.109375 25.199219 29.109375 25.253906 C 29.105469 25.609375 29.027344 25.816406 28.824219 26.109375 C 28.628906 26.210938 28.414062 26.183594 28.195312 26.183594 C 28.144531 26.183594 28.089844 26.183594 28.039062 26.183594 C 27.863281 26.1875 27.691406 26.1875 27.519531 26.1875 C 27.457031 26.1875 27.398438 26.1875 27.339844 26.1875 C 27.027344 26.191406 26.714844 26.191406 26.402344 26.191406 C 26.078125 26.191406 25.753906 26.195312 25.429688 26.195312 C 25.183594 26.199219 24.933594 26.199219 24.6875 26.199219 C 24.566406 26.199219 24.449219 26.199219 24.328125 26.199219 C 24.164062 26.203125 23.996094 26.203125 23.828125 26.203125 C 23.753906 26.203125 23.753906 26.203125 23.679688 26.203125 C 23.453125 26.203125 23.3125 26.179688 23.117188 26.0625 C 22.855469 25.777344 22.839844 25.492188 22.84375 25.121094 C 22.84375 25.070312 22.84375 25.023438 22.84375 24.972656 C 22.84375 24.8125 22.84375 24.652344 22.84375 24.492188 C 22.84375 24.375 22.84375 24.257812 22.84375 24.144531 C 22.839844 23.894531 22.839844 23.644531 22.839844 23.394531 C 22.839844 23.003906 22.839844 22.609375 22.839844 22.214844 C 22.835938 21.234375 22.832031 20.257812 22.832031 19.277344 C 22.832031 18.519531 22.828125 17.757812 22.828125 16.996094 C 22.824219 16.605469 22.824219 16.214844 22.824219 15.824219 C 22.824219 15.578125 22.824219 15.335938 22.824219 15.089844 C 22.824219 14.976562 22.824219 14.863281 22.824219 14.753906 C 22.824219 14.597656 22.824219 14.445312 22.820312 14.289062 C 22.820312 14.246094 22.820312 14.199219 22.824219 14.15625 C 22.820312 13.820312 22.734375 13.578125 22.609375 13.277344 C 22.589844 13.226562 22.570312 13.175781 22.550781 13.125 C 22.460938 12.988281 22.382812 12.957031 22.230469 12.898438 C 22.160156 12.863281 22.089844 12.832031 22.015625 12.796875 C 21.707031 12.671875 21.445312 12.636719 21.113281 12.636719 C 21.042969 12.632812 20.96875 12.632812 20.894531 12.632812 C 20.816406 12.632812 20.738281 12.632812 20.65625 12.632812 C 20.570312 12.632812 20.484375 12.632812 20.402344 12.632812 C 20.171875 12.632812 19.941406 12.632812 19.714844 12.632812 C 19.570312 12.628906 19.425781 12.628906 19.28125 12.628906 C 18.832031 12.628906 18.382812 12.628906 17.933594 12.628906 C 17.417969 12.628906 16.898438 12.628906 16.378906 12.625 C 15.980469 12.625 15.578125 12.625 15.175781 12.625 C 14.9375 12.625 14.699219 12.621094 14.460938 12.621094 C 14.234375 12.621094 14.011719 12.621094 13.785156 12.621094 C 13.664062 12.621094 13.542969 12.621094 13.421875 12.621094 C 12.945312 12.621094 12.535156 12.636719 12.160156 12.964844 C 11.890625 13.457031 11.910156 14.0625 11.894531 14.613281 C 11.890625 14.683594 11.886719 14.757812 11.886719 14.832031 C 11.878906 15.007812 11.875 15.183594 11.871094 15.363281 C 11.902344 15.363281 11.9375 15.363281 11.972656 15.363281 C 12.808594 15.355469 13.644531 15.355469 14.480469 15.351562 C 14.886719 15.351562 15.289062 15.351562 15.695312 15.347656 C 16.085938 15.34375 16.476562 15.34375 16.863281 15.34375 C 17.015625 15.34375 17.164062 15.34375 17.3125 15.34375 C 17.519531 15.339844 17.726562 15.339844 17.9375 15.339844 C 18 15.339844 18.058594 15.339844 18.125 15.339844 C 18.464844 15.339844 18.710938 15.359375 18.964844 15.613281 C 18.984375 15.945312 18.984375 16.273438 18.988281 16.605469 C 18.988281 16.714844 18.992188 16.828125 18.992188 16.9375 C 18.996094 17.097656 19 17.257812 19 17.417969 C 19 17.46875 19 17.519531 19.003906 17.570312 C 19.003906 17.792969 18.992188 17.921875 18.847656 18.09375 C 18.5625 18.257812 18.316406 18.242188 17.992188 18.234375 C 17.925781 18.234375 17.863281 18.234375 17.792969 18.234375 C 17.574219 18.234375 17.355469 18.234375 17.136719 18.230469 C 16.984375 18.230469 16.835938 18.230469 16.683594 18.230469 C 16.285156 18.230469 15.886719 18.226562 15.488281 18.222656 C 15.078125 18.222656 14.671875 18.21875 14.265625 18.21875 C 13.464844 18.214844 12.667969 18.210938 11.871094 18.207031 C 11.875 18.480469 11.882812 18.753906 11.894531 19.023438 C 11.894531 19.101562 11.898438 19.179688 11.898438 19.257812 C 11.902344 20.007812 11.902344 20.007812 12.203125 20.667969 C 12.480469 20.882812 12.703125 20.941406 13.050781 20.941406 C 13.121094 20.941406 13.191406 20.945312 13.265625 20.945312 C 13.382812 20.945312 13.382812 20.945312 13.5 20.945312 C 13.625 20.945312 13.75 20.945312 13.875 20.949219 C 14.175781 20.953125 14.480469 20.953125 14.785156 20.953125 C 16.917969 20.964844 19.132812 21.058594 20.914062 22.378906 C 20.953125 22.410156 20.996094 22.4375 21.039062 22.46875 C 21.988281 23.214844 22.398438 24.410156 22.578125 25.566406 C 22.617188 25.898438 22.617188 25.898438 22.609375 26.046875 C 22.457031 26.199219 22.375 26.1875 22.164062 26.1875 C 22.121094 26.1875 22.078125 26.1875 22.03125 26.1875 C 21.960938 26.1875 21.960938 26.1875 21.886719 26.1875 C 21.730469 26.191406 21.570312 26.1875 21.410156 26.1875 C 21.296875 26.1875 21.183594 26.1875 21.070312 26.1875 C 20.761719 26.191406 20.453125 26.191406 20.144531 26.1875 C 19.820312 26.1875 19.496094 26.1875 19.171875 26.191406 C 18.625 26.191406 18.078125 26.191406 17.535156 26.1875 C 16.90625 26.1875 16.277344 26.1875 15.648438 26.1875 C 15.109375 26.191406 14.570312 26.191406 14.027344 26.1875 C 13.707031 26.1875 13.382812 26.1875 13.0625 26.191406 C 12.757812 26.191406 12.453125 26.191406 12.148438 26.1875 C 12.039062 26.1875 11.925781 26.1875 11.816406 26.1875 C 10.503906 26.191406 9.117188 26.105469 8.113281 25.144531 C 7.023438 23.96875 7.015625 22.429688 7.019531 20.914062 C 7.019531 20.761719 7.019531 20.609375 7.019531 20.453125 C 7.019531 20.125 7.019531 19.792969 7.019531 19.464844 C 7.023438 18.988281 7.023438 18.507812 7.023438 18.03125 C 7.023438 17.257812 7.023438 16.484375 7.023438 15.710938 C 7.027344 14.957031 7.027344 14.207031 7.027344 13.453125 C 7.027344 13.40625 7.027344 13.359375 7.027344 13.3125 C 7.027344 13.082031 7.027344 12.847656 7.027344 12.613281 C 7.027344 10.683594 7.03125 8.757812 7.035156 6.828125 C 7.179688 6.753906 7.261719 6.757812 7.421875 6.757812 Z M 7.421875 6.757812 "/>
<path style=" stroke:none;fill-rule:nonzero;fill:rgb(17.647059%,17.647059%,18.039216%);fill-opacity:1;" d="M 7.035156 12.453125 C 7.097656 12.484375 7.097656 12.484375 7.160156 12.515625 C 7.335938 12.523438 7.515625 12.527344 7.691406 12.53125 C 7.746094 12.53125 7.804688 12.53125 7.859375 12.53125 C 8.042969 12.535156 8.226562 12.535156 8.40625 12.539062 C 8.535156 12.539062 8.660156 12.539062 8.789062 12.542969 C 9.121094 12.542969 9.453125 12.546875 9.789062 12.550781 C 10.128906 12.554688 10.46875 12.558594 10.808594 12.5625 C 11.476562 12.566406 12.144531 12.574219 12.8125 12.582031 C 12.753906 12.609375 12.753906 12.609375 12.699219 12.636719 C 12.347656 12.816406 12.136719 12.960938 11.996094 13.339844 C 11.917969 13.757812 11.910156 14.175781 11.898438 14.597656 C 11.894531 14.710938 11.894531 14.710938 11.890625 14.820312 C 11.882812 15 11.875 15.183594 11.871094 15.363281 C 11.921875 15.363281 11.921875 15.363281 11.972656 15.363281 C 12.808594 15.355469 13.644531 15.355469 14.480469 15.351562 C 14.886719 15.351562 15.289062 15.351562 15.695312 15.347656 C 16.085938 15.34375 16.476562 15.34375 16.863281 15.34375 C 17.015625 15.34375 17.164062 15.34375 17.3125 15.34375 C 17.519531 15.339844 17.726562 15.339844 17.9375 15.339844 C 18.03125 15.339844 18.03125 15.339844 18.125 15.339844 C 18.464844 15.339844 18.710938 15.359375 18.964844 15.613281 C 18.984375 15.945312 18.984375 16.273438 18.988281 16.605469 C 18.988281 16.714844 18.992188 16.828125 18.992188 16.9375 C 18.996094 17.097656 19 17.257812 19 17.417969 C 19 17.46875 19 17.519531 19.003906 17.570312 C 19.003906 17.792969 18.992188 17.921875 18.847656 18.09375 C 18.5625 18.257812 18.316406 18.242188 17.992188 18.234375 C 17.925781 18.234375 17.863281 18.234375 17.792969 18.234375 C 17.574219 18.234375 17.355469 18.234375 17.136719 18.230469 C 16.984375 18.230469 16.835938 18.230469 16.683594 18.230469 C 16.285156 18.230469 15.886719 18.226562 15.488281 18.222656 C 15.078125 18.222656 14.671875 18.21875 14.265625 18.21875 C 13.464844 18.214844 12.667969 18.210938 11.871094 18.207031 C 11.875 18.480469 11.882812 18.753906 11.894531 19.023438 C 11.894531 19.101562 11.898438 19.179688 11.898438 19.257812 C 11.902344 20.007812 11.902344 20.007812 12.203125 20.667969 C 12.480469 20.882812 12.703125 20.941406 13.050781 20.941406 C 13.121094 20.941406 13.191406 20.945312 13.265625 20.945312 C 13.382812 20.945312 13.382812 20.945312 13.5 20.945312 C 13.625 20.945312 13.75 20.945312 13.875 20.949219 C 14.175781 20.953125 14.480469 20.953125 14.785156 20.953125 C 16.917969 20.964844 19.132812 21.058594 20.914062 22.378906 C 20.953125 22.410156 20.996094 22.4375 21.039062 22.46875 C 21.988281 23.214844 22.398438 24.410156 22.578125 25.566406 C 22.617188 25.898438 22.617188 25.898438 22.609375 26.046875 C 22.457031 26.199219 22.375 26.1875 22.164062 26.1875 C 22.121094 26.1875 22.078125 26.1875 22.03125 26.1875 C 21.960938 26.1875 21.960938 26.1875 21.886719 26.1875 C 21.730469 26.191406 21.570312 26.1875 21.410156 26.1875 C 21.296875 26.1875 21.183594 26.1875 21.070312 26.1875 C 20.761719 26.191406 20.453125 26.191406 20.144531 26.1875 C 19.820312 26.1875 19.496094 26.1875 19.171875 26.191406 C 18.625 26.191406 18.078125 26.191406 17.535156 26.1875 C 16.90625 26.1875 16.277344 26.1875 15.648438 26.1875 C 15.109375 26.191406 14.570312 26.191406 14.027344 26.1875 C 13.707031 26.1875 13.382812 26.1875 13.0625 26.191406 C 12.757812 26.191406 12.453125 26.191406 12.148438 26.1875 C 12.039062 26.1875 11.925781 26.1875 11.816406 26.1875 C 10.503906 26.191406 9.117188 26.105469 8.113281 25.144531 C 7.164062 24.121094 7.011719 22.777344 7.019531 21.433594 C 7.019531 21.332031 7.019531 21.234375 7.019531 21.136719 C 7.019531 20.871094 7.019531 20.605469 7.019531 20.34375 C 7.023438 20.066406 7.023438 19.785156 7.023438 19.507812 C 7.023438 18.984375 7.023438 18.460938 7.023438 17.933594 C 7.027344 17.335938 7.027344 16.738281 7.027344 16.140625 C 7.027344 14.910156 7.03125 13.683594 7.035156 12.453125 Z M 7.035156 12.453125 "/>
<path style=" stroke:none;fill-rule:nonzero;fill:rgb(94.901961%,56.470591%,12.54902%);fill-opacity:1;" d="M 7.421875 6.757812 C 7.476562 6.757812 7.53125 6.757812 7.585938 6.757812 C 7.648438 6.757812 7.707031 6.757812 7.769531 6.757812 C 7.867188 6.757812 7.867188 6.757812 7.964844 6.757812 C 8.183594 6.757812 8.398438 6.757812 8.613281 6.757812 C 8.769531 6.757812 8.925781 6.757812 9.078125 6.757812 C 9.414062 6.757812 9.746094 6.757812 10.082031 6.757812 C 10.5625 6.757812 11.046875 6.757812 11.527344 6.757812 C 12.3125 6.757812 13.09375 6.757812 13.875 6.757812 C 14.636719 6.761719 15.398438 6.761719 16.160156 6.761719 C 16.207031 6.761719 16.253906 6.761719 16.300781 6.761719 C 16.671875 6.761719 17.042969 6.761719 17.414062 6.761719 C 19.230469 6.761719 21.042969 6.761719 22.859375 6.765625 C 22.859375 9.078125 22.859375 11.394531 22.859375 13.78125 C 22.820312 13.699219 22.777344 13.613281 22.734375 13.527344 C 22.691406 13.464844 22.644531 13.398438 22.601562 13.332031 C 22.484375 13.148438 22.484375 13.148438 22.484375 13.023438 C 21.9375 12.738281 21.503906 12.632812 20.898438 12.632812 C 20.839844 12.632812 20.78125 12.632812 20.71875 12.632812 C 20.523438 12.632812 20.328125 12.632812 20.128906 12.632812 C 19.988281 12.632812 19.847656 12.632812 19.707031 12.632812 C 19.402344 12.628906 19.101562 12.628906 18.796875 12.628906 C 18.316406 12.628906 17.839844 12.625 17.359375 12.625 C 16.6875 12.621094 16.015625 12.621094 15.34375 12.617188 C 15.300781 12.617188 15.257812 12.617188 15.214844 12.617188 C 14.609375 12.617188 14.003906 12.617188 13.398438 12.613281 C 13.355469 12.613281 13.3125 12.613281 13.269531 12.613281 C 13.226562 12.613281 13.183594 12.613281 13.140625 12.613281 C 12.429688 12.613281 11.71875 12.609375 11.011719 12.605469 C 10.535156 12.605469 10.058594 12.605469 9.578125 12.601562 C 9.285156 12.601562 8.988281 12.601562 8.691406 12.601562 C 8.554688 12.601562 8.414062 12.597656 8.277344 12.597656 C 8.089844 12.597656 7.902344 12.597656 7.714844 12.597656 C 7.660156 12.597656 7.605469 12.597656 7.550781 12.597656 C 7.171875 12.59375 7.171875 12.59375 7.035156 12.453125 C 7.023438 12.273438 7.019531 12.101562 7.019531 11.921875 C 7.019531 11.867188 7.019531 11.8125 7.019531 11.757812 C 7.019531 11.574219 7.019531 11.394531 7.023438 11.210938 C 7.023438 11.085938 7.023438 10.957031 7.023438 10.832031 C 7.023438 10.5 7.023438 10.167969 7.023438 9.835938 C 7.027344 9.5 7.027344 9.160156 7.027344 8.820312 C 7.027344 8.15625 7.03125 7.492188 7.035156 6.828125 C 7.179688 6.753906 7.257812 6.757812 7.421875 6.757812 Z M 7.421875 6.757812 "/>
<path style=" stroke:none;fill-rule:nonzero;fill:rgb(92.156863%,38.431373%,18.039216%);fill-opacity:1;" d="M 62.992188 6.699219 C 63.945312 6.699219 64.898438 6.699219 65.878906 6.699219 C 65.882812 7.992188 65.882812 9.28125 65.886719 10.574219 C 65.886719 11.171875 65.886719 11.773438 65.890625 12.371094 C 65.890625 12.894531 65.890625 13.417969 65.890625 13.941406 C 65.890625 14.21875 65.890625 14.496094 65.890625 14.769531 C 65.894531 15.03125 65.894531 15.292969 65.894531 15.554688 C 65.894531 15.648438 65.894531 15.746094 65.894531 15.839844 C 65.898438 16.347656 65.878906 16.851562 65.824219 17.359375 C 65.816406 17.40625 65.8125 17.449219 65.808594 17.5 C 65.6875 18.53125 65.292969 19.457031 64.6875 20.292969 C 64.65625 20.332031 64.628906 20.375 64.597656 20.417969 C 63.800781 21.449219 62.484375 21.972656 61.242188 22.164062 C 59.621094 22.351562 57.945312 22.078125 56.628906 21.058594 C 55.484375 20.085938 54.859375 18.679688 54.699219 17.195312 C 54.621094 15.59375 54.800781 13.980469 55.890625 12.722656 C 56.722656 11.800781 57.84375 11.132812 59.097656 11.050781 C 59.3125 11.042969 59.527344 11.039062 59.742188 11.035156 C 59.808594 11.035156 59.875 11.035156 59.945312 11.035156 C 61.042969 11.046875 61.953125 11.4375 62.738281 12.191406 C 62.863281 12.328125 62.863281 12.328125 62.925781 12.453125 C 62.957031 9.605469 62.957031 9.605469 62.992188 6.699219 Z M 58.65625 14.097656 C 58.617188 14.128906 58.578125 14.160156 58.539062 14.191406 C 58.027344 14.640625 57.695312 15.40625 57.640625 16.085938 C 57.632812 16.25 57.632812 16.417969 57.632812 16.582031 C 57.632812 16.640625 57.632812 16.699219 57.632812 16.761719 C 57.640625 17.183594 57.679688 17.558594 57.839844 17.953125 C 57.871094 18.03125 57.871094 18.03125 57.902344 18.113281 C 58.191406 18.761719 58.632812 19.238281 59.277344 19.527344 C 59.945312 19.769531 60.613281 19.777344 61.285156 19.53125 C 61.972656 19.207031 62.40625 18.714844 62.695312 18.007812 C 63.023438 17.046875 63.050781 16.023438 62.644531 15.082031 C 62.273438 14.335938 61.824219 13.902344 61.042969 13.609375 C 60.203125 13.351562 59.332031 13.554688 58.65625 14.097656 Z M 58.65625 14.097656 "/>
<path style=" stroke:none;fill-rule:nonzero;fill:rgb(92.156863%,38.431373%,18.039216%);fill-opacity:1;" d="M 42.894531 11.316406 C 43.828125 11.316406 44.757812 11.316406 45.71875 11.316406 C 45.792969 11.460938 45.789062 11.539062 45.789062 11.699219 C 45.792969 11.753906 45.792969 11.808594 45.792969 11.863281 C 45.792969 11.925781 45.792969 11.984375 45.792969 12.046875 C 45.792969 12.109375 45.792969 12.171875 45.792969 12.234375 C 45.792969 12.371094 45.792969 12.507812 45.792969 12.644531 C 45.792969 12.859375 45.792969 13.078125 45.796875 13.292969 C 45.800781 13.90625 45.800781 14.523438 45.804688 15.136719 C 45.804688 15.511719 45.804688 15.886719 45.808594 16.261719 C 45.808594 16.40625 45.808594 16.550781 45.808594 16.691406 C 45.808594 16.890625 45.808594 17.09375 45.8125 17.292969 C 45.8125 17.351562 45.8125 17.410156 45.8125 17.472656 C 45.820312 18.074219 46.058594 18.59375 46.472656 19.027344 C 47.023438 19.484375 47.5625 19.703125 48.28125 19.648438 C 48.695312 19.585938 49.015625 19.449219 49.363281 19.21875 C 49.445312 19.164062 49.445312 19.164062 49.53125 19.109375 C 49.992188 18.65625 50.238281 18.089844 50.265625 17.445312 C 50.269531 17.332031 50.269531 17.21875 50.269531 17.109375 C 50.269531 17.046875 50.269531 16.984375 50.269531 16.917969 C 50.269531 16.714844 50.269531 16.511719 50.269531 16.308594 C 50.273438 16.167969 50.273438 16.023438 50.273438 15.882812 C 50.277344 15.507812 50.277344 15.136719 50.28125 14.765625 C 50.28125 14.167969 50.285156 13.570312 50.289062 12.972656 C 50.292969 12.761719 50.292969 12.554688 50.292969 12.34375 C 50.292969 12.214844 50.292969 12.089844 50.292969 11.960938 C 50.292969 11.902344 50.292969 11.84375 50.292969 11.785156 C 50.296875 11.386719 50.296875 11.386719 50.367188 11.316406 C 50.453125 11.308594 50.539062 11.308594 50.625 11.308594 C 50.683594 11.308594 50.738281 11.308594 50.792969 11.308594 C 50.855469 11.308594 50.914062 11.308594 50.976562 11.308594 C 51.035156 11.308594 51.097656 11.308594 51.160156 11.308594 C 51.289062 11.308594 51.417969 11.308594 51.550781 11.308594 C 51.746094 11.308594 51.945312 11.308594 52.144531 11.308594 C 52.269531 11.308594 52.398438 11.308594 52.523438 11.308594 C 52.582031 11.308594 52.640625 11.308594 52.703125 11.308594 C 52.757812 11.308594 52.8125 11.308594 52.871094 11.308594 C 52.917969 11.308594 52.96875 11.308594 53.019531 11.308594 C 53.128906 11.316406 53.128906 11.316406 53.191406 11.378906 C 53.199219 11.464844 53.203125 11.546875 53.203125 11.632812 C 53.203125 11.6875 53.203125 11.742188 53.203125 11.796875 C 53.203125 11.890625 53.203125 11.890625 53.203125 11.980469 C 53.203125 12.046875 53.203125 12.109375 53.203125 12.171875 C 53.207031 12.382812 53.207031 12.59375 53.207031 12.804688 C 53.207031 12.953125 53.207031 13.101562 53.207031 13.246094 C 53.207031 13.554688 53.207031 13.863281 53.207031 14.171875 C 53.207031 14.566406 53.210938 14.957031 53.210938 15.351562 C 53.214844 15.65625 53.214844 15.957031 53.214844 16.261719 C 53.214844 16.40625 53.214844 16.550781 53.214844 16.695312 C 53.222656 18.292969 52.96875 19.683594 51.820312 20.867188 C 51.199219 21.472656 50.394531 21.859375 49.550781 22 C 49.53125 23.355469 49.507812 24.710938 49.488281 26.109375 C 49.34375 26.179688 49.265625 26.179688 49.109375 26.179688 C 49.054688 26.183594 49.003906 26.183594 48.949219 26.183594 C 48.890625 26.183594 48.835938 26.183594 48.777344 26.183594 C 48.71875 26.183594 48.660156 26.183594 48.601562 26.183594 C 48.480469 26.183594 48.355469 26.183594 48.234375 26.183594 C 48.042969 26.183594 47.855469 26.183594 47.667969 26.1875 C 47.546875 26.1875 47.429688 26.1875 47.308594 26.1875 C 47.253906 26.1875 47.195312 26.1875 47.136719 26.1875 C 47.085938 26.1875 47.03125 26.1875 46.980469 26.1875 C 46.933594 26.1875 46.886719 26.1875 46.839844 26.1875 C 46.726562 26.171875 46.726562 26.171875 46.597656 26.046875 C 46.582031 25.878906 46.582031 25.878906 46.578125 25.667969 C 46.578125 25.585938 46.578125 25.507812 46.574219 25.425781 C 46.574219 25.335938 46.574219 25.25 46.574219 25.164062 C 46.570312 25.074219 46.570312 24.984375 46.570312 24.894531 C 46.566406 24.660156 46.5625 24.425781 46.5625 24.191406 C 46.558594 23.953125 46.554688 23.710938 46.550781 23.472656 C 46.546875 23.003906 46.542969 22.53125 46.535156 22.0625 C 46.460938 22.039062 46.382812 22.015625 46.304688 21.988281 C 46.203125 21.957031 46.101562 21.921875 46 21.890625 C 45.949219 21.875 45.898438 21.859375 45.847656 21.839844 C 44.765625 21.484375 43.90625 20.703125 43.375 19.699219 C 43.039062 18.976562 42.882812 18.324219 42.886719 17.53125 C 42.886719 17.464844 42.886719 17.398438 42.886719 17.328125 C 42.886719 17.105469 42.886719 16.882812 42.886719 16.664062 C 42.886719 16.507812 42.886719 16.355469 42.886719 16.199219 C 42.886719 15.796875 42.890625 15.390625 42.890625 14.988281 C 42.890625 14.574219 42.890625 14.160156 42.890625 13.746094 C 42.890625 12.9375 42.890625 12.125 42.894531 11.316406 Z M 42.894531 11.316406 "/>
<path style=" stroke:none;fill-rule:nonzero;fill:rgb(95.294118%,56.862748%,12.54902%);fill-opacity:1;" d="M 115.554688 11.503906 C 116.488281 11.503906 117.421875 11.503906 118.382812 11.503906 C 118.4375 11.679688 118.453125 11.78125 118.453125 11.960938 C 118.453125 12.011719 118.453125 12.066406 118.453125 12.121094 C 118.453125 12.179688 118.453125 12.238281 118.453125 12.300781 C 118.453125 12.363281 118.453125 12.425781 118.453125 12.488281 C 118.453125 12.621094 118.453125 12.757812 118.453125 12.890625 C 118.457031 13.105469 118.457031 13.320312 118.457031 13.535156 C 118.460938 14.140625 118.464844 14.75 118.464844 15.355469 C 118.464844 15.726562 118.46875 16.097656 118.46875 16.472656 C 118.472656 16.613281 118.472656 16.753906 118.472656 16.894531 C 118.472656 17.09375 118.472656 17.292969 118.472656 17.488281 C 118.472656 17.546875 118.472656 17.605469 118.472656 17.664062 C 118.480469 18.285156 118.738281 18.757812 119.136719 19.21875 C 119.597656 19.660156 120.140625 19.8125 120.769531 19.851562 C 121.25 19.824219 121.625 19.671875 122.023438 19.40625 C 122.109375 19.351562 122.109375 19.351562 122.191406 19.296875 C 122.652344 18.847656 122.902344 18.28125 122.929688 17.636719 C 122.929688 17.523438 122.929688 17.410156 122.929688 17.296875 C 122.929688 17.234375 122.929688 17.171875 122.929688 17.109375 C 122.933594 16.90625 122.933594 16.703125 122.933594 16.496094 C 122.933594 16.355469 122.933594 16.214844 122.9375 16.070312 C 122.9375 15.699219 122.941406 15.328125 122.941406 14.953125 C 122.945312 14.355469 122.949219 13.757812 122.953125 13.160156 C 122.953125 12.953125 122.953125 12.742188 122.953125 12.535156 C 122.953125 12.40625 122.957031 12.28125 122.957031 12.152344 C 122.957031 12.09375 122.957031 12.035156 122.957031 11.976562 C 122.960938 11.574219 122.960938 11.574219 123.027344 11.503906 C 123.117188 11.5 123.203125 11.496094 123.289062 11.496094 C 123.34375 11.496094 123.398438 11.496094 123.457031 11.496094 C 123.515625 11.496094 123.574219 11.496094 123.636719 11.496094 C 123.699219 11.496094 123.757812 11.496094 123.824219 11.496094 C 123.953125 11.496094 124.082031 11.496094 124.210938 11.496094 C 124.410156 11.496094 124.609375 11.496094 124.808594 11.496094 C 124.933594 11.496094 125.058594 11.496094 125.183594 11.496094 C 125.242188 11.496094 125.304688 11.496094 125.367188 11.496094 C 125.421875 11.496094 125.476562 11.496094 125.53125 11.496094 C 125.582031 11.496094 125.628906 11.496094 125.679688 11.496094 C 125.792969 11.503906 125.792969 11.503906 125.855469 11.570312 C 125.863281 11.652344 125.863281 11.738281 125.863281 11.824219 C 125.863281 11.878906 125.863281 11.933594 125.863281 11.988281 C 125.863281 12.078125 125.863281 12.078125 125.863281 12.171875 C 125.867188 12.234375 125.867188 12.296875 125.867188 12.363281 C 125.867188 12.574219 125.867188 12.785156 125.867188 12.996094 C 125.867188 13.144531 125.867188 13.289062 125.867188 13.4375 C 125.871094 13.746094 125.871094 14.054688 125.871094 14.359375 C 125.871094 14.753906 125.871094 15.148438 125.875 15.542969 C 125.875 15.84375 125.875 16.148438 125.875 16.453125 C 125.875 16.597656 125.875 16.742188 125.875 16.886719 C 125.886719 18.480469 125.628906 19.871094 124.480469 21.058594 C 123.863281 21.660156 123.058594 22.046875 122.210938 22.191406 C 122.191406 23.546875 122.171875 24.902344 122.148438 26.300781 C 122.007812 26.371094 121.929688 26.371094 121.769531 26.371094 C 121.71875 26.371094 121.664062 26.371094 121.609375 26.371094 C 121.554688 26.371094 121.496094 26.371094 121.4375 26.371094 C 121.382812 26.371094 121.324219 26.375 121.261719 26.375 C 121.140625 26.375 121.015625 26.375 120.894531 26.375 C 120.707031 26.375 120.515625 26.375 120.328125 26.375 C 120.210938 26.375 120.089844 26.375 119.972656 26.375 C 119.914062 26.378906 119.859375 26.378906 119.800781 26.378906 C 119.746094 26.378906 119.695312 26.378906 119.640625 26.378906 C 119.59375 26.378906 119.546875 26.378906 119.5 26.378906 C 119.386719 26.363281 119.386719 26.363281 119.261719 26.234375 C 119.242188 26.066406 119.242188 26.066406 119.242188 25.851562 C 119.238281 25.769531 119.238281 25.6875 119.238281 25.605469 C 119.234375 25.515625 119.234375 25.425781 119.234375 25.339844 C 119.234375 25.246094 119.234375 25.15625 119.230469 25.066406 C 119.226562 24.828125 119.226562 24.589844 119.222656 24.351562 C 119.21875 24.109375 119.21875 23.863281 119.214844 23.621094 C 119.207031 23.144531 119.203125 22.667969 119.199219 22.191406 C 119.128906 22.179688 119.0625 22.171875 118.992188 22.164062 C 117.960938 22.003906 117.09375 21.328125 116.433594 20.546875 C 115.832031 19.703125 115.542969 18.753906 115.546875 17.722656 C 115.546875 17.652344 115.546875 17.585938 115.546875 17.515625 C 115.546875 17.296875 115.550781 17.074219 115.550781 16.851562 C 115.550781 16.699219 115.550781 16.542969 115.550781 16.390625 C 115.550781 15.984375 115.550781 15.582031 115.550781 15.175781 C 115.550781 14.761719 115.550781 14.351562 115.550781 13.9375 C 115.554688 13.125 115.554688 12.316406 115.554688 11.503906 Z M 115.554688 11.503906 "/>
<path style=" stroke:none;fill-rule:nonzero;fill:rgb(95.294118%,56.862748%,12.54902%);fill-opacity:1;" d="M 99.226562 11.441406 C 99.296875 11.464844 99.363281 11.484375 99.433594 11.503906 C 100.664062 11.929688 101.675781 12.816406 102.261719 13.980469 C 102.675781 14.851562 102.878906 15.757812 102.875 16.722656 C 102.875 16.78125 102.875 16.839844 102.875 16.898438 C 102.875 17.09375 102.875 17.285156 102.875 17.476562 C 102.875 17.613281 102.875 17.746094 102.875 17.878906 C 102.875 18.230469 102.875 18.582031 102.875 18.933594 C 102.875 19.359375 102.871094 19.78125 102.871094 20.203125 C 102.871094 20.84375 102.871094 21.484375 102.871094 22.125 C 101.917969 22.125 100.964844 22.125 99.980469 22.125 C 99.960938 21.605469 99.9375 21.082031 99.917969 20.546875 C 99.8125 20.703125 99.8125 20.703125 99.703125 20.863281 C 99.109375 21.675781 98.324219 22.171875 97.332031 22.351562 C 95.933594 22.511719 94.6875 22.257812 93.574219 21.367188 C 92.457031 20.414062 91.875 19.003906 91.707031 17.558594 C 91.699219 17.457031 91.695312 17.359375 91.691406 17.257812 C 91.6875 17.199219 91.6875 17.136719 91.683594 17.074219 C 91.648438 15.371094 92.164062 13.910156 93.332031 12.671875 C 94.800781 11.222656 97.292969 10.835938 99.226562 11.441406 Z M 95.316406 14.625 C 94.703125 15.394531 94.546875 16.363281 94.640625 17.320312 C 94.730469 17.910156 94.925781 18.421875 95.269531 18.902344 C 95.316406 18.96875 95.359375 19.035156 95.40625 19.105469 C 95.96875 19.667969 96.621094 19.902344 97.40625 19.914062 C 98.101562 19.871094 98.71875 19.613281 99.191406 19.089844 C 99.886719 18.210938 100.019531 17.210938 99.917969 16.121094 C 99.777344 15.339844 99.398438 14.664062 98.789062 14.160156 C 97.648438 13.371094 96.234375 13.628906 95.316406 14.625 Z M 95.316406 14.625 "/>
<path style=" stroke:none;fill-rule:nonzero;fill:rgb(95.294118%,56.862748%,12.54902%);fill-opacity:1;" d="M 88.949219 12.074219 C 90.109375 12.953125 90.582031 14.242188 90.851562 15.628906 C 90.886719 15.996094 90.882812 16.367188 90.882812 16.738281 C 90.882812 16.816406 90.882812 16.894531 90.882812 16.972656 C 90.882812 17.085938 90.882812 17.085938 90.882812 17.199219 C 90.882812 17.265625 90.882812 17.332031 90.882812 17.402344 C 90.875 17.574219 90.875 17.574219 90.8125 17.765625 C 88.46875 17.765625 86.128906 17.765625 83.714844 17.765625 C 84.125 18.59375 84.386719 19.035156 85.238281 19.359375 C 85.863281 19.5625 86.449219 19.609375 87.101562 19.617188 C 87.171875 19.617188 87.242188 19.621094 87.316406 19.621094 C 87.539062 19.625 87.761719 19.628906 87.984375 19.632812 C 88.136719 19.636719 88.289062 19.640625 88.441406 19.640625 C 88.8125 19.648438 89.183594 19.65625 89.554688 19.660156 C 89.554688 20.472656 89.554688 21.289062 89.554688 22.125 C 89.085938 22.128906 88.613281 22.132812 88.140625 22.136719 C 87.921875 22.136719 87.703125 22.136719 87.484375 22.140625 C 85.5625 22.160156 83.660156 22.019531 82.203125 20.609375 C 82.121094 20.527344 82.039062 20.441406 81.957031 20.355469 C 81.914062 20.316406 81.875 20.273438 81.832031 20.230469 C 80.808594 19.148438 80.605469 17.738281 80.621094 16.304688 C 80.652344 15.089844 81.0625 13.964844 81.832031 13.023438 C 81.882812 12.957031 81.882812 12.957031 81.933594 12.886719 C 83.546875 10.878906 86.90625 10.703125 88.949219 12.074219 Z M 84.78125 13.90625 C 84.742188 13.929688 84.703125 13.949219 84.664062 13.972656 C 84.097656 14.316406 83.863281 14.96875 83.691406 15.578125 C 83.648438 15.722656 83.648438 15.722656 83.652344 15.804688 C 85.082031 15.804688 86.511719 15.804688 87.984375 15.804688 C 87.90625 15.101562 87.769531 14.558594 87.238281 14.074219 C 86.535156 13.53125 85.558594 13.476562 84.78125 13.90625 Z M 84.78125 13.90625 "/>
<path style=" stroke:none;fill-rule:nonzero;fill:rgb(92.156863%,38.431373%,18.039216%);fill-opacity:1;" d="M 75.425781 11.757812 C 75.699219 11.96875 75.9375 12.207031 76.179688 12.453125 C 76.21875 12.492188 76.261719 12.535156 76.304688 12.574219 C 77.140625 13.433594 77.503906 14.886719 77.507812 16.054688 C 77.507812 16.136719 77.507812 16.214844 77.507812 16.300781 C 77.507812 16.382812 77.503906 16.464844 77.503906 16.550781 C 77.503906 16.636719 77.507812 16.722656 77.507812 16.808594 C 77.507812 16.925781 77.507812 16.925781 77.507812 17.050781 C 77.503906 17.125 77.503906 17.195312 77.503906 17.273438 C 77.496094 17.449219 77.496094 17.449219 77.433594 17.574219 C 75.113281 17.59375 72.792969 17.617188 70.402344 17.636719 C 70.851562 18.546875 71.179688 18.9375 72.113281 19.269531 C 72.652344 19.417969 73.222656 19.417969 73.78125 19.429688 C 73.851562 19.429688 73.917969 19.429688 73.988281 19.433594 C 74.207031 19.4375 74.425781 19.441406 74.644531 19.445312 C 74.792969 19.445312 74.941406 19.449219 75.089844 19.453125 C 75.453125 19.457031 75.816406 19.464844 76.179688 19.472656 C 76.179688 20.285156 76.179688 21.097656 76.179688 21.9375 C 75.707031 21.941406 75.234375 21.945312 74.765625 21.945312 C 74.546875 21.949219 74.324219 21.949219 74.105469 21.949219 C 72.140625 21.96875 70.269531 21.796875 68.777344 20.375 C 68.035156 19.636719 67.535156 18.730469 67.324219 17.699219 C 67.304688 17.621094 67.304688 17.621094 67.289062 17.535156 C 67.089844 16.011719 67.324219 14.335938 68.265625 13.085938 C 68.445312 12.863281 68.632812 12.65625 68.832031 12.453125 C 68.878906 12.40625 68.925781 12.355469 68.972656 12.304688 C 70.574219 10.746094 73.574219 10.546875 75.425781 11.757812 Z M 70.902344 14.160156 C 70.550781 14.601562 70.339844 15.042969 70.339844 15.613281 C 71.746094 15.613281 73.15625 15.613281 74.609375 15.613281 C 74.539062 14.925781 74.394531 14.410156 73.917969 13.90625 C 73 13.167969 71.683594 13.304688 70.902344 14.160156 Z M 70.902344 14.160156 "/>
<path style=" stroke:none;fill-rule:nonzero;fill:rgb(95.294118%,56.862748%,12.54902%);fill-opacity:1;" d="M 107.8125 11.5 C 107.867188 11.5 107.921875 11.5 107.980469 11.5 C 108.160156 11.5 108.339844 11.5 108.519531 11.5 C 108.644531 11.5 108.769531 11.5 108.894531 11.5 C 109.222656 11.5 109.550781 11.5 109.878906 11.5 C 110.273438 11.503906 110.667969 11.503906 111.058594 11.503906 C 111.660156 11.503906 112.257812 11.503906 112.855469 11.503906 C 112.855469 12.320312 112.855469 13.132812 112.855469 13.972656 C 112.503906 13.972656 112.15625 13.972656 111.796875 13.976562 C 111.574219 13.976562 111.355469 13.980469 111.132812 13.980469 C 110.78125 13.984375 110.429688 13.988281 110.078125 13.988281 C 109.792969 13.988281 109.511719 13.992188 109.226562 13.996094 C 109.121094 13.996094 109.011719 13.996094 108.902344 13.996094 C 108.753906 13.996094 108.601562 13.996094 108.449219 14 C 108.40625 14 108.359375 14 108.3125 14 C 108 14.003906 107.820312 14.089844 107.578125 14.289062 C 107.46875 14.507812 107.480469 14.742188 107.515625 14.984375 C 107.652344 15.15625 107.761719 15.261719 107.957031 15.363281 C 108.042969 15.367188 108.132812 15.371094 108.222656 15.371094 C 108.277344 15.371094 108.332031 15.375 108.386719 15.375 C 108.476562 15.375 108.476562 15.375 108.566406 15.375 C 108.695312 15.378906 108.820312 15.378906 108.949219 15.378906 C 109.148438 15.382812 109.347656 15.386719 109.546875 15.386719 C 110.8125 15.398438 112.132812 15.4375 113.105469 16.375 C 113.847656 17.191406 113.917969 18.1875 113.871094 19.246094 C 113.8125 20.027344 113.34375 20.773438 112.792969 21.304688 C 112.085938 21.90625 111.289062 22.136719 110.378906 22.132812 C 110.324219 22.132812 110.265625 22.132812 110.203125 22.132812 C 110.011719 22.132812 109.820312 22.132812 109.628906 22.132812 C 109.496094 22.132812 109.363281 22.132812 109.230469 22.132812 C 108.878906 22.132812 108.53125 22.132812 108.179688 22.128906 C 107.820312 22.128906 107.464844 22.128906 107.105469 22.128906 C 106.40625 22.128906 105.707031 22.128906 105.003906 22.125 C 105.003906 21.3125 105.003906 20.5 105.003906 19.660156 C 105.378906 19.660156 105.753906 19.65625 106.140625 19.652344 C 106.375 19.652344 106.613281 19.648438 106.851562 19.648438 C 107.230469 19.644531 107.605469 19.640625 107.984375 19.640625 C 108.289062 19.636719 108.59375 19.636719 108.894531 19.632812 C 109.011719 19.628906 109.128906 19.628906 109.242188 19.628906 C 109.40625 19.628906 109.570312 19.628906 109.730469 19.625 C 109.800781 19.625 109.800781 19.625 109.875 19.625 C 110.214844 19.621094 110.539062 19.5625 110.84375 19.40625 C 110.980469 19.164062 111.003906 18.925781 110.972656 18.648438 C 110.832031 18.367188 110.703125 18.234375 110.414062 18.117188 C 110.160156 18.046875 109.902344 18.054688 109.640625 18.058594 C 109.515625 18.054688 109.390625 18.054688 109.265625 18.054688 C 109.066406 18.054688 108.871094 18.054688 108.675781 18.054688 C 107.46875 18.050781 106.230469 17.984375 105.320312 17.070312 C 104.65625 16.277344 104.507812 15.363281 104.566406 14.351562 C 104.695312 13.449219 105.160156 12.714844 105.847656 12.136719 C 106.464844 11.679688 107.058594 11.496094 107.8125 11.5 Z M 107.8125 11.5 "/>
<path style=" stroke:none;fill-rule:nonzero;fill:rgb(92.156863%,38.431373%,18.039216%);fill-opacity:1;" d="M 39.074219 11.292969 C 39.195312 11.292969 39.195312 11.292969 39.320312 11.292969 C 39.53125 11.292969 39.746094 11.296875 39.957031 11.296875 C 40.175781 11.300781 40.394531 11.300781 40.613281 11.304688 C 41.039062 11.304688 41.464844 11.3125 41.890625 11.316406 C 41.890625 12.128906 41.890625 12.941406 41.890625 13.78125 C 41.703125 13.785156 41.515625 13.789062 41.320312 13.789062 C 41.140625 13.792969 40.957031 13.796875 40.777344 13.800781 C 40.648438 13.804688 40.523438 13.804688 40.398438 13.808594 C 40.214844 13.8125 40.035156 13.816406 39.851562 13.820312 C 39.796875 13.820312 39.738281 13.820312 39.683594 13.820312 C 39.628906 13.820312 39.578125 13.824219 39.523438 13.824219 C 39.476562 13.824219 39.429688 13.828125 39.382812 13.828125 C 39.226562 13.847656 39.128906 13.882812 39 13.972656 C 38.878906 14.167969 38.859375 14.320312 38.855469 14.546875 C 38.855469 14.613281 38.855469 14.679688 38.855469 14.746094 C 38.855469 14.816406 38.855469 14.886719 38.855469 14.960938 C 38.851562 15.074219 38.851562 15.074219 38.851562 15.1875 C 38.851562 15.394531 38.851562 15.601562 38.847656 15.808594 C 38.847656 16.023438 38.847656 16.238281 38.84375 16.453125 C 38.839844 16.863281 38.839844 17.269531 38.835938 17.675781 C 38.835938 18.140625 38.832031 18.605469 38.828125 19.070312 C 38.820312 20.027344 38.816406 20.980469 38.8125 21.9375 C 37.859375 21.9375 36.90625 21.9375 35.921875 21.9375 C 35.917969 20.878906 35.914062 19.820312 35.914062 18.761719 C 35.910156 18.269531 35.910156 17.777344 35.910156 17.285156 C 35.90625 16.859375 35.90625 16.429688 35.90625 16 C 35.90625 15.773438 35.902344 15.546875 35.902344 15.320312 C 35.902344 15.066406 35.902344 14.8125 35.902344 14.558594 C 35.902344 14.484375 35.898438 14.410156 35.898438 14.335938 C 35.902344 13.472656 36.105469 12.699219 36.695312 12.050781 C 37.363281 11.414062 38.183594 11.277344 39.074219 11.292969 Z M 39.074219 11.292969 "/>
<path style=" stroke:none;fill-rule:nonzero;fill:rgb(18.431373%,18.039216%,18.039216%);fill-opacity:1;" d="M 119.199219 22.191406 C 120.191406 22.191406 121.1875 22.191406 122.210938 22.191406 C 122.191406 23.546875 122.171875 24.902344 122.148438 26.300781 C 122.007812 26.371094 121.929688 26.371094 121.769531 26.371094 C 121.71875 26.371094 121.664062 26.371094 121.609375 26.371094 C 121.554688 26.371094 121.496094 26.371094 121.4375 26.371094 C 121.382812 26.371094 121.324219 26.375 121.261719 26.375 C 121.140625 26.375 121.015625 26.375 120.894531 26.375 C 120.707031 26.375 120.515625 26.375 120.328125 26.375 C 120.210938 26.375 120.089844 26.375 119.972656 26.375 C 119.914062 26.378906 119.859375 26.378906 119.800781 26.378906 C 119.722656 26.378906 119.722656 26.378906 119.640625 26.378906 C 119.59375 26.378906 119.546875 26.378906 119.5 26.378906 C 119.386719 26.363281 119.386719 26.363281 119.261719 26.234375 C 119.242188 26.066406 119.242188 26.066406 119.242188 25.851562 C 119.238281 25.769531 119.238281 25.6875 119.238281 25.605469 C 119.234375 25.515625 119.234375 25.425781 119.234375 25.339844 C 119.234375 25.246094 119.234375 25.15625 119.230469 25.066406 C 119.226562 24.828125 119.226562 24.589844 119.222656 24.351562 C 119.21875 24.066406 119.214844 23.78125 119.210938 23.492188 C 119.207031 23.058594 119.203125 22.625 119.199219 22.191406 Z M 119.199219 22.191406 "/>
<path style=" stroke:none;fill-rule:nonzero;fill:rgb(0%,0%,0%);fill-opacity:1;" d="M 104.851562 24.398438 C 104.925781 24.398438 104.925781 24.398438 105.003906 24.402344 C 105.15625 24.824219 105.261719 25.246094 105.359375 25.679688 C 105.414062 25.933594 105.414062 25.933594 105.507812 26.171875 C 105.671875 25.671875 105.839844 25.171875 106.007812 24.65625 C 106.386719 24.59375 106.386719 24.59375 106.511719 24.65625 C 106.566406 24.78125 106.566406 24.78125 106.621094 24.941406 C 106.640625 25 106.660156 25.058594 106.679688 25.121094 C 106.699219 25.183594 106.71875 25.242188 106.738281 25.308594 C 106.769531 25.398438 106.769531 25.398438 106.800781 25.492188 C 106.886719 25.753906 106.953125 25.953125 106.953125 26.234375 C 106.992188 26.234375 107.035156 26.234375 107.078125 26.234375 C 107.085938 26.175781 107.089844 26.121094 107.097656 26.058594 C 107.144531 25.726562 107.226562 25.398438 107.300781 25.070312 C 107.324219 24.972656 107.324219 24.972656 107.34375 24.875 C 107.382812 24.71875 107.417969 24.558594 107.453125 24.402344 C 107.578125 24.402344 107.703125 24.402344 107.832031 24.402344 C 107.933594 24.722656 107.84375 24.980469 107.757812 25.292969 C 107.734375 25.371094 107.734375 25.371094 107.710938 25.453125 C 107.433594 26.46875 107.433594 26.46875 107.265625 26.804688 C 107.101562 26.804688 106.933594 26.804688 106.761719 26.804688 C 106.597656 26.304688 106.433594 25.804688 106.261719 25.289062 C 106.097656 25.761719 106.097656 25.761719 105.9375 26.238281 C 105.914062 26.296875 105.894531 26.355469 105.875 26.417969 C 105.855469 26.476562 105.832031 26.539062 105.8125 26.601562 C 105.757812 26.742188 105.757812 26.742188 105.695312 26.804688 C 105.550781 26.808594 105.402344 26.808594 105.257812 26.804688 C 105.050781 26.378906 104.914062 25.953125 104.800781 25.492188 C 104.785156 25.429688 104.765625 25.363281 104.75 25.296875 C 104.609375 24.753906 104.609375 24.753906 104.628906 24.464844 C 104.691406 24.402344 104.691406 24.402344 104.851562 24.398438 Z M 104.851562 24.398438 "/>
<path style=" stroke:none;fill-rule:nonzero;fill:rgb(0%,0%,0%);fill-opacity:1;" d="M 87.921875 23.515625 C 88.066406 23.515625 88.210938 23.515625 88.363281 23.515625 C 88.433594 23.664062 88.433594 23.75 88.4375 23.914062 C 88.4375 23.96875 88.4375 24.027344 88.441406 24.082031 C 88.441406 24.339844 88.445312 24.59375 88.445312 24.851562 C 88.449219 24.984375 88.449219 25.121094 88.453125 25.257812 C 88.457031 25.449219 88.457031 25.644531 88.457031 25.839844 C 88.460938 25.898438 88.460938 25.960938 88.460938 26.023438 C 88.460938 26.3125 88.457031 26.445312 88.277344 26.683594 C 88.015625 26.875 87.8125 26.878906 87.496094 26.882812 C 87.382812 26.886719 87.382812 26.886719 87.265625 26.886719 C 86.929688 26.855469 86.734375 26.742188 86.492188 26.507812 C 86.214844 26.140625 86.203125 25.746094 86.261719 25.308594 C 86.339844 24.902344 86.535156 24.699219 86.855469 24.464844 C 87.058594 24.398438 87.210938 24.394531 87.425781 24.394531 C 87.492188 24.394531 87.558594 24.394531 87.625 24.394531 C 87.796875 24.402344 87.796875 24.402344 87.921875 24.464844 C 87.921875 24.152344 87.921875 23.839844 87.921875 23.515625 Z M 86.855469 25.035156 C 86.671875 25.332031 86.695312 25.644531 86.730469 25.984375 C 86.828125 26.222656 86.949219 26.351562 87.167969 26.488281 C 87.328125 26.511719 87.328125 26.511719 87.492188 26.503906 C 87.574219 26.503906 87.574219 26.503906 87.65625 26.5 C 87.800781 26.496094 87.800781 26.496094 87.921875 26.425781 C 87.929688 26.175781 87.929688 25.925781 87.933594 25.675781 C 87.9375 25.601562 87.9375 25.53125 87.9375 25.457031 C 87.941406 25.390625 87.941406 25.324219 87.941406 25.253906 C 87.941406 25.1875 87.941406 25.125 87.945312 25.0625 C 87.9375 25.011719 87.929688 24.960938 87.921875 24.90625 C 87.558594 24.664062 87.152344 24.707031 86.855469 25.035156 Z M 86.855469 25.035156 "/>
<path style=" stroke:none;fill-rule:nonzero;fill:rgb(0%,0%,0%);fill-opacity:1;" d="M 108.394531 23.515625 C 108.519531 23.515625 108.644531 23.515625 108.773438 23.515625 C 108.894531 23.640625 108.859375 23.863281 108.871094 24.027344 C 108.875 24.109375 108.882812 24.191406 108.886719 24.273438 C 108.890625 24.335938 108.894531 24.402344 108.898438 24.464844 C 108.960938 24.445312 109.023438 24.421875 109.085938 24.402344 C 109.4375 24.371094 109.742188 24.355469 110.0625 24.503906 C 110.285156 24.722656 110.394531 24.925781 110.425781 25.238281 C 110.425781 25.347656 110.425781 25.347656 110.425781 25.457031 C 110.421875 25.578125 110.421875 25.578125 110.421875 25.695312 C 110.421875 25.777344 110.417969 25.859375 110.417969 25.941406 C 110.417969 26.066406 110.417969 26.066406 110.414062 26.195312 C 110.414062 26.398438 110.410156 26.601562 110.40625 26.804688 C 110.28125 26.808594 110.15625 26.808594 110.027344 26.804688 C 109.921875 26.695312 109.953125 26.546875 109.949219 26.398438 C 109.949219 26.328125 109.945312 26.257812 109.945312 26.1875 C 109.941406 26.039062 109.9375 25.890625 109.933594 25.742188 C 109.929688 25.636719 109.929688 25.636719 109.925781 25.527344 C 109.925781 25.464844 109.925781 25.398438 109.921875 25.332031 C 109.902344 25.160156 109.871094 25.054688 109.777344 24.90625 C 109.628906 24.835938 109.535156 24.835938 109.375 24.832031 C 109.324219 24.832031 109.273438 24.832031 109.222656 24.832031 C 109.070312 24.835938 109.070312 24.835938 108.898438 24.972656 C 108.867188 25.160156 108.867188 25.160156 108.867188 25.382812 C 108.863281 25.46875 108.863281 25.550781 108.859375 25.632812 C 108.859375 25.722656 108.855469 25.808594 108.855469 25.894531 C 108.851562 25.984375 108.851562 26.070312 108.847656 26.160156 C 108.84375 26.375 108.839844 26.589844 108.835938 26.804688 C 108.691406 26.804688 108.546875 26.804688 108.394531 26.804688 C 108.394531 25.71875 108.394531 24.636719 108.394531 23.515625 Z M 108.394531 23.515625 "/>
<path style=" stroke:none;fill-rule:nonzero;fill:rgb(0%,0%,0%);fill-opacity:1;" d="M 117.070312 24.441406 C 117.355469 24.589844 117.53125 24.796875 117.628906 25.097656 C 117.648438 25.273438 117.640625 25.425781 117.628906 25.601562 C 117.359375 25.703125 117.101562 25.761719 116.816406 25.800781 C 116.742188 25.8125 116.667969 25.820312 116.59375 25.832031 C 116.371094 25.855469 116.15625 25.859375 115.933594 25.855469 C 116.046875 26.113281 116.128906 26.28125 116.371094 26.425781 C 116.738281 26.476562 117.097656 26.449219 117.441406 26.300781 C 117.480469 26.382812 117.523438 26.464844 117.566406 26.550781 C 117.363281 26.765625 117.246094 26.859375 116.945312 26.882812 C 116.410156 26.894531 116.054688 26.851562 115.65625 26.472656 C 115.40625 26.046875 115.398438 25.636719 115.492188 25.160156 C 115.613281 24.828125 115.78125 24.667969 116.058594 24.464844 C 116.378906 24.359375 116.746094 24.34375 117.070312 24.441406 Z M 115.996094 25.097656 C 115.972656 25.242188 115.953125 25.390625 115.933594 25.539062 C 116.324219 25.5 116.71875 25.457031 117.125 25.414062 C 117.21875 25.160156 117.21875 25.160156 117.070312 24.957031 C 116.921875 24.792969 116.8125 24.75 116.589844 24.738281 C 116.300781 24.757812 116.164062 24.847656 115.996094 25.097656 Z M 115.996094 25.097656 "/>
<path style=" stroke:none;fill-rule:nonzero;fill:rgb(0%,0%,0%);fill-opacity:1;" d="M 112.613281 24.441406 C 112.898438 24.589844 113.070312 24.796875 113.167969 25.097656 C 113.1875 25.273438 113.179688 25.425781 113.167969 25.601562 C 112.898438 25.703125 112.640625 25.761719 112.355469 25.800781 C 112.285156 25.8125 112.210938 25.820312 112.136719 25.832031 C 111.914062 25.855469 111.695312 25.859375 111.472656 25.855469 C 111.585938 26.113281 111.671875 26.28125 111.914062 26.425781 C 112.28125 26.476562 112.640625 26.449219 112.980469 26.300781 C 113.023438 26.382812 113.0625 26.464844 113.105469 26.550781 C 112.90625 26.765625 112.785156 26.859375 112.488281 26.882812 C 111.949219 26.894531 111.59375 26.851562 111.199219 26.472656 C 110.949219 26.046875 110.9375 25.636719 111.035156 25.160156 C 111.152344 24.828125 111.320312 24.667969 111.597656 24.464844 C 111.921875 24.359375 112.285156 24.34375 112.613281 24.441406 Z M 111.535156 25.097656 C 111.515625 25.242188 111.496094 25.390625 111.472656 25.539062 C 111.867188 25.5 112.261719 25.457031 112.667969 25.414062 C 112.761719 25.160156 112.761719 25.160156 112.613281 24.957031 C 112.464844 24.792969 112.351562 24.75 112.132812 24.738281 C 111.839844 24.757812 111.703125 24.847656 111.535156 25.097656 Z M 111.535156 25.097656 "/>
<path style=" stroke:none;fill-rule:nonzero;fill:rgb(0%,0%,0%);fill-opacity:1;" d="M 99.234375 24.441406 C 99.519531 24.589844 99.695312 24.796875 99.792969 25.097656 C 99.8125 25.273438 99.804688 25.425781 99.792969 25.601562 C 99.523438 25.703125 99.265625 25.761719 98.980469 25.800781 C 98.90625 25.8125 98.832031 25.820312 98.757812 25.832031 C 98.535156 25.855469 98.320312 25.859375 98.097656 25.855469 C 98.210938 26.113281 98.292969 26.28125 98.535156 26.425781 C 98.902344 26.476562 99.261719 26.449219 99.605469 26.300781 C 99.644531 26.382812 99.6875 26.464844 99.730469 26.550781 C 99.53125 26.765625 99.410156 26.859375 99.109375 26.882812 C 98.574219 26.894531 98.21875 26.851562 97.820312 26.472656 C 97.570312 26.046875 97.5625 25.636719 97.65625 25.160156 C 97.777344 24.828125 97.945312 24.667969 98.222656 24.464844 C 98.542969 24.359375 98.910156 24.34375 99.234375 24.441406 Z M 98.160156 25.097656 C 98.140625 25.242188 98.117188 25.390625 98.097656 25.539062 C 98.492188 25.5 98.882812 25.457031 99.289062 25.414062 C 99.382812 25.160156 99.382812 25.160156 99.234375 24.957031 C 99.085938 24.792969 98.976562 24.75 98.757812 24.738281 C 98.464844 24.757812 98.328125 24.847656 98.160156 25.097656 Z M 98.160156 25.097656 "/>
<path style=" stroke:none;fill-rule:nonzero;fill:rgb(0%,0%,0%);fill-opacity:1;" d="M 94.210938 24.441406 C 94.496094 24.589844 94.667969 24.796875 94.769531 25.097656 C 94.785156 25.273438 94.78125 25.425781 94.769531 25.601562 C 94.496094 25.703125 94.238281 25.761719 93.957031 25.800781 C 93.882812 25.8125 93.808594 25.820312 93.734375 25.832031 C 93.511719 25.855469 93.296875 25.859375 93.074219 25.855469 C 93.1875 26.113281 93.269531 26.28125 93.511719 26.425781 C 93.878906 26.476562 94.238281 26.449219 94.578125 26.300781 C 94.621094 26.382812 94.664062 26.464844 94.707031 26.550781 C 94.503906 26.765625 94.386719 26.859375 94.085938 26.882812 C 93.546875 26.894531 93.195312 26.851562 92.796875 26.472656 C 92.546875 26.046875 92.539062 25.636719 92.632812 25.160156 C 92.75 24.828125 92.921875 24.667969 93.199219 24.464844 C 93.519531 24.359375 93.882812 24.34375 94.210938 24.441406 Z M 93.136719 25.097656 C 93.113281 25.242188 93.09375 25.390625 93.074219 25.539062 C 93.464844 25.5 93.859375 25.457031 94.265625 25.414062 C 94.359375 25.160156 94.359375 25.160156 94.210938 24.957031 C 94.0625 24.792969 93.953125 24.75 93.730469 24.738281 C 93.4375 24.757812 93.304688 24.847656 93.136719 25.097656 Z M 93.136719 25.097656 "/>
<path style=" stroke:none;fill-rule:nonzero;fill:rgb(0%,0%,0%);fill-opacity:1;" d="M 90.632812 24.441406 C 90.917969 24.589844 91.089844 24.796875 91.1875 25.097656 C 91.207031 25.273438 91.199219 25.425781 91.1875 25.601562 C 90.917969 25.703125 90.660156 25.761719 90.375 25.800781 C 90.304688 25.8125 90.230469 25.820312 90.15625 25.832031 C 89.933594 25.855469 89.714844 25.859375 89.492188 25.855469 C 89.605469 26.113281 89.691406 26.28125 89.933594 26.425781 C 90.300781 26.476562 90.660156 26.449219 91 26.300781 C 91.042969 26.382812 91.082031 26.464844 91.125 26.550781 C 90.925781 26.765625 90.804688 26.859375 90.507812 26.882812 C 89.96875 26.894531 89.613281 26.851562 89.21875 26.472656 C 88.96875 26.046875 88.957031 25.636719 89.054688 25.160156 C 89.171875 24.828125 89.339844 24.667969 89.617188 24.464844 C 89.941406 24.359375 90.304688 24.34375 90.632812 24.441406 Z M 89.554688 25.097656 C 89.535156 25.242188 89.515625 25.390625 89.492188 25.539062 C 89.886719 25.5 90.28125 25.457031 90.6875 25.414062 C 90.78125 25.160156 90.78125 25.160156 90.632812 24.957031 C 90.480469 24.792969 90.371094 24.75 90.152344 24.738281 C 89.859375 24.757812 89.722656 24.847656 89.554688 25.097656 Z M 89.554688 25.097656 "/>
<path style=" stroke:none;fill-rule:nonzero;fill:rgb(0%,0%,0%);fill-opacity:1;" d="M 102.117188 24.402344 C 102.261719 24.382812 102.261719 24.382812 102.429688 24.402344 C 102.574219 24.609375 102.667969 24.832031 102.761719 25.066406 C 102.796875 25.164062 102.796875 25.164062 102.835938 25.261719 C 102.875 25.363281 102.875 25.363281 102.914062 25.464844 C 102.9375 25.53125 102.964844 25.601562 102.992188 25.671875 C 103.054688 25.839844 103.121094 26.003906 103.183594 26.171875 C 103.40625 25.671875 103.570312 25.183594 103.699219 24.652344 C 103.75 24.464844 103.75 24.464844 103.8125 24.402344 C 103.9375 24.398438 104.0625 24.398438 104.1875 24.402344 C 104.210938 24.820312 104.136719 25.148438 104 25.539062 C 103.980469 25.597656 103.960938 25.65625 103.941406 25.714844 C 103.371094 27.339844 103.371094 27.339844 102.808594 27.753906 C 102.589844 27.785156 102.589844 27.785156 102.429688 27.753906 C 102.382812 27.644531 102.382812 27.644531 102.367188 27.5 C 102.464844 27.347656 102.464844 27.347656 102.605469 27.1875 C 102.785156 26.980469 102.90625 26.8125 102.996094 26.550781 C 102.933594 26.53125 102.871094 26.511719 102.808594 26.488281 C 102.726562 26.347656 102.660156 26.214844 102.59375 26.066406 C 102.574219 26.023438 102.558594 25.980469 102.539062 25.9375 C 102.03125 24.792969 102.03125 24.792969 102.078125 24.503906 C 102.089844 24.46875 102.101562 24.4375 102.117188 24.402344 Z M 102.117188 24.402344 "/>
<path style=" stroke:none;fill-rule:nonzero;fill:rgb(0%,0%,0%);fill-opacity:1;" d="M 83.839844 24.402344 C 83.984375 24.382812 83.984375 24.382812 84.15625 24.402344 C 84.300781 24.609375 84.394531 24.832031 84.484375 25.066406 C 84.523438 25.164062 84.523438 25.164062 84.558594 25.261719 C 84.597656 25.363281 84.597656 25.363281 84.636719 25.464844 C 84.664062 25.53125 84.691406 25.601562 84.714844 25.671875 C 84.78125 25.839844 84.84375 26.003906 84.910156 26.171875 C 85.128906 25.671875 85.292969 25.183594 85.421875 24.652344 C 85.472656 24.464844 85.472656 24.464844 85.535156 24.402344 C 85.660156 24.398438 85.789062 24.398438 85.914062 24.402344 C 85.9375 24.820312 85.859375 25.148438 85.726562 25.539062 C 85.703125 25.597656 85.683594 25.65625 85.664062 25.714844 C 85.097656 27.339844 85.097656 27.339844 84.53125 27.753906 C 84.316406 27.785156 84.316406 27.785156 84.15625 27.753906 C 84.109375 27.644531 84.109375 27.644531 84.089844 27.5 C 84.191406 27.347656 84.191406 27.347656 84.332031 27.1875 C 84.511719 26.980469 84.632812 26.8125 84.71875 26.550781 C 84.65625 26.53125 84.59375 26.511719 84.53125 26.488281 C 84.453125 26.347656 84.382812 26.214844 84.320312 26.066406 C 84.300781 26.023438 84.28125 25.980469 84.261719 25.9375 C 83.757812 24.792969 83.757812 24.792969 83.800781 24.503906 C 83.8125 24.46875 83.828125 24.4375 83.839844 24.402344 Z M 83.839844 24.402344 "/>
<path style=" stroke:none;fill-rule:nonzero;fill:rgb(0%,0%,0%);fill-opacity:1;" d="M 95.144531 24.402344 C 95.289062 24.382812 95.289062 24.382812 95.457031 24.402344 C 95.605469 24.609375 95.691406 24.824219 95.773438 25.066406 C 95.796875 25.128906 95.816406 25.195312 95.839844 25.261719 C 95.863281 25.328125 95.882812 25.394531 95.90625 25.460938 C 95.949219 25.59375 95.996094 25.726562 96.039062 25.859375 C 96.058594 25.917969 96.078125 25.976562 96.097656 26.035156 C 96.136719 26.167969 96.136719 26.167969 96.210938 26.234375 C 96.417969 25.628906 96.628906 25.027344 96.839844 24.402344 C 96.964844 24.402344 97.089844 24.402344 97.21875 24.402344 C 97.289062 24.613281 97.273438 24.734375 97.203125 24.941406 C 97.183594 24.996094 97.167969 25.050781 97.148438 25.109375 C 97.128906 25.164062 97.109375 25.222656 97.085938 25.285156 C 97.066406 25.34375 97.046875 25.402344 97.027344 25.460938 C 96.867188 25.925781 96.683594 26.367188 96.464844 26.804688 C 96.296875 26.804688 96.132812 26.804688 95.960938 26.804688 C 95.695312 26.324219 95.496094 25.832031 95.304688 25.320312 C 95.28125 25.257812 95.261719 25.195312 95.234375 25.132812 C 95.203125 25.046875 95.203125 25.046875 95.171875 24.957031 C 95.152344 24.90625 95.132812 24.851562 95.113281 24.800781 C 95.078125 24.640625 95.09375 24.554688 95.144531 24.402344 Z M 95.144531 24.402344 "/>
<path style=" stroke:none;fill-rule:nonzero;fill:rgb(0%,0%,0%);fill-opacity:1;" d="M 115.179688 24.464844 C 115.179688 24.570312 115.179688 24.675781 115.179688 24.78125 C 115.101562 24.789062 115.101562 24.789062 115.019531 24.792969 C 114.917969 24.800781 114.917969 24.800781 114.8125 24.808594 C 114.746094 24.8125 114.679688 24.820312 114.609375 24.824219 C 114.421875 24.839844 114.421875 24.839844 114.238281 24.90625 C 114.214844 25.535156 114.195312 26.160156 114.175781 26.804688 C 114.027344 26.804688 113.882812 26.804688 113.734375 26.804688 C 113.589844 26.515625 113.65625 26.121094 113.65625 25.804688 C 113.65625 25.722656 113.652344 25.640625 113.652344 25.558594 C 113.652344 25.480469 113.652344 25.402344 113.652344 25.320312 C 113.648438 25.25 113.648438 25.179688 113.648438 25.105469 C 113.675781 24.882812 113.726562 24.769531 113.859375 24.59375 C 114.21875 24.367188 114.789062 24.269531 115.179688 24.464844 Z M 115.179688 24.464844 "/>
<path style=" stroke:none;fill-rule:nonzero;fill:rgb(0%,0%,0%);fill-opacity:1;" d="M 101.800781 24.464844 C 101.800781 24.570312 101.800781 24.675781 101.800781 24.78125 C 101.722656 24.789062 101.722656 24.789062 101.644531 24.792969 C 101.542969 24.800781 101.542969 24.800781 101.4375 24.808594 C 101.367188 24.8125 101.300781 24.820312 101.230469 24.824219 C 101.042969 24.839844 101.042969 24.839844 100.859375 24.90625 C 100.839844 25.535156 100.820312 26.160156 100.796875 26.804688 C 100.652344 26.804688 100.507812 26.804688 100.359375 26.804688 C 100.214844 26.515625 100.28125 26.121094 100.277344 25.804688 C 100.277344 25.722656 100.277344 25.640625 100.273438 25.558594 C 100.273438 25.480469 100.273438 25.402344 100.273438 25.320312 C 100.273438 25.25 100.273438 25.179688 100.273438 25.105469 C 100.296875 24.882812 100.351562 24.769531 100.484375 24.59375 C 100.84375 24.367188 101.410156 24.269531 101.800781 24.464844 Z M 101.800781 24.464844 "/>
<path style=" stroke:none;fill-rule:nonzero;fill:rgb(0%,0%,0%);fill-opacity:1;" d="M 83.527344 24.464844 C 83.527344 24.570312 83.527344 24.675781 83.527344 24.78125 C 83.449219 24.789062 83.449219 24.789062 83.367188 24.792969 C 83.265625 24.800781 83.265625 24.800781 83.160156 24.808594 C 83.09375 24.8125 83.027344 24.820312 82.957031 24.824219 C 82.769531 24.839844 82.769531 24.839844 82.585938 24.90625 C 82.5625 25.535156 82.542969 26.160156 82.523438 26.804688 C 82.375 26.804688 82.230469 26.804688 82.082031 26.804688 C 81.9375 26.515625 82.003906 26.121094 82.003906 25.804688 C 82.003906 25.722656 82 25.640625 82 25.558594 C 82 25.480469 82 25.402344 82 25.320312 C 82 25.25 81.996094 25.179688 81.996094 25.105469 C 82.023438 24.882812 82.074219 24.769531 82.207031 24.59375 C 82.566406 24.367188 83.136719 24.269531 83.527344 24.464844 Z M 83.527344 24.464844 "/>
</g>
</svg>
