<?xml version="1.0" encoding="UTF-8"?>
<svg xmlns="http://www.w3.org/2000/svg" xmlns:xlink="http://www.w3.org/1999/xlink" width="250px" height="57px" viewBox="0 0 248 57" version="1.1">
<g id="surface1">
<path style=" stroke:none;fill-rule:nonzero;fill:rgb(92.156863%,38.431373%,17.647059%);fill-opacity:1;" d="M 12.871094 11.667969 C 12.964844 11.667969 13.0625 11.667969 13.160156 11.667969 C 13.320312 11.667969 13.320312 11.667969 13.480469 11.667969 C 13.59375 11.667969 13.707031 11.667969 13.820312 11.667969 C 14.199219 11.667969 14.578125 11.667969 14.953125 11.667969 C 15.222656 11.667969 15.496094 11.667969 15.765625 11.667969 C 16.421875 11.667969 17.082031 11.664062 17.742188 11.664062 C 18.277344 11.664062 18.816406 11.664062 19.351562 11.664062 C 20.875 11.664062 22.398438 11.664062 23.925781 11.664062 C 24.007812 11.664062 24.089844 11.664062 24.171875 11.664062 C 24.296875 11.664062 24.296875 11.664062 24.421875 11.664062 C 25.75 11.664062 27.082031 11.664062 28.410156 11.660156 C 29.777344 11.660156 31.144531 11.660156 32.511719 11.660156 C 33.277344 11.660156 34.042969 11.660156 34.8125 11.65625 C 35.535156 11.65625 36.257812 11.65625 36.980469 11.65625 C 37.242188 11.65625 37.507812 11.65625 37.769531 11.65625 C 41.464844 11.648438 45.144531 11.894531 47.972656 14.554688 C 50.164062 16.839844 50.480469 19.910156 50.472656 22.925781 C 50.472656 23.160156 50.472656 23.390625 50.472656 23.625 C 50.476562 24.253906 50.476562 24.882812 50.476562 25.507812 C 50.476562 26.035156 50.476562 26.5625 50.476562 27.085938 C 50.476562 28.328125 50.476562 29.566406 50.476562 30.804688 C 50.476562 32.082031 50.476562 33.359375 50.480469 34.636719 C 50.480469 35.738281 50.484375 36.835938 50.480469 37.9375 C 50.480469 38.59375 50.480469 39.25 50.484375 39.902344 C 50.484375 40.519531 50.484375 41.132812 50.484375 41.75 C 50.484375 41.976562 50.484375 42.203125 50.484375 42.425781 C 50.484375 42.734375 50.484375 43.042969 50.480469 43.351562 C 50.484375 43.441406 50.484375 43.527344 50.484375 43.621094 C 50.476562 44.234375 50.34375 44.59375 49.992188 45.097656 C 49.648438 45.269531 49.277344 45.226562 48.898438 45.226562 C 48.808594 45.226562 48.71875 45.226562 48.625 45.226562 C 48.324219 45.230469 48.023438 45.230469 47.722656 45.234375 C 47.621094 45.234375 47.519531 45.234375 47.414062 45.234375 C 46.871094 45.238281 46.328125 45.238281 45.785156 45.238281 C 45.226562 45.242188 44.664062 45.242188 44.105469 45.25 C 43.675781 45.25 43.242188 45.253906 42.8125 45.253906 C 42.605469 45.253906 42.398438 45.253906 42.191406 45.257812 C 41.902344 45.257812 41.613281 45.257812 41.324219 45.257812 C 41.199219 45.261719 41.199219 45.261719 41.066406 45.261719 C 40.675781 45.257812 40.429688 45.222656 40.089844 45.019531 C 39.640625 44.527344 39.613281 44.035156 39.617188 43.390625 C 39.617188 43.304688 39.617188 43.222656 39.617188 43.136719 C 39.613281 42.859375 39.613281 42.578125 39.617188 42.300781 C 39.613281 42.101562 39.613281 41.902344 39.613281 41.703125 C 39.613281 41.273438 39.613281 40.839844 39.613281 40.410156 C 39.613281 39.730469 39.609375 39.050781 39.609375 38.371094 C 39.601562 36.679688 39.597656 34.988281 39.597656 33.296875 C 39.59375 31.984375 39.59375 30.671875 39.585938 29.359375 C 39.585938 28.683594 39.585938 28.003906 39.585938 27.328125 C 39.585938 26.910156 39.582031 26.488281 39.582031 26.066406 C 39.582031 25.871094 39.582031 25.675781 39.582031 25.480469 C 39.582031 25.214844 39.578125 24.949219 39.578125 24.679688 C 39.578125 24.605469 39.578125 24.527344 39.582031 24.449219 C 39.574219 23.875 39.429688 23.453125 39.210938 22.929688 C 39.175781 22.84375 39.140625 22.761719 39.105469 22.671875 C 38.953125 22.433594 38.820312 22.382812 38.554688 22.277344 C 38.433594 22.21875 38.308594 22.164062 38.179688 22.105469 C 37.648438 21.890625 37.191406 21.824219 36.617188 21.824219 C 36.492188 21.824219 36.367188 21.824219 36.238281 21.820312 C 36.101562 21.820312 35.960938 21.820312 35.820312 21.820312 C 35.675781 21.820312 35.527344 21.820312 35.382812 21.820312 C 34.984375 21.820312 34.585938 21.816406 34.1875 21.816406 C 33.9375 21.816406 33.691406 21.816406 33.441406 21.816406 C 32.660156 21.816406 31.882812 21.8125 31.101562 21.8125 C 30.203125 21.8125 29.304688 21.8125 28.40625 21.808594 C 27.710938 21.804688 27.015625 21.804688 26.320312 21.804688 C 25.90625 21.804688 25.492188 21.804688 25.078125 21.800781 C 24.6875 21.800781 24.296875 21.800781 23.90625 21.800781 C 23.695312 21.800781 23.484375 21.796875 23.273438 21.796875 C 22.449219 21.800781 21.738281 21.824219 21.089844 22.390625 C 20.617188 23.246094 20.652344 24.289062 20.625 25.238281 C 20.621094 25.363281 20.617188 25.488281 20.613281 25.617188 C 20.601562 25.921875 20.59375 26.230469 20.585938 26.535156 C 20.644531 26.535156 20.703125 26.535156 20.765625 26.535156 C 22.214844 26.527344 23.664062 26.519531 25.113281 26.515625 C 25.816406 26.515625 26.515625 26.511719 27.21875 26.511719 C 27.894531 26.507812 28.570312 26.503906 29.25 26.503906 C 29.507812 26.503906 29.765625 26.5 30.023438 26.5 C 30.382812 26.496094 30.746094 26.496094 31.105469 26.496094 C 31.214844 26.496094 31.320312 26.496094 31.429688 26.492188 C 32.027344 26.496094 32.449219 26.527344 32.890625 26.972656 C 32.925781 27.542969 32.925781 28.109375 32.929688 28.683594 C 32.933594 28.875 32.933594 29.066406 32.941406 29.257812 C 32.945312 29.535156 32.949219 29.8125 32.949219 30.089844 C 32.953125 30.175781 32.953125 30.261719 32.957031 30.347656 C 32.957031 30.730469 32.9375 30.957031 32.6875 31.253906 C 32.195312 31.535156 31.765625 31.507812 31.207031 31.496094 C 31.089844 31.496094 30.976562 31.496094 30.859375 31.5 C 30.480469 31.496094 30.101562 31.496094 29.722656 31.492188 C 29.457031 31.488281 29.195312 31.488281 28.933594 31.488281 C 28.242188 31.488281 27.550781 31.484375 26.859375 31.476562 C 26.152344 31.472656 25.445312 31.472656 24.738281 31.46875 C 23.355469 31.464844 21.96875 31.457031 20.585938 31.449219 C 20.597656 31.917969 20.609375 32.390625 20.625 32.859375 C 20.628906 32.992188 20.632812 33.125 20.636719 33.261719 C 20.644531 34.558594 20.644531 34.558594 21.164062 35.699219 C 21.640625 36.066406 22.035156 36.171875 22.632812 36.171875 C 22.753906 36.175781 22.878906 36.175781 23.007812 36.175781 C 23.210938 36.175781 23.210938 36.175781 23.414062 36.175781 C 23.628906 36.179688 23.84375 36.179688 24.058594 36.183594 C 24.585938 36.1875 25.113281 36.191406 25.640625 36.195312 C 29.34375 36.210938 33.179688 36.375 36.269531 38.65625 C 36.339844 38.707031 36.410156 38.757812 36.484375 38.808594 C 38.128906 40.097656 38.84375 42.164062 39.160156 44.15625 C 39.222656 44.734375 39.222656 44.734375 39.210938 44.988281 C 38.945312 45.253906 38.804688 45.234375 38.441406 45.234375 C 38.363281 45.234375 38.285156 45.234375 38.207031 45.234375 C 38.085938 45.234375 38.085938 45.234375 37.960938 45.234375 C 37.683594 45.238281 37.410156 45.234375 37.132812 45.234375 C 36.9375 45.234375 36.738281 45.234375 36.542969 45.234375 C 36.003906 45.238281 35.46875 45.238281 34.933594 45.234375 C 34.371094 45.234375 33.808594 45.234375 33.246094 45.238281 C 32.300781 45.238281 31.355469 45.238281 30.410156 45.234375 C 29.320312 45.234375 28.230469 45.234375 27.140625 45.234375 C 26.203125 45.238281 25.265625 45.238281 24.328125 45.234375 C 23.769531 45.234375 23.210938 45.234375 22.652344 45.238281 C 22.125 45.238281 21.597656 45.238281 21.070312 45.234375 C 20.878906 45.234375 20.683594 45.234375 20.492188 45.234375 C 18.21875 45.242188 15.8125 45.089844 14.070312 43.433594 C 12.179688 41.398438 12.164062 38.742188 12.171875 36.128906 C 12.175781 35.863281 12.171875 35.59375 12.171875 35.328125 C 12.171875 34.757812 12.175781 34.1875 12.175781 33.621094 C 12.175781 32.796875 12.179688 31.972656 12.179688 31.148438 C 12.179688 29.808594 12.179688 28.472656 12.183594 27.132812 C 12.183594 25.835938 12.1875 24.535156 12.1875 23.238281 C 12.1875 23.160156 12.1875 23.078125 12.1875 22.996094 C 12.1875 22.59375 12.1875 22.191406 12.1875 21.789062 C 12.191406 18.457031 12.195312 15.125 12.199219 11.792969 C 12.449219 11.667969 12.589844 11.671875 12.871094 11.667969 Z M 12.871094 11.667969 "/>
<path style=" stroke:none;fill-rule:nonzero;fill:rgb(17.647059%,17.647059%,18.039216%);fill-opacity:1;" d="M 12.199219 21.511719 C 12.304688 21.566406 12.304688 21.566406 12.417969 21.621094 C 12.726562 21.632812 13.03125 21.640625 13.339844 21.644531 C 13.4375 21.644531 13.53125 21.644531 13.628906 21.644531 C 13.949219 21.648438 14.265625 21.652344 14.582031 21.65625 C 14.800781 21.65625 15.019531 21.660156 15.242188 21.664062 C 15.820312 21.667969 16.398438 21.671875 16.976562 21.679688 C 17.566406 21.683594 18.15625 21.691406 18.746094 21.695312 C 19.902344 21.707031 21.0625 21.71875 22.21875 21.730469 C 22.121094 21.777344 22.121094 21.777344 22.023438 21.828125 C 21.414062 22.136719 21.046875 22.386719 20.804688 23.039062 C 20.667969 23.761719 20.65625 24.488281 20.632812 25.21875 C 20.625 25.40625 20.625 25.40625 20.617188 25.601562 C 20.605469 25.914062 20.597656 26.222656 20.585938 26.535156 C 20.675781 26.535156 20.675781 26.535156 20.765625 26.535156 C 22.214844 26.527344 23.664062 26.519531 25.113281 26.515625 C 25.816406 26.515625 26.515625 26.511719 27.21875 26.511719 C 27.894531 26.507812 28.570312 26.503906 29.25 26.503906 C 29.507812 26.503906 29.765625 26.5 30.023438 26.5 C 30.382812 26.496094 30.746094 26.496094 31.105469 26.496094 C 31.269531 26.496094 31.269531 26.496094 31.429688 26.492188 C 32.027344 26.496094 32.449219 26.527344 32.890625 26.972656 C 32.925781 27.542969 32.925781 28.109375 32.929688 28.683594 C 32.933594 28.875 32.933594 29.066406 32.941406 29.257812 C 32.945312 29.535156 32.949219 29.8125 32.949219 30.089844 C 32.953125 30.175781 32.953125 30.261719 32.957031 30.347656 C 32.957031 30.730469 32.9375 30.957031 32.6875 31.253906 C 32.195312 31.535156 31.765625 31.507812 31.207031 31.496094 C 31.089844 31.496094 30.976562 31.496094 30.859375 31.5 C 30.480469 31.496094 30.101562 31.496094 29.722656 31.492188 C 29.457031 31.488281 29.195312 31.488281 28.933594 31.488281 C 28.242188 31.488281 27.550781 31.484375 26.859375 31.476562 C 26.152344 31.472656 25.445312 31.472656 24.738281 31.46875 C 23.355469 31.464844 21.96875 31.457031 20.585938 31.449219 C 20.597656 31.917969 20.609375 32.390625 20.625 32.859375 C 20.628906 32.992188 20.632812 33.125 20.636719 33.261719 C 20.644531 34.558594 20.644531 34.558594 21.164062 35.699219 C 21.640625 36.066406 22.035156 36.171875 22.632812 36.171875 C 22.753906 36.175781 22.878906 36.175781 23.007812 36.175781 C 23.210938 36.175781 23.210938 36.175781 23.414062 36.175781 C 23.628906 36.179688 23.84375 36.179688 24.058594 36.183594 C 24.585938 36.1875 25.113281 36.191406 25.640625 36.195312 C 29.34375 36.210938 33.179688 36.375 36.269531 38.65625 C 36.339844 38.707031 36.410156 38.757812 36.484375 38.808594 C 38.128906 40.097656 38.84375 42.164062 39.160156 44.15625 C 39.222656 44.734375 39.222656 44.734375 39.210938 44.988281 C 38.945312 45.253906 38.804688 45.234375 38.441406 45.234375 C 38.363281 45.234375 38.285156 45.234375 38.207031 45.234375 C 38.085938 45.234375 38.085938 45.234375 37.960938 45.234375 C 37.683594 45.238281 37.410156 45.234375 37.132812 45.234375 C 36.9375 45.234375 36.738281 45.234375 36.542969 45.234375 C 36.003906 45.238281 35.46875 45.238281 34.933594 45.234375 C 34.371094 45.234375 33.808594 45.234375 33.246094 45.238281 C 32.300781 45.238281 31.355469 45.238281 30.410156 45.234375 C 29.320312 45.234375 28.230469 45.234375 27.140625 45.234375 C 26.203125 45.238281 25.265625 45.238281 24.328125 45.234375 C 23.769531 45.234375 23.210938 45.234375 22.652344 45.238281 C 22.125 45.238281 21.597656 45.238281 21.070312 45.234375 C 20.878906 45.234375 20.683594 45.234375 20.492188 45.234375 C 18.21875 45.242188 15.8125 45.089844 14.070312 43.433594 C 12.425781 41.664062 12.160156 39.339844 12.171875 37.019531 C 12.175781 36.847656 12.171875 36.679688 12.171875 36.507812 C 12.171875 36.050781 12.175781 35.59375 12.175781 35.136719 C 12.179688 34.65625 12.179688 34.175781 12.179688 33.699219 C 12.179688 32.789062 12.179688 31.882812 12.183594 30.976562 C 12.183594 29.945312 12.1875 28.914062 12.1875 27.878906 C 12.191406 25.757812 12.195312 23.632812 12.199219 21.511719 Z M 12.199219 21.511719 "/>
<path style=" stroke:none;fill-rule:nonzero;fill:rgb(94.901961%,56.470591%,12.54902%);fill-opacity:1;" d="M 12.867188 11.671875 C 12.964844 11.671875 13.058594 11.671875 13.15625 11.667969 C 13.261719 11.671875 13.367188 11.671875 13.476562 11.671875 C 13.644531 11.671875 13.644531 11.671875 13.8125 11.671875 C 14.1875 11.671875 14.566406 11.671875 14.941406 11.671875 C 15.207031 11.671875 15.476562 11.671875 15.746094 11.671875 C 16.324219 11.671875 16.902344 11.671875 17.480469 11.671875 C 18.320312 11.671875 19.15625 11.671875 19.992188 11.671875 C 21.351562 11.675781 22.707031 11.675781 24.066406 11.675781 C 25.386719 11.675781 26.703125 11.675781 28.023438 11.679688 C 28.105469 11.679688 28.1875 11.679688 28.273438 11.679688 C 28.914062 11.679688 29.558594 11.679688 30.199219 11.679688 C 33.347656 11.679688 36.496094 11.683594 39.644531 11.683594 C 39.644531 15.683594 39.644531 19.683594 39.644531 23.804688 C 39.574219 23.660156 39.5 23.515625 39.425781 23.367188 C 39.351562 23.253906 39.273438 23.144531 39.195312 23.027344 C 38.992188 22.710938 38.992188 22.710938 38.992188 22.496094 C 38.046875 22 37.289062 21.824219 36.242188 21.824219 C 36.140625 21.824219 36.039062 21.824219 35.933594 21.820312 C 35.59375 21.820312 35.253906 21.820312 34.910156 21.820312 C 34.667969 21.820312 34.421875 21.820312 34.179688 21.816406 C 33.652344 21.816406 33.125 21.816406 32.597656 21.8125 C 31.769531 21.8125 30.9375 21.808594 30.105469 21.808594 C 28.941406 21.804688 27.773438 21.800781 26.609375 21.796875 C 26.535156 21.796875 26.460938 21.796875 26.386719 21.796875 C 25.335938 21.792969 24.285156 21.789062 23.238281 21.789062 C 23.164062 21.789062 23.089844 21.789062 23.011719 21.785156 C 22.9375 21.785156 22.863281 21.785156 22.789062 21.785156 C 21.558594 21.785156 20.328125 21.78125 19.09375 21.773438 C 18.269531 21.773438 17.441406 21.769531 16.613281 21.769531 C 16.101562 21.769531 15.585938 21.765625 15.074219 21.765625 C 14.835938 21.761719 14.59375 21.761719 14.355469 21.761719 C 14.03125 21.761719 13.707031 21.761719 13.382812 21.757812 C 13.285156 21.761719 13.191406 21.761719 13.09375 21.761719 C 12.441406 21.753906 12.441406 21.753906 12.199219 21.511719 C 12.179688 21.203125 12.171875 20.902344 12.171875 20.59375 C 12.171875 20.5 12.171875 20.40625 12.171875 20.308594 C 12.175781 19.992188 12.175781 19.679688 12.175781 19.363281 C 12.175781 19.148438 12.179688 18.929688 12.179688 18.710938 C 12.179688 18.136719 12.179688 17.566406 12.183594 16.992188 C 12.1875 16.40625 12.1875 15.820312 12.1875 15.238281 C 12.191406 14.089844 12.195312 12.941406 12.199219 11.792969 C 12.449219 11.667969 12.589844 11.671875 12.867188 11.671875 Z M 12.867188 11.671875 "/>
<path style=" stroke:none;fill-rule:nonzero;fill:rgb(92.156863%,38.431373%,18.039216%);fill-opacity:1;" d="M 109.242188 11.574219 C 110.894531 11.574219 112.546875 11.574219 114.253906 11.574219 C 114.257812 13.804688 114.261719 16.035156 114.261719 18.265625 C 114.265625 19.300781 114.265625 20.335938 114.269531 21.371094 C 114.269531 22.273438 114.273438 23.175781 114.273438 24.082031 C 114.273438 24.558594 114.273438 25.035156 114.273438 25.511719 C 114.277344 25.964844 114.277344 26.414062 114.277344 26.867188 C 114.277344 27.03125 114.277344 27.195312 114.277344 27.359375 C 114.28125 28.238281 114.25 29.105469 114.152344 29.984375 C 114.144531 30.0625 114.136719 30.144531 114.128906 30.226562 C 113.917969 32.003906 113.230469 33.609375 112.183594 35.050781 C 112.132812 35.121094 112.082031 35.191406 112.03125 35.265625 C 110.648438 37.046875 108.363281 37.953125 106.210938 38.28125 C 103.402344 38.605469 100.488281 38.132812 98.207031 36.375 C 96.222656 34.695312 95.144531 32.261719 94.863281 29.699219 C 94.730469 26.9375 95.042969 24.148438 96.929688 21.976562 C 98.375 20.378906 100.316406 19.234375 102.496094 19.085938 C 102.863281 19.070312 103.234375 19.0625 103.605469 19.0625 C 103.722656 19.058594 103.839844 19.058594 103.960938 19.058594 C 105.863281 19.078125 107.441406 19.753906 108.804688 21.058594 C 109.023438 21.292969 109.023438 21.292969 109.132812 21.511719 C 109.1875 16.59375 109.1875 16.59375 109.242188 11.574219 Z M 101.726562 24.351562 C 101.660156 24.402344 101.59375 24.457031 101.523438 24.507812 C 100.636719 25.292969 100.058594 26.613281 99.960938 27.78125 C 99.949219 28.070312 99.949219 28.355469 99.949219 28.644531 C 99.949219 28.746094 99.953125 28.847656 99.953125 28.949219 C 99.964844 29.679688 100.03125 30.332031 100.3125 31.011719 C 100.363281 31.148438 100.363281 31.148438 100.417969 31.285156 C 100.917969 32.40625 101.6875 33.226562 102.804688 33.726562 C 103.964844 34.148438 105.121094 34.164062 106.285156 33.738281 C 107.476562 33.179688 108.230469 32.324219 108.730469 31.101562 C 109.296875 29.445312 109.347656 27.679688 108.644531 26.050781 C 107.996094 24.757812 107.214844 24.011719 105.867188 23.503906 C 104.410156 23.066406 102.894531 23.414062 101.726562 24.351562 Z M 101.726562 24.351562 "/>
<path style=" stroke:none;fill-rule:nonzero;fill:rgb(92.156863%,38.431373%,18.039216%);fill-opacity:1;" d="M 74.390625 19.546875 C 76.007812 19.546875 77.625 19.546875 79.289062 19.546875 C 79.414062 19.796875 79.414062 19.933594 79.414062 20.210938 C 79.414062 20.304688 79.414062 20.398438 79.414062 20.496094 C 79.414062 20.597656 79.414062 20.699219 79.414062 20.804688 C 79.414062 20.914062 79.414062 21.023438 79.414062 21.132812 C 79.417969 21.371094 79.417969 21.605469 79.417969 21.839844 C 79.417969 22.214844 79.421875 22.585938 79.421875 22.960938 C 79.429688 24.019531 79.433594 25.082031 79.433594 26.144531 C 79.4375 26.792969 79.4375 27.441406 79.445312 28.089844 C 79.445312 28.335938 79.445312 28.585938 79.445312 28.832031 C 79.445312 29.179688 79.449219 29.523438 79.449219 29.871094 C 79.449219 29.972656 79.449219 30.074219 79.449219 30.179688 C 79.464844 31.21875 79.878906 32.113281 80.597656 32.867188 C 81.550781 33.65625 82.488281 34.03125 83.730469 33.9375 C 84.449219 33.828125 85.003906 33.59375 85.605469 33.195312 C 85.753906 33.101562 85.753906 33.101562 85.898438 33.003906 C 86.695312 32.226562 87.128906 31.25 87.175781 30.132812 C 87.175781 29.941406 87.179688 29.746094 87.175781 29.550781 C 87.179688 29.441406 87.179688 29.335938 87.179688 29.222656 C 87.183594 28.871094 87.183594 28.519531 87.183594 28.167969 C 87.1875 27.921875 87.1875 27.675781 87.1875 27.433594 C 87.195312 26.789062 87.195312 26.144531 87.199219 25.503906 C 87.203125 24.46875 87.210938 23.4375 87.214844 22.402344 C 87.21875 22.042969 87.21875 21.683594 87.21875 21.320312 C 87.222656 21.101562 87.222656 20.882812 87.222656 20.664062 C 87.222656 20.5625 87.222656 20.460938 87.222656 20.355469 C 87.230469 19.667969 87.230469 19.667969 87.351562 19.546875 C 87.5 19.535156 87.648438 19.53125 87.800781 19.53125 C 87.894531 19.53125 87.992188 19.53125 88.089844 19.53125 C 88.195312 19.53125 88.296875 19.53125 88.40625 19.53125 C 88.511719 19.53125 88.617188 19.53125 88.726562 19.53125 C 88.949219 19.53125 89.175781 19.53125 89.398438 19.53125 C 89.746094 19.53125 90.089844 19.53125 90.433594 19.53125 C 90.652344 19.53125 90.871094 19.53125 91.085938 19.53125 C 91.191406 19.53125 91.296875 19.53125 91.402344 19.53125 C 91.496094 19.53125 91.59375 19.53125 91.691406 19.53125 C 91.777344 19.53125 91.859375 19.53125 91.949219 19.53125 C 92.140625 19.546875 92.140625 19.546875 92.25 19.65625 C 92.261719 19.800781 92.265625 19.945312 92.265625 20.09375 C 92.265625 20.1875 92.269531 20.28125 92.269531 20.378906 C 92.269531 20.535156 92.269531 20.535156 92.269531 20.695312 C 92.269531 20.804688 92.269531 20.914062 92.269531 21.027344 C 92.273438 21.390625 92.273438 21.757812 92.273438 22.121094 C 92.273438 22.375 92.273438 22.625 92.273438 22.878906 C 92.277344 23.414062 92.277344 23.945312 92.277344 24.476562 C 92.277344 25.15625 92.28125 25.835938 92.285156 26.515625 C 92.285156 27.039062 92.285156 27.5625 92.285156 28.089844 C 92.285156 28.339844 92.289062 28.589844 92.289062 28.839844 C 92.304688 31.59375 91.859375 33.996094 89.867188 36.046875 C 88.792969 37.085938 87.398438 37.753906 85.933594 38 C 85.898438 40.34375 85.863281 42.683594 85.824219 45.097656 C 85.578125 45.222656 85.441406 45.222656 85.167969 45.222656 C 85.074219 45.222656 84.984375 45.222656 84.890625 45.226562 C 84.792969 45.226562 84.695312 45.226562 84.59375 45.226562 C 84.492188 45.226562 84.390625 45.226562 84.289062 45.226562 C 84.074219 45.226562 83.863281 45.226562 83.648438 45.226562 C 83.320312 45.226562 82.996094 45.230469 82.667969 45.230469 C 82.460938 45.230469 82.253906 45.230469 82.046875 45.230469 C 81.949219 45.234375 81.851562 45.234375 81.75 45.234375 C 81.660156 45.234375 81.566406 45.234375 81.472656 45.234375 C 81.394531 45.234375 81.3125 45.234375 81.230469 45.234375 C 81.03125 45.207031 81.03125 45.207031 80.816406 44.988281 C 80.785156 44.699219 80.785156 44.699219 80.78125 44.332031 C 80.777344 44.195312 80.777344 44.058594 80.773438 43.914062 C 80.773438 43.765625 80.769531 43.613281 80.769531 43.460938 C 80.769531 43.308594 80.765625 43.15625 80.761719 43 C 80.757812 42.59375 80.753906 42.191406 80.75 41.785156 C 80.746094 41.371094 80.738281 40.957031 80.734375 40.542969 C 80.722656 39.730469 80.714844 38.921875 80.707031 38.109375 C 80.574219 38.066406 80.441406 38.023438 80.304688 37.980469 C 80.128906 37.925781 79.953125 37.867188 79.777344 37.808594 C 79.6875 37.78125 79.601562 37.753906 79.511719 37.726562 C 77.632812 37.109375 76.148438 35.761719 75.226562 34.027344 C 74.644531 32.777344 74.371094 31.652344 74.375 30.28125 C 74.375 30.164062 74.375 30.050781 74.375 29.929688 C 74.375 29.546875 74.378906 29.164062 74.378906 28.78125 C 74.378906 28.515625 74.378906 28.25 74.378906 27.984375 C 74.378906 27.285156 74.378906 26.585938 74.382812 25.886719 C 74.382812 25.171875 74.382812 24.457031 74.382812 23.746094 C 74.386719 22.34375 74.386719 20.945312 74.390625 19.546875 Z M 74.390625 19.546875 "/>
<path style=" stroke:none;fill-rule:nonzero;fill:rgb(95.294118%,56.862748%,12.54902%);fill-opacity:1;" d="M 200.402344 19.875 C 202.019531 19.875 203.640625 19.875 205.304688 19.875 C 205.40625 20.171875 205.429688 20.347656 205.429688 20.65625 C 205.429688 20.75 205.429688 20.84375 205.429688 20.9375 C 205.429688 21.039062 205.429688 21.140625 205.429688 21.246094 C 205.429688 21.351562 205.429688 21.460938 205.429688 21.570312 C 205.429688 21.800781 205.433594 22.035156 205.433594 22.269531 C 205.433594 22.636719 205.433594 23.007812 205.4375 23.375 C 205.441406 24.425781 205.449219 25.476562 205.449219 26.523438 C 205.449219 27.167969 205.453125 27.808594 205.457031 28.449219 C 205.460938 28.695312 205.460938 28.9375 205.460938 29.183594 C 205.460938 29.523438 205.460938 29.867188 205.464844 30.210938 C 205.464844 30.308594 205.464844 30.410156 205.464844 30.511719 C 205.476562 31.582031 205.921875 32.402344 206.613281 33.195312 C 207.414062 33.957031 208.355469 34.222656 209.445312 34.289062 C 210.277344 34.246094 210.933594 33.980469 211.621094 33.523438 C 211.765625 33.429688 211.765625 33.429688 211.914062 33.332031 C 212.710938 32.554688 213.140625 31.578125 213.191406 30.460938 C 213.191406 30.265625 213.191406 30.070312 213.191406 29.875 C 213.195312 29.769531 213.195312 29.660156 213.195312 29.550781 C 213.199219 29.199219 213.199219 28.847656 213.199219 28.496094 C 213.199219 28.25 213.203125 28.003906 213.203125 27.761719 C 213.207031 27.117188 213.210938 26.472656 213.214844 25.832031 C 213.21875 24.796875 213.222656 23.765625 213.230469 22.730469 C 213.234375 22.371094 213.234375 22.007812 213.234375 21.648438 C 213.238281 21.429688 213.238281 21.210938 213.238281 20.988281 C 213.238281 20.890625 213.238281 20.789062 213.238281 20.683594 C 213.242188 19.996094 213.242188 19.996094 213.363281 19.875 C 213.515625 19.863281 213.664062 19.859375 213.816406 19.859375 C 213.910156 19.859375 214.007812 19.859375 214.105469 19.859375 C 214.210938 19.859375 214.3125 19.859375 214.421875 19.859375 C 214.527344 19.859375 214.632812 19.859375 214.742188 19.859375 C 214.964844 19.859375 215.191406 19.859375 215.414062 19.859375 C 215.757812 19.859375 216.105469 19.859375 216.449219 19.859375 C 216.667969 19.859375 216.882812 19.859375 217.101562 19.859375 C 217.207031 19.859375 217.308594 19.859375 217.417969 19.859375 C 217.511719 19.859375 217.609375 19.859375 217.707031 19.859375 C 217.792969 19.859375 217.875 19.859375 217.964844 19.859375 C 218.15625 19.875 218.15625 19.875 218.265625 19.984375 C 218.277344 20.128906 218.28125 20.273438 218.28125 20.421875 C 218.28125 20.515625 218.28125 20.609375 218.285156 20.707031 C 218.285156 20.863281 218.285156 20.863281 218.285156 21.023438 C 218.285156 21.132812 218.285156 21.242188 218.285156 21.355469 C 218.285156 21.71875 218.289062 22.082031 218.289062 22.449219 C 218.289062 22.699219 218.289062 22.953125 218.289062 23.207031 C 218.292969 23.738281 218.292969 24.273438 218.292969 24.804688 C 218.292969 25.484375 218.296875 26.164062 218.296875 26.84375 C 218.300781 27.367188 218.300781 27.890625 218.300781 28.417969 C 218.300781 28.667969 218.300781 28.917969 218.304688 29.167969 C 218.320312 31.921875 217.875 34.324219 215.882812 36.375 C 214.808594 37.414062 213.414062 38.082031 211.949219 38.328125 C 211.914062 40.667969 211.878906 43.011719 211.839844 45.425781 C 211.59375 45.550781 211.457031 45.550781 211.179688 45.550781 C 211.089844 45.550781 211 45.550781 210.90625 45.550781 C 210.808594 45.550781 210.710938 45.550781 210.609375 45.554688 C 210.507812 45.554688 210.40625 45.554688 210.304688 45.554688 C 210.089844 45.554688 209.875 45.554688 209.664062 45.554688 C 209.335938 45.554688 209.007812 45.558594 208.683594 45.558594 C 208.476562 45.558594 208.269531 45.558594 208.0625 45.558594 C 207.964844 45.558594 207.867188 45.5625 207.765625 45.5625 C 207.671875 45.5625 207.582031 45.5625 207.488281 45.5625 C 207.410156 45.5625 207.328125 45.5625 207.246094 45.5625 C 207.046875 45.535156 207.046875 45.535156 206.828125 45.316406 C 206.800781 45.023438 206.800781 45.023438 206.796875 44.648438 C 206.792969 44.511719 206.789062 44.371094 206.789062 44.226562 C 206.789062 44.074219 206.785156 43.917969 206.785156 43.765625 C 206.78125 43.609375 206.78125 43.453125 206.777344 43.296875 C 206.773438 42.886719 206.769531 42.472656 206.765625 42.0625 C 206.761719 41.640625 206.753906 41.222656 206.75 40.800781 C 206.738281 39.976562 206.730469 39.152344 206.722656 38.328125 C 206.601562 38.3125 206.484375 38.296875 206.363281 38.28125 C 204.574219 38.003906 203.070312 36.84375 201.929688 35.488281 C 200.882812 34.03125 200.386719 32.394531 200.390625 30.609375 C 200.390625 30.492188 200.390625 30.375 200.390625 30.257812 C 200.390625 29.875 200.390625 29.492188 200.394531 29.109375 C 200.394531 28.84375 200.394531 28.578125 200.394531 28.308594 C 200.394531 27.613281 200.394531 26.914062 200.398438 26.214844 C 200.398438 25.5 200.398438 24.785156 200.398438 24.074219 C 200.398438 22.671875 200.402344 21.273438 200.402344 19.875 Z M 200.402344 19.875 "/>
<path style=" stroke:none;fill-rule:nonzero;fill:rgb(95.294118%,56.862748%,12.54902%);fill-opacity:1;" d="M 172.085938 19.765625 C 172.203125 19.800781 172.320312 19.835938 172.445312 19.875 C 174.574219 20.609375 176.332031 22.140625 177.351562 24.152344 C 178.070312 25.648438 178.421875 27.21875 178.414062 28.882812 C 178.414062 28.984375 178.414062 29.085938 178.414062 29.191406 C 178.414062 29.523438 178.414062 29.855469 178.414062 30.1875 C 178.414062 30.421875 178.414062 30.652344 178.414062 30.882812 C 178.414062 31.492188 178.410156 32.097656 178.410156 32.707031 C 178.410156 33.4375 178.410156 34.164062 178.40625 34.894531 C 178.40625 36.003906 178.40625 37.109375 178.402344 38.21875 C 176.75 38.21875 175.097656 38.21875 173.394531 38.21875 C 173.355469 37.316406 173.320312 36.417969 173.285156 35.488281 C 173.097656 35.757812 173.097656 35.757812 172.910156 36.035156 C 171.878906 37.441406 170.519531 38.296875 168.800781 38.609375 C 166.378906 38.882812 164.214844 38.445312 162.285156 36.90625 C 160.34375 35.257812 159.339844 32.824219 159.042969 30.328125 C 159.03125 30.15625 159.023438 29.984375 159.015625 29.808594 C 159.011719 29.703125 159.007812 29.597656 159.003906 29.492188 C 158.941406 26.550781 159.839844 24.027344 161.863281 21.886719 C 164.414062 19.386719 168.734375 18.714844 172.085938 19.765625 Z M 165.304688 25.257812 C 164.242188 26.589844 163.972656 28.261719 164.136719 29.917969 C 164.285156 30.933594 164.628906 31.816406 165.222656 32.648438 C 165.304688 32.765625 165.382812 32.878906 165.460938 32.996094 C 166.4375 33.972656 167.570312 34.375 168.925781 34.398438 C 170.132812 34.324219 171.203125 33.875 172.027344 32.972656 C 173.230469 31.453125 173.460938 29.726562 173.285156 27.84375 C 173.042969 26.5 172.378906 25.328125 171.324219 24.460938 C 169.347656 23.097656 166.898438 23.542969 165.304688 25.257812 Z M 165.304688 25.257812 "/>
<path style=" stroke:none;fill-rule:nonzero;fill:rgb(95.294118%,56.862748%,12.54902%);fill-opacity:1;" d="M 154.261719 20.855469 C 156.277344 22.375 157.089844 24.597656 157.558594 26.996094 C 157.621094 27.632812 157.617188 28.269531 157.613281 28.910156 C 157.613281 29.042969 157.613281 29.179688 157.617188 29.316406 C 157.613281 29.507812 157.613281 29.507812 157.613281 29.707031 C 157.613281 29.824219 157.613281 29.941406 157.613281 30.0625 C 157.601562 30.355469 157.601562 30.355469 157.492188 30.683594 C 153.429688 30.683594 149.367188 30.683594 145.183594 30.683594 C 145.898438 32.117188 146.351562 32.878906 147.824219 33.4375 C 148.910156 33.789062 149.925781 33.867188 151.058594 33.886719 C 151.179688 33.886719 151.304688 33.890625 151.429688 33.890625 C 151.816406 33.898438 152.203125 33.90625 152.589844 33.910156 C 152.855469 33.917969 153.117188 33.921875 153.382812 33.925781 C 154.023438 33.9375 154.667969 33.949219 155.3125 33.960938 C 155.3125 35.363281 155.3125 36.769531 155.3125 38.21875 C 154.496094 38.226562 153.679688 38.230469 152.859375 38.234375 C 152.480469 38.238281 152.097656 38.238281 151.71875 38.242188 C 148.390625 38.273438 145.089844 38.03125 142.566406 35.597656 C 142.421875 35.453125 142.277344 35.308594 142.132812 35.160156 C 142.0625 35.089844 141.988281 35.019531 141.914062 34.945312 C 140.144531 33.074219 139.789062 30.636719 139.816406 28.164062 C 139.875 26.066406 140.585938 24.121094 141.917969 22.496094 C 142.003906 22.378906 142.003906 22.378906 142.09375 22.261719 C 144.890625 18.792969 150.71875 18.484375 154.261719 20.855469 Z M 147.035156 24.023438 C 146.964844 24.058594 146.898438 24.09375 146.828125 24.132812 C 145.847656 24.726562 145.4375 25.859375 145.144531 26.910156 C 145.070312 27.160156 145.070312 27.160156 145.074219 27.300781 C 147.554688 27.300781 150.035156 27.300781 152.589844 27.300781 C 152.457031 26.085938 152.214844 25.144531 151.296875 24.308594 C 150.070312 23.371094 148.378906 23.277344 147.035156 24.023438 Z M 147.035156 24.023438 "/>
<path style=" stroke:none;fill-rule:nonzero;fill:rgb(92.156863%,38.431373%,18.039216%);fill-opacity:1;" d="M 130.808594 20.308594 C 131.28125 20.671875 131.699219 21.085938 132.113281 21.511719 C 132.1875 21.582031 132.257812 21.648438 132.335938 21.722656 C 133.78125 23.203125 134.414062 25.714844 134.414062 27.730469 C 134.414062 27.871094 134.417969 28.011719 134.417969 28.152344 C 134.414062 28.296875 134.414062 28.441406 134.414062 28.589844 C 134.414062 28.734375 134.414062 28.882812 134.417969 29.03125 C 134.417969 29.238281 134.417969 29.238281 134.414062 29.449219 C 134.414062 29.578125 134.414062 29.703125 134.414062 29.835938 C 134.402344 30.136719 134.402344 30.136719 134.292969 30.355469 C 130.265625 30.390625 126.242188 30.429688 122.09375 30.464844 C 122.875 32.03125 123.441406 32.714844 125.058594 33.28125 C 126 33.539062 126.988281 33.542969 127.957031 33.558594 C 128.074219 33.558594 128.195312 33.5625 128.316406 33.5625 C 128.695312 33.570312 129.074219 33.578125 129.453125 33.585938 C 129.710938 33.589844 129.96875 33.59375 130.226562 33.597656 C 130.855469 33.609375 131.484375 33.621094 132.113281 33.632812 C 132.113281 35.039062 132.113281 36.441406 132.113281 37.890625 C 131.296875 37.898438 130.480469 37.902344 129.660156 37.90625 C 129.28125 37.910156 128.898438 37.910156 128.519531 37.914062 C 125.109375 37.949219 121.867188 37.644531 119.277344 35.191406 C 117.992188 33.917969 117.121094 32.355469 116.757812 30.574219 C 116.726562 30.433594 116.726562 30.433594 116.695312 30.292969 C 116.351562 27.65625 116.761719 24.761719 118.390625 22.601562 C 118.699219 22.222656 119.027344 21.863281 119.371094 21.511719 C 119.453125 21.425781 119.535156 21.34375 119.617188 21.253906 C 122.394531 18.5625 127.59375 18.214844 130.808594 20.308594 Z M 122.964844 24.460938 C 122.351562 25.222656 121.984375 25.984375 121.984375 26.972656 C 124.429688 26.972656 126.875 26.972656 129.390625 26.972656 C 129.273438 25.777344 129.015625 24.890625 128.191406 24.023438 C 126.601562 22.742188 124.320312 22.980469 122.964844 24.460938 Z M 122.964844 24.460938 "/>
<path style=" stroke:none;fill-rule:nonzero;fill:rgb(95.294118%,56.862748%,12.54902%);fill-opacity:1;" d="M 186.980469 19.859375 C 187.074219 19.859375 187.167969 19.859375 187.265625 19.859375 C 187.578125 19.859375 187.890625 19.863281 188.199219 19.863281 C 188.417969 19.863281 188.632812 19.863281 188.851562 19.863281 C 189.417969 19.863281 189.988281 19.863281 190.558594 19.867188 C 191.242188 19.867188 191.925781 19.867188 192.609375 19.867188 C 193.644531 19.871094 194.683594 19.871094 195.71875 19.875 C 195.71875 21.277344 195.71875 22.683594 195.71875 24.132812 C 195.113281 24.136719 194.507812 24.136719 193.886719 24.140625 C 193.5 24.144531 193.117188 24.144531 192.734375 24.148438 C 192.125 24.15625 191.515625 24.160156 190.902344 24.160156 C 190.414062 24.164062 189.921875 24.167969 189.429688 24.171875 C 189.242188 24.175781 189.054688 24.175781 188.867188 24.175781 C 188.605469 24.175781 188.34375 24.179688 188.078125 24.183594 C 188.003906 24.179688 187.925781 24.179688 187.847656 24.179688 C 187.304688 24.191406 186.992188 24.335938 186.570312 24.679688 C 186.382812 25.058594 186.398438 25.464844 186.460938 25.878906 C 186.699219 26.179688 186.882812 26.363281 187.226562 26.535156 C 187.378906 26.546875 187.53125 26.550781 187.683594 26.550781 C 187.777344 26.554688 187.875 26.554688 187.972656 26.554688 C 188.125 26.554688 188.125 26.554688 188.285156 26.558594 C 188.503906 26.5625 188.726562 26.5625 188.945312 26.566406 C 189.292969 26.570312 189.636719 26.574219 189.984375 26.578125 C 192.179688 26.597656 194.472656 26.664062 196.15625 28.28125 C 197.445312 29.695312 197.5625 31.417969 197.484375 33.246094 C 197.382812 34.59375 196.570312 35.878906 195.613281 36.800781 C 194.386719 37.839844 193.003906 38.238281 191.429688 38.230469 C 191.328125 38.230469 191.226562 38.230469 191.125 38.230469 C 190.789062 38.230469 190.457031 38.230469 190.125 38.230469 C 189.894531 38.230469 189.664062 38.230469 189.433594 38.230469 C 188.824219 38.226562 188.21875 38.226562 187.613281 38.226562 C 186.992188 38.226562 186.371094 38.222656 185.753906 38.222656 C 184.535156 38.222656 183.320312 38.21875 182.105469 38.21875 C 182.105469 36.8125 182.105469 35.40625 182.105469 33.960938 C 182.753906 33.957031 183.40625 33.953125 184.074219 33.949219 C 184.484375 33.945312 184.898438 33.941406 185.3125 33.9375 C 185.964844 33.929688 186.617188 33.925781 187.273438 33.921875 C 187.800781 33.917969 188.328125 33.914062 188.855469 33.910156 C 189.054688 33.90625 189.257812 33.90625 189.457031 33.90625 C 189.738281 33.90625 190.023438 33.902344 190.304688 33.898438 C 190.425781 33.898438 190.425781 33.898438 190.550781 33.898438 C 191.140625 33.886719 191.703125 33.792969 192.234375 33.523438 C 192.46875 33.101562 192.511719 32.691406 192.453125 32.210938 C 192.214844 31.726562 191.984375 31.496094 191.484375 31.292969 C 191.042969 31.171875 190.601562 31.1875 190.144531 31.1875 C 189.929688 31.1875 189.710938 31.183594 189.492188 31.183594 C 189.152344 31.183594 188.8125 31.183594 188.476562 31.183594 C 186.378906 31.179688 184.230469 31.066406 182.652344 29.484375 C 181.503906 28.113281 181.242188 26.535156 181.34375 24.789062 C 181.570312 23.230469 182.371094 21.960938 183.570312 20.960938 C 184.636719 20.171875 185.664062 19.855469 186.980469 19.859375 Z M 186.980469 19.859375 "/>
<path style=" stroke:none;fill-rule:nonzero;fill:rgb(92.156863%,38.431373%,18.039216%);fill-opacity:1;" d="M 67.765625 19.503906 C 67.976562 19.503906 67.976562 19.503906 68.191406 19.503906 C 68.558594 19.507812 68.929688 19.511719 69.296875 19.515625 C 69.675781 19.519531 70.054688 19.523438 70.429688 19.523438 C 71.167969 19.527344 71.90625 19.539062 72.644531 19.546875 C 72.644531 20.953125 72.644531 22.355469 72.644531 23.804688 C 72.320312 23.808594 71.996094 23.816406 71.660156 23.820312 C 71.347656 23.828125 71.03125 23.832031 70.714844 23.839844 C 70.496094 23.84375 70.277344 23.847656 70.058594 23.851562 C 69.746094 23.855469 69.429688 23.863281 69.113281 23.867188 C 69.015625 23.871094 68.917969 23.871094 68.820312 23.871094 C 68.726562 23.875 68.636719 23.875 68.542969 23.878906 C 68.460938 23.878906 68.378906 23.882812 68.296875 23.882812 C 68.03125 23.917969 67.863281 23.980469 67.636719 24.132812 C 67.425781 24.46875 67.390625 24.734375 67.386719 25.128906 C 67.386719 25.238281 67.386719 25.351562 67.382812 25.46875 C 67.382812 25.589844 67.382812 25.714844 67.382812 25.839844 C 67.382812 26.035156 67.382812 26.035156 67.378906 26.234375 C 67.378906 26.589844 67.375 26.949219 67.375 27.304688 C 67.371094 27.675781 67.371094 28.046875 67.367188 28.421875 C 67.363281 29.125 67.359375 29.828125 67.355469 30.535156 C 67.351562 31.335938 67.34375 32.136719 67.339844 32.941406 C 67.328125 34.589844 67.320312 36.242188 67.308594 37.890625 C 65.65625 37.890625 64.003906 37.890625 62.300781 37.890625 C 62.292969 36.0625 62.285156 34.234375 62.28125 32.40625 C 62.28125 31.558594 62.277344 30.707031 62.273438 29.859375 C 62.273438 29.117188 62.269531 28.378906 62.269531 27.636719 C 62.269531 27.246094 62.265625 26.855469 62.265625 26.460938 C 62.261719 26.023438 62.261719 25.585938 62.261719 25.148438 C 62.261719 25.019531 62.261719 24.890625 62.257812 24.757812 C 62.265625 23.269531 62.617188 21.933594 63.636719 20.816406 C 64.792969 19.710938 66.21875 19.476562 67.765625 19.503906 Z M 67.765625 19.503906 "/>
<path style=" stroke:none;fill-rule:nonzero;fill:rgb(18.431373%,18.039216%,18.039216%);fill-opacity:1;" d="M 206.722656 38.328125 C 208.445312 38.328125 210.171875 38.328125 211.949219 38.328125 C 211.914062 40.667969 211.878906 43.011719 211.839844 45.425781 C 211.59375 45.550781 211.457031 45.550781 211.179688 45.550781 C 211.089844 45.550781 211 45.550781 210.90625 45.550781 C 210.808594 45.550781 210.710938 45.550781 210.609375 45.554688 C 210.507812 45.554688 210.40625 45.554688 210.304688 45.554688 C 210.089844 45.554688 209.875 45.554688 209.664062 45.554688 C 209.335938 45.554688 209.007812 45.558594 208.683594 45.558594 C 208.476562 45.558594 208.269531 45.558594 208.0625 45.558594 C 207.964844 45.558594 207.867188 45.5625 207.765625 45.5625 C 207.628906 45.5625 207.628906 45.5625 207.488281 45.5625 C 207.410156 45.5625 207.328125 45.5625 207.246094 45.5625 C 207.046875 45.535156 207.046875 45.535156 206.828125 45.316406 C 206.800781 45.023438 206.800781 45.023438 206.796875 44.648438 C 206.792969 44.511719 206.789062 44.371094 206.789062 44.226562 C 206.789062 44.074219 206.785156 43.917969 206.785156 43.765625 C 206.78125 43.609375 206.78125 43.453125 206.777344 43.296875 C 206.773438 42.886719 206.769531 42.472656 206.765625 42.0625 C 206.757812 41.566406 206.753906 41.074219 206.746094 40.578125 C 206.738281 39.828125 206.730469 39.078125 206.722656 38.328125 Z M 206.722656 38.328125 "/>
<path style=" stroke:none;fill-rule:nonzero;fill:rgb(0%,0%,0%);fill-opacity:1;" d="M 181.839844 42.144531 C 181.972656 42.144531 181.972656 42.144531 182.105469 42.148438 C 182.371094 42.875 182.550781 43.605469 182.722656 44.359375 C 182.816406 44.792969 182.816406 44.792969 182.976562 45.207031 C 183.265625 44.34375 183.550781 43.476562 183.847656 42.585938 C 184.503906 42.476562 184.503906 42.476562 184.71875 42.585938 C 184.816406 42.800781 184.816406 42.800781 184.910156 43.082031 C 184.941406 43.183594 184.976562 43.285156 185.011719 43.390625 C 185.046875 43.496094 185.078125 43.601562 185.113281 43.710938 C 185.167969 43.871094 185.167969 43.871094 185.222656 44.03125 C 185.371094 44.488281 185.484375 44.832031 185.484375 45.316406 C 185.554688 45.316406 185.625 45.316406 185.699219 45.316406 C 185.710938 45.214844 185.726562 45.117188 185.738281 45.011719 C 185.820312 44.433594 185.957031 43.871094 186.089844 43.304688 C 186.125 43.136719 186.125 43.136719 186.164062 42.964844 C 186.226562 42.695312 186.289062 42.421875 186.355469 42.148438 C 186.570312 42.148438 186.785156 42.148438 187.007812 42.148438 C 187.1875 42.699219 187.03125 43.148438 186.878906 43.683594 C 186.839844 43.824219 186.839844 43.824219 186.800781 43.964844 C 186.316406 45.71875 186.316406 45.71875 186.027344 46.300781 C 185.738281 46.300781 185.453125 46.300781 185.15625 46.300781 C 184.867188 45.433594 184.582031 44.570312 184.285156 43.679688 C 184.003906 44.5 184.003906 44.5 183.722656 45.320312 C 183.6875 45.421875 183.652344 45.523438 183.613281 45.628906 C 183.578125 45.734375 183.542969 45.839844 183.503906 45.945312 C 183.414062 46.191406 183.414062 46.191406 183.304688 46.300781 C 183.050781 46.304688 182.796875 46.304688 182.542969 46.300781 C 182.183594 45.5625 181.953125 44.824219 181.753906 44.03125 C 181.722656 43.921875 181.695312 43.8125 181.664062 43.699219 C 181.421875 42.757812 181.421875 42.757812 181.453125 42.257812 C 181.5625 42.148438 181.5625 42.148438 181.839844 42.144531 Z M 181.839844 42.144531 "/>
<path style=" stroke:none;fill-rule:nonzero;fill:rgb(0%,0%,0%);fill-opacity:1;" d="M 152.480469 40.621094 C 152.734375 40.621094 152.984375 40.621094 153.242188 40.621094 C 153.371094 40.875 153.367188 41.023438 153.375 41.304688 C 153.375 41.402344 153.378906 41.5 153.378906 41.597656 C 153.382812 42.039062 153.386719 42.484375 153.390625 42.925781 C 153.394531 43.15625 153.394531 43.390625 153.398438 43.625 C 153.40625 43.960938 153.40625 44.296875 153.410156 44.632812 C 153.414062 44.734375 153.414062 44.839844 153.417969 44.949219 C 153.414062 45.449219 153.410156 45.679688 153.097656 46.089844 C 152.644531 46.417969 152.289062 46.429688 151.738281 46.433594 C 151.542969 46.441406 151.542969 46.441406 151.34375 46.445312 C 150.761719 46.390625 150.417969 46.191406 150.003906 45.785156 C 149.523438 45.152344 149.496094 44.472656 149.597656 43.714844 C 149.738281 43.011719 150.074219 42.664062 150.628906 42.257812 C 150.984375 42.140625 151.246094 42.136719 151.617188 42.136719 C 151.734375 42.136719 151.847656 42.136719 151.96875 42.136719 C 152.261719 42.148438 152.261719 42.148438 152.480469 42.257812 C 152.480469 41.71875 152.480469 41.175781 152.480469 40.621094 Z M 150.628906 43.242188 C 150.316406 43.753906 150.355469 44.296875 150.410156 44.878906 C 150.585938 45.296875 150.796875 45.515625 151.175781 45.753906 C 151.449219 45.796875 151.449219 45.796875 151.734375 45.78125 C 151.875 45.777344 151.875 45.777344 152.019531 45.773438 C 152.265625 45.765625 152.265625 45.765625 152.480469 45.644531 C 152.492188 45.210938 152.496094 44.777344 152.5 44.347656 C 152.503906 44.222656 152.507812 44.101562 152.511719 43.972656 C 152.511719 43.855469 152.511719 43.738281 152.511719 43.617188 C 152.515625 43.507812 152.515625 43.398438 152.519531 43.289062 C 152.507812 43.199219 152.492188 43.113281 152.480469 43.023438 C 151.847656 42.601562 151.148438 42.675781 150.628906 43.242188 Z M 150.628906 43.242188 "/>
<path style=" stroke:none;fill-rule:nonzero;fill:rgb(0%,0%,0%);fill-opacity:1;" d="M 187.988281 40.621094 C 188.203125 40.621094 188.417969 40.621094 188.640625 40.621094 C 188.851562 40.832031 188.792969 41.21875 188.8125 41.5 C 188.820312 41.640625 188.828125 41.78125 188.839844 41.929688 C 188.84375 42.039062 188.851562 42.144531 188.859375 42.257812 C 188.96875 42.222656 189.074219 42.1875 189.1875 42.148438 C 189.792969 42.097656 190.320312 42.070312 190.878906 42.328125 C 191.265625 42.703125 191.453125 43.054688 191.511719 43.597656 C 191.507812 43.785156 191.507812 43.785156 191.503906 43.972656 C 191.503906 44.179688 191.503906 44.179688 191.5 44.386719 C 191.5 44.527344 191.496094 44.667969 191.492188 44.8125 C 191.492188 45.023438 191.492188 45.023438 191.488281 45.242188 C 191.484375 45.59375 191.480469 45.945312 191.472656 46.300781 C 191.253906 46.304688 191.039062 46.304688 190.820312 46.300781 C 190.632812 46.109375 190.691406 45.855469 190.683594 45.597656 C 190.679688 45.476562 190.675781 45.355469 190.671875 45.230469 C 190.667969 44.976562 190.660156 44.71875 190.652344 44.464844 C 190.648438 44.28125 190.648438 44.28125 190.644531 44.097656 C 190.640625 43.984375 190.636719 43.871094 190.632812 43.757812 C 190.601562 43.457031 190.546875 43.273438 190.382812 43.023438 C 190.128906 42.894531 189.964844 42.894531 189.683594 42.894531 C 189.597656 42.890625 189.511719 42.890625 189.425781 42.886719 C 189.152344 42.898438 189.152344 42.898438 188.859375 43.132812 C 188.804688 43.460938 188.804688 43.460938 188.804688 43.847656 C 188.800781 43.988281 188.796875 44.128906 188.792969 44.277344 C 188.789062 44.429688 188.785156 44.578125 188.785156 44.730469 C 188.78125 44.878906 188.777344 45.03125 188.773438 45.183594 C 188.765625 45.554688 188.757812 45.925781 188.75 46.300781 C 188.5 46.300781 188.246094 46.300781 187.988281 46.300781 C 187.988281 44.425781 187.988281 42.550781 187.988281 40.621094 Z M 187.988281 40.621094 "/>
<path style=" stroke:none;fill-rule:nonzero;fill:rgb(0%,0%,0%);fill-opacity:1;" d="M 203.03125 42.21875 C 203.527344 42.472656 203.828125 42.832031 204 43.351562 C 204.03125 43.652344 204.019531 43.917969 204 44.222656 C 203.53125 44.394531 203.082031 44.496094 202.589844 44.566406 C 202.460938 44.582031 202.335938 44.601562 202.203125 44.621094 C 201.820312 44.660156 201.445312 44.667969 201.058594 44.660156 C 201.253906 45.105469 201.398438 45.394531 201.820312 45.644531 C 202.457031 45.734375 203.078125 45.683594 203.671875 45.425781 C 203.742188 45.570312 203.816406 45.714844 203.890625 45.863281 C 203.542969 46.234375 203.332031 46.390625 202.816406 46.433594 C 201.882812 46.453125 201.265625 46.378906 200.582031 45.726562 C 200.144531 44.988281 200.128906 44.28125 200.296875 43.460938 C 200.5 42.882812 200.792969 42.609375 201.273438 42.257812 C 201.832031 42.070312 202.464844 42.046875 203.03125 42.21875 Z M 201.167969 43.351562 C 201.128906 43.601562 201.09375 43.855469 201.058594 44.113281 C 201.742188 44.042969 202.421875 43.972656 203.125 43.898438 C 203.289062 43.457031 203.289062 43.457031 203.03125 43.105469 C 202.773438 42.820312 202.582031 42.75 202.199219 42.730469 C 201.695312 42.765625 201.457031 42.921875 201.167969 43.351562 Z M 201.167969 43.351562 "/>
<path style=" stroke:none;fill-rule:nonzero;fill:rgb(0%,0%,0%);fill-opacity:1;" d="M 195.300781 42.21875 C 195.792969 42.472656 196.09375 42.832031 196.265625 43.351562 C 196.296875 43.652344 196.285156 43.917969 196.265625 44.222656 C 195.796875 44.394531 195.351562 44.496094 194.855469 44.566406 C 194.730469 44.582031 194.601562 44.601562 194.472656 44.621094 C 194.085938 44.660156 193.710938 44.667969 193.324219 44.660156 C 193.519531 45.105469 193.667969 45.394531 194.085938 45.644531 C 194.722656 45.734375 195.347656 45.683594 195.9375 45.425781 C 196.011719 45.570312 196.082031 45.714844 196.15625 45.863281 C 195.808594 46.234375 195.601562 46.390625 195.082031 46.433594 C 194.152344 46.453125 193.535156 46.378906 192.847656 45.726562 C 192.414062 44.988281 192.398438 44.28125 192.5625 43.460938 C 192.769531 42.882812 193.0625 42.609375 193.542969 42.257812 C 194.101562 42.070312 194.734375 42.046875 195.300781 42.21875 Z M 193.433594 43.351562 C 193.398438 43.601562 193.363281 43.855469 193.324219 44.113281 C 194.007812 44.042969 194.691406 43.972656 195.394531 43.898438 C 195.558594 43.457031 195.558594 43.457031 195.296875 43.105469 C 195.039062 42.820312 194.847656 42.75 194.46875 42.730469 C 193.960938 42.765625 193.726562 42.921875 193.433594 43.351562 Z M 193.433594 43.351562 "/>
<path style=" stroke:none;fill-rule:nonzero;fill:rgb(0%,0%,0%);fill-opacity:1;" d="M 172.101562 42.21875 C 172.59375 42.472656 172.894531 42.832031 173.066406 43.351562 C 173.097656 43.652344 173.085938 43.917969 173.066406 44.222656 C 172.597656 44.394531 172.152344 44.496094 171.65625 44.566406 C 171.53125 44.582031 171.402344 44.601562 171.273438 44.621094 C 170.886719 44.660156 170.511719 44.667969 170.125 44.660156 C 170.320312 45.105469 170.46875 45.394531 170.886719 45.644531 C 171.523438 45.734375 172.148438 45.683594 172.738281 45.425781 C 172.8125 45.570312 172.882812 45.714844 172.957031 45.863281 C 172.609375 46.234375 172.402344 46.390625 171.882812 46.433594 C 170.953125 46.453125 170.335938 46.378906 169.648438 45.726562 C 169.214844 44.988281 169.199219 44.28125 169.363281 43.460938 C 169.570312 42.882812 169.863281 42.609375 170.34375 42.257812 C 170.902344 42.070312 171.535156 42.046875 172.101562 42.21875 Z M 170.234375 43.351562 C 170.199219 43.601562 170.164062 43.855469 170.125 44.113281 C 170.808594 44.042969 171.492188 43.972656 172.195312 43.898438 C 172.359375 43.457031 172.359375 43.457031 172.101562 43.105469 C 171.84375 42.820312 171.648438 42.75 171.269531 42.730469 C 170.761719 42.765625 170.527344 42.921875 170.234375 43.351562 Z M 170.234375 43.351562 "/>
<path style=" stroke:none;fill-rule:nonzero;fill:rgb(0%,0%,0%);fill-opacity:1;" d="M 163.386719 42.21875 C 163.882812 42.472656 164.183594 42.832031 164.351562 43.351562 C 164.386719 43.652344 164.375 43.917969 164.351562 44.222656 C 163.882812 44.394531 163.4375 44.496094 162.945312 44.566406 C 162.816406 44.582031 162.691406 44.601562 162.558594 44.621094 C 162.175781 44.660156 161.800781 44.667969 161.414062 44.660156 C 161.609375 45.105469 161.753906 45.394531 162.175781 45.644531 C 162.8125 45.734375 163.433594 45.683594 164.027344 45.425781 C 164.097656 45.570312 164.171875 45.714844 164.246094 45.863281 C 163.898438 46.234375 163.6875 46.390625 163.171875 46.433594 C 162.238281 46.453125 161.621094 46.378906 160.9375 45.726562 C 160.5 44.988281 160.484375 44.28125 160.648438 43.460938 C 160.855469 42.882812 161.148438 42.609375 161.628906 42.257812 C 162.1875 42.070312 162.820312 42.046875 163.386719 42.21875 Z M 161.519531 43.351562 C 161.484375 43.601562 161.449219 43.855469 161.414062 44.113281 C 162.09375 44.042969 162.777344 43.972656 163.480469 43.898438 C 163.644531 43.457031 163.644531 43.457031 163.386719 43.105469 C 163.128906 42.820312 162.9375 42.75 162.554688 42.730469 C 162.046875 42.765625 161.8125 42.921875 161.519531 43.351562 Z M 161.519531 43.351562 "/>
<path style=" stroke:none;fill-rule:nonzero;fill:rgb(0%,0%,0%);fill-opacity:1;" d="M 157.179688 42.21875 C 157.671875 42.472656 157.972656 42.832031 158.144531 43.351562 C 158.175781 43.652344 158.167969 43.917969 158.144531 44.222656 C 157.675781 44.394531 157.230469 44.496094 156.734375 44.566406 C 156.609375 44.582031 156.480469 44.601562 156.351562 44.621094 C 155.964844 44.660156 155.589844 44.667969 155.203125 44.660156 C 155.402344 45.105469 155.546875 45.394531 155.964844 45.644531 C 156.601562 45.734375 157.226562 45.683594 157.816406 45.425781 C 157.890625 45.570312 157.960938 45.714844 158.035156 45.863281 C 157.6875 46.234375 157.480469 46.390625 156.960938 46.433594 C 156.03125 46.453125 155.414062 46.378906 154.726562 45.726562 C 154.292969 44.988281 154.277344 44.28125 154.441406 43.460938 C 154.648438 42.882812 154.941406 42.609375 155.421875 42.257812 C 155.980469 42.070312 156.613281 42.046875 157.179688 42.21875 Z M 155.3125 43.351562 C 155.277344 43.601562 155.242188 43.855469 155.203125 44.113281 C 155.886719 44.042969 156.570312 43.972656 157.273438 43.898438 C 157.4375 43.457031 157.4375 43.457031 157.179688 43.105469 C 156.921875 42.820312 156.726562 42.75 156.347656 42.730469 C 155.839844 42.765625 155.605469 42.921875 155.3125 43.351562 Z M 155.3125 43.351562 "/>
<path style=" stroke:none;fill-rule:nonzero;fill:rgb(0%,0%,0%);fill-opacity:1;" d="M 177.097656 42.148438 C 177.347656 42.117188 177.347656 42.117188 177.640625 42.148438 C 177.894531 42.507812 178.054688 42.890625 178.214844 43.296875 C 178.277344 43.464844 178.277344 43.464844 178.34375 43.636719 C 178.410156 43.808594 178.410156 43.808594 178.476562 43.984375 C 178.523438 44.101562 178.570312 44.21875 178.617188 44.339844 C 178.726562 44.628906 178.835938 44.917969 178.949219 45.207031 C 179.332031 44.34375 179.617188 43.496094 179.839844 42.582031 C 179.929688 42.257812 179.929688 42.257812 180.035156 42.148438 C 180.253906 42.144531 180.472656 42.144531 180.691406 42.148438 C 180.730469 42.871094 180.597656 43.433594 180.363281 44.113281 C 180.328125 44.214844 180.296875 44.316406 180.261719 44.417969 C 179.273438 47.222656 179.273438 47.222656 178.292969 47.9375 C 177.917969 47.992188 177.917969 47.992188 177.640625 47.9375 C 177.558594 47.753906 177.558594 47.753906 177.53125 47.5 C 177.703125 47.238281 177.703125 47.238281 177.945312 46.960938 C 178.257812 46.605469 178.46875 46.3125 178.621094 45.863281 C 178.511719 45.824219 178.40625 45.789062 178.292969 45.753906 C 178.15625 45.511719 178.039062 45.277344 177.925781 45.023438 C 177.894531 44.949219 177.859375 44.878906 177.828125 44.800781 C 176.949219 42.824219 176.949219 42.824219 177.027344 42.324219 C 177.050781 42.265625 177.074219 42.210938 177.097656 42.148438 Z M 177.097656 42.148438 "/>
<path style=" stroke:none;fill-rule:nonzero;fill:rgb(0%,0%,0%);fill-opacity:1;" d="M 145.402344 42.148438 C 145.652344 42.117188 145.652344 42.117188 145.945312 42.148438 C 146.199219 42.507812 146.363281 42.890625 146.519531 43.296875 C 146.585938 43.464844 146.585938 43.464844 146.648438 43.636719 C 146.714844 43.808594 146.714844 43.808594 146.785156 43.984375 C 146.828125 44.101562 146.875 44.21875 146.921875 44.339844 C 147.03125 44.628906 147.144531 44.917969 147.253906 45.207031 C 147.636719 44.34375 147.921875 43.496094 148.148438 42.582031 C 148.234375 42.257812 148.234375 42.257812 148.34375 42.148438 C 148.558594 42.144531 148.777344 42.144531 148.996094 42.148438 C 149.035156 42.871094 148.90625 43.433594 148.667969 44.113281 C 148.636719 44.214844 148.601562 44.316406 148.566406 44.417969 C 147.578125 47.222656 147.578125 47.222656 146.601562 47.9375 C 146.226562 47.992188 146.226562 47.992188 145.945312 47.9375 C 145.867188 47.753906 145.867188 47.753906 145.835938 47.5 C 146.011719 47.238281 146.011719 47.238281 146.253906 46.960938 C 146.5625 46.605469 146.773438 46.3125 146.925781 45.863281 C 146.820312 45.824219 146.710938 45.789062 146.601562 45.753906 C 146.460938 45.511719 146.34375 45.277344 146.230469 45.023438 C 146.199219 44.949219 146.167969 44.878906 146.132812 44.800781 C 145.253906 42.824219 145.253906 42.824219 145.332031 42.324219 C 145.355469 42.265625 145.378906 42.210938 145.402344 42.148438 Z M 145.402344 42.148438 "/>
<path style=" stroke:none;fill-rule:nonzero;fill:rgb(0%,0%,0%);fill-opacity:1;" d="M 165.007812 42.148438 C 165.257812 42.117188 165.257812 42.117188 165.550781 42.148438 C 165.804688 42.507812 165.957031 42.878906 166.097656 43.292969 C 166.132812 43.40625 166.171875 43.515625 166.210938 43.628906 C 166.25 43.746094 166.289062 43.859375 166.328125 43.976562 C 166.40625 44.207031 166.480469 44.4375 166.558594 44.667969 C 166.59375 44.765625 166.628906 44.867188 166.660156 44.972656 C 166.730469 45.203125 166.730469 45.203125 166.859375 45.316406 C 167.21875 44.269531 167.578125 43.226562 167.949219 42.148438 C 168.164062 42.148438 168.378906 42.148438 168.601562 42.148438 C 168.722656 42.511719 168.695312 42.722656 168.578125 43.082031 C 168.546875 43.175781 168.511719 43.269531 168.480469 43.367188 C 168.445312 43.46875 168.410156 43.566406 168.375 43.671875 C 168.339844 43.773438 168.308594 43.875 168.269531 43.980469 C 167.996094 44.78125 167.675781 45.542969 167.292969 46.300781 C 167.007812 46.300781 166.71875 46.300781 166.421875 46.300781 C 165.964844 45.472656 165.613281 44.617188 165.285156 43.734375 C 165.246094 43.628906 165.207031 43.519531 165.164062 43.414062 C 165.109375 43.261719 165.109375 43.261719 165.054688 43.109375 C 165.023438 43.019531 164.988281 42.929688 164.953125 42.835938 C 164.890625 42.5625 164.917969 42.410156 165.007812 42.148438 Z M 165.007812 42.148438 "/>
<path style=" stroke:none;fill-rule:nonzero;fill:rgb(0%,0%,0%);fill-opacity:1;" d="M 199.75 42.257812 C 199.75 42.4375 199.75 42.617188 199.75 42.804688 C 199.613281 42.816406 199.613281 42.816406 199.476562 42.824219 C 199.296875 42.839844 199.296875 42.839844 199.117188 42.851562 C 199 42.859375 198.882812 42.871094 198.761719 42.878906 C 198.4375 42.902344 198.4375 42.902344 198.117188 43.023438 C 198.082031 44.105469 198.046875 45.183594 198.007812 46.300781 C 197.757812 46.300781 197.503906 46.300781 197.246094 46.300781 C 196.996094 45.800781 197.113281 45.117188 197.109375 44.570312 C 197.105469 44.433594 197.105469 44.292969 197.101562 44.148438 C 197.101562 44.011719 197.101562 43.875 197.101562 43.738281 C 197.101562 43.613281 197.097656 43.488281 197.097656 43.363281 C 197.140625 42.980469 197.234375 42.78125 197.464844 42.476562 C 198.085938 42.089844 199.070312 41.917969 199.75 42.257812 Z M 199.75 42.257812 "/>
<path style=" stroke:none;fill-rule:nonzero;fill:rgb(0%,0%,0%);fill-opacity:1;" d="M 176.550781 42.257812 C 176.550781 42.4375 176.550781 42.617188 176.550781 42.804688 C 176.414062 42.816406 176.414062 42.816406 176.277344 42.824219 C 176.101562 42.839844 176.101562 42.839844 175.917969 42.851562 C 175.800781 42.859375 175.683594 42.871094 175.5625 42.878906 C 175.238281 42.902344 175.238281 42.902344 174.917969 43.023438 C 174.882812 44.105469 174.847656 45.183594 174.808594 46.300781 C 174.558594 46.300781 174.304688 46.300781 174.046875 46.300781 C 173.800781 45.800781 173.914062 45.117188 173.910156 44.570312 C 173.90625 44.433594 173.90625 44.292969 173.902344 44.148438 C 173.902344 44.011719 173.902344 43.875 173.902344 43.738281 C 173.902344 43.613281 173.898438 43.488281 173.898438 43.363281 C 173.941406 42.980469 174.035156 42.78125 174.265625 42.476562 C 174.886719 42.089844 175.871094 41.917969 176.550781 42.257812 Z M 176.550781 42.257812 "/>
<path style=" stroke:none;fill-rule:nonzero;fill:rgb(0%,0%,0%);fill-opacity:1;" d="M 144.855469 42.257812 C 144.855469 42.4375 144.855469 42.617188 144.855469 42.804688 C 144.722656 42.816406 144.722656 42.816406 144.582031 42.824219 C 144.40625 42.839844 144.40625 42.839844 144.222656 42.851562 C 144.105469 42.859375 143.988281 42.871094 143.867188 42.878906 C 143.542969 42.902344 143.542969 42.902344 143.222656 43.023438 C 143.1875 44.105469 143.152344 45.183594 143.113281 46.300781 C 142.863281 46.300781 142.613281 46.300781 142.351562 46.300781 C 142.105469 45.800781 142.21875 45.117188 142.214844 44.570312 C 142.214844 44.433594 142.210938 44.292969 142.210938 44.148438 C 142.207031 44.011719 142.207031 43.875 142.207031 43.738281 C 142.207031 43.613281 142.207031 43.488281 142.203125 43.363281 C 142.25 42.980469 142.339844 42.78125 142.570312 42.476562 C 143.195312 42.089844 144.179688 41.917969 144.855469 42.257812 Z M 144.855469 42.257812 "/>
</g>
</svg>
