<?xml version="1.0" encoding="UTF-8"?>
<svg xmlns="http://www.w3.org/2000/svg" xmlns:xlink="http://www.w3.org/1999/xlink" width="200px" height="46px" viewBox="0 0 200 46" version="1.1">
<g id="surface1">
<path style=" stroke:none;fill-rule:nonzero;fill:rgb(92.156863%,38.431373%,17.647059%);fill-opacity:1;" d="M 10.378906 9.417969 C 10.457031 9.417969 10.535156 9.417969 10.613281 9.417969 C 10.742188 9.417969 10.742188 9.417969 10.871094 9.417969 C 10.960938 9.417969 11.054688 9.417969 11.144531 9.417969 C 11.449219 9.417969 11.753906 9.417969 12.058594 9.417969 C 12.277344 9.417969 12.496094 9.414062 12.714844 9.414062 C 13.246094 9.414062 13.777344 9.414062 14.308594 9.414062 C 14.742188 9.414062 15.171875 9.414062 15.605469 9.414062 C 16.835938 9.414062 18.066406 9.414062 19.292969 9.414062 C 19.359375 9.414062 19.425781 9.414062 19.496094 9.414062 C 19.59375 9.414062 19.59375 9.414062 19.695312 9.414062 C 20.769531 9.414062 21.839844 9.410156 22.910156 9.410156 C 24.015625 9.410156 25.117188 9.410156 26.21875 9.410156 C 26.835938 9.410156 27.457031 9.410156 28.074219 9.40625 C 28.65625 9.40625 29.238281 9.40625 29.824219 9.40625 C 30.035156 9.40625 30.246094 9.40625 30.460938 9.40625 C 33.4375 9.398438 36.40625 9.601562 38.6875 11.746094 C 40.453125 13.589844 40.707031 16.066406 40.703125 18.5 C 40.703125 18.6875 40.703125 18.878906 40.703125 19.066406 C 40.707031 19.574219 40.707031 20.078125 40.707031 20.585938 C 40.707031 21.011719 40.707031 21.433594 40.707031 21.859375 C 40.707031 22.859375 40.707031 23.859375 40.707031 24.859375 C 40.707031 25.890625 40.707031 26.921875 40.710938 27.953125 C 40.710938 28.839844 40.710938 29.726562 40.710938 30.617188 C 40.710938 31.144531 40.710938 31.675781 40.710938 32.203125 C 40.714844 32.699219 40.714844 33.195312 40.710938 33.691406 C 40.710938 33.875 40.710938 34.058594 40.714844 34.238281 C 40.714844 34.488281 40.714844 34.734375 40.710938 34.984375 C 40.710938 35.058594 40.714844 35.128906 40.714844 35.203125 C 40.707031 35.695312 40.597656 35.988281 40.316406 36.394531 C 40.039062 36.535156 39.738281 36.496094 39.433594 36.5 C 39.359375 36.5 39.289062 36.5 39.214844 36.5 C 38.972656 36.5 38.730469 36.503906 38.488281 36.503906 C 38.402344 36.503906 38.320312 36.503906 38.234375 36.503906 C 37.796875 36.507812 37.363281 36.507812 36.925781 36.507812 C 36.472656 36.507812 36.019531 36.511719 35.570312 36.515625 C 35.222656 36.519531 34.875 36.519531 34.527344 36.519531 C 34.359375 36.519531 34.191406 36.519531 34.027344 36.523438 C 33.792969 36.523438 33.558594 36.523438 33.328125 36.523438 C 33.222656 36.527344 33.222656 36.527344 33.117188 36.527344 C 32.804688 36.523438 32.605469 36.492188 32.332031 36.332031 C 31.96875 35.933594 31.945312 35.535156 31.949219 35.015625 C 31.949219 34.949219 31.949219 34.882812 31.949219 34.8125 C 31.949219 34.585938 31.949219 34.363281 31.949219 34.136719 C 31.949219 33.976562 31.945312 33.816406 31.945312 33.652344 C 31.945312 33.308594 31.945312 32.960938 31.945312 32.613281 C 31.945312 32.0625 31.941406 31.515625 31.941406 30.964844 C 31.9375 29.601562 31.933594 28.238281 31.933594 26.871094 C 31.929688 25.8125 31.929688 24.753906 31.925781 23.691406 C 31.921875 23.148438 31.921875 22.601562 31.921875 22.054688 C 31.921875 21.714844 31.921875 21.375 31.921875 21.035156 C 31.917969 20.878906 31.917969 20.722656 31.917969 20.5625 C 31.921875 20.347656 31.917969 20.132812 31.917969 19.917969 C 31.917969 19.855469 31.917969 19.792969 31.917969 19.730469 C 31.914062 19.265625 31.796875 18.929688 31.621094 18.503906 C 31.59375 18.4375 31.566406 18.367188 31.539062 18.296875 C 31.414062 18.105469 31.304688 18.0625 31.09375 17.976562 C 30.992188 17.929688 30.894531 17.886719 30.792969 17.839844 C 30.363281 17.664062 29.992188 17.613281 29.53125 17.613281 C 29.429688 17.613281 29.328125 17.609375 29.222656 17.609375 C 29.113281 17.609375 29.003906 17.609375 28.886719 17.609375 C 28.769531 17.609375 28.652344 17.609375 28.53125 17.609375 C 28.210938 17.609375 27.890625 17.605469 27.570312 17.605469 C 27.371094 17.605469 27.167969 17.605469 26.96875 17.605469 C 26.339844 17.605469 25.710938 17.605469 25.082031 17.601562 C 24.359375 17.601562 23.632812 17.601562 22.910156 17.597656 C 22.347656 17.597656 21.789062 17.597656 21.226562 17.597656 C 20.894531 17.597656 20.558594 17.59375 20.222656 17.59375 C 19.910156 17.59375 19.59375 17.59375 19.28125 17.59375 C 19.109375 17.59375 18.941406 17.59375 18.769531 17.589844 C 18.105469 17.59375 17.53125 17.613281 17.007812 18.070312 C 16.628906 18.757812 16.65625 19.601562 16.632812 20.367188 C 16.628906 20.46875 16.625 20.570312 16.625 20.671875 C 16.617188 20.921875 16.609375 21.167969 16.601562 21.414062 C 16.648438 21.414062 16.695312 21.414062 16.746094 21.414062 C 17.914062 21.40625 19.085938 21.402344 20.253906 21.398438 C 20.820312 21.398438 21.386719 21.398438 21.949219 21.394531 C 22.496094 21.390625 23.042969 21.390625 23.585938 21.390625 C 23.796875 21.386719 24.003906 21.386719 24.210938 21.386719 C 24.503906 21.382812 24.796875 21.382812 25.085938 21.382812 C 25.171875 21.382812 25.257812 21.382812 25.347656 21.382812 C 25.828125 21.382812 26.167969 21.40625 26.527344 21.765625 C 26.550781 22.226562 26.554688 22.6875 26.558594 23.148438 C 26.558594 23.300781 26.5625 23.457031 26.5625 23.613281 C 26.570312 23.835938 26.570312 24.058594 26.570312 24.28125 C 26.574219 24.351562 26.574219 24.421875 26.578125 24.492188 C 26.578125 24.800781 26.5625 24.984375 26.359375 25.222656 C 25.964844 25.449219 25.617188 25.425781 25.167969 25.417969 C 25.074219 25.417969 24.980469 25.417969 24.886719 25.417969 C 24.582031 25.417969 24.273438 25.417969 23.96875 25.414062 C 23.757812 25.414062 23.542969 25.414062 23.332031 25.414062 C 22.773438 25.410156 22.21875 25.40625 21.660156 25.402344 C 21.089844 25.398438 20.519531 25.398438 19.953125 25.398438 C 18.835938 25.394531 17.71875 25.386719 16.601562 25.378906 C 16.609375 25.757812 16.621094 26.140625 16.632812 26.519531 C 16.636719 26.625 16.640625 26.734375 16.640625 26.84375 C 16.648438 27.890625 16.648438 27.890625 17.066406 28.8125 C 17.453125 29.105469 17.769531 29.191406 18.25 29.191406 C 18.351562 29.195312 18.453125 29.195312 18.554688 29.195312 C 18.71875 29.195312 18.71875 29.195312 18.882812 29.195312 C 19.058594 29.199219 19.230469 29.199219 19.402344 29.199219 C 19.828125 29.203125 20.253906 29.207031 20.675781 29.207031 C 23.664062 29.222656 26.757812 29.355469 29.25 31.195312 C 29.304688 31.238281 29.363281 31.277344 29.421875 31.320312 C 30.75 32.359375 31.328125 34.027344 31.578125 35.636719 C 31.632812 36.101562 31.632812 36.101562 31.621094 36.304688 C 31.40625 36.519531 31.292969 36.503906 31 36.507812 C 30.9375 36.507812 30.875 36.503906 30.8125 36.503906 C 30.714844 36.503906 30.714844 36.503906 30.613281 36.507812 C 30.390625 36.507812 30.167969 36.507812 29.945312 36.503906 C 29.789062 36.503906 29.628906 36.507812 29.46875 36.507812 C 29.035156 36.507812 28.605469 36.507812 28.171875 36.507812 C 27.71875 36.507812 27.265625 36.507812 26.8125 36.507812 C 26.050781 36.507812 25.285156 36.507812 24.523438 36.503906 C 23.644531 36.503906 22.765625 36.503906 21.886719 36.507812 C 21.132812 36.507812 20.375 36.507812 19.621094 36.507812 C 19.167969 36.507812 18.71875 36.507812 18.265625 36.507812 C 17.84375 36.507812 17.417969 36.507812 16.992188 36.507812 C 16.835938 36.503906 16.679688 36.503906 16.527344 36.507812 C 14.691406 36.511719 12.753906 36.386719 11.347656 35.050781 C 9.824219 33.410156 9.8125 31.265625 9.816406 29.15625 C 9.816406 28.941406 9.816406 28.726562 9.816406 28.511719 C 9.816406 28.050781 9.816406 27.589844 9.820312 27.132812 C 9.820312 26.464844 9.820312 25.800781 9.820312 25.136719 C 9.820312 24.054688 9.824219 22.976562 9.824219 21.898438 C 9.824219 20.851562 9.828125 19.800781 9.828125 18.753906 C 9.828125 18.6875 9.828125 18.625 9.828125 18.558594 C 9.828125 18.234375 9.828125 17.910156 9.828125 17.582031 C 9.832031 14.894531 9.832031 12.207031 9.835938 9.515625 C 10.039062 9.414062 10.152344 9.417969 10.378906 9.417969 Z M 10.378906 9.417969 "/>
<path style=" stroke:none;fill-rule:nonzero;fill:rgb(17.647059%,17.647059%,18.039216%);fill-opacity:1;" d="M 9.835938 17.359375 C 9.925781 17.402344 9.925781 17.402344 10.011719 17.449219 C 10.261719 17.460938 10.507812 17.464844 10.757812 17.464844 C 10.835938 17.46875 10.914062 17.46875 10.992188 17.46875 C 11.25 17.472656 11.503906 17.472656 11.757812 17.476562 C 11.9375 17.476562 12.113281 17.480469 12.289062 17.480469 C 12.757812 17.488281 13.222656 17.492188 13.691406 17.496094 C 14.164062 17.5 14.640625 17.503906 15.117188 17.507812 C 16.050781 17.519531 16.984375 17.527344 17.917969 17.535156 C 17.839844 17.574219 17.839844 17.574219 17.757812 17.613281 C 17.269531 17.863281 16.972656 18.066406 16.777344 18.59375 C 16.667969 19.175781 16.660156 19.761719 16.640625 20.351562 C 16.632812 20.503906 16.632812 20.503906 16.628906 20.660156 C 16.617188 20.910156 16.609375 21.164062 16.601562 21.414062 C 16.671875 21.414062 16.671875 21.414062 16.746094 21.414062 C 17.914062 21.40625 19.085938 21.402344 20.253906 21.398438 C 20.820312 21.398438 21.386719 21.398438 21.949219 21.394531 C 22.496094 21.390625 23.042969 21.390625 23.585938 21.390625 C 23.796875 21.386719 24.003906 21.386719 24.210938 21.386719 C 24.503906 21.382812 24.796875 21.382812 25.085938 21.382812 C 25.214844 21.382812 25.214844 21.382812 25.347656 21.382812 C 25.828125 21.382812 26.167969 21.40625 26.527344 21.765625 C 26.550781 22.226562 26.554688 22.6875 26.558594 23.148438 C 26.558594 23.300781 26.5625 23.457031 26.5625 23.613281 C 26.570312 23.835938 26.570312 24.058594 26.570312 24.28125 C 26.574219 24.351562 26.574219 24.421875 26.578125 24.492188 C 26.578125 24.800781 26.5625 24.984375 26.359375 25.222656 C 25.964844 25.449219 25.617188 25.425781 25.167969 25.417969 C 25.074219 25.417969 24.980469 25.417969 24.886719 25.417969 C 24.582031 25.417969 24.273438 25.417969 23.96875 25.414062 C 23.757812 25.414062 23.542969 25.414062 23.332031 25.414062 C 22.773438 25.410156 22.21875 25.40625 21.660156 25.402344 C 21.089844 25.398438 20.519531 25.398438 19.953125 25.398438 C 18.835938 25.394531 17.71875 25.386719 16.601562 25.378906 C 16.609375 25.757812 16.621094 26.140625 16.632812 26.519531 C 16.636719 26.625 16.640625 26.734375 16.640625 26.84375 C 16.648438 27.890625 16.648438 27.890625 17.066406 28.8125 C 17.453125 29.105469 17.769531 29.191406 18.25 29.191406 C 18.351562 29.195312 18.453125 29.195312 18.554688 29.195312 C 18.71875 29.195312 18.71875 29.195312 18.882812 29.195312 C 19.058594 29.199219 19.230469 29.199219 19.402344 29.199219 C 19.828125 29.203125 20.253906 29.207031 20.675781 29.207031 C 23.664062 29.222656 26.757812 29.355469 29.25 31.195312 C 29.304688 31.238281 29.363281 31.277344 29.421875 31.320312 C 30.75 32.359375 31.328125 34.027344 31.578125 35.636719 C 31.632812 36.101562 31.632812 36.101562 31.621094 36.304688 C 31.40625 36.519531 31.292969 36.503906 31 36.507812 C 30.9375 36.507812 30.875 36.503906 30.8125 36.503906 C 30.714844 36.503906 30.714844 36.503906 30.613281 36.507812 C 30.390625 36.507812 30.167969 36.507812 29.945312 36.503906 C 29.789062 36.503906 29.628906 36.507812 29.46875 36.507812 C 29.035156 36.507812 28.605469 36.507812 28.171875 36.507812 C 27.71875 36.507812 27.265625 36.507812 26.8125 36.507812 C 26.050781 36.507812 25.285156 36.507812 24.523438 36.503906 C 23.644531 36.503906 22.765625 36.503906 21.886719 36.507812 C 21.132812 36.507812 20.375 36.507812 19.621094 36.507812 C 19.167969 36.507812 18.71875 36.507812 18.265625 36.507812 C 17.84375 36.507812 17.417969 36.507812 16.992188 36.507812 C 16.835938 36.503906 16.679688 36.503906 16.527344 36.507812 C 14.691406 36.511719 12.753906 36.386719 11.347656 35.050781 C 10.019531 33.621094 9.808594 31.75 9.816406 29.875 C 9.816406 29.738281 9.816406 29.601562 9.816406 29.464844 C 9.816406 29.09375 9.820312 28.726562 9.820312 28.355469 C 9.820312 27.96875 9.820312 27.582031 9.820312 27.195312 C 9.820312 26.460938 9.824219 25.730469 9.824219 25 C 9.828125 24.167969 9.828125 23.332031 9.828125 22.5 C 9.832031 20.785156 9.832031 19.074219 9.835938 17.359375 Z M 9.835938 17.359375 "/>
<path style=" stroke:none;fill-rule:nonzero;fill:rgb(94.901961%,56.470591%,12.54902%);fill-opacity:1;" d="M 10.378906 9.417969 C 10.453125 9.417969 10.53125 9.417969 10.609375 9.417969 C 10.695312 9.417969 10.78125 9.417969 10.867188 9.417969 C 11.003906 9.417969 11.003906 9.417969 11.140625 9.417969 C 11.441406 9.417969 11.746094 9.417969 12.050781 9.417969 C 12.265625 9.417969 12.480469 9.417969 12.699219 9.417969 C 13.164062 9.417969 13.632812 9.417969 14.097656 9.417969 C 14.773438 9.421875 15.449219 9.421875 16.125 9.421875 C 17.21875 9.421875 18.3125 9.421875 19.410156 9.421875 C 20.472656 9.421875 21.535156 9.425781 22.601562 9.425781 C 22.664062 9.425781 22.730469 9.425781 22.800781 9.425781 C 23.316406 9.425781 23.835938 9.425781 24.355469 9.425781 C 26.894531 9.425781 29.433594 9.425781 31.972656 9.429688 C 31.972656 12.65625 31.972656 15.886719 31.972656 19.210938 C 31.914062 19.09375 31.855469 18.976562 31.796875 18.859375 C 31.734375 18.765625 31.671875 18.675781 31.609375 18.582031 C 31.445312 18.328125 31.445312 18.328125 31.445312 18.152344 C 30.683594 17.753906 30.074219 17.613281 29.226562 17.613281 C 29.144531 17.613281 29.0625 17.609375 28.980469 17.609375 C 28.703125 17.609375 28.429688 17.609375 28.152344 17.609375 C 27.957031 17.609375 27.761719 17.609375 27.5625 17.609375 C 27.136719 17.605469 26.714844 17.605469 26.289062 17.605469 C 25.621094 17.601562 24.949219 17.601562 24.277344 17.597656 C 23.339844 17.59375 22.398438 17.59375 21.460938 17.589844 C 21.398438 17.589844 21.339844 17.589844 21.277344 17.589844 C 20.433594 17.585938 19.585938 17.585938 18.738281 17.582031 C 18.679688 17.582031 18.621094 17.582031 18.558594 17.582031 C 18.5 17.582031 18.4375 17.582031 18.378906 17.582031 C 17.386719 17.578125 16.390625 17.578125 15.398438 17.574219 C 14.734375 17.570312 14.066406 17.570312 13.398438 17.566406 C 12.984375 17.566406 12.570312 17.566406 12.15625 17.5625 C 11.964844 17.5625 11.769531 17.5625 11.578125 17.5625 C 11.316406 17.5625 11.054688 17.5625 10.792969 17.558594 C 10.714844 17.5625 10.636719 17.5625 10.558594 17.5625 C 10.035156 17.554688 10.035156 17.554688 9.835938 17.359375 C 9.820312 17.109375 9.816406 16.871094 9.816406 16.621094 C 9.816406 16.542969 9.816406 16.46875 9.816406 16.386719 C 9.816406 16.132812 9.820312 15.882812 9.820312 15.628906 C 9.820312 15.453125 9.820312 15.277344 9.820312 15.101562 C 9.820312 14.636719 9.824219 14.175781 9.824219 13.710938 C 9.828125 13.242188 9.828125 12.769531 9.828125 12.296875 C 9.832031 11.371094 9.832031 10.445312 9.835938 9.515625 C 10.039062 9.414062 10.152344 9.417969 10.378906 9.417969 Z M 10.378906 9.417969 "/>
<path style=" stroke:none;fill-rule:nonzero;fill:rgb(92.156863%,38.431373%,18.039216%);fill-opacity:1;" d="M 88.097656 9.339844 C 89.433594 9.339844 90.765625 9.339844 92.140625 9.339844 C 92.144531 11.140625 92.144531 12.941406 92.148438 14.738281 C 92.148438 15.574219 92.148438 16.410156 92.152344 17.246094 C 92.152344 17.976562 92.15625 18.703125 92.15625 19.433594 C 92.15625 19.820312 92.15625 20.203125 92.15625 20.589844 C 92.160156 20.953125 92.160156 21.316406 92.160156 21.683594 C 92.160156 21.816406 92.160156 21.945312 92.160156 22.078125 C 92.164062 22.789062 92.136719 23.488281 92.058594 24.195312 C 92.050781 24.261719 92.046875 24.324219 92.039062 24.390625 C 91.867188 25.828125 91.316406 27.125 90.46875 28.289062 C 90.429688 28.34375 90.390625 28.402344 90.347656 28.460938 C 89.234375 29.898438 87.390625 30.628906 85.65625 30.894531 C 83.386719 31.15625 81.039062 30.773438 79.199219 29.355469 C 77.601562 28 76.726562 26.035156 76.503906 23.96875 C 76.394531 21.738281 76.648438 19.488281 78.167969 17.734375 C 79.332031 16.449219 80.898438 15.519531 82.65625 15.402344 C 82.957031 15.390625 83.253906 15.386719 83.554688 15.382812 C 83.648438 15.382812 83.742188 15.382812 83.839844 15.378906 C 85.375 15.398438 86.644531 15.941406 87.746094 16.996094 C 87.921875 17.183594 87.921875 17.183594 88.011719 17.359375 C 88.054688 13.390625 88.054688 13.390625 88.097656 9.339844 Z M 82.039062 19.652344 C 81.984375 19.695312 81.929688 19.734375 81.875 19.78125 C 81.160156 20.410156 80.691406 21.476562 80.613281 22.421875 C 80.605469 22.652344 80.605469 22.882812 80.605469 23.117188 C 80.605469 23.199219 80.605469 23.28125 80.605469 23.363281 C 80.617188 23.953125 80.671875 24.476562 80.894531 25.027344 C 80.9375 25.136719 80.9375 25.136719 80.984375 25.25 C 81.382812 26.152344 82.003906 26.816406 82.90625 27.21875 C 83.839844 27.558594 84.773438 27.570312 85.714844 27.226562 C 86.671875 26.773438 87.285156 26.085938 87.683594 25.101562 C 88.144531 23.761719 88.183594 22.335938 87.617188 21.023438 C 87.09375 19.980469 86.464844 19.378906 85.375 18.96875 C 84.199219 18.613281 82.980469 18.894531 82.039062 19.652344 Z M 82.039062 19.652344 "/>
<path style=" stroke:none;fill-rule:nonzero;fill:rgb(92.156863%,38.431373%,18.039216%);fill-opacity:1;" d="M 59.992188 15.773438 C 61.296875 15.773438 62.601562 15.773438 63.945312 15.773438 C 64.042969 15.976562 64.042969 16.085938 64.042969 16.3125 C 64.042969 16.386719 64.042969 16.460938 64.042969 16.539062 C 64.042969 16.621094 64.042969 16.707031 64.042969 16.789062 C 64.042969 16.878906 64.042969 16.964844 64.046875 17.054688 C 64.046875 17.246094 64.046875 17.433594 64.046875 17.625 C 64.046875 17.925781 64.046875 18.226562 64.050781 18.527344 C 64.054688 19.386719 64.058594 20.242188 64.058594 21.097656 C 64.0625 21.621094 64.0625 22.144531 64.066406 22.667969 C 64.070312 22.867188 64.070312 23.066406 64.070312 23.265625 C 64.070312 23.546875 64.070312 23.828125 64.074219 24.105469 C 64.074219 24.1875 64.070312 24.269531 64.070312 24.355469 C 64.082031 25.195312 64.417969 25.917969 64.996094 26.523438 C 65.765625 27.164062 66.523438 27.464844 67.523438 27.386719 C 68.101562 27.300781 68.550781 27.113281 69.039062 26.789062 C 69.15625 26.714844 69.15625 26.714844 69.273438 26.636719 C 69.917969 26.007812 70.265625 25.21875 70.300781 24.320312 C 70.304688 24.160156 70.304688 24.003906 70.304688 23.847656 C 70.304688 23.761719 70.304688 23.671875 70.308594 23.582031 C 70.308594 23.300781 70.308594 23.015625 70.308594 22.734375 C 70.3125 22.535156 70.3125 22.335938 70.3125 22.136719 C 70.316406 21.621094 70.320312 21.101562 70.320312 20.582031 C 70.324219 19.746094 70.328125 18.914062 70.335938 18.082031 C 70.335938 17.789062 70.339844 17.496094 70.339844 17.207031 C 70.339844 17.03125 70.339844 16.851562 70.34375 16.675781 C 70.34375 16.59375 70.34375 16.511719 70.34375 16.429688 C 70.347656 15.871094 70.347656 15.871094 70.445312 15.773438 C 70.5625 15.765625 70.6875 15.761719 70.808594 15.761719 C 70.882812 15.761719 70.960938 15.761719 71.039062 15.761719 C 71.125 15.761719 71.207031 15.761719 71.292969 15.761719 C 71.378906 15.761719 71.464844 15.761719 71.554688 15.761719 C 71.734375 15.761719 71.914062 15.761719 72.097656 15.761719 C 72.375 15.761719 72.652344 15.761719 72.929688 15.761719 C 73.105469 15.761719 73.28125 15.761719 73.457031 15.761719 C 73.542969 15.761719 73.625 15.761719 73.710938 15.761719 C 73.789062 15.761719 73.867188 15.761719 73.945312 15.761719 C 74.011719 15.761719 74.082031 15.761719 74.152344 15.761719 C 74.308594 15.773438 74.308594 15.773438 74.394531 15.863281 C 74.40625 15.980469 74.40625 16.097656 74.410156 16.214844 C 74.410156 16.292969 74.410156 16.367188 74.410156 16.445312 C 74.410156 16.574219 74.410156 16.574219 74.410156 16.703125 C 74.410156 16.789062 74.410156 16.878906 74.410156 16.96875 C 74.414062 17.261719 74.414062 17.558594 74.414062 17.851562 C 74.414062 18.054688 74.414062 18.261719 74.414062 18.464844 C 74.417969 18.894531 74.417969 19.324219 74.417969 19.753906 C 74.417969 20.300781 74.417969 20.851562 74.421875 21.398438 C 74.425781 21.820312 74.425781 22.246094 74.425781 22.667969 C 74.425781 22.871094 74.425781 23.070312 74.425781 23.273438 C 74.4375 25.496094 74.082031 27.4375 72.472656 29.089844 C 71.609375 29.929688 70.484375 30.46875 69.300781 30.667969 C 69.273438 32.558594 69.242188 34.445312 69.214844 36.394531 C 69.015625 36.496094 68.902344 36.496094 68.683594 36.496094 C 68.609375 36.496094 68.535156 36.496094 68.460938 36.496094 C 68.382812 36.496094 68.300781 36.496094 68.21875 36.496094 C 68.140625 36.496094 68.058594 36.5 67.972656 36.5 C 67.800781 36.5 67.628906 36.5 67.457031 36.5 C 67.195312 36.5 66.929688 36.5 66.667969 36.503906 C 66.5 36.503906 66.332031 36.503906 66.167969 36.503906 C 66.085938 36.503906 66.007812 36.503906 65.925781 36.503906 C 65.855469 36.503906 65.78125 36.503906 65.703125 36.503906 C 65.640625 36.503906 65.574219 36.503906 65.507812 36.503906 C 65.347656 36.484375 65.347656 36.484375 65.171875 36.304688 C 65.148438 36.074219 65.148438 36.074219 65.144531 35.777344 C 65.144531 35.664062 65.140625 35.554688 65.140625 35.441406 C 65.140625 35.316406 65.136719 35.195312 65.136719 35.074219 C 65.136719 34.949219 65.132812 34.828125 65.132812 34.703125 C 65.128906 34.375 65.125 34.046875 65.121094 33.722656 C 65.117188 33.386719 65.113281 33.054688 65.109375 32.71875 C 65.101562 32.066406 65.09375 31.410156 65.085938 30.753906 C 64.980469 30.722656 64.871094 30.6875 64.761719 30.652344 C 64.621094 30.605469 64.476562 30.558594 64.335938 30.511719 C 64.265625 30.492188 64.195312 30.46875 64.125 30.445312 C 62.609375 29.949219 61.410156 28.859375 60.667969 27.460938 C 60.195312 26.453125 59.976562 25.542969 59.980469 24.4375 C 59.980469 24.34375 59.980469 24.25 59.980469 24.152344 C 59.980469 23.84375 59.980469 23.535156 59.984375 23.226562 C 59.984375 23.011719 59.984375 22.796875 59.984375 22.582031 C 59.984375 22.019531 59.984375 21.453125 59.984375 20.890625 C 59.984375 20.3125 59.988281 19.738281 59.988281 19.164062 C 59.988281 18.03125 59.988281 16.902344 59.992188 15.773438 Z M 59.992188 15.773438 "/>
<path style=" stroke:none;fill-rule:nonzero;fill:rgb(95.294118%,56.862748%,12.54902%);fill-opacity:1;" d="M 161.617188 16.039062 C 162.921875 16.039062 164.226562 16.039062 165.570312 16.039062 C 165.648438 16.28125 165.667969 16.421875 165.667969 16.671875 C 165.667969 16.746094 165.667969 16.820312 165.667969 16.898438 C 165.667969 16.980469 165.667969 17.0625 165.667969 17.144531 C 165.667969 17.230469 165.667969 17.316406 165.671875 17.40625 C 165.671875 17.59375 165.671875 17.78125 165.671875 17.972656 C 165.671875 18.269531 165.671875 18.566406 165.675781 18.863281 C 165.679688 19.710938 165.683594 20.558594 165.683594 21.40625 C 165.6875 21.921875 165.6875 22.441406 165.691406 22.960938 C 165.695312 23.15625 165.695312 23.355469 165.695312 23.550781 C 165.695312 23.828125 165.695312 24.105469 165.699219 24.378906 C 165.699219 24.460938 165.695312 24.542969 165.695312 24.625 C 165.707031 25.488281 166.066406 26.148438 166.621094 26.789062 C 167.269531 27.40625 168.027344 27.621094 168.90625 27.671875 C 169.578125 27.636719 170.105469 27.421875 170.664062 27.054688 C 170.78125 26.976562 170.78125 26.976562 170.898438 26.898438 C 171.542969 26.273438 171.890625 25.484375 171.925781 24.582031 C 171.929688 24.425781 171.929688 24.269531 171.929688 24.109375 C 171.929688 24.023438 171.929688 23.9375 171.933594 23.847656 C 171.933594 23.5625 171.933594 23.28125 171.933594 22.996094 C 171.9375 22.796875 171.9375 22.601562 171.9375 22.402344 C 171.941406 21.882812 171.945312 21.363281 171.945312 20.84375 C 171.949219 20.011719 171.953125 19.179688 171.960938 18.34375 C 171.960938 18.054688 171.964844 17.761719 171.964844 17.472656 C 171.964844 17.292969 171.964844 17.117188 171.96875 16.941406 C 171.96875 16.859375 171.96875 16.777344 171.96875 16.691406 C 171.972656 16.136719 171.972656 16.136719 172.070312 16.039062 C 172.1875 16.03125 172.3125 16.027344 172.433594 16.027344 C 172.507812 16.027344 172.585938 16.027344 172.664062 16.027344 C 172.75 16.027344 172.832031 16.027344 172.917969 16.027344 C 173.003906 16.027344 173.089844 16.027344 173.179688 16.027344 C 173.359375 16.027344 173.539062 16.027344 173.722656 16.027344 C 174 16.027344 174.277344 16.027344 174.554688 16.027344 C 174.730469 16.027344 174.90625 16.027344 175.082031 16.027344 C 175.167969 16.027344 175.25 16.027344 175.335938 16.027344 C 175.414062 16.027344 175.492188 16.027344 175.570312 16.027344 C 175.636719 16.027344 175.707031 16.027344 175.777344 16.027344 C 175.933594 16.039062 175.933594 16.039062 176.019531 16.125 C 176.03125 16.242188 176.03125 16.363281 176.035156 16.480469 C 176.035156 16.554688 176.035156 16.632812 176.035156 16.710938 C 176.035156 16.835938 176.035156 16.835938 176.035156 16.964844 C 176.035156 17.054688 176.035156 17.144531 176.035156 17.234375 C 176.039062 17.527344 176.039062 17.820312 176.039062 18.117188 C 176.039062 18.320312 176.039062 18.523438 176.039062 18.730469 C 176.042969 19.160156 176.042969 19.589844 176.042969 20.019531 C 176.042969 20.566406 176.042969 21.113281 176.046875 21.664062 C 176.050781 22.085938 176.050781 22.507812 176.050781 22.933594 C 176.050781 23.132812 176.050781 23.335938 176.050781 23.539062 C 176.0625 25.761719 175.707031 27.699219 174.097656 29.355469 C 173.234375 30.195312 172.109375 30.734375 170.925781 30.929688 C 170.898438 32.820312 170.867188 34.710938 170.839844 36.660156 C 170.640625 36.757812 170.527344 36.757812 170.308594 36.761719 C 170.234375 36.761719 170.160156 36.761719 170.085938 36.761719 C 170.007812 36.761719 169.925781 36.761719 169.84375 36.761719 C 169.765625 36.761719 169.683594 36.761719 169.597656 36.761719 C 169.425781 36.761719 169.253906 36.761719 169.082031 36.761719 C 168.820312 36.761719 168.554688 36.765625 168.292969 36.765625 C 168.125 36.765625 167.957031 36.765625 167.792969 36.765625 C 167.710938 36.769531 167.632812 36.769531 167.550781 36.769531 C 167.480469 36.769531 167.40625 36.769531 167.328125 36.769531 C 167.265625 36.769531 167.199219 36.769531 167.132812 36.769531 C 166.972656 36.746094 166.972656 36.746094 166.796875 36.570312 C 166.773438 36.335938 166.773438 36.335938 166.769531 36.03125 C 166.769531 35.921875 166.765625 35.808594 166.765625 35.691406 C 166.765625 35.566406 166.761719 35.445312 166.761719 35.320312 C 166.761719 35.195312 166.757812 35.066406 166.757812 34.941406 C 166.753906 34.609375 166.75 34.277344 166.746094 33.945312 C 166.742188 33.605469 166.738281 33.265625 166.734375 32.925781 C 166.726562 32.261719 166.71875 31.597656 166.710938 30.929688 C 166.617188 30.917969 166.519531 30.90625 166.421875 30.894531 C 164.980469 30.671875 163.765625 29.734375 162.847656 28.640625 C 162 27.464844 161.601562 26.140625 161.605469 24.703125 C 161.605469 24.609375 161.605469 24.515625 161.605469 24.417969 C 161.605469 24.109375 161.605469 23.800781 161.609375 23.492188 C 161.609375 23.277344 161.609375 23.0625 161.609375 22.847656 C 161.609375 22.28125 161.609375 21.71875 161.609375 21.15625 C 161.609375 20.578125 161.613281 20.003906 161.613281 19.425781 C 161.613281 18.296875 161.613281 17.167969 161.617188 16.039062 Z M 161.617188 16.039062 "/>
<path style=" stroke:none;fill-rule:nonzero;fill:rgb(95.294118%,56.862748%,12.54902%);fill-opacity:1;" d="M 138.777344 15.949219 C 138.875 15.980469 138.96875 16.007812 139.066406 16.039062 C 140.785156 16.632812 142.203125 17.867188 143.027344 19.488281 C 143.605469 20.699219 143.890625 21.964844 143.882812 23.308594 C 143.882812 23.390625 143.882812 23.472656 143.882812 23.558594 C 143.882812 23.824219 143.882812 24.09375 143.882812 24.363281 C 143.882812 24.550781 143.882812 24.738281 143.882812 24.921875 C 143.882812 25.414062 143.878906 25.902344 143.878906 26.394531 C 143.878906 26.984375 143.878906 27.574219 143.878906 28.160156 C 143.875 29.054688 143.875 29.949219 143.875 30.84375 C 142.539062 30.84375 141.207031 30.84375 139.832031 30.84375 C 139.804688 30.117188 139.773438 29.390625 139.746094 28.640625 C 139.597656 28.859375 139.597656 28.859375 139.441406 29.082031 C 138.613281 30.214844 137.515625 30.90625 136.128906 31.15625 C 134.175781 31.378906 132.429688 31.027344 130.875 29.785156 C 129.308594 28.453125 128.5 26.492188 128.261719 24.476562 C 128.25 24.335938 128.242188 24.195312 128.238281 24.058594 C 128.234375 23.972656 128.230469 23.886719 128.226562 23.800781 C 128.179688 21.429688 128.902344 19.390625 130.535156 17.664062 C 132.589844 15.644531 136.074219 15.105469 138.777344 15.949219 Z M 133.3125 20.382812 C 132.453125 21.457031 132.234375 22.808594 132.367188 24.144531 C 132.488281 24.964844 132.765625 25.675781 133.246094 26.347656 C 133.308594 26.441406 133.371094 26.535156 133.4375 26.628906 C 134.222656 27.417969 135.136719 27.742188 136.230469 27.757812 C 137.203125 27.703125 138.066406 27.339844 138.730469 26.609375 C 139.699219 25.382812 139.886719 23.992188 139.746094 22.472656 C 139.550781 21.382812 139.015625 20.441406 138.164062 19.738281 C 136.570312 18.636719 134.597656 19 133.3125 20.382812 Z M 133.3125 20.382812 "/>
<path style=" stroke:none;fill-rule:nonzero;fill:rgb(95.294118%,56.862748%,12.54902%);fill-opacity:1;" d="M 124.402344 16.832031 C 126.027344 18.058594 126.6875 19.851562 127.066406 21.785156 C 127.113281 22.300781 127.109375 22.8125 127.109375 23.332031 C 127.109375 23.4375 127.109375 23.546875 127.109375 23.660156 C 127.109375 23.816406 127.109375 23.816406 127.109375 23.972656 C 127.109375 24.066406 127.109375 24.164062 127.109375 24.257812 C 127.097656 24.5 127.097656 24.5 127.007812 24.761719 C 123.734375 24.761719 120.457031 24.761719 117.082031 24.761719 C 117.660156 25.917969 118.023438 26.535156 119.214844 26.984375 C 120.089844 27.269531 120.910156 27.332031 121.820312 27.347656 C 121.917969 27.347656 122.019531 27.347656 122.121094 27.351562 C 122.433594 27.355469 122.746094 27.363281 123.058594 27.367188 C 123.269531 27.371094 123.480469 27.375 123.695312 27.378906 C 124.214844 27.386719 124.734375 27.398438 125.253906 27.40625 C 125.253906 28.539062 125.253906 29.675781 125.253906 30.84375 C 124.59375 30.847656 123.933594 30.855469 123.273438 30.855469 C 122.96875 30.859375 122.660156 30.859375 122.351562 30.863281 C 119.667969 30.890625 117.007812 30.691406 114.972656 28.730469 C 114.855469 28.613281 114.738281 28.492188 114.625 28.375 C 114.566406 28.316406 114.507812 28.261719 114.449219 28.199219 C 113.019531 26.691406 112.734375 24.726562 112.757812 22.730469 C 112.800781 21.035156 113.375 19.464844 114.449219 18.152344 C 114.519531 18.058594 114.519531 18.058594 114.59375 17.964844 C 116.847656 15.164062 121.546875 14.917969 124.402344 16.832031 Z M 118.578125 19.386719 C 118.519531 19.414062 118.464844 19.445312 118.410156 19.472656 C 117.617188 19.953125 117.289062 20.867188 117.050781 21.71875 C 116.992188 21.917969 116.992188 21.917969 116.996094 22.03125 C 118.996094 22.03125 120.996094 22.03125 123.058594 22.03125 C 122.949219 21.054688 122.753906 20.292969 122.011719 19.617188 C 121.027344 18.859375 119.660156 18.785156 118.578125 19.386719 Z M 118.578125 19.386719 "/>
<path style=" stroke:none;fill-rule:nonzero;fill:rgb(92.156863%,38.431373%,18.039216%);fill-opacity:1;" d="M 105.488281 16.390625 C 105.871094 16.683594 106.207031 17.015625 106.542969 17.359375 C 106.601562 17.417969 106.660156 17.472656 106.722656 17.53125 C 107.890625 18.726562 108.398438 20.75 108.398438 22.378906 C 108.398438 22.492188 108.398438 22.605469 108.398438 22.71875 C 108.398438 22.835938 108.398438 22.953125 108.398438 23.070312 C 108.398438 23.191406 108.398438 23.308594 108.398438 23.429688 C 108.398438 23.597656 108.398438 23.597656 108.398438 23.765625 C 108.398438 23.871094 108.398438 23.972656 108.398438 24.078125 C 108.386719 24.320312 108.386719 24.320312 108.300781 24.5 C 105.054688 24.527344 101.808594 24.554688 98.460938 24.585938 C 99.09375 25.851562 99.550781 26.398438 100.855469 26.859375 C 101.613281 27.066406 102.410156 27.070312 103.191406 27.082031 C 103.285156 27.082031 103.382812 27.085938 103.480469 27.085938 C 103.785156 27.09375 104.09375 27.097656 104.398438 27.101562 C 104.605469 27.105469 104.8125 27.109375 105.019531 27.113281 C 105.527344 27.125 106.035156 27.132812 106.542969 27.140625 C 106.542969 28.277344 106.542969 29.410156 106.542969 30.578125 C 105.882812 30.585938 105.226562 30.589844 104.566406 30.59375 C 104.257812 30.59375 103.953125 30.59375 103.644531 30.597656 C 100.894531 30.625 98.277344 30.382812 96.191406 28.402344 C 95.15625 27.371094 94.453125 26.109375 94.160156 24.675781 C 94.136719 24.5625 94.136719 24.5625 94.109375 24.445312 C 93.832031 22.320312 94.160156 19.984375 95.476562 18.242188 C 95.726562 17.933594 95.988281 17.644531 96.265625 17.359375 C 96.332031 17.292969 96.398438 17.222656 96.464844 17.152344 C 98.703125 14.980469 102.898438 14.699219 105.488281 16.390625 Z M 99.164062 19.738281 C 98.671875 20.355469 98.375 20.972656 98.375 21.765625 C 100.347656 21.765625 102.316406 21.765625 104.347656 21.765625 C 104.25 20.804688 104.046875 20.089844 103.382812 19.386719 C 102.097656 18.351562 100.257812 18.546875 99.164062 19.738281 Z M 99.164062 19.738281 "/>
<path style=" stroke:none;fill-rule:nonzero;fill:rgb(95.294118%,56.862748%,12.54902%);fill-opacity:1;" d="M 150.789062 16.027344 C 150.867188 16.027344 150.941406 16.027344 151.019531 16.027344 C 151.273438 16.027344 151.523438 16.027344 151.773438 16.03125 C 151.949219 16.03125 152.125 16.03125 152.296875 16.03125 C 152.757812 16.03125 153.21875 16.03125 153.675781 16.03125 C 154.226562 16.035156 154.777344 16.035156 155.328125 16.035156 C 156.164062 16.035156 157.003906 16.035156 157.839844 16.039062 C 157.839844 17.171875 157.839844 18.304688 157.839844 19.476562 C 157.351562 19.476562 156.863281 19.480469 156.359375 19.480469 C 156.050781 19.484375 155.738281 19.488281 155.429688 19.488281 C 154.9375 19.492188 154.445312 19.496094 153.953125 19.5 C 153.558594 19.5 153.164062 19.503906 152.765625 19.507812 C 152.613281 19.507812 152.464844 19.507812 152.3125 19.507812 C 152.101562 19.511719 151.890625 19.511719 151.675781 19.515625 C 151.613281 19.515625 151.550781 19.515625 151.488281 19.515625 C 151.050781 19.523438 150.796875 19.640625 150.460938 19.914062 C 150.308594 20.222656 150.320312 20.550781 150.375 20.886719 C 150.566406 21.128906 150.714844 21.277344 150.988281 21.414062 C 151.109375 21.421875 151.234375 21.425781 151.359375 21.425781 C 151.433594 21.429688 151.511719 21.429688 151.589844 21.429688 C 151.714844 21.429688 151.714844 21.429688 151.84375 21.433594 C 152.019531 21.433594 152.199219 21.4375 152.375 21.441406 C 152.65625 21.445312 152.933594 21.445312 153.210938 21.449219 C 154.984375 21.464844 156.832031 21.519531 158.191406 22.824219 C 159.230469 23.964844 159.324219 25.355469 159.261719 26.828125 C 159.179688 27.917969 158.523438 28.957031 157.75 29.699219 C 156.765625 30.539062 155.648438 30.859375 154.378906 30.851562 C 154.296875 30.851562 154.214844 30.851562 154.132812 30.851562 C 153.863281 30.851562 153.59375 30.851562 153.328125 30.851562 C 153.140625 30.851562 152.953125 30.851562 152.769531 30.851562 C 152.277344 30.851562 151.789062 30.851562 151.300781 30.847656 C 150.800781 30.847656 150.300781 30.847656 149.800781 30.847656 C 148.820312 30.847656 147.839844 30.84375 146.859375 30.84375 C 146.859375 29.707031 146.859375 28.574219 146.859375 27.40625 C 147.382812 27.402344 147.90625 27.398438 148.445312 27.394531 C 148.777344 27.394531 149.113281 27.390625 149.445312 27.386719 C 149.972656 27.382812 150.5 27.378906 151.027344 27.375 C 151.453125 27.375 151.878906 27.371094 152.300781 27.367188 C 152.464844 27.363281 152.625 27.363281 152.789062 27.363281 C 153.015625 27.363281 153.242188 27.359375 153.472656 27.355469 C 153.570312 27.355469 153.570312 27.355469 153.671875 27.355469 C 154.144531 27.347656 154.601562 27.269531 155.027344 27.054688 C 155.21875 26.710938 155.253906 26.382812 155.203125 25.996094 C 155.011719 25.605469 154.828125 25.417969 154.421875 25.253906 C 154.066406 25.15625 153.710938 25.167969 153.34375 25.171875 C 153.167969 25.167969 152.992188 25.167969 152.816406 25.164062 C 152.542969 25.164062 152.269531 25.164062 151.996094 25.164062 C 150.304688 25.164062 148.574219 25.070312 147.300781 23.792969 C 146.375 22.6875 146.164062 21.414062 146.246094 20.003906 C 146.425781 18.746094 147.074219 17.722656 148.042969 16.917969 C 148.898438 16.28125 149.730469 16.023438 150.789062 16.027344 Z M 150.789062 16.027344 "/>
<path style=" stroke:none;fill-rule:nonzero;fill:rgb(92.156863%,38.431373%,18.039216%);fill-opacity:1;" d="M 54.648438 15.738281 C 54.820312 15.742188 54.820312 15.742188 54.992188 15.742188 C 55.289062 15.742188 55.585938 15.746094 55.882812 15.75 C 56.1875 15.753906 56.496094 15.753906 56.800781 15.757812 C 57.394531 15.761719 57.992188 15.765625 58.585938 15.773438 C 58.585938 16.90625 58.585938 18.042969 58.585938 19.210938 C 58.324219 19.214844 58.0625 19.21875 57.792969 19.222656 C 57.539062 19.230469 57.28125 19.234375 57.027344 19.238281 C 56.851562 19.242188 56.675781 19.246094 56.5 19.246094 C 56.246094 19.25 55.992188 19.257812 55.738281 19.261719 C 55.660156 19.261719 55.582031 19.265625 55.5 19.265625 C 55.425781 19.265625 55.351562 19.269531 55.273438 19.269531 C 55.210938 19.273438 55.144531 19.273438 55.078125 19.273438 C 54.863281 19.304688 54.726562 19.355469 54.546875 19.476562 C 54.375 19.746094 54.347656 19.960938 54.34375 20.277344 C 54.34375 20.367188 54.34375 20.460938 54.34375 20.554688 C 54.34375 20.652344 54.34375 20.753906 54.339844 20.855469 C 54.339844 21.011719 54.339844 21.011719 54.339844 21.171875 C 54.335938 21.460938 54.335938 21.746094 54.335938 22.035156 C 54.332031 22.335938 54.332031 22.636719 54.328125 22.933594 C 54.324219 23.503906 54.320312 24.074219 54.316406 24.640625 C 54.316406 25.289062 54.308594 25.9375 54.304688 26.582031 C 54.296875 27.914062 54.289062 29.246094 54.28125 30.578125 C 52.949219 30.578125 51.617188 30.578125 50.242188 30.578125 C 50.234375 29.101562 50.230469 27.628906 50.226562 26.152344 C 50.226562 25.46875 50.226562 24.78125 50.222656 24.097656 C 50.21875 23.5 50.21875 22.902344 50.214844 22.304688 C 50.214844 21.988281 50.214844 21.671875 50.214844 21.355469 C 50.210938 21.003906 50.210938 20.648438 50.210938 20.292969 C 50.210938 20.191406 50.210938 20.085938 50.207031 19.980469 C 50.214844 18.777344 50.5 17.699219 51.320312 16.796875 C 52.253906 15.90625 53.402344 15.71875 54.648438 15.738281 Z M 54.648438 15.738281 "/>
<path style=" stroke:none;fill-rule:nonzero;fill:rgb(18.431373%,18.039216%,18.039216%);fill-opacity:1;" d="M 166.710938 30.929688 C 168.101562 30.929688 169.492188 30.929688 170.925781 30.929688 C 170.898438 32.820312 170.867188 34.710938 170.839844 36.660156 C 170.640625 36.757812 170.527344 36.757812 170.308594 36.761719 C 170.234375 36.761719 170.160156 36.761719 170.085938 36.761719 C 170.007812 36.761719 169.925781 36.761719 169.84375 36.761719 C 169.765625 36.761719 169.683594 36.761719 169.597656 36.761719 C 169.425781 36.761719 169.253906 36.761719 169.082031 36.761719 C 168.820312 36.761719 168.554688 36.765625 168.292969 36.765625 C 168.125 36.765625 167.957031 36.765625 167.792969 36.765625 C 167.710938 36.769531 167.632812 36.769531 167.550781 36.769531 C 167.441406 36.769531 167.441406 36.769531 167.328125 36.769531 C 167.265625 36.769531 167.199219 36.769531 167.132812 36.769531 C 166.972656 36.746094 166.972656 36.746094 166.796875 36.570312 C 166.773438 36.335938 166.773438 36.335938 166.769531 36.03125 C 166.769531 35.921875 166.765625 35.808594 166.765625 35.691406 C 166.765625 35.566406 166.761719 35.445312 166.761719 35.320312 C 166.761719 35.195312 166.757812 35.066406 166.757812 34.941406 C 166.753906 34.609375 166.75 34.277344 166.746094 33.945312 C 166.742188 33.546875 166.734375 33.148438 166.730469 32.75 C 166.722656 32.144531 166.71875 31.535156 166.710938 30.929688 Z M 166.710938 30.929688 "/>
<path style=" stroke:none;fill-rule:nonzero;fill:rgb(0%,0%,0%);fill-opacity:1;" d="M 146.644531 34.011719 C 146.75 34.011719 146.75 34.011719 146.859375 34.015625 C 147.070312 34.601562 147.21875 35.191406 147.355469 35.796875 C 147.429688 36.148438 147.429688 36.148438 147.5625 36.484375 C 147.792969 35.785156 148.027344 35.085938 148.265625 34.367188 C 148.792969 34.28125 148.792969 34.28125 148.96875 34.367188 C 149.042969 34.542969 149.042969 34.542969 149.121094 34.769531 C 149.148438 34.851562 149.175781 34.933594 149.203125 35.015625 C 149.230469 35.101562 149.257812 35.1875 149.285156 35.277344 C 149.328125 35.402344 149.328125 35.402344 149.371094 35.535156 C 149.492188 35.902344 149.582031 36.179688 149.582031 36.570312 C 149.640625 36.570312 149.699219 36.570312 149.757812 36.570312 C 149.769531 36.488281 149.777344 36.410156 149.789062 36.324219 C 149.855469 35.859375 149.964844 35.402344 150.070312 34.945312 C 150.101562 34.8125 150.101562 34.8125 150.132812 34.675781 C 150.183594 34.453125 150.234375 34.234375 150.285156 34.015625 C 150.460938 34.015625 150.632812 34.015625 150.8125 34.015625 C 150.957031 34.460938 150.832031 34.820312 150.707031 35.253906 C 150.679688 35.367188 150.679688 35.367188 150.648438 35.480469 C 150.257812 36.894531 150.257812 36.894531 150.023438 37.363281 C 149.789062 37.363281 149.558594 37.363281 149.320312 37.363281 C 149.085938 36.667969 148.855469 35.96875 148.617188 35.25 C 148.390625 35.910156 148.390625 35.910156 148.160156 36.574219 C 148.132812 36.65625 148.105469 36.738281 148.078125 36.824219 C 148.046875 36.910156 148.019531 36.992188 147.988281 37.078125 C 147.914062 37.277344 147.914062 37.277344 147.824219 37.363281 C 147.621094 37.367188 147.417969 37.367188 147.210938 37.363281 C 146.921875 36.769531 146.734375 36.175781 146.574219 35.535156 C 146.550781 35.445312 146.527344 35.355469 146.503906 35.265625 C 146.308594 34.507812 146.308594 34.507812 146.332031 34.101562 C 146.421875 34.015625 146.421875 34.015625 146.644531 34.011719 Z M 146.644531 34.011719 "/>
<path style=" stroke:none;fill-rule:nonzero;fill:rgb(0%,0%,0%);fill-opacity:1;" d="M 122.96875 32.78125 C 123.171875 32.78125 123.375 32.78125 123.582031 32.78125 C 123.683594 32.984375 123.683594 33.109375 123.6875 33.335938 C 123.691406 33.414062 123.691406 33.492188 123.691406 33.570312 C 123.695312 33.929688 123.699219 34.285156 123.703125 34.640625 C 123.703125 34.828125 123.707031 35.015625 123.710938 35.207031 C 123.714844 35.476562 123.714844 35.746094 123.71875 36.019531 C 123.71875 36.101562 123.722656 36.1875 123.722656 36.273438 C 123.722656 36.679688 123.71875 36.863281 123.464844 37.195312 C 123.097656 37.460938 122.8125 37.46875 122.371094 37.472656 C 122.210938 37.476562 122.210938 37.476562 122.050781 37.480469 C 121.582031 37.4375 121.304688 37.277344 120.96875 36.949219 C 120.582031 36.441406 120.5625 35.890625 120.644531 35.277344 C 120.757812 34.710938 121.027344 34.429688 121.476562 34.101562 C 121.761719 34.007812 121.972656 34.003906 122.273438 34.003906 C 122.363281 34.003906 122.457031 34.003906 122.554688 34.003906 C 122.792969 34.015625 122.792969 34.015625 122.96875 34.101562 C 122.96875 33.667969 122.96875 33.230469 122.96875 32.78125 Z M 121.476562 34.898438 C 121.222656 35.308594 121.253906 35.746094 121.300781 36.21875 C 121.441406 36.554688 121.609375 36.730469 121.914062 36.921875 C 122.136719 36.957031 122.136719 36.957031 122.363281 36.945312 C 122.480469 36.941406 122.480469 36.941406 122.597656 36.941406 C 122.796875 36.933594 122.796875 36.933594 122.96875 36.835938 C 122.976562 36.488281 122.980469 36.136719 122.984375 35.789062 C 122.988281 35.6875 122.988281 35.589844 122.992188 35.488281 C 122.992188 35.394531 122.992188 35.296875 122.996094 35.199219 C 122.996094 35.113281 122.996094 35.023438 123 34.933594 C 122.988281 34.863281 122.980469 34.792969 122.96875 34.71875 C 122.457031 34.378906 121.894531 34.4375 121.476562 34.898438 Z M 121.476562 34.898438 "/>
<path style=" stroke:none;fill-rule:nonzero;fill:rgb(0%,0%,0%);fill-opacity:1;" d="M 151.601562 32.78125 C 151.777344 32.78125 151.949219 32.78125 152.128906 32.78125 C 152.300781 32.953125 152.253906 33.265625 152.265625 33.492188 C 152.273438 33.605469 152.28125 33.71875 152.289062 33.835938 C 152.292969 33.925781 152.300781 34.011719 152.304688 34.101562 C 152.394531 34.074219 152.480469 34.046875 152.570312 34.015625 C 153.058594 33.972656 153.484375 33.953125 153.9375 34.160156 C 154.246094 34.460938 154.398438 34.746094 154.445312 35.183594 C 154.441406 35.332031 154.441406 35.332031 154.4375 35.488281 C 154.4375 35.652344 154.4375 35.652344 154.4375 35.820312 C 154.433594 35.933594 154.433594 36.046875 154.429688 36.164062 C 154.429688 36.335938 154.429688 36.335938 154.425781 36.511719 C 154.421875 36.796875 154.417969 37.082031 154.414062 37.363281 C 154.238281 37.367188 154.0625 37.367188 153.886719 37.363281 C 153.734375 37.210938 153.78125 37.003906 153.777344 36.796875 C 153.773438 36.699219 153.769531 36.601562 153.769531 36.503906 C 153.761719 36.296875 153.757812 36.089844 153.753906 35.882812 C 153.75 35.734375 153.75 35.734375 153.746094 35.585938 C 153.742188 35.496094 153.738281 35.40625 153.738281 35.3125 C 153.710938 35.070312 153.667969 34.921875 153.535156 34.71875 C 153.328125 34.617188 153.199219 34.617188 152.96875 34.617188 C 152.902344 34.613281 152.832031 34.613281 152.761719 34.613281 C 152.542969 34.621094 152.542969 34.621094 152.304688 34.808594 C 152.261719 35.074219 152.261719 35.074219 152.261719 35.382812 C 152.257812 35.5 152.253906 35.613281 152.25 35.730469 C 152.25 35.855469 152.246094 35.976562 152.246094 36.097656 C 152.242188 36.21875 152.238281 36.34375 152.234375 36.464844 C 152.230469 36.765625 152.222656 37.0625 152.21875 37.363281 C 152.015625 37.363281 151.8125 37.363281 151.601562 37.363281 C 151.601562 35.851562 151.601562 34.339844 151.601562 32.78125 Z M 151.601562 32.78125 "/>
<path style=" stroke:none;fill-rule:nonzero;fill:rgb(0%,0%,0%);fill-opacity:1;" d="M 163.734375 34.074219 C 164.132812 34.273438 164.375 34.566406 164.515625 34.984375 C 164.539062 35.226562 164.53125 35.445312 164.515625 35.691406 C 164.136719 35.828125 163.777344 35.910156 163.378906 35.964844 C 163.277344 35.980469 163.175781 35.996094 163.070312 36.011719 C 162.757812 36.042969 162.457031 36.046875 162.144531 36.042969 C 162.300781 36.398438 162.417969 36.632812 162.757812 36.835938 C 163.269531 36.90625 163.773438 36.867188 164.25 36.660156 C 164.308594 36.773438 164.367188 36.890625 164.425781 37.011719 C 164.148438 37.3125 163.980469 37.4375 163.5625 37.472656 C 162.808594 37.488281 162.3125 37.425781 161.757812 36.902344 C 161.40625 36.304688 161.394531 35.738281 161.527344 35.074219 C 161.695312 34.609375 161.929688 34.386719 162.320312 34.101562 C 162.769531 33.953125 163.277344 33.933594 163.734375 34.074219 Z M 162.230469 34.984375 C 162.203125 35.1875 162.171875 35.390625 162.144531 35.601562 C 162.695312 35.542969 163.246094 35.484375 163.8125 35.425781 C 163.941406 35.070312 163.941406 35.070312 163.734375 34.785156 C 163.527344 34.558594 163.371094 34.5 163.066406 34.484375 C 162.65625 34.511719 162.464844 34.636719 162.230469 34.984375 Z M 162.230469 34.984375 "/>
<path style=" stroke:none;fill-rule:nonzero;fill:rgb(0%,0%,0%);fill-opacity:1;" d="M 157.5 34.074219 C 157.898438 34.273438 158.140625 34.566406 158.277344 34.984375 C 158.304688 35.226562 158.296875 35.445312 158.277344 35.691406 C 157.898438 35.828125 157.539062 35.910156 157.140625 35.964844 C 157.039062 35.980469 156.9375 35.996094 156.832031 36.011719 C 156.519531 36.042969 156.21875 36.046875 155.90625 36.042969 C 156.066406 36.398438 156.183594 36.632812 156.523438 36.835938 C 157.035156 36.90625 157.539062 36.867188 158.015625 36.660156 C 158.074219 36.773438 158.132812 36.890625 158.191406 37.011719 C 157.910156 37.3125 157.742188 37.4375 157.324219 37.472656 C 156.574219 37.488281 156.078125 37.425781 155.523438 36.902344 C 155.171875 36.304688 155.160156 35.738281 155.292969 35.074219 C 155.457031 34.609375 155.695312 34.386719 156.082031 34.101562 C 156.53125 33.953125 157.042969 33.933594 157.5 34.074219 Z M 155.996094 34.984375 C 155.964844 35.1875 155.9375 35.390625 155.90625 35.601562 C 156.457031 35.542969 157.007812 35.484375 157.574219 35.425781 C 157.707031 35.070312 157.707031 35.070312 157.5 34.785156 C 157.289062 34.558594 157.136719 34.5 156.828125 34.484375 C 156.417969 34.511719 156.230469 34.636719 155.996094 34.984375 Z M 155.996094 34.984375 "/>
<path style=" stroke:none;fill-rule:nonzero;fill:rgb(0%,0%,0%);fill-opacity:1;" d="M 138.792969 34.074219 C 139.1875 34.273438 139.429688 34.566406 139.570312 34.984375 C 139.59375 35.226562 139.585938 35.445312 139.570312 35.691406 C 139.191406 35.828125 138.832031 35.910156 138.433594 35.964844 C 138.332031 35.980469 138.230469 35.996094 138.125 36.011719 C 137.8125 36.042969 137.511719 36.046875 137.199219 36.042969 C 137.355469 36.398438 137.472656 36.632812 137.8125 36.835938 C 138.324219 36.90625 138.828125 36.867188 139.304688 36.660156 C 139.363281 36.773438 139.421875 36.890625 139.480469 37.011719 C 139.203125 37.3125 139.035156 37.4375 138.617188 37.472656 C 137.863281 37.488281 137.367188 37.425781 136.8125 36.902344 C 136.460938 36.304688 136.449219 35.738281 136.582031 35.074219 C 136.75 34.609375 136.984375 34.386719 137.375 34.101562 C 137.824219 33.953125 138.332031 33.933594 138.792969 34.074219 Z M 137.285156 34.984375 C 137.257812 35.1875 137.226562 35.390625 137.199219 35.601562 C 137.75 35.542969 138.300781 35.484375 138.867188 35.425781 C 139 35.070312 139 35.070312 138.789062 34.785156 C 138.582031 34.558594 138.425781 34.5 138.121094 34.484375 C 137.710938 34.511719 137.519531 34.636719 137.285156 34.984375 Z M 137.285156 34.984375 "/>
<path style=" stroke:none;fill-rule:nonzero;fill:rgb(0%,0%,0%);fill-opacity:1;" d="M 131.765625 34.074219 C 132.164062 34.273438 132.40625 34.566406 132.542969 34.984375 C 132.570312 35.226562 132.558594 35.445312 132.542969 35.691406 C 132.164062 35.828125 131.804688 35.910156 131.40625 35.964844 C 131.304688 35.980469 131.203125 35.996094 131.097656 36.011719 C 130.785156 36.042969 130.484375 36.046875 130.171875 36.042969 C 130.328125 36.398438 130.449219 36.632812 130.785156 36.835938 C 131.300781 36.90625 131.800781 36.867188 132.28125 36.660156 C 132.335938 36.773438 132.394531 36.890625 132.453125 37.011719 C 132.175781 37.3125 132.007812 37.4375 131.589844 37.472656 C 130.835938 37.488281 130.339844 37.425781 129.785156 36.902344 C 129.4375 36.304688 129.421875 35.738281 129.554688 35.074219 C 129.722656 34.609375 129.957031 34.386719 130.347656 34.101562 C 130.796875 33.953125 131.308594 33.933594 131.765625 34.074219 Z M 130.257812 34.984375 C 130.230469 35.1875 130.199219 35.390625 130.171875 35.601562 C 130.722656 35.542969 131.273438 35.484375 131.839844 35.425781 C 131.972656 35.070312 131.972656 35.070312 131.761719 34.785156 C 131.554688 34.558594 131.402344 34.5 131.09375 34.484375 C 130.683594 34.511719 130.496094 34.636719 130.257812 34.984375 Z M 130.257812 34.984375 "/>
<path style=" stroke:none;fill-rule:nonzero;fill:rgb(0%,0%,0%);fill-opacity:1;" d="M 126.757812 34.074219 C 127.15625 34.273438 127.398438 34.566406 127.535156 34.984375 C 127.5625 35.226562 127.554688 35.445312 127.535156 35.691406 C 127.15625 35.828125 126.796875 35.910156 126.398438 35.964844 C 126.296875 35.980469 126.195312 35.996094 126.089844 36.011719 C 125.777344 36.042969 125.476562 36.046875 125.164062 36.042969 C 125.324219 36.398438 125.441406 36.632812 125.78125 36.835938 C 126.292969 36.90625 126.796875 36.867188 127.273438 36.660156 C 127.332031 36.773438 127.386719 36.890625 127.449219 37.011719 C 127.167969 37.3125 127 37.4375 126.582031 37.472656 C 125.832031 37.488281 125.335938 37.425781 124.78125 36.902344 C 124.429688 36.304688 124.417969 35.738281 124.550781 35.074219 C 124.714844 34.609375 124.953125 34.386719 125.339844 34.101562 C 125.789062 33.953125 126.300781 33.933594 126.757812 34.074219 Z M 125.253906 34.984375 C 125.222656 35.1875 125.195312 35.390625 125.164062 35.601562 C 125.714844 35.542969 126.265625 35.484375 126.832031 35.425781 C 126.964844 35.070312 126.964844 35.070312 126.757812 34.785156 C 126.546875 34.558594 126.394531 34.5 126.085938 34.484375 C 125.675781 34.511719 125.488281 34.636719 125.253906 34.984375 Z M 125.253906 34.984375 "/>
<path style=" stroke:none;fill-rule:nonzero;fill:rgb(0%,0%,0%);fill-opacity:1;" d="M 142.820312 34.015625 C 143.023438 33.988281 143.023438 33.988281 143.257812 34.015625 C 143.460938 34.304688 143.59375 34.613281 143.722656 34.941406 C 143.773438 35.078125 143.773438 35.078125 143.828125 35.214844 C 143.878906 35.355469 143.878906 35.355469 143.933594 35.496094 C 143.96875 35.589844 144.007812 35.6875 144.042969 35.785156 C 144.132812 36.015625 144.222656 36.25 144.3125 36.484375 C 144.621094 35.785156 144.851562 35.101562 145.035156 34.363281 C 145.101562 34.101562 145.101562 34.101562 145.191406 34.015625 C 145.367188 34.011719 145.542969 34.011719 145.71875 34.015625 C 145.75 34.597656 145.644531 35.050781 145.453125 35.601562 C 145.425781 35.683594 145.398438 35.761719 145.371094 35.847656 C 144.574219 38.109375 144.574219 38.109375 143.785156 38.6875 C 143.484375 38.730469 143.484375 38.730469 143.257812 38.6875 C 143.195312 38.535156 143.195312 38.535156 143.171875 38.332031 C 143.308594 38.121094 143.308594 38.121094 143.503906 37.898438 C 143.753906 37.609375 143.925781 37.375 144.050781 37.011719 C 143.960938 36.980469 143.875 36.953125 143.785156 36.921875 C 143.675781 36.726562 143.578125 36.539062 143.488281 36.335938 C 143.460938 36.273438 143.4375 36.214844 143.410156 36.15625 C 142.703125 34.558594 142.703125 34.558594 142.765625 34.15625 C 142.78125 34.109375 142.800781 34.0625 142.820312 34.015625 Z M 142.820312 34.015625 "/>
<path style=" stroke:none;fill-rule:nonzero;fill:rgb(0%,0%,0%);fill-opacity:1;" d="M 117.257812 34.015625 C 117.460938 33.988281 117.460938 33.988281 117.699219 34.015625 C 117.902344 34.304688 118.035156 34.613281 118.160156 34.941406 C 118.214844 35.078125 118.214844 35.078125 118.265625 35.214844 C 118.320312 35.355469 118.320312 35.355469 118.375 35.496094 C 118.410156 35.589844 118.445312 35.6875 118.484375 35.785156 C 118.574219 36.015625 118.664062 36.25 118.753906 36.484375 C 119.0625 35.785156 119.292969 35.101562 119.472656 34.363281 C 119.542969 34.101562 119.542969 34.101562 119.632812 34.015625 C 119.808594 34.011719 119.984375 34.011719 120.15625 34.015625 C 120.191406 34.597656 120.085938 35.050781 119.894531 35.601562 C 119.867188 35.683594 119.839844 35.761719 119.8125 35.847656 C 119.015625 38.109375 119.015625 38.109375 118.226562 38.6875 C 117.921875 38.730469 117.921875 38.730469 117.699219 38.6875 C 117.632812 38.535156 117.632812 38.535156 117.609375 38.332031 C 117.75 38.121094 117.75 38.121094 117.945312 37.898438 C 118.195312 37.609375 118.367188 37.375 118.488281 37.011719 C 118.402344 36.980469 118.316406 36.953125 118.226562 36.921875 C 118.113281 36.726562 118.019531 36.539062 117.929688 36.335938 C 117.902344 36.273438 117.875 36.214844 117.847656 36.15625 C 117.140625 34.558594 117.140625 34.558594 117.203125 34.15625 C 117.222656 34.109375 117.242188 34.0625 117.257812 34.015625 Z M 117.257812 34.015625 "/>
<path style=" stroke:none;fill-rule:nonzero;fill:rgb(0%,0%,0%);fill-opacity:1;" d="M 133.070312 34.015625 C 133.273438 33.988281 133.273438 33.988281 133.507812 34.015625 C 133.714844 34.304688 133.835938 34.601562 133.949219 34.9375 C 133.980469 35.027344 134.011719 35.117188 134.042969 35.210938 C 134.070312 35.304688 134.101562 35.394531 134.136719 35.492188 C 134.195312 35.675781 134.257812 35.863281 134.320312 36.046875 C 134.347656 36.128906 134.375 36.210938 134.40625 36.292969 C 134.457031 36.476562 134.457031 36.476562 134.5625 36.570312 C 134.851562 35.726562 135.144531 34.882812 135.441406 34.015625 C 135.617188 34.015625 135.789062 34.015625 135.96875 34.015625 C 136.066406 34.308594 136.046875 34.476562 135.949219 34.765625 C 135.921875 34.84375 135.898438 34.921875 135.871094 35 C 135.84375 35.078125 135.816406 35.160156 135.789062 35.242188 C 135.757812 35.324219 135.730469 35.410156 135.703125 35.492188 C 135.480469 36.136719 135.222656 36.753906 134.914062 37.363281 C 134.683594 37.363281 134.449219 37.363281 134.210938 37.363281 C 133.839844 36.695312 133.558594 36.007812 133.292969 35.292969 C 133.261719 35.207031 133.230469 35.121094 133.199219 35.035156 C 133.152344 34.914062 133.152344 34.914062 133.109375 34.789062 C 133.082031 34.714844 133.054688 34.644531 133.027344 34.570312 C 132.976562 34.347656 132.996094 34.226562 133.070312 34.015625 Z M 133.070312 34.015625 "/>
<path style=" stroke:none;fill-rule:nonzero;fill:rgb(0%,0%,0%);fill-opacity:1;" d="M 161.089844 34.101562 C 161.089844 34.25 161.089844 34.394531 161.089844 34.542969 C 160.980469 34.550781 160.980469 34.550781 160.867188 34.558594 C 160.726562 34.570312 160.726562 34.570312 160.578125 34.582031 C 160.484375 34.589844 160.390625 34.597656 160.292969 34.605469 C 160.03125 34.625 160.03125 34.625 159.773438 34.71875 C 159.742188 35.59375 159.714844 36.464844 159.683594 37.363281 C 159.480469 37.363281 159.277344 37.363281 159.070312 37.363281 C 158.871094 36.964844 158.960938 36.410156 158.960938 35.96875 C 158.957031 35.855469 158.957031 35.746094 158.953125 35.628906 C 158.953125 35.519531 158.953125 35.410156 158.953125 35.296875 C 158.953125 35.195312 158.949219 35.097656 158.949219 34.992188 C 158.984375 34.6875 159.058594 34.523438 159.246094 34.28125 C 159.746094 33.96875 160.542969 33.828125 161.089844 34.101562 Z M 161.089844 34.101562 "/>
<path style=" stroke:none;fill-rule:nonzero;fill:rgb(0%,0%,0%);fill-opacity:1;" d="M 142.378906 34.101562 C 142.378906 34.25 142.378906 34.394531 142.378906 34.542969 C 142.269531 34.550781 142.269531 34.550781 142.160156 34.558594 C 142.015625 34.570312 142.015625 34.570312 141.871094 34.582031 C 141.773438 34.589844 141.679688 34.597656 141.582031 34.605469 C 141.320312 34.625 141.320312 34.625 141.0625 34.71875 C 141.035156 35.59375 141.003906 36.464844 140.976562 37.363281 C 140.773438 37.363281 140.570312 37.363281 140.359375 37.363281 C 140.160156 36.964844 140.253906 36.410156 140.25 35.96875 C 140.25 35.855469 140.246094 35.746094 140.246094 35.628906 C 140.246094 35.519531 140.242188 35.410156 140.242188 35.296875 C 140.242188 35.195312 140.242188 35.097656 140.242188 34.992188 C 140.277344 34.6875 140.351562 34.523438 140.535156 34.28125 C 141.039062 33.96875 141.832031 33.828125 142.378906 34.101562 Z M 142.378906 34.101562 "/>
<path style=" stroke:none;fill-rule:nonzero;fill:rgb(0%,0%,0%);fill-opacity:1;" d="M 116.820312 34.101562 C 116.820312 34.25 116.820312 34.394531 116.820312 34.542969 C 116.710938 34.550781 116.710938 34.550781 116.597656 34.558594 C 116.457031 34.570312 116.457031 34.570312 116.308594 34.582031 C 116.214844 34.589844 116.121094 34.597656 116.023438 34.605469 C 115.761719 34.625 115.761719 34.625 115.503906 34.71875 C 115.472656 35.59375 115.445312 36.464844 115.414062 37.363281 C 115.210938 37.363281 115.007812 37.363281 114.800781 37.363281 C 114.601562 36.964844 114.691406 36.410156 114.691406 35.96875 C 114.6875 35.855469 114.6875 35.746094 114.683594 35.628906 C 114.683594 35.519531 114.683594 35.410156 114.683594 35.296875 C 114.683594 35.195312 114.683594 35.097656 114.679688 34.992188 C 114.714844 34.6875 114.792969 34.523438 114.976562 34.28125 C 115.480469 33.96875 116.273438 33.828125 116.820312 34.101562 Z M 116.820312 34.101562 "/>
</g>
</svg>
