<?xml version="1.0" encoding="UTF-8"?>
<svg xmlns="http://www.w3.org/2000/svg" xmlns:xlink="http://www.w3.org/1999/xlink" width="103px" height="74px" viewBox="0 0 103 74" version="1.1">
<g id="surface1">
<path style=" stroke:none;fill-rule:nonzero;fill:rgb(92.156863%,38.431373%,17.647059%);fill-opacity:1;" d="M 5.34375 15.25 C 5.386719 15.25 5.425781 15.25 5.464844 15.25 C 5.53125 15.25 5.53125 15.25 5.597656 15.25 C 5.644531 15.25 5.691406 15.25 5.742188 15.25 C 5.898438 15.25 6.054688 15.25 6.210938 15.25 C 6.324219 15.25 6.4375 15.25 6.546875 15.25 C 6.820312 15.246094 7.09375 15.246094 7.367188 15.246094 C 7.589844 15.246094 7.816406 15.246094 8.039062 15.246094 C 8.671875 15.246094 9.304688 15.246094 9.9375 15.246094 C 9.96875 15.246094 10.003906 15.246094 10.039062 15.246094 C 10.089844 15.246094 10.089844 15.246094 10.144531 15.246094 C 10.695312 15.246094 11.246094 15.246094 11.800781 15.238281 C 12.367188 15.238281 12.933594 15.238281 13.503906 15.238281 C 13.820312 15.238281 14.140625 15.238281 14.457031 15.234375 C 14.757812 15.234375 15.058594 15.234375 15.359375 15.234375 C 15.46875 15.234375 15.578125 15.234375 15.6875 15.234375 C 17.222656 15.222656 18.75 15.546875 19.925781 18.980469 C 20.832031 21.933594 20.964844 25.902344 20.960938 29.796875 C 20.960938 30.09375 20.964844 30.398438 20.964844 30.699219 C 20.964844 31.515625 20.964844 32.328125 20.964844 33.136719 C 20.964844 33.816406 20.964844 34.492188 20.964844 35.175781 C 20.964844 36.777344 20.964844 38.378906 20.964844 39.976562 C 20.964844 41.632812 20.964844 43.28125 20.964844 44.933594 C 20.96875 46.351562 20.96875 47.773438 20.96875 49.195312 C 20.964844 50.039062 20.96875 50.886719 20.96875 51.738281 C 20.96875 52.53125 20.96875 53.328125 20.96875 54.121094 C 20.96875 54.414062 20.96875 54.703125 20.96875 54.996094 C 20.96875 55.394531 20.96875 55.789062 20.96875 56.1875 C 20.96875 56.304688 20.96875 56.417969 20.96875 56.539062 C 20.964844 57.328125 20.910156 57.796875 20.761719 58.449219 C 20.621094 58.671875 20.464844 58.613281 20.308594 58.613281 C 20.269531 58.613281 20.234375 58.613281 20.195312 58.613281 C 20.070312 58.617188 19.945312 58.617188 19.820312 58.617188 C 19.777344 58.625 19.734375 58.625 19.691406 58.625 C 19.464844 58.625 19.242188 58.628906 19.015625 58.628906 C 18.785156 58.628906 18.550781 58.636719 18.316406 58.640625 C 18.140625 58.640625 17.960938 58.648438 17.78125 58.648438 C 17.695312 58.648438 17.609375 58.648438 17.523438 58.652344 C 17.402344 58.652344 17.285156 58.652344 17.164062 58.652344 C 17.109375 58.652344 17.109375 58.652344 17.058594 58.660156 C 16.894531 58.652344 16.792969 58.605469 16.652344 58.34375 C 16.464844 57.707031 16.453125 57.070312 16.453125 56.242188 C 16.453125 56.128906 16.453125 56.023438 16.453125 55.914062 C 16.453125 55.554688 16.453125 55.195312 16.453125 54.832031 C 16.453125 54.574219 16.453125 54.316406 16.453125 54.058594 C 16.453125 53.503906 16.453125 52.945312 16.453125 52.390625 C 16.449219 51.515625 16.449219 50.632812 16.449219 49.753906 C 16.445312 47.570312 16.445312 45.382812 16.445312 43.199219 C 16.445312 41.503906 16.441406 39.804688 16.441406 38.109375 C 16.441406 37.234375 16.4375 36.359375 16.4375 35.484375 C 16.4375 34.945312 16.4375 34.398438 16.4375 33.851562 C 16.4375 33.601562 16.4375 33.355469 16.4375 33.101562 C 16.4375 32.753906 16.4375 32.410156 16.4375 32.066406 C 16.4375 31.96875 16.4375 31.867188 16.4375 31.769531 C 16.4375 31.023438 16.375 30.484375 16.285156 29.800781 C 16.269531 29.695312 16.257812 29.585938 16.242188 29.46875 C 16.175781 29.160156 16.121094 29.097656 16.011719 28.957031 C 15.960938 28.886719 15.910156 28.808594 15.859375 28.738281 C 15.636719 28.457031 15.445312 28.375 15.207031 28.375 C 15.15625 28.375 15.105469 28.367188 15.050781 28.367188 C 14.992188 28.367188 14.9375 28.367188 14.878906 28.367188 C 14.816406 28.367188 14.757812 28.367188 14.695312 28.367188 C 14.53125 28.367188 14.363281 28.363281 14.199219 28.363281 C 14.09375 28.363281 13.992188 28.363281 13.890625 28.363281 C 13.566406 28.363281 13.242188 28.355469 12.917969 28.355469 C 12.542969 28.355469 12.171875 28.355469 11.796875 28.351562 C 11.507812 28.351562 11.21875 28.34375 10.929688 28.34375 C 10.757812 28.34375 10.585938 28.34375 10.414062 28.34375 C 10.253906 28.339844 10.089844 28.339844 9.929688 28.34375 C 9.839844 28.34375 9.753906 28.339844 9.664062 28.339844 C 9.324219 28.34375 9.027344 28.375 8.757812 29.109375 C 8.5625 30.207031 8.578125 31.558594 8.566406 32.785156 C 8.5625 32.949219 8.5625 33.105469 8.5625 33.277344 C 8.558594 33.671875 8.554688 34.0625 8.550781 34.457031 C 8.574219 34.457031 8.597656 34.457031 8.625 34.457031 C 9.226562 34.453125 9.828125 34.441406 10.429688 34.441406 C 10.722656 34.433594 11.011719 34.433594 11.304688 34.429688 C 11.585938 34.421875 11.867188 34.421875 12.148438 34.421875 C 12.253906 34.417969 12.359375 34.417969 12.46875 34.417969 C 12.621094 34.410156 12.769531 34.410156 12.921875 34.410156 C 12.964844 34.410156 13.007812 34.410156 13.054688 34.40625 C 13.300781 34.410156 13.476562 34.453125 13.660156 35.027344 C 13.675781 35.761719 13.675781 36.496094 13.675781 37.234375 C 13.679688 37.480469 13.679688 37.734375 13.679688 37.980469 C 13.683594 38.339844 13.683594 38.695312 13.683594 39.054688 C 13.683594 39.167969 13.6875 39.273438 13.6875 39.390625 C 13.6875 39.882812 13.679688 40.175781 13.574219 40.558594 C 13.371094 40.921875 13.191406 40.886719 12.960938 40.875 C 12.914062 40.875 12.867188 40.875 12.816406 40.875 C 12.660156 40.875 12.5 40.871094 12.34375 40.863281 C 12.234375 40.863281 12.125 40.863281 12.015625 40.863281 C 11.726562 40.859375 11.441406 40.851562 11.152344 40.847656 C 10.863281 40.839844 10.570312 40.839844 10.277344 40.839844 C 9.699219 40.828125 9.125 40.824219 8.550781 40.8125 C 8.554688 41.414062 8.5625 42.027344 8.566406 42.636719 C 8.566406 42.808594 8.570312 42.976562 8.570312 43.152344 C 8.574219 44.828125 8.574219 44.828125 8.789062 46.304688 C 8.988281 46.777344 9.148438 46.910156 9.398438 46.917969 C 9.449219 46.917969 9.503906 46.917969 9.554688 46.917969 C 9.640625 46.917969 9.640625 46.917969 9.722656 46.921875 C 9.816406 46.921875 9.902344 46.921875 9.992188 46.929688 C 10.210938 46.933594 10.429688 46.941406 10.648438 46.941406 C 12.1875 46.964844 13.78125 47.175781 15.0625 50.121094 C 15.09375 50.1875 15.121094 50.253906 15.152344 50.324219 C 15.835938 51.984375 16.132812 54.65625 16.265625 57.234375 C 16.289062 57.972656 16.289062 57.972656 16.285156 58.308594 C 16.175781 58.648438 16.117188 58.617188 15.964844 58.625 C 15.933594 58.625 15.902344 58.625 15.867188 58.625 C 15.816406 58.625 15.816406 58.625 15.765625 58.625 C 15.652344 58.625 15.535156 58.625 15.421875 58.625 C 15.339844 58.625 15.257812 58.625 15.175781 58.625 C 14.953125 58.625 14.730469 58.625 14.507812 58.625 C 14.273438 58.625 14.042969 58.625 13.808594 58.625 C 13.414062 58.625 13.023438 58.625 12.628906 58.625 C 12.179688 58.625 11.726562 58.625 11.269531 58.625 C 10.882812 58.625 10.492188 58.625 10.105469 58.625 C 9.871094 58.625 9.640625 58.625 9.40625 58.625 C 9.1875 58.625 8.96875 58.625 8.75 58.625 C 8.671875 58.625 8.589844 58.625 8.511719 58.625 C 7.566406 58.628906 6.566406 58.4375 5.84375 56.292969 C 5.058594 53.667969 5.054688 50.234375 5.058594 46.859375 C 5.058594 46.511719 5.058594 46.171875 5.058594 45.824219 C 5.058594 45.089844 5.058594 44.351562 5.058594 43.617188 C 5.058594 42.546875 5.058594 41.484375 5.058594 40.417969 C 5.058594 38.691406 5.058594 36.964844 5.058594 35.234375 C 5.058594 33.558594 5.058594 31.878906 5.058594 30.199219 C 5.058594 30.09375 5.058594 29.996094 5.0625 29.890625 C 5.0625 29.367188 5.0625 28.851562 5.0625 28.328125 C 5.0625 24.023438 5.0625 19.71875 5.066406 15.410156 C 5.171875 15.25 5.230469 15.25 5.34375 15.25 Z M 5.34375 15.25 "/>
<path style=" stroke:none;fill-rule:nonzero;fill:rgb(17.647059%,17.647059%,18.039216%);fill-opacity:1;" d="M 5.066406 27.96875 C 5.113281 28.039062 5.113281 28.039062 5.15625 28.109375 C 5.285156 28.128906 5.410156 28.140625 5.539062 28.140625 C 5.578125 28.140625 5.621094 28.140625 5.660156 28.144531 C 5.792969 28.144531 5.921875 28.152344 6.054688 28.15625 C 6.148438 28.15625 6.238281 28.164062 6.328125 28.164062 C 6.570312 28.175781 6.808594 28.179688 7.050781 28.1875 C 7.296875 28.191406 7.539062 28.199219 7.785156 28.210938 C 8.265625 28.222656 8.746094 28.238281 9.226562 28.25 C 9.1875 28.316406 9.1875 28.316406 9.144531 28.378906 C 8.894531 28.773438 8.738281 29.101562 8.640625 29.941406 C 8.582031 30.875 8.578125 31.816406 8.570312 32.761719 C 8.566406 33 8.566406 33 8.5625 33.253906 C 8.558594 33.660156 8.554688 34.058594 8.550781 34.457031 C 8.585938 34.457031 8.585938 34.457031 8.625 34.457031 C 9.226562 34.453125 9.828125 34.441406 10.429688 34.441406 C 10.722656 34.433594 11.011719 34.433594 11.304688 34.429688 C 11.585938 34.421875 11.867188 34.421875 12.148438 34.421875 C 12.253906 34.417969 12.359375 34.417969 12.46875 34.417969 C 12.621094 34.410156 12.769531 34.410156 12.921875 34.410156 C 12.988281 34.410156 12.988281 34.410156 13.054688 34.40625 C 13.300781 34.410156 13.476562 34.453125 13.660156 35.027344 C 13.675781 35.761719 13.675781 36.496094 13.675781 37.234375 C 13.679688 37.480469 13.679688 37.734375 13.679688 37.980469 C 13.683594 38.339844 13.683594 38.695312 13.683594 39.054688 C 13.683594 39.167969 13.6875 39.273438 13.6875 39.390625 C 13.6875 39.882812 13.679688 40.175781 13.574219 40.558594 C 13.371094 40.921875 13.191406 40.886719 12.960938 40.875 C 12.914062 40.875 12.867188 40.875 12.816406 40.875 C 12.660156 40.875 12.5 40.871094 12.34375 40.863281 C 12.234375 40.863281 12.125 40.863281 12.015625 40.863281 C 11.726562 40.859375 11.441406 40.851562 11.152344 40.847656 C 10.863281 40.839844 10.570312 40.839844 10.277344 40.839844 C 9.699219 40.828125 9.125 40.824219 8.550781 40.8125 C 8.554688 41.414062 8.5625 42.027344 8.566406 42.636719 C 8.566406 42.808594 8.570312 42.976562 8.570312 43.152344 C 8.574219 44.828125 8.574219 44.828125 8.789062 46.304688 C 8.988281 46.777344 9.148438 46.910156 9.398438 46.917969 C 9.449219 46.917969 9.503906 46.917969 9.554688 46.917969 C 9.640625 46.917969 9.640625 46.917969 9.722656 46.921875 C 9.816406 46.921875 9.902344 46.921875 9.992188 46.929688 C 10.210938 46.933594 10.429688 46.941406 10.648438 46.941406 C 12.1875 46.964844 13.78125 47.175781 15.0625 50.121094 C 15.09375 50.1875 15.121094 50.253906 15.152344 50.324219 C 15.835938 51.984375 16.132812 54.65625 16.265625 57.234375 C 16.289062 57.972656 16.289062 57.972656 16.285156 58.308594 C 16.175781 58.648438 16.117188 58.617188 15.964844 58.625 C 15.933594 58.625 15.902344 58.625 15.867188 58.625 C 15.816406 58.625 15.816406 58.625 15.765625 58.625 C 15.652344 58.625 15.535156 58.625 15.421875 58.625 C 15.339844 58.625 15.257812 58.625 15.175781 58.625 C 14.953125 58.625 14.730469 58.625 14.507812 58.625 C 14.273438 58.625 14.042969 58.625 13.808594 58.625 C 13.414062 58.625 13.023438 58.625 12.628906 58.625 C 12.179688 58.625 11.726562 58.625 11.269531 58.625 C 10.882812 58.625 10.492188 58.625 10.105469 58.625 C 9.871094 58.625 9.640625 58.625 9.40625 58.625 C 9.1875 58.625 8.96875 58.625 8.75 58.625 C 8.671875 58.625 8.589844 58.625 8.511719 58.625 C 7.566406 58.628906 6.566406 58.4375 5.84375 56.292969 C 5.160156 54.011719 5.050781 51.007812 5.058594 48.007812 C 5.058594 47.785156 5.058594 47.570312 5.058594 47.351562 C 5.058594 46.757812 5.058594 46.164062 5.058594 45.578125 C 5.058594 44.957031 5.058594 44.332031 5.058594 43.71875 C 5.058594 42.542969 5.058594 41.375 5.058594 40.199219 C 5.058594 38.867188 5.058594 37.535156 5.0625 36.195312 C 5.0625 33.453125 5.0625 30.710938 5.066406 27.96875 Z M 5.066406 27.96875 "/>
<path style=" stroke:none;fill-rule:nonzero;fill:rgb(94.901961%,56.470591%,12.54902%);fill-opacity:1;" d="M 5.34375 15.25 C 5.382812 15.25 5.421875 15.25 5.464844 15.25 C 5.507812 15.25 5.550781 15.25 5.597656 15.25 C 5.667969 15.25 5.667969 15.25 5.738281 15.25 C 5.894531 15.25 6.046875 15.25 6.207031 15.257812 C 6.316406 15.257812 6.429688 15.257812 6.539062 15.257812 C 6.78125 15.257812 7.019531 15.257812 7.261719 15.257812 C 7.609375 15.257812 7.957031 15.257812 8.304688 15.257812 C 8.867188 15.257812 9.429688 15.257812 9.996094 15.257812 C 10.542969 15.261719 11.09375 15.261719 11.640625 15.261719 C 11.671875 15.261719 11.707031 15.261719 11.742188 15.261719 C 12.007812 15.261719 12.277344 15.261719 12.542969 15.261719 C 13.851562 15.261719 15.15625 15.269531 16.464844 15.269531 C 16.464844 20.441406 16.464844 25.609375 16.464844 30.933594 C 16.4375 30.746094 16.40625 30.558594 16.375 30.371094 C 16.34375 30.222656 16.3125 30.078125 16.277344 29.925781 C 16.195312 29.519531 16.195312 29.519531 16.195312 29.238281 C 15.800781 28.605469 15.488281 28.375 15.054688 28.375 C 15.007812 28.375 14.96875 28.367188 14.925781 28.367188 C 14.78125 28.367188 14.640625 28.367188 14.5 28.367188 C 14.398438 28.367188 14.296875 28.367188 14.195312 28.363281 C 13.976562 28.363281 13.757812 28.363281 13.539062 28.363281 C 13.195312 28.355469 12.847656 28.355469 12.503906 28.351562 C 12.019531 28.34375 11.535156 28.339844 11.050781 28.339844 C 11.023438 28.339844 10.988281 28.339844 10.960938 28.339844 C 10.523438 28.332031 10.085938 28.328125 9.652344 28.328125 C 9.621094 28.328125 9.589844 28.328125 9.558594 28.328125 C 9.527344 28.328125 9.496094 28.328125 9.464844 28.328125 C 8.953125 28.320312 8.441406 28.316406 7.933594 28.308594 C 7.585938 28.304688 7.242188 28.304688 6.898438 28.304688 C 6.6875 28.304688 6.472656 28.296875 6.261719 28.296875 C 6.160156 28.292969 6.0625 28.292969 5.964844 28.292969 C 5.828125 28.292969 5.691406 28.292969 5.558594 28.292969 C 5.519531 28.292969 5.476562 28.292969 5.4375 28.292969 C 5.167969 28.285156 5.167969 28.285156 5.066406 27.96875 C 5.058594 27.570312 5.054688 27.183594 5.058594 26.785156 C 5.058594 26.660156 5.058594 26.542969 5.058594 26.414062 C 5.058594 26.007812 5.058594 25.601562 5.058594 25.191406 C 5.058594 24.917969 5.058594 24.632812 5.058594 24.351562 C 5.058594 23.613281 5.058594 22.867188 5.058594 22.128906 C 5.058594 21.375 5.0625 20.617188 5.0625 19.859375 C 5.0625 18.382812 5.0625 16.894531 5.066406 15.410156 C 5.171875 15.25 5.230469 15.25 5.34375 15.25 Z M 5.34375 15.25 "/>
<path style=" stroke:none;fill-rule:nonzero;fill:rgb(92.156863%,38.431373%,18.039216%);fill-opacity:1;" d="M 45.371094 15.128906 C 46.058594 15.128906 46.742188 15.128906 47.453125 15.128906 C 47.453125 18.011719 47.457031 20.894531 47.457031 23.769531 C 47.457031 25.109375 47.457031 26.449219 47.457031 27.789062 C 47.460938 28.957031 47.460938 30.125 47.460938 31.285156 C 47.460938 31.910156 47.460938 32.527344 47.460938 33.140625 C 47.460938 33.722656 47.460938 34.304688 47.460938 34.890625 C 47.460938 35.101562 47.460938 35.316406 47.460938 35.527344 C 47.464844 36.664062 47.449219 37.78125 47.410156 38.914062 C 47.40625 39.019531 47.402344 39.125 47.398438 39.230469 C 47.3125 41.527344 47.027344 43.605469 46.59375 45.464844 C 46.570312 45.554688 46.550781 45.648438 46.527344 45.742188 C 45.957031 48.042969 45.003906 49.210938 44.113281 49.640625 C 42.945312 50.058594 41.734375 49.449219 40.789062 47.175781 C 39.964844 45.003906 39.515625 41.863281 39.398438 38.550781 C 39.34375 34.980469 39.472656 31.375 40.257812 28.570312 C 40.855469 26.507812 41.664062 25.023438 42.570312 24.835938 C 42.722656 24.816406 42.875 24.804688 43.03125 24.804688 C 43.078125 24.804688 43.125 24.800781 43.175781 24.800781 C 43.96875 24.828125 44.621094 25.703125 45.1875 27.386719 C 45.28125 27.6875 45.28125 27.6875 45.324219 27.96875 C 45.347656 21.617188 45.347656 21.617188 45.371094 15.128906 Z M 42.25 31.640625 C 42.222656 31.703125 42.191406 31.773438 42.164062 31.84375 C 41.796875 32.855469 41.554688 34.5625 41.515625 36.074219 C 41.511719 36.441406 41.511719 36.8125 41.511719 37.1875 C 41.511719 37.316406 41.511719 37.445312 41.511719 37.582031 C 41.515625 38.527344 41.546875 39.367188 41.660156 40.246094 C 41.683594 40.421875 41.683594 40.421875 41.707031 40.597656 C 41.914062 42.050781 42.234375 43.113281 42.699219 43.753906 C 43.179688 44.296875 43.660156 44.316406 44.144531 43.765625 C 44.636719 43.042969 44.949219 41.945312 45.15625 40.363281 C 45.394531 38.222656 45.414062 35.9375 45.121094 33.835938 C 44.851562 32.167969 44.53125 31.199219 43.96875 30.546875 C 43.363281 29.976562 42.734375 30.429688 42.25 31.640625 Z M 42.25 31.640625 "/>
<path style=" stroke:none;fill-rule:nonzero;fill:rgb(92.156863%,38.431373%,18.039216%);fill-opacity:1;" d="M 30.894531 25.425781 C 31.566406 25.425781 32.238281 25.425781 32.933594 25.425781 C 32.984375 25.75 32.984375 25.933594 32.984375 26.289062 C 32.984375 26.40625 32.984375 26.53125 32.984375 26.65625 C 32.984375 26.789062 32.984375 26.917969 32.984375 27.058594 C 32.984375 27.199219 32.984375 27.335938 32.984375 27.480469 C 32.984375 27.789062 32.984375 28.09375 32.984375 28.390625 C 32.984375 28.878906 32.984375 29.359375 32.988281 29.84375 C 32.988281 31.210938 32.992188 32.585938 32.992188 33.957031 C 32.992188 34.792969 32.992188 35.632812 32.992188 36.472656 C 32.996094 36.789062 32.996094 37.113281 32.996094 37.429688 C 32.996094 37.875 32.996094 38.320312 32.996094 38.773438 C 32.996094 38.902344 32.996094 39.03125 32.996094 39.167969 C 33.003906 40.515625 33.175781 41.667969 33.472656 42.640625 C 33.867188 43.664062 34.257812 44.144531 34.773438 44.023438 C 35.074219 43.886719 35.304688 43.582031 35.554688 43.066406 C 35.613281 42.949219 35.613281 42.949219 35.675781 42.820312 C 36.007812 41.816406 36.1875 40.550781 36.207031 39.113281 C 36.207031 38.859375 36.207031 38.609375 36.207031 38.355469 C 36.207031 38.214844 36.207031 38.082031 36.207031 37.933594 C 36.210938 37.480469 36.210938 37.023438 36.210938 36.570312 C 36.210938 36.253906 36.210938 35.9375 36.210938 35.621094 C 36.210938 34.785156 36.214844 33.957031 36.214844 33.125 C 36.214844 31.792969 36.21875 30.460938 36.222656 29.125 C 36.222656 28.65625 36.222656 28.191406 36.222656 27.722656 C 36.226562 27.441406 36.226562 27.160156 36.226562 26.871094 C 36.226562 26.742188 36.226562 26.613281 36.226562 26.476562 C 36.226562 25.585938 36.226562 25.585938 36.277344 25.425781 C 36.339844 25.414062 36.402344 25.410156 36.464844 25.410156 C 36.503906 25.410156 36.546875 25.410156 36.585938 25.410156 C 36.628906 25.410156 36.671875 25.410156 36.71875 25.410156 C 36.761719 25.410156 36.804688 25.410156 36.847656 25.410156 C 36.945312 25.410156 37.035156 25.410156 37.128906 25.410156 C 37.273438 25.410156 37.417969 25.410156 37.558594 25.410156 C 37.648438 25.410156 37.742188 25.410156 37.828125 25.410156 C 37.875 25.410156 37.917969 25.410156 37.960938 25.410156 C 38 25.410156 38.042969 25.410156 38.082031 25.410156 C 38.117188 25.410156 38.152344 25.410156 38.1875 25.410156 C 38.269531 25.425781 38.269531 25.425781 38.3125 25.574219 C 38.320312 25.761719 38.320312 25.949219 38.320312 26.136719 C 38.320312 26.261719 38.320312 26.378906 38.320312 26.507812 C 38.320312 26.707031 38.320312 26.707031 38.320312 26.917969 C 38.320312 27.058594 38.320312 27.199219 38.324219 27.339844 C 38.324219 27.816406 38.324219 28.285156 38.324219 28.757812 C 38.324219 29.085938 38.324219 29.40625 38.324219 29.738281 C 38.324219 30.425781 38.324219 31.117188 38.324219 31.804688 C 38.324219 32.679688 38.328125 33.558594 38.328125 34.433594 C 38.328125 35.117188 38.328125 35.789062 38.328125 36.464844 C 38.328125 36.789062 38.328125 37.117188 38.332031 37.441406 C 38.335938 41 38.152344 44.105469 37.324219 46.753906 C 36.878906 48.097656 36.300781 48.960938 35.691406 49.277344 C 35.675781 52.300781 35.660156 55.332031 35.644531 58.449219 C 35.542969 58.605469 35.484375 58.605469 35.371094 58.605469 C 35.335938 58.605469 35.296875 58.605469 35.257812 58.613281 C 35.214844 58.613281 35.175781 58.613281 35.132812 58.613281 C 35.089844 58.613281 35.050781 58.613281 35.003906 58.613281 C 34.917969 58.613281 34.832031 58.613281 34.742188 58.613281 C 34.605469 58.613281 34.46875 58.617188 34.332031 58.617188 C 34.25 58.617188 34.160156 58.617188 34.078125 58.617188 C 34.035156 58.617188 33.996094 58.625 33.953125 58.625 C 33.914062 58.625 33.875 58.625 33.839844 58.625 C 33.804688 58.625 33.773438 58.625 33.738281 58.625 C 33.65625 58.589844 33.65625 58.589844 33.566406 58.308594 C 33.550781 57.933594 33.550781 57.933594 33.550781 57.457031 C 33.550781 57.28125 33.546875 57.105469 33.546875 56.917969 C 33.546875 56.722656 33.546875 56.527344 33.546875 56.335938 C 33.546875 56.136719 33.542969 55.9375 33.542969 55.734375 C 33.539062 55.214844 33.539062 54.691406 33.539062 54.167969 C 33.535156 53.632812 33.53125 53.101562 33.53125 52.566406 C 33.527344 51.515625 33.523438 50.464844 33.519531 49.417969 C 33.464844 49.359375 33.410156 49.308594 33.351562 49.253906 C 33.28125 49.175781 33.207031 49.101562 33.132812 49.03125 C 33.097656 48.996094 33.058594 48.960938 33.023438 48.917969 C 32.242188 48.125 31.625 46.382812 31.242188 44.140625 C 31 42.53125 30.886719 41.074219 30.890625 39.300781 C 30.890625 39.148438 30.890625 39.003906 30.890625 38.847656 C 30.890625 38.351562 30.890625 37.855469 30.890625 37.363281 C 30.890625 37.019531 30.890625 36.675781 30.890625 36.332031 C 30.890625 35.425781 30.890625 34.527344 30.890625 33.625 C 30.894531 32.703125 30.894531 31.78125 30.894531 30.859375 C 30.894531 29.050781 30.894531 27.242188 30.894531 25.425781 Z M 30.894531 25.425781 "/>
<path style=" stroke:none;fill-rule:nonzero;fill:rgb(95.294118%,56.862748%,12.54902%);fill-opacity:1;" d="M 83.230469 25.855469 C 83.90625 25.855469 84.574219 25.855469 85.269531 25.855469 C 85.308594 26.238281 85.320312 26.464844 85.320312 26.867188 C 85.320312 26.984375 85.320312 27.105469 85.320312 27.230469 C 85.320312 27.359375 85.320312 27.488281 85.320312 27.625 C 85.320312 27.765625 85.320312 27.90625 85.320312 28.046875 C 85.320312 28.34375 85.320312 28.644531 85.320312 28.949219 C 85.320312 29.425781 85.320312 29.902344 85.324219 30.375 C 85.324219 31.734375 85.328125 33.089844 85.328125 34.445312 C 85.328125 35.273438 85.328125 36.109375 85.332031 36.933594 C 85.332031 37.253906 85.332031 37.5625 85.332031 37.878906 C 85.332031 38.328125 85.332031 38.765625 85.335938 39.207031 C 85.335938 39.335938 85.335938 39.464844 85.332031 39.601562 C 85.339844 40.980469 85.523438 42.042969 85.8125 43.066406 C 86.144531 44.050781 86.535156 44.398438 86.988281 44.480469 C 87.332031 44.421875 87.605469 44.082031 87.890625 43.488281 C 87.949219 43.371094 87.949219 43.371094 88.011719 43.242188 C 88.34375 42.238281 88.523438 40.976562 88.542969 39.535156 C 88.542969 39.285156 88.542969 39.03125 88.542969 38.777344 C 88.542969 38.636719 88.542969 38.503906 88.542969 38.355469 C 88.546875 37.902344 88.546875 37.453125 88.546875 36.992188 C 88.546875 36.675781 88.546875 36.359375 88.546875 36.042969 C 88.550781 35.214844 88.550781 34.382812 88.554688 33.546875 C 88.554688 32.214844 88.558594 30.882812 88.558594 29.550781 C 88.5625 29.078125 88.5625 28.617188 88.5625 28.144531 C 88.5625 27.863281 88.5625 27.582031 88.5625 27.292969 C 88.5625 27.164062 88.5625 27.035156 88.5625 26.902344 C 88.566406 26.007812 88.566406 26.007812 88.617188 25.855469 C 88.679688 25.839844 88.742188 25.839844 88.804688 25.832031 C 88.84375 25.832031 88.882812 25.832031 88.921875 25.832031 C 88.964844 25.832031 89.007812 25.832031 89.054688 25.832031 C 89.097656 25.832031 89.140625 25.832031 89.1875 25.832031 C 89.28125 25.832031 89.375 25.832031 89.464844 25.832031 C 89.609375 25.839844 89.753906 25.832031 89.894531 25.832031 C 89.988281 25.832031 90.078125 25.832031 90.167969 25.832031 C 90.210938 25.832031 90.253906 25.832031 90.296875 25.832031 C 90.339844 25.832031 90.378906 25.832031 90.417969 25.832031 C 90.453125 25.832031 90.488281 25.839844 90.527344 25.839844 C 90.605469 25.855469 90.605469 25.855469 90.648438 25.996094 C 90.65625 26.183594 90.65625 26.371094 90.65625 26.558594 C 90.65625 26.683594 90.65625 26.808594 90.65625 26.929688 C 90.65625 27.128906 90.65625 27.128906 90.65625 27.339844 C 90.65625 27.480469 90.65625 27.625 90.660156 27.769531 C 90.660156 28.238281 90.660156 28.710938 90.660156 29.179688 C 90.660156 29.507812 90.660156 29.835938 90.660156 30.160156 C 90.660156 30.851562 90.660156 31.539062 90.660156 32.226562 C 90.660156 33.101562 90.664062 33.980469 90.664062 34.855469 C 90.664062 35.539062 90.664062 36.214844 90.664062 36.894531 C 90.664062 37.21875 90.664062 37.539062 90.667969 37.863281 C 90.671875 41.421875 90.488281 44.527344 89.660156 47.175781 C 89.214844 48.519531 88.636719 49.382812 88.027344 49.699219 C 88.011719 52.722656 88 55.753906 87.980469 58.871094 C 87.878906 59.03125 87.824219 59.03125 87.710938 59.03125 C 87.671875 59.03125 87.632812 59.035156 87.59375 59.035156 C 87.550781 59.035156 87.511719 59.035156 87.472656 59.035156 C 87.425781 59.035156 87.386719 59.035156 87.34375 59.035156 C 87.253906 59.035156 87.167969 59.035156 87.078125 59.035156 C 86.941406 59.035156 86.804688 59.042969 86.671875 59.042969 C 86.585938 59.042969 86.5 59.042969 86.414062 59.042969 C 86.371094 59.042969 86.332031 59.046875 86.289062 59.046875 C 86.25 59.046875 86.214844 59.046875 86.175781 59.046875 C 86.140625 59.046875 86.109375 59.046875 86.074219 59.046875 C 85.992188 59.011719 85.992188 59.011719 85.902344 58.730469 C 85.886719 58.355469 85.886719 58.355469 85.886719 57.867188 C 85.886719 57.683594 85.882812 57.507812 85.882812 57.320312 C 85.882812 57.121094 85.882812 56.921875 85.882812 56.726562 C 85.882812 56.523438 85.878906 56.324219 85.878906 56.117188 C 85.875 55.589844 85.875 55.054688 85.875 54.519531 C 85.871094 53.980469 85.871094 53.441406 85.867188 52.894531 C 85.863281 51.832031 85.859375 50.761719 85.855469 49.699219 C 85.808594 49.675781 85.757812 49.660156 85.707031 49.636719 C 84.964844 49.285156 84.339844 47.78125 83.863281 46.03125 C 83.429688 44.144531 83.226562 42.03125 83.226562 39.722656 C 83.226562 39.578125 83.226562 39.425781 83.226562 39.273438 C 83.226562 38.773438 83.226562 38.28125 83.226562 37.785156 C 83.226562 37.441406 83.226562 37.101562 83.226562 36.753906 C 83.226562 35.847656 83.226562 34.949219 83.226562 34.046875 C 83.230469 33.125 83.230469 32.203125 83.230469 31.28125 C 83.230469 29.472656 83.230469 27.664062 83.230469 25.855469 Z M 83.230469 25.855469 "/>
<path style=" stroke:none;fill-rule:nonzero;fill:rgb(95.294118%,56.862748%,12.54902%);fill-opacity:1;" d="M 71.472656 25.714844 C 71.519531 25.757812 71.570312 25.804688 71.617188 25.851562 C 72.503906 26.800781 73.234375 28.78125 73.65625 31.382812 C 73.957031 33.320312 74.101562 35.34375 74.097656 37.492188 C 74.097656 37.628906 74.097656 37.757812 74.097656 37.890625 C 74.097656 38.320312 74.097656 38.75 74.097656 39.183594 C 74.097656 39.484375 74.097656 39.78125 74.097656 40.078125 C 74.097656 40.863281 74.097656 41.648438 74.097656 42.4375 C 74.097656 43.375 74.097656 44.320312 74.097656 45.265625 C 74.097656 46.695312 74.09375 48.125 74.09375 49.558594 C 73.40625 49.558594 72.722656 49.558594 72.015625 49.558594 C 72 48.390625 71.984375 47.226562 71.96875 46.03125 C 71.890625 46.375 71.890625 46.375 71.8125 46.734375 C 71.386719 48.554688 70.820312 49.660156 70.105469 50.058594 C 69.101562 50.417969 68.203125 49.851562 67.398438 47.863281 C 66.59375 45.730469 66.175781 42.589844 66.054688 39.367188 C 66.046875 39.144531 66.042969 38.914062 66.042969 38.691406 C 66.042969 38.554688 66.039062 38.421875 66.039062 38.28125 C 66.011719 34.480469 66.386719 31.222656 67.226562 28.457031 C 68.285156 25.222656 70.078125 24.359375 71.472656 25.714844 Z M 68.65625 32.8125 C 68.214844 34.527344 68.101562 36.6875 68.167969 38.832031 C 68.230469 40.148438 68.375 41.285156 68.621094 42.359375 C 68.652344 42.507812 68.6875 42.660156 68.71875 42.8125 C 69.125 44.074219 69.59375 44.59375 70.160156 44.621094 C 70.660156 44.527344 71.105469 43.945312 71.445312 42.777344 C 71.945312 40.816406 72.042969 38.585938 71.96875 36.15625 C 71.867188 34.410156 71.59375 32.902344 71.15625 31.78125 C 70.332031 30.019531 69.316406 30.59375 68.65625 32.8125 Z M 68.65625 32.8125 "/>
<path style=" stroke:none;fill-rule:nonzero;fill:rgb(95.294118%,56.862748%,12.54902%);fill-opacity:1;" d="M 64.066406 27.125 C 64.90625 29.085938 65.242188 31.960938 65.4375 35.054688 C 65.464844 35.878906 65.460938 36.699219 65.460938 37.527344 C 65.460938 37.703125 65.460938 37.875 65.460938 38.058594 C 65.460938 38.304688 65.460938 38.304688 65.460938 38.554688 C 65.460938 38.707031 65.460938 38.859375 65.460938 39.015625 C 65.457031 39.402344 65.457031 39.402344 65.410156 39.824219 C 63.722656 39.824219 62.035156 39.824219 60.296875 39.824219 C 60.59375 41.671875 60.78125 42.660156 61.394531 43.382812 C 61.847656 43.835938 62.269531 43.933594 62.738281 43.957031 C 62.789062 43.964844 62.839844 43.964844 62.890625 43.96875 C 63.054688 43.976562 63.214844 43.988281 63.375 43.992188 C 63.484375 44 63.59375 44.003906 63.703125 44.011719 C 63.972656 44.027344 64.238281 44.039062 64.503906 44.058594 C 64.503906 45.871094 64.503906 47.6875 64.503906 49.558594 C 64.164062 49.566406 63.824219 49.578125 63.488281 49.578125 C 63.328125 49.582031 63.167969 49.582031 63.011719 49.589844 C 61.628906 49.628906 60.257812 49.320312 59.210938 46.171875 C 59.148438 45.984375 59.089844 45.796875 59.03125 45.609375 C 59 45.515625 58.972656 45.417969 58.941406 45.324219 C 58.203125 42.914062 58.058594 39.757812 58.070312 36.566406 C 58.09375 33.851562 58.390625 31.339844 58.941406 29.238281 C 58.976562 29.089844 58.976562 29.089844 59.015625 28.9375 C 60.175781 24.453125 62.59375 24.058594 64.066406 27.125 Z M 61.066406 31.214844 C 61.039062 31.261719 61.011719 31.304688 60.980469 31.359375 C 60.574219 32.121094 60.40625 33.589844 60.28125 34.945312 C 60.25 35.269531 60.25 35.269531 60.253906 35.449219 C 61.28125 35.449219 62.3125 35.449219 63.375 35.449219 C 63.320312 33.882812 63.21875 32.667969 62.835938 31.585938 C 62.328125 30.371094 61.625 30.253906 61.066406 31.214844 Z M 61.066406 31.214844 "/>
<path style=" stroke:none;fill-rule:nonzero;fill:rgb(92.156863%,38.431373%,18.039216%);fill-opacity:1;" d="M 54.328125 26.417969 C 54.523438 26.890625 54.699219 27.417969 54.871094 27.96875 C 54.898438 28.058594 54.929688 28.152344 54.960938 28.238281 C 55.5625 30.152344 55.824219 33.402344 55.824219 36.007812 C 55.824219 36.183594 55.824219 36.367188 55.824219 36.554688 C 55.824219 36.734375 55.824219 36.921875 55.824219 37.117188 C 55.824219 37.304688 55.824219 37.492188 55.824219 37.6875 C 55.824219 37.957031 55.824219 37.957031 55.824219 38.226562 C 55.824219 38.390625 55.824219 38.554688 55.824219 38.726562 C 55.820312 39.113281 55.820312 39.113281 55.773438 39.402344 C 54.101562 39.441406 52.429688 39.488281 50.707031 39.542969 C 51.035156 41.5625 51.269531 42.441406 51.941406 43.175781 C 52.332031 43.511719 52.742188 43.515625 53.144531 43.535156 C 53.191406 43.539062 53.242188 43.539062 53.292969 43.546875 C 53.449219 43.550781 53.609375 43.5625 53.765625 43.570312 C 53.871094 43.574219 53.976562 43.582031 54.085938 43.585938 C 54.347656 43.605469 54.609375 43.617188 54.871094 43.628906 C 54.871094 45.449219 54.871094 47.261719 54.871094 49.136719 C 54.53125 49.140625 54.191406 49.152344 53.851562 49.152344 C 53.691406 49.160156 53.535156 49.160156 53.378906 49.164062 C 51.960938 49.207031 50.613281 48.820312 49.539062 45.648438 C 49.003906 44 48.644531 41.980469 48.492188 39.683594 C 48.480469 39.5 48.480469 39.5 48.464844 39.3125 C 48.324219 35.90625 48.492188 32.167969 49.171875 29.378906 C 49.300781 28.886719 49.433594 28.421875 49.578125 27.96875 C 49.609375 27.859375 49.644531 27.753906 49.679688 27.640625 C 50.832031 24.160156 52.992188 23.710938 54.328125 26.417969 Z M 51.070312 31.78125 C 50.816406 32.765625 50.664062 33.753906 50.664062 35.027344 C 51.675781 35.027344 52.695312 35.027344 53.738281 35.027344 C 53.6875 33.484375 53.582031 32.339844 53.242188 31.214844 C 52.582031 29.5625 51.632812 29.867188 51.070312 31.78125 Z M 51.070312 31.78125 "/>
<path style=" stroke:none;fill-rule:nonzero;fill:rgb(95.294118%,56.862748%,12.54902%);fill-opacity:1;" d="M 77.65625 25.839844 C 77.695312 25.839844 77.734375 25.839844 77.773438 25.839844 C 77.90625 25.839844 78.035156 25.839844 78.164062 25.839844 C 78.253906 25.839844 78.34375 25.839844 78.433594 25.839844 C 78.671875 25.839844 78.90625 25.84375 79.144531 25.84375 C 79.425781 25.84375 79.710938 25.84375 79.996094 25.84375 C 80.425781 25.851562 80.855469 25.851562 81.285156 25.855469 C 81.285156 27.671875 81.285156 29.484375 81.285156 31.359375 C 81.035156 31.359375 80.785156 31.363281 80.527344 31.371094 C 80.363281 31.371094 80.207031 31.375 80.046875 31.382812 C 79.792969 31.386719 79.539062 31.394531 79.285156 31.394531 C 79.082031 31.398438 78.878906 31.398438 78.675781 31.410156 C 78.597656 31.410156 78.519531 31.410156 78.441406 31.410156 C 78.332031 31.410156 78.222656 31.417969 78.113281 31.421875 C 78.082031 31.421875 78.050781 31.417969 78.015625 31.417969 C 77.789062 31.433594 77.660156 31.621094 77.488281 32.0625 C 77.410156 32.550781 77.414062 33.078125 77.441406 33.613281 C 77.539062 34 77.617188 34.242188 77.757812 34.457031 C 77.824219 34.476562 77.886719 34.480469 77.949219 34.480469 C 77.988281 34.480469 78.027344 34.488281 78.070312 34.488281 C 78.132812 34.488281 78.132812 34.488281 78.199219 34.492188 C 78.289062 34.492188 78.382812 34.5 78.472656 34.503906 C 78.617188 34.511719 78.761719 34.511719 78.90625 34.515625 C 79.816406 34.546875 80.765625 34.628906 81.46875 36.71875 C 82.003906 38.542969 82.050781 40.769531 82.019531 43.128906 C 81.976562 44.875 81.640625 46.535156 81.242188 47.722656 C 80.734375 49.066406 80.160156 49.582031 79.503906 49.570312 C 79.464844 49.570312 79.421875 49.570312 79.375 49.570312 C 79.238281 49.570312 79.101562 49.570312 78.964844 49.570312 C 78.867188 49.570312 78.773438 49.570312 78.675781 49.570312 C 78.421875 49.570312 78.171875 49.570312 77.917969 49.566406 C 77.660156 49.566406 77.40625 49.566406 77.148438 49.566406 C 76.640625 49.566406 76.136719 49.558594 75.632812 49.558594 C 75.632812 47.738281 75.632812 45.925781 75.632812 44.058594 C 75.902344 44.050781 76.171875 44.046875 76.449219 44.039062 C 76.621094 44.035156 76.792969 44.027344 76.960938 44.027344 C 77.234375 44.015625 77.507812 44.011719 77.777344 44.003906 C 77.996094 44.003906 78.21875 44 78.4375 43.988281 C 78.519531 43.988281 78.601562 43.988281 78.6875 43.988281 C 78.800781 43.980469 78.917969 43.980469 79.035156 43.976562 C 79.089844 43.976562 79.089844 43.976562 79.140625 43.976562 C 79.382812 43.964844 79.617188 43.835938 79.839844 43.488281 C 79.9375 42.941406 79.953125 42.414062 79.929688 41.796875 C 79.832031 41.167969 79.734375 40.871094 79.527344 40.609375 C 79.34375 40.453125 79.160156 40.46875 78.972656 40.476562 C 78.882812 40.46875 78.792969 40.46875 78.699219 40.46875 C 78.558594 40.464844 78.417969 40.464844 78.277344 40.464844 C 77.40625 40.464844 76.515625 40.316406 75.859375 38.269531 C 75.382812 36.5 75.273438 34.457031 75.316406 32.203125 C 75.410156 30.1875 75.742188 28.550781 76.242188 27.257812 C 76.683594 26.242188 77.109375 25.832031 77.65625 25.839844 Z M 77.65625 25.839844 "/>
<path style=" stroke:none;fill-rule:nonzero;fill:rgb(92.156863%,38.431373%,18.039216%);fill-opacity:1;" d="M 28.144531 25.375 C 28.230469 25.375 28.230469 25.375 28.320312 25.378906 C 28.472656 25.378906 28.625 25.386719 28.78125 25.390625 C 28.9375 25.398438 29.09375 25.398438 29.253906 25.402344 C 29.558594 25.410156 29.863281 25.421875 30.171875 25.425781 C 30.171875 27.246094 30.171875 29.0625 30.171875 30.933594 C 30.035156 30.941406 29.902344 30.945312 29.761719 30.953125 C 29.632812 30.964844 29.5 30.96875 29.371094 30.976562 C 29.277344 30.980469 29.1875 30.988281 29.097656 30.992188 C 28.96875 31 28.835938 31.003906 28.703125 31.015625 C 28.664062 31.015625 28.625 31.015625 28.582031 31.023438 C 28.542969 31.023438 28.507812 31.027344 28.464844 31.027344 C 28.433594 31.027344 28.398438 31.035156 28.367188 31.035156 C 28.253906 31.082031 28.183594 31.164062 28.089844 31.359375 C 28.003906 31.792969 27.988281 32.132812 27.988281 32.644531 C 27.988281 32.789062 27.988281 32.929688 27.988281 33.082031 C 27.988281 33.242188 27.988281 33.402344 27.988281 33.566406 C 27.984375 33.816406 27.984375 33.816406 27.984375 34.074219 C 27.984375 34.535156 27.984375 34.992188 27.984375 35.457031 C 27.980469 35.9375 27.980469 36.414062 27.980469 36.894531 C 27.976562 37.804688 27.976562 38.71875 27.972656 39.628906 C 27.972656 40.664062 27.96875 41.703125 27.96875 42.738281 C 27.960938 44.867188 27.957031 47 27.953125 49.136719 C 27.269531 49.136719 26.582031 49.136719 25.875 49.136719 C 25.871094 46.769531 25.867188 44.410156 25.867188 42.050781 C 25.867188 40.953125 25.863281 39.855469 25.863281 38.753906 C 25.863281 37.796875 25.863281 36.839844 25.863281 35.882812 C 25.863281 35.378906 25.863281 34.875 25.859375 34.371094 C 25.859375 33.800781 25.859375 33.238281 25.859375 32.667969 C 25.859375 32.503906 25.859375 32.339844 25.859375 32.167969 C 25.859375 30.242188 26.007812 28.515625 26.429688 27.070312 C 26.910156 25.644531 27.503906 25.339844 28.144531 25.375 Z M 28.144531 25.375 "/>
<path style=" stroke:none;fill-rule:nonzero;fill:rgb(18.431373%,18.039216%,18.039216%);fill-opacity:1;" d="M 85.855469 49.699219 C 86.570312 49.699219 87.289062 49.699219 88.027344 49.699219 C 88.011719 52.722656 88 55.753906 87.980469 58.871094 C 87.878906 59.03125 87.824219 59.03125 87.710938 59.03125 C 87.671875 59.03125 87.632812 59.035156 87.59375 59.035156 C 87.550781 59.035156 87.511719 59.035156 87.472656 59.035156 C 87.425781 59.035156 87.386719 59.035156 87.34375 59.035156 C 87.253906 59.035156 87.167969 59.035156 87.078125 59.035156 C 86.941406 59.035156 86.804688 59.042969 86.671875 59.042969 C 86.585938 59.042969 86.5 59.042969 86.414062 59.042969 C 86.371094 59.042969 86.332031 59.046875 86.289062 59.046875 C 86.230469 59.046875 86.230469 59.046875 86.175781 59.046875 C 86.140625 59.046875 86.109375 59.046875 86.074219 59.046875 C 85.992188 59.011719 85.992188 59.011719 85.902344 58.730469 C 85.886719 58.355469 85.886719 58.355469 85.886719 57.867188 C 85.886719 57.683594 85.882812 57.507812 85.882812 57.320312 C 85.882812 57.121094 85.882812 56.921875 85.882812 56.726562 C 85.882812 56.523438 85.878906 56.324219 85.878906 56.117188 C 85.875 55.589844 85.875 55.054688 85.875 54.519531 C 85.871094 53.886719 85.871094 53.246094 85.867188 52.605469 C 85.863281 51.636719 85.859375 50.667969 85.855469 49.699219 Z M 85.855469 49.699219 "/>
<path style=" stroke:none;fill-rule:nonzero;fill:rgb(0%,0%,0%);fill-opacity:1;" d="M 75.523438 54.625 C 75.578125 54.632812 75.578125 54.632812 75.632812 54.636719 C 75.742188 55.578125 75.816406 56.523438 75.886719 57.492188 C 75.929688 58.054688 75.929688 58.054688 75.992188 58.589844 C 76.113281 57.46875 76.234375 56.351562 76.355469 55.203125 C 76.628906 55.0625 76.628906 55.0625 76.71875 55.203125 C 76.757812 55.476562 76.757812 55.476562 76.796875 55.839844 C 76.808594 55.976562 76.824219 56.105469 76.839844 56.242188 C 76.851562 56.375 76.867188 56.515625 76.882812 56.65625 C 76.90625 56.863281 76.90625 56.863281 76.925781 57.070312 C 76.988281 57.65625 77.035156 58.101562 77.035156 58.730469 C 77.066406 58.730469 77.09375 58.730469 77.125 58.730469 C 77.132812 58.601562 77.136719 58.472656 77.140625 58.335938 C 77.175781 57.589844 77.234375 56.863281 77.285156 56.128906 C 77.304688 55.914062 77.304688 55.914062 77.316406 55.695312 C 77.34375 55.34375 77.371094 54.992188 77.398438 54.636719 C 77.484375 54.636719 77.578125 54.636719 77.667969 54.636719 C 77.742188 55.347656 77.675781 55.929688 77.613281 56.621094 C 77.597656 56.800781 77.597656 56.800781 77.582031 56.980469 C 77.382812 59.246094 77.382812 59.246094 77.261719 60 C 77.140625 60 77.023438 60 76.898438 60 C 76.78125 58.882812 76.660156 57.761719 76.539062 56.609375 C 76.421875 57.671875 76.421875 57.671875 76.304688 58.738281 C 76.289062 58.867188 76.273438 59 76.257812 59.136719 C 76.246094 59.269531 76.230469 59.40625 76.214844 59.546875 C 76.175781 59.859375 76.175781 59.859375 76.128906 60 C 76.023438 60.003906 75.921875 60.003906 75.8125 60 C 75.664062 59.046875 75.570312 58.097656 75.484375 57.070312 C 75.472656 56.929688 75.460938 56.785156 75.449219 56.632812 C 75.351562 55.425781 75.351562 55.425781 75.359375 54.777344 C 75.40625 54.636719 75.40625 54.636719 75.523438 54.625 Z M 75.523438 54.625 "/>
<path style=" stroke:none;fill-rule:nonzero;fill:rgb(0%,0%,0%);fill-opacity:1;" d="M 63.328125 52.660156 C 63.433594 52.660156 63.539062 52.660156 63.644531 52.660156 C 63.699219 52.988281 63.695312 53.183594 63.699219 53.546875 C 63.699219 53.675781 63.699219 53.796875 63.703125 53.925781 C 63.703125 54.496094 63.707031 55.066406 63.707031 55.640625 C 63.707031 55.941406 63.707031 56.242188 63.710938 56.539062 C 63.710938 56.976562 63.714844 57.410156 63.714844 57.84375 C 63.714844 57.980469 63.714844 58.113281 63.71875 58.253906 C 63.71875 58.902344 63.714844 59.195312 63.585938 59.730469 C 63.398438 60.152344 63.25 60.164062 63.019531 60.175781 C 62.9375 60.179688 62.9375 60.179688 62.855469 60.1875 C 62.613281 60.117188 62.472656 59.863281 62.300781 59.335938 C 62.101562 58.519531 62.089844 57.636719 62.132812 56.65625 C 62.191406 55.753906 62.328125 55.300781 62.558594 54.777344 C 62.707031 54.625 62.816406 54.621094 62.96875 54.621094 C 63.019531 54.621094 63.066406 54.621094 63.113281 54.621094 C 63.238281 54.636719 63.238281 54.636719 63.328125 54.777344 C 63.328125 54.082031 63.328125 53.382812 63.328125 52.660156 Z M 62.558594 56.046875 C 62.429688 56.710938 62.445312 57.410156 62.46875 58.167969 C 62.539062 58.703125 62.628906 58.984375 62.785156 59.292969 C 62.898438 59.347656 62.898438 59.347656 63.019531 59.328125 C 63.078125 59.324219 63.078125 59.324219 63.136719 59.324219 C 63.238281 59.3125 63.238281 59.3125 63.328125 59.152344 C 63.332031 58.59375 63.335938 58.039062 63.339844 57.472656 C 63.339844 57.316406 63.339844 57.15625 63.339844 56.992188 C 63.339844 56.839844 63.339844 56.691406 63.339844 56.535156 C 63.34375 56.394531 63.34375 56.253906 63.34375 56.105469 C 63.339844 55.996094 63.335938 55.882812 63.328125 55.765625 C 63.066406 55.21875 62.773438 55.3125 62.558594 56.046875 Z M 62.558594 56.046875 "/>
<path style=" stroke:none;fill-rule:nonzero;fill:rgb(0%,0%,0%);fill-opacity:1;" d="M 78.074219 52.660156 C 78.164062 52.660156 78.253906 52.660156 78.347656 52.660156 C 78.433594 52.933594 78.410156 53.433594 78.417969 53.796875 C 78.421875 53.980469 78.425781 54.164062 78.429688 54.351562 C 78.433594 54.492188 78.433594 54.632812 78.4375 54.777344 C 78.480469 54.730469 78.527344 54.683594 78.570312 54.636719 C 78.824219 54.566406 79.042969 54.539062 79.277344 54.867188 C 79.4375 55.355469 79.515625 55.804688 79.539062 56.503906 C 79.539062 56.746094 79.539062 56.746094 79.535156 56.992188 C 79.535156 57.257812 79.535156 57.257812 79.535156 57.527344 C 79.535156 57.707031 79.53125 57.890625 79.53125 58.078125 C 79.53125 58.355469 79.53125 58.355469 79.53125 58.636719 C 79.527344 59.089844 79.527344 59.546875 79.523438 60 C 79.433594 60.003906 79.34375 60.003906 79.253906 60 C 79.171875 59.757812 79.199219 59.421875 79.195312 59.09375 C 79.195312 58.9375 79.191406 58.777344 79.191406 58.617188 C 79.1875 58.289062 79.1875 57.957031 79.183594 57.625 C 79.179688 57.390625 79.179688 57.390625 79.179688 57.152344 C 79.175781 57.011719 79.175781 56.863281 79.175781 56.714844 C 79.160156 56.328125 79.140625 56.09375 79.070312 55.765625 C 78.964844 55.601562 78.898438 55.601562 78.78125 55.601562 C 78.746094 55.59375 78.707031 55.59375 78.671875 55.59375 C 78.558594 55.605469 78.558594 55.605469 78.4375 55.90625 C 78.414062 56.328125 78.414062 56.328125 78.414062 56.828125 C 78.414062 57.015625 78.410156 57.199219 78.410156 57.386719 C 78.40625 57.578125 78.40625 57.773438 78.40625 57.972656 C 78.402344 58.167969 78.402344 58.359375 78.402344 58.558594 C 78.398438 59.035156 78.394531 59.515625 78.394531 60 C 78.285156 60 78.183594 60 78.074219 60 C 78.074219 57.578125 78.074219 55.15625 78.074219 52.660156 Z M 78.074219 52.660156 "/>
<path style=" stroke:none;fill-rule:nonzero;fill:rgb(0%,0%,0%);fill-opacity:1;" d="M 84.324219 54.726562 C 84.53125 55.054688 84.65625 55.519531 84.722656 56.1875 C 84.738281 56.582031 84.734375 56.921875 84.722656 57.316406 C 84.53125 57.539062 84.34375 57.667969 84.140625 57.761719 C 84.089844 57.785156 84.035156 57.808594 83.980469 57.832031 C 83.820312 57.886719 83.664062 57.890625 83.503906 57.886719 C 83.585938 58.453125 83.644531 58.832031 83.820312 59.152344 C 84.085938 59.269531 84.34375 59.199219 84.589844 58.871094 C 84.617188 59.054688 84.648438 59.242188 84.679688 59.433594 C 84.535156 59.917969 84.449219 60.117188 84.234375 60.175781 C 83.847656 60.199219 83.589844 60.097656 83.304688 59.257812 C 83.125 58.300781 83.117188 57.390625 83.1875 56.328125 C 83.273438 55.582031 83.394531 55.230469 83.59375 54.777344 C 83.824219 54.539062 84.089844 54.503906 84.324219 54.726562 Z M 83.550781 56.1875 C 83.535156 56.515625 83.519531 56.839844 83.503906 57.175781 C 83.789062 57.085938 84.070312 56.992188 84.363281 56.894531 C 84.433594 56.328125 84.433594 56.328125 84.324219 55.871094 C 84.214844 55.507812 84.136719 55.414062 83.976562 55.382812 C 83.769531 55.4375 83.671875 55.636719 83.550781 56.1875 Z M 83.550781 56.1875 "/>
<path style=" stroke:none;fill-rule:nonzero;fill:rgb(0%,0%,0%);fill-opacity:1;" d="M 81.113281 54.726562 C 81.316406 55.054688 81.441406 55.519531 81.511719 56.1875 C 81.527344 56.582031 81.523438 56.921875 81.511719 57.316406 C 81.320312 57.539062 81.132812 57.667969 80.929688 57.761719 C 80.875 57.785156 80.820312 57.808594 80.769531 57.832031 C 80.609375 57.886719 80.453125 57.890625 80.292969 57.886719 C 80.375 58.453125 80.433594 58.832031 80.609375 59.152344 C 80.871094 59.269531 81.132812 59.199219 81.378906 58.871094 C 81.40625 59.054688 81.4375 59.242188 81.46875 59.433594 C 81.324219 59.917969 81.238281 60.117188 81.023438 60.175781 C 80.636719 60.199219 80.378906 60.097656 80.09375 59.257812 C 79.914062 58.300781 79.90625 57.390625 79.976562 56.328125 C 80.0625 55.582031 80.183594 55.230469 80.382812 54.777344 C 80.613281 54.539062 80.875 54.503906 81.113281 54.726562 Z M 80.335938 56.1875 C 80.324219 56.515625 80.308594 56.839844 80.292969 57.175781 C 80.578125 57.085938 80.859375 56.992188 81.152344 56.894531 C 81.21875 56.328125 81.21875 56.328125 81.113281 55.871094 C 81.003906 55.507812 80.925781 55.414062 80.765625 55.382812 C 80.554688 55.4375 80.460938 55.636719 80.335938 56.1875 Z M 80.335938 56.1875 "/>
<path style=" stroke:none;fill-rule:nonzero;fill:rgb(0%,0%,0%);fill-opacity:1;" d="M 71.476562 54.726562 C 71.683594 55.054688 71.808594 55.519531 71.878906 56.1875 C 71.890625 56.582031 71.886719 56.921875 71.878906 57.316406 C 71.683594 57.539062 71.5 57.667969 71.292969 57.761719 C 71.242188 57.785156 71.1875 57.808594 71.132812 57.832031 C 70.972656 57.886719 70.816406 57.890625 70.65625 57.886719 C 70.738281 58.453125 70.800781 58.832031 70.972656 59.152344 C 71.238281 59.269531 71.496094 59.199219 71.742188 58.871094 C 71.773438 59.054688 71.800781 59.242188 71.832031 59.433594 C 71.6875 59.917969 71.601562 60.117188 71.386719 60.175781 C 71 60.199219 70.746094 60.097656 70.460938 59.257812 C 70.277344 58.300781 70.273438 57.390625 70.339844 56.328125 C 70.425781 55.582031 70.546875 55.230469 70.75 54.777344 C 70.980469 54.539062 71.242188 54.503906 71.476562 54.726562 Z M 70.703125 56.1875 C 70.6875 56.515625 70.671875 56.839844 70.65625 57.175781 C 70.941406 57.085938 71.222656 56.992188 71.515625 56.894531 C 71.582031 56.328125 71.582031 56.328125 71.476562 55.871094 C 71.371094 55.507812 71.289062 55.414062 71.132812 55.382812 C 70.921875 55.4375 70.824219 55.636719 70.703125 56.1875 Z M 70.703125 56.1875 "/>
<path style=" stroke:none;fill-rule:nonzero;fill:rgb(0%,0%,0%);fill-opacity:1;" d="M 67.859375 54.726562 C 68.0625 55.054688 68.1875 55.519531 68.257812 56.1875 C 68.273438 56.582031 68.269531 56.921875 68.257812 57.316406 C 68.0625 57.539062 67.878906 57.667969 67.675781 57.761719 C 67.621094 57.785156 67.570312 57.808594 67.515625 57.832031 C 67.355469 57.886719 67.199219 57.890625 67.039062 57.886719 C 67.121094 58.453125 67.179688 58.832031 67.355469 59.152344 C 67.617188 59.269531 67.878906 59.199219 68.125 58.871094 C 68.152344 59.054688 68.183594 59.242188 68.214844 59.433594 C 68.070312 59.917969 67.984375 60.117188 67.769531 60.175781 C 67.378906 60.199219 67.125 60.097656 66.839844 59.257812 C 66.660156 58.300781 66.652344 57.390625 66.722656 56.328125 C 66.808594 55.582031 66.929688 55.230469 67.128906 54.777344 C 67.363281 54.539062 67.625 54.503906 67.859375 54.726562 Z M 67.082031 56.1875 C 67.070312 56.515625 67.054688 56.839844 67.039062 57.175781 C 67.320312 57.085938 67.605469 56.992188 67.898438 56.894531 C 67.964844 56.328125 67.964844 56.328125 67.859375 55.871094 C 67.75 55.507812 67.671875 55.414062 67.511719 55.382812 C 67.304688 55.4375 67.203125 55.636719 67.082031 56.1875 Z M 67.082031 56.1875 "/>
<path style=" stroke:none;fill-rule:nonzero;fill:rgb(0%,0%,0%);fill-opacity:1;" d="M 65.28125 54.726562 C 65.484375 55.054688 65.609375 55.519531 65.679688 56.1875 C 65.695312 56.582031 65.691406 56.921875 65.679688 57.316406 C 65.484375 57.539062 65.300781 57.667969 65.097656 57.761719 C 65.042969 57.785156 64.992188 57.808594 64.9375 57.832031 C 64.777344 57.886719 64.621094 57.890625 64.460938 57.886719 C 64.542969 58.453125 64.601562 58.832031 64.777344 59.152344 C 65.039062 59.269531 65.296875 59.199219 65.546875 58.871094 C 65.574219 59.054688 65.605469 59.242188 65.636719 59.433594 C 65.492188 59.917969 65.40625 60.117188 65.191406 60.175781 C 64.804688 60.199219 64.546875 60.097656 64.261719 59.257812 C 64.082031 58.300781 64.074219 57.390625 64.144531 56.328125 C 64.230469 55.582031 64.351562 55.230469 64.550781 54.777344 C 64.78125 54.539062 65.046875 54.503906 65.28125 54.726562 Z M 64.503906 56.1875 C 64.488281 56.515625 64.476562 56.839844 64.460938 57.175781 C 64.742188 57.085938 65.027344 56.992188 65.320312 56.894531 C 65.386719 56.328125 65.386719 56.328125 65.28125 55.871094 C 65.171875 55.507812 65.09375 55.414062 64.933594 55.382812 C 64.722656 55.4375 64.625 55.636719 64.503906 56.1875 Z M 64.503906 56.1875 "/>
<path style=" stroke:none;fill-rule:nonzero;fill:rgb(0%,0%,0%);fill-opacity:1;" d="M 73.550781 54.636719 C 73.65625 54.589844 73.65625 54.589844 73.777344 54.636719 C 73.882812 55.101562 73.949219 55.59375 74.015625 56.125 C 74.042969 56.335938 74.042969 56.335938 74.070312 56.558594 C 74.097656 56.78125 74.097656 56.78125 74.125 57.011719 C 74.144531 57.164062 74.164062 57.308594 74.183594 57.46875 C 74.230469 57.84375 74.273438 58.214844 74.320312 58.589844 C 74.480469 57.472656 74.597656 56.375 74.691406 55.195312 C 74.726562 54.777344 74.726562 54.777344 74.773438 54.636719 C 74.863281 54.632812 74.953125 54.632812 75.046875 54.636719 C 75.0625 55.570312 75.007812 56.300781 74.910156 57.175781 C 74.894531 57.304688 74.882812 57.433594 74.867188 57.566406 C 74.457031 61.191406 74.457031 61.191406 74.050781 62.113281 C 73.894531 62.183594 73.894531 62.183594 73.777344 62.113281 C 73.742188 61.878906 73.742188 61.878906 73.734375 61.550781 C 73.804688 61.214844 73.804688 61.214844 73.90625 60.855469 C 74.035156 60.390625 74.121094 60.015625 74.1875 59.433594 C 74.140625 59.386719 74.09375 59.339844 74.050781 59.292969 C 73.992188 58.976562 73.945312 58.675781 73.898438 58.347656 C 73.882812 58.253906 73.867188 58.160156 73.855469 58.066406 C 73.492188 55.507812 73.492188 55.507812 73.523438 54.859375 C 73.53125 54.789062 73.542969 54.714844 73.550781 54.636719 Z M 73.550781 54.636719 "/>
<path style=" stroke:none;fill-rule:nonzero;fill:rgb(0%,0%,0%);fill-opacity:1;" d="M 60.390625 54.636719 C 60.492188 54.589844 60.492188 54.589844 60.613281 54.636719 C 60.71875 55.101562 60.789062 55.59375 60.851562 56.125 C 60.878906 56.335938 60.878906 56.335938 60.90625 56.558594 C 60.933594 56.78125 60.933594 56.78125 60.960938 57.011719 C 60.980469 57.164062 61 57.308594 61.019531 57.46875 C 61.066406 57.84375 61.109375 58.214844 61.15625 58.589844 C 61.316406 57.472656 61.4375 56.375 61.527344 55.195312 C 61.5625 54.777344 61.5625 54.777344 61.609375 54.636719 C 61.699219 54.632812 61.789062 54.632812 61.882812 54.636719 C 61.898438 55.570312 61.84375 56.300781 61.746094 57.175781 C 61.730469 57.304688 61.71875 57.433594 61.703125 57.566406 C 61.292969 61.191406 61.292969 61.191406 60.886719 62.113281 C 60.730469 62.183594 60.730469 62.183594 60.613281 62.113281 C 60.582031 61.878906 60.582031 61.878906 60.570312 61.550781 C 60.640625 61.214844 60.640625 61.214844 60.742188 60.855469 C 60.871094 60.390625 60.960938 60.015625 61.023438 59.433594 C 60.976562 59.386719 60.929688 59.339844 60.886719 59.292969 C 60.828125 58.976562 60.78125 58.675781 60.734375 58.347656 C 60.71875 58.253906 60.707031 58.160156 60.691406 58.066406 C 60.328125 55.507812 60.328125 55.507812 60.359375 54.859375 C 60.371094 54.789062 60.378906 54.714844 60.390625 54.636719 Z M 60.390625 54.636719 "/>
<path style=" stroke:none;fill-rule:nonzero;fill:rgb(0%,0%,0%);fill-opacity:1;" d="M 68.53125 54.636719 C 68.636719 54.589844 68.636719 54.589844 68.757812 54.636719 C 68.863281 55.101562 68.925781 55.578125 68.984375 56.117188 C 69 56.257812 69.015625 56.40625 69.03125 56.550781 C 69.046875 56.699219 69.0625 56.847656 69.082031 57 C 69.109375 57.296875 69.144531 57.589844 69.175781 57.890625 C 69.191406 58.019531 69.203125 58.148438 69.21875 58.285156 C 69.246094 58.582031 69.246094 58.582031 69.300781 58.730469 C 69.449219 57.378906 69.597656 56.03125 69.753906 54.636719 C 69.839844 54.636719 69.933594 54.636719 70.023438 54.636719 C 70.074219 55.109375 70.066406 55.378906 70.011719 55.839844 C 70 55.964844 69.988281 56.089844 69.972656 56.210938 C 69.960938 56.339844 69.945312 56.46875 69.929688 56.605469 C 69.914062 56.734375 69.902344 56.871094 69.886719 57.003906 C 69.773438 58.039062 69.640625 59.023438 69.480469 60 C 69.363281 60 69.242188 60 69.117188 60 C 68.929688 58.929688 68.785156 57.828125 68.648438 56.679688 C 68.628906 56.546875 68.613281 56.410156 68.597656 56.269531 C 68.574219 56.078125 68.574219 56.078125 68.550781 55.878906 C 68.535156 55.757812 68.523438 55.640625 68.511719 55.523438 C 68.484375 55.171875 68.492188 54.972656 68.53125 54.636719 Z M 68.53125 54.636719 "/>
<path style=" stroke:none;fill-rule:nonzero;fill:rgb(0%,0%,0%);fill-opacity:1;" d="M 82.960938 54.777344 C 82.960938 55.015625 82.960938 55.242188 82.960938 55.484375 C 82.902344 55.496094 82.902344 55.496094 82.847656 55.507812 C 82.773438 55.523438 82.773438 55.523438 82.699219 55.546875 C 82.648438 55.554688 82.597656 55.566406 82.550781 55.578125 C 82.417969 55.613281 82.417969 55.613281 82.28125 55.765625 C 82.265625 57.164062 82.25 58.558594 82.238281 60 C 82.132812 60 82.027344 60 81.921875 60 C 81.816406 59.359375 81.863281 58.472656 81.863281 57.769531 C 81.863281 57.585938 81.863281 57.402344 81.859375 57.214844 C 81.859375 57.046875 81.859375 56.871094 81.859375 56.6875 C 81.859375 56.527344 81.859375 56.371094 81.859375 56.207031 C 81.878906 55.710938 81.914062 55.453125 82.011719 55.0625 C 82.269531 54.5625 82.679688 54.339844 82.960938 54.777344 Z M 82.960938 54.777344 "/>
<path style=" stroke:none;fill-rule:nonzero;fill:rgb(0%,0%,0%);fill-opacity:1;" d="M 73.328125 54.777344 C 73.328125 55.015625 73.328125 55.242188 73.328125 55.484375 C 73.269531 55.496094 73.269531 55.496094 73.210938 55.507812 C 73.136719 55.523438 73.136719 55.523438 73.0625 55.546875 C 73.015625 55.554688 72.964844 55.566406 72.914062 55.578125 C 72.78125 55.613281 72.78125 55.613281 72.648438 55.765625 C 72.632812 57.164062 72.617188 58.558594 72.601562 60 C 72.496094 60 72.394531 60 72.285156 60 C 72.183594 59.359375 72.230469 58.472656 72.230469 57.769531 C 72.226562 57.585938 72.226562 57.402344 72.226562 57.214844 C 72.226562 57.046875 72.226562 56.871094 72.226562 56.6875 C 72.226562 56.527344 72.226562 56.371094 72.222656 56.207031 C 72.242188 55.710938 72.28125 55.453125 72.375 55.0625 C 72.636719 54.5625 73.042969 54.339844 73.328125 54.777344 Z M 73.328125 54.777344 "/>
<path style=" stroke:none;fill-rule:nonzero;fill:rgb(0%,0%,0%);fill-opacity:1;" d="M 60.164062 54.777344 C 60.164062 55.015625 60.164062 55.242188 60.164062 55.484375 C 60.105469 55.496094 60.105469 55.496094 60.050781 55.507812 C 59.976562 55.523438 59.976562 55.523438 59.898438 55.546875 C 59.851562 55.554688 59.800781 55.566406 59.75 55.578125 C 59.617188 55.613281 59.617188 55.613281 59.484375 55.765625 C 59.46875 57.164062 59.453125 58.558594 59.4375 60 C 59.332031 60 59.230469 60 59.121094 60 C 59.019531 59.359375 59.066406 58.472656 59.066406 57.769531 C 59.066406 57.585938 59.0625 57.402344 59.0625 57.214844 C 59.0625 57.046875 59.0625 56.871094 59.0625 56.6875 C 59.0625 56.527344 59.0625 56.371094 59.0625 56.207031 C 59.078125 55.710938 59.117188 55.453125 59.210938 55.0625 C 59.472656 54.5625 59.882812 54.339844 60.164062 54.777344 Z M 60.164062 54.777344 "/>
</g>
</svg>
