<?xml version="1.0" encoding="UTF-8"?>
<svg xmlns="http://www.w3.org/2000/svg" xmlns:xlink="http://www.w3.org/1999/xlink" width="212px" height="49px" viewBox="0 0 213 49" version="1.1">
<g id="surface1">
<path style=" stroke:none;fill-rule:nonzero;fill:rgb(92.156863%,38.431373%,17.647059%);fill-opacity:1;" d="M 11.054688 10.03125 C 11.136719 10.03125 11.21875 10.03125 11.304688 10.03125 C 11.441406 10.03125 11.441406 10.03125 11.578125 10.03125 C 11.675781 10.03125 11.769531 10.03125 11.871094 10.03125 C 12.195312 10.03125 12.519531 10.03125 12.84375 10.03125 C 13.074219 10.03125 13.308594 10.03125 13.539062 10.03125 C 14.105469 10.027344 14.671875 10.027344 15.238281 10.027344 C 15.699219 10.027344 16.160156 10.027344 16.621094 10.027344 C 17.929688 10.027344 19.238281 10.027344 20.546875 10.027344 C 20.617188 10.027344 20.6875 10.027344 20.761719 10.027344 C 20.867188 10.027344 20.867188 10.027344 20.976562 10.027344 C 22.117188 10.027344 23.257812 10.027344 24.402344 10.023438 C 25.574219 10.023438 26.75 10.023438 27.921875 10.023438 C 28.582031 10.023438 29.238281 10.023438 29.898438 10.019531 C 30.519531 10.019531 31.140625 10.019531 31.761719 10.019531 C 31.988281 10.019531 32.214844 10.019531 32.441406 10.019531 C 35.613281 10.011719 38.773438 10.226562 41.203125 12.511719 C 43.082031 14.476562 43.355469 17.117188 43.347656 19.707031 C 43.347656 19.90625 43.351562 20.109375 43.351562 20.308594 C 43.351562 20.851562 43.351562 21.390625 43.351562 21.929688 C 43.351562 22.382812 43.351562 22.832031 43.351562 23.285156 C 43.355469 24.351562 43.355469 25.417969 43.351562 26.480469 C 43.351562 27.582031 43.351562 28.679688 43.355469 29.777344 C 43.359375 30.722656 43.359375 31.667969 43.359375 32.613281 C 43.355469 33.175781 43.359375 33.738281 43.359375 34.304688 C 43.359375 34.832031 43.359375 35.363281 43.359375 35.890625 C 43.359375 36.085938 43.359375 36.277344 43.359375 36.472656 C 43.359375 36.738281 43.359375 37 43.359375 37.265625 C 43.359375 37.34375 43.359375 37.417969 43.359375 37.5 C 43.355469 38.023438 43.238281 38.335938 42.9375 38.769531 C 42.640625 38.917969 42.324219 38.878906 41.996094 38.878906 C 41.917969 38.878906 41.84375 38.878906 41.761719 38.878906 C 41.503906 38.882812 41.246094 38.882812 40.988281 38.882812 C 40.898438 38.886719 40.8125 38.886719 40.722656 38.886719 C 40.253906 38.886719 39.789062 38.890625 39.324219 38.890625 C 38.84375 38.890625 38.363281 38.894531 37.878906 38.898438 C 37.511719 38.898438 37.140625 38.902344 36.769531 38.902344 C 36.59375 38.902344 36.414062 38.902344 36.238281 38.90625 C 35.988281 38.90625 35.742188 38.90625 35.492188 38.90625 C 35.382812 38.90625 35.382812 38.90625 35.273438 38.910156 C 34.933594 38.90625 34.726562 38.875 34.433594 38.699219 C 34.046875 38.277344 34.023438 37.851562 34.027344 37.300781 C 34.027344 37.226562 34.023438 37.15625 34.023438 37.082031 C 34.023438 36.84375 34.023438 36.605469 34.023438 36.363281 C 34.023438 36.191406 34.023438 36.019531 34.023438 35.847656 C 34.023438 35.480469 34.023438 35.109375 34.023438 34.738281 C 34.019531 34.15625 34.019531 33.570312 34.019531 32.984375 C 34.011719 31.53125 34.011719 30.078125 34.007812 28.625 C 34.007812 27.496094 34.003906 26.367188 34 25.238281 C 34 24.65625 33.996094 24.074219 33.996094 23.492188 C 33.996094 23.132812 33.996094 22.769531 33.996094 22.40625 C 33.996094 22.238281 33.996094 22.074219 33.996094 21.90625 C 33.996094 21.675781 33.992188 21.445312 33.992188 21.21875 C 33.992188 21.152344 33.992188 21.085938 33.996094 21.019531 C 33.988281 20.523438 33.863281 20.164062 33.675781 19.710938 C 33.648438 19.640625 33.617188 19.566406 33.589844 19.488281 C 33.453125 19.285156 33.339844 19.242188 33.113281 19.148438 C 33.007812 19.101562 32.902344 19.050781 32.792969 19.003906 C 32.335938 18.816406 31.941406 18.761719 31.449219 18.761719 C 31.34375 18.761719 31.234375 18.757812 31.121094 18.757812 C 31.003906 18.757812 30.886719 18.757812 30.765625 18.757812 C 30.640625 18.757812 30.515625 18.757812 30.386719 18.757812 C 30.046875 18.757812 29.703125 18.753906 29.363281 18.753906 C 29.148438 18.753906 28.933594 18.753906 28.722656 18.753906 C 28.050781 18.753906 27.382812 18.75 26.714844 18.75 C 25.941406 18.75 25.171875 18.75 24.398438 18.746094 C 23.800781 18.746094 23.203125 18.742188 22.605469 18.742188 C 22.25 18.742188 21.894531 18.742188 21.539062 18.742188 C 21.203125 18.738281 20.867188 18.738281 20.53125 18.742188 C 20.351562 18.742188 20.171875 18.738281 19.988281 18.738281 C 19.28125 18.742188 18.671875 18.761719 18.113281 19.25 C 17.707031 19.980469 17.738281 20.878906 17.714844 21.695312 C 17.710938 21.804688 17.707031 21.910156 17.703125 22.023438 C 17.695312 22.285156 17.6875 22.546875 17.679688 22.808594 C 17.730469 22.808594 17.78125 22.808594 17.835938 22.808594 C 19.082031 22.804688 20.324219 22.796875 21.570312 22.796875 C 22.171875 22.792969 22.773438 22.792969 23.378906 22.789062 C 23.957031 22.785156 24.539062 22.785156 25.121094 22.785156 C 25.34375 22.78125 25.5625 22.78125 25.785156 22.78125 C 26.097656 22.777344 26.40625 22.777344 26.71875 22.777344 C 26.808594 22.777344 26.902344 22.777344 26.996094 22.773438 C 27.507812 22.777344 27.871094 22.804688 28.25 23.1875 C 28.277344 23.675781 28.28125 24.164062 28.28125 24.65625 C 28.285156 24.820312 28.289062 24.988281 28.289062 25.152344 C 28.296875 25.390625 28.296875 25.628906 28.300781 25.867188 C 28.300781 25.941406 28.304688 26.011719 28.304688 26.089844 C 28.304688 26.417969 28.289062 26.613281 28.074219 26.867188 C 27.652344 27.109375 27.28125 27.085938 26.800781 27.078125 C 26.703125 27.078125 26.605469 27.078125 26.503906 27.078125 C 26.179688 27.078125 25.851562 27.074219 25.527344 27.070312 C 25.300781 27.070312 25.074219 27.070312 24.847656 27.070312 C 24.253906 27.066406 23.660156 27.0625 23.066406 27.058594 C 22.460938 27.054688 21.855469 27.054688 21.25 27.054688 C 20.058594 27.046875 18.871094 27.042969 17.679688 27.035156 C 17.691406 27.4375 17.703125 27.84375 17.714844 28.25 C 17.71875 28.363281 17.722656 28.476562 17.722656 28.59375 C 17.730469 29.707031 17.730469 29.707031 18.175781 30.691406 C 18.585938 31.003906 18.921875 31.09375 19.4375 31.097656 C 19.542969 31.097656 19.652344 31.097656 19.761719 31.097656 C 19.933594 31.097656 19.933594 31.097656 20.109375 31.101562 C 20.296875 31.101562 20.480469 31.101562 20.664062 31.105469 C 21.117188 31.109375 21.570312 31.113281 22.019531 31.113281 C 25.203125 31.128906 28.496094 31.269531 31.148438 33.230469 C 31.210938 33.273438 31.273438 33.316406 31.335938 33.363281 C 32.75 34.46875 33.363281 36.246094 33.632812 37.960938 C 33.6875 38.453125 33.6875 38.453125 33.675781 38.675781 C 33.449219 38.902344 33.328125 38.882812 33.015625 38.886719 C 32.949219 38.886719 32.882812 38.886719 32.816406 38.886719 C 32.710938 38.886719 32.710938 38.886719 32.601562 38.886719 C 32.367188 38.886719 32.128906 38.886719 31.894531 38.886719 C 31.722656 38.886719 31.554688 38.886719 31.386719 38.886719 C 30.925781 38.886719 30.464844 38.886719 30.003906 38.886719 C 29.519531 38.886719 29.039062 38.886719 28.554688 38.886719 C 27.742188 38.886719 26.929688 38.886719 26.117188 38.886719 C 25.183594 38.886719 24.246094 38.886719 23.308594 38.886719 C 22.503906 38.886719 21.699219 38.886719 20.894531 38.886719 C 20.414062 38.886719 19.933594 38.886719 19.453125 38.886719 C 19 38.886719 18.550781 38.886719 18.097656 38.886719 C 17.929688 38.886719 17.765625 38.886719 17.601562 38.886719 C 15.644531 38.890625 13.582031 38.761719 12.085938 37.335938 C 10.460938 35.589844 10.449219 33.304688 10.457031 31.058594 C 10.457031 30.828125 10.457031 30.601562 10.457031 30.371094 C 10.457031 29.882812 10.457031 29.390625 10.457031 28.902344 C 10.457031 28.191406 10.460938 27.484375 10.460938 26.773438 C 10.460938 25.625 10.460938 24.476562 10.460938 23.324219 C 10.464844 22.210938 10.464844 21.09375 10.464844 19.976562 C 10.464844 19.90625 10.464844 19.839844 10.46875 19.769531 C 10.46875 19.421875 10.46875 19.078125 10.46875 18.730469 C 10.46875 15.867188 10.472656 13.003906 10.476562 10.136719 C 10.691406 10.03125 10.8125 10.03125 11.054688 10.03125 Z M 11.054688 10.03125 "/>
<path style=" stroke:none;fill-rule:nonzero;fill:rgb(17.647059%,17.647059%,18.039216%);fill-opacity:1;" d="M 10.476562 18.492188 C 10.570312 18.539062 10.570312 18.539062 10.664062 18.585938 C 10.929688 18.597656 11.191406 18.605469 11.457031 18.605469 C 11.539062 18.605469 11.621094 18.605469 11.707031 18.609375 C 11.980469 18.609375 12.25 18.613281 12.523438 18.617188 C 12.710938 18.617188 12.902344 18.621094 13.089844 18.621094 C 13.585938 18.628906 14.082031 18.632812 14.578125 18.636719 C 15.085938 18.640625 15.59375 18.644531 16.097656 18.652344 C 17.09375 18.660156 18.089844 18.671875 19.082031 18.679688 C 19 18.722656 19 18.722656 18.914062 18.765625 C 18.390625 19.027344 18.074219 19.246094 17.867188 19.804688 C 17.75 20.425781 17.742188 21.050781 17.722656 21.679688 C 17.714844 21.839844 17.714844 21.839844 17.707031 22.007812 C 17.699219 22.277344 17.6875 22.542969 17.679688 22.808594 C 17.757812 22.808594 17.757812 22.808594 17.835938 22.808594 C 19.082031 22.804688 20.324219 22.796875 21.570312 22.796875 C 22.171875 22.792969 22.773438 22.792969 23.378906 22.789062 C 23.957031 22.785156 24.539062 22.785156 25.121094 22.785156 C 25.34375 22.78125 25.5625 22.78125 25.785156 22.78125 C 26.097656 22.777344 26.40625 22.777344 26.71875 22.777344 C 26.855469 22.777344 26.855469 22.777344 26.996094 22.773438 C 27.507812 22.777344 27.871094 22.804688 28.25 23.1875 C 28.277344 23.675781 28.28125 24.164062 28.28125 24.65625 C 28.285156 24.820312 28.289062 24.988281 28.289062 25.152344 C 28.296875 25.390625 28.296875 25.628906 28.300781 25.867188 C 28.300781 25.941406 28.304688 26.011719 28.304688 26.089844 C 28.304688 26.417969 28.289062 26.613281 28.074219 26.867188 C 27.652344 27.109375 27.28125 27.085938 26.800781 27.078125 C 26.703125 27.078125 26.605469 27.078125 26.503906 27.078125 C 26.179688 27.078125 25.851562 27.074219 25.527344 27.070312 C 25.300781 27.070312 25.074219 27.070312 24.847656 27.070312 C 24.253906 27.066406 23.660156 27.0625 23.066406 27.058594 C 22.460938 27.054688 21.855469 27.054688 21.25 27.054688 C 20.058594 27.046875 18.871094 27.042969 17.679688 27.035156 C 17.691406 27.4375 17.703125 27.84375 17.714844 28.25 C 17.71875 28.363281 17.722656 28.476562 17.722656 28.59375 C 17.730469 29.707031 17.730469 29.707031 18.175781 30.691406 C 18.585938 31.003906 18.921875 31.09375 19.4375 31.097656 C 19.542969 31.097656 19.652344 31.097656 19.761719 31.097656 C 19.933594 31.097656 19.933594 31.097656 20.109375 31.101562 C 20.296875 31.101562 20.480469 31.101562 20.664062 31.105469 C 21.117188 31.109375 21.570312 31.113281 22.019531 31.113281 C 25.203125 31.128906 28.496094 31.269531 31.148438 33.230469 C 31.210938 33.273438 31.273438 33.316406 31.335938 33.363281 C 32.75 34.46875 33.363281 36.246094 33.632812 37.960938 C 33.6875 38.453125 33.6875 38.453125 33.675781 38.675781 C 33.449219 38.902344 33.328125 38.882812 33.015625 38.886719 C 32.949219 38.886719 32.882812 38.886719 32.816406 38.886719 C 32.710938 38.886719 32.710938 38.886719 32.601562 38.886719 C 32.367188 38.886719 32.128906 38.886719 31.894531 38.886719 C 31.722656 38.886719 31.554688 38.886719 31.386719 38.886719 C 30.925781 38.886719 30.464844 38.886719 30.003906 38.886719 C 29.519531 38.886719 29.039062 38.886719 28.554688 38.886719 C 27.742188 38.886719 26.929688 38.886719 26.117188 38.886719 C 25.183594 38.886719 24.246094 38.886719 23.308594 38.886719 C 22.503906 38.886719 21.699219 38.886719 20.894531 38.886719 C 20.414062 38.886719 19.933594 38.886719 19.453125 38.886719 C 19 38.886719 18.550781 38.886719 18.097656 38.886719 C 17.929688 38.886719 17.765625 38.886719 17.601562 38.886719 C 15.644531 38.890625 13.582031 38.761719 12.085938 37.335938 C 10.671875 35.816406 10.445312 33.820312 10.457031 31.824219 C 10.457031 31.675781 10.457031 31.53125 10.457031 31.386719 C 10.457031 30.992188 10.457031 30.597656 10.457031 30.207031 C 10.460938 29.792969 10.460938 29.378906 10.460938 28.96875 C 10.460938 28.1875 10.460938 27.410156 10.464844 26.628906 C 10.464844 25.742188 10.464844 24.855469 10.46875 23.964844 C 10.46875 22.140625 10.472656 20.316406 10.476562 18.492188 Z M 10.476562 18.492188 "/>
<path style=" stroke:none;fill-rule:nonzero;fill:rgb(94.901961%,56.470591%,12.54902%);fill-opacity:1;" d="M 11.050781 10.03125 C 11.132812 10.03125 11.214844 10.03125 11.300781 10.03125 C 11.390625 10.03125 11.480469 10.03125 11.574219 10.03125 C 11.71875 10.03125 11.71875 10.03125 11.863281 10.03125 C 12.1875 10.03125 12.507812 10.03125 12.832031 10.035156 C 13.0625 10.035156 13.292969 10.035156 13.523438 10.035156 C 14.019531 10.035156 14.519531 10.035156 15.015625 10.035156 C 15.734375 10.035156 16.453125 10.035156 17.171875 10.035156 C 18.335938 10.035156 19.503906 10.035156 20.667969 10.035156 C 21.804688 10.039062 22.9375 10.039062 24.070312 10.039062 C 24.140625 10.039062 24.210938 10.039062 24.28125 10.039062 C 24.832031 10.039062 25.386719 10.039062 25.9375 10.039062 C 28.640625 10.039062 31.34375 10.042969 34.050781 10.042969 C 34.050781 13.484375 34.050781 16.921875 34.050781 20.464844 C 33.988281 20.339844 33.925781 20.214844 33.863281 20.089844 C 33.796875 19.992188 33.730469 19.894531 33.664062 19.792969 C 33.488281 19.523438 33.488281 19.523438 33.488281 19.335938 C 32.675781 18.914062 32.027344 18.761719 31.128906 18.761719 C 31.039062 18.761719 30.953125 18.757812 30.863281 18.757812 C 30.570312 18.757812 30.277344 18.757812 29.984375 18.757812 C 29.773438 18.757812 29.5625 18.757812 29.355469 18.753906 C 28.902344 18.753906 28.449219 18.753906 28 18.753906 C 27.285156 18.75 26.570312 18.75 25.855469 18.746094 C 24.855469 18.742188 23.855469 18.738281 22.855469 18.738281 C 22.792969 18.738281 22.726562 18.738281 22.664062 18.738281 C 21.761719 18.734375 20.859375 18.730469 19.957031 18.730469 C 19.894531 18.730469 19.832031 18.730469 19.765625 18.730469 C 19.703125 18.730469 19.636719 18.730469 19.574219 18.730469 C 18.515625 18.726562 17.457031 18.722656 16.402344 18.71875 C 15.691406 18.714844 14.980469 18.714844 14.269531 18.714844 C 13.828125 18.714844 13.386719 18.710938 12.945312 18.710938 C 12.742188 18.707031 12.535156 18.707031 12.332031 18.707031 C 12.050781 18.707031 11.773438 18.707031 11.492188 18.707031 C 11.410156 18.707031 11.328125 18.707031 11.246094 18.707031 C 10.683594 18.703125 10.683594 18.703125 10.476562 18.492188 C 10.460938 18.226562 10.453125 17.96875 10.457031 17.703125 C 10.457031 17.621094 10.457031 17.542969 10.457031 17.457031 C 10.457031 17.1875 10.457031 16.917969 10.457031 16.644531 C 10.460938 16.460938 10.460938 16.273438 10.460938 16.085938 C 10.460938 15.59375 10.460938 15.097656 10.464844 14.605469 C 10.464844 14.105469 10.46875 13.601562 10.46875 13.097656 C 10.46875 12.113281 10.472656 11.125 10.476562 10.136719 C 10.691406 10.03125 10.8125 10.03125 11.050781 10.03125 Z M 11.050781 10.03125 "/>
<path style=" stroke:none;fill-rule:nonzero;fill:rgb(92.156863%,38.431373%,18.039216%);fill-opacity:1;" d="M 93.824219 9.949219 C 95.246094 9.949219 96.664062 9.949219 98.128906 9.949219 C 98.132812 11.867188 98.136719 13.785156 98.136719 15.699219 C 98.136719 16.589844 98.140625 17.480469 98.140625 18.371094 C 98.144531 19.148438 98.144531 19.925781 98.144531 20.699219 C 98.144531 21.113281 98.144531 21.523438 98.148438 21.933594 C 98.148438 22.320312 98.148438 22.707031 98.148438 23.097656 C 98.148438 23.238281 98.148438 23.378906 98.148438 23.519531 C 98.152344 24.277344 98.125 25.019531 98.042969 25.773438 C 98.035156 25.84375 98.027344 25.914062 98.019531 25.984375 C 97.839844 27.511719 97.25 28.894531 96.351562 30.132812 C 96.308594 30.191406 96.265625 30.253906 96.21875 30.316406 C 95.035156 31.847656 93.070312 32.625 91.222656 32.910156 C 88.808594 33.1875 86.308594 32.78125 84.347656 31.269531 C 82.644531 29.824219 81.714844 27.734375 81.476562 25.53125 C 81.359375 23.15625 81.628906 20.757812 83.25 18.890625 C 84.488281 17.519531 86.15625 16.53125 88.03125 16.40625 C 88.347656 16.394531 88.664062 16.386719 88.984375 16.386719 C 89.085938 16.386719 89.183594 16.382812 89.289062 16.382812 C 90.921875 16.402344 92.277344 16.984375 93.449219 18.105469 C 93.636719 18.304688 93.636719 18.304688 93.730469 18.492188 C 93.777344 14.265625 93.777344 14.265625 93.824219 9.949219 Z M 87.371094 20.933594 C 87.3125 20.976562 87.253906 21.023438 87.195312 21.070312 C 86.433594 21.742188 85.9375 22.878906 85.855469 23.882812 C 85.84375 24.128906 85.84375 24.375 85.84375 24.625 C 85.84375 24.710938 85.84375 24.796875 85.84375 24.886719 C 85.855469 25.515625 85.914062 26.074219 86.152344 26.660156 C 86.199219 26.777344 86.199219 26.777344 86.246094 26.894531 C 86.675781 27.859375 87.335938 28.566406 88.296875 28.992188 C 89.292969 29.355469 90.285156 29.367188 91.285156 29 C 92.308594 28.519531 92.957031 27.789062 93.382812 26.738281 C 93.871094 25.3125 93.914062 23.792969 93.3125 22.394531 C 92.753906 21.285156 92.085938 20.640625 90.925781 20.207031 C 89.671875 19.828125 88.375 20.128906 87.371094 20.933594 Z M 87.371094 20.933594 "/>
<path style=" stroke:none;fill-rule:nonzero;fill:rgb(92.156863%,38.431373%,18.039216%);fill-opacity:1;" d="M 63.890625 16.800781 C 65.28125 16.800781 66.667969 16.800781 68.101562 16.800781 C 68.207031 17.015625 68.207031 17.136719 68.207031 17.375 C 68.207031 17.453125 68.207031 17.535156 68.207031 17.617188 C 68.207031 17.707031 68.207031 17.792969 68.207031 17.886719 C 68.207031 17.980469 68.207031 18.070312 68.207031 18.167969 C 68.207031 18.371094 68.210938 18.574219 68.210938 18.773438 C 68.210938 19.097656 68.210938 19.417969 68.214844 19.738281 C 68.21875 20.648438 68.222656 21.5625 68.222656 22.476562 C 68.226562 23.03125 68.226562 23.589844 68.230469 24.148438 C 68.234375 24.359375 68.234375 24.574219 68.234375 24.785156 C 68.234375 25.082031 68.234375 25.378906 68.238281 25.679688 C 68.238281 25.765625 68.238281 25.851562 68.234375 25.941406 C 68.25 26.839844 68.605469 27.605469 69.222656 28.253906 C 70.039062 28.933594 70.847656 29.253906 71.914062 29.171875 C 72.53125 29.082031 73.007812 28.878906 73.527344 28.535156 C 73.648438 28.457031 73.648438 28.457031 73.777344 28.371094 C 74.460938 27.703125 74.832031 26.863281 74.871094 25.90625 C 74.875 25.738281 74.875 25.570312 74.875 25.402344 C 74.875 25.308594 74.875 25.21875 74.875 25.121094 C 74.878906 24.820312 74.878906 24.515625 74.878906 24.214844 C 74.882812 24.003906 74.882812 23.792969 74.882812 23.582031 C 74.886719 23.027344 74.890625 22.476562 74.890625 21.921875 C 74.894531 21.035156 74.902344 20.148438 74.90625 19.261719 C 74.910156 18.949219 74.910156 18.640625 74.910156 18.328125 C 74.914062 18.140625 74.914062 17.953125 74.914062 17.761719 C 74.914062 17.675781 74.914062 17.589844 74.914062 17.5 C 74.917969 16.90625 74.917969 16.90625 75.023438 16.800781 C 75.152344 16.792969 75.28125 16.789062 75.410156 16.789062 C 75.492188 16.789062 75.574219 16.789062 75.65625 16.789062 C 75.746094 16.789062 75.835938 16.789062 75.929688 16.789062 C 76.019531 16.789062 76.109375 16.789062 76.203125 16.789062 C 76.398438 16.789062 76.589844 16.789062 76.78125 16.789062 C 77.078125 16.789062 77.375 16.789062 77.671875 16.789062 C 77.859375 16.789062 78.046875 16.789062 78.230469 16.789062 C 78.320312 16.789062 78.410156 16.789062 78.503906 16.789062 C 78.585938 16.789062 78.667969 16.789062 78.75 16.789062 C 78.824219 16.789062 78.898438 16.789062 78.972656 16.789062 C 79.136719 16.800781 79.136719 16.800781 79.230469 16.898438 C 79.242188 17.023438 79.246094 17.148438 79.246094 17.273438 C 79.246094 17.355469 79.246094 17.433594 79.246094 17.519531 C 79.246094 17.652344 79.246094 17.652344 79.246094 17.792969 C 79.246094 17.886719 79.246094 17.980469 79.25 18.074219 C 79.25 18.390625 79.25 18.703125 79.25 19.015625 C 79.25 19.234375 79.253906 19.449219 79.253906 19.667969 C 79.253906 20.125 79.253906 20.585938 79.253906 21.042969 C 79.253906 21.625 79.257812 22.210938 79.261719 22.792969 C 79.261719 23.246094 79.261719 23.695312 79.261719 24.144531 C 79.261719 24.359375 79.261719 24.578125 79.265625 24.792969 C 79.277344 27.160156 78.894531 29.226562 77.183594 30.988281 C 76.261719 31.882812 75.066406 32.457031 73.804688 32.667969 C 73.777344 34.679688 73.746094 36.695312 73.710938 38.769531 C 73.5 38.875 73.382812 38.875 73.148438 38.875 C 73.070312 38.875 72.992188 38.875 72.910156 38.878906 C 72.824219 38.878906 72.742188 38.878906 72.65625 38.878906 C 72.566406 38.878906 72.480469 38.878906 72.390625 38.878906 C 72.210938 38.878906 72.027344 38.878906 71.84375 38.878906 C 71.5625 38.878906 71.28125 38.882812 71 38.882812 C 70.824219 38.882812 70.644531 38.882812 70.46875 38.882812 C 70.382812 38.882812 70.300781 38.886719 70.210938 38.886719 C 70.132812 38.886719 70.054688 38.886719 69.976562 38.886719 C 69.90625 38.886719 69.839844 38.886719 69.765625 38.886719 C 69.597656 38.863281 69.597656 38.863281 69.410156 38.675781 C 69.382812 38.425781 69.382812 38.425781 69.378906 38.109375 C 69.378906 37.992188 69.375 37.875 69.375 37.75 C 69.375 37.621094 69.371094 37.492188 69.371094 37.363281 C 69.371094 37.230469 69.367188 37.097656 69.367188 36.964844 C 69.359375 36.617188 69.355469 36.269531 69.355469 35.921875 C 69.351562 35.566406 69.34375 35.210938 69.339844 34.855469 C 69.332031 34.15625 69.324219 33.457031 69.316406 32.761719 C 69.203125 32.722656 69.089844 32.6875 68.972656 32.652344 C 68.820312 32.601562 68.667969 32.550781 68.515625 32.503906 C 68.441406 32.480469 68.367188 32.457031 68.292969 32.429688 C 66.675781 31.902344 65.402344 30.742188 64.609375 29.25 C 64.109375 28.179688 63.875 27.210938 63.878906 26.03125 C 63.878906 25.929688 63.878906 25.832031 63.878906 25.730469 C 63.878906 25.398438 63.878906 25.070312 63.882812 24.742188 C 63.882812 24.511719 63.882812 24.285156 63.882812 24.054688 C 63.882812 23.453125 63.882812 22.855469 63.882812 22.253906 C 63.886719 21.640625 63.886719 21.027344 63.886719 20.414062 C 63.886719 19.210938 63.890625 18.007812 63.890625 16.800781 Z M 63.890625 16.800781 "/>
<path style=" stroke:none;fill-rule:nonzero;fill:rgb(95.294118%,56.862748%,12.54902%);fill-opacity:1;" d="M 172.121094 17.085938 C 173.511719 17.085938 174.898438 17.085938 176.332031 17.085938 C 176.417969 17.339844 176.4375 17.492188 176.4375 17.757812 C 176.4375 17.835938 176.4375 17.917969 176.4375 18 C 176.4375 18.085938 176.4375 18.171875 176.4375 18.261719 C 176.4375 18.355469 176.4375 18.449219 176.4375 18.542969 C 176.4375 18.742188 176.441406 18.941406 176.441406 19.144531 C 176.441406 19.460938 176.441406 19.777344 176.445312 20.09375 C 176.449219 20.996094 176.453125 21.898438 176.453125 22.800781 C 176.457031 23.351562 176.457031 23.90625 176.460938 24.457031 C 176.464844 24.667969 176.464844 24.875 176.464844 25.085938 C 176.464844 25.382812 176.464844 25.675781 176.46875 25.96875 C 176.46875 26.054688 176.46875 26.140625 176.464844 26.230469 C 176.480469 27.148438 176.859375 27.855469 177.453125 28.535156 C 178.140625 29.191406 178.949219 29.421875 179.886719 29.476562 C 180.601562 29.4375 181.164062 29.210938 181.757812 28.816406 C 181.878906 28.738281 181.878906 28.738281 182.007812 28.652344 C 182.691406 27.984375 183.0625 27.144531 183.101562 26.1875 C 183.105469 26.019531 183.105469 25.851562 183.105469 25.683594 C 183.105469 25.589844 183.105469 25.5 183.105469 25.402344 C 183.109375 25.101562 183.109375 24.800781 183.109375 24.496094 C 183.113281 24.285156 183.113281 24.074219 183.113281 23.863281 C 183.117188 23.3125 183.121094 22.757812 183.125 22.203125 C 183.125 21.316406 183.132812 20.429688 183.136719 19.542969 C 183.140625 19.230469 183.140625 18.921875 183.140625 18.609375 C 183.144531 18.421875 183.144531 18.234375 183.144531 18.042969 C 183.144531 17.957031 183.144531 17.871094 183.144531 17.78125 C 183.148438 17.1875 183.148438 17.1875 183.253906 17.085938 C 183.382812 17.074219 183.511719 17.074219 183.640625 17.070312 C 183.722656 17.070312 183.804688 17.070312 183.890625 17.070312 C 183.976562 17.070312 184.066406 17.070312 184.160156 17.070312 C 184.25 17.070312 184.339844 17.070312 184.433594 17.070312 C 184.628906 17.070312 184.820312 17.070312 185.011719 17.070312 C 185.308594 17.074219 185.605469 17.070312 185.902344 17.070312 C 186.089844 17.070312 186.277344 17.070312 186.460938 17.070312 C 186.550781 17.070312 186.640625 17.070312 186.734375 17.070312 C 186.816406 17.070312 186.898438 17.070312 186.980469 17.070312 C 187.054688 17.070312 187.128906 17.074219 187.203125 17.074219 C 187.367188 17.085938 187.367188 17.085938 187.460938 17.179688 C 187.472656 17.304688 187.476562 17.429688 187.476562 17.554688 C 187.476562 17.636719 187.476562 17.71875 187.476562 17.800781 C 187.476562 17.933594 187.476562 17.933594 187.476562 18.074219 C 187.476562 18.167969 187.476562 18.261719 187.480469 18.359375 C 187.480469 18.671875 187.480469 18.984375 187.480469 19.296875 C 187.480469 19.515625 187.484375 19.734375 187.484375 19.949219 C 187.484375 20.410156 187.484375 20.867188 187.484375 21.324219 C 187.484375 21.90625 187.488281 22.492188 187.492188 23.074219 C 187.492188 23.527344 187.492188 23.976562 187.492188 24.429688 C 187.492188 24.644531 187.492188 24.859375 187.496094 25.074219 C 187.507812 27.441406 187.125 29.507812 185.414062 31.269531 C 184.492188 32.164062 183.296875 32.738281 182.035156 32.949219 C 182.007812 34.960938 181.976562 36.976562 181.941406 39.050781 C 181.730469 39.15625 181.613281 39.15625 181.378906 39.15625 C 181.300781 39.15625 181.222656 39.160156 181.140625 39.160156 C 181.054688 39.160156 180.972656 39.160156 180.886719 39.160156 C 180.796875 39.160156 180.710938 39.160156 180.621094 39.160156 C 180.441406 39.160156 180.257812 39.160156 180.074219 39.160156 C 179.792969 39.160156 179.511719 39.164062 179.230469 39.164062 C 179.054688 39.164062 178.875 39.164062 178.699219 39.164062 C 178.613281 39.164062 178.53125 39.167969 178.441406 39.167969 C 178.363281 39.167969 178.285156 39.167969 178.207031 39.167969 C 178.136719 39.167969 178.070312 39.167969 177.996094 39.167969 C 177.828125 39.144531 177.828125 39.144531 177.640625 38.957031 C 177.613281 38.707031 177.613281 38.707031 177.609375 38.382812 C 177.609375 38.261719 177.605469 38.144531 177.605469 38.019531 C 177.605469 37.886719 177.601562 37.753906 177.601562 37.625 C 177.601562 37.488281 177.597656 37.355469 177.597656 37.21875 C 177.589844 36.867188 177.585938 36.511719 177.585938 36.15625 C 177.582031 35.796875 177.574219 35.4375 177.570312 35.074219 C 177.5625 34.367188 177.554688 33.65625 177.546875 32.949219 C 177.445312 32.933594 177.34375 32.921875 177.242188 32.90625 C 175.703125 32.671875 174.410156 31.671875 173.429688 30.507812 C 172.53125 29.253906 172.105469 27.847656 172.109375 26.3125 C 172.109375 26.214844 172.109375 26.113281 172.109375 26.011719 C 172.109375 25.679688 172.113281 25.351562 172.113281 25.023438 C 172.113281 24.792969 172.113281 24.566406 172.113281 24.335938 C 172.113281 23.734375 172.113281 23.136719 172.113281 22.535156 C 172.117188 21.921875 172.117188 21.308594 172.117188 20.695312 C 172.117188 19.492188 172.121094 18.289062 172.121094 17.085938 Z M 172.121094 17.085938 "/>
<path style=" stroke:none;fill-rule:nonzero;fill:rgb(95.294118%,56.862748%,12.54902%);fill-opacity:1;" d="M 147.800781 16.992188 C 147.902344 17.019531 148.003906 17.050781 148.105469 17.082031 C 149.9375 17.714844 151.445312 19.03125 152.320312 20.761719 C 152.9375 22.050781 153.242188 23.398438 153.234375 24.828125 C 153.234375 24.917969 153.234375 25.003906 153.234375 25.09375 C 153.234375 25.378906 153.234375 25.664062 153.234375 25.953125 C 153.234375 26.152344 153.234375 26.351562 153.234375 26.546875 C 153.234375 27.070312 153.234375 27.59375 153.230469 28.117188 C 153.230469 28.742188 153.230469 29.371094 153.230469 30 C 153.230469 30.949219 153.226562 31.902344 153.226562 32.855469 C 151.804688 32.855469 150.386719 32.855469 148.921875 32.855469 C 148.890625 32.078125 148.859375 31.304688 148.828125 30.507812 C 148.667969 30.738281 148.667969 30.738281 148.507812 30.976562 C 147.621094 32.1875 146.457031 32.921875 144.976562 33.1875 C 142.898438 33.425781 141.039062 33.050781 139.378906 31.726562 C 137.714844 30.308594 136.851562 28.21875 136.597656 26.074219 C 136.585938 25.925781 136.578125 25.773438 136.574219 25.625 C 136.570312 25.535156 136.566406 25.445312 136.5625 25.351562 C 136.511719 22.824219 137.28125 20.65625 139.019531 18.816406 C 141.210938 16.664062 144.921875 16.089844 147.800781 16.992188 Z M 141.976562 21.714844 C 141.0625 22.855469 140.832031 24.292969 140.972656 25.71875 C 141.101562 26.59375 141.394531 27.351562 141.90625 28.066406 C 141.972656 28.164062 142.042969 28.265625 142.109375 28.367188 C 142.949219 29.207031 143.917969 29.550781 145.085938 29.570312 C 146.121094 29.507812 147.042969 29.121094 147.746094 28.34375 C 148.78125 27.039062 148.980469 25.554688 148.828125 23.9375 C 148.621094 22.777344 148.050781 21.773438 147.144531 21.027344 C 145.445312 19.855469 143.34375 20.238281 141.976562 21.714844 Z M 141.976562 21.714844 "/>
<path style=" stroke:none;fill-rule:nonzero;fill:rgb(95.294118%,56.862748%,12.54902%);fill-opacity:1;" d="M 132.488281 17.929688 C 134.222656 19.234375 134.921875 21.148438 135.324219 23.207031 C 135.378906 23.753906 135.371094 24.300781 135.371094 24.851562 C 135.371094 24.96875 135.371094 25.082031 135.371094 25.203125 C 135.371094 25.367188 135.371094 25.367188 135.371094 25.535156 C 135.371094 25.636719 135.371094 25.738281 135.371094 25.839844 C 135.359375 26.097656 135.359375 26.097656 135.265625 26.378906 C 131.777344 26.378906 128.289062 26.378906 124.695312 26.378906 C 125.308594 27.609375 125.695312 28.265625 126.964844 28.746094 C 127.894531 29.046875 128.769531 29.113281 129.738281 29.128906 C 129.84375 29.132812 129.949219 29.132812 130.058594 29.136719 C 130.390625 29.140625 130.722656 29.148438 131.054688 29.152344 C 131.28125 29.15625 131.507812 29.160156 131.734375 29.164062 C 132.289062 29.175781 132.839844 29.183594 133.394531 29.195312 C 133.394531 30.402344 133.394531 31.609375 133.394531 32.855469 C 132.691406 32.859375 131.988281 32.867188 131.289062 32.867188 C 130.960938 32.871094 130.632812 32.871094 130.304688 32.875 C 127.449219 32.902344 124.613281 32.695312 122.445312 30.601562 C 122.320312 30.476562 122.199219 30.351562 122.074219 30.226562 C 122.011719 30.164062 121.949219 30.101562 121.886719 30.039062 C 120.363281 28.433594 120.0625 26.335938 120.085938 24.210938 C 120.132812 22.40625 120.746094 20.734375 121.886719 19.335938 C 121.964844 19.238281 121.964844 19.238281 122.042969 19.136719 C 124.441406 16.152344 129.445312 15.890625 132.488281 17.929688 Z M 126.285156 20.652344 C 126.226562 20.683594 126.167969 20.710938 126.105469 20.746094 C 125.261719 21.253906 124.914062 22.230469 124.660156 23.132812 C 124.597656 23.347656 124.597656 23.347656 124.601562 23.46875 C 126.730469 23.46875 128.859375 23.46875 131.054688 23.46875 C 130.941406 22.425781 130.730469 21.617188 129.945312 20.898438 C 128.890625 20.089844 127.441406 20.011719 126.285156 20.652344 Z M 126.285156 20.652344 "/>
<path style=" stroke:none;fill-rule:nonzero;fill:rgb(92.156863%,38.431373%,18.039216%);fill-opacity:1;" d="M 112.347656 17.460938 C 112.753906 17.773438 113.113281 18.125 113.46875 18.492188 C 113.53125 18.550781 113.59375 18.613281 113.65625 18.671875 C 114.902344 19.945312 115.445312 22.105469 115.445312 23.839844 C 115.445312 23.957031 115.445312 24.078125 115.445312 24.203125 C 115.445312 24.324219 115.445312 24.449219 115.445312 24.578125 C 115.445312 24.703125 115.445312 24.828125 115.445312 24.957031 C 115.445312 25.136719 115.445312 25.136719 115.445312 25.316406 C 115.445312 25.425781 115.445312 25.535156 115.445312 25.648438 C 115.433594 25.90625 115.433594 25.90625 115.339844 26.097656 C 111.882812 26.125 108.425781 26.15625 104.863281 26.191406 C 105.535156 27.535156 106.019531 28.121094 107.410156 28.609375 C 108.21875 28.832031 109.066406 28.835938 109.898438 28.847656 C 110 28.851562 110.101562 28.851562 110.207031 28.855469 C 110.53125 28.859375 110.859375 28.867188 111.183594 28.871094 C 111.40625 28.875 111.625 28.878906 111.847656 28.882812 C 112.386719 28.894531 112.929688 28.902344 113.46875 28.910156 C 113.46875 30.121094 113.46875 31.328125 113.46875 32.574219 C 112.765625 32.578125 112.066406 32.585938 111.363281 32.585938 C 111.035156 32.589844 110.707031 32.589844 110.382812 32.59375 C 107.453125 32.621094 104.667969 32.363281 102.445312 30.253906 C 101.339844 29.15625 100.59375 27.8125 100.28125 26.285156 C 100.253906 26.164062 100.253906 26.164062 100.226562 26.039062 C 99.933594 23.773438 100.28125 21.285156 101.683594 19.429688 C 101.949219 19.101562 102.230469 18.792969 102.523438 18.492188 C 102.59375 18.417969 102.664062 18.347656 102.738281 18.273438 C 105.121094 15.957031 109.585938 15.660156 112.347656 17.460938 Z M 105.613281 21.027344 C 105.085938 21.683594 104.769531 22.339844 104.769531 23.1875 C 106.867188 23.1875 108.96875 23.1875 111.128906 23.1875 C 111.027344 22.160156 110.808594 21.398438 110.101562 20.652344 C 108.734375 19.550781 106.773438 19.753906 105.613281 21.027344 Z M 105.613281 21.027344 "/>
<path style=" stroke:none;fill-rule:nonzero;fill:rgb(95.294118%,56.862748%,12.54902%);fill-opacity:1;" d="M 160.589844 17.074219 C 160.671875 17.074219 160.753906 17.074219 160.835938 17.074219 C 161.105469 17.074219 161.371094 17.074219 161.640625 17.074219 C 161.828125 17.074219 162.011719 17.074219 162.199219 17.074219 C 162.6875 17.074219 163.175781 17.078125 163.664062 17.078125 C 164.25 17.078125 164.839844 17.078125 165.425781 17.078125 C 166.316406 17.082031 167.207031 17.082031 168.097656 17.085938 C 168.097656 18.292969 168.097656 19.5 168.097656 20.746094 C 167.578125 20.746094 167.058594 20.75 166.523438 20.753906 C 166.191406 20.753906 165.863281 20.757812 165.53125 20.761719 C 165.007812 20.765625 164.484375 20.769531 163.960938 20.769531 C 163.539062 20.773438 163.117188 20.773438 162.695312 20.78125 C 162.535156 20.78125 162.375 20.78125 162.214844 20.78125 C 161.988281 20.78125 161.761719 20.785156 161.535156 20.789062 C 161.46875 20.789062 161.402344 20.785156 161.335938 20.785156 C 160.867188 20.796875 160.601562 20.921875 160.242188 21.214844 C 160.078125 21.539062 160.089844 21.890625 160.148438 22.246094 C 160.351562 22.503906 160.507812 22.664062 160.800781 22.808594 C 160.933594 22.820312 161.066406 22.824219 161.195312 22.824219 C 161.277344 22.824219 161.359375 22.828125 161.445312 22.828125 C 161.578125 22.828125 161.578125 22.828125 161.710938 22.832031 C 161.902344 22.832031 162.089844 22.835938 162.28125 22.839844 C 162.578125 22.84375 162.875 22.84375 163.171875 22.847656 C 165.054688 22.867188 167.023438 22.921875 168.472656 24.3125 C 169.578125 25.527344 169.679688 27.007812 169.613281 28.578125 C 169.523438 29.738281 168.828125 30.84375 168.003906 31.632812 C 166.953125 32.527344 165.765625 32.871094 164.414062 32.863281 C 164.328125 32.863281 164.238281 32.863281 164.148438 32.863281 C 163.863281 32.863281 163.578125 32.863281 163.292969 32.863281 C 163.09375 32.863281 162.898438 32.863281 162.699219 32.863281 C 162.175781 32.863281 161.65625 32.863281 161.132812 32.859375 C 160.601562 32.859375 160.070312 32.859375 159.539062 32.859375 C 158.492188 32.859375 157.449219 32.855469 156.40625 32.855469 C 156.40625 31.644531 156.40625 30.4375 156.40625 29.195312 C 156.964844 29.191406 157.519531 29.1875 158.09375 29.183594 C 158.449219 29.179688 158.804688 29.175781 159.15625 29.175781 C 159.71875 29.167969 160.28125 29.164062 160.84375 29.160156 C 161.296875 29.160156 161.75 29.15625 162.203125 29.148438 C 162.375 29.148438 162.546875 29.148438 162.71875 29.148438 C 162.960938 29.144531 163.203125 29.144531 163.445312 29.140625 C 163.550781 29.140625 163.550781 29.140625 163.660156 29.140625 C 164.164062 29.132812 164.648438 29.046875 165.105469 28.816406 C 165.304688 28.453125 165.34375 28.101562 165.292969 27.691406 C 165.089844 27.273438 164.890625 27.074219 164.460938 26.902344 C 164.082031 26.796875 163.699219 26.808594 163.3125 26.8125 C 163.125 26.808594 162.9375 26.808594 162.75 26.808594 C 162.457031 26.804688 162.167969 26.804688 161.875 26.804688 C 160.074219 26.804688 158.230469 26.707031 156.875 25.34375 C 155.890625 24.167969 155.664062 22.808594 155.75 21.308594 C 155.945312 19.96875 156.632812 18.878906 157.664062 18.019531 C 158.578125 17.34375 159.460938 17.070312 160.589844 17.074219 Z M 160.589844 17.074219 "/>
<path style=" stroke:none;fill-rule:nonzero;fill:rgb(92.156863%,38.431373%,18.039216%);fill-opacity:1;" d="M 58.199219 16.765625 C 58.382812 16.765625 58.382812 16.765625 58.566406 16.769531 C 58.882812 16.769531 59.199219 16.773438 59.515625 16.777344 C 59.839844 16.78125 60.167969 16.78125 60.492188 16.785156 C 61.125 16.789062 61.757812 16.796875 62.394531 16.800781 C 62.394531 18.011719 62.394531 19.21875 62.394531 20.464844 C 62.113281 20.46875 61.835938 20.472656 61.546875 20.476562 C 61.277344 20.484375 61.007812 20.488281 60.734375 20.492188 C 60.546875 20.496094 60.359375 20.5 60.171875 20.503906 C 59.902344 20.507812 59.632812 20.511719 59.359375 20.519531 C 59.277344 20.519531 59.191406 20.519531 59.105469 20.523438 C 59.027344 20.523438 58.949219 20.527344 58.867188 20.527344 C 58.800781 20.527344 58.730469 20.53125 58.660156 20.53125 C 58.429688 20.5625 58.285156 20.617188 58.089844 20.746094 C 57.910156 21.035156 57.878906 21.261719 57.878906 21.601562 C 57.875 21.699219 57.875 21.792969 57.875 21.894531 C 57.875 22 57.875 22.105469 57.875 22.214844 C 57.871094 22.382812 57.871094 22.382812 57.871094 22.554688 C 57.867188 22.859375 57.867188 23.164062 57.867188 23.472656 C 57.863281 23.792969 57.863281 24.109375 57.859375 24.429688 C 57.855469 25.035156 57.851562 25.644531 57.847656 26.25 C 57.84375 26.9375 57.839844 27.628906 57.835938 28.316406 C 57.824219 29.734375 57.816406 31.152344 57.808594 32.574219 C 56.390625 32.574219 54.96875 32.574219 53.507812 32.574219 C 53.5 31 53.496094 29.429688 53.492188 27.859375 C 53.492188 27.128906 53.488281 26.398438 53.484375 25.667969 C 53.484375 25.03125 53.480469 24.394531 53.480469 23.757812 C 53.480469 23.421875 53.480469 23.085938 53.476562 22.75 C 53.476562 22.371094 53.476562 21.996094 53.476562 21.617188 C 53.472656 21.507812 53.472656 21.398438 53.472656 21.285156 C 53.476562 20.003906 53.78125 18.855469 54.65625 17.894531 C 55.648438 16.945312 56.875 16.742188 58.199219 16.765625 Z M 58.199219 16.765625 "/>
<path style=" stroke:none;fill-rule:nonzero;fill:rgb(18.431373%,18.039216%,18.039216%);fill-opacity:1;" d="M 177.546875 32.949219 C 179.027344 32.949219 180.511719 32.949219 182.035156 32.949219 C 182.007812 34.960938 181.976562 36.976562 181.941406 39.050781 C 181.730469 39.15625 181.613281 39.15625 181.378906 39.15625 C 181.300781 39.15625 181.222656 39.160156 181.140625 39.160156 C 181.054688 39.160156 180.972656 39.160156 180.886719 39.160156 C 180.796875 39.160156 180.710938 39.160156 180.621094 39.160156 C 180.441406 39.160156 180.257812 39.160156 180.074219 39.160156 C 179.792969 39.160156 179.511719 39.164062 179.230469 39.164062 C 179.054688 39.164062 178.875 39.164062 178.699219 39.164062 C 178.613281 39.164062 178.53125 39.167969 178.441406 39.167969 C 178.324219 39.167969 178.324219 39.167969 178.207031 39.167969 C 178.136719 39.167969 178.070312 39.167969 177.996094 39.167969 C 177.828125 39.144531 177.828125 39.144531 177.640625 38.957031 C 177.613281 38.707031 177.613281 38.707031 177.609375 38.382812 C 177.609375 38.261719 177.605469 38.144531 177.605469 38.019531 C 177.605469 37.886719 177.601562 37.753906 177.601562 37.625 C 177.601562 37.488281 177.597656 37.355469 177.597656 37.21875 C 177.589844 36.867188 177.585938 36.511719 177.585938 36.15625 C 177.578125 35.734375 177.574219 35.308594 177.570312 34.882812 C 177.558594 34.238281 177.554688 33.59375 177.546875 32.949219 Z M 177.546875 32.949219 "/>
<path style=" stroke:none;fill-rule:nonzero;fill:rgb(0%,0%,0%);fill-opacity:1;" d="M 156.179688 36.226562 C 156.289062 36.230469 156.289062 36.230469 156.40625 36.234375 C 156.632812 36.859375 156.789062 37.488281 156.933594 38.132812 C 157.015625 38.507812 157.015625 38.507812 157.152344 38.863281 C 157.402344 38.117188 157.648438 37.375 157.902344 36.609375 C 158.464844 36.515625 158.464844 36.515625 158.652344 36.609375 C 158.730469 36.792969 158.730469 36.792969 158.8125 37.035156 C 158.839844 37.125 158.871094 37.210938 158.898438 37.300781 C 158.929688 37.390625 158.960938 37.484375 158.988281 37.578125 C 159.035156 37.714844 159.035156 37.714844 159.082031 37.851562 C 159.210938 38.242188 159.304688 38.539062 159.304688 38.957031 C 159.367188 38.957031 159.429688 38.957031 159.492188 38.957031 C 159.503906 38.871094 159.515625 38.785156 159.523438 38.695312 C 159.59375 38.199219 159.714844 37.714844 159.824219 37.226562 C 159.859375 37.082031 159.859375 37.082031 159.890625 36.9375 C 159.945312 36.703125 160 36.46875 160.054688 36.234375 C 160.238281 36.234375 160.425781 36.234375 160.617188 36.234375 C 160.769531 36.707031 160.632812 37.09375 160.503906 37.554688 C 160.472656 37.671875 160.472656 37.671875 160.4375 37.792969 C 160.023438 39.300781 160.023438 39.300781 159.773438 39.800781 C 159.527344 39.800781 159.28125 39.800781 159.023438 39.800781 C 158.777344 39.058594 158.53125 38.3125 158.277344 37.546875 C 158.035156 38.253906 158.035156 38.253906 157.792969 38.960938 C 157.761719 39.046875 157.730469 39.136719 157.699219 39.226562 C 157.671875 39.316406 157.640625 39.40625 157.609375 39.5 C 157.527344 39.707031 157.527344 39.707031 157.433594 39.800781 C 157.214844 39.804688 157 39.804688 156.78125 39.800781 C 156.472656 39.167969 156.273438 38.535156 156.101562 37.851562 C 156.078125 37.757812 156.050781 37.664062 156.027344 37.5625 C 155.820312 36.757812 155.820312 36.757812 155.84375 36.328125 C 155.9375 36.234375 155.9375 36.234375 156.179688 36.226562 Z M 156.179688 36.226562 "/>
<path style=" stroke:none;fill-rule:nonzero;fill:rgb(0%,0%,0%);fill-opacity:1;" d="M 130.960938 34.917969 C 131.179688 34.917969 131.394531 34.917969 131.617188 34.917969 C 131.726562 35.136719 131.722656 35.265625 131.726562 35.507812 C 131.730469 35.59375 131.730469 35.675781 131.734375 35.761719 C 131.738281 36.140625 131.742188 36.519531 131.742188 36.902344 C 131.746094 37.101562 131.746094 37.300781 131.75 37.5 C 131.753906 37.789062 131.757812 38.078125 131.757812 38.367188 C 131.761719 38.457031 131.761719 38.546875 131.765625 38.640625 C 131.765625 39.070312 131.757812 39.265625 131.492188 39.621094 C 131.101562 39.902344 130.796875 39.910156 130.324219 39.917969 C 130.15625 39.921875 130.15625 39.921875 129.984375 39.925781 C 129.484375 39.878906 129.1875 39.710938 128.832031 39.359375 C 128.421875 38.816406 128.398438 38.230469 128.484375 37.578125 C 128.605469 36.976562 128.894531 36.675781 129.371094 36.328125 C 129.675781 36.226562 129.902344 36.222656 130.21875 36.222656 C 130.320312 36.222656 130.417969 36.222656 130.519531 36.222656 C 130.773438 36.234375 130.773438 36.234375 130.960938 36.328125 C 130.960938 35.863281 130.960938 35.398438 130.960938 34.917969 Z M 129.371094 37.171875 C 129.101562 37.613281 129.136719 38.078125 129.183594 38.582031 C 129.332031 38.9375 129.515625 39.125 129.839844 39.332031 C 130.074219 39.367188 130.074219 39.367188 130.320312 39.355469 C 130.441406 39.351562 130.441406 39.351562 130.566406 39.351562 C 130.777344 39.34375 130.777344 39.34375 130.960938 39.238281 C 130.96875 38.867188 130.976562 38.496094 130.980469 38.121094 C 130.980469 38.015625 130.984375 37.910156 130.988281 37.800781 C 130.988281 37.699219 130.988281 37.601562 130.988281 37.496094 C 130.992188 37.402344 130.992188 37.308594 130.992188 37.210938 C 130.984375 37.136719 130.972656 37.0625 130.960938 36.984375 C 130.417969 36.621094 129.816406 36.683594 129.371094 37.171875 Z M 129.371094 37.171875 "/>
<path style=" stroke:none;fill-rule:nonzero;fill:rgb(0%,0%,0%);fill-opacity:1;" d="M 161.457031 34.917969 C 161.640625 34.917969 161.828125 34.917969 162.019531 34.917969 C 162.199219 35.101562 162.148438 35.433594 162.164062 35.675781 C 162.171875 35.796875 162.179688 35.917969 162.1875 36.042969 C 162.195312 36.136719 162.199219 36.230469 162.207031 36.328125 C 162.296875 36.296875 162.390625 36.265625 162.484375 36.234375 C 163.007812 36.1875 163.460938 36.167969 163.941406 36.386719 C 164.273438 36.710938 164.433594 37.011719 164.484375 37.476562 C 164.480469 37.636719 164.480469 37.636719 164.476562 37.800781 C 164.476562 37.976562 164.476562 37.976562 164.476562 38.15625 C 164.472656 38.277344 164.46875 38.398438 164.46875 38.523438 C 164.464844 38.707031 164.464844 38.707031 164.464844 38.894531 C 164.460938 39.195312 164.457031 39.5 164.449219 39.800781 C 164.261719 39.804688 164.078125 39.804688 163.890625 39.800781 C 163.726562 39.640625 163.777344 39.417969 163.773438 39.199219 C 163.769531 39.09375 163.765625 38.988281 163.761719 38.882812 C 163.757812 38.664062 163.753906 38.441406 163.746094 38.222656 C 163.742188 38.066406 163.742188 38.066406 163.738281 37.90625 C 163.734375 37.8125 163.734375 37.714844 163.730469 37.617188 C 163.703125 37.359375 163.65625 37.203125 163.515625 36.984375 C 163.296875 36.875 163.15625 36.875 162.914062 36.875 C 162.839844 36.871094 162.765625 36.871094 162.691406 36.871094 C 162.457031 36.878906 162.457031 36.878906 162.207031 37.078125 C 162.15625 37.359375 162.15625 37.359375 162.15625 37.691406 C 162.15625 37.816406 162.152344 37.9375 162.148438 38.0625 C 162.144531 38.191406 162.144531 38.320312 162.140625 38.453125 C 162.136719 38.582031 162.136719 38.710938 162.132812 38.84375 C 162.125 39.160156 162.117188 39.480469 162.113281 39.800781 C 161.894531 39.800781 161.679688 39.800781 161.457031 39.800781 C 161.457031 38.191406 161.457031 36.578125 161.457031 34.917969 Z M 161.457031 34.917969 "/>
<path style=" stroke:none;fill-rule:nonzero;fill:rgb(0%,0%,0%);fill-opacity:1;" d="M 174.378906 36.292969 C 174.804688 36.511719 175.0625 36.820312 175.207031 37.265625 C 175.234375 37.527344 175.226562 37.753906 175.207031 38.015625 C 174.804688 38.164062 174.421875 38.25 173.996094 38.3125 C 173.890625 38.328125 173.78125 38.34375 173.667969 38.359375 C 173.335938 38.394531 173.015625 38.398438 172.683594 38.394531 C 172.851562 38.773438 172.976562 39.023438 173.335938 39.238281 C 173.882812 39.316406 174.417969 39.269531 174.925781 39.050781 C 174.988281 39.171875 175.050781 39.296875 175.113281 39.425781 C 174.816406 39.746094 174.636719 39.878906 174.191406 39.917969 C 173.390625 39.933594 172.863281 39.867188 172.273438 39.308594 C 171.898438 38.671875 171.886719 38.066406 172.027344 37.359375 C 172.203125 36.863281 172.457031 36.628906 172.871094 36.328125 C 173.347656 36.167969 173.890625 36.144531 174.378906 36.292969 Z M 172.777344 37.265625 C 172.746094 37.484375 172.714844 37.699219 172.683594 37.921875 C 173.269531 37.863281 173.855469 37.800781 174.460938 37.734375 C 174.601562 37.359375 174.601562 37.359375 174.378906 37.054688 C 174.15625 36.8125 173.992188 36.75 173.664062 36.730469 C 173.230469 36.765625 173.027344 36.898438 172.777344 37.265625 Z M 172.777344 37.265625 "/>
<path style=" stroke:none;fill-rule:nonzero;fill:rgb(0%,0%,0%);fill-opacity:1;" d="M 167.738281 36.292969 C 168.160156 36.511719 168.417969 36.820312 168.566406 37.265625 C 168.59375 37.527344 168.585938 37.753906 168.566406 38.015625 C 168.164062 38.164062 167.78125 38.25 167.355469 38.3125 C 167.246094 38.328125 167.136719 38.34375 167.027344 38.359375 C 166.695312 38.394531 166.375 38.398438 166.039062 38.394531 C 166.210938 38.773438 166.335938 39.023438 166.695312 39.238281 C 167.242188 39.316406 167.777344 39.269531 168.285156 39.050781 C 168.347656 39.171875 168.410156 39.296875 168.472656 39.425781 C 168.175781 39.746094 167.996094 39.878906 167.550781 39.917969 C 166.75 39.933594 166.222656 39.867188 165.632812 39.308594 C 165.257812 38.671875 165.242188 38.066406 165.386719 37.359375 C 165.5625 36.863281 165.816406 36.628906 166.226562 36.328125 C 166.707031 36.167969 167.25 36.144531 167.738281 36.292969 Z M 166.132812 37.265625 C 166.105469 37.484375 166.074219 37.699219 166.039062 37.921875 C 166.628906 37.863281 167.214844 37.800781 167.816406 37.734375 C 167.957031 37.359375 167.957031 37.359375 167.738281 37.054688 C 167.515625 36.8125 167.351562 36.75 167.023438 36.730469 C 166.585938 36.765625 166.386719 36.898438 166.132812 37.265625 Z M 166.132812 37.265625 "/>
<path style=" stroke:none;fill-rule:nonzero;fill:rgb(0%,0%,0%);fill-opacity:1;" d="M 147.8125 36.292969 C 148.238281 36.511719 148.496094 36.820312 148.640625 37.265625 C 148.667969 37.527344 148.660156 37.753906 148.640625 38.015625 C 148.238281 38.164062 147.855469 38.25 147.429688 38.3125 C 147.324219 38.328125 147.214844 38.34375 147.101562 38.359375 C 146.769531 38.394531 146.449219 38.398438 146.117188 38.394531 C 146.285156 38.773438 146.410156 39.023438 146.769531 39.238281 C 147.316406 39.316406 147.851562 39.269531 148.359375 39.050781 C 148.421875 39.171875 148.484375 39.296875 148.546875 39.425781 C 148.25 39.746094 148.070312 39.878906 147.625 39.917969 C 146.824219 39.933594 146.296875 39.867188 145.707031 39.308594 C 145.332031 38.671875 145.320312 38.066406 145.460938 37.359375 C 145.636719 36.863281 145.890625 36.628906 146.304688 36.328125 C 146.78125 36.167969 147.324219 36.144531 147.8125 36.292969 Z M 146.210938 37.265625 C 146.179688 37.484375 146.148438 37.699219 146.117188 37.921875 C 146.703125 37.863281 147.289062 37.800781 147.894531 37.734375 C 148.03125 37.359375 148.03125 37.359375 147.8125 37.054688 C 147.589844 36.8125 147.425781 36.75 147.097656 36.730469 C 146.664062 36.765625 146.460938 36.898438 146.210938 37.265625 Z M 146.210938 37.265625 "/>
<path style=" stroke:none;fill-rule:nonzero;fill:rgb(0%,0%,0%);fill-opacity:1;" d="M 140.328125 36.292969 C 140.753906 36.511719 141.011719 36.820312 141.15625 37.265625 C 141.1875 37.527344 141.175781 37.753906 141.15625 38.015625 C 140.753906 38.164062 140.371094 38.25 139.949219 38.3125 C 139.839844 38.328125 139.730469 38.34375 139.617188 38.359375 C 139.285156 38.394531 138.964844 38.398438 138.632812 38.394531 C 138.800781 38.773438 138.925781 39.023438 139.289062 39.238281 C 139.832031 39.316406 140.367188 39.269531 140.878906 39.050781 C 140.9375 39.171875 141 39.296875 141.066406 39.425781 C 140.765625 39.746094 140.585938 39.878906 140.144531 39.917969 C 139.339844 39.933594 138.8125 39.867188 138.222656 39.308594 C 137.847656 38.671875 137.835938 38.066406 137.976562 37.359375 C 138.15625 36.863281 138.40625 36.628906 138.820312 36.328125 C 139.300781 36.167969 139.84375 36.144531 140.328125 36.292969 Z M 138.726562 37.265625 C 138.695312 37.484375 138.664062 37.699219 138.632812 37.921875 C 139.21875 37.863281 139.804688 37.800781 140.410156 37.734375 C 140.550781 37.359375 140.550781 37.359375 140.328125 37.054688 C 140.105469 36.8125 139.941406 36.75 139.613281 36.730469 C 139.179688 36.765625 138.976562 36.898438 138.726562 37.265625 Z M 138.726562 37.265625 "/>
<path style=" stroke:none;fill-rule:nonzero;fill:rgb(0%,0%,0%);fill-opacity:1;" d="M 134.996094 36.292969 C 135.421875 36.511719 135.679688 36.820312 135.824219 37.265625 C 135.855469 37.527344 135.84375 37.753906 135.824219 38.015625 C 135.421875 38.164062 135.039062 38.25 134.617188 38.3125 C 134.507812 38.328125 134.398438 38.34375 134.285156 38.359375 C 133.953125 38.394531 133.632812 38.398438 133.300781 38.394531 C 133.46875 38.773438 133.59375 39.023438 133.957031 39.238281 C 134.5 39.316406 135.035156 39.269531 135.546875 39.050781 C 135.605469 39.171875 135.667969 39.296875 135.734375 39.425781 C 135.433594 39.746094 135.253906 39.878906 134.8125 39.917969 C 134.011719 39.933594 133.480469 39.867188 132.890625 39.308594 C 132.515625 38.671875 132.503906 38.066406 132.644531 37.359375 C 132.824219 36.863281 133.074219 36.628906 133.488281 36.328125 C 133.96875 36.167969 134.511719 36.144531 134.996094 36.292969 Z M 133.394531 37.265625 C 133.363281 37.484375 133.332031 37.699219 133.300781 37.921875 C 133.886719 37.863281 134.472656 37.800781 135.078125 37.734375 C 135.21875 37.359375 135.21875 37.359375 134.996094 37.054688 C 134.773438 36.8125 134.609375 36.75 134.28125 36.730469 C 133.847656 36.765625 133.644531 36.898438 133.394531 37.265625 Z M 133.394531 37.265625 "/>
<path style=" stroke:none;fill-rule:nonzero;fill:rgb(0%,0%,0%);fill-opacity:1;" d="M 152.101562 36.234375 C 152.320312 36.203125 152.320312 36.203125 152.570312 36.234375 C 152.789062 36.542969 152.925781 36.871094 153.0625 37.222656 C 153.117188 37.363281 153.117188 37.363281 153.175781 37.511719 C 153.230469 37.660156 153.230469 37.660156 153.289062 37.8125 C 153.328125 37.914062 153.367188 38.011719 153.40625 38.117188 C 153.503906 38.367188 153.597656 38.613281 153.691406 38.863281 C 154.023438 38.121094 154.265625 37.390625 154.460938 36.605469 C 154.535156 36.328125 154.535156 36.328125 154.628906 36.234375 C 154.816406 36.230469 155.003906 36.230469 155.191406 36.234375 C 155.222656 36.855469 155.113281 37.339844 154.910156 37.921875 C 154.878906 38.007812 154.851562 38.09375 154.820312 38.183594 C 153.972656 40.59375 153.972656 40.59375 153.132812 41.207031 C 152.808594 41.253906 152.808594 41.253906 152.570312 41.207031 C 152.5 41.050781 152.5 41.050781 152.476562 40.832031 C 152.625 40.609375 152.625 40.609375 152.832031 40.371094 C 153.101562 40.0625 153.28125 39.8125 153.414062 39.425781 C 153.320312 39.394531 153.226562 39.363281 153.132812 39.332031 C 153.011719 39.121094 152.914062 38.921875 152.816406 38.703125 C 152.789062 38.640625 152.757812 38.578125 152.730469 38.515625 C 151.976562 36.8125 151.976562 36.8125 152.042969 36.382812 C 152.0625 36.335938 152.082031 36.285156 152.101562 36.234375 Z M 152.101562 36.234375 "/>
<path style=" stroke:none;fill-rule:nonzero;fill:rgb(0%,0%,0%);fill-opacity:1;" d="M 124.882812 36.234375 C 125.097656 36.203125 125.097656 36.203125 125.347656 36.234375 C 125.566406 36.542969 125.707031 36.871094 125.839844 37.222656 C 125.898438 37.363281 125.898438 37.363281 125.953125 37.511719 C 126.011719 37.660156 126.011719 37.660156 126.066406 37.8125 C 126.105469 37.914062 126.144531 38.011719 126.1875 38.117188 C 126.28125 38.367188 126.375 38.613281 126.472656 38.863281 C 126.800781 38.121094 127.046875 37.390625 127.238281 36.605469 C 127.3125 36.328125 127.3125 36.328125 127.40625 36.234375 C 127.59375 36.230469 127.78125 36.230469 127.96875 36.234375 C 128.003906 36.855469 127.890625 37.339844 127.6875 37.921875 C 127.660156 38.007812 127.628906 38.09375 127.597656 38.183594 C 126.75 40.59375 126.75 40.59375 125.910156 41.207031 C 125.589844 41.253906 125.589844 41.253906 125.347656 41.207031 C 125.28125 41.050781 125.28125 41.050781 125.253906 40.832031 C 125.402344 40.609375 125.402344 40.609375 125.613281 40.371094 C 125.878906 40.0625 126.0625 39.8125 126.191406 39.425781 C 126.097656 39.394531 126.003906 39.363281 125.910156 39.332031 C 125.792969 39.121094 125.691406 38.921875 125.59375 38.703125 C 125.566406 38.640625 125.539062 38.578125 125.507812 38.515625 C 124.757812 36.8125 124.757812 36.8125 124.824219 36.382812 C 124.84375 36.335938 124.863281 36.285156 124.882812 36.234375 Z M 124.882812 36.234375 "/>
<path style=" stroke:none;fill-rule:nonzero;fill:rgb(0%,0%,0%);fill-opacity:1;" d="M 141.71875 36.234375 C 141.9375 36.203125 141.9375 36.203125 142.1875 36.234375 C 142.40625 36.542969 142.535156 36.859375 142.65625 37.21875 C 142.6875 37.3125 142.71875 37.410156 142.753906 37.507812 C 142.785156 37.605469 142.820312 37.703125 142.855469 37.804688 C 142.917969 38.003906 142.988281 38.199219 143.054688 38.398438 C 143.082031 38.484375 143.109375 38.570312 143.140625 38.660156 C 143.199219 38.859375 143.199219 38.859375 143.308594 38.957031 C 143.617188 38.058594 143.925781 37.160156 144.246094 36.234375 C 144.429688 36.234375 144.617188 36.234375 144.804688 36.234375 C 144.910156 36.546875 144.890625 36.726562 144.785156 37.035156 C 144.757812 37.117188 144.730469 37.199219 144.703125 37.28125 C 144.675781 37.367188 144.644531 37.453125 144.613281 37.542969 C 144.582031 37.628906 144.554688 37.71875 144.523438 37.808594 C 144.285156 38.496094 144.011719 39.152344 143.683594 39.800781 C 143.4375 39.800781 143.191406 39.800781 142.933594 39.800781 C 142.542969 39.089844 142.242188 38.355469 141.960938 37.59375 C 141.925781 37.503906 141.890625 37.414062 141.855469 37.320312 C 141.808594 37.191406 141.808594 37.191406 141.761719 37.058594 C 141.730469 36.980469 141.703125 36.902344 141.675781 36.824219 C 141.621094 36.589844 141.640625 36.457031 141.71875 36.234375 Z M 141.71875 36.234375 "/>
<path style=" stroke:none;fill-rule:nonzero;fill:rgb(0%,0%,0%);fill-opacity:1;" d="M 171.558594 36.328125 C 171.558594 36.484375 171.558594 36.636719 171.558594 36.796875 C 171.441406 36.804688 171.441406 36.804688 171.324219 36.8125 C 171.171875 36.824219 171.171875 36.824219 171.015625 36.839844 C 170.914062 36.84375 170.8125 36.851562 170.710938 36.859375 C 170.433594 36.882812 170.433594 36.882812 170.15625 36.984375 C 170.125 37.914062 170.09375 38.84375 170.0625 39.800781 C 169.847656 39.800781 169.632812 39.800781 169.410156 39.800781 C 169.195312 39.375 169.292969 38.785156 169.292969 38.316406 C 169.289062 38.195312 169.289062 38.074219 169.285156 37.949219 C 169.285156 37.835938 169.285156 37.71875 169.285156 37.597656 C 169.285156 37.492188 169.28125 37.386719 169.28125 37.277344 C 169.320312 36.949219 169.398438 36.777344 169.59375 36.515625 C 170.132812 36.183594 170.976562 36.035156 171.558594 36.328125 Z M 171.558594 36.328125 "/>
<path style=" stroke:none;fill-rule:nonzero;fill:rgb(0%,0%,0%);fill-opacity:1;" d="M 151.636719 36.328125 C 151.636719 36.484375 151.636719 36.636719 151.636719 36.796875 C 151.519531 36.804688 151.519531 36.804688 151.398438 36.8125 C 151.246094 36.824219 151.246094 36.824219 151.089844 36.839844 C 150.992188 36.84375 150.890625 36.851562 150.785156 36.859375 C 150.507812 36.882812 150.507812 36.882812 150.230469 36.984375 C 150.199219 37.914062 150.171875 38.84375 150.136719 39.800781 C 149.921875 39.800781 149.707031 39.800781 149.484375 39.800781 C 149.269531 39.375 149.367188 38.785156 149.367188 38.316406 C 149.363281 38.195312 149.363281 38.074219 149.359375 37.949219 C 149.359375 37.835938 149.359375 37.71875 149.359375 37.597656 C 149.359375 37.492188 149.359375 37.386719 149.355469 37.277344 C 149.394531 36.949219 149.472656 36.777344 149.671875 36.515625 C 150.207031 36.183594 151.050781 36.035156 151.636719 36.328125 Z M 151.636719 36.328125 "/>
<path style=" stroke:none;fill-rule:nonzero;fill:rgb(0%,0%,0%);fill-opacity:1;" d="M 124.414062 36.328125 C 124.414062 36.484375 124.414062 36.636719 124.414062 36.796875 C 124.296875 36.804688 124.296875 36.804688 124.179688 36.8125 C 124.027344 36.824219 124.027344 36.824219 123.871094 36.839844 C 123.769531 36.84375 123.667969 36.851562 123.5625 36.859375 C 123.285156 36.882812 123.285156 36.882812 123.011719 36.984375 C 122.980469 37.914062 122.949219 38.84375 122.917969 39.800781 C 122.699219 39.800781 122.484375 39.800781 122.261719 39.800781 C 122.050781 39.375 122.148438 38.785156 122.144531 38.316406 C 122.144531 38.195312 122.140625 38.074219 122.140625 37.949219 C 122.140625 37.835938 122.136719 37.71875 122.136719 37.597656 C 122.136719 37.492188 122.136719 37.386719 122.136719 37.277344 C 122.171875 36.949219 122.253906 36.777344 122.449219 36.515625 C 122.984375 36.183594 123.832031 36.035156 124.414062 36.328125 Z M 124.414062 36.328125 "/>
</g>
</svg>
