<?xml version="1.0" encoding="UTF-8"?>
<svg xmlns="http://www.w3.org/2000/svg" xmlns:xlink="http://www.w3.org/1999/xlink" width="180px" height="110px" viewBox="0 0 180 110" version="1.1">
<g id="surface1">
<path style=" stroke:none;fill-rule:nonzero;fill:rgb(92.156863%,38.431373%,17.647059%);fill-opacity:1;" d="M 9.339844 22.519531 C 9.410156 22.519531 9.480469 22.519531 9.550781 22.519531 C 9.667969 22.519531 9.667969 22.519531 9.785156 22.519531 C 9.867188 22.519531 9.949219 22.519531 10.03125 22.519531 C 10.304688 22.515625 10.578125 22.515625 10.855469 22.515625 C 11.050781 22.515625 11.246094 22.515625 11.441406 22.515625 C 11.921875 22.511719 12.398438 22.511719 12.878906 22.511719 C 13.265625 22.511719 13.65625 22.511719 14.046875 22.511719 C 15.152344 22.507812 16.257812 22.507812 17.363281 22.507812 C 17.425781 22.507812 17.484375 22.507812 17.546875 22.507812 C 17.632812 22.507812 17.632812 22.507812 17.726562 22.507812 C 18.691406 22.507812 19.65625 22.507812 20.621094 22.503906 C 21.613281 22.5 22.605469 22.5 23.597656 22.5 C 24.152344 22.5 24.710938 22.5 25.265625 22.496094 C 25.789062 22.496094 26.316406 22.496094 26.839844 22.496094 C 27.03125 22.496094 27.222656 22.496094 27.414062 22.496094 C 30.09375 22.476562 32.765625 22.957031 34.820312 28.089844 C 36.410156 32.496094 36.636719 38.425781 36.632812 44.242188 C 36.632812 44.691406 36.632812 45.144531 36.632812 45.59375 C 36.636719 46.804688 36.636719 48.015625 36.636719 49.230469 C 36.636719 50.242188 36.636719 51.257812 36.636719 52.273438 C 36.636719 54.664062 36.636719 57.058594 36.636719 59.449219 C 36.636719 61.914062 36.636719 64.378906 36.636719 66.84375 C 36.640625 68.96875 36.640625 71.089844 36.640625 73.210938 C 36.640625 74.476562 36.640625 75.742188 36.640625 77.007812 C 36.644531 78.195312 36.640625 79.382812 36.640625 80.570312 C 36.640625 81.003906 36.640625 81.441406 36.640625 81.875 C 36.644531 82.472656 36.640625 83.066406 36.640625 83.660156 C 36.640625 83.832031 36.640625 84.003906 36.644531 84.179688 C 36.636719 85.363281 36.539062 86.058594 36.285156 87.03125 C 36.035156 87.363281 35.765625 87.277344 35.492188 87.277344 C 35.425781 87.28125 35.359375 87.28125 35.292969 87.28125 C 35.074219 87.285156 34.855469 87.289062 34.636719 87.292969 C 34.5625 87.292969 34.488281 87.292969 34.414062 87.292969 C 34.019531 87.296875 33.625 87.300781 33.230469 87.304688 C 32.824219 87.304688 32.417969 87.3125 32.011719 87.320312 C 31.699219 87.328125 31.386719 87.328125 31.074219 87.328125 C 30.925781 87.332031 30.773438 87.332031 30.625 87.335938 C 30.414062 87.34375 30.203125 87.34375 29.996094 87.339844 C 29.902344 87.34375 29.902344 87.34375 29.808594 87.347656 C 29.523438 87.339844 29.34375 87.269531 29.097656 86.878906 C 28.769531 85.929688 28.75 84.976562 28.753906 83.734375 C 28.753906 83.574219 28.753906 83.414062 28.753906 83.246094 C 28.753906 82.710938 28.753906 82.171875 28.753906 81.632812 C 28.753906 81.25 28.753906 80.863281 28.753906 80.476562 C 28.75 79.648438 28.75 78.816406 28.75 77.988281 C 28.75 76.671875 28.75 75.359375 28.746094 74.046875 C 28.742188 70.785156 28.742188 67.523438 28.738281 64.261719 C 28.738281 61.726562 28.734375 59.191406 28.734375 56.65625 C 28.730469 55.351562 28.730469 54.046875 28.730469 52.742188 C 28.730469 51.929688 28.730469 51.117188 28.726562 50.304688 C 28.726562 49.925781 28.726562 49.550781 28.726562 49.175781 C 28.726562 48.660156 28.726562 48.144531 28.726562 47.628906 C 28.726562 47.484375 28.726562 47.335938 28.726562 47.183594 C 28.722656 46.070312 28.617188 45.261719 28.457031 44.253906 C 28.433594 44.085938 28.410156 43.921875 28.382812 43.753906 C 28.273438 43.292969 28.175781 43.195312 27.984375 42.988281 C 27.894531 42.878906 27.804688 42.769531 27.710938 42.660156 C 27.324219 42.242188 26.992188 42.121094 26.578125 42.117188 C 26.488281 42.113281 26.394531 42.113281 26.300781 42.113281 C 26.203125 42.113281 26.101562 42.113281 26 42.113281 C 25.894531 42.109375 25.785156 42.109375 25.679688 42.109375 C 25.390625 42.105469 25.101562 42.105469 24.8125 42.101562 C 24.632812 42.101562 24.453125 42.101562 24.273438 42.101562 C 23.707031 42.097656 23.140625 42.097656 22.574219 42.09375 C 21.921875 42.09375 21.269531 42.089844 20.617188 42.085938 C 20.113281 42.078125 19.609375 42.078125 19.105469 42.078125 C 18.804688 42.078125 18.503906 42.074219 18.203125 42.074219 C 17.917969 42.070312 17.636719 42.070312 17.351562 42.070312 C 17.199219 42.070312 17.046875 42.066406 16.894531 42.066406 C 16.292969 42.070312 15.777344 42.121094 15.304688 43.210938 C 14.964844 44.859375 14.988281 46.871094 14.96875 48.703125 C 14.96875 48.945312 14.964844 49.1875 14.960938 49.4375 C 14.953125 50.027344 14.945312 50.617188 14.941406 51.207031 C 14.984375 51.207031 15.027344 51.207031 15.070312 51.207031 C 16.125 51.191406 17.175781 51.179688 18.230469 51.175781 C 18.738281 51.171875 19.246094 51.167969 19.753906 51.160156 C 20.246094 51.152344 20.738281 51.148438 21.230469 51.148438 C 21.417969 51.144531 21.601562 51.144531 21.789062 51.140625 C 22.054688 51.136719 22.316406 51.136719 22.578125 51.136719 C 22.65625 51.132812 22.734375 51.128906 22.8125 51.128906 C 23.246094 51.132812 23.550781 51.195312 23.875 52.050781 C 23.898438 53.148438 23.898438 54.25 23.902344 55.351562 C 23.902344 55.722656 23.90625 56.09375 23.90625 56.464844 C 23.910156 56.996094 23.914062 57.53125 23.914062 58.066406 C 23.917969 58.230469 23.917969 58.398438 23.921875 58.566406 C 23.917969 59.304688 23.90625 59.742188 23.726562 60.3125 C 23.367188 60.859375 23.054688 60.800781 22.648438 60.785156 C 22.566406 60.785156 22.484375 60.785156 22.398438 60.785156 C 22.121094 60.785156 21.847656 60.777344 21.570312 60.773438 C 21.382812 60.769531 21.191406 60.769531 21 60.769531 C 20.496094 60.765625 19.996094 60.757812 19.492188 60.746094 C 18.980469 60.738281 18.46875 60.734375 17.957031 60.730469 C 16.949219 60.722656 15.945312 60.707031 14.941406 60.691406 C 14.949219 61.597656 14.960938 62.507812 14.96875 63.414062 C 14.972656 63.671875 14.976562 63.925781 14.976562 64.191406 C 14.984375 66.691406 14.984375 66.691406 15.359375 68.894531 C 15.707031 69.605469 15.992188 69.804688 16.425781 69.808594 C 16.515625 69.808594 16.605469 69.8125 16.699219 69.816406 C 16.847656 69.816406 16.847656 69.816406 16.996094 69.816406 C 17.152344 69.820312 17.308594 69.824219 17.464844 69.828125 C 17.84375 69.835938 18.226562 69.84375 18.609375 69.847656 C 21.296875 69.882812 24.082031 70.195312 26.324219 74.597656 C 26.375 74.695312 26.425781 74.796875 26.480469 74.898438 C 27.675781 77.378906 28.195312 81.371094 28.421875 85.214844 C 28.46875 86.324219 28.46875 86.324219 28.457031 86.820312 C 28.265625 87.332031 28.164062 87.292969 27.902344 87.296875 C 27.84375 87.296875 27.789062 87.296875 27.730469 87.292969 C 27.640625 87.296875 27.640625 87.296875 27.550781 87.296875 C 27.351562 87.296875 27.152344 87.296875 26.953125 87.296875 C 26.808594 87.296875 26.664062 87.296875 26.523438 87.296875 C 26.132812 87.300781 25.742188 87.300781 25.355469 87.296875 C 24.945312 87.296875 24.539062 87.296875 24.128906 87.296875 C 23.445312 87.300781 22.757812 87.296875 22.070312 87.296875 C 21.28125 87.292969 20.488281 87.292969 19.699219 87.296875 C 19.019531 87.300781 18.335938 87.300781 17.65625 87.296875 C 17.25 87.296875 16.847656 87.296875 16.441406 87.296875 C 16.058594 87.300781 15.675781 87.300781 15.292969 87.296875 C 15.152344 87.296875 15.011719 87.296875 14.875 87.296875 C 13.222656 87.308594 11.476562 87.015625 10.210938 83.816406 C 8.839844 79.894531 8.828125 74.765625 8.835938 69.71875 C 8.835938 69.207031 8.835938 68.691406 8.835938 68.179688 C 8.835938 67.078125 8.835938 65.980469 8.835938 64.878906 C 8.839844 63.289062 8.839844 61.699219 8.839844 60.109375 C 8.839844 57.527344 8.839844 54.945312 8.84375 52.363281 C 8.84375 49.859375 8.84375 47.351562 8.84375 44.847656 C 8.84375 44.691406 8.84375 44.535156 8.84375 44.378906 C 8.84375 43.601562 8.84375 42.824219 8.847656 42.046875 C 8.847656 35.617188 8.851562 29.1875 8.855469 22.757812 C 9.035156 22.515625 9.140625 22.519531 9.339844 22.519531 Z M 9.339844 22.519531 "/>
<path style=" stroke:none;fill-rule:nonzero;fill:rgb(17.647059%,17.647059%,18.039216%);fill-opacity:1;" d="M 8.855469 41.511719 C 8.933594 41.617188 8.933594 41.617188 9.011719 41.722656 C 9.234375 41.75 9.457031 41.761719 9.683594 41.765625 C 9.753906 41.769531 9.820312 41.773438 9.894531 41.773438 C 10.125 41.78125 10.351562 41.785156 10.582031 41.789062 C 10.742188 41.796875 10.902344 41.800781 11.0625 41.804688 C 11.480469 41.816406 11.902344 41.824219 12.320312 41.835938 C 12.75 41.847656 13.175781 41.859375 13.605469 41.871094 C 14.445312 41.894531 15.285156 41.914062 16.125 41.933594 C 16.054688 42.027344 16.054688 42.027344 15.984375 42.121094 C 15.542969 42.71875 15.273438 43.203125 15.097656 44.464844 C 15 45.851562 14.992188 47.253906 14.976562 48.664062 C 14.96875 49.03125 14.96875 49.03125 14.964844 49.40625 C 14.957031 50.007812 14.949219 50.605469 14.941406 51.207031 C 15.003906 51.207031 15.003906 51.207031 15.070312 51.207031 C 16.125 51.191406 17.175781 51.179688 18.230469 51.175781 C 18.738281 51.171875 19.246094 51.167969 19.753906 51.160156 C 20.246094 51.152344 20.738281 51.148438 21.230469 51.148438 C 21.417969 51.144531 21.601562 51.144531 21.789062 51.140625 C 22.054688 51.136719 22.316406 51.136719 22.578125 51.136719 C 22.695312 51.132812 22.695312 51.132812 22.8125 51.128906 C 23.246094 51.132812 23.550781 51.195312 23.875 52.050781 C 23.898438 53.148438 23.898438 54.25 23.902344 55.351562 C 23.902344 55.722656 23.90625 56.09375 23.90625 56.464844 C 23.910156 56.996094 23.914062 57.53125 23.914062 58.066406 C 23.917969 58.230469 23.917969 58.398438 23.921875 58.566406 C 23.917969 59.304688 23.90625 59.742188 23.726562 60.3125 C 23.367188 60.859375 23.054688 60.800781 22.648438 60.785156 C 22.566406 60.785156 22.484375 60.785156 22.398438 60.785156 C 22.121094 60.785156 21.847656 60.777344 21.570312 60.773438 C 21.382812 60.769531 21.191406 60.769531 21 60.769531 C 20.496094 60.765625 19.996094 60.757812 19.492188 60.746094 C 18.980469 60.738281 18.46875 60.734375 17.957031 60.730469 C 16.949219 60.722656 15.945312 60.707031 14.941406 60.691406 C 14.949219 61.597656 14.960938 62.507812 14.96875 63.414062 C 14.972656 63.671875 14.976562 63.925781 14.976562 64.191406 C 14.984375 66.691406 14.984375 66.691406 15.359375 68.894531 C 15.707031 69.605469 15.992188 69.804688 16.425781 69.808594 C 16.515625 69.808594 16.605469 69.8125 16.699219 69.816406 C 16.847656 69.816406 16.847656 69.816406 16.996094 69.816406 C 17.152344 69.820312 17.308594 69.824219 17.464844 69.828125 C 17.84375 69.835938 18.226562 69.84375 18.609375 69.847656 C 21.296875 69.882812 24.082031 70.195312 26.324219 74.597656 C 26.375 74.695312 26.425781 74.796875 26.480469 74.898438 C 27.675781 77.378906 28.195312 81.371094 28.421875 85.214844 C 28.46875 86.324219 28.46875 86.324219 28.457031 86.820312 C 28.265625 87.332031 28.164062 87.292969 27.902344 87.296875 C 27.84375 87.296875 27.789062 87.296875 27.730469 87.292969 C 27.640625 87.296875 27.640625 87.296875 27.550781 87.296875 C 27.351562 87.296875 27.152344 87.296875 26.953125 87.296875 C 26.808594 87.296875 26.664062 87.296875 26.523438 87.296875 C 26.132812 87.300781 25.742188 87.300781 25.355469 87.296875 C 24.945312 87.296875 24.539062 87.296875 24.128906 87.296875 C 23.445312 87.300781 22.757812 87.296875 22.070312 87.296875 C 21.28125 87.292969 20.488281 87.292969 19.699219 87.296875 C 19.019531 87.300781 18.335938 87.300781 17.65625 87.296875 C 17.25 87.296875 16.847656 87.296875 16.441406 87.296875 C 16.058594 87.300781 15.675781 87.300781 15.292969 87.296875 C 15.152344 87.296875 15.011719 87.296875 14.875 87.296875 C 13.222656 87.308594 11.476562 87.015625 10.210938 83.816406 C 9.019531 80.402344 8.828125 75.921875 8.835938 71.441406 C 8.835938 71.113281 8.835938 70.785156 8.835938 70.457031 C 8.835938 69.574219 8.835938 68.691406 8.835938 67.808594 C 8.839844 66.882812 8.839844 65.957031 8.839844 65.03125 C 8.839844 63.28125 8.839844 61.53125 8.84375 59.78125 C 8.84375 57.789062 8.84375 55.796875 8.847656 53.800781 C 8.847656 49.707031 8.851562 45.609375 8.855469 41.511719 Z M 8.855469 41.511719 "/>
<path style=" stroke:none;fill-rule:nonzero;fill:rgb(94.901961%,56.470591%,12.54902%);fill-opacity:1;" d="M 9.339844 22.523438 C 9.410156 22.523438 9.476562 22.519531 9.550781 22.519531 C 9.625 22.519531 9.703125 22.523438 9.78125 22.523438 C 9.902344 22.523438 9.902344 22.523438 10.027344 22.523438 C 10.296875 22.523438 10.570312 22.523438 10.84375 22.523438 C 11.039062 22.523438 11.234375 22.523438 11.429688 22.523438 C 11.847656 22.523438 12.269531 22.523438 12.6875 22.527344 C 13.296875 22.527344 13.902344 22.527344 14.511719 22.527344 C 15.496094 22.527344 16.480469 22.53125 17.46875 22.53125 C 18.425781 22.535156 19.382812 22.535156 20.339844 22.535156 C 20.398438 22.535156 20.457031 22.535156 20.519531 22.535156 C 20.988281 22.535156 21.453125 22.539062 21.917969 22.539062 C 24.203125 22.539062 26.488281 22.542969 28.773438 22.546875 C 28.773438 30.265625 28.773438 37.984375 28.773438 45.9375 C 28.722656 45.660156 28.671875 45.382812 28.617188 45.097656 C 28.5625 44.878906 28.503906 44.660156 28.449219 44.4375 C 28.300781 43.832031 28.300781 43.832031 28.300781 43.410156 C 27.613281 42.460938 27.066406 42.113281 26.304688 42.113281 C 26.230469 42.113281 26.15625 42.113281 26.082031 42.113281 C 25.832031 42.109375 25.585938 42.109375 25.339844 42.109375 C 25.160156 42.109375 24.984375 42.105469 24.804688 42.105469 C 24.425781 42.101562 24.042969 42.097656 23.660156 42.097656 C 23.058594 42.09375 22.453125 42.089844 21.851562 42.082031 C 21.003906 42.074219 20.160156 42.070312 19.3125 42.0625 C 19.261719 42.0625 19.207031 42.0625 19.152344 42.0625 C 18.390625 42.054688 17.628906 42.050781 16.867188 42.046875 C 16.8125 42.046875 16.757812 42.046875 16.703125 42.046875 C 16.648438 42.042969 16.59375 42.042969 16.539062 42.042969 C 15.648438 42.039062 14.753906 42.03125 13.859375 42.023438 C 13.257812 42.015625 12.660156 42.011719 12.058594 42.011719 C 11.6875 42.007812 11.3125 42.003906 10.941406 42 C 10.765625 42 10.59375 42 10.421875 42 C 10.183594 42 9.949219 41.996094 9.710938 41.992188 C 9.644531 41.992188 9.574219 41.992188 9.503906 41.992188 C 9.03125 41.984375 9.03125 41.984375 8.855469 41.511719 C 8.839844 40.917969 8.832031 40.339844 8.835938 39.742188 C 8.835938 39.5625 8.835938 39.378906 8.835938 39.1875 C 8.835938 38.582031 8.835938 37.976562 8.839844 37.371094 C 8.839844 36.949219 8.839844 36.53125 8.839844 36.109375 C 8.839844 35.003906 8.839844 33.898438 8.84375 32.789062 C 8.84375 31.660156 8.84375 30.535156 8.847656 29.40625 C 8.847656 27.1875 8.851562 24.972656 8.855469 22.757812 C 9.035156 22.515625 9.136719 22.523438 9.339844 22.523438 Z M 9.339844 22.523438 "/>
<path style=" stroke:none;fill-rule:nonzero;fill:rgb(92.156863%,38.431373%,18.039216%);fill-opacity:1;" d="M 79.289062 22.335938 C 80.488281 22.335938 81.6875 22.335938 82.925781 22.335938 C 82.929688 26.640625 82.929688 30.941406 82.933594 35.246094 C 82.933594 37.246094 82.933594 39.242188 82.9375 41.242188 C 82.9375 42.984375 82.9375 44.726562 82.941406 46.472656 C 82.941406 47.394531 82.941406 48.316406 82.941406 49.238281 C 82.941406 50.109375 82.941406 50.976562 82.941406 51.847656 C 82.941406 52.164062 82.941406 52.480469 82.945312 52.796875 C 82.945312 54.5 82.921875 56.171875 82.855469 57.863281 C 82.847656 58.015625 82.839844 58.171875 82.835938 58.328125 C 82.683594 61.765625 82.183594 64.863281 81.421875 67.644531 C 81.386719 67.78125 81.351562 67.914062 81.3125 68.054688 C 80.3125 71.492188 78.652344 73.242188 77.089844 73.878906 C 75.050781 74.503906 72.9375 73.59375 71.28125 70.199219 C 69.839844 66.957031 69.054688 62.261719 68.855469 57.316406 C 68.757812 51.984375 68.980469 46.601562 70.351562 42.410156 C 71.398438 39.332031 72.808594 37.113281 74.390625 36.835938 C 74.660156 36.804688 74.929688 36.789062 75.199219 36.785156 C 75.28125 36.78125 75.367188 36.78125 75.457031 36.777344 C 76.835938 36.820312 77.980469 38.125 78.972656 40.640625 C 79.128906 41.09375 79.128906 41.09375 79.210938 41.511719 C 79.25 32.019531 79.25 32.019531 79.289062 22.335938 Z M 73.835938 46.992188 C 73.785156 47.09375 73.738281 47.195312 73.6875 47.296875 C 73.042969 48.808594 72.625 51.359375 72.554688 53.613281 C 72.546875 54.167969 72.542969 54.722656 72.542969 55.277344 C 72.542969 55.472656 72.546875 55.667969 72.546875 55.871094 C 72.554688 57.277344 72.601562 58.535156 72.804688 59.847656 C 72.84375 60.109375 72.84375 60.109375 72.886719 60.378906 C 73.246094 62.539062 73.804688 64.125 74.617188 65.089844 C 75.457031 65.902344 76.296875 65.929688 77.144531 65.105469 C 78.007812 64.027344 78.554688 62.382812 78.917969 60.023438 C 79.328125 56.824219 79.363281 53.414062 78.855469 50.277344 C 78.382812 47.78125 77.820312 46.339844 76.839844 45.359375 C 75.78125 44.511719 74.683594 45.1875 73.835938 46.992188 Z M 73.835938 46.992188 "/>
<path style=" stroke:none;fill-rule:nonzero;fill:rgb(92.156863%,38.431373%,18.039216%);fill-opacity:1;" d="M 53.992188 37.71875 C 55.164062 37.71875 56.339844 37.71875 57.550781 37.71875 C 57.640625 38.203125 57.636719 38.46875 57.640625 39.003906 C 57.640625 39.183594 57.640625 39.363281 57.640625 39.550781 C 57.640625 39.75 57.640625 39.949219 57.640625 40.152344 C 57.640625 40.359375 57.640625 40.570312 57.640625 40.785156 C 57.640625 41.238281 57.640625 41.695312 57.640625 42.148438 C 57.640625 42.867188 57.644531 43.589844 57.644531 44.308594 C 57.648438 46.355469 57.652344 48.40625 57.652344 50.453125 C 57.65625 51.707031 57.65625 52.957031 57.660156 54.210938 C 57.660156 54.6875 57.660156 55.164062 57.660156 55.640625 C 57.660156 56.308594 57.664062 56.976562 57.664062 57.644531 C 57.664062 57.839844 57.664062 58.035156 57.664062 58.238281 C 57.675781 60.25 57.976562 61.972656 58.496094 63.429688 C 59.1875 64.953125 59.871094 65.675781 60.773438 65.492188 C 61.292969 65.285156 61.699219 64.832031 62.132812 64.0625 C 62.238281 63.878906 62.238281 63.878906 62.347656 63.691406 C 62.925781 62.191406 63.238281 60.304688 63.273438 58.15625 C 63.273438 57.777344 63.273438 57.402344 63.273438 57.023438 C 63.273438 56.816406 63.273438 56.609375 63.277344 56.394531 C 63.277344 55.71875 63.277344 55.039062 63.277344 54.359375 C 63.28125 53.886719 63.28125 53.414062 63.28125 52.9375 C 63.285156 51.699219 63.289062 50.457031 63.289062 49.214844 C 63.292969 47.222656 63.296875 45.230469 63.300781 43.234375 C 63.304688 42.539062 63.304688 41.84375 63.304688 41.144531 C 63.304688 40.722656 63.308594 40.296875 63.308594 39.875 C 63.308594 39.679688 63.308594 39.484375 63.308594 39.285156 C 63.3125 37.953125 63.3125 37.953125 63.398438 37.71875 C 63.507812 37.699219 63.617188 37.691406 63.726562 37.691406 C 63.796875 37.691406 63.863281 37.691406 63.9375 37.691406 C 64.011719 37.691406 64.085938 37.691406 64.164062 37.691406 C 64.242188 37.691406 64.320312 37.691406 64.398438 37.691406 C 64.5625 37.691406 64.722656 37.691406 64.886719 37.691406 C 65.136719 37.695312 65.386719 37.691406 65.636719 37.691406 C 65.796875 37.691406 65.953125 37.691406 66.113281 37.691406 C 66.1875 37.691406 66.261719 37.691406 66.339844 37.691406 C 66.410156 37.691406 66.480469 37.691406 66.550781 37.691406 C 66.613281 37.691406 66.671875 37.695312 66.738281 37.695312 C 66.878906 37.71875 66.878906 37.71875 66.957031 37.929688 C 66.964844 38.210938 66.96875 38.496094 66.96875 38.777344 C 66.96875 38.957031 66.96875 39.140625 66.96875 39.328125 C 66.96875 39.632812 66.96875 39.632812 66.96875 39.9375 C 66.96875 40.148438 66.96875 40.363281 66.96875 40.578125 C 66.972656 41.28125 66.972656 41.984375 66.972656 42.6875 C 66.972656 43.175781 66.972656 43.664062 66.972656 44.152344 C 66.976562 45.183594 66.976562 46.210938 66.976562 47.238281 C 66.976562 48.550781 66.976562 49.859375 66.980469 51.171875 C 66.980469 52.183594 66.980469 53.195312 66.980469 54.207031 C 66.980469 54.6875 66.984375 55.171875 66.984375 55.652344 C 66.996094 60.96875 66.671875 65.609375 65.226562 69.5625 C 64.445312 71.570312 63.433594 72.859375 62.371094 73.332031 C 62.34375 77.851562 62.320312 82.375 62.292969 87.03125 C 62.113281 87.269531 62.011719 87.269531 61.8125 87.273438 C 61.75 87.273438 61.683594 87.273438 61.613281 87.277344 C 61.542969 87.277344 61.472656 87.277344 61.398438 87.277344 C 61.324219 87.277344 61.253906 87.277344 61.175781 87.277344 C 61.023438 87.28125 60.867188 87.28125 60.710938 87.28125 C 60.476562 87.28125 60.238281 87.285156 60 87.289062 C 59.851562 87.289062 59.699219 87.289062 59.550781 87.289062 C 59.480469 87.292969 59.40625 87.292969 59.335938 87.292969 C 59.269531 87.292969 59.203125 87.292969 59.132812 87.292969 C 59.078125 87.292969 59.019531 87.292969 58.957031 87.292969 C 58.8125 87.242188 58.8125 87.242188 58.65625 86.820312 C 58.632812 86.265625 58.632812 86.265625 58.632812 85.554688 C 58.628906 85.289062 58.628906 85.023438 58.625 84.75 C 58.625 84.457031 58.625 84.164062 58.625 83.875 C 58.621094 83.578125 58.621094 83.28125 58.617188 82.984375 C 58.613281 82.203125 58.613281 81.417969 58.609375 80.636719 C 58.605469 79.839844 58.601562 79.039062 58.597656 78.242188 C 58.589844 76.675781 58.582031 75.109375 58.578125 73.542969 C 58.480469 73.460938 58.386719 73.382812 58.285156 73.296875 C 58.160156 73.1875 58.03125 73.078125 57.902344 72.964844 C 57.839844 72.914062 57.777344 72.859375 57.710938 72.804688 C 56.347656 71.617188 55.269531 69.015625 54.601562 65.664062 C 54.175781 63.257812 53.980469 61.085938 53.984375 58.4375 C 53.984375 58.214844 53.984375 57.988281 53.984375 57.757812 C 53.984375 57.019531 53.984375 56.28125 53.984375 55.542969 C 53.984375 55.027344 53.984375 54.515625 53.984375 54.003906 C 53.984375 52.652344 53.984375 51.304688 53.988281 49.957031 C 53.988281 48.578125 53.988281 47.199219 53.988281 45.824219 C 53.988281 43.121094 53.992188 40.421875 53.992188 37.71875 Z M 53.992188 37.71875 "/>
<path style=" stroke:none;fill-rule:nonzero;fill:rgb(95.294118%,56.862748%,12.54902%);fill-opacity:1;" d="M 145.453125 38.351562 C 146.628906 38.351562 147.800781 38.351562 149.011719 38.351562 C 149.085938 38.929688 149.101562 39.269531 149.101562 39.863281 C 149.101562 40.042969 149.101562 40.222656 149.101562 40.40625 C 149.101562 40.601562 149.101562 40.796875 149.101562 41 C 149.101562 41.207031 149.101562 41.414062 149.101562 41.625 C 149.105469 42.074219 149.105469 42.523438 149.105469 42.972656 C 149.105469 43.6875 149.105469 44.398438 149.109375 45.109375 C 149.113281 47.136719 149.117188 49.160156 149.117188 51.1875 C 149.117188 52.425781 149.121094 53.664062 149.125 54.902344 C 149.125 55.375 149.125 55.847656 149.125 56.316406 C 149.125 56.976562 149.125 57.640625 149.128906 58.300781 C 149.128906 58.492188 149.128906 58.6875 149.125 58.886719 C 149.136719 60.945312 149.457031 62.527344 149.960938 64.0625 C 150.542969 65.53125 151.226562 66.046875 152.015625 66.167969 C 152.621094 66.085938 153.09375 65.578125 153.597656 64.695312 C 153.703125 64.511719 153.703125 64.511719 153.808594 64.324219 C 154.386719 62.824219 154.699219 60.9375 154.734375 58.785156 C 154.738281 58.410156 154.738281 58.035156 154.738281 57.65625 C 154.738281 57.449219 154.738281 57.242188 154.738281 57.027344 C 154.742188 56.347656 154.742188 55.671875 154.742188 54.992188 C 154.742188 54.519531 154.742188 54.046875 154.746094 53.570312 C 154.75 52.332031 154.75 51.089844 154.75 49.847656 C 154.753906 47.855469 154.757812 45.863281 154.765625 43.867188 C 154.765625 43.171875 154.765625 42.476562 154.769531 41.777344 C 154.769531 41.355469 154.769531 40.929688 154.769531 40.507812 C 154.769531 40.3125 154.769531 40.117188 154.769531 39.917969 C 154.773438 38.585938 154.773438 38.585938 154.863281 38.351562 C 154.96875 38.332031 155.078125 38.324219 155.1875 38.324219 C 155.257812 38.324219 155.328125 38.324219 155.398438 38.324219 C 155.472656 38.324219 155.550781 38.324219 155.628906 38.324219 C 155.703125 38.324219 155.78125 38.324219 155.859375 38.324219 C 156.023438 38.324219 156.1875 38.324219 156.347656 38.324219 C 156.601562 38.324219 156.851562 38.324219 157.101562 38.324219 C 157.257812 38.324219 157.417969 38.324219 157.574219 38.324219 C 157.648438 38.324219 157.726562 38.324219 157.800781 38.324219 C 157.871094 38.324219 157.941406 38.324219 158.011719 38.324219 C 158.074219 38.324219 158.136719 38.324219 158.199219 38.324219 C 158.339844 38.351562 158.339844 38.351562 158.417969 38.5625 C 158.425781 38.84375 158.429688 39.125 158.429688 39.410156 C 158.429688 39.589844 158.429688 39.773438 158.429688 39.960938 C 158.429688 40.261719 158.429688 40.261719 158.433594 40.570312 C 158.433594 40.78125 158.433594 40.992188 158.433594 41.210938 C 158.433594 41.914062 158.433594 42.617188 158.433594 43.320312 C 158.433594 43.808594 158.4375 44.296875 158.4375 44.785156 C 158.4375 45.8125 158.4375 46.84375 158.4375 47.871094 C 158.4375 49.179688 158.441406 50.492188 158.441406 51.804688 C 158.445312 52.816406 158.445312 53.828125 158.445312 54.839844 C 158.445312 55.320312 158.445312 55.804688 158.445312 56.285156 C 158.457031 61.601562 158.132812 66.242188 156.6875 70.195312 C 155.910156 72.203125 154.898438 73.492188 153.835938 73.964844 C 153.808594 78.484375 153.78125 83.003906 153.753906 87.664062 C 153.574219 87.902344 153.476562 87.902344 153.277344 87.902344 C 153.210938 87.90625 153.144531 87.90625 153.078125 87.910156 C 153.003906 87.910156 152.933594 87.910156 152.859375 87.910156 C 152.789062 87.910156 152.714844 87.910156 152.640625 87.910156 C 152.484375 87.914062 152.328125 87.914062 152.175781 87.914062 C 151.9375 87.914062 151.699219 87.917969 151.464844 87.921875 C 151.3125 87.921875 151.164062 87.921875 151.011719 87.921875 C 150.941406 87.921875 150.871094 87.925781 150.796875 87.925781 C 150.730469 87.925781 150.664062 87.925781 150.597656 87.925781 C 150.539062 87.925781 150.480469 87.925781 150.421875 87.925781 C 150.277344 87.875 150.277344 87.875 150.117188 87.453125 C 150.097656 86.890625 150.097656 86.890625 150.09375 86.167969 C 150.09375 85.894531 150.089844 85.625 150.089844 85.347656 C 150.085938 85.050781 150.085938 84.757812 150.085938 84.460938 C 150.085938 84.160156 150.082031 83.855469 150.082031 83.554688 C 150.078125 82.761719 150.074219 81.964844 150.070312 81.171875 C 150.066406 80.359375 150.0625 79.550781 150.058594 78.738281 C 150.050781 77.148438 150.046875 75.558594 150.039062 73.964844 C 149.953125 73.9375 149.867188 73.90625 149.78125 73.875 C 148.480469 73.34375 147.390625 71.101562 146.5625 68.488281 C 145.800781 65.675781 145.441406 62.511719 145.445312 59.070312 C 145.445312 58.84375 145.445312 58.621094 145.445312 58.390625 C 145.445312 57.652344 145.445312 56.914062 145.445312 56.171875 C 145.445312 55.660156 145.445312 55.148438 145.445312 54.632812 C 145.449219 53.285156 145.449219 51.9375 145.449219 50.585938 C 145.449219 49.210938 145.449219 47.832031 145.449219 46.457031 C 145.453125 43.753906 145.453125 41.054688 145.453125 38.351562 Z M 145.453125 38.351562 "/>
<path style=" stroke:none;fill-rule:nonzero;fill:rgb(95.294118%,56.862748%,12.54902%);fill-opacity:1;" d="M 124.902344 38.140625 C 124.988281 38.210938 125.074219 38.28125 125.160156 38.351562 C 126.707031 39.769531 127.984375 42.726562 128.722656 46.605469 C 129.246094 49.5 129.5 52.527344 129.496094 55.742188 C 129.496094 55.9375 129.496094 56.132812 129.496094 56.332031 C 129.496094 56.976562 129.496094 57.617188 129.492188 58.257812 C 129.492188 58.707031 129.492188 59.152344 129.492188 59.597656 C 129.492188 60.773438 129.492188 61.945312 129.492188 63.117188 C 129.492188 64.527344 129.492188 65.933594 129.488281 67.34375 C 129.488281 69.480469 129.488281 71.617188 129.484375 73.753906 C 128.285156 73.753906 127.085938 73.753906 125.851562 73.753906 C 125.824219 72.015625 125.796875 70.277344 125.769531 68.488281 C 125.636719 69.007812 125.636719 69.007812 125.5 69.539062 C 124.75 72.253906 123.765625 73.90625 122.515625 74.507812 C 120.757812 75.035156 119.1875 74.195312 117.785156 71.226562 C 116.378906 68.042969 115.648438 63.347656 115.433594 58.53125 C 115.425781 58.195312 115.417969 57.863281 115.414062 57.527344 C 115.410156 57.324219 115.410156 57.121094 115.40625 56.910156 C 115.359375 51.242188 116.011719 46.367188 117.480469 42.238281 C 119.332031 37.410156 122.46875 36.117188 124.902344 38.140625 Z M 119.980469 48.742188 C 119.207031 51.3125 119.011719 54.539062 119.128906 57.738281 C 119.242188 59.699219 119.488281 61.402344 119.921875 63.007812 C 119.976562 63.230469 120.035156 63.449219 120.09375 63.679688 C 120.800781 65.566406 121.621094 66.339844 122.609375 66.378906 C 123.484375 66.242188 124.261719 65.375 124.855469 63.628906 C 125.730469 60.699219 125.898438 57.371094 125.769531 53.734375 C 125.597656 51.136719 125.113281 48.878906 124.347656 47.203125 C 122.914062 44.570312 121.136719 45.4375 119.980469 48.742188 Z M 119.980469 48.742188 "/>
<path style=" stroke:none;fill-rule:nonzero;fill:rgb(95.294118%,56.862748%,12.54902%);fill-opacity:1;" d="M 111.964844 40.25 C 113.425781 43.179688 114.015625 47.472656 114.359375 52.097656 C 114.402344 53.328125 114.398438 54.554688 114.398438 55.789062 C 114.398438 56.050781 114.398438 56.308594 114.398438 56.578125 C 114.398438 56.949219 114.398438 56.949219 114.398438 57.328125 C 114.398438 57.554688 114.398438 57.777344 114.398438 58.011719 C 114.386719 58.582031 114.386719 58.582031 114.308594 59.214844 C 111.359375 59.214844 108.414062 59.214844 105.375 59.214844 C 105.894531 61.976562 106.222656 63.453125 107.292969 64.53125 C 108.082031 65.207031 108.816406 65.359375 109.640625 65.390625 C 109.726562 65.398438 109.816406 65.402344 109.90625 65.40625 C 110.1875 65.417969 110.46875 65.433594 110.75 65.445312 C 110.941406 65.453125 111.132812 65.460938 111.324219 65.472656 C 111.792969 65.496094 112.261719 65.515625 112.726562 65.535156 C 112.726562 68.25 112.726562 70.960938 112.726562 73.753906 C 112.132812 73.769531 111.539062 73.78125 110.949219 73.789062 C 110.671875 73.789062 110.394531 73.796875 110.117188 73.800781 C 107.703125 73.863281 105.308594 73.398438 103.472656 68.699219 C 103.371094 68.421875 103.265625 68.136719 103.160156 67.855469 C 103.109375 67.714844 103.058594 67.578125 103.003906 67.4375 C 101.714844 63.828125 101.460938 59.125 101.480469 54.355469 C 101.523438 50.300781 102.039062 46.546875 103.003906 43.410156 C 103.066406 43.1875 103.066406 43.1875 103.132812 42.960938 C 105.164062 36.265625 109.390625 35.675781 111.964844 40.25 Z M 106.71875 46.359375 C 106.667969 46.429688 106.621094 46.5 106.566406 46.570312 C 105.855469 47.71875 105.558594 49.902344 105.347656 51.933594 C 105.292969 52.414062 105.292969 52.414062 105.296875 52.683594 C 107.097656 52.683594 108.894531 52.683594 110.75 52.683594 C 110.652344 50.34375 110.476562 48.527344 109.8125 46.914062 C 108.921875 45.101562 107.695312 44.921875 106.71875 46.359375 Z M 106.71875 46.359375 "/>
<path style=" stroke:none;fill-rule:nonzero;fill:rgb(92.156863%,38.431373%,18.039216%);fill-opacity:1;" d="M 94.941406 39.195312 C 95.285156 39.898438 95.585938 40.691406 95.890625 41.511719 C 95.941406 41.648438 95.996094 41.78125 96.050781 41.917969 C 97.101562 44.777344 97.558594 49.621094 97.558594 53.515625 C 97.558594 53.785156 97.558594 54.054688 97.558594 54.332031 C 97.558594 54.609375 97.558594 54.886719 97.558594 55.171875 C 97.558594 55.457031 97.558594 55.738281 97.558594 56.023438 C 97.558594 56.425781 97.558594 56.425781 97.558594 56.835938 C 97.558594 57.078125 97.558594 57.324219 97.558594 57.574219 C 97.550781 58.160156 97.550781 58.160156 97.46875 58.582031 C 94.546875 58.652344 91.625 58.722656 88.617188 58.792969 C 89.183594 61.816406 89.59375 63.132812 90.769531 64.226562 C 91.453125 64.722656 92.167969 64.730469 92.871094 64.761719 C 92.957031 64.765625 93.042969 64.769531 93.132812 64.773438 C 93.410156 64.789062 93.683594 64.800781 93.957031 64.8125 C 94.144531 64.820312 94.332031 64.832031 94.519531 64.839844 C 94.976562 64.863281 95.433594 64.882812 95.890625 64.902344 C 95.890625 67.617188 95.890625 70.328125 95.890625 73.121094 C 95.296875 73.136719 94.703125 73.148438 94.109375 73.15625 C 93.832031 73.160156 93.554688 73.164062 93.28125 73.171875 C 90.804688 73.234375 88.449219 72.648438 86.574219 67.914062 C 85.640625 65.453125 85.007812 62.4375 84.742188 59.003906 C 84.722656 58.734375 84.722656 58.734375 84.699219 58.457031 C 84.449219 53.371094 84.746094 47.785156 85.929688 43.621094 C 86.152344 42.882812 86.390625 42.191406 86.640625 41.511719 C 86.699219 41.351562 86.757812 41.1875 86.820312 41.019531 C 88.832031 35.820312 92.609375 35.152344 94.941406 39.195312 Z M 89.25 47.203125 C 88.804688 48.671875 88.539062 50.148438 88.539062 52.050781 C 90.3125 52.050781 92.085938 52.050781 93.914062 52.050781 C 93.828125 49.746094 93.640625 48.039062 93.042969 46.359375 C 91.886719 43.886719 90.230469 44.347656 89.25 47.203125 Z M 89.25 47.203125 "/>
<path style=" stroke:none;fill-rule:nonzero;fill:rgb(95.294118%,56.862748%,12.54902%);fill-opacity:1;" d="M 135.710938 38.328125 C 135.777344 38.328125 135.847656 38.328125 135.917969 38.328125 C 136.144531 38.328125 136.371094 38.332031 136.597656 38.332031 C 136.753906 38.332031 136.910156 38.332031 137.070312 38.332031 C 137.480469 38.332031 137.894531 38.335938 138.308594 38.339844 C 138.804688 38.339844 139.300781 38.339844 139.796875 38.34375 C 140.550781 38.34375 141.300781 38.347656 142.054688 38.351562 C 142.054688 41.066406 142.054688 43.777344 142.054688 46.570312 C 141.617188 46.578125 141.175781 46.582031 140.722656 46.585938 C 140.445312 46.59375 140.164062 46.597656 139.886719 46.605469 C 139.445312 46.613281 139 46.625 138.558594 46.628906 C 138.203125 46.632812 137.847656 46.636719 137.488281 46.648438 C 137.351562 46.652344 137.21875 46.652344 137.082031 46.652344 C 136.890625 46.652344 136.699219 46.660156 136.507812 46.667969 C 136.453125 46.664062 136.398438 46.664062 136.339844 46.664062 C 135.945312 46.683594 135.71875 46.964844 135.414062 47.625 C 135.277344 48.355469 135.289062 49.144531 135.335938 49.941406 C 135.507812 50.523438 135.640625 50.878906 135.890625 51.207031 C 136 51.226562 136.109375 51.238281 136.222656 51.238281 C 136.292969 51.242188 136.359375 51.246094 136.429688 51.246094 C 136.542969 51.25 136.542969 51.25 136.660156 51.25 C 136.816406 51.257812 136.976562 51.261719 137.136719 51.269531 C 137.390625 51.277344 137.640625 51.285156 137.890625 51.292969 C 139.484375 51.332031 141.148438 51.460938 142.371094 54.578125 C 143.304688 57.304688 143.390625 60.628906 143.335938 64.160156 C 143.261719 66.757812 142.671875 69.242188 141.976562 71.015625 C 141.085938 73.023438 140.085938 73.792969 138.941406 73.777344 C 138.867188 73.777344 138.792969 73.777344 138.71875 73.777344 C 138.476562 73.777344 138.234375 73.777344 137.996094 73.773438 C 137.828125 73.773438 137.660156 73.773438 137.492188 73.773438 C 137.050781 73.773438 136.609375 73.773438 136.171875 73.769531 C 135.71875 73.765625 135.269531 73.765625 134.820312 73.765625 C 133.9375 73.761719 133.054688 73.757812 132.175781 73.753906 C 132.175781 71.042969 132.175781 68.332031 132.175781 65.535156 C 132.644531 65.527344 133.117188 65.519531 133.601562 65.511719 C 133.902344 65.507812 134.199219 65.5 134.5 65.492188 C 134.972656 65.480469 135.449219 65.46875 135.921875 65.464844 C 136.304688 65.457031 136.6875 65.449219 137.070312 65.4375 C 137.21875 65.433594 137.363281 65.433594 137.507812 65.429688 C 137.714844 65.429688 137.917969 65.421875 138.125 65.417969 C 138.214844 65.417969 138.214844 65.417969 138.304688 65.417969 C 138.730469 65.398438 139.140625 65.210938 139.527344 64.695312 C 139.695312 63.878906 139.726562 63.085938 139.683594 62.164062 C 139.511719 61.226562 139.34375 60.78125 138.980469 60.394531 C 138.660156 60.152344 138.339844 60.183594 138.007812 60.191406 C 137.851562 60.1875 137.691406 60.183594 137.535156 60.179688 C 137.289062 60.175781 137.042969 60.175781 136.796875 60.175781 C 135.273438 60.171875 133.714844 59.953125 132.570312 56.898438 C 131.738281 54.253906 131.546875 51.207031 131.621094 47.835938 C 131.785156 44.828125 132.367188 42.382812 133.238281 40.453125 C 134.011719 38.929688 134.757812 38.316406 135.710938 38.328125 Z M 135.710938 38.328125 "/>
<path style=" stroke:none;fill-rule:nonzero;fill:rgb(92.156863%,38.431373%,18.039216%);fill-opacity:1;" d="M 49.183594 37.636719 C 49.335938 37.640625 49.335938 37.640625 49.492188 37.640625 C 49.761719 37.644531 50.027344 37.652344 50.296875 37.664062 C 50.570312 37.671875 50.84375 37.675781 51.121094 37.679688 C 51.65625 37.6875 52.191406 37.703125 52.726562 37.71875 C 52.726562 40.433594 52.726562 43.144531 52.726562 45.9375 C 52.492188 45.949219 52.253906 45.960938 52.011719 45.96875 C 51.785156 45.980469 51.554688 45.992188 51.324219 46.003906 C 51.167969 46.011719 51.007812 46.019531 50.847656 46.027344 C 50.621094 46.039062 50.394531 46.050781 50.164062 46.0625 C 50.09375 46.066406 50.023438 46.066406 49.949219 46.070312 C 49.882812 46.074219 49.816406 46.078125 49.746094 46.082031 C 49.691406 46.085938 49.632812 46.085938 49.570312 46.089844 C 49.375 46.160156 49.253906 46.28125 49.089844 46.570312 C 48.9375 47.222656 48.914062 47.730469 48.910156 48.492188 C 48.910156 48.707031 48.910156 48.925781 48.90625 49.148438 C 48.90625 49.386719 48.90625 49.625 48.90625 49.871094 C 48.90625 50.246094 48.90625 50.246094 48.90625 50.628906 C 48.902344 51.316406 48.902344 52.003906 48.902344 52.691406 C 48.898438 53.410156 48.898438 54.128906 48.894531 54.84375 C 48.890625 56.207031 48.890625 57.566406 48.886719 58.925781 C 48.882812 60.472656 48.878906 62.019531 48.875 63.570312 C 48.867188 66.753906 48.859375 69.9375 48.855469 73.121094 C 47.652344 73.121094 46.453125 73.121094 45.21875 73.121094 C 45.210938 69.59375 45.207031 66.066406 45.207031 62.539062 C 45.203125 60.898438 45.203125 59.261719 45.199219 57.621094 C 45.195312 56.195312 45.195312 54.765625 45.195312 53.335938 C 45.195312 52.582031 45.195312 51.824219 45.191406 51.070312 C 45.191406 50.222656 45.191406 49.375 45.191406 48.53125 C 45.191406 48.28125 45.1875 48.035156 45.1875 47.78125 C 45.191406 44.902344 45.449219 42.328125 46.1875 40.171875 C 47.027344 38.039062 48.0625 37.585938 49.183594 37.636719 Z M 49.183594 37.636719 "/>
<path style=" stroke:none;fill-rule:nonzero;fill:rgb(18.431373%,18.039216%,18.039216%);fill-opacity:1;" d="M 150.039062 73.964844 C 151.292969 73.964844 152.542969 73.964844 153.835938 73.964844 C 153.808594 78.484375 153.78125 83.003906 153.753906 87.664062 C 153.574219 87.902344 153.476562 87.902344 153.277344 87.902344 C 153.210938 87.90625 153.144531 87.90625 153.078125 87.910156 C 153.003906 87.910156 152.933594 87.910156 152.859375 87.910156 C 152.789062 87.910156 152.714844 87.910156 152.640625 87.910156 C 152.484375 87.914062 152.328125 87.914062 152.175781 87.914062 C 151.9375 87.914062 151.699219 87.917969 151.464844 87.921875 C 151.3125 87.921875 151.164062 87.921875 151.011719 87.921875 C 150.941406 87.921875 150.871094 87.925781 150.796875 87.925781 C 150.699219 87.925781 150.699219 87.925781 150.597656 87.925781 C 150.539062 87.925781 150.480469 87.925781 150.421875 87.925781 C 150.277344 87.875 150.277344 87.875 150.117188 87.453125 C 150.097656 86.890625 150.097656 86.890625 150.09375 86.167969 C 150.09375 85.894531 150.089844 85.625 150.089844 85.347656 C 150.085938 85.050781 150.085938 84.757812 150.085938 84.460938 C 150.085938 84.160156 150.082031 83.855469 150.082031 83.554688 C 150.078125 82.761719 150.074219 81.964844 150.070312 81.171875 C 150.066406 80.21875 150.0625 79.265625 150.058594 78.3125 C 150.050781 76.863281 150.046875 75.414062 150.039062 73.964844 Z M 150.039062 73.964844 "/>
<path style=" stroke:none;fill-rule:nonzero;fill:rgb(0%,0%,0%);fill-opacity:1;" d="M 131.980469 81.328125 C 132.078125 81.335938 132.078125 81.335938 132.175781 81.339844 C 132.363281 82.742188 132.496094 84.152344 132.621094 85.605469 C 132.6875 86.445312 132.6875 86.445312 132.804688 87.242188 C 133.015625 85.574219 133.222656 83.902344 133.4375 82.183594 C 133.914062 81.972656 133.914062 81.972656 134.070312 82.183594 C 134.140625 82.601562 134.140625 82.601562 134.207031 83.144531 C 134.230469 83.339844 134.257812 83.535156 134.28125 83.734375 C 134.308594 83.941406 134.332031 84.144531 134.359375 84.355469 C 134.394531 84.660156 134.394531 84.660156 134.433594 84.972656 C 134.542969 85.851562 134.625 86.515625 134.625 87.453125 C 134.675781 87.453125 134.730469 87.453125 134.78125 87.453125 C 134.792969 87.257812 134.800781 87.066406 134.808594 86.863281 C 134.871094 85.75 134.96875 84.660156 135.0625 83.566406 C 135.09375 83.246094 135.09375 83.246094 135.121094 82.917969 C 135.164062 82.390625 135.210938 81.867188 135.257812 81.339844 C 135.414062 81.339844 135.570312 81.339844 135.730469 81.339844 C 135.863281 82.402344 135.746094 83.269531 135.636719 84.304688 C 135.609375 84.570312 135.609375 84.570312 135.582031 84.839844 C 135.230469 88.226562 135.230469 88.226562 135.019531 89.347656 C 134.8125 89.347656 134.601562 89.347656 134.386719 89.347656 C 134.179688 87.679688 133.96875 86.011719 133.753906 84.292969 C 133.550781 85.875 133.550781 85.875 133.347656 87.460938 C 133.320312 87.660156 133.292969 87.855469 133.269531 88.058594 C 133.242188 88.257812 133.214844 88.460938 133.191406 88.667969 C 133.121094 89.136719 133.121094 89.136719 133.042969 89.347656 C 132.859375 89.355469 132.675781 89.359375 132.488281 89.347656 C 132.230469 87.929688 132.0625 86.503906 131.917969 84.976562 C 131.894531 84.761719 131.875 84.546875 131.851562 84.328125 C 131.675781 82.515625 131.675781 82.515625 131.699219 81.550781 C 131.777344 81.339844 131.777344 81.339844 131.980469 81.328125 Z M 131.980469 81.328125 "/>
<path style=" stroke:none;fill-rule:nonzero;fill:rgb(0%,0%,0%);fill-opacity:1;" d="M 110.671875 78.390625 C 110.855469 78.390625 111.039062 78.390625 111.226562 78.390625 C 111.316406 78.878906 111.316406 79.171875 111.320312 79.714844 C 111.320312 79.898438 111.320312 80.085938 111.324219 80.277344 C 111.328125 81.132812 111.332031 81.984375 111.332031 82.835938 C 111.332031 83.289062 111.335938 83.738281 111.339844 84.1875 C 111.34375 84.835938 111.34375 85.484375 111.347656 86.132812 C 111.347656 86.332031 111.347656 86.535156 111.351562 86.742188 C 111.351562 87.710938 111.34375 88.152344 111.117188 88.945312 C 110.789062 89.582031 110.53125 89.597656 110.132812 89.613281 C 109.992188 89.621094 109.992188 89.621094 109.84375 89.628906 C 109.421875 89.523438 109.171875 89.144531 108.875 88.359375 C 108.523438 87.140625 108.503906 85.828125 108.578125 84.359375 C 108.683594 83.007812 108.925781 82.335938 109.328125 81.550781 C 109.585938 81.324219 109.777344 81.3125 110.042969 81.316406 C 110.128906 81.3125 110.210938 81.3125 110.300781 81.3125 C 110.515625 81.339844 110.515625 81.339844 110.671875 81.550781 C 110.671875 80.507812 110.671875 79.464844 110.671875 78.390625 Z M 109.328125 83.449219 C 109.097656 84.4375 109.128906 85.484375 109.171875 86.609375 C 109.296875 87.414062 109.449219 87.835938 109.722656 88.296875 C 109.921875 88.378906 109.921875 88.378906 110.128906 88.347656 C 110.230469 88.34375 110.230469 88.34375 110.335938 88.335938 C 110.515625 88.324219 110.515625 88.324219 110.671875 88.085938 C 110.679688 87.25 110.683594 86.417969 110.6875 85.582031 C 110.6875 85.34375 110.691406 85.105469 110.691406 84.863281 C 110.695312 84.636719 110.695312 84.40625 110.695312 84.175781 C 110.695312 83.964844 110.699219 83.753906 110.699219 83.539062 C 110.691406 83.371094 110.679688 83.199219 110.671875 83.027344 C 110.214844 82.210938 109.703125 82.355469 109.328125 83.449219 Z M 109.328125 83.449219 "/>
<path style=" stroke:none;fill-rule:nonzero;fill:rgb(0%,0%,0%);fill-opacity:1;" d="M 136.441406 78.390625 C 136.597656 78.390625 136.753906 78.390625 136.917969 78.390625 C 137.070312 78.800781 137.027344 79.542969 137.039062 80.089844 C 137.046875 80.363281 137.054688 80.632812 137.0625 80.914062 C 137.066406 81.125 137.070312 81.335938 137.074219 81.550781 C 137.152344 81.480469 137.230469 81.414062 137.3125 81.339844 C 137.753906 81.238281 138.136719 81.1875 138.542969 81.683594 C 138.820312 82.410156 138.957031 83.089844 139 84.132812 C 138.996094 84.496094 138.996094 84.496094 138.996094 84.863281 C 138.996094 85.253906 138.996094 85.253906 138.992188 85.65625 C 138.992188 85.925781 138.988281 86.199219 138.988281 86.476562 C 138.984375 86.890625 138.984375 86.890625 138.984375 87.3125 C 138.980469 87.992188 138.976562 88.671875 138.972656 89.347656 C 138.8125 89.359375 138.65625 89.355469 138.496094 89.347656 C 138.363281 88.984375 138.402344 88.492188 138.398438 87.996094 C 138.398438 87.761719 138.394531 87.527344 138.390625 87.289062 C 138.386719 86.792969 138.382812 86.300781 138.378906 85.804688 C 138.375 85.457031 138.375 85.457031 138.371094 85.097656 C 138.367188 84.882812 138.367188 84.667969 138.363281 84.445312 C 138.339844 83.867188 138.300781 83.511719 138.183594 83.027344 C 137.996094 82.78125 137.878906 82.78125 137.671875 82.777344 C 137.609375 82.773438 137.550781 82.769531 137.484375 82.765625 C 137.289062 82.785156 137.289062 82.785156 137.074219 83.238281 C 137.035156 83.871094 137.035156 83.871094 137.035156 84.617188 C 137.03125 84.890625 137.027344 85.164062 137.027344 85.445312 C 137.023438 85.738281 137.023438 86.027344 137.019531 86.320312 C 137.019531 86.613281 137.015625 86.90625 137.011719 87.195312 C 137.007812 87.914062 137 88.632812 136.996094 89.347656 C 136.8125 89.347656 136.628906 89.347656 136.441406 89.347656 C 136.441406 85.734375 136.441406 82.117188 136.441406 78.390625 Z M 136.441406 78.390625 "/>
<path style=" stroke:none;fill-rule:nonzero;fill:rgb(0%,0%,0%);fill-opacity:1;" d="M 147.363281 81.476562 C 147.722656 81.960938 147.9375 82.65625 148.0625 83.660156 C 148.085938 84.242188 148.078125 84.757812 148.0625 85.34375 C 147.722656 85.671875 147.398438 85.871094 147.039062 86.003906 C 146.949219 86.039062 146.855469 86.074219 146.761719 86.109375 C 146.480469 86.1875 146.210938 86.199219 145.929688 86.1875 C 146.070312 87.042969 146.175781 87.601562 146.480469 88.085938 C 146.945312 88.257812 147.394531 88.160156 147.824219 87.664062 C 147.878906 87.941406 147.929688 88.21875 147.984375 88.503906 C 147.734375 89.222656 147.582031 89.527344 147.207031 89.609375 C 146.527344 89.648438 146.082031 89.5 145.582031 88.242188 C 145.265625 86.816406 145.253906 85.457031 145.375 83.871094 C 145.523438 82.757812 145.738281 82.230469 146.085938 81.550781 C 146.492188 81.191406 146.949219 81.144531 147.363281 81.476562 Z M 146.007812 83.660156 C 145.980469 84.144531 145.957031 84.632812 145.929688 85.132812 C 146.425781 84.996094 146.921875 84.855469 147.429688 84.710938 C 147.550781 83.867188 147.550781 83.867188 147.363281 83.183594 C 147.175781 82.636719 147.035156 82.5 146.757812 82.460938 C 146.390625 82.53125 146.21875 82.832031 146.007812 83.660156 Z M 146.007812 83.660156 "/>
<path style=" stroke:none;fill-rule:nonzero;fill:rgb(0%,0%,0%);fill-opacity:1;" d="M 141.75 81.476562 C 142.109375 81.960938 142.328125 82.65625 142.449219 83.660156 C 142.472656 84.242188 142.464844 84.757812 142.449219 85.34375 C 142.109375 85.671875 141.785156 85.871094 141.429688 86.003906 C 141.335938 86.039062 141.242188 86.074219 141.148438 86.109375 C 140.871094 86.1875 140.597656 86.199219 140.316406 86.1875 C 140.457031 87.042969 140.566406 87.601562 140.871094 88.085938 C 141.332031 88.257812 141.785156 88.160156 142.214844 87.664062 C 142.265625 87.941406 142.316406 88.21875 142.371094 88.503906 C 142.121094 89.222656 141.96875 89.527344 141.59375 89.609375 C 140.914062 89.648438 140.46875 89.5 139.96875 88.242188 C 139.65625 86.816406 139.644531 85.457031 139.761719 83.871094 C 139.914062 82.757812 140.125 82.230469 140.472656 81.550781 C 140.878906 81.191406 141.339844 81.144531 141.75 81.476562 Z M 140.394531 83.660156 C 140.371094 84.144531 140.34375 84.632812 140.316406 85.132812 C 140.8125 84.996094 141.308594 84.855469 141.816406 84.710938 C 141.9375 83.867188 141.9375 83.867188 141.75 83.183594 C 141.5625 82.636719 141.421875 82.5 141.144531 82.460938 C 140.777344 82.53125 140.605469 82.832031 140.394531 83.660156 Z M 140.394531 83.660156 "/>
<path style=" stroke:none;fill-rule:nonzero;fill:rgb(0%,0%,0%);fill-opacity:1;" d="M 124.910156 81.476562 C 125.269531 81.960938 125.488281 82.65625 125.613281 83.660156 C 125.636719 84.242188 125.628906 84.757812 125.613281 85.34375 C 125.273438 85.671875 124.949219 85.871094 124.589844 86.003906 C 124.496094 86.039062 124.40625 86.074219 124.3125 86.109375 C 124.03125 86.1875 123.757812 86.199219 123.476562 86.1875 C 123.621094 87.042969 123.726562 87.601562 124.03125 88.085938 C 124.492188 88.257812 124.945312 88.160156 125.375 87.664062 C 125.425781 87.941406 125.480469 88.21875 125.535156 88.503906 C 125.28125 89.222656 125.128906 89.527344 124.753906 89.609375 C 124.078125 89.648438 123.628906 89.5 123.132812 88.242188 C 122.816406 86.816406 122.804688 85.457031 122.925781 83.871094 C 123.074219 82.757812 123.285156 82.230469 123.636719 81.550781 C 124.042969 81.191406 124.5 81.144531 124.910156 81.476562 Z M 123.558594 83.660156 C 123.53125 84.144531 123.503906 84.632812 123.476562 85.132812 C 123.972656 84.996094 124.46875 84.855469 124.980469 84.710938 C 125.097656 83.867188 125.097656 83.867188 124.910156 83.183594 C 124.722656 82.636719 124.585938 82.5 124.308594 82.460938 C 123.941406 82.53125 123.769531 82.832031 123.558594 83.660156 Z M 123.558594 83.660156 "/>
<path style=" stroke:none;fill-rule:nonzero;fill:rgb(0%,0%,0%);fill-opacity:1;" d="M 118.585938 81.476562 C 118.945312 81.960938 119.164062 82.65625 119.289062 83.660156 C 119.3125 84.242188 119.304688 84.757812 119.289062 85.34375 C 118.949219 85.671875 118.625 85.871094 118.265625 86.003906 C 118.171875 86.039062 118.082031 86.074219 117.988281 86.109375 C 117.707031 86.1875 117.433594 86.199219 117.152344 86.1875 C 117.296875 87.042969 117.402344 87.601562 117.707031 88.085938 C 118.167969 88.257812 118.621094 88.160156 119.050781 87.664062 C 119.105469 87.941406 119.15625 88.21875 119.210938 88.503906 C 118.957031 89.222656 118.804688 89.527344 118.429688 89.609375 C 117.753906 89.648438 117.304688 89.5 116.808594 88.242188 C 116.492188 86.816406 116.480469 85.457031 116.601562 83.871094 C 116.75 82.757812 116.960938 82.230469 117.3125 81.550781 C 117.71875 81.191406 118.175781 81.144531 118.585938 81.476562 Z M 117.234375 83.660156 C 117.207031 84.144531 117.179688 84.632812 117.152344 85.132812 C 117.648438 84.996094 118.144531 84.855469 118.65625 84.710938 C 118.773438 83.867188 118.773438 83.867188 118.585938 83.183594 C 118.398438 82.636719 118.261719 82.5 117.984375 82.460938 C 117.617188 82.53125 117.445312 82.832031 117.234375 83.660156 Z M 117.234375 83.660156 "/>
<path style=" stroke:none;fill-rule:nonzero;fill:rgb(0%,0%,0%);fill-opacity:1;" d="M 114.082031 81.476562 C 114.441406 81.960938 114.660156 82.65625 114.78125 83.660156 C 114.804688 84.242188 114.796875 84.757812 114.78125 85.34375 C 114.441406 85.671875 114.117188 85.871094 113.761719 86.003906 C 113.667969 86.039062 113.574219 86.074219 113.480469 86.109375 C 113.203125 86.1875 112.929688 86.199219 112.648438 86.1875 C 112.789062 87.042969 112.898438 87.601562 113.203125 88.085938 C 113.664062 88.257812 114.117188 88.160156 114.546875 87.664062 C 114.597656 87.941406 114.648438 88.21875 114.703125 88.503906 C 114.453125 89.222656 114.300781 89.527344 113.925781 89.609375 C 113.246094 89.648438 112.800781 89.5 112.300781 88.242188 C 111.988281 86.816406 111.976562 85.457031 112.09375 83.871094 C 112.246094 82.757812 112.457031 82.230469 112.804688 81.550781 C 113.210938 81.191406 113.671875 81.144531 114.082031 81.476562 Z M 112.726562 83.660156 C 112.703125 84.144531 112.675781 84.632812 112.648438 85.132812 C 113.144531 84.996094 113.640625 84.855469 114.148438 84.710938 C 114.269531 83.867188 114.269531 83.867188 114.082031 83.183594 C 113.894531 82.636719 113.753906 82.5 113.476562 82.460938 C 113.109375 82.53125 112.9375 82.832031 112.726562 83.660156 Z M 112.726562 83.660156 "/>
<path style=" stroke:none;fill-rule:nonzero;fill:rgb(0%,0%,0%);fill-opacity:1;" d="M 128.539062 81.339844 C 128.71875 81.273438 128.71875 81.273438 128.933594 81.339844 C 129.117188 82.035156 129.234375 82.769531 129.347656 83.558594 C 129.394531 83.878906 129.394531 83.878906 129.445312 84.210938 C 129.492188 84.542969 129.492188 84.542969 129.539062 84.882812 C 129.574219 85.109375 129.605469 85.335938 129.640625 85.570312 C 129.722656 86.125 129.800781 86.683594 129.882812 87.242188 C 130.160156 85.574219 130.367188 83.941406 130.53125 82.175781 C 130.59375 81.550781 130.59375 81.550781 130.671875 81.339844 C 130.828125 81.332031 130.988281 81.332031 131.144531 81.339844 C 131.175781 82.734375 131.082031 83.820312 130.910156 85.132812 C 130.882812 85.328125 130.859375 85.519531 130.835938 85.71875 C 130.117188 91.132812 130.117188 91.132812 129.40625 92.507812 C 129.136719 92.613281 129.136719 92.613281 128.933594 92.507812 C 128.875 92.152344 128.875 92.152344 128.855469 91.667969 C 128.980469 91.160156 128.980469 91.160156 129.15625 90.625 C 129.378906 89.941406 129.535156 89.371094 129.644531 88.503906 C 129.566406 88.4375 129.488281 88.367188 129.40625 88.296875 C 129.308594 87.828125 129.222656 87.378906 129.140625 86.886719 C 129.117188 86.746094 129.09375 86.605469 129.066406 86.460938 C 128.429688 82.644531 128.429688 82.644531 128.488281 81.679688 C 128.503906 81.566406 128.519531 81.457031 128.539062 81.339844 Z M 128.539062 81.339844 "/>
<path style=" stroke:none;fill-rule:nonzero;fill:rgb(0%,0%,0%);fill-opacity:1;" d="M 105.535156 81.339844 C 105.714844 81.273438 105.714844 81.273438 105.929688 81.339844 C 106.113281 82.035156 106.230469 82.769531 106.34375 83.558594 C 106.390625 83.878906 106.390625 83.878906 106.441406 84.210938 C 106.488281 84.542969 106.488281 84.542969 106.535156 84.882812 C 106.570312 85.109375 106.601562 85.335938 106.636719 85.570312 C 106.71875 86.125 106.796875 86.683594 106.878906 87.242188 C 107.15625 85.574219 107.363281 83.941406 107.527344 82.175781 C 107.589844 81.550781 107.589844 81.550781 107.667969 81.339844 C 107.824219 81.332031 107.984375 81.332031 108.140625 81.339844 C 108.171875 82.734375 108.078125 83.820312 107.90625 85.132812 C 107.878906 85.328125 107.855469 85.519531 107.832031 85.71875 C 107.113281 91.132812 107.113281 91.132812 106.402344 92.507812 C 106.132812 92.613281 106.132812 92.613281 105.929688 92.507812 C 105.871094 92.152344 105.871094 92.152344 105.851562 91.667969 C 105.976562 91.160156 105.976562 91.160156 106.152344 90.625 C 106.375 89.941406 106.53125 89.371094 106.640625 88.503906 C 106.5625 88.4375 106.484375 88.367188 106.402344 88.296875 C 106.304688 87.828125 106.21875 87.378906 106.136719 86.886719 C 106.113281 86.746094 106.089844 86.605469 106.0625 86.460938 C 105.425781 82.644531 105.425781 82.644531 105.484375 81.679688 C 105.5 81.566406 105.515625 81.457031 105.535156 81.339844 Z M 105.535156 81.339844 "/>
<path style=" stroke:none;fill-rule:nonzero;fill:rgb(0%,0%,0%);fill-opacity:1;" d="M 119.761719 81.339844 C 119.945312 81.273438 119.945312 81.273438 120.15625 81.339844 C 120.34375 82.035156 120.453125 82.746094 120.554688 83.550781 C 120.582031 83.765625 120.609375 83.980469 120.636719 84.199219 C 120.664062 84.421875 120.691406 84.644531 120.722656 84.871094 C 120.777344 85.3125 120.832031 85.753906 120.890625 86.199219 C 120.914062 86.394531 120.9375 86.589844 120.964844 86.789062 C 121.011719 87.230469 121.011719 87.230469 121.105469 87.453125 C 121.367188 85.433594 121.628906 83.417969 121.898438 81.339844 C 122.054688 81.339844 122.210938 81.339844 122.371094 81.339844 C 122.460938 82.039062 122.441406 82.445312 122.355469 83.136719 C 122.332031 83.320312 122.308594 83.503906 122.285156 83.691406 C 122.257812 83.886719 122.234375 84.078125 122.207031 84.277344 C 122.183594 84.476562 122.160156 84.671875 122.132812 84.875 C 121.933594 86.417969 121.699219 87.890625 121.421875 89.347656 C 121.214844 89.347656 121.003906 89.347656 120.789062 89.347656 C 120.457031 87.753906 120.203125 86.105469 119.964844 84.398438 C 119.9375 84.191406 119.90625 83.988281 119.878906 83.777344 C 119.839844 83.488281 119.839844 83.488281 119.796875 83.191406 C 119.773438 83.019531 119.75 82.84375 119.726562 82.664062 C 119.679688 82.136719 119.695312 81.847656 119.761719 81.339844 Z M 119.761719 81.339844 "/>
<path style=" stroke:none;fill-rule:nonzero;fill:rgb(0%,0%,0%);fill-opacity:1;" d="M 144.980469 81.550781 C 144.980469 81.898438 144.980469 82.246094 144.980469 82.605469 C 144.882812 82.625 144.882812 82.625 144.78125 82.644531 C 144.652344 82.671875 144.652344 82.671875 144.519531 82.699219 C 144.433594 82.714844 144.351562 82.730469 144.261719 82.75 C 144.027344 82.796875 144.027344 82.796875 143.792969 83.027344 C 143.769531 85.113281 143.742188 87.199219 143.714844 89.347656 C 143.53125 89.347656 143.351562 89.347656 143.160156 89.347656 C 142.984375 88.390625 143.066406 87.066406 143.0625 86.015625 C 143.0625 85.746094 143.058594 85.476562 143.058594 85.195312 C 143.058594 84.933594 143.058594 84.675781 143.058594 84.40625 C 143.054688 84.167969 143.054688 83.925781 143.054688 83.679688 C 143.085938 82.945312 143.152344 82.558594 143.320312 81.972656 C 143.773438 81.226562 144.488281 80.894531 144.980469 81.550781 Z M 144.980469 81.550781 "/>
<path style=" stroke:none;fill-rule:nonzero;fill:rgb(0%,0%,0%);fill-opacity:1;" d="M 128.140625 81.550781 C 128.140625 81.898438 128.140625 82.246094 128.140625 82.605469 C 128.042969 82.625 128.042969 82.625 127.941406 82.644531 C 127.8125 82.671875 127.8125 82.671875 127.683594 82.699219 C 127.597656 82.714844 127.511719 82.730469 127.425781 82.75 C 127.1875 82.796875 127.1875 82.796875 126.957031 83.027344 C 126.929688 85.113281 126.90625 87.199219 126.878906 89.347656 C 126.695312 89.347656 126.511719 89.347656 126.324219 89.347656 C 126.144531 88.390625 126.226562 87.066406 126.226562 86.015625 C 126.222656 85.746094 126.222656 85.476562 126.21875 85.195312 C 126.21875 84.933594 126.21875 84.675781 126.21875 84.40625 C 126.21875 84.167969 126.21875 83.925781 126.21875 83.679688 C 126.25 82.945312 126.316406 82.558594 126.480469 81.972656 C 126.933594 81.226562 127.648438 80.894531 128.140625 81.550781 Z M 128.140625 81.550781 "/>
<path style=" stroke:none;fill-rule:nonzero;fill:rgb(0%,0%,0%);fill-opacity:1;" d="M 105.136719 81.550781 C 105.136719 81.898438 105.136719 82.246094 105.136719 82.605469 C 105.039062 82.625 105.039062 82.625 104.9375 82.644531 C 104.808594 82.671875 104.808594 82.671875 104.679688 82.699219 C 104.59375 82.714844 104.507812 82.730469 104.421875 82.75 C 104.183594 82.796875 104.183594 82.796875 103.953125 83.027344 C 103.925781 85.113281 103.902344 87.199219 103.875 89.347656 C 103.691406 89.347656 103.507812 89.347656 103.320312 89.347656 C 103.140625 88.390625 103.222656 87.066406 103.222656 86.015625 C 103.21875 85.746094 103.21875 85.476562 103.214844 85.195312 C 103.214844 84.933594 103.214844 84.675781 103.214844 84.40625 C 103.214844 84.167969 103.214844 83.925781 103.214844 83.679688 C 103.246094 82.945312 103.3125 82.558594 103.476562 81.972656 C 103.929688 81.226562 104.644531 80.894531 105.136719 81.550781 Z M 105.136719 81.550781 "/>
</g>
</svg>
