<?xml version="1.0" encoding="UTF-8"?>
<svg xmlns="http://www.w3.org/2000/svg" xmlns:xlink="http://www.w3.org/1999/xlink" width="250px" height="112px" viewBox="0 0 250 112" version="1.1">
<g id="surface1">
<path style=" stroke:none;fill-rule:nonzero;fill:rgb(92.156863%,38.431373%,17.647059%);fill-opacity:1;" d="M 12.972656 22.929688 C 13.070312 22.929688 13.167969 22.929688 13.265625 22.929688 C 13.425781 22.929688 13.425781 22.929688 13.589844 22.929688 C 13.703125 22.929688 13.816406 22.929688 13.933594 22.925781 C 14.3125 22.925781 14.695312 22.925781 15.074219 22.925781 C 15.347656 22.925781 15.617188 22.925781 15.890625 22.925781 C 16.554688 22.921875 17.21875 22.921875 17.882812 22.921875 C 18.425781 22.921875 18.96875 22.921875 19.507812 22.921875 C 21.042969 22.917969 22.582031 22.917969 24.117188 22.917969 C 24.199219 22.917969 24.28125 22.917969 24.367188 22.917969 C 24.492188 22.917969 24.492188 22.917969 24.621094 22.917969 C 25.960938 22.917969 27.300781 22.917969 28.640625 22.914062 C 30.015625 22.910156 31.394531 22.910156 32.773438 22.910156 C 33.546875 22.910156 34.320312 22.910156 35.089844 22.90625 C 35.820312 22.902344 36.550781 22.902344 37.277344 22.90625 C 37.542969 22.90625 37.808594 22.90625 38.074219 22.902344 C 41.796875 22.886719 45.507812 23.375 48.359375 28.601562 C 50.566406 33.085938 50.886719 39.121094 50.878906 45.046875 C 50.878906 45.503906 50.878906 45.964844 50.882812 46.421875 C 50.882812 47.65625 50.882812 48.890625 50.882812 50.125 C 50.882812 51.15625 50.882812 52.191406 50.882812 53.222656 C 50.886719 55.660156 50.882812 58.09375 50.882812 60.53125 C 50.882812 63.039062 50.882812 65.550781 50.886719 68.0625 C 50.890625 70.222656 50.890625 72.382812 50.890625 74.542969 C 50.890625 75.832031 50.890625 77.121094 50.890625 78.40625 C 50.894531 79.617188 50.890625 80.824219 50.890625 82.035156 C 50.890625 82.476562 50.890625 82.921875 50.890625 83.363281 C 50.894531 83.96875 50.890625 84.574219 50.890625 85.179688 C 50.890625 85.355469 50.890625 85.53125 50.894531 85.710938 C 50.882812 86.914062 50.75 87.621094 50.394531 88.613281 C 50.046875 88.953125 49.675781 88.863281 49.292969 88.867188 C 49.203125 88.867188 49.109375 88.867188 49.015625 88.871094 C 48.714844 88.875 48.410156 88.875 48.109375 88.878906 C 48.003906 88.878906 47.902344 88.878906 47.796875 88.882812 C 47.25 88.886719 46.703125 88.890625 46.15625 88.890625 C 45.589844 88.894531 45.023438 88.902344 44.460938 88.910156 C 44.027344 88.914062 43.59375 88.917969 43.15625 88.917969 C 42.949219 88.917969 42.742188 88.921875 42.535156 88.925781 C 42.242188 88.929688 41.949219 88.929688 41.660156 88.929688 C 41.53125 88.933594 41.53125 88.933594 41.398438 88.9375 C 41.003906 88.929688 40.757812 88.855469 40.414062 88.460938 C 39.960938 87.492188 39.933594 86.523438 39.9375 85.257812 C 39.9375 85.09375 39.9375 84.929688 39.933594 84.761719 C 39.933594 84.214844 39.933594 83.667969 39.933594 83.117188 C 39.933594 82.726562 39.933594 82.332031 39.933594 81.941406 C 39.933594 81.09375 39.929688 80.25 39.929688 79.40625 C 39.929688 78.066406 39.929688 76.730469 39.925781 75.394531 C 39.921875 72.070312 39.917969 68.75 39.914062 65.429688 C 39.914062 62.847656 39.910156 60.265625 39.90625 57.6875 C 39.902344 56.359375 39.902344 55.027344 39.902344 53.699219 C 39.902344 52.871094 39.902344 52.046875 39.898438 51.21875 C 39.898438 50.835938 39.898438 50.453125 39.898438 50.070312 C 39.902344 49.542969 39.898438 49.019531 39.898438 48.496094 C 39.898438 48.347656 39.898438 48.195312 39.898438 48.039062 C 39.890625 46.910156 39.746094 46.085938 39.527344 45.058594 C 39.492188 44.890625 39.457031 44.722656 39.421875 44.546875 C 39.265625 44.082031 39.132812 43.980469 38.867188 43.769531 C 38.742188 43.660156 38.617188 43.550781 38.488281 43.433594 C 37.953125 43.011719 37.492188 42.886719 36.914062 42.882812 C 36.789062 42.878906 36.660156 42.878906 36.53125 42.878906 C 36.390625 42.878906 36.253906 42.878906 36.109375 42.878906 C 35.960938 42.875 35.8125 42.875 35.667969 42.875 C 35.265625 42.871094 34.863281 42.871094 34.464844 42.867188 C 34.210938 42.867188 33.960938 42.867188 33.710938 42.867188 C 32.925781 42.863281 32.140625 42.863281 31.355469 42.859375 C 30.449219 42.859375 29.542969 42.855469 28.636719 42.851562 C 27.9375 42.84375 27.234375 42.84375 26.535156 42.84375 C 26.117188 42.84375 25.699219 42.839844 25.28125 42.835938 C 24.886719 42.832031 24.492188 42.832031 24.097656 42.835938 C 23.886719 42.835938 23.675781 42.832031 23.460938 42.828125 C 22.632812 42.835938 21.914062 42.886719 21.257812 44 C 20.785156 45.671875 20.820312 47.722656 20.792969 49.589844 C 20.789062 49.835938 20.785156 50.082031 20.777344 50.335938 C 20.769531 50.9375 20.757812 51.539062 20.75 52.136719 C 20.8125 52.136719 20.871094 52.136719 20.933594 52.136719 C 22.394531 52.121094 23.855469 52.109375 25.316406 52.105469 C 26.023438 52.101562 26.730469 52.097656 27.4375 52.089844 C 28.121094 52.082031 28.800781 52.078125 29.484375 52.078125 C 29.746094 52.074219 30.003906 52.074219 30.265625 52.070312 C 30.628906 52.066406 30.992188 52.066406 31.359375 52.066406 C 31.464844 52.0625 31.574219 52.058594 31.683594 52.058594 C 32.285156 52.0625 32.710938 52.125 33.15625 52.996094 C 33.191406 54.117188 33.191406 55.234375 33.195312 56.355469 C 33.199219 56.734375 33.199219 57.113281 33.207031 57.488281 C 33.210938 58.035156 33.214844 58.578125 33.214844 59.121094 C 33.21875 59.289062 33.21875 59.460938 33.222656 59.632812 C 33.222656 60.382812 33.203125 60.828125 32.949219 61.410156 C 32.453125 61.964844 32.019531 61.90625 31.457031 61.890625 C 31.34375 61.890625 31.226562 61.890625 31.105469 61.890625 C 30.726562 61.890625 30.34375 61.882812 29.960938 61.875 C 29.695312 61.875 29.429688 61.875 29.164062 61.875 C 28.46875 61.871094 27.773438 61.863281 27.074219 61.851562 C 26.363281 61.84375 25.652344 61.839844 24.9375 61.835938 C 23.542969 61.824219 22.148438 61.8125 20.75 61.792969 C 20.761719 62.71875 20.777344 63.644531 20.792969 64.570312 C 20.796875 64.828125 20.800781 65.089844 20.800781 65.355469 C 20.808594 67.902344 20.808594 67.902344 21.335938 70.148438 C 21.816406 70.871094 22.210938 71.074219 22.8125 71.078125 C 22.9375 71.078125 23.066406 71.082031 23.195312 71.082031 C 23.398438 71.085938 23.398438 71.085938 23.605469 71.085938 C 23.820312 71.089844 24.039062 71.09375 24.253906 71.097656 C 24.785156 71.105469 25.316406 71.113281 25.84375 71.117188 C 29.578125 71.152344 33.445312 71.472656 36.5625 75.953125 C 36.632812 76.054688 36.703125 76.15625 36.777344 76.257812 C 38.4375 78.789062 39.160156 82.851562 39.476562 86.765625 C 39.539062 87.894531 39.539062 87.894531 39.527344 88.398438 C 39.257812 88.921875 39.117188 88.878906 38.75 88.886719 C 38.671875 88.882812 38.59375 88.882812 38.515625 88.882812 C 38.390625 88.882812 38.390625 88.882812 38.265625 88.882812 C 37.988281 88.886719 37.710938 88.882812 37.433594 88.882812 C 37.234375 88.882812 37.035156 88.882812 36.835938 88.886719 C 36.296875 88.886719 35.753906 88.886719 35.214844 88.886719 C 34.648438 88.882812 34.082031 88.886719 33.515625 88.886719 C 32.5625 88.886719 31.609375 88.886719 30.65625 88.882812 C 29.554688 88.882812 28.457031 88.882812 27.359375 88.882812 C 26.414062 88.886719 25.46875 88.886719 24.523438 88.886719 C 23.960938 88.882812 23.398438 88.882812 22.832031 88.886719 C 22.300781 88.886719 21.769531 88.886719 21.238281 88.882812 C 21.046875 88.882812 20.851562 88.882812 20.65625 88.882812 C 18.363281 88.894531 15.941406 88.597656 14.183594 85.339844 C 12.277344 81.347656 12.261719 76.125 12.273438 70.988281 C 12.273438 70.464844 12.273438 69.941406 12.273438 69.417969 C 12.273438 68.300781 12.273438 67.179688 12.273438 66.058594 C 12.277344 64.441406 12.277344 62.820312 12.277344 61.199219 C 12.277344 58.570312 12.277344 55.945312 12.28125 53.316406 C 12.28125 50.765625 12.285156 48.214844 12.285156 45.660156 C 12.285156 45.503906 12.285156 45.347656 12.285156 45.183594 C 12.285156 44.394531 12.285156 43.601562 12.285156 42.8125 C 12.289062 36.265625 12.292969 29.71875 12.296875 23.171875 C 12.550781 22.925781 12.691406 22.929688 12.972656 22.929688 Z M 12.972656 22.929688 "/>
<path style=" stroke:none;fill-rule:nonzero;fill:rgb(17.647059%,17.647059%,18.039216%);fill-opacity:1;" d="M 12.296875 42.269531 C 12.40625 42.375 12.40625 42.375 12.515625 42.484375 C 12.828125 42.507812 13.136719 42.523438 13.449219 42.527344 C 13.542969 42.527344 13.640625 42.53125 13.742188 42.535156 C 14.058594 42.539062 14.378906 42.546875 14.699219 42.550781 C 14.921875 42.554688 15.140625 42.558594 15.363281 42.5625 C 15.945312 42.574219 16.527344 42.585938 17.113281 42.597656 C 17.707031 42.609375 18.300781 42.621094 18.894531 42.632812 C 20.0625 42.65625 21.230469 42.675781 22.398438 42.699219 C 22.300781 42.792969 22.300781 42.792969 22.199219 42.886719 C 21.585938 43.492188 21.214844 43.988281 20.96875 45.273438 C 20.835938 46.6875 20.824219 48.113281 20.800781 49.550781 C 20.792969 49.921875 20.792969 49.921875 20.785156 50.304688 C 20.773438 50.914062 20.761719 51.527344 20.75 52.136719 C 20.839844 52.136719 20.839844 52.136719 20.933594 52.136719 C 22.394531 52.121094 23.855469 52.109375 25.316406 52.105469 C 26.023438 52.101562 26.730469 52.097656 27.4375 52.089844 C 28.121094 52.082031 28.800781 52.078125 29.484375 52.078125 C 29.746094 52.074219 30.003906 52.074219 30.265625 52.070312 C 30.628906 52.066406 30.992188 52.066406 31.359375 52.066406 C 31.519531 52.0625 31.519531 52.0625 31.683594 52.058594 C 32.285156 52.0625 32.710938 52.125 33.15625 52.996094 C 33.191406 54.117188 33.191406 55.234375 33.195312 56.355469 C 33.199219 56.734375 33.199219 57.113281 33.207031 57.488281 C 33.210938 58.035156 33.214844 58.578125 33.214844 59.121094 C 33.21875 59.289062 33.21875 59.460938 33.222656 59.632812 C 33.222656 60.382812 33.203125 60.828125 32.949219 61.410156 C 32.453125 61.964844 32.019531 61.90625 31.457031 61.890625 C 31.34375 61.890625 31.226562 61.890625 31.105469 61.890625 C 30.726562 61.890625 30.34375 61.882812 29.960938 61.875 C 29.695312 61.875 29.429688 61.875 29.164062 61.875 C 28.46875 61.871094 27.769531 61.863281 27.074219 61.851562 C 26.363281 61.84375 25.652344 61.839844 24.9375 61.835938 C 23.542969 61.824219 22.148438 61.8125 20.75 61.792969 C 20.761719 62.71875 20.777344 63.644531 20.792969 64.570312 C 20.796875 64.828125 20.800781 65.089844 20.800781 65.355469 C 20.808594 67.902344 20.808594 67.902344 21.335938 70.148438 C 21.816406 70.871094 22.210938 71.074219 22.8125 71.078125 C 22.9375 71.078125 23.066406 71.082031 23.195312 71.082031 C 23.398438 71.085938 23.398438 71.085938 23.605469 71.085938 C 23.820312 71.089844 24.039062 71.09375 24.253906 71.097656 C 24.785156 71.105469 25.316406 71.113281 25.84375 71.117188 C 29.578125 71.152344 33.445312 71.472656 36.5625 75.953125 C 36.632812 76.054688 36.703125 76.15625 36.777344 76.257812 C 38.4375 78.789062 39.160156 82.851562 39.476562 86.765625 C 39.539062 87.894531 39.539062 87.894531 39.527344 88.398438 C 39.257812 88.921875 39.117188 88.878906 38.75 88.886719 C 38.671875 88.882812 38.59375 88.882812 38.515625 88.882812 C 38.390625 88.882812 38.390625 88.882812 38.265625 88.882812 C 37.988281 88.886719 37.710938 88.882812 37.433594 88.882812 C 37.234375 88.882812 37.035156 88.882812 36.835938 88.886719 C 36.296875 88.886719 35.753906 88.886719 35.214844 88.886719 C 34.648438 88.882812 34.082031 88.886719 33.515625 88.886719 C 32.5625 88.886719 31.609375 88.886719 30.65625 88.882812 C 29.554688 88.882812 28.457031 88.882812 27.359375 88.882812 C 26.414062 88.886719 25.46875 88.886719 24.523438 88.886719 C 23.960938 88.882812 23.398438 88.882812 22.832031 88.886719 C 22.300781 88.886719 21.769531 88.886719 21.238281 88.882812 C 21.046875 88.882812 20.851562 88.882812 20.65625 88.882812 C 18.363281 88.894531 15.941406 88.597656 14.183594 85.339844 C 12.527344 81.863281 12.261719 77.300781 12.273438 72.738281 C 12.273438 72.40625 12.273438 72.070312 12.273438 71.738281 C 12.273438 70.839844 12.273438 69.9375 12.273438 69.039062 C 12.277344 68.097656 12.277344 67.15625 12.277344 66.210938 C 12.277344 64.429688 12.277344 62.648438 12.28125 60.867188 C 12.285156 58.839844 12.285156 56.808594 12.285156 54.78125 C 12.289062 50.609375 12.292969 46.4375 12.296875 42.269531 Z M 12.296875 42.269531 "/>
<path style=" stroke:none;fill-rule:nonzero;fill:rgb(94.901961%,56.470591%,12.54902%);fill-opacity:1;" d="M 12.972656 22.929688 C 13.066406 22.929688 13.164062 22.929688 13.261719 22.929688 C 13.371094 22.929688 13.476562 22.929688 13.585938 22.933594 C 13.753906 22.933594 13.753906 22.933594 13.925781 22.929688 C 14.304688 22.929688 14.683594 22.933594 15.0625 22.933594 C 15.332031 22.933594 15.601562 22.933594 15.871094 22.933594 C 16.457031 22.933594 17.039062 22.933594 17.621094 22.933594 C 18.464844 22.9375 19.308594 22.9375 20.152344 22.9375 C 21.523438 22.9375 22.890625 22.941406 24.261719 22.941406 C 25.589844 22.945312 26.917969 22.945312 28.25 22.945312 C 28.332031 22.945312 28.414062 22.945312 28.5 22.945312 C 29.148438 22.945312 29.796875 22.945312 30.441406 22.949219 C 33.617188 22.949219 36.789062 22.953125 39.964844 22.957031 C 39.964844 30.816406 39.964844 38.675781 39.964844 46.773438 C 39.890625 46.492188 39.820312 46.207031 39.746094 45.914062 C 39.667969 45.695312 39.589844 45.472656 39.511719 45.246094 C 39.304688 44.628906 39.304688 44.628906 39.304688 44.199219 C 38.355469 43.230469 37.589844 42.878906 36.535156 42.878906 C 36.433594 42.878906 36.328125 42.878906 36.222656 42.878906 C 35.878906 42.875 35.535156 42.875 35.191406 42.875 C 34.945312 42.875 34.699219 42.871094 34.453125 42.871094 C 33.921875 42.867188 33.390625 42.863281 32.863281 42.863281 C 32.023438 42.859375 31.1875 42.855469 30.347656 42.847656 C 29.171875 42.839844 28 42.835938 26.824219 42.828125 C 26.75 42.828125 26.675781 42.828125 26.597656 42.828125 C 25.539062 42.820312 24.484375 42.816406 23.425781 42.8125 C 23.347656 42.808594 23.273438 42.808594 23.199219 42.808594 C 23.125 42.808594 23.050781 42.808594 22.972656 42.808594 C 21.730469 42.804688 20.492188 42.796875 19.25 42.785156 C 18.414062 42.78125 17.582031 42.777344 16.746094 42.773438 C 16.230469 42.773438 15.710938 42.769531 15.195312 42.765625 C 14.953125 42.761719 14.714844 42.761719 14.472656 42.761719 C 14.144531 42.761719 13.816406 42.757812 13.488281 42.753906 C 13.394531 42.757812 13.296875 42.757812 13.199219 42.757812 C 12.542969 42.746094 12.542969 42.746094 12.296875 42.269531 C 12.277344 41.660156 12.269531 41.074219 12.273438 40.464844 C 12.273438 40.28125 12.273438 40.09375 12.273438 39.902344 C 12.273438 39.285156 12.273438 38.667969 12.277344 38.050781 C 12.277344 37.621094 12.277344 37.195312 12.277344 36.765625 C 12.277344 35.640625 12.28125 34.511719 12.28125 33.386719 C 12.285156 32.238281 12.285156 31.089844 12.285156 29.9375 C 12.289062 27.683594 12.292969 25.429688 12.296875 23.171875 C 12.550781 22.925781 12.691406 22.929688 12.972656 22.929688 Z M 12.972656 22.929688 "/>
<path style=" stroke:none;fill-rule:nonzero;fill:rgb(92.156863%,38.431373%,18.039216%);fill-opacity:1;" d="M 110.121094 22.742188 C 111.789062 22.742188 113.457031 22.742188 115.171875 22.742188 C 115.179688 27.125 115.183594 31.507812 115.183594 35.886719 C 115.1875 37.921875 115.1875 39.957031 115.191406 41.992188 C 115.191406 43.765625 115.195312 45.542969 115.195312 47.316406 C 115.195312 48.253906 115.195312 49.195312 115.195312 50.132812 C 115.199219 51.019531 115.199219 51.90625 115.199219 52.792969 C 115.199219 53.113281 115.199219 53.4375 115.199219 53.757812 C 115.203125 55.488281 115.171875 57.191406 115.074219 58.914062 C 115.066406 59.070312 115.058594 59.226562 115.046875 59.390625 C 114.835938 62.886719 114.144531 66.042969 113.085938 68.875 C 113.035156 69.011719 112.988281 69.152344 112.933594 69.292969 C 111.542969 72.792969 109.238281 74.574219 107.070312 75.21875 C 104.234375 75.859375 101.300781 74.929688 99 71.476562 C 97 68.171875 95.910156 63.394531 95.628906 58.359375 C 95.496094 52.929688 95.808594 47.449219 97.710938 43.179688 C 99.167969 40.046875 101.125 37.789062 103.320312 37.503906 C 103.695312 37.472656 104.066406 37.460938 104.441406 37.453125 C 104.558594 37.453125 104.675781 37.449219 104.800781 37.449219 C 106.714844 37.488281 108.308594 38.816406 109.683594 41.378906 C 109.902344 41.839844 109.902344 41.839844 110.011719 42.269531 C 110.066406 32.601562 110.066406 32.601562 110.121094 22.742188 Z M 102.546875 47.847656 C 102.480469 47.949219 102.410156 48.050781 102.34375 48.160156 C 101.449219 49.695312 100.867188 52.292969 100.769531 54.589844 C 100.757812 55.152344 100.753906 55.714844 100.757812 56.28125 C 100.757812 56.480469 100.757812 56.679688 100.757812 56.886719 C 100.769531 58.320312 100.835938 59.597656 101.121094 60.933594 C 101.175781 61.203125 101.175781 61.203125 101.230469 61.476562 C 101.730469 63.675781 102.507812 65.289062 103.632812 66.273438 C 104.800781 67.101562 105.96875 67.125 107.144531 66.289062 C 108.34375 65.191406 109.105469 63.515625 109.605469 61.113281 C 110.179688 57.859375 110.226562 54.386719 109.523438 51.191406 C 108.867188 48.648438 108.082031 47.179688 106.71875 46.183594 C 105.25 45.320312 103.726562 46.007812 102.546875 47.847656 Z M 102.546875 47.847656 "/>
<path style=" stroke:none;fill-rule:nonzero;fill:rgb(92.156863%,38.431373%,18.039216%);fill-opacity:1;" d="M 74.988281 38.40625 C 76.621094 38.40625 78.25 38.40625 79.929688 38.40625 C 80.054688 38.898438 80.054688 39.167969 80.054688 39.710938 C 80.054688 39.898438 80.054688 40.082031 80.054688 40.269531 C 80.054688 40.472656 80.054688 40.671875 80.054688 40.882812 C 80.054688 41.09375 80.054688 41.308594 80.054688 41.527344 C 80.058594 41.988281 80.058594 42.453125 80.058594 42.914062 C 80.058594 43.648438 80.0625 44.382812 80.0625 45.113281 C 80.066406 47.199219 80.074219 49.285156 80.074219 51.371094 C 80.078125 52.644531 80.078125 53.921875 80.085938 55.195312 C 80.085938 55.679688 80.085938 56.164062 80.085938 56.652344 C 80.085938 57.332031 80.089844 58.011719 80.089844 58.695312 C 80.089844 58.894531 80.089844 59.09375 80.089844 59.296875 C 80.105469 61.347656 80.523438 63.101562 81.246094 64.582031 C 82.207031 66.132812 83.152344 66.867188 84.40625 66.683594 C 85.128906 66.472656 85.691406 66.011719 86.296875 65.226562 C 86.445312 65.039062 86.445312 65.039062 86.59375 64.851562 C 87.394531 63.324219 87.828125 61.402344 87.878906 59.210938 C 87.878906 58.828125 87.882812 58.445312 87.878906 58.0625 C 87.882812 57.851562 87.882812 57.640625 87.882812 57.421875 C 87.886719 56.730469 87.886719 56.039062 87.886719 55.347656 C 87.890625 54.867188 87.890625 54.382812 87.890625 53.902344 C 87.898438 52.636719 87.898438 51.375 87.902344 50.109375 C 87.90625 48.082031 87.914062 46.050781 87.917969 44.023438 C 87.921875 43.3125 87.921875 42.601562 87.925781 41.894531 C 87.925781 41.460938 87.925781 41.03125 87.925781 40.601562 C 87.925781 40.402344 87.925781 40.203125 87.925781 40 C 87.933594 38.644531 87.933594 38.644531 88.054688 38.40625 C 88.207031 38.386719 88.355469 38.378906 88.507812 38.378906 C 88.605469 38.378906 88.703125 38.378906 88.800781 38.375 C 88.90625 38.375 89.011719 38.378906 89.117188 38.378906 C 89.226562 38.378906 89.332031 38.378906 89.441406 38.378906 C 89.667969 38.375 89.894531 38.378906 90.121094 38.378906 C 90.46875 38.378906 90.816406 38.378906 91.164062 38.375 C 91.382812 38.375 91.601562 38.378906 91.820312 38.378906 C 91.925781 38.378906 92.03125 38.375 92.140625 38.375 C 92.234375 38.378906 92.332031 38.378906 92.429688 38.378906 C 92.515625 38.378906 92.601562 38.378906 92.691406 38.378906 C 92.886719 38.40625 92.886719 38.40625 92.996094 38.621094 C 93.007812 38.90625 93.011719 39.195312 93.011719 39.480469 C 93.011719 39.667969 93.011719 39.851562 93.011719 40.042969 C 93.011719 40.351562 93.011719 40.351562 93.011719 40.664062 C 93.011719 40.878906 93.015625 41.09375 93.015625 41.316406 C 93.015625 42.03125 93.015625 42.75 93.015625 43.464844 C 93.019531 43.960938 93.019531 44.460938 93.019531 44.957031 C 93.019531 46.003906 93.019531 47.050781 93.023438 48.097656 C 93.023438 49.433594 93.023438 50.765625 93.027344 52.101562 C 93.03125 53.132812 93.03125 54.160156 93.03125 55.191406 C 93.03125 55.683594 93.03125 56.175781 93.035156 56.667969 C 93.046875 62.078125 92.601562 66.800781 90.59375 70.828125 C 89.511719 72.871094 88.105469 74.183594 86.628906 74.667969 C 86.589844 79.269531 86.554688 83.871094 86.515625 88.613281 C 86.269531 88.855469 86.128906 88.855469 85.851562 88.859375 C 85.761719 88.859375 85.667969 88.863281 85.574219 88.863281 C 85.476562 88.863281 85.378906 88.863281 85.273438 88.863281 C 85.171875 88.863281 85.070312 88.863281 84.96875 88.867188 C 84.753906 88.867188 84.539062 88.867188 84.324219 88.867188 C 83.992188 88.867188 83.664062 88.871094 83.335938 88.875 C 83.125 88.875 82.917969 88.875 82.707031 88.878906 C 82.609375 88.878906 82.511719 88.878906 82.410156 88.882812 C 82.316406 88.882812 82.226562 88.878906 82.132812 88.878906 C 82.050781 88.878906 81.96875 88.878906 81.886719 88.878906 C 81.6875 88.828125 81.6875 88.828125 81.46875 88.398438 C 81.4375 87.832031 81.4375 87.832031 81.433594 87.109375 C 81.429688 86.839844 81.425781 86.566406 81.425781 86.289062 C 81.425781 85.992188 81.421875 85.695312 81.421875 85.398438 C 81.417969 85.097656 81.417969 84.792969 81.414062 84.492188 C 81.410156 83.695312 81.40625 82.898438 81.402344 82.101562 C 81.394531 81.289062 81.390625 80.476562 81.386719 79.664062 C 81.375 78.070312 81.367188 76.476562 81.355469 74.882812 C 81.222656 74.796875 81.089844 74.714844 80.953125 74.628906 C 80.773438 74.519531 80.597656 74.40625 80.417969 74.292969 C 80.332031 74.238281 80.246094 74.183594 80.15625 74.128906 C 78.261719 72.921875 76.761719 70.269531 75.832031 66.855469 C 75.246094 64.40625 74.972656 62.195312 74.976562 59.5 C 74.976562 59.273438 74.976562 59.042969 74.976562 58.808594 C 74.976562 58.054688 74.976562 57.304688 74.976562 56.550781 C 74.976562 56.027344 74.980469 55.507812 74.980469 54.984375 C 74.980469 53.609375 74.980469 52.238281 74.980469 50.863281 C 74.984375 49.460938 74.984375 48.058594 74.984375 46.65625 C 74.984375 43.90625 74.988281 41.15625 74.988281 38.40625 Z M 74.988281 38.40625 "/>
<path style=" stroke:none;fill-rule:nonzero;fill:rgb(95.294118%,56.862748%,12.54902%);fill-opacity:1;" d="M 202.019531 39.050781 C 203.652344 39.050781 205.28125 39.050781 206.960938 39.050781 C 207.0625 39.636719 207.085938 39.984375 207.085938 40.589844 C 207.085938 40.769531 207.085938 40.953125 207.085938 41.140625 C 207.085938 41.339844 207.085938 41.539062 207.085938 41.746094 C 207.085938 41.957031 207.085938 42.164062 207.085938 42.382812 C 207.089844 42.839844 207.089844 43.296875 207.089844 43.753906 C 207.089844 44.480469 207.089844 45.207031 207.09375 45.929688 C 207.097656 47.992188 207.105469 50.054688 207.105469 52.117188 C 207.109375 53.378906 207.109375 54.640625 207.117188 55.902344 C 207.117188 56.382812 207.117188 56.859375 207.117188 57.339844 C 207.117188 58.015625 207.121094 58.6875 207.121094 59.359375 C 207.121094 59.558594 207.121094 59.753906 207.121094 59.957031 C 207.136719 62.054688 207.582031 63.664062 208.277344 65.226562 C 209.085938 66.722656 210.035156 67.246094 211.132812 67.371094 C 211.972656 67.289062 212.632812 66.769531 213.328125 65.871094 C 213.476562 65.683594 213.476562 65.683594 213.625 65.496094 C 214.425781 63.96875 214.859375 62.046875 214.910156 59.855469 C 214.910156 59.472656 214.914062 59.089844 214.910156 58.707031 C 214.914062 58.492188 214.914062 58.28125 214.914062 58.066406 C 214.917969 57.375 214.917969 56.683594 214.917969 55.992188 C 214.921875 55.511719 214.921875 55.027344 214.921875 54.546875 C 214.929688 53.28125 214.929688 52.019531 214.933594 50.753906 C 214.9375 48.726562 214.945312 46.695312 214.949219 44.667969 C 214.953125 43.957031 214.953125 43.246094 214.957031 42.539062 C 214.957031 42.105469 214.957031 41.675781 214.957031 41.242188 C 214.957031 41.046875 214.957031 40.847656 214.957031 40.640625 C 214.964844 39.289062 214.964844 39.289062 215.085938 39.050781 C 215.238281 39.027344 215.386719 39.023438 215.539062 39.023438 C 215.636719 39.019531 215.734375 39.019531 215.832031 39.019531 C 215.9375 39.019531 216.042969 39.019531 216.148438 39.019531 C 216.257812 39.019531 216.363281 39.019531 216.472656 39.019531 C 216.699219 39.019531 216.925781 39.019531 217.152344 39.023438 C 217.5 39.023438 217.847656 39.023438 218.195312 39.019531 C 218.414062 39.019531 218.632812 39.019531 218.851562 39.019531 C 218.957031 39.019531 219.0625 39.019531 219.171875 39.019531 C 219.265625 39.019531 219.363281 39.019531 219.460938 39.023438 C 219.546875 39.023438 219.632812 39.023438 219.71875 39.023438 C 219.917969 39.050781 219.917969 39.050781 220.027344 39.265625 C 220.039062 39.550781 220.042969 39.839844 220.042969 40.125 C 220.042969 40.3125 220.042969 40.496094 220.042969 40.6875 C 220.042969 40.996094 220.042969 40.996094 220.042969 41.308594 C 220.042969 41.523438 220.046875 41.738281 220.046875 41.960938 C 220.046875 42.675781 220.046875 43.390625 220.046875 44.109375 C 220.050781 44.605469 220.050781 45.101562 220.050781 45.601562 C 220.050781 46.648438 220.050781 47.695312 220.050781 48.742188 C 220.054688 50.074219 220.054688 51.410156 220.058594 52.746094 C 220.0625 53.773438 220.0625 54.804688 220.0625 55.835938 C 220.0625 56.328125 220.0625 56.816406 220.066406 57.308594 C 220.078125 62.722656 219.632812 67.445312 217.625 71.46875 C 216.542969 73.515625 215.136719 74.828125 213.660156 75.308594 C 213.621094 79.914062 213.585938 84.515625 213.546875 89.257812 C 213.300781 89.5 213.160156 89.5 212.882812 89.503906 C 212.792969 89.503906 212.699219 89.503906 212.605469 89.507812 C 212.507812 89.507812 212.410156 89.507812 212.304688 89.507812 C 212.203125 89.507812 212.101562 89.507812 212 89.507812 C 211.785156 89.511719 211.570312 89.511719 211.355469 89.511719 C 211.023438 89.511719 210.695312 89.515625 210.367188 89.519531 C 210.15625 89.519531 209.949219 89.519531 209.738281 89.519531 C 209.640625 89.523438 209.542969 89.523438 209.441406 89.523438 C 209.347656 89.523438 209.257812 89.523438 209.164062 89.523438 C 209.082031 89.523438 209 89.523438 208.917969 89.523438 C 208.71875 89.472656 208.71875 89.472656 208.496094 89.042969 C 208.46875 88.46875 208.46875 88.46875 208.464844 87.734375 C 208.460938 87.457031 208.457031 87.183594 208.457031 86.898438 C 208.457031 86.597656 208.453125 86.296875 208.453125 85.996094 C 208.449219 85.6875 208.449219 85.382812 208.445312 85.074219 C 208.441406 84.265625 208.4375 83.457031 208.433594 82.648438 C 208.425781 81.820312 208.421875 80.996094 208.417969 80.171875 C 208.40625 78.550781 208.398438 76.929688 208.386719 75.308594 C 208.269531 75.28125 208.152344 75.25 208.027344 75.21875 C 206.222656 74.679688 204.710938 72.390625 203.558594 69.730469 C 202.503906 66.871094 202 63.648438 202.007812 60.144531 C 202.007812 59.914062 202.007812 59.6875 202.007812 59.453125 C 202.007812 58.699219 202.007812 57.949219 202.007812 57.195312 C 202.007812 56.671875 202.011719 56.148438 202.011719 55.628906 C 202.011719 54.253906 202.011719 52.878906 202.011719 51.507812 C 202.015625 50.105469 202.015625 48.703125 202.015625 47.300781 C 202.015625 44.550781 202.019531 41.800781 202.019531 39.050781 Z M 202.019531 39.050781 "/>
<path style=" stroke:none;fill-rule:nonzero;fill:rgb(95.294118%,56.862748%,12.54902%);fill-opacity:1;" d="M 173.472656 38.835938 C 173.59375 38.90625 173.710938 38.976562 173.835938 39.050781 C 175.984375 40.492188 177.753906 43.5 178.78125 47.453125 C 179.507812 50.398438 179.863281 53.484375 179.855469 56.753906 C 179.855469 56.953125 179.855469 57.152344 179.855469 57.355469 C 179.855469 58.011719 179.851562 58.664062 179.851562 59.316406 C 179.851562 59.773438 179.851562 60.226562 179.851562 60.683594 C 179.851562 61.875 179.851562 63.070312 179.847656 64.265625 C 179.847656 65.699219 179.847656 67.132812 179.847656 68.566406 C 179.847656 70.742188 179.84375 72.917969 179.84375 75.097656 C 178.175781 75.097656 176.507812 75.097656 174.792969 75.097656 C 174.753906 73.324219 174.71875 71.554688 174.679688 69.730469 C 174.496094 70.261719 174.496094 70.261719 174.304688 70.804688 C 173.265625 73.566406 171.894531 75.25 170.160156 75.859375 C 167.71875 76.402344 165.539062 75.542969 163.59375 72.519531 C 161.636719 69.28125 160.625 64.5 160.324219 59.59375 C 160.3125 59.253906 160.304688 58.914062 160.296875 58.574219 C 160.292969 58.367188 160.289062 58.160156 160.285156 57.945312 C 160.222656 52.171875 161.128906 47.210938 163.167969 43.003906 C 165.738281 38.089844 170.09375 36.777344 173.472656 38.835938 Z M 166.640625 49.628906 C 165.566406 52.246094 165.292969 55.53125 165.457031 58.789062 C 165.613281 60.785156 165.957031 62.515625 166.558594 64.152344 C 166.636719 64.378906 166.714844 64.605469 166.796875 64.835938 C 167.78125 66.757812 168.917969 67.546875 170.289062 67.585938 C 171.503906 67.445312 172.585938 66.5625 173.414062 64.789062 C 174.625 61.804688 174.859375 58.414062 174.679688 54.710938 C 174.4375 52.066406 173.769531 49.769531 172.707031 48.0625 C 170.710938 45.382812 168.246094 46.261719 166.640625 49.628906 Z M 166.640625 49.628906 "/>
<path style=" stroke:none;fill-rule:nonzero;fill:rgb(95.294118%,56.862748%,12.54902%);fill-opacity:1;" d="M 155.503906 40.980469 C 157.535156 43.964844 158.355469 48.335938 158.832031 53.042969 C 158.894531 54.296875 158.886719 55.546875 158.886719 56.804688 C 158.886719 57.070312 158.886719 57.332031 158.886719 57.605469 C 158.886719 57.984375 158.886719 57.984375 158.886719 58.371094 C 158.886719 58.601562 158.886719 58.828125 158.886719 59.066406 C 158.871094 59.648438 158.871094 59.648438 158.761719 60.292969 C 154.667969 60.292969 150.574219 60.292969 146.355469 60.292969 C 147.074219 63.105469 147.53125 64.605469 149.019531 65.703125 C 150.113281 66.390625 151.136719 66.546875 152.277344 66.582031 C 152.398438 66.585938 152.523438 66.589844 152.648438 66.59375 C 153.039062 66.609375 153.429688 66.621094 153.820312 66.632812 C 154.085938 66.644531 154.351562 66.652344 154.617188 66.664062 C 155.265625 66.683594 155.917969 66.707031 156.566406 66.726562 C 156.566406 69.488281 156.566406 72.25 156.566406 75.097656 C 155.742188 75.109375 154.917969 75.121094 154.09375 75.128906 C 153.710938 75.132812 153.324219 75.136719 152.941406 75.144531 C 149.585938 75.207031 146.261719 74.730469 143.714844 69.949219 C 143.570312 69.664062 143.425781 69.375 143.28125 69.089844 C 143.207031 68.949219 143.136719 68.808594 143.058594 68.664062 C 141.273438 64.988281 140.917969 60.199219 140.945312 55.34375 C 141.003906 51.214844 141.71875 47.394531 143.0625 44.199219 C 143.148438 43.972656 143.148438 43.972656 143.242188 43.742188 C 146.058594 36.925781 151.933594 36.324219 155.503906 40.980469 Z M 148.222656 47.203125 C 148.152344 47.273438 148.082031 47.34375 148.011719 47.414062 C 147.023438 48.585938 146.613281 50.808594 146.3125 52.878906 C 146.242188 53.367188 146.242188 53.367188 146.246094 53.640625 C 148.746094 53.640625 151.246094 53.640625 153.820312 53.640625 C 153.683594 51.261719 153.441406 49.410156 152.515625 47.765625 C 151.28125 45.921875 149.578125 45.742188 148.222656 47.203125 Z M 148.222656 47.203125 "/>
<path style=" stroke:none;fill-rule:nonzero;fill:rgb(92.156863%,38.431373%,18.039216%);fill-opacity:1;" d="M 131.863281 39.90625 C 132.339844 40.621094 132.761719 41.429688 133.179688 42.269531 C 133.253906 42.402344 133.324219 42.539062 133.402344 42.679688 C 134.859375 45.589844 135.496094 50.523438 135.5 54.488281 C 135.5 54.761719 135.5 55.035156 135.5 55.320312 C 135.5 55.601562 135.5 55.882812 135.5 56.175781 C 135.5 56.464844 135.5 56.753906 135.5 57.042969 C 135.5 57.449219 135.5 57.449219 135.5 57.867188 C 135.5 58.117188 135.5 58.367188 135.5 58.621094 C 135.484375 59.21875 135.484375 59.21875 135.375 59.648438 C 131.316406 59.71875 127.257812 59.789062 123.078125 59.863281 C 123.867188 62.941406 124.4375 64.277344 126.070312 65.394531 C 127.015625 65.898438 128.011719 65.90625 128.988281 65.9375 C 129.109375 65.941406 129.226562 65.945312 129.351562 65.949219 C 129.734375 65.964844 130.113281 65.976562 130.496094 65.992188 C 130.757812 66 131.015625 66.007812 131.277344 66.019531 C 131.910156 66.042969 132.546875 66.0625 133.179688 66.085938 C 133.179688 68.84375 133.179688 71.605469 133.179688 74.453125 C 132.355469 74.464844 131.53125 74.480469 130.707031 74.484375 C 130.324219 74.488281 129.941406 74.492188 129.554688 74.5 C 126.117188 74.566406 122.847656 73.972656 120.238281 69.148438 C 118.945312 66.640625 118.066406 63.574219 117.699219 60.078125 C 117.667969 59.800781 117.667969 59.800781 117.636719 59.519531 C 117.289062 54.339844 117.703125 48.652344 119.34375 44.414062 C 119.65625 43.664062 119.988281 42.957031 120.332031 42.269531 C 120.414062 42.101562 120.5 41.9375 120.582031 41.765625 C 123.378906 36.472656 128.625 35.789062 131.863281 39.90625 Z M 123.957031 48.0625 C 123.339844 49.558594 122.96875 51.058594 122.96875 52.996094 C 125.433594 52.996094 127.894531 52.996094 130.433594 52.996094 C 130.316406 50.652344 130.058594 48.910156 129.226562 47.203125 C 127.621094 44.683594 125.320312 45.15625 123.957031 48.0625 Z M 123.957031 48.0625 "/>
<path style=" stroke:none;fill-rule:nonzero;fill:rgb(95.294118%,56.862748%,12.54902%);fill-opacity:1;" d="M 188.488281 39.027344 C 188.582031 39.027344 188.675781 39.023438 188.777344 39.023438 C 189.089844 39.027344 189.40625 39.027344 189.71875 39.027344 C 189.9375 39.027344 190.15625 39.03125 190.375 39.03125 C 190.949219 39.03125 191.519531 39.03125 192.09375 39.035156 C 192.785156 39.039062 193.472656 39.039062 194.160156 39.039062 C 195.207031 39.042969 196.253906 39.046875 197.300781 39.050781 C 197.300781 41.8125 197.300781 44.574219 197.300781 47.417969 C 196.6875 47.421875 196.078125 47.429688 195.449219 47.433594 C 195.0625 47.441406 194.675781 47.445312 194.285156 47.453125 C 193.671875 47.460938 193.058594 47.472656 192.445312 47.476562 C 191.949219 47.480469 191.453125 47.488281 190.957031 47.496094 C 190.769531 47.5 190.578125 47.5 190.390625 47.5 C 190.125 47.503906 189.859375 47.507812 189.597656 47.515625 C 189.519531 47.515625 189.441406 47.511719 189.359375 47.511719 C 188.8125 47.535156 188.5 47.820312 188.078125 48.492188 C 187.886719 49.234375 187.902344 50.039062 187.964844 50.851562 C 188.207031 51.441406 188.390625 51.800781 188.734375 52.136719 C 188.890625 52.160156 189.042969 52.167969 189.199219 52.171875 C 189.292969 52.175781 189.390625 52.175781 189.488281 52.179688 C 189.644531 52.179688 189.644531 52.179688 189.804688 52.183594 C 190.027344 52.1875 190.246094 52.195312 190.46875 52.203125 C 190.816406 52.210938 191.167969 52.21875 191.515625 52.222656 C 193.726562 52.261719 196.039062 52.394531 197.738281 55.570312 C 199.035156 58.347656 199.152344 61.730469 199.078125 65.324219 C 198.972656 67.972656 198.15625 70.5 197.1875 72.304688 C 195.957031 74.351562 194.5625 75.132812 192.972656 75.121094 C 192.871094 75.121094 192.769531 75.121094 192.664062 75.121094 C 192.328125 75.121094 191.996094 75.117188 191.660156 75.117188 C 191.425781 75.117188 191.195312 75.117188 190.960938 75.117188 C 190.347656 75.113281 189.738281 75.113281 189.125 75.109375 C 188.5 75.109375 187.875 75.105469 187.25 75.105469 C 186.023438 75.105469 184.800781 75.101562 183.574219 75.097656 C 183.574219 72.335938 183.574219 69.574219 183.574219 66.726562 C 184.230469 66.71875 184.882812 66.710938 185.558594 66.703125 C 185.972656 66.695312 186.390625 66.691406 186.804688 66.683594 C 187.464844 66.671875 188.125 66.660156 188.78125 66.652344 C 189.3125 66.648438 189.847656 66.640625 190.378906 66.628906 C 190.582031 66.625 190.78125 66.621094 190.984375 66.621094 C 191.269531 66.617188 191.554688 66.613281 191.839844 66.605469 C 191.960938 66.605469 191.960938 66.605469 192.089844 66.605469 C 192.683594 66.585938 193.25 66.398438 193.785156 65.871094 C 194.023438 65.039062 194.066406 64.234375 194.003906 63.296875 C 193.765625 62.339844 193.535156 61.886719 193.027344 61.492188 C 192.585938 61.246094 192.136719 61.277344 191.679688 61.285156 C 191.460938 61.28125 191.238281 61.277344 191.019531 61.273438 C 190.679688 61.269531 190.335938 61.269531 189.996094 61.269531 C 187.882812 61.265625 185.714844 61.042969 184.125 57.929688 C 182.96875 55.238281 182.703125 52.136719 182.804688 48.703125 C 183.03125 45.644531 183.84375 43.152344 185.050781 41.1875 C 186.125 39.640625 187.164062 39.015625 188.488281 39.027344 Z M 188.488281 39.027344 "/>
<path style=" stroke:none;fill-rule:nonzero;fill:rgb(92.156863%,38.431373%,18.039216%);fill-opacity:1;" d="M 68.3125 38.324219 C 68.523438 38.324219 68.523438 38.324219 68.742188 38.324219 C 69.113281 38.328125 69.484375 38.335938 69.855469 38.347656 C 70.238281 38.355469 70.617188 38.359375 71 38.363281 C 71.742188 38.371094 72.488281 38.390625 73.230469 38.40625 C 73.230469 41.167969 73.230469 43.929688 73.230469 46.773438 C 72.90625 46.785156 72.578125 46.796875 72.238281 46.804688 C 71.921875 46.816406 71.605469 46.828125 71.285156 46.84375 C 71.066406 46.851562 70.84375 46.859375 70.625 46.863281 C 70.308594 46.875 69.988281 46.886719 69.671875 46.898438 C 69.574219 46.902344 69.476562 46.90625 69.375 46.90625 C 69.28125 46.910156 69.1875 46.914062 69.09375 46.921875 C 69.011719 46.921875 68.933594 46.925781 68.847656 46.929688 C 68.578125 47 68.410156 47.121094 68.183594 47.417969 C 67.96875 48.082031 67.933594 48.597656 67.933594 49.371094 C 67.929688 49.59375 67.929688 49.816406 67.929688 50.042969 C 67.925781 50.285156 67.925781 50.527344 67.925781 50.777344 C 67.925781 51.160156 67.925781 51.160156 67.925781 51.550781 C 67.921875 52.25 67.917969 52.949219 67.917969 53.648438 C 67.917969 54.378906 67.914062 55.113281 67.910156 55.84375 C 67.90625 57.226562 67.902344 58.613281 67.898438 59.996094 C 67.894531 61.574219 67.886719 63.148438 67.882812 64.726562 C 67.871094 67.96875 67.863281 71.210938 67.851562 74.453125 C 66.1875 74.453125 64.519531 74.453125 62.800781 74.453125 C 62.792969 70.859375 62.789062 67.265625 62.785156 63.675781 C 62.78125 62.007812 62.78125 60.339844 62.777344 58.671875 C 62.773438 57.214844 62.773438 55.761719 62.769531 54.304688 C 62.769531 53.535156 62.769531 52.765625 62.765625 51.996094 C 62.765625 51.136719 62.765625 50.273438 62.765625 49.414062 C 62.761719 49.160156 62.761719 48.910156 62.761719 48.648438 C 62.765625 45.71875 63.125 43.097656 64.152344 40.898438 C 65.316406 38.730469 66.753906 38.269531 68.3125 38.324219 Z M 68.3125 38.324219 "/>
<path style=" stroke:none;fill-rule:nonzero;fill:rgb(18.431373%,18.039216%,18.039216%);fill-opacity:1;" d="M 208.386719 75.308594 C 210.128906 75.308594 211.867188 75.308594 213.660156 75.308594 C 213.621094 79.914062 213.585938 84.515625 213.546875 89.257812 C 213.300781 89.5 213.160156 89.5 212.882812 89.503906 C 212.792969 89.503906 212.699219 89.503906 212.605469 89.507812 C 212.507812 89.507812 212.410156 89.507812 212.304688 89.507812 C 212.203125 89.507812 212.101562 89.507812 212 89.507812 C 211.785156 89.511719 211.570312 89.511719 211.355469 89.511719 C 211.023438 89.511719 210.695312 89.515625 210.367188 89.519531 C 210.15625 89.519531 209.949219 89.519531 209.738281 89.519531 C 209.640625 89.523438 209.542969 89.523438 209.441406 89.523438 C 209.300781 89.523438 209.300781 89.523438 209.164062 89.523438 C 209.082031 89.523438 209 89.523438 208.917969 89.523438 C 208.71875 89.472656 208.71875 89.472656 208.496094 89.042969 C 208.46875 88.46875 208.46875 88.46875 208.464844 87.734375 C 208.460938 87.457031 208.457031 87.183594 208.457031 86.898438 C 208.457031 86.597656 208.453125 86.296875 208.453125 85.996094 C 208.449219 85.6875 208.449219 85.382812 208.445312 85.074219 C 208.441406 84.265625 208.4375 83.457031 208.433594 82.648438 C 208.425781 81.675781 208.421875 80.707031 208.414062 79.734375 C 208.402344 78.261719 208.394531 76.785156 208.386719 75.308594 Z M 208.386719 75.308594 "/>
<path style=" stroke:none;fill-rule:nonzero;fill:rgb(0%,0%,0%);fill-opacity:1;" d="M 183.308594 82.804688 C 183.441406 82.8125 183.441406 82.8125 183.574219 82.820312 C 183.839844 84.246094 184.023438 85.683594 184.195312 87.160156 C 184.289062 88.015625 184.289062 88.015625 184.453125 88.828125 C 184.742188 87.128906 185.03125 85.429688 185.332031 83.679688 C 185.992188 83.464844 185.992188 83.464844 186.210938 83.679688 C 186.304688 84.101562 186.304688 84.101562 186.398438 84.65625 C 186.433594 84.851562 186.46875 85.050781 186.503906 85.257812 C 186.539062 85.464844 186.570312 85.675781 186.609375 85.890625 C 186.660156 86.199219 186.660156 86.199219 186.714844 86.515625 C 186.867188 87.414062 186.976562 88.089844 186.976562 89.042969 C 187.050781 89.042969 187.125 89.042969 187.199219 89.042969 C 187.210938 88.84375 187.222656 88.648438 187.234375 88.445312 C 187.316406 87.3125 187.457031 86.199219 187.589844 85.085938 C 187.628906 84.757812 187.628906 84.757812 187.667969 84.425781 C 187.730469 83.890625 187.792969 83.355469 187.855469 82.820312 C 188.074219 82.820312 188.292969 82.820312 188.515625 82.820312 C 188.699219 83.902344 188.539062 84.78125 188.386719 85.835938 C 188.347656 86.109375 188.347656 86.109375 188.308594 86.382812 C 187.820312 89.832031 187.820312 89.832031 187.527344 90.972656 C 187.238281 90.972656 186.949219 90.972656 186.648438 90.972656 C 186.359375 89.273438 186.070312 87.574219 185.769531 85.824219 C 185.484375 87.4375 185.484375 87.4375 185.203125 89.050781 C 185.167969 89.253906 185.132812 89.453125 185.09375 89.65625 C 185.058594 89.863281 185.023438 90.070312 184.984375 90.28125 C 184.890625 90.757812 184.890625 90.757812 184.78125 90.972656 C 184.527344 90.980469 184.269531 90.980469 184.015625 90.972656 C 183.652344 89.527344 183.417969 88.078125 183.21875 86.519531 C 183.1875 86.304688 183.160156 86.085938 183.128906 85.863281 C 182.886719 84.015625 182.886719 84.015625 182.917969 83.035156 C 183.027344 82.820312 183.027344 82.820312 183.308594 82.804688 Z M 183.308594 82.804688 "/>
<path style=" stroke:none;fill-rule:nonzero;fill:rgb(0%,0%,0%);fill-opacity:1;" d="M 153.710938 79.816406 C 153.964844 79.816406 154.21875 79.816406 154.480469 79.816406 C 154.605469 80.3125 154.605469 80.609375 154.609375 81.164062 C 154.613281 81.351562 154.613281 81.542969 154.617188 81.738281 C 154.621094 82.605469 154.625 83.476562 154.628906 84.34375 C 154.628906 84.800781 154.632812 85.261719 154.636719 85.71875 C 154.644531 86.378906 154.644531 87.039062 154.648438 87.699219 C 154.648438 87.902344 154.652344 88.105469 154.65625 88.316406 C 154.652344 89.304688 154.648438 89.753906 154.332031 90.5625 C 153.875 91.207031 153.515625 91.226562 152.964844 91.242188 C 152.765625 91.25 152.765625 91.25 152.5625 91.257812 C 151.976562 91.152344 151.628906 90.765625 151.214844 89.96875 C 150.726562 88.722656 150.703125 87.386719 150.804688 85.894531 C 150.945312 84.515625 151.285156 83.832031 151.84375 83.035156 C 152.199219 82.804688 152.464844 82.792969 152.839844 82.792969 C 152.957031 82.792969 153.074219 82.792969 153.195312 82.792969 C 153.492188 82.820312 153.492188 82.820312 153.710938 83.035156 C 153.710938 81.972656 153.710938 80.910156 153.710938 79.816406 Z M 151.84375 84.964844 C 151.527344 85.972656 151.566406 87.039062 151.625 88.183594 C 151.800781 89.003906 152.011719 89.429688 152.394531 89.898438 C 152.671875 89.984375 152.671875 89.984375 152.957031 89.953125 C 153.097656 89.949219 153.097656 89.949219 153.246094 89.945312 C 153.496094 89.929688 153.496094 89.929688 153.710938 89.6875 C 153.71875 88.835938 153.726562 87.988281 153.730469 87.136719 C 153.734375 86.894531 153.738281 86.652344 153.738281 86.40625 C 153.742188 86.171875 153.742188 85.941406 153.742188 85.703125 C 153.746094 85.492188 153.746094 85.277344 153.75 85.058594 C 153.734375 84.886719 153.722656 84.714844 153.710938 84.535156 C 153.074219 83.707031 152.367188 83.851562 151.84375 84.964844 Z M 151.84375 84.964844 "/>
<path style=" stroke:none;fill-rule:nonzero;fill:rgb(0%,0%,0%);fill-opacity:1;" d="M 189.503906 79.816406 C 189.722656 79.816406 189.9375 79.816406 190.164062 79.816406 C 190.375 80.234375 190.316406 80.992188 190.335938 81.546875 C 190.34375 81.824219 190.351562 82.101562 190.363281 82.386719 C 190.367188 82.597656 190.375 82.8125 190.382812 83.035156 C 190.492188 82.964844 190.597656 82.894531 190.710938 82.820312 C 191.324219 82.714844 191.855469 82.664062 192.421875 83.167969 C 192.808594 83.910156 192.996094 84.601562 193.054688 85.664062 C 193.050781 86.03125 193.050781 86.03125 193.050781 86.40625 C 193.046875 86.804688 193.046875 86.804688 193.046875 87.214844 C 193.042969 87.488281 193.039062 87.765625 193.039062 88.050781 C 193.035156 88.472656 193.035156 88.472656 193.035156 88.902344 C 193.03125 89.589844 193.023438 90.28125 193.015625 90.972656 C 192.796875 90.980469 192.578125 90.980469 192.359375 90.972656 C 192.167969 90.601562 192.226562 90.097656 192.222656 89.59375 C 192.21875 89.355469 192.214844 89.121094 192.210938 88.875 C 192.203125 88.371094 192.199219 87.871094 192.191406 87.367188 C 192.1875 87.007812 192.1875 87.007812 192.179688 86.644531 C 192.175781 86.425781 192.175781 86.207031 192.171875 85.980469 C 192.136719 85.390625 192.082031 85.03125 191.917969 84.535156 C 191.664062 84.285156 191.5 84.285156 191.210938 84.28125 C 191.125 84.277344 191.039062 84.277344 190.953125 84.273438 C 190.679688 84.292969 190.679688 84.292969 190.382812 84.75 C 190.324219 85.394531 190.324219 85.394531 190.324219 86.152344 C 190.320312 86.433594 190.316406 86.710938 190.3125 87 C 190.3125 87.296875 190.308594 87.59375 190.304688 87.890625 C 190.304688 88.1875 190.300781 88.484375 190.296875 88.78125 C 190.285156 89.511719 190.277344 90.242188 190.273438 90.972656 C 190.019531 90.972656 189.765625 90.972656 189.503906 90.972656 C 189.503906 87.292969 189.503906 83.609375 189.503906 79.816406 Z M 189.503906 79.816406 "/>
<path style=" stroke:none;fill-rule:nonzero;fill:rgb(0%,0%,0%);fill-opacity:1;" d="M 204.671875 82.960938 C 205.167969 83.453125 205.472656 84.160156 205.644531 85.179688 C 205.675781 85.773438 205.664062 86.296875 205.644531 86.898438 C 205.171875 87.230469 204.71875 87.433594 204.222656 87.566406 C 204.09375 87.601562 203.96875 87.640625 203.835938 87.675781 C 203.445312 87.753906 203.070312 87.769531 202.679688 87.753906 C 202.878906 88.625 203.023438 89.195312 203.449219 89.6875 C 204.089844 89.863281 204.71875 89.761719 205.3125 89.257812 C 205.386719 89.539062 205.457031 89.824219 205.535156 90.113281 C 205.183594 90.84375 204.972656 91.152344 204.453125 91.238281 C 203.511719 91.28125 202.890625 91.128906 202.199219 89.847656 C 201.761719 88.394531 201.742188 87.011719 201.910156 85.394531 C 202.117188 84.261719 202.414062 83.726562 202.898438 83.035156 C 203.460938 82.667969 204.097656 82.621094 204.671875 82.960938 Z M 202.789062 85.179688 C 202.753906 85.675781 202.714844 86.171875 202.679688 86.683594 C 203.367188 86.539062 204.054688 86.398438 204.765625 86.253906 C 204.929688 85.390625 204.929688 85.390625 204.667969 84.699219 C 204.410156 84.140625 204.214844 84 203.832031 83.960938 C 203.320312 84.03125 203.082031 84.335938 202.789062 85.179688 Z M 202.789062 85.179688 "/>
<path style=" stroke:none;fill-rule:nonzero;fill:rgb(0%,0%,0%);fill-opacity:1;" d="M 196.875 82.960938 C 197.371094 83.453125 197.675781 84.160156 197.847656 85.179688 C 197.878906 85.773438 197.871094 86.296875 197.847656 86.898438 C 197.375 87.230469 196.925781 87.433594 196.425781 87.566406 C 196.300781 87.601562 196.171875 87.640625 196.039062 87.675781 C 195.652344 87.753906 195.273438 87.769531 194.882812 87.753906 C 195.082031 88.625 195.230469 89.195312 195.652344 89.6875 C 196.292969 89.863281 196.921875 89.761719 197.519531 89.257812 C 197.589844 89.539062 197.664062 89.824219 197.738281 90.113281 C 197.386719 90.84375 197.179688 91.152344 196.65625 91.238281 C 195.714844 91.28125 195.09375 91.128906 194.402344 89.847656 C 193.964844 88.394531 193.949219 87.011719 194.113281 85.394531 C 194.324219 84.261719 194.617188 83.726562 195.101562 83.035156 C 195.664062 82.667969 196.304688 82.621094 196.875 82.960938 Z M 194.992188 85.179688 C 194.957031 85.675781 194.921875 86.171875 194.882812 86.683594 C 195.570312 86.539062 196.261719 86.398438 196.96875 86.253906 C 197.132812 85.390625 197.132812 85.390625 196.875 84.699219 C 196.613281 84.140625 196.421875 84 196.035156 83.960938 C 195.523438 84.03125 195.289062 84.335938 194.992188 85.179688 Z M 194.992188 85.179688 "/>
<path style=" stroke:none;fill-rule:nonzero;fill:rgb(0%,0%,0%);fill-opacity:1;" d="M 173.488281 82.960938 C 173.988281 83.453125 174.289062 84.160156 174.460938 85.179688 C 174.496094 85.773438 174.484375 86.296875 174.460938 86.898438 C 173.988281 87.230469 173.539062 87.433594 173.042969 87.566406 C 172.914062 87.601562 172.785156 87.640625 172.652344 87.675781 C 172.265625 87.753906 171.886719 87.769531 171.496094 87.753906 C 171.695312 88.625 171.84375 89.195312 172.265625 89.6875 C 172.90625 89.863281 173.535156 89.761719 174.132812 89.257812 C 174.207031 89.539062 174.277344 89.824219 174.351562 90.113281 C 174.003906 90.84375 173.792969 91.152344 173.269531 91.238281 C 172.332031 91.28125 171.710938 91.128906 171.015625 89.847656 C 170.578125 88.394531 170.5625 87.011719 170.730469 85.394531 C 170.9375 84.261719 171.230469 83.726562 171.71875 83.035156 C 172.28125 82.667969 172.917969 82.621094 173.488281 82.960938 Z M 171.605469 85.179688 C 171.570312 85.675781 171.535156 86.171875 171.496094 86.683594 C 172.1875 86.539062 172.875 86.398438 173.582031 86.253906 C 173.746094 85.390625 173.746094 85.390625 173.488281 84.699219 C 173.226562 84.140625 173.035156 84 172.652344 83.960938 C 172.140625 84.03125 171.902344 84.335938 171.605469 85.179688 Z M 171.605469 85.179688 "/>
<path style=" stroke:none;fill-rule:nonzero;fill:rgb(0%,0%,0%);fill-opacity:1;" d="M 164.707031 82.960938 C 165.203125 83.453125 165.507812 84.160156 165.679688 85.179688 C 165.710938 85.773438 165.699219 86.296875 165.679688 86.898438 C 165.207031 87.230469 164.753906 87.433594 164.257812 87.566406 C 164.128906 87.601562 164.003906 87.640625 163.871094 87.675781 C 163.480469 87.753906 163.105469 87.769531 162.714844 87.753906 C 162.914062 88.625 163.058594 89.195312 163.484375 89.6875 C 164.125 89.863281 164.753906 89.761719 165.347656 89.257812 C 165.421875 89.539062 165.492188 89.824219 165.570312 90.113281 C 165.21875 90.84375 165.007812 91.152344 164.488281 91.238281 C 163.546875 91.28125 162.925781 91.128906 162.234375 89.847656 C 161.796875 88.394531 161.777344 87.011719 161.945312 85.394531 C 162.152344 84.261719 162.449219 83.726562 162.933594 83.035156 C 163.496094 82.667969 164.132812 82.621094 164.707031 82.960938 Z M 162.824219 85.179688 C 162.789062 85.675781 162.75 86.171875 162.714844 86.683594 C 163.402344 86.539062 164.089844 86.398438 164.800781 86.253906 C 164.964844 85.390625 164.964844 85.390625 164.703125 84.699219 C 164.445312 84.140625 164.25 84 163.867188 83.960938 C 163.355469 84.03125 163.117188 84.335938 162.824219 85.179688 Z M 162.824219 85.179688 "/>
<path style=" stroke:none;fill-rule:nonzero;fill:rgb(0%,0%,0%);fill-opacity:1;" d="M 158.445312 82.960938 C 158.945312 83.453125 159.246094 84.160156 159.421875 85.179688 C 159.453125 85.773438 159.441406 86.296875 159.421875 86.898438 C 158.949219 87.230469 158.496094 87.433594 158 87.566406 C 157.871094 87.601562 157.746094 87.640625 157.613281 87.675781 C 157.222656 87.753906 156.847656 87.769531 156.457031 87.753906 C 156.652344 88.625 156.800781 89.195312 157.222656 89.6875 C 157.867188 89.863281 158.492188 89.761719 159.089844 89.257812 C 159.164062 89.539062 159.234375 89.824219 159.308594 90.113281 C 158.960938 90.84375 158.75 91.152344 158.226562 91.238281 C 157.289062 91.28125 156.667969 91.128906 155.976562 89.847656 C 155.535156 88.394531 155.519531 87.011719 155.6875 85.394531 C 155.894531 84.261719 156.191406 83.726562 156.675781 83.035156 C 157.238281 82.667969 157.875 82.621094 158.445312 82.960938 Z M 156.566406 85.179688 C 156.53125 85.675781 156.492188 86.171875 156.457031 86.683594 C 157.144531 86.539062 157.832031 86.398438 158.542969 86.253906 C 158.707031 85.390625 158.707031 85.390625 158.445312 84.699219 C 158.1875 84.140625 157.992188 84 157.609375 83.960938 C 157.097656 84.03125 156.859375 84.335938 156.566406 85.179688 Z M 156.566406 85.179688 "/>
<path style=" stroke:none;fill-rule:nonzero;fill:rgb(0%,0%,0%);fill-opacity:1;" d="M 178.523438 82.820312 C 178.777344 82.753906 178.777344 82.753906 179.074219 82.820312 C 179.328125 83.527344 179.492188 84.273438 179.652344 85.078125 C 179.714844 85.40625 179.714844 85.40625 179.78125 85.742188 C 179.847656 86.082031 179.847656 86.082031 179.917969 86.425781 C 179.964844 86.65625 180.007812 86.886719 180.054688 87.125 C 180.167969 87.691406 180.28125 88.261719 180.390625 88.828125 C 180.777344 87.128906 181.0625 85.46875 181.292969 83.667969 C 181.378906 83.035156 181.378906 83.035156 181.488281 82.820312 C 181.707031 82.8125 181.929688 82.8125 182.148438 82.820312 C 182.1875 84.238281 182.054688 85.347656 181.816406 86.683594 C 181.785156 86.878906 181.75 87.074219 181.714844 87.277344 C 180.71875 92.789062 180.71875 92.789062 179.730469 94.191406 C 179.355469 94.300781 179.355469 94.300781 179.074219 94.191406 C 178.992188 93.828125 178.992188 93.828125 178.964844 93.332031 C 179.136719 92.816406 179.136719 92.816406 179.382812 92.273438 C 179.695312 91.574219 179.910156 90.996094 180.0625 90.113281 C 179.953125 90.042969 179.84375 89.972656 179.730469 89.898438 C 179.59375 89.421875 179.476562 88.964844 179.363281 88.464844 C 179.328125 88.324219 179.296875 88.179688 179.261719 88.03125 C 178.378906 84.148438 178.378906 84.148438 178.457031 83.164062 C 178.476562 83.050781 178.5 82.9375 178.523438 82.820312 Z M 178.523438 82.820312 "/>
<path style=" stroke:none;fill-rule:nonzero;fill:rgb(0%,0%,0%);fill-opacity:1;" d="M 146.574219 82.820312 C 146.828125 82.753906 146.828125 82.753906 147.125 82.820312 C 147.378906 83.527344 147.542969 84.273438 147.699219 85.078125 C 147.765625 85.40625 147.765625 85.40625 147.832031 85.742188 C 147.898438 86.082031 147.898438 86.082031 147.96875 86.425781 C 148.011719 86.65625 148.058594 86.886719 148.105469 87.125 C 148.21875 87.691406 148.328125 88.261719 148.441406 88.828125 C 148.828125 87.128906 149.113281 85.46875 149.339844 83.667969 C 149.429688 83.035156 149.429688 83.035156 149.539062 82.820312 C 149.757812 82.8125 149.976562 82.8125 150.199219 82.820312 C 150.238281 84.238281 150.105469 85.347656 149.867188 86.683594 C 149.832031 86.878906 149.800781 87.074219 149.765625 87.277344 C 148.769531 92.789062 148.769531 92.789062 147.78125 94.191406 C 147.40625 94.300781 147.40625 94.300781 147.125 94.191406 C 147.042969 93.828125 147.042969 93.828125 147.011719 93.332031 C 147.1875 92.816406 147.1875 92.816406 147.433594 92.273438 C 147.746094 91.574219 147.957031 90.996094 148.113281 90.113281 C 148.003906 90.042969 147.894531 89.972656 147.78125 89.898438 C 147.644531 89.421875 147.523438 88.964844 147.410156 88.464844 C 147.378906 88.324219 147.34375 88.179688 147.3125 88.03125 C 146.425781 84.148438 146.425781 84.148438 146.503906 83.164062 C 146.527344 83.050781 146.550781 82.9375 146.574219 82.820312 Z M 146.574219 82.820312 "/>
<path style=" stroke:none;fill-rule:nonzero;fill:rgb(0%,0%,0%);fill-opacity:1;" d="M 166.335938 82.820312 C 166.589844 82.753906 166.589844 82.753906 166.886719 82.820312 C 167.144531 83.527344 167.296875 84.25 167.4375 85.070312 C 167.472656 85.289062 167.511719 85.507812 167.550781 85.730469 C 167.589844 85.957031 167.628906 86.179688 167.667969 86.414062 C 167.746094 86.863281 167.824219 87.316406 167.902344 87.765625 C 167.9375 87.964844 167.972656 88.164062 168.007812 88.367188 C 168.074219 88.816406 168.074219 88.816406 168.203125 89.042969 C 168.566406 86.988281 168.929688 84.933594 169.300781 82.820312 C 169.519531 82.820312 169.738281 82.820312 169.960938 82.820312 C 170.082031 83.53125 170.058594 83.941406 169.9375 84.648438 C 169.90625 84.835938 169.871094 85.023438 169.839844 85.214844 C 169.804688 85.410156 169.769531 85.609375 169.734375 85.808594 C 169.699219 86.011719 169.664062 86.210938 169.628906 86.417969 C 169.351562 87.988281 169.027344 89.488281 168.644531 90.972656 C 168.351562 90.972656 168.0625 90.972656 167.765625 90.972656 C 167.300781 89.347656 166.949219 87.671875 166.617188 85.929688 C 166.578125 85.722656 166.539062 85.515625 166.496094 85.300781 C 166.441406 85.007812 166.441406 85.007812 166.386719 84.703125 C 166.351562 84.527344 166.320312 84.351562 166.285156 84.167969 C 166.222656 83.632812 166.246094 83.335938 166.335938 82.820312 Z M 166.335938 82.820312 "/>
<path style=" stroke:none;fill-rule:nonzero;fill:rgb(0%,0%,0%);fill-opacity:1;" d="M 201.363281 83.035156 C 201.363281 83.386719 201.363281 83.742188 201.363281 84.105469 C 201.222656 84.125 201.222656 84.125 201.085938 84.148438 C 200.90625 84.171875 200.90625 84.171875 200.722656 84.199219 C 200.605469 84.21875 200.488281 84.234375 200.363281 84.253906 C 200.039062 84.300781 200.039062 84.300781 199.714844 84.535156 C 199.679688 86.660156 199.640625 88.785156 199.605469 90.972656 C 199.351562 90.972656 199.097656 90.972656 198.835938 90.972656 C 198.585938 90 198.699219 88.652344 198.699219 87.582031 C 198.695312 87.304688 198.695312 87.027344 198.691406 86.746094 C 198.691406 86.480469 198.691406 86.214844 198.691406 85.941406 C 198.6875 85.695312 198.6875 85.453125 198.6875 85.203125 C 198.730469 84.453125 198.824219 84.0625 199.054688 83.464844 C 199.683594 82.707031 200.675781 82.367188 201.363281 83.035156 Z M 201.363281 83.035156 "/>
<path style=" stroke:none;fill-rule:nonzero;fill:rgb(0%,0%,0%);fill-opacity:1;" d="M 177.976562 83.035156 C 177.976562 83.386719 177.976562 83.742188 177.976562 84.105469 C 177.839844 84.125 177.839844 84.125 177.699219 84.148438 C 177.519531 84.171875 177.519531 84.171875 177.335938 84.199219 C 177.21875 84.21875 177.101562 84.234375 176.976562 84.253906 C 176.652344 84.300781 176.652344 84.300781 176.328125 84.535156 C 176.292969 86.660156 176.257812 88.785156 176.21875 90.972656 C 175.964844 90.972656 175.710938 90.972656 175.449219 90.972656 C 175.199219 90 175.316406 88.652344 175.3125 87.582031 C 175.3125 87.304688 175.308594 87.027344 175.304688 86.746094 C 175.304688 86.480469 175.304688 86.214844 175.304688 85.941406 C 175.304688 85.695312 175.300781 85.453125 175.300781 85.203125 C 175.34375 84.453125 175.4375 84.0625 175.667969 83.464844 C 176.296875 82.707031 177.289062 82.367188 177.976562 83.035156 Z M 177.976562 83.035156 "/>
<path style=" stroke:none;fill-rule:nonzero;fill:rgb(0%,0%,0%);fill-opacity:1;" d="M 146.027344 83.035156 C 146.027344 83.386719 146.027344 83.742188 146.027344 84.105469 C 145.886719 84.125 145.886719 84.125 145.75 84.148438 C 145.570312 84.171875 145.570312 84.171875 145.386719 84.199219 C 145.269531 84.21875 145.148438 84.234375 145.027344 84.253906 C 144.703125 84.300781 144.703125 84.300781 144.378906 84.535156 C 144.34375 86.660156 144.304688 88.785156 144.269531 90.972656 C 144.015625 90.972656 143.761719 90.972656 143.5 90.972656 C 143.25 90 143.363281 88.652344 143.363281 87.582031 C 143.359375 87.304688 143.359375 87.027344 143.355469 86.746094 C 143.355469 86.480469 143.355469 86.214844 143.355469 85.941406 C 143.351562 85.695312 143.351562 85.453125 143.351562 85.203125 C 143.394531 84.453125 143.488281 84.0625 143.71875 83.464844 C 144.347656 82.707031 145.339844 82.367188 146.027344 83.035156 Z M 146.027344 83.035156 "/>
</g>
</svg>
