<svg version="1.1" xmlns="http://www.w3.org/2000/svg" width="64px" height="64px" transform="rotate(0) scale(1, 1)">
<path d="M0 0 C0.3403125 0.75023438 0.680625 1.50046875 1.03125 2.2734375 C7.88466266 16.7458036 17.32623517 27.35968291 32.375 33.4375 C48.4879908 38.51964971 62.92764235 37.46968313 78 30 C78.8146875 29.41089844 79.629375 28.82179687 80.46875 28.21484375 C83 27 83 27 85.66796875 27.453125 C90.36825571 29.63520429 94.82781696 32.15769106 99.3125 34.75 C101.3694531 35.92637345 103.42675749 37.10213282 105.484375 38.27734375 C107.08442383 39.19362549 107.08442383 39.19362549 108.71679688 40.12841797 C113.07742914 42.61418589 117.45693856 45.06534474 121.83935547 47.51245117 C125.00773116 49.28191292 128.17194042 51.05866141 131.3359375 52.8359375 C134.70170209 54.72366815 138.07633225 56.58920427 141.4765625 58.4140625 C148.88155722 62.42327285 154.4122429 66.05973644 158.375 73.625 C159.04730148 76.17974562 159.04368663 78.37006459 159 81 C160.16917969 80.97679687 161.33835937 80.95359375 162.54296875 80.9296875 C164.09113942 80.91092179 165.63931703 80.89272245 167.1875 80.875 C167.95642578 80.85824219 168.72535156 80.84148437 169.51757812 80.82421875 C177.45954144 80.75604739 177.45954144 80.75604739 181 83 C182.62756525 85.20985299 183.97849164 87.25567965 185.3125 89.625 C185.85100586 90.54152344 185.85100586 90.54152344 186.40039062 91.4765625 C187.27957421 92.97703582 188.14153914 94.48757515 189 96 C190.07378906 95.45730469 191.14757812 94.91460937 192.25390625 94.35546875 C193.69004949 93.63270385 195.1262505 92.91005372 196.5625 92.1875 C197.26697266 91.83107422 197.97144531 91.47464844 198.69726562 91.10742188 C210.85607798 85 210.85607798 85 215.125 85 C219.51643534 86.52745577 221.81288582 89.57385152 224.7265625 93.07421875 C227.66689876 95.56491596 229.96927624 95.87263099 233.75 96.5 C244.14706936 98.5081567 250.55270378 101.82414616 256.6875 110.6875 C262.49713317 120.56570909 261.97023118 133.14970064 259.24609375 144.00390625 C256.53633569 151.43023065 252.1725468 157.4137266 245 161 C245.62678171 164.66172475 246.64451846 167.8818995 248.0625 171.3125 C248.42472656 172.19550781 248.78695313 173.07851563 249.16015625 173.98828125 C249.57587891 174.98408203 249.57587891 174.98408203 250 176 C251.19753906 175.97679687 252.39507812 175.95359375 253.62890625 175.9296875 C284.28002523 175.51193348 313.31952078 183.63030154 336 205 C337.60420518 208.20841035 337.47462745 211.5193987 337 215 C335.5 217.5 335.5 217.5 333 219 C328.2596904 219.46473624 326.05687492 219.65321688 321.97265625 217.12890625 C321.01230469 216.28199219 320.05195313 215.43507813 319.0625 214.5625 C300.95112753 199.49310327 280.10828768 194.58218907 257 193 C257.433125 194.04800781 257.433125 194.04800781 257.875 195.1171875 C258.24625 196.02726563 258.6175 196.93734375 259 197.875 C259.37125 198.77992188 259.7425 199.68484375 260.125 200.6171875 C261 203 261 203 261 205 C262.47146484 205.03867187 262.47146484 205.03867187 263.97265625 205.078125 C287.30010259 205.94685519 305.74126387 214.36420639 322.125 231 C337.31042259 248.31331621 341.34347502 268.68508163 340.21875 291.14794922 C338.75105003 310.28374274 328.26518063 327.98820446 314.12109375 340.55859375 C296.28679589 354.64080231 276.40707394 359.50079186 254 358 C238.82084256 356.17511472 225.60739869 349.89974957 214 340 C212.76056641 339.04673828 212.76056641 339.04673828 211.49609375 338.07421875 C198.64230314 327.39289979 189.99014943 309.48406599 188 293 C186.58029361 269.73981049 190.8291603 249.12602862 206.1640625 230.97265625 C207.73172247 229.28825564 209.33878278 227.76896628 211.0625 226.25 C213.31266734 224.13177635 213.31266734 224.13177635 213 221.125 C211.87579219 217.61185058 210.54142998 214.35093474 209 211 C205.7 213.64 202.4 216.28 199 219 C196.7271041 215.59065615 195.01337846 212.05179977 193.21875 208.375 C191.97243598 205.83554597 191.97243598 205.83554597 190 203 C190.68707031 202.45730469 191.37414062 201.91460937 192.08203125 201.35546875 C192.98308594 200.64003906 193.88414062 199.92460937 194.8125 199.1875 C196.15248047 198.12595703 196.15248047 198.12595703 197.51953125 197.04296875 C200.16710017 194.92916908 200.16710017 194.92916908 203 192 C201.515 187.05 201.515 187.05 200 182 C198.535625 181.7525 197.07125 181.505 195.5625 181.25 C189.56730633 180.17133412 183.66466834 178.77773355 177.75219727 177.32128906 C174.76048637 176.59473561 172.09134712 176 169 176 C166.9773307 192.7467065 166.9773307 192.7467065 173.19433594 207.61865234 C175.68750012 210.22408859 178.28960003 212.61995349 181 215 C183.48566444 218.72849666 183.67529181 221.67992789 183 226 C181.6687983 228.66539486 180.3967584 230.7943553 178.6875 233.1875 C177.67228972 234.68168914 176.6580426 236.17653295 175.64453125 237.671875 C175.07041504 238.50654297 174.49629883 239.34121094 173.90478516 240.20117188 C170.56215819 245.11271707 167.33497116 250.10041078 164.08987427 255.07666016 C162.04705785 258.20567052 159.99558006 261.32899427 157.9453125 264.453125 C154.70314449 269.39598302 151.46913813 274.34407021 148.2421875 279.296875 C147.47805136 280.46884704 146.7138916 281.64080368 145.94970703 282.81274414 C144.52969024 284.99051013 143.11168527 287.16954016 141.69482422 289.34936523 C138.57468687 294.13370535 135.42702868 298.89811113 132.203125 303.61328125 C131.65817383 304.41161377 131.11322266 305.20994629 130.55175781 306.0324707 C129 308 129 308 126 310 C123.34160225 310.18405451 120.78970039 310.25232908 118.13208008 310.22705078 C116.93173378 310.22748886 116.93173378 310.22748886 115.70713806 310.22793579 C113.06115896 310.22654205 110.41546118 310.21097884 107.76953125 310.1953125 C105.93536025 310.19158253 104.10118726 310.18873548 102.26701355 310.18673706 C97.43859357 310.17909938 92.61029384 310.15944972 87.78192139 310.1373291 C82.85528185 310.11687359 77.92862289 310.10773597 73.00195312 310.09765625 C63.33458257 310.07620397 53.66730128 310.04206637 44 310 C43.70198486 311.11076904 43.40396973 312.22153809 43.09692383 313.3659668 C42.03152124 316.89557231 41.29797555 318.34094111 38.6875 320.8125 C38.11386719 321.37582031 37.54023438 321.93914062 36.94921875 322.51953125 C32.35551865 326.00853393 28.33696206 326.1899051 22.6796875 325.9921875 C21.24222412 325.97349441 19.80471666 325.95797311 18.3671875 325.9453125 C16.12654008 325.91892895 13.89301128 325.87579205 11.65429688 325.77734375 C1.94210598 325.27013191 1.94210598 325.27013191 -6.37719727 329.61523438 C-9.21287094 332.53415199 -11.5899636 335.72650937 -14 339 C-23.99591308 349.7034278 -40.8857428 357.30466636 -55.48828125 358.14282227 C-78.84936682 358.93352383 -97.46736271 354.68361589 -115.59375 339.3828125 C-118.07715646 336.92359507 -119.9457739 334.36514697 -121.9375 331.5 C-124.20899451 328.4604125 -125.2354056 327.19342719 -128.94921875 326.25390625 C-131.04299637 326.12771301 -133.14076365 326.0548531 -135.23828125 326.0390625 C-139.9307069 325.97269156 -142.60650022 324.39059665 -145.875 321.12890625 C-150.73826882 315.78519353 -150.73826882 315.78519353 -152 312 C-153.0725 311.9175 -154.145 311.835 -155.25 311.75 C-159.37676065 310.92464787 -160.65081114 310.43342988 -163 307 C-164 303.5625 -164 303.5625 -164 300 C-162.23358828 297.19810554 -160.96950178 295.48475089 -158 294 C-156.00039988 293.960008 -153.99952758 293.95653201 -152 294 C-151.938125 293.319375 -151.87625 292.63875 -151.8125 291.9375 C-150.40484298 286.84827847 -147.57776238 283.1374566 -143.3125 280.0625 C-141 279 -141 279 -139 279 C-138.96132812 278.03513672 -138.96132812 278.03513672 -138.921875 277.05078125 C-137.86701715 260.24497782 -131.09694001 245.51962462 -120 233 C-119.48050781 232.38640625 -118.96101563 231.7728125 -118.42578125 231.140625 C-105.2788981 216.70223444 -85.72761205 210.02855965 -66.71484375 208.78515625 C-61.72133162 208.72333836 -56.91383095 209.12643005 -52 210 C-51.835 209.319375 -51.67 208.63875 -51.5 207.9375 C-49.28698373 203.60367647 -45.74480511 201.02197064 -42 198 C-65.09494187 191.58473837 -88.62250755 196.01992448 -109.6875 206.75 C-130.11077688 218.54329071 -145.38665377 236.79373313 -151.73535156 259.75219727 C-153.58065451 266.91543919 -154.65729078 274.02492222 -155.05371094 281.41699219 C-155.34708166 285.12413133 -155.75241643 286.74469215 -158.37890625 289.453125 C-161.62489342 291.36878956 -163.28779336 291.61870111 -167 291 C-169.64805603 289.42523193 -169.64805603 289.42523193 -172 287 C-172.62818909 283.68756104 -172.62818909 283.68756104 -172.63110352 279.69628906 C-172.63825882 278.96728394 -172.64541412 278.23827881 -172.65278625 277.48718262 C-172.66968083 275.07935709 -172.65026105 272.67339258 -172.62890625 270.265625 C-172.62973525 268.58656663 -172.6321958 266.90750835 -172.63621521 265.22845459 C-172.63907418 261.70771884 -172.62436943 258.18761884 -172.59692383 254.66699219 C-172.56294536 250.17006816 -172.56882302 245.67428869 -172.5875864 241.17731094 C-172.59819767 237.70781045 -172.58917958 234.23857252 -172.57420158 230.76909637 C-172.56904241 229.11222872 -172.56947389 227.45533336 -172.57574654 225.79846954 C-172.61739583 208.1765336 -172.61739583 208.1765336 -166 200.7578125 C-165.34 200.21898437 -164.68 199.68015625 -164 199.125 C-163.34 198.57070313 -162.68 198.01640625 -162 197.4453125 C-156.18049792 193.23981295 -150.40524343 192.88062154 -143.34375 192.9296875 C-125.46146979 193.21627028 -125.46146979 193.21627028 -109.0859375 186.84765625 C-103.21917049 183.33502233 -96.55866798 181.7868166 -90 180 C-88.74703125 179.64615234 -88.74703125 179.64615234 -87.46875 179.28515625 C-67.18564004 174.39292726 -42.39552811 176.20396389 -23.25390625 184.6015625 C-18.90001582 186.4727423 -16.09912613 186.79752983 -11.625 185.09765625 C-9.38789224 184.11542612 -7.18701803 183.08864897 -5 182 C-8.3702554 180.23267095 -11.8312851 178.82111829 -15.375 177.4375 C-16.47585937 177.00308594 -17.57671875 176.56867188 -18.7109375 176.12109375 C-24.6634258 174.09215771 -30.46704027 173.82261402 -36.6875 173.5625 C-57.62366434 172.46673193 -57.62366434 172.46673193 -65 165 C-68.67644527 160.2895545 -68.55899248 155.10165491 -68.4140625 149.32421875 C-67.40320906 141.20878219 -63.13398765 135.17981179 -57 130 C-56.34 130 -55.68 130 -55 130 C-54.54173828 130.98226562 -54.54173828 130.98226562 -54.07421875 131.984375 C-46.41734303 147.25498911 -35.05230449 157.07077761 -19.10546875 163.171875 C-18.33220245 163.47001602 -17.55893616 163.76815704 -16.76223755 164.07533264 C-6.36788412 168.04953129 4.13217392 171.73350544 14.625 175.4375 C16.71102703 176.17617951 18.79696506 176.91511041 20.8828125 177.65429688 C25.92085652 179.43908637 30.95997542 181.22081153 36 183 C36.09134216 183.8525386 36.18268433 184.70507721 36.27679443 185.58345032 C37.14470385 193.66074066 38.02600387 201.73643705 38.92196274 209.81066608 C39.38200221 213.96067472 39.83704351 218.11109915 40.28027344 222.26293945 C40.70908313 226.27789565 41.15152897 230.29114494 41.60303497 234.30360985 C41.77203103 235.82629577 41.93630167 237.34951463 42.09551239 238.87325478 C43.75276664 254.6738033 47.34058953 266.94635933 59.84765625 277.4609375 C69.08359835 284.06522278 78.97884042 284.7848569 90 284 C101.4641739 281.48277235 109.81392191 275.41577027 116.33984375 265.7890625 C123.83800224 253.19215624 122.04657392 238.14341934 121.29296875 224.07421875 C121.2061281 222.35613082 121.11981957 220.63801592 121.03401184 218.9198761 C120.85321128 215.33505367 120.66686519 211.75057703 120.47631836 208.16625977 C120.23469145 203.61502758 120.00565278 199.06326992 119.78068066 194.51118755 C119.60429487 190.96663604 119.42176412 187.42242072 119.23742104 183.87827492 C119.1508262 182.20215334 119.06589988 180.52594455 118.98280907 178.84964561 C117.99412383 159.08295564 117.03212968 140.45912591 103 125 C99.5140411 122.02219837 95.8591665 119.46852618 92 117 C91.18144531 116.47148437 90.36289062 115.94296875 89.51953125 115.3984375 C87.69443962 114.24200776 85.84963202 113.11675896 84 112 C86.93326887 109.06673113 90.50169148 108.7744499 94.4375 107.9375 C95.25355713 107.7612207 96.06961426 107.58494141 96.91040039 107.40332031 C102.93047992 106.14145917 108.84404481 105.22262102 115 105 C116.26070313 104.94005859 116.26070313 104.94005859 117.546875 104.87890625 C131.62688386 104.52482319 145.89911998 106.50961448 158.375 113.3125 C162.39433907 115.18357163 163.83140458 115.2042609 168 114 C168.94875 113.814375 169.8975 113.62875 170.875 113.4375 C171.57625 113.293125 172.2775 113.14875 173 113 C173.061875 111.80375 173.12375 110.6075 173.1875 109.375 C173.22230469 108.70210938 173.25710938 108.02921875 173.29296875 107.3359375 C172.89483723 104.1615022 171.52075283 101.78605112 170 99 C167.14479219 98.89123018 164.29379439 98.81233534 161.4375 98.75 C160.63763672 98.71648437 159.83777344 98.68296875 159.01367188 98.6484375 C153.10711633 98.55200394 149.90540187 99.71710557 145 103 C138.04864127 105.60675952 131.4568788 103.45422587 124.8515625 101 C123.9821402 100.68603271 123.1127179 100.37206543 122.21694946 100.04858398 C112.54138664 96.52684196 102.95308633 92.77701895 93.375 89 C91.64336365 88.31996994 89.91159287 87.64028211 88.1796875 86.9609375 C84.78817511 85.6303307 81.39731518 84.29808059 78.00683594 82.96484375 C70.34621946 79.95519499 62.67311967 76.97759381 55 74 C53.25537898 79.07728256 51.62690128 84.11693012 50.39453125 89.34765625 C50.13349609 90.44658203 49.87246094 91.54550781 49.60351562 92.67773438 C49.34248047 93.79470703 49.08144531 94.91167969 48.8125 96.0625 C48.53986328 97.21427734 48.26722656 98.36605469 47.98632812 99.55273438 C47.32056001 102.36764869 46.65854087 105.18338779 46 108 C46.60247559 108.31114746 47.20495117 108.62229492 47.82568359 108.94287109 C54.89849109 112.60075692 61.95390509 116.29093923 69 120 C69.89460937 120.46889648 70.78921875 120.93779297 71.7109375 121.42089844 C84.79270325 128.31327735 96.29709653 134.5474565 102 149 C104.285505 159.53592806 104.55759757 170.44869221 105.0703125 181.18359375 C105.15662379 182.89562013 105.24345645 184.60762029 105.33078003 186.31959534 C105.51103104 189.87849116 105.68717069 193.43755569 105.85986328 196.99682617 C106.08057088 201.54505958 106.30846649 206.09289531 106.53901863 210.64063931 C106.76019382 215.0090043 106.97792052 219.37753911 107.1953125 223.74609375 C107.23657383 224.56991484 107.27783516 225.39373592 107.32034683 226.24252129 C107.43697138 228.58403744 107.55115366 230.92565956 107.66455078 233.26733398 C107.69881165 233.94953003 107.73307251 234.63172607 107.76837158 235.33459473 C108.24703135 245.38026097 108.43883663 254.19685552 101.875 262.375 C96.23638661 268.17807294 90.59314678 270.19446801 82.5625 270.5625 C75.22619496 270.29681606 69.3080835 268.41124619 64.12109375 263.0625 C59.8438401 257.62059656 57.88201141 252.54775395 57.10546875 245.65625 C56.9569043 244.3676709 56.80833984 243.0790918 56.65527344 241.75146484 C56.49918633 240.3343278 56.3432667 238.9171723 56.1875 237.5 C56.02042612 236.02679079 55.85276862 234.55364766 55.68457031 233.08056641 C55.21782285 228.97348138 54.76080107 224.86536427 54.30584717 220.75695801 C53.98182307 217.83615011 53.65549028 214.91560714 53.32861328 211.99511719 C51.87396828 198.99803769 50.43163871 185.99963301 49 173 C48.25434784 172.73992661 47.50869568 172.47985321 46.740448 172.2118988 C39.64832364 169.73638159 32.55948017 167.25176651 25.47398186 164.75735378 C21.83281201 163.47584599 18.19055292 162.19765785 14.54541016 160.92749023 C11.01521431 159.69723079 7.48839744 158.45768629 3.96356583 157.21214485 C2.63097208 156.74298934 1.29727171 156.27696269 -0.03763199 155.8144207 C-17.65186349 149.70503449 -32.02044899 143.53167501 -41.33203125 126.57421875 C-47.70394617 112.09668768 -43.91673117 95.96926542 -38.9375 81.75 C-38.39999616 80.1504456 -37.86541314 78.54990724 -37.33349609 76.94848633 C-36.48250853 74.38977372 -35.62873402 71.83224847 -34.76397705 69.27815247 C-32.42250033 62.35284815 -30.22985071 55.38748754 -28.07421875 48.40234375 C-27.08258609 45.20969992 -26.08993513 42.01737394 -25.09719849 38.82507324 C-24.45422774 36.75001568 -23.81506369 34.67377437 -23.17990112 32.59631348 C-22.28205903 29.66781768 -21.3657259 26.74568664 -20.4453125 23.82421875 C-20.05668282 22.53269142 -20.05668282 22.53269142 -19.66020203 21.21507263 C-16.71748607 11.99950313 -11.01240171 0 0 0 Z M177 129 C175.7552828 130.92770506 175.7552828 130.92770506 176.5234375 132.84765625 C176.80445313 133.57855469 177.08546875 134.30945313 177.375 135.0625 C180.34422284 143.60242073 180.01657291 151.07674892 179 160 C183.29 160.99 187.58 161.98 192 163 C191.19857828 158.19146965 190.26795995 154.72891115 188.49609375 150.2890625 C188.2533522 149.67606293 188.01061066 149.06306335 187.76051331 148.43148804 C186.99171749 146.49373226 186.21476724 144.55937111 185.4375 142.625 C184.91156482 141.30360203 184.3861688 139.98198933 183.86132812 138.66015625 C182.58044219 135.43759822 181.29222716 132.2180297 180 129 C179.01 129 178.02 129 177 129 Z M19.9375 261.8125 C16.19840435 265.09390552 12.71927293 266.50970329 8 268 C8.144375 269.299375 8.28875 270.59875 8.4375 271.9375 C8.51871094 272.66839844 8.59992188 273.39929688 8.68359375 274.15234375 C8.81886614 276.01140229 8.81886614 276.01140229 10 277 C12.86267567 277.07325168 15.700719 277.09238205 18.5625 277.0625 C19.77196289 277.05573242 19.77196289 277.05573242 21.00585938 277.04882812 C23.00393756 277.03700518 25.00197783 277.01906914 27 277 C27.1387148 272.37039341 26.81531919 268.50170225 25.5 264.0625 C25.2215625 263.10472656 24.943125 262.14695312 24.65625 261.16015625 C24.4396875 260.44730469 24.223125 259.73445313 24 259 C22.23445216 259 21.17448466 260.65441186 19.9375 261.8125 Z " fill="#ffffff" transform="translate(172,110)"/>
<path d="M0 0 C2.27252302 2.1883555 4.28981329 4.37023269 6.23828125 6.859375 C8.90680449 10.07220435 11.98059331 12.40522578 15.5 14.625 C16.10948486 15.01107422 16.71896973 15.39714844 17.34692383 15.79492188 C28.5378109 22.60161607 40.64432855 24.89216763 53.51953125 23.0859375 C61.99830289 22.45650419 67.20059092 25.42506585 74.25 29.8125 C75.43660739 30.51637625 76.62528239 31.21677762 77.81591797 31.91381836 C80.16461432 33.29362793 82.50285744 34.68871585 84.83300781 36.09960938 C88.87566449 38.5254527 92.98752108 40.80393239 97.125 43.0625 C98.51890306 43.83733058 99.9121152 44.61340522 101.3046875 45.390625 C105.01155759 47.45492007 108.72796131 49.50152019 112.4453125 51.546875 C114.71365186 52.80188418 116.98188151 54.05709169 119.25 55.3125 C120.32266113 55.89974854 121.39532227 56.48699707 122.50048828 57.09204102 C127.77907501 60.02277467 132.54827464 62.9090179 137 67 C136.25 71.75 136.25 71.75 134 74 C128.15119299 74.82900979 123.27960749 72.46645194 117.9609375 70.3359375 C116.97916534 69.95208389 115.99739319 69.56823029 114.98587036 69.17274475 C111.77845645 67.91624815 108.57680773 66.64570629 105.375 65.375 C103.15338222 64.50169932 100.9313736 63.62939227 98.70898438 62.75805664 C94.24001368 61.00465288 89.77304353 59.24629659 85.30761719 57.48388672 C79.75649122 55.29485938 74.19762966 53.12661295 68.6328125 50.97265625 C67.85079971 50.66977188 67.06878693 50.36688751 66.26307678 50.05482483 C63.27691312 48.8985881 60.29051514 47.742962 57.30355835 46.58877563 C49.99573059 43.7631042 42.71107491 40.90138719 35.48046875 37.8828125 C34.32417969 37.40400635 33.16789062 36.9252002 31.9765625 36.43188477 C29.86753523 35.55380178 27.76404693 34.66222252 25.66796875 33.75366211 C20.27421668 31.51178921 16.69361818 30.30770926 11 32 C8.40664095 34.59335905 8.72273437 36.48747032 8.63671875 40.02734375 C9.11342808 42.61592669 10.00593662 43.30424806 12 45 C14.19882051 46.12569822 14.19882051 46.12569822 16.66796875 47.04296875 C17.56064453 47.39423828 18.45332031 47.74550781 19.37304688 48.10742188 C20.30181641 48.46384766 21.23058594 48.82027344 22.1875 49.1875 C23.12787109 49.55552734 24.06824219 49.92355469 25.03710938 50.30273438 C27.35543127 51.2088805 29.67634016 52.10765118 32 53 C31.4465589 58.97789692 30.51205037 64.51526924 28.8984375 70.2890625 C28.48660305 71.82281572 28.0751561 73.35667304 27.6640625 74.890625 C27.0195091 77.26612408 26.37076722 79.64030939 25.71484375 82.01269531 C25.07676768 84.33097468 24.45541696 86.65325565 23.8359375 88.9765625 C23.63704926 89.67778229 23.43816101 90.37900208 23.23324585 91.10147095 C22.01553209 95.71789383 21.7369577 99.37464464 23 104 C24.67497393 105.82035795 24.67497393 105.82035795 27.05859375 106.90625 C28.41766846 107.63521484 28.41766846 107.63521484 29.80419922 108.37890625 C31.38612061 109.18134766 31.38612061 109.18134766 33 110 C34.22696318 110.65205836 35.45230866 111.30716714 36.67626953 111.96484375 C41.49950997 114.54792145 46.34706677 117.08408888 51.19848633 119.61376953 C76.87496166 133.02020141 76.87496166 133.02020141 81 143 C81.34767151 145.67810059 81.34767151 145.67810059 81.48657227 148.77148438 C81.54325577 149.93369507 81.59993927 151.09590576 81.65834045 152.29333496 C81.71050217 153.54747192 81.76266388 154.80160889 81.81640625 156.09375 C81.91023688 158.07722377 82.00406924 160.06069747 82.09799862 162.04416656 C82.22740609 164.82551414 82.34847487 167.60720283 82.46972656 170.38891602 C82.68214021 175.22244441 82.90797194 180.05536445 83.13328552 184.88830566 C83.25220966 187.45709078 83.36815516 190.02601615 83.48060608 192.59509277 C83.77817022 199.19563701 84.18444763 205.76765926 84.78201294 212.34815979 C85.14058066 216.71018156 85.26158861 221.0625144 85.3125 225.4375 C85.35600586 226.72430664 85.35600586 226.72430664 85.40039062 228.03710938 C85.44194836 232.16411204 85.34735225 234.41656852 83.1953125 238.03125 C80.13437313 240.77629171 78.07700487 241.0715264 74 241 C71.19810554 239.23358828 69.48475089 237.96950178 68 235 C67.6066312 232.11057882 67.26113712 229.2305102 66.94921875 226.33203125 C66.85054504 225.44081573 66.75187134 224.54960022 66.65020752 223.63137817 C66.43722172 221.7010514 66.22608458 219.77051996 66.01657104 217.83981323 C65.68645677 214.80290271 65.34976173 211.76677741 65.01196289 208.73071289 C63.89785867 198.65300489 62.84692686 188.5734381 61.921875 178.4765625 C61.75326106 176.67990816 61.58440284 174.88327673 61.4152832 173.08666992 C61.09722596 169.70540103 60.80262987 166.32313451 60.52026367 162.9387207 C60.37768731 161.40567804 60.23426289 159.87271392 60.08984375 158.33984375 C60.03886536 157.65020538 59.98788696 156.96056702 59.93536377 156.25003052 C59.48247655 151.73109071 58.42115776 149.90162696 55 147 C52.62761422 145.78454526 52.62761422 145.78454526 49.98217773 144.9128418 C48.98270615 144.55534348 47.98323456 144.19784515 46.95347595 143.82951355 C45.87441483 143.45651627 44.7953537 143.08351898 43.68359375 142.69921875 C41.99509056 142.10002373 41.99509056 142.10002373 40.2724762 141.48872375 C36.66451039 140.21089248 33.05126978 138.94881243 29.4375 137.6875 C27.06277179 136.85068484 24.68841854 136.01280481 22.31445312 135.17382812 C20.57260239 134.55859787 20.57260239 134.55859787 18.79556274 133.93093872 C17.06951309 133.32123734 17.06951309 133.32123734 15.30859375 132.69921875 C13.01937212 131.89110299 10.73014694 131.08299731 8.44091797 130.27490234 C7.35349304 129.89058044 6.26606812 129.50625854 5.14569092 129.11029053 C3.12355013 128.39656377 1.1006981 127.68484718 -0.92303467 126.97564697 C-3.52374049 126.06211649 -6.11979022 125.13647436 -8.71484375 124.20703125 C-9.4484462 123.95233566 -10.18204865 123.69764008 -10.93788147 123.43522644 C-19.82947309 120.21657925 -27.2460256 115.5446648 -32.03515625 107.1953125 C-35.68536502 99.01205376 -34.8053053 90.5356338 -31.8125 82.3125 C-31.3484375 81.12269531 -30.884375 79.93289062 -30.40625 78.70703125 C-29.00557049 75.01468443 -27.87518553 71.29810814 -26.8125 67.5 C-24.27678083 58.57786828 -21.29617838 49.80669366 -18.33215332 41.02026367 C-15.34335295 32.15343421 -12.50777823 23.27554032 -10.03515625 14.25 C-8.58833426 9.70752494 -6.93054602 4.94790952 -3 2 C-2.01 2 -1.02 2 0 2 C0 1.34 0 0.68 0 0 Z " fill="#ffffff" transform="translate(178,123)"/>
<path d="M0 0 C9.08856051 6.54619936 14.73812816 14.67631124 17.58203125 25.4921875 C18.10995654 29.84377613 18.1437071 34.11320221 18.08203125 38.4921875 C18.10523438 40.13960937 18.10523438 40.13960937 18.12890625 41.8203125 C18.07328763 53.55584097 14.72984306 62.95715295 6.58203125 71.4921875 C-2.64510052 80.30069703 -12.26841199 83.11793051 -24.78271484 82.96289062 C-36.60994382 82.49468278 -45.25903982 77.943818 -53.390625 69.42578125 C-61.20536971 60.15095684 -63.08524526 50.36881957 -62.91796875 38.4921875 C-62.9334375 37.39390625 -62.94890625 36.295625 -62.96484375 35.1640625 C-62.90922513 23.42853403 -59.56578056 14.02722205 -51.41796875 5.4921875 C-37.63784493 -7.66275112 -16.31305228 -10.17259803 0 0 Z " fill="#ffffff" transform="translate(246.41796875,49.5078125)"/>
<path d="M0 0 C16.2939433 1.27795634 30.25720784 8.06724827 41.45703125 19.9296875 C52.06892155 32.74220021 56.90783637 47.69658702 56.3828125 64.33984375 C54.50320518 82.31119131 45.96611476 96.55599581 32.5234375 108.1328125 C26.25879968 112.84659536 19.42092214 115.59219763 12 118 C11.24074219 118.2475 10.48148437 118.495 9.69921875 118.75 C-1.07508866 121.67184608 -12.58756513 120.69473495 -23 117 C-23.82886719 116.73316406 -24.65773438 116.46632813 -25.51171875 116.19140625 C-40.78053861 110.79818103 -51.73776679 99.11399236 -59 85 C-65.16048539 68.89068477 -66.06700902 53.28512947 -60 37 C-56.82908253 30.46280048 -53.0820595 24.2272612 -48 19 C-47.34 19 -46.68 19 -46 19 C-45.13020539 21.22414609 -44.27916816 23.45272592 -43.4375 25.6875 C-43.19064453 26.31333984 -42.94378906 26.93917969 -42.68945312 27.58398438 C-40.40322022 33.73427289 -41.54875863 37.23178983 -44 43.0625 C-48.17612828 53.02686489 -48.61267554 64.46088886 -44.98046875 74.7265625 C-39.36270537 87.75261146 -31.14290454 95.82774486 -18.0390625 101.25390625 C-7.16642262 105.23220935 4.55416932 103.22557472 15 99 C25.97058078 93.82115041 32.40298399 86.11544106 37 75 C40.67288801 64.68093369 40.22046774 52.96829235 36.328125 42.78515625 C30.69301084 30.96799038 22.77465209 24.22476523 11 19 C10.14277344 18.77828125 9.28554688 18.5565625 8.40234375 18.328125 C4.80242962 16.33792857 3.99589534 13.19388658 2.6875 9.5 C2.29208008 8.46552734 2.29208008 8.46552734 1.88867188 7.41015625 C0 2.37696834 0 2.37696834 0 0 Z " fill="#ffffff" transform="translate(440,332)"/>
<path d="M0 0 C7 6 7 6 9 8 C11.0355088 8.20182099 13.08044021 8.31333114 15.125 8.375 C20.83876562 8.74791169 25.43281103 9.38138104 30 13 C34.17041856 18.2130232 33.47765274 24.64551272 33 31 C32.51157347 34.80565672 31.56041785 37.35201686 29 40.3125 C26.04643705 41.97387916 24.16520838 42.40991557 20.875 42.9375 C16.86502331 43.59139326 16.86502331 43.59139326 13.8125 46.25 C11.95293045 52.5439277 15.25750766 58.54146608 17.6640625 64.30078125 C18.04458771 65.22599579 18.42511292 66.15121033 18.81716919 67.10446167 C19.64611385 69.11844445 20.47779801 71.13130135 21.31188965 73.14315796 C22.64066839 76.35031745 23.96078209 79.56091273 25.27832031 82.77270508 C27.171507 87.3873792 29.06667184 92.00123023 30.96386719 96.61425781 C35.46234789 107.5556671 39.95873207 118.49783777 44.41536903 129.45637417 C45.96132577 133.25679248 47.51656542 137.05322772 49.07884789 140.84696198 C50.28504639 143.78383072 51.47739777 146.72631742 52.671875 149.66796875 C53.11153595 150.72837372 53.5511969 151.78877869 54.00418091 152.88131714 C54.40079926 153.86560699 54.7974176 154.84989685 55.20605469 155.86401367 C55.55432312 156.71549484 55.90259155 157.56697601 56.26141357 158.44425964 C57.13107548 161.45356223 57.26047355 163.88112775 57 167 C54.54134115 170.94875513 53.01223197 172.66872408 48.5625 174.125 C44.09632695 173.96829217 42.45383626 172.78403954 39 170 C37.47460938 167.22509766 37.47460938 167.22509766 36.34375 163.9140625 C36.12416122 163.29091156 35.90457245 162.66776062 35.67832947 162.02572632 C35.19371667 160.64157496 34.71869591 159.25403829 34.25192261 157.86376953 C33.47291069 155.54434447 32.66912178 153.23473194 31.85961914 150.92578125 C30.60764867 147.34611273 29.36704507 143.7627482 28.13330078 140.17675781 C24.19915784 128.76076565 20.1688471 117.37823021 16.14255142 105.99448395 C15.43686858 103.99821382 14.73229981 102.00155327 14.02792358 100.00482178 C6.47108157 78.59547674 -1.46416897 57.36126468 -9.74243164 36.21875 C-10.14239349 35.19452942 -10.54235535 34.17030884 -10.95443726 33.11505127 C-11.68986764 31.23456296 -12.42887429 29.35546678 -13.17251587 27.47821045 C-13.66756119 26.2142746 -13.66756119 26.2142746 -14.17260742 24.92480469 C-14.45488693 24.21024109 -14.73716644 23.49567749 -15.02799988 22.75946045 C-16.50792726 18.55801955 -17.72001786 14.26660713 -19 10 C-12.73 6.7 -6.46 3.4 0 0 Z " fill="#ffffff" transform="translate(383,214)"/>
<path d="M0 0 C0.98049914 -0.00467997 0.98049914 -0.00467997 1.98080635 -0.00945449 C4.18114239 -0.01746092 6.38120466 -0.01110073 8.58154297 -0.00482178 C10.15492922 -0.00753047 11.72831421 -0.01109072 13.30169678 -0.01544189 C17.5825993 -0.02458266 21.86340574 -0.02101473 26.14431 -0.01468372 C30.6170427 -0.00963243 35.08976699 -0.01431274 39.5625 -0.01745605 C47.07472211 -0.02109825 54.58690494 -0.01628997 62.09912109 -0.0067749 C70.79353292 0.00411014 79.48785096 0.00058474 88.18226051 -0.01042771 C95.63705564 -0.01949339 103.09182247 -0.0207894 110.54662132 -0.01555037 C115.0034476 -0.0124267 119.46022975 -0.01203218 123.91705322 -0.01862335 C128.10637061 -0.02438575 132.29556667 -0.02042033 136.48487091 -0.00883484 C138.02563526 -0.0061823 139.56640975 -0.0069634 141.1071701 -0.01136017 C143.20407324 -0.01679385 145.30058313 -0.0100085 147.39746094 0 C148.57291473 0.00075405 149.74836853 0.0015081 150.95944214 0.002285 C153.69873047 0.25396729 153.69873047 0.25396729 155.69873047 2.25396729 C155.99951172 5.00396729 155.99951172 5.00396729 156.01123047 8.25396729 C156.02798828 9.32646729 156.04474609 10.39896729 156.06201172 11.50396729 C155.94212891 12.41146729 155.82224609 13.31896729 155.69873047 14.25396729 C152.11956865 16.64007516 150.5660563 16.50518825 146.31517029 16.50793457 C145.66473332 16.51105455 145.01429635 16.51417453 144.34414917 16.51738906 C142.16073757 16.52537787 139.97760321 16.51904215 137.79418945 16.51275635 C136.23050778 16.5154658 134.66682738 16.51902647 133.10314941 16.52337646 C128.85329658 16.53250749 124.60354066 16.52895348 120.35368609 16.52261829 C115.91165574 16.51756289 111.46963382 16.52224838 107.02760315 16.52539062 C99.56843573 16.52903123 92.1093079 16.52422829 84.65014648 16.51470947 C76.01762963 16.50382075 67.38520721 16.50735314 58.75269264 16.51836228 C51.34883229 16.52742772 43.94500043 16.52872421 36.54113632 16.52348495 C32.11562397 16.52036165 27.69015606 16.5199658 23.26464653 16.52655792 C19.10568426 16.5323201 14.94684422 16.52835531 10.7878952 16.51676941 C9.25841793 16.51411693 7.72893042 16.51489788 6.19945717 16.51929474 C4.11793324 16.52472854 2.03680543 16.51794299 -0.04469299 16.50793457 C-1.79486394 16.50680349 -1.79486394 16.50680349 -3.58039188 16.50564957 C-6.30126953 16.25396729 -6.30126953 16.25396729 -8.30126953 14.25396729 C-8.56689453 11.50396729 -8.56689453 11.50396729 -8.55126953 8.25396729 C-8.55642578 7.18146729 -8.56158203 6.10896729 -8.56689453 5.00396729 C-8.02917904 -0.56296955 -4.77254755 0.00306158 0 0 Z " fill="white" transform="translate(44.30126953125,403.74603271484375)"/>
<path d="M0 0 C2.47086554 1.01972229 3.26619387 2.15581702 4.71875 4.375 C5.14671875 5.01566406 5.5746875 5.65632813 6.015625 6.31640625 C6.33015625 6.81011719 6.6446875 7.30382812 6.96875 7.8125 C1.44830824 16.77711118 -4.19751925 25.63658335 -10.06420898 34.37866211 C-14.70659816 41.30373657 -19.28169815 48.27189466 -23.84375 55.25 C-24.54894775 56.32749512 -25.25414551 57.40499023 -25.98071289 58.51513672 C-26.66383545 59.56072754 -27.34695801 60.60631836 -28.05078125 61.68359375 C-28.64995361 62.60068115 -29.24912598 63.51776855 -29.86645508 64.46264648 C-32.04418194 67.627025 -32.04418194 67.627025 -33.22923279 70.6058197 C-34.86371228 73.96888523 -36.28179696 76.26097126 -39.03125 78.8125 C-44.80599528 80.36845468 -50.4029264 80.09816814 -56.33984375 79.88671875 C-58.03372634 79.8661822 -59.72767462 79.85053361 -61.42164612 79.83955383 C-65.86382928 79.7977051 -70.30200647 79.68980863 -74.74261475 79.56781006 C-79.28033243 79.45493859 -83.81870274 79.40497226 -88.35742188 79.34960938 C-97.25045081 79.23190923 -106.14051637 79.04437482 -115.03125 78.8125 C-115.02044907 78.17598511 -115.00964813 77.53947021 -114.9985199 76.88366699 C-114.55256588 60.45950494 -114.55256588 60.45950494 -117.09375 44.3125 C-117.41786865 42.9663562 -117.41786865 42.9663562 -117.74853516 41.59301758 C-119.55458628 34.55696964 -122.41094986 28.41309013 -125.71484375 21.9765625 C-127.61846812 17.40108554 -127.27431224 14.53613652 -126.03125 9.8125 C-124.05125 9.1525 -122.07125 8.4925 -120.03125 7.8125 C-119.70125 6.1625 -119.37125 4.5125 -119.03125 2.8125 C-118.70125 2.8125 -118.37125 2.8125 -118.03125 2.8125 C-117.93102539 3.81514893 -117.83080078 4.81779785 -117.72753906 5.85083008 C-117.34666201 9.62274064 -116.94697134 13.39247282 -116.54199219 17.16186523 C-116.37030426 18.78373739 -116.20350922 20.40613614 -116.04199219 22.02905273 C-114.40479926 38.41614119 -111.27770501 51.26533629 -98.18359375 62.2734375 C-88.94765165 68.87772278 -79.05240958 69.5973569 -68.03125 68.8125 C-56.55766818 66.29320663 -48.24744851 60.22282639 -41.6875 50.6171875 C-39.42955286 46.79358834 -38.06812862 43.10915455 -37.03125 38.8125 C-36.67515883 37.38915271 -36.31833546 35.96598847 -35.9609375 34.54296875 C-35.50074219 32.69638672 -35.50074219 32.69638672 -35.03125 30.8125 C-34.41604492 30.79268066 -33.80083984 30.77286133 -33.16699219 30.75244141 C-30.37132458 30.65700273 -27.5763849 30.54740045 -24.78125 30.4375 C-23.32912109 30.39109375 -23.32912109 30.39109375 -21.84765625 30.34375 C-20.44580078 30.28574219 -20.44580078 30.28574219 -19.015625 30.2265625 C-17.72736816 30.17943115 -17.72736816 30.17943115 -16.41308594 30.13134766 C-13.86614613 29.79039815 -12.20141095 29.17475106 -10.03125 27.8125 C-8.77286443 25.29572887 -8.82306027 23.39956712 -8.71484375 20.5859375 C-8.67294922 19.5546875 -8.63105469 18.5234375 -8.58789062 17.4609375 C-8.54857422 16.38070313 -8.50925781 15.30046875 -8.46875 14.1875 C-8.40397461 12.55554688 -8.40397461 12.55554688 -8.33789062 10.890625 C-8.2316047 8.1980483 -8.12956943 5.50537747 -8.03125 2.8125 C-2.65062533 -0.24467311 -2.65062533 -0.24467311 0 0 Z " fill="white" transform="translate(330.03125,325.1875)"/>
<path d="M0 0 C5.63574254 3.05372834 9.16177601 6.8136002 11.8515625 12.62109375 C14.33041584 21.60168531 14.61973963 33.22754702 10.7734375 41.8359375 C7.02133075 47.86915461 1.4514636 51.72825411 -5.2265625 53.9609375 C-13.49226836 55.07160519 -20.45770916 53.97133428 -27.2265625 48.9609375 C-34.71584141 41.25412766 -35.68052758 33.89814049 -35.65820312 23.56005859 C-35.50523377 16.78623026 -34.74784634 11.28648818 -30.2265625 5.9609375 C-21.77421959 -2.1165031 -10.9800644 -4.88500824 0 0 Z " fill="white" transform="translate(235.2265625,62.0390625)"/>
<path d="M0 0 C4.12324523 3.75916176 7.45323684 8.13404269 7.97265625 13.84765625 C8.0928501 20.29805979 7.60414706 25.23555008 3.28125 30.38671875 C-6.53089913 40.00976864 -22.62253385 44.61328125 -36.23046875 44.61328125 C-36.23046875 46.92328125 -36.23046875 49.23328125 -36.23046875 51.61328125 C-36.56046875 51.61328125 -36.89046875 51.61328125 -37.23046875 51.61328125 C-37.27010742 50.73704102 -37.30974609 49.86080078 -37.35058594 48.95800781 C-37.50858538 45.64700295 -37.68198975 42.33750039 -37.86523438 39.02783203 C-37.94089719 37.60658934 -38.01074673 36.18502288 -38.07421875 34.76318359 C-38.84657585 17.66271474 -44.11584572 5.29777123 -54.23046875 -8.38671875 C-35.66414033 -10.69098332 -15.81897594 -11.70543726 0 0 Z " fill="#ffffff" transform="translate(328.23046875,241.38671875)"/>
<path d="M0 0 C3.75212276 2.01502889 5.63644095 3.45466142 8 7 C8.86126436 15.85860318 7.5897707 24.7026283 6.1875 33.4375 C6.02185547 34.56865234 5.85621094 35.69980469 5.68554688 36.86523438 C3.67225025 49.77312479 3.67225025 49.77312479 -1.25 53.875 C-4.72062461 55.29480098 -7.35069013 55.74220499 -11 55 C-15.10772101 53.12622271 -18.90569771 50.7971557 -22.75 48.4375 C-23.7709375 47.82841797 -24.791875 47.21933594 -25.84375 46.59179688 C-28.91145486 44.75234187 -31.95551119 42.87756546 -35 41 C-36.02673828 40.38914551 -37.05347656 39.77829102 -38.11132812 39.14892578 C-39.09037109 38.55450684 -40.06941406 37.96008789 -41.078125 37.34765625 C-41.9537207 36.82308838 -42.82931641 36.29852051 -43.73144531 35.75805664 C-47.42783287 32.89347562 -48.83237079 30.15245079 -49.5 25.5625 C-48.87341151 21.09805702 -47.3966492 18.81802794 -44 16 C-39.71665031 13.63884835 -35.25919878 11.76066495 -30.75 9.875 C-29.56019531 9.36324219 -28.37039062 8.85148437 -27.14453125 8.32421875 C-24.8252874 7.3273283 -22.50285865 6.33780828 -20.17700195 5.35644531 C-16.71604714 3.87876415 -13.29794861 2.32207534 -9.89428711 0.71728516 C-6.35952494 -0.62117744 -3.76107778 -0.4932561 0 0 Z " fill="#ffffff" transform="translate(182,307)"/>
<path d="M0 0 C0.65281167 -0.00226556 1.30562334 -0.00453111 1.97821718 -0.00686532 C4.18158644 -0.0132322 6.38489462 -0.01237425 8.58827209 -0.0115509 C10.16151001 -0.01454072 11.73474719 -0.01794283 13.3079834 -0.02172852 C17.59304968 -0.03059073 21.87809602 -0.03290756 26.16317058 -0.0335443 C29.73445109 -0.03449155 33.30572692 -0.0381677 36.87700564 -0.0417164 C45.29931821 -0.04986938 53.72162009 -0.05229986 62.14393616 -0.05158997 C70.84570546 -0.05098893 79.54741281 -0.06154398 88.24916643 -0.07733363 C95.70818244 -0.09038834 103.16717815 -0.09577474 110.6262055 -0.09513456 C115.08640661 -0.09487896 119.5465527 -0.09776391 124.00674248 -0.10831261 C128.20014043 -0.1179589 132.3934304 -0.11809678 136.58683205 -0.11079597 C138.12921175 -0.10974579 139.67159805 -0.11213851 141.21396637 -0.11815643 C143.31310206 -0.12581859 145.4118594 -0.12127048 147.51098633 -0.11352539 C149.27611525 -0.11434254 149.27611525 -0.11434254 151.07690334 -0.1151762 C153.81898499 0.13371277 153.81898499 0.13371277 155.81898499 2.13371277 C155.26342943 6.68926832 155.26342943 6.68926832 153.81898499 8.13371277 C151.76065107 8.23491625 149.69878826 8.26448973 147.63796997 8.26742554 C146.9851583 8.26969109 146.33234663 8.27195665 145.65975279 8.27429086 C143.45638353 8.28065773 141.25307536 8.27979979 139.04969788 8.27897644 C137.47645996 8.28196626 135.90322278 8.28536837 134.32998657 8.28915405 C130.04492029 8.29801627 125.75987395 8.30033309 121.47479939 8.30096984 C117.90351888 8.30191708 114.33224305 8.30559324 110.76096433 8.30914193 C102.33865176 8.31729492 93.91634988 8.3197254 85.49403381 8.3190155 C76.79226451 8.31841447 68.09055716 8.32896952 59.38880354 8.34475917 C51.92978753 8.35781388 44.47079182 8.36320027 37.01176447 8.36256009 C32.55156336 8.3623045 28.09141727 8.36518945 23.63122749 8.37573814 C19.43782954 8.38538444 15.24453958 8.38552232 11.05113792 8.37822151 C9.50875822 8.37717133 7.96637192 8.37956405 6.4240036 8.38558197 C4.32486791 8.39324413 2.22611057 8.38869601 0.12698364 8.38095093 C-1.63814528 8.38176808 -1.63814528 8.38176808 -3.43893337 8.38260174 C-6.18101501 8.13371277 -6.18101501 8.13371277 -8.18101501 6.13371277 C-7.40961098 -0.19180035 -6.1080737 0.00870146 0 0 Z " fill="white" transform="translate(44.18101501464844,403.8662872314453)"/>
<path d="M0 0 C1.93746094 -0.00386719 1.93746094 -0.00386719 3.9140625 -0.0078125 C9.36409557 0.20133098 9.36409557 0.20133098 11.375 1.125 C12.28125 2.9453125 12.28125 2.9453125 12.875 5.25 C14.16223748 9.69488079 15.9491427 13.19343818 18.375 17.125 C17.240625 16.795 16.10625 16.465 14.9375 16.125 C3.71067345 13.6774454 -8.30059116 13.81259361 -18.625 19.125 C-19.55957031 19.599375 -20.49414062 20.07375 -21.45703125 20.5625 C-31.88273512 26.4955955 -38.18370865 35.73179813 -41.625 47.125 C-42.12 49.6 -42.12 49.6 -42.625 52.125 C-47.245 52.125 -51.865 52.125 -56.625 52.125 C-55.95144291 36.8577059 -48.66432286 24.3461634 -37.70703125 13.93359375 C-26.91676862 4.56043879 -14.2447714 -0.02854664 0 0 Z " fill="#ffffff" transform="translate(106.625,335.875)"/>
<path d="M0 0 C2.47086554 1.01972229 3.26619387 2.15581702 4.71875 4.375 C5.14671875 5.01566406 5.5746875 5.65632813 6.015625 6.31640625 C6.48742187 7.05697266 6.48742187 7.05697266 6.96875 7.8125 C1.44830824 16.77711118 -4.19751925 25.63658335 -10.06420898 34.37866211 C-14.70659816 41.30373657 -19.28169815 48.27189466 -23.84375 55.25 C-24.54894775 56.32749512 -25.25414551 57.40499023 -25.98071289 58.51513672 C-26.66383545 59.56072754 -27.34695801 60.60631836 -28.05078125 61.68359375 C-28.64995361 62.60068115 -29.24912598 63.51776855 -29.86645508 64.46264648 C-32.04418194 67.627025 -32.04418194 67.627025 -33.22923279 70.6058197 C-34.86371228 73.96888523 -36.28179696 76.26097126 -39.03125 78.8125 C-44.80599528 80.36845468 -50.4029264 80.09816814 -56.33984375 79.88671875 C-58.03372634 79.8661822 -59.72767462 79.85053361 -61.42164612 79.83955383 C-65.86382928 79.7977051 -70.30200647 79.68980863 -74.74261475 79.56781006 C-79.28033243 79.45493859 -83.81870274 79.40497226 -88.35742188 79.34960938 C-97.25045081 79.23190923 -106.14051637 79.04437482 -115.03125 78.8125 C-114.70125 76.1725 -114.37125 73.5325 -114.03125 70.8125 C-89.28125 70.8125 -64.53125 70.8125 -39.03125 70.8125 C-38.37125 69.1625 -37.71125 67.5125 -37.03125 65.8125 C-35.66497491 63.5789707 -34.27546663 61.39994642 -32.8203125 59.2265625 C-32.41090424 58.60655365 -32.00149597 57.9865448 -31.5796814 57.3477478 C-30.27610848 55.37482036 -28.96660542 53.40592788 -27.65625 51.4375 C-26.35385628 49.4756909 -25.05282666 47.51300816 -23.75424194 45.54867554 C-22.94855637 44.33047137 -22.14062316 43.11374943 -21.32998657 41.89883423 C-19.39347569 38.97603431 -17.58098117 36.03777535 -15.88818359 32.96630859 C-14.03051837 29.81125741 -13.31620933 29.05851906 -10.03125 27.8125 C-8.77286443 25.29572887 -8.82306027 23.39956712 -8.71484375 20.5859375 C-8.67294922 19.5546875 -8.63105469 18.5234375 -8.58789062 17.4609375 C-8.54857422 16.38070313 -8.50925781 15.30046875 -8.46875 14.1875 C-8.40397461 12.55554688 -8.40397461 12.55554688 -8.33789062 10.890625 C-8.2316047 8.1980483 -8.12956943 5.50537747 -8.03125 2.8125 C-2.65062533 -0.24467311 -2.65062533 -0.24467311 0 0 Z " fill="white" transform="translate(330.03125,325.1875)"/>
<path d="M0 0 C4.93350217 4.05251964 7.4792145 9.42741145 8.390625 15.6796875 C8.72120499 24.01502585 6.42929436 31.16437986 1.375 37.8125 C-3.1315059 42.6878248 -10.50368682 46.49674293 -17.12890625 47.23828125 C-25.38639704 47.49011484 -32.24494209 45.4158621 -38.8125 40.3125 C-45.23007512 34.27421419 -47.58835821 27.64447756 -48 19 C-47.57589844 19.38671875 -47.15179688 19.7734375 -46.71484375 20.171875 C-39.7322603 26.37179525 -33.33523485 30.42310508 -23.7578125 30.26953125 C-17.02328733 29.61134111 -11.69791991 27.19704478 -7.0625 22.25 C-1.67185118 15.37533727 -0.50964245 8.57605226 0 0 Z " fill="white" transform="translate(456,373)"/>
<path d="M0 0 C0.33 0 0.66 0 1 0 C1.08636719 1.00417969 1.17273438 2.00835937 1.26171875 3.04296875 C3.00555159 20.90517595 9.28497532 35.0597492 23.17578125 46.9296875 C36.36452178 56.59778222 51.77546912 60.69105238 68 59 C84.63671726 55.86440176 98.53530044 47.95293275 108.8125 34.25 C113.72145563 26.84025565 116.22941806 18.37442868 119 10 C119.33 10 119.66 10 120 10 C119.21536369 27.37969423 112.25575731 40.91184279 100 53 C87.73869745 63.92283678 71.75874446 68.81576235 55.50390625 68.32421875 C50.39768423 67.85173667 45.82124701 66.71076507 41 65 C40.17113281 64.73316406 39.34226562 64.46632813 38.48828125 64.19140625 C23.21946139 58.79818103 12.26223321 47.11399236 5 33 C3.36605824 28.7273362 2.06920127 24.44594427 1 20 C0.8040625 19.21238281 0.608125 18.42476563 0.40625 17.61328125 C-0.13468433 14.13361714 -0.10616813 10.69774598 -0.0625 7.1875 C-0.05798828 6.49462891 -0.05347656 5.80175781 -0.04882812 5.08789062 C-0.03713156 3.39188932 -0.01919924 1.69593297 0 0 Z " fill="white" transform="translate(376,384)"/>
<path d="M0 0 C5.98879284 3.6033409 10.91642085 8.77699327 13.32421875 15.3984375 C13.32421875 16.7184375 13.32421875 18.0384375 13.32421875 19.3984375 C-4.49578125 19.3984375 -22.31578125 19.3984375 -40.67578125 19.3984375 C-37.31850661 9.32661357 -34.98944899 4.96191762 -26.05078125 -0.0390625 C-17.2698303 -4.09264506 -8.80761887 -3.99959504 0 0 Z " fill="white" transform="translate(120.67578125,368.6015625)"/>
<path d="M0 0 C4.58332006 -0.02901401 9.16661651 -0.04680348 13.75 -0.0625 C15.05195312 -0.07087891 16.35390625 -0.07925781 17.6953125 -0.08789062 C19.57089844 -0.09272461 19.57089844 -0.09272461 21.484375 -0.09765625 C23.21252441 -0.10551147 23.21252441 -0.10551147 24.97558594 -0.11352539 C27.54386222 -0.01712174 29.55096471 0.31664873 32 1 C34.3318318 1.09349326 36.66629991 1.12994428 39 1.125 C40.216875 1.12757813 41.43375 1.13015625 42.6875 1.1328125 C45.77897835 1.13602202 45.77897835 1.13602202 47.79980469 0.49780273 C50.73895276 -0.16719093 53.50322225 -0.11134899 56.515625 -0.09765625 C57.76601562 -0.09443359 59.01640625 -0.09121094 60.3046875 -0.08789062 C62.25761719 -0.07532227 62.25761719 -0.07532227 64.25 -0.0625 C65.56742187 -0.05798828 66.88484375 -0.05347656 68.2421875 -0.04882812 C71.49483741 -0.03704316 74.74739584 -0.02059011 78 0 C70.17222236 10.04440287 58.32358703 13.99741711 46 16 C28.35298785 16.99452362 13.64036772 12.49227831 0 1 C0 0.67 0 0.34 0 0 Z " fill="white" transform="translate(68,436)"/>
<path d="M0 0 C0 4.95 0 9.9 0 15 C-1.58941406 15.81404297 -1.58941406 15.81404297 -3.2109375 16.64453125 C-4.59916732 17.36678595 -5.98717676 18.08946435 -7.375 18.8125 C-8.07367188 19.16892578 -8.77234375 19.52535156 -9.4921875 19.89257812 C-10.49765625 20.41948242 -10.49765625 20.41948242 -11.5234375 20.95703125 C-12.14138184 21.27647705 -12.75932617 21.59592285 -13.39599609 21.92504883 C-15.32068083 23.06677549 -15.32068083 23.06677549 -17 26 C-17.36433373 28.12337771 -17.36433373 28.12337771 -17.4140625 30.44921875 C-17.47207031 31.72055664 -17.47207031 31.72055664 -17.53125 33.01757812 C-17.57765625 34.33918945 -17.57765625 34.33918945 -17.625 35.6875 C-17.68300781 37.02651367 -17.68300781 37.02651367 -17.7421875 38.39257812 C-17.83639651 40.59471378 -17.91928494 42.79732847 -18 45 C-21.63 45 -25.26 45 -29 45 C-29 48.96 -29 52.92 -29 57 C-29.33 57 -29.66 57 -30 57 C-30.28811915 51.48665612 -30.57282042 45.97314969 -30.85449219 40.45947266 C-30.95058074 38.58768058 -31.04756831 36.71593442 -31.14550781 34.84423828 C-31.28692955 32.13846515 -31.42501006 29.43253794 -31.5625 26.7265625 C-31.60624756 25.90322418 -31.64999512 25.07988586 -31.69506836 24.2315979 C-31.98273902 18.48361099 -32.04795992 12.75471422 -32 7 C-30.90171875 6.76700195 -30.90171875 6.76700195 -29.78125 6.52929688 C-26.81167095 5.8983728 -23.8433694 5.26159007 -20.875 4.625 C-19.82828125 4.40328125 -18.7815625 4.1815625 -17.703125 3.953125 C-11.9389282 2.71272822 -5.82569234 0 0 0 Z " fill="white" transform="translate(324,295)"/>
<path d="M0 0 C0.33 0 0.66 0 1 0 C1.07476562 0.6290625 1.14953125 1.258125 1.2265625 1.90625 C2.32753655 9.07337517 4.52150744 14.69478823 10.51171875 19.11567688 C16.44519321 23.02974456 22.70688752 25.30364799 29.3984375 27.6171875 C30.58740631 28.03743195 31.77637512 28.45767639 33.00137329 28.89065552 C36.15181408 30.00276537 39.30481379 31.10685468 42.45959473 32.20654297 C71.40584702 42.3084917 71.40584702 42.3084917 83.6015625 46.8828125 C84.32499847 47.14424042 85.04843445 47.40566833 85.79379272 47.67501831 C89.5950016 49.13073693 92.02056107 50.36515515 94 54 C94.37460816 56.73713695 94.13898721 59.22025584 94 62 C93.41041504 61.42870361 92.82083008 60.85740723 92.21337891 60.26879883 C87.67305836 57.06311589 82.81137461 55.51416813 77.5859375 53.69921875 C76.46168365 53.2997554 75.33742981 52.90029205 74.17910767 52.48872375 C70.58093742 51.21238457 66.97819272 49.94958216 63.375 48.6875 C61.0048798 47.85053915 58.63508459 47.01265738 56.265625 46.17382812 C55.10653625 45.76367462 53.94744751 45.35352112 52.75323486 44.93093872 C42.78401166 41.40220126 42.78401166 41.40220126 39.1385498 40.11029053 C37.1199947 39.39620831 35.1006092 38.68446683 33.0802002 37.97564697 C30.47982151 37.06184583 27.88398597 36.13618923 25.2890625 35.20703125 C24.55521332 34.95233566 23.82136414 34.69764008 23.0652771 34.43522644 C14.17189732 31.21741255 6.75473912 26.54599802 1.96484375 18.1953125 C-0.65209356 12.3285042 -0.2838867 6.30859324 0 0 Z " fill="white" transform="translate(144,212)"/>
<path d="M0 0 C0.33 0 0.66 0 1 0 C0.96519531 1.31871094 0.93039062 2.63742187 0.89453125 3.99609375 C0.68221253 15.74952988 1.62281741 26.51028415 4 38 C5.52993806 45.81968341 5.52993806 45.81968341 3.625 50.0625 C0.33408952 52.49150536 -1.78386402 52.55956141 -5.78125 52.56640625 C-8.95974065 51.75499578 -10.03074146 50.63119418 -12 48 C-13.0325475 45.28332939 -13.65110432 42.52734552 -14.25 39.6875 C-14.42273438 38.95337891 -14.59546875 38.21925781 -14.7734375 37.46289062 C-17.37556593 25.82559403 -17.37556593 25.82559403 -14.0234375 20.3515625 C-13.15691101 19.09795987 -12.27335953 17.8559906 -11.375 16.625 C-10.45695498 15.31385548 -9.53898605 14.00265769 -8.62109375 12.69140625 C-8.17233887 12.06250488 -7.72358398 11.43360352 -7.26123047 10.78564453 C-5.58952205 8.41884713 -4.01341637 5.99380374 -2.4375 3.5625 C-1.65326103 2.35614941 -0.85170566 1.15970254 0 0 Z " fill="white" transform="translate(343,380)"/>
<path d="M0 0 C2.04845303 1.18796909 4.09798538 2.37407847 6.1484375 3.55859375 C7.77797363 4.50387939 7.77797363 4.50387939 9.44042969 5.46826172 C14.84027686 8.56430716 20.29955731 11.55000863 25.75878906 14.53967285 C34.879263 19.53839415 43.98041982 24.57091244 53 29.75 C53.76924805 30.18779785 54.53849609 30.6255957 55.33105469 31.07666016 C56.3776123 31.6826001 56.3776123 31.6826001 57.4453125 32.30078125 C58.04102051 32.64407471 58.63672852 32.98736816 59.25048828 33.34106445 C61.06044624 34.56266367 62.48318812 35.75073995 63.875 37.4375 C63.5625 40.125 63.5625 40.125 62.875 42.4375 C59.43650855 42.4375 58.12726007 41.68646895 55.140625 40.05078125 C54.18631592 39.5314502 53.23200684 39.01211914 52.2487793 38.47705078 C51.21793213 37.90712402 50.18708496 37.33719727 49.125 36.75 C48.05096924 36.16202637 46.97693848 35.57405273 45.87036133 34.96826172 C37.79779262 30.53517407 29.77039627 26.02286396 21.76391602 21.47167969 C16.45131283 18.45250529 11.12642151 15.45723788 5.78125 12.49609375 C5.17988724 12.16287109 4.57852448 11.82964844 3.9589386 11.48632812 C1.03553217 9.8672787 -1.88929023 8.25087378 -4.81567383 6.63720703 C-19.57780356 -1.52869826 -19.57780356 -1.52869826 -24.125 -4.5625 C-24.125 -4.8925 -24.125 -5.2225 -24.125 -5.5625 C-14.19510473 -7.38635831 -8.38284867 -4.9763134 0 0 Z " fill="white" transform="translate(251.125,152.5625)"/>
<path d="M0 0 C1.93746094 -0.00386719 1.93746094 -0.00386719 3.9140625 -0.0078125 C9.36409557 0.20133098 9.36409557 0.20133098 11.375 1.125 C12.28125 2.9453125 12.28125 2.9453125 12.875 5.25 C14.16223748 9.69488079 15.9491427 13.19343818 18.375 17.125 C16.395 16.795 14.415 16.465 12.375 16.125 C11.385 12.66 11.385 12.66 10.375 9.125 C-8.4440709 8.26524549 -22.96477136 10.77789633 -38.01953125 23.08203125 C-46.45030704 30.82340799 -52.15530595 41.28220608 -55.625 52.125 C-55.955 52.125 -56.285 52.125 -56.625 52.125 C-56.27717622 37.83260487 -49.44062421 26.04726558 -39.75 15.875 C-28.65436642 5.33096579 -15.2997591 -0.03066084 0 0 Z " fill="white" transform="translate(106.625,335.875)"/>
<path d="M0 0 C0.99 0 1.98 0 3 0 C9.9211678 16.30140686 16.21757924 32.78929167 22.25 49.4375 C22.58330322 50.35664185 22.91660645 51.27578369 23.26000977 52.22277832 C27.02537662 62.62039915 30.72783171 73.03881622 34.37026978 83.48010254 C37.42973381 92.24656285 40.54039341 100.99455319 43.66210938 109.73901367 C44.63310344 112.46020975 45.60171535 115.18224684 46.5703125 117.90429688 C48.09432712 122.18235929 49.63232908 126.45516597 51.17980957 130.72479248 C51.94110582 132.83662759 52.68785532 134.95309406 53.43261719 137.07080078 C53.85446289 138.23466309 54.27630859 139.39852539 54.7109375 140.59765625 C55.0620459 141.58386963 55.4131543 142.57008301 55.77490234 143.58618164 C57.16289295 146.3209491 58.35990382 147.47376336 61 149 C64.91335865 149.40764153 67.69293253 149.20471165 71 147 C71.33 146.34 71.66 145.68 72 145 C72.66 145 73.32 145 74 145 C74.48665196 149.08787651 74.14848467 150.76152463 71.9375 154.3125 C68.41753734 157.53289137 66.74631234 158.16653727 62 158 C57.03823562 155.35821715 55.14791482 153.19646391 53.34375 147.9140625 C53.12416122 147.29091156 52.90457245 146.66776062 52.67832947 146.02572632 C52.19371667 144.64157496 51.71869591 143.25403829 51.25192261 141.86376953 C50.47291069 139.54434447 49.66912178 137.23473194 48.85961914 134.92578125 C47.60764867 131.34611273 46.36704507 127.7627482 45.13330078 124.17675781 C41.19901933 112.7603637 37.16862967 101.37740234 33.14214706 89.99327087 C32.43729203 87.9994117 31.73352409 86.00517144 31.02993774 84.01086426 C23.41017923 62.42542468 15.40354543 41.01701242 7.08178711 19.69140625 C6.67820984 18.65633942 6.27463257 17.62127258 5.85882568 16.55484009 C5.10894819 14.634954 4.35647827 12.71607758 3.60089111 10.7984314 C3.27070984 9.95535431 2.94052856 9.11227722 2.6003418 8.24365234 C2.31362106 7.51576508 2.02690033 6.78787781 1.73149109 6.03793335 C1.01544406 4.04302714 0.47590731 2.0640866 0 0 Z " fill="white" transform="translate(366,230)"/>
<path d="M0 0 C3.47902686 3.12652635 6.43063186 6.02721831 7.0703125 10.81640625 C7.0859375 13.03125 7.0859375 13.03125 6.7734375 16.59375 C6.2784375 15.8925 5.7834375 15.19125 5.2734375 14.46875 C-2.10980579 5.97802021 -12.13769027 1.09621265 -23.2265625 -0.40625 C-28.57360991 -0.45896056 -33.9184635 -0.16903858 -39.25195312 0.19921875 C-47.21958568 0.45887606 -47.21958568 0.45887606 -50.33056641 -2.21386719 C-51.83656006 -4.21744362 -53.09529322 -6.17259758 -54.2265625 -8.40625 C-35.73833036 -10.70082205 -15.70551511 -11.79417993 0 0 Z " fill="white" transform="translate(328.2265625,241.40625)"/>
<path d="M0 0 C0.33 0 0.66 0 1 0 C1.6497995 9.49429275 0.22245818 17.12109904 -5.625 24.8125 C-10.1315059 29.6878248 -17.50368682 33.49674293 -24.12890625 34.23828125 C-32.38639704 34.49011484 -39.24494209 32.4158621 -45.8125 27.3125 C-52.23007512 21.27421419 -54.58835821 14.64447756 -55 6 C-52 8 -52 8 -50.75 11.25 C-48.34685935 17.20830233 -43.37327501 20.49873707 -37.8125 23.375 C-31.11888894 26.05244442 -24.6144877 26.20044804 -17.77734375 23.9296875 C-9.87836485 20.34725097 -5.52188274 16.04376548 -1.6875 8.375 C-0.88529555 5.60374826 -0.39845598 2.85560122 0 0 Z " fill="white" transform="translate(463,386)"/>
<path d="M0 0 C2.625 2.1875 2.625 2.1875 4.625 5.1875 C4.75 7.875 4.75 7.875 4.625 10.1875 C1.625 10.1875 1.625 10.1875 0 8.6875 C-3.69569525 6.35337668 -7.18731106 6.56611531 -11.375 7.1875 C-16.03053732 8.77893739 -20.4307536 10.83516122 -24.875 12.9375 C-26.63263672 13.74574219 -26.63263672 13.74574219 -28.42578125 14.5703125 C-32.66401875 16.52056769 -36.89154954 18.49332126 -41.1171875 20.47070312 C-41.91382813 20.83615234 -42.71046875 21.20160156 -43.53125 21.578125 C-44.20994141 21.89297852 -44.88863281 22.20783203 -45.58789062 22.53222656 C-47.375 23.1875 -47.375 23.1875 -50.375 23.1875 C-50.705 21.5375 -51.035 19.8875 -51.375 18.1875 C-47.05289514 14.29777338 -42.93905485 11.750684 -37.6328125 9.41796875 C-36.54200882 8.92916985 -36.54200882 8.92916985 -35.4291687 8.43049622 C-33.90014264 7.74921096 -32.36885482 7.07298122 -30.83544922 6.40161133 C-28.50555059 5.37743991 -26.1884776 4.32751923 -23.87109375 3.27539062 C-22.37570619 2.61298679 -20.87963354 1.95212698 -19.3828125 1.29296875 C-18.69921661 0.98054733 -18.01562073 0.66812592 -17.31130981 0.34623718 C-11.31403612 -2.23310514 -6.00460176 -3.22469354 0 0 Z " fill="white" transform="translate(185.375,308.8125)"/>
<path d="M0 0 C16.8217725 1.31935471 31.71768884 8.57026702 42.74804688 21.4140625 C50.77769958 31.58579105 55.63062483 42.9670868 55 56 C54.67 56 54.34 56 54 56 C53.79246094 55.20078125 53.58492188 54.4015625 53.37109375 53.578125 C48.84778684 37.45319829 40.59625049 25.00708691 25.9375 16.5625 C18.50033597 12.46856581 11.43077713 9.89689118 3 9 C2.01 6.03 1.02 3.06 0 0 Z " fill="white" transform="translate(440,332)"/>
<path d="M0 0 C0.88429687 0.83144531 1.76859375 1.66289062 2.6796875 2.51953125 C7.9759412 7.05746377 14.06926091 10.28397674 20.125 13.6875 C21.30378817 14.35671294 22.48217664 15.02663044 23.66015625 15.69726562 C25.82362798 16.92769371 27.98894225 18.1548922 30.15673828 19.37768555 C32.01387544 20.43733491 33.84771572 21.53920714 35.65185547 22.68676758 C38.94370787 24.52778172 41.28573345 24.39795713 45 24 C48.70459511 22.31609313 50.77952709 20.38914286 53 17 C53.31378312 22.22971874 52.90940049 25.58573719 50 30 C46.92599973 32.56166689 44.21397377 33.51983184 40.19433594 33.44628906 C35.07225452 32.40454843 30.64774034 29.13685928 26.25 26.4375 C25.2290625 25.82841797 24.208125 25.21933594 23.15625 24.59179688 C20.08854514 22.75234187 17.04448881 20.87756546 14 19 C12.97326172 18.38914551 11.94652344 17.77829102 10.88867188 17.14892578 C9.42010742 16.25729736 9.42010742 16.25729736 7.921875 15.34765625 C7.0462793 14.82308838 6.17068359 14.29852051 5.26855469 13.75805664 C2.66149437 11.73766907 1.41343984 9.96873951 0 7 C-0.1875 3.1875 -0.1875 3.1875 0 0 Z " fill="white" transform="translate(133,329)"/>
<path d="M0 0 C6.82843669 3.69998992 10.22800918 8.67726597 12.7734375 15.9609375 C13.13309313 18.78810391 13.0381904 21.10160614 12.7734375 23.9609375 C11.01979705 21.68120491 9.42511519 19.4036218 7.8984375 16.9609375 C4.30952241 11.89423385 -0.20024806 8.6023461 -6.2265625 6.9609375 C-13.90518635 5.77165569 -19.84363545 7.63372183 -26.2265625 11.9609375 C-29.96471663 15.29665877 -32.17599634 19.42810704 -34.2265625 23.9609375 C-34.5565625 23.9609375 -34.8865625 23.9609375 -35.2265625 23.9609375 C-35.88286787 16.87283948 -34.30810057 11.82814848 -30.2265625 5.9609375 C-21.89529346 -2.2023624 -10.88387066 -4.84221185 0 0 Z " fill="white" transform="translate(235.2265625,62.0390625)"/>
<path d="M0 0 C0.33 0 0.66 0 1 0 C1.60559091 7.50932723 0.39030228 12.78392297 -4 19 C-9.36161169 24.24270498 -15.11922985 27.26572351 -22.6875 27.4375 C-29.92815283 27.28609644 -35.76591722 25.3280188 -40.8828125 20.0625 C-45.83433965 13.74750885 -47.26914322 8.93972501 -47 1 C-45 3 -45 3 -43.3125 6.25 C-40.07814827 12.03080029 -35.29776647 15.95974725 -29 18 C-21.65713699 18.87101547 -14.99612098 18.61636841 -9 14 C-4.58377143 9.88984667 -1.35261717 6.01163185 0 0 Z " fill="white" transform="translate(247,89)"/>
<path d="M0 0 C7 6 7 6 9 8 C11.0355088 8.20182099 13.08044021 8.31333114 15.125 8.375 C20.80898934 8.74596833 25.47385788 9.35587532 30 13 C33.07333261 17.32187398 33.31344001 20.77599984 33 26 C32.484375 25.236875 31.96875 24.47375 31.4375 23.6875 C28.5832468 20.54050288 26.08596247 18.95764745 22 18 C19.85493289 17.9151823 17.70882791 17.85473099 15.5625 17.8125 C10.32518693 17.55849636 7.88491741 16.68754969 4.1875 12.9375 C3.09207482 11.65235169 2.01663088 10.34834126 1 9 C0.09636719 9.433125 -0.80726563 9.86625 -1.73828125 10.3125 C-2.91777344 10.869375 -4.09726562 11.42625 -5.3125 12 C-6.48425781 12.556875 -7.65601563 13.11375 -8.86328125 13.6875 C-12 15 -12 15 -15 15 C-15.66 13.02 -16.32 11.04 -17 9 C-11.39 6.03 -5.78 3.06 0 0 Z " fill="white" transform="translate(383,214)"/>
<path d="M0 0 C0.33 0 0.66 0 1 0 C1.38964931 7.17243357 1.36952442 12.98487116 -3.48828125 18.7734375 C-13.30043038 28.39648739 -29.3920651 33 -43 33 C-43 30.36 -43 27.72 -43 25 C-42.40687012 24.88519287 -41.81374023 24.77038574 -41.20263672 24.65209961 C-19.00236794 20.66960266 -19.00236794 20.66960266 -2 7 C-1.03678495 4.98409488 -1.03678495 4.98409488 -0.6875 3.125 C-0.460625 2.09375 -0.23375 1.0625 0 0 Z " fill="white" transform="translate(335,253)"/>
<path d="M0 0 C5.39870457 2.04590677 10.17185027 4.87401017 15.125 7.8125 C16.48431641 8.59463867 16.48431641 8.59463867 17.87109375 9.39257812 C26.213934 14.34266334 26.213934 14.34266334 28 19 C28.62805145 22.01560584 28.7697964 24.91527179 29 28 C24.38 28 19.76 28 15 28 C14.46375 26.22625 13.9275 24.4525 13.375 22.625 C10.48120963 13.9538543 6.07495227 6.78965254 0 0 Z " fill="white" transform="translate(136,360)"/>
<path d="M0 0 C2.75006608 -0.0270203 5.49986546 -0.04684883 8.25 -0.0625 C9.02730469 -0.07087891 9.80460937 -0.07925781 10.60546875 -0.08789062 C11.73662109 -0.09272461 11.73662109 -0.09272461 12.890625 -0.09765625 C13.92751465 -0.10551147 13.92751465 -0.10551147 14.98535156 -0.11352539 C17.10426535 0.00587535 18.94924046 0.47190631 21 1 C23.3318318 1.09349326 25.66629991 1.12994428 28 1.125 C29.216875 1.12757813 30.43375 1.13015625 31.6875 1.1328125 C34.79832729 1.12534051 34.79832729 1.12534051 36.93652344 0.49780273 C39.14516647 -0.03502064 41.05905435 -0.1138639 43.328125 -0.09765625 C44.52695313 -0.09282227 44.52695313 -0.09282227 45.75 -0.08789062 C46.575 -0.07951172 47.4 -0.07113281 48.25 -0.0625 C49.09046875 -0.05798828 49.9309375 -0.05347656 50.796875 -0.04882812 C52.86461401 -0.03707961 54.93231624 -0.01914522 57 0 C54.02741249 2.44226673 51.24327468 3.83782665 47.625 5.125 C46.70976563 5.45757812 45.79453125 5.79015625 44.8515625 6.1328125 C29.50932554 10.79853388 14.00161377 8.2393529 0 1 C0 0.67 0 0.34 0 0 Z " fill="white" transform="translate(79,436)"/>
<path d="M0 0 C2.25616894 1.14279862 3.16766392 2.36552821 4.546875 4.47265625 C4.97484375 5.11332031 5.4028125 5.75398438 5.84375 6.4140625 C6.15828125 6.90777344 6.4728125 7.40148437 6.796875 7.91015625 C5.22022755 10.49778374 3.63593447 13.08016644 2.046875 15.66015625 C1.6034375 16.38976562 1.16 17.119375 0.703125 17.87109375 C-1.60844825 21.61040342 -3.77354879 25.07702807 -7.203125 27.91015625 C-7.863125 27.91015625 -8.523125 27.91015625 -9.203125 27.91015625 C-8.873125 19.66015625 -8.543125 11.41015625 -8.203125 2.91015625 C-2.203125 -0.08984375 -2.203125 -0.08984375 0 0 Z " fill="white" transform="translate(330.203125,325.08984375)"/>
<path d="M0 0 C0.33970765 2.49927769 0.67188032 4.99919595 1 7.5 C1.09539062 8.19609375 1.19078125 8.8921875 1.2890625 9.609375 C1.9161622 14.44700129 2.08789528 19.12181196 2 24 C0.68 24 -0.64 24 -2 24 C-2.309375 22.0509375 -2.309375 22.0509375 -2.625 20.0625 C-4.1447295 13.44230846 -7.01424299 8.12568074 -12.6171875 4.13671875 C-14.39551855 3.08130698 -16.19700233 2.06353858 -18.0234375 1.09375 C-18.67570313 0.7328125 -19.32796875 0.371875 -20 0 C-20 -0.33 -20 -0.66 -20 -1 C-12.80798031 -1.88701576 -6.93171463 -2.26613747 0 0 Z " fill="white" transform="translate(208,293)"/>
<path d="M0 0 C0.66 0 1.32 0 2 0 C2.86979461 2.22414609 3.72083184 4.45272592 4.5625 6.6875 C4.80935547 7.31333984 5.05621094 7.93917969 5.31054688 8.58398438 C6.74841632 12.4520557 7.26575069 15.03600233 6 19 C3.6870518 16.6870518 3.50419025 15.52095125 2.875 12.375 C2.70742188 11.55773437 2.53984375 10.74046875 2.3671875 9.8984375 C2.24601562 9.27195312 2.12484375 8.64546875 2 8 C-6.48097474 15.73265344 -11.9753755 25.69417606 -14 37 C-14.33 37 -14.66 37 -15 37 C-15.87855144 23.82172835 -10.30230364 12.54133025 -2.25 2.375 C-1.13625 1.199375 -1.13625 1.199375 0 0 Z " fill="white" transform="translate(392,351)"/>
<path d="M0 0 C0.33 0 0.66 0 1 0 C1.11667875 3.22886009 1.18740546 6.45717445 1.25 9.6875 C1.30027344 11.05551758 1.30027344 11.05551758 1.3515625 12.45117188 C1.41418779 16.7566606 1.41133861 19.29688758 -0.80078125 23.078125 C-3.87475598 25.76444039 -5.94952289 26.071061 -10 26 C-12.80189446 24.23358828 -14.51524911 22.96950178 -16 20 C-16.13415472 17.3276379 -16.04318541 14.67749512 -16 12 C-15.154375 12.845625 -14.30875 13.69125 -13.4375 14.5625 C-10.64200545 16.91310587 -10.17332095 17.00288868 -6.25 16.9375 C-2.94569661 16.26797841 -2.94569661 16.26797841 -1 14 C-0.69940057 11.63490639 -0.50484988 9.25558119 -0.375 6.875 C-0.30023438 5.59367187 -0.22546875 4.31234375 -0.1484375 2.9921875 C-0.09945313 2.00476563 -0.05046875 1.01734375 0 0 Z " fill="white" transform="translate(262,338)"/>
<path d="M0 0 C2.35149746 1.21629179 2.73596682 2.58050885 3.8125 4.9375 C2.17078571 7.44029492 0.52439741 9.93977677 -1.125 12.4375 C-1.59357422 13.15292969 -2.06214844 13.86835938 -2.54492188 14.60546875 C-3.73298488 16.40038408 -4.95736521 18.1711526 -6.1875 19.9375 C-6.5175 19.9375 -6.8475 19.9375 -7.1875 19.9375 C-7.32237595 17.16504986 -7.42150807 14.39912912 -7.5 11.625 C-7.54189453 10.83931641 -7.58378906 10.05363281 -7.62695312 9.24414062 C-7.6739031 7.0374917 -7.66077871 5.09456424 -7.1875 2.9375 C-4.67050586 0.77536077 -3.32578492 -0.09502243 0 0 Z " fill="white" transform="translate(330.1875,325.0625)"/>
<path d="M0 0 C0.639375 0.66 1.27875 1.32 1.9375 2 C5.20390099 5.28528192 8.70971572 8.29293436 12.20703125 11.328125 C12.79871094 11.87984375 13.39039063 12.4315625 14 13 C14 13.33 14 13.66 14 14 C7.90218999 14.22084624 2.78357065 14.01167675 -3 12 C-3.94721072 9.39517051 -4.30222393 7.69325299 -3.17578125 5.109375 C-2.17063275 3.37417127 -1.0893855 1.68359577 0 0 Z " fill="white" transform="translate(124,253)"/>
<path d="M0 0 C3.6762272 0.9190568 5.92477534 1.95486521 9.125 3.875 C9.99382812 4.38804687 10.86265625 4.90109375 11.7578125 5.4296875 C14 7 14 7 16 10 C16.66 9.34 17.32 8.68 18 8 C18 9.65 18 11.3 18 13 C13.38 13 8.76 13 4 13 C2.68 8.71 1.36 4.42 0 0 Z " fill="#ffffff" transform="translate(147,375)"/>
<path d="M0 0 C-1.2684375 1.423125 -1.2684375 1.423125 -2.5625 2.875 C-5.88587626 6.7285339 -8.73702976 10.84447455 -11.58203125 15.05859375 C-12.04996094 15.69925781 -12.51789062 16.33992188 -13 17 C-13.33 17 -13.66 17 -14 17 C-14.76870092 6.28943381 -14.76870092 6.28943381 -12.0625 1.75 C-7.94218162 -0.60446764 -4.63547188 -0.45445803 0 0 Z " fill="white" transform="translate(30,320)"/>
<path d="M0 0 C2.4375 0.375 2.4375 0.375 5 1 C5.33 1.66 5.66 2.32 6 3 C-0.435 3.495 -0.435 3.495 -7 4 C-7.33 3.34 -7.66 2.68 -8 2 C-5.36 2 -2.72 2 0 2 C0 1.34 0 0.68 0 0 Z " fill="white" transform="translate(194,289)"/>
<path d="M0 0 C2.50037734 2.17424117 3.43628586 3.73045798 4 7 C2.68 6.67 1.36 6.34 0 6 C-0.38218767 4.34385343 -0.71395102 2.67542976 -1 1 C-0.67 0.67 -0.34 0.34 0 0 Z " fill="white" transform="translate(365,223)"/>
</svg>