<?xml version="1.0" encoding="UTF-8"?>
<svg xmlns="http://www.w3.org/2000/svg" xmlns:xlink="http://www.w3.org/1999/xlink" width="103px" height="74px" viewBox="0 0 103 74" version="1.1">
<g id="surface1">
<path style=" stroke:none;fill-rule:nonzero;fill:rgb(92.156863%,39.607844%,19.607843%);fill-opacity:1;" d="M 33.808594 15.027344 C 34.804688 15.027344 35.804688 15.027344 36.832031 15.027344 C 36.835938 17.921875 36.839844 20.816406 36.839844 23.710938 C 36.839844 25.054688 36.839844 26.398438 36.84375 27.746094 C 36.84375 28.917969 36.84375 30.089844 36.84375 31.261719 C 36.84375 31.882812 36.84375 32.503906 36.847656 33.121094 C 36.847656 33.707031 36.847656 34.292969 36.847656 34.878906 C 36.847656 35.09375 36.847656 35.304688 36.847656 35.519531 C 36.851562 36.664062 36.832031 37.789062 36.773438 38.925781 C 36.769531 39.027344 36.761719 39.132812 36.757812 39.238281 C 36.628906 41.550781 36.214844 43.632812 35.582031 45.503906 C 35.554688 45.597656 35.523438 45.6875 35.492188 45.78125 C 34.65625 48.09375 33.277344 49.273438 31.976562 49.699219 C 30.28125 50.121094 28.523438 49.507812 27.144531 47.226562 C 25.945312 45.042969 25.292969 41.886719 25.125 38.558594 C 25.042969 34.96875 25.230469 31.347656 26.371094 28.53125 C 27.242188 26.460938 28.417969 24.96875 29.730469 24.78125 C 29.957031 24.761719 30.179688 24.75 30.402344 24.746094 C 30.472656 24.746094 30.546875 24.742188 30.617188 24.742188 C 31.765625 24.769531 32.71875 25.648438 33.542969 27.339844 C 33.675781 27.644531 33.675781 27.644531 33.742188 27.925781 C 33.773438 21.542969 33.773438 21.542969 33.808594 15.027344 Z M 29.269531 31.613281 C 29.226562 31.679688 29.1875 31.75 29.144531 31.820312 C 28.609375 32.835938 28.261719 34.550781 28.203125 36.066406 C 28.195312 36.441406 28.195312 36.8125 28.195312 37.1875 C 28.195312 37.316406 28.195312 37.449219 28.195312 37.585938 C 28.203125 38.53125 28.246094 39.378906 28.414062 40.261719 C 28.445312 40.4375 28.445312 40.4375 28.480469 40.617188 C 28.777344 42.074219 29.246094 43.136719 29.921875 43.785156 C 30.621094 44.335938 31.316406 44.351562 32.023438 43.796875 C 32.742188 43.074219 33.195312 41.964844 33.496094 40.378906 C 33.839844 38.226562 33.871094 35.933594 33.445312 33.820312 C 33.054688 32.144531 32.585938 31.171875 31.769531 30.515625 C 30.886719 29.945312 29.976562 30.398438 29.269531 31.613281 Z M 29.269531 31.613281 "/>
<path style=" stroke:none;fill-rule:nonzero;fill:rgb(92.156863%,39.607844%,19.607843%);fill-opacity:1;" d="M 12.761719 25.375 C 13.738281 25.375 14.714844 25.375 15.71875 25.375 C 15.792969 25.699219 15.792969 25.878906 15.792969 26.238281 C 15.792969 26.359375 15.792969 26.480469 15.792969 26.605469 C 15.792969 26.742188 15.792969 26.875 15.792969 27.011719 C 15.796875 27.152344 15.796875 27.292969 15.796875 27.4375 C 15.796875 27.742188 15.796875 28.046875 15.796875 28.355469 C 15.796875 28.839844 15.796875 29.324219 15.800781 29.808594 C 15.800781 31.1875 15.804688 32.5625 15.808594 33.941406 C 15.808594 34.785156 15.808594 35.625 15.8125 36.46875 C 15.8125 36.789062 15.8125 37.109375 15.8125 37.429688 C 15.8125 37.878906 15.816406 38.328125 15.816406 38.78125 C 15.816406 38.910156 15.816406 39.042969 15.816406 39.179688 C 15.824219 40.53125 16.074219 41.691406 16.507812 42.671875 C 17.082031 43.695312 17.652344 44.179688 18.402344 44.058594 C 18.835938 43.917969 19.171875 43.613281 19.535156 43.097656 C 19.621094 42.972656 19.621094 42.972656 19.710938 42.847656 C 20.191406 41.839844 20.453125 40.570312 20.480469 39.121094 C 20.484375 38.867188 20.484375 38.617188 20.484375 38.363281 C 20.484375 38.222656 20.484375 38.082031 20.484375 37.9375 C 20.484375 37.484375 20.488281 37.027344 20.488281 36.570312 C 20.488281 36.25 20.488281 35.933594 20.488281 35.613281 C 20.492188 34.777344 20.496094 33.945312 20.496094 33.109375 C 20.496094 31.769531 20.5 30.425781 20.507812 29.085938 C 20.507812 28.617188 20.507812 28.148438 20.507812 27.679688 C 20.507812 27.394531 20.511719 27.109375 20.511719 26.824219 C 20.511719 26.695312 20.511719 26.5625 20.511719 26.429688 C 20.511719 25.535156 20.511719 25.535156 20.585938 25.375 C 20.675781 25.363281 20.769531 25.355469 20.859375 25.355469 C 20.917969 25.355469 20.972656 25.355469 21.035156 25.355469 C 21.097656 25.355469 21.160156 25.355469 21.222656 25.355469 C 21.289062 25.355469 21.351562 25.355469 21.417969 25.355469 C 21.554688 25.355469 21.6875 25.355469 21.824219 25.355469 C 22.03125 25.359375 22.242188 25.355469 22.449219 25.355469 C 22.582031 25.355469 22.710938 25.355469 22.84375 25.355469 C 22.90625 25.355469 22.96875 25.355469 23.035156 25.355469 C 23.089844 25.355469 23.148438 25.355469 23.207031 25.355469 C 23.261719 25.355469 23.3125 25.355469 23.363281 25.359375 C 23.480469 25.375 23.480469 25.375 23.546875 25.515625 C 23.554688 25.707031 23.554688 25.894531 23.554688 26.085938 C 23.554688 26.207031 23.554688 26.332031 23.558594 26.457031 C 23.558594 26.660156 23.558594 26.660156 23.558594 26.867188 C 23.558594 27.011719 23.558594 27.152344 23.558594 27.296875 C 23.558594 27.773438 23.558594 28.246094 23.558594 28.71875 C 23.558594 29.046875 23.5625 29.375 23.5625 29.703125 C 23.5625 30.394531 23.5625 31.085938 23.5625 31.777344 C 23.5625 32.660156 23.5625 33.542969 23.566406 34.425781 C 23.566406 35.105469 23.566406 35.785156 23.566406 36.464844 C 23.566406 36.789062 23.570312 37.117188 23.570312 37.441406 C 23.578125 41.015625 23.308594 44.136719 22.105469 46.796875 C 21.457031 48.148438 20.617188 49.015625 19.730469 49.332031 C 19.710938 52.375 19.6875 55.414062 19.667969 58.546875 C 19.515625 58.707031 19.433594 58.707031 19.269531 58.710938 C 19.214844 58.710938 19.160156 58.710938 19.101562 58.714844 C 19.042969 58.714844 18.984375 58.714844 18.921875 58.714844 C 18.859375 58.714844 18.800781 58.714844 18.738281 58.714844 C 18.609375 58.714844 18.480469 58.714844 18.351562 58.714844 C 18.152344 58.714844 17.957031 58.71875 17.757812 58.722656 C 17.632812 58.722656 17.507812 58.722656 17.382812 58.722656 C 17.324219 58.722656 17.265625 58.722656 17.203125 58.726562 C 17.148438 58.726562 17.09375 58.722656 17.039062 58.722656 C 16.988281 58.722656 16.941406 58.722656 16.890625 58.726562 C 16.773438 58.691406 16.773438 58.691406 16.640625 58.40625 C 16.621094 58.03125 16.621094 58.03125 16.621094 57.554688 C 16.617188 57.375 16.617188 57.195312 16.617188 57.011719 C 16.613281 56.816406 16.613281 56.621094 16.613281 56.425781 C 16.613281 56.226562 16.609375 56.023438 16.609375 55.824219 C 16.605469 55.300781 16.601562 54.773438 16.601562 54.246094 C 16.597656 53.710938 16.59375 53.171875 16.589844 52.636719 C 16.585938 51.582031 16.578125 50.527344 16.574219 49.476562 C 16.496094 49.421875 16.414062 49.367188 16.332031 49.308594 C 16.226562 49.234375 16.121094 49.160156 16.011719 49.085938 C 15.960938 49.050781 15.910156 49.015625 15.855469 48.976562 C 14.71875 48.179688 13.820312 46.425781 13.265625 44.171875 C 12.914062 42.554688 12.75 41.09375 12.753906 39.3125 C 12.753906 39.160156 12.753906 39.011719 12.753906 38.855469 C 12.753906 38.359375 12.753906 37.863281 12.753906 37.363281 C 12.753906 37.019531 12.753906 36.675781 12.753906 36.328125 C 12.753906 35.421875 12.753906 34.515625 12.753906 33.605469 C 12.757812 32.679688 12.757812 31.753906 12.757812 30.828125 C 12.757812 29.007812 12.757812 27.191406 12.761719 25.375 Z M 12.761719 25.375 "/>
<path style=" stroke:none;fill-rule:nonzero;fill:rgb(95.294118%,57.254905%,13.725491%);fill-opacity:1;" d="M 88.859375 25.800781 C 89.835938 25.800781 90.8125 25.800781 91.820312 25.800781 C 91.878906 26.191406 91.894531 26.417969 91.894531 26.816406 C 91.894531 26.9375 91.894531 27.058594 91.894531 27.183594 C 91.894531 27.3125 91.894531 27.445312 91.894531 27.582031 C 91.894531 27.71875 91.894531 27.859375 91.894531 28.003906 C 91.894531 28.304688 91.894531 28.609375 91.894531 28.910156 C 91.894531 29.390625 91.898438 29.867188 91.898438 30.347656 C 91.902344 31.710938 91.90625 33.074219 91.90625 34.433594 C 91.90625 35.269531 91.910156 36.101562 91.910156 36.933594 C 91.910156 37.25 91.914062 37.570312 91.914062 37.886719 C 91.910156 38.332031 91.914062 38.777344 91.914062 39.21875 C 91.914062 39.351562 91.914062 39.480469 91.914062 39.613281 C 91.921875 41 92.191406 42.066406 92.609375 43.097656 C 93.09375 44.085938 93.660156 44.429688 94.316406 44.511719 C 94.820312 44.457031 95.214844 44.117188 95.632812 43.519531 C 95.722656 43.398438 95.722656 43.398438 95.808594 43.273438 C 96.292969 42.265625 96.550781 40.992188 96.578125 39.546875 C 96.582031 39.292969 96.582031 39.039062 96.582031 38.789062 C 96.582031 38.648438 96.582031 38.507812 96.582031 38.363281 C 96.585938 37.90625 96.585938 37.453125 96.585938 36.996094 C 96.585938 36.675781 96.585938 36.359375 96.589844 36.039062 C 96.589844 35.203125 96.59375 34.371094 96.59375 33.535156 C 96.597656 32.191406 96.601562 30.851562 96.605469 29.511719 C 96.605469 29.042969 96.605469 28.574219 96.609375 28.105469 C 96.609375 27.820312 96.609375 27.535156 96.609375 27.25 C 96.609375 27.121094 96.609375 26.988281 96.609375 26.851562 C 96.613281 25.957031 96.613281 25.957031 96.6875 25.800781 C 96.777344 25.785156 96.867188 25.78125 96.957031 25.78125 C 97.015625 25.78125 97.074219 25.78125 97.132812 25.78125 C 97.195312 25.78125 97.257812 25.78125 97.324219 25.78125 C 97.386719 25.78125 97.449219 25.78125 97.515625 25.78125 C 97.652344 25.78125 97.789062 25.78125 97.921875 25.78125 C 98.132812 25.78125 98.339844 25.78125 98.546875 25.78125 C 98.679688 25.78125 98.8125 25.78125 98.941406 25.78125 C 99.003906 25.78125 99.066406 25.78125 99.132812 25.78125 C 99.191406 25.78125 99.25 25.78125 99.308594 25.78125 C 99.359375 25.78125 99.410156 25.78125 99.460938 25.78125 C 99.578125 25.800781 99.578125 25.800781 99.644531 25.941406 C 99.652344 26.132812 99.65625 26.320312 99.65625 26.511719 C 99.65625 26.632812 99.65625 26.757812 99.65625 26.882812 C 99.65625 27.085938 99.65625 27.085938 99.65625 27.292969 C 99.65625 27.433594 99.65625 27.578125 99.65625 27.722656 C 99.65625 28.195312 99.660156 28.667969 99.660156 29.144531 C 99.660156 29.472656 99.660156 29.800781 99.660156 30.128906 C 99.660156 30.820312 99.660156 31.511719 99.660156 32.203125 C 99.660156 33.085938 99.664062 33.96875 99.664062 34.851562 C 99.667969 35.53125 99.667969 36.210938 99.667969 36.890625 C 99.667969 37.214844 99.667969 37.539062 99.667969 37.867188 C 99.675781 41.441406 99.410156 44.5625 98.207031 47.222656 C 97.558594 48.574219 96.714844 49.441406 95.832031 49.757812 C 95.808594 52.800781 95.789062 55.839844 95.765625 58.972656 C 95.617188 59.132812 95.53125 59.132812 95.367188 59.136719 C 95.3125 59.136719 95.257812 59.136719 95.199219 59.136719 C 95.140625 59.136719 95.082031 59.136719 95.019531 59.140625 C 94.960938 59.140625 94.898438 59.140625 94.835938 59.140625 C 94.707031 59.140625 94.578125 59.140625 94.449219 59.140625 C 94.253906 59.140625 94.054688 59.144531 93.859375 59.148438 C 93.734375 59.148438 93.609375 59.148438 93.484375 59.148438 C 93.425781 59.148438 93.363281 59.148438 93.304688 59.152344 C 93.25 59.148438 93.195312 59.148438 93.136719 59.148438 C 93.089844 59.148438 93.039062 59.148438 92.992188 59.148438 C 92.871094 59.113281 92.871094 59.113281 92.738281 58.832031 C 92.722656 58.453125 92.722656 58.453125 92.71875 57.964844 C 92.71875 57.785156 92.714844 57.601562 92.714844 57.414062 C 92.714844 57.21875 92.714844 57.019531 92.710938 56.820312 C 92.710938 56.617188 92.710938 56.414062 92.707031 56.210938 C 92.703125 55.675781 92.703125 55.140625 92.699219 54.605469 C 92.699219 54.0625 92.695312 53.515625 92.691406 52.96875 C 92.683594 51.898438 92.679688 50.828125 92.671875 49.757812 C 92.601562 49.738281 92.53125 49.71875 92.457031 49.699219 C 91.378906 49.339844 90.46875 47.832031 89.78125 46.074219 C 89.148438 44.183594 88.847656 42.054688 88.851562 39.738281 C 88.851562 39.585938 88.851562 39.4375 88.851562 39.28125 C 88.851562 38.785156 88.851562 38.285156 88.851562 37.789062 C 88.851562 37.445312 88.851562 37.097656 88.851562 36.753906 C 88.851562 35.847656 88.855469 34.9375 88.855469 34.03125 C 88.855469 33.105469 88.855469 32.179688 88.855469 31.253906 C 88.855469 29.433594 88.859375 27.617188 88.859375 25.800781 Z M 88.859375 25.800781 "/>
<path style=" stroke:none;fill-rule:nonzero;fill:rgb(95.294118%,57.647061%,14.117648%);fill-opacity:1;" d="M 71.757812 25.660156 C 71.828125 25.707031 71.902344 25.753906 71.972656 25.800781 C 73.261719 26.753906 74.324219 28.742188 74.9375 31.351562 C 75.371094 33.300781 75.585938 35.335938 75.582031 37.5 C 75.582031 37.628906 75.582031 37.761719 75.582031 37.898438 C 75.582031 38.328125 75.578125 38.761719 75.578125 39.191406 C 75.578125 39.492188 75.578125 39.792969 75.578125 40.09375 C 75.578125 40.882812 75.578125 41.671875 75.578125 42.460938 C 75.578125 43.410156 75.578125 44.355469 75.574219 45.304688 C 75.574219 46.742188 75.574219 48.179688 75.574219 49.617188 C 74.574219 49.617188 73.574219 49.617188 72.546875 49.617188 C 72.527344 48.449219 72.503906 47.277344 72.480469 46.074219 C 72.371094 46.421875 72.371094 46.421875 72.253906 46.78125 C 71.632812 48.605469 70.8125 49.71875 69.773438 50.121094 C 68.3125 50.480469 67.003906 49.914062 65.839844 47.914062 C 64.664062 45.773438 64.058594 42.617188 63.882812 39.375 C 63.875 39.148438 63.867188 38.925781 63.867188 38.699219 C 63.863281 38.5625 63.859375 38.425781 63.855469 38.285156 C 63.820312 34.472656 64.363281 31.191406 65.582031 28.414062 C 67.125 25.167969 69.734375 24.296875 71.757812 25.660156 Z M 67.664062 32.792969 C 67.019531 34.519531 66.859375 36.691406 66.957031 38.84375 C 67.046875 40.160156 67.253906 41.304688 67.613281 42.386719 C 67.660156 42.535156 67.710938 42.683594 67.757812 42.839844 C 68.347656 44.105469 69.03125 44.628906 69.851562 44.65625 C 70.578125 44.5625 71.226562 43.980469 71.722656 42.804688 C 72.449219 40.835938 72.589844 38.59375 72.480469 36.148438 C 72.335938 34.402344 71.933594 32.882812 71.296875 31.753906 C 70.105469 29.984375 68.625 30.566406 67.664062 32.792969 Z M 67.664062 32.792969 "/>
<path style=" stroke:none;fill-rule:nonzero;fill:rgb(95.294118%,57.647061%,14.117648%);fill-opacity:1;" d="M 60.992188 27.074219 C 62.210938 29.050781 62.703125 31.9375 62.984375 35.046875 C 63.023438 35.875 63.019531 36.699219 63.019531 37.53125 C 63.019531 37.707031 63.019531 37.878906 63.019531 38.058594 C 63.019531 38.3125 63.019531 38.3125 63.019531 38.566406 C 63.019531 38.71875 63.019531 38.871094 63.019531 39.027344 C 63.011719 39.410156 63.011719 39.410156 62.945312 39.835938 C 60.492188 39.835938 58.039062 39.835938 55.511719 39.835938 C 55.945312 41.695312 56.21875 42.6875 57.109375 43.410156 C 57.761719 43.867188 58.375 43.96875 59.058594 43.992188 C 59.132812 43.996094 59.207031 43.996094 59.28125 44 C 59.515625 44.007812 59.75 44.019531 59.984375 44.027344 C 60.144531 44.03125 60.304688 44.039062 60.460938 44.042969 C 60.851562 44.058594 61.238281 44.074219 61.628906 44.089844 C 61.628906 45.914062 61.628906 47.738281 61.628906 49.617188 C 61.136719 49.625 60.640625 49.632812 60.148438 49.640625 C 59.917969 49.640625 59.6875 49.644531 59.457031 49.648438 C 57.449219 49.691406 55.457031 49.375 53.929688 46.214844 C 53.84375 46.027344 53.757812 45.839844 53.671875 45.648438 C 53.625 45.554688 53.582031 45.460938 53.539062 45.367188 C 52.46875 42.941406 52.253906 39.773438 52.269531 36.566406 C 52.304688 33.839844 52.734375 31.316406 53.539062 29.203125 C 53.59375 29.054688 53.59375 29.054688 53.648438 28.902344 C 55.335938 24.394531 58.855469 24 60.992188 27.074219 Z M 56.628906 31.1875 C 56.589844 31.234375 56.546875 31.28125 56.503906 31.328125 C 55.910156 32.101562 55.664062 33.570312 55.488281 34.9375 C 55.445312 35.257812 55.445312 35.257812 55.445312 35.441406 C 56.945312 35.441406 58.441406 35.441406 59.984375 35.441406 C 59.902344 33.867188 59.757812 32.644531 59.203125 31.558594 C 58.464844 30.339844 57.441406 30.222656 56.628906 31.1875 Z M 56.628906 31.1875 "/>
<path style=" stroke:none;fill-rule:nonzero;fill:rgb(92.156863%,39.607844%,19.607843%);fill-opacity:1;" d="M 46.832031 26.367188 C 47.117188 26.839844 47.367188 27.375 47.621094 27.925781 C 47.664062 28.015625 47.707031 28.105469 47.753906 28.199219 C 48.625 30.121094 49.007812 33.382812 49.007812 36 C 49.007812 36.183594 49.007812 36.363281 49.007812 36.550781 C 49.007812 36.738281 49.007812 36.921875 49.007812 37.113281 C 49.007812 37.304688 49.007812 37.496094 49.007812 37.6875 C 49.007812 37.957031 49.007812 37.957031 49.007812 38.234375 C 49.007812 38.398438 49.007812 38.5625 49.007812 38.734375 C 49 39.125 49 39.125 48.933594 39.410156 C 46.503906 39.457031 44.074219 39.503906 41.566406 39.550781 C 42.039062 41.585938 42.382812 42.46875 43.359375 43.207031 C 43.925781 43.539062 44.523438 43.546875 45.109375 43.566406 C 45.179688 43.570312 45.253906 43.570312 45.328125 43.574219 C 45.554688 43.585938 45.785156 43.59375 46.011719 43.601562 C 46.167969 43.605469 46.324219 43.613281 46.480469 43.621094 C 46.859375 43.632812 47.238281 43.648438 47.621094 43.664062 C 47.621094 45.488281 47.621094 47.3125 47.621094 49.191406 C 47.125 49.199219 46.632812 49.210938 46.136719 49.214844 C 45.910156 49.214844 45.679688 49.21875 45.449219 49.222656 C 43.390625 49.265625 41.429688 48.875 39.867188 45.6875 C 39.089844 44.03125 38.566406 42.003906 38.34375 39.695312 C 38.328125 39.511719 38.328125 39.511719 38.308594 39.324219 C 38.101562 35.902344 38.347656 32.148438 39.332031 29.34375 C 39.519531 28.847656 39.714844 28.382812 39.925781 27.925781 C 39.972656 27.816406 40.023438 27.707031 40.074219 27.59375 C 41.75 24.097656 44.890625 23.648438 46.832031 26.367188 Z M 42.09375 31.753906 C 41.722656 32.742188 41.503906 33.734375 41.503906 35.015625 C 42.976562 35.015625 44.453125 35.015625 45.976562 35.015625 C 45.902344 33.464844 45.75 32.316406 45.25 31.1875 C 44.289062 29.523438 42.910156 29.835938 42.09375 31.753906 Z M 42.09375 31.753906 "/>
<path style=" stroke:none;fill-rule:nonzero;fill:rgb(95.294118%,57.254905%,13.725491%);fill-opacity:1;" d="M 80.75 25.785156 C 80.808594 25.785156 80.867188 25.785156 80.925781 25.785156 C 81.113281 25.785156 81.300781 25.785156 81.488281 25.785156 C 81.621094 25.789062 81.75 25.789062 81.882812 25.789062 C 82.226562 25.789062 82.570312 25.789062 82.914062 25.792969 C 83.324219 25.792969 83.738281 25.792969 84.152344 25.792969 C 84.777344 25.796875 85.402344 25.796875 86.03125 25.800781 C 86.03125 27.625 86.03125 29.449219 86.03125 31.328125 C 85.664062 31.332031 85.300781 31.335938 84.921875 31.339844 C 84.691406 31.34375 84.457031 31.347656 84.226562 31.351562 C 83.859375 31.359375 83.488281 31.367188 83.121094 31.367188 C 82.824219 31.371094 82.527344 31.375 82.230469 31.382812 C 82.117188 31.382812 82.003906 31.386719 81.890625 31.386719 C 81.734375 31.386719 81.574219 31.390625 81.417969 31.394531 C 81.371094 31.394531 81.324219 31.390625 81.273438 31.390625 C 80.945312 31.40625 80.757812 31.59375 80.503906 32.039062 C 80.390625 32.53125 80.398438 33.0625 80.441406 33.597656 C 80.582031 33.988281 80.695312 34.226562 80.898438 34.449219 C 80.992188 34.460938 81.085938 34.46875 81.175781 34.46875 C 81.234375 34.472656 81.292969 34.472656 81.351562 34.476562 C 81.445312 34.476562 81.445312 34.476562 81.539062 34.476562 C 81.671875 34.480469 81.804688 34.484375 81.9375 34.492188 C 82.148438 34.496094 82.355469 34.5 82.566406 34.503906 C 83.890625 34.53125 85.277344 34.617188 86.292969 36.714844 C 87.070312 38.550781 87.140625 40.789062 87.097656 43.160156 C 87.035156 44.910156 86.542969 46.582031 85.964844 47.773438 C 85.226562 49.125 84.390625 49.640625 83.4375 49.632812 C 83.378906 49.632812 83.316406 49.632812 83.253906 49.632812 C 83.054688 49.632812 82.851562 49.632812 82.652344 49.628906 C 82.511719 49.628906 82.371094 49.628906 82.234375 49.628906 C 81.867188 49.628906 81.5 49.628906 81.132812 49.625 C 80.757812 49.625 80.386719 49.625 80.011719 49.625 C 79.277344 49.621094 78.542969 49.621094 77.808594 49.617188 C 77.808594 47.792969 77.808594 45.96875 77.808594 44.089844 C 78.199219 44.082031 78.59375 44.078125 78.996094 44.070312 C 79.246094 44.066406 79.496094 44.0625 79.742188 44.058594 C 80.140625 44.050781 80.535156 44.042969 80.929688 44.039062 C 81.246094 44.035156 81.566406 44.03125 81.882812 44.023438 C 82.003906 44.019531 82.128906 44.019531 82.25 44.019531 C 82.417969 44.015625 82.589844 44.011719 82.757812 44.007812 C 82.832031 44.007812 82.832031 44.007812 82.910156 44.007812 C 83.265625 43.996094 83.605469 43.871094 83.925781 43.519531 C 84.066406 42.972656 84.09375 42.441406 84.058594 41.820312 C 83.914062 41.1875 83.773438 40.890625 83.472656 40.628906 C 83.207031 40.464844 82.9375 40.488281 82.664062 40.492188 C 82.53125 40.488281 82.402344 40.488281 82.269531 40.484375 C 82.066406 40.484375 81.859375 40.480469 81.65625 40.480469 C 80.390625 40.480469 79.09375 40.332031 78.136719 38.277344 C 77.445312 36.496094 77.289062 34.449219 77.347656 32.179688 C 77.484375 30.15625 77.96875 28.511719 78.695312 27.210938 C 79.335938 26.191406 79.957031 25.777344 80.75 25.785156 Z M 80.75 25.785156 "/>
<path style=" stroke:none;fill-rule:nonzero;fill:rgb(92.156863%,39.215687%,19.215687%);fill-opacity:1;" d="M 8.757812 25.320312 C 8.886719 25.320312 8.886719 25.320312 9.015625 25.324219 C 9.238281 25.324219 9.460938 25.332031 9.683594 25.335938 C 9.914062 25.34375 10.140625 25.34375 10.371094 25.347656 C 10.816406 25.355469 11.261719 25.363281 11.707031 25.375 C 11.707031 27.199219 11.707031 29.023438 11.707031 30.902344 C 11.511719 30.910156 11.316406 30.917969 11.113281 30.925781 C 10.921875 30.933594 10.730469 30.941406 10.542969 30.949219 C 10.410156 30.953125 10.277344 30.960938 10.144531 30.964844 C 9.957031 30.96875 9.765625 30.980469 9.574219 30.988281 C 9.515625 30.988281 9.457031 30.992188 9.394531 30.992188 C 9.339844 30.996094 9.285156 30.996094 9.230469 31 C 9.179688 31.003906 9.132812 31.003906 9.082031 31.007812 C 8.917969 31.054688 8.816406 31.136719 8.683594 31.328125 C 8.554688 31.769531 8.535156 32.109375 8.53125 32.621094 C 8.53125 32.769531 8.53125 32.914062 8.53125 33.066406 C 8.53125 33.222656 8.53125 33.382812 8.53125 33.546875 C 8.527344 33.800781 8.527344 33.800781 8.527344 34.058594 C 8.527344 34.523438 8.523438 34.984375 8.523438 35.445312 C 8.523438 35.929688 8.519531 36.414062 8.519531 36.894531 C 8.515625 37.8125 8.515625 38.726562 8.511719 39.640625 C 8.507812 40.683594 8.507812 41.722656 8.503906 42.765625 C 8.496094 44.90625 8.488281 47.050781 8.484375 49.191406 C 7.484375 49.191406 6.488281 49.191406 5.460938 49.191406 C 5.453125 46.816406 5.449219 44.445312 5.449219 42.070312 C 5.449219 40.96875 5.445312 39.867188 5.445312 38.765625 C 5.441406 37.804688 5.441406 36.84375 5.441406 35.878906 C 5.441406 35.371094 5.441406 34.863281 5.4375 34.355469 C 5.4375 33.785156 5.4375 33.214844 5.4375 32.648438 C 5.4375 32.480469 5.433594 32.316406 5.433594 32.144531 C 5.4375 30.207031 5.652344 28.476562 6.269531 27.023438 C 6.964844 25.589844 7.824219 25.285156 8.757812 25.320312 Z M 8.757812 25.320312 "/>
<path style=" stroke:none;fill-rule:nonzero;fill:rgb(19.607843%,19.215687%,19.607843%);fill-opacity:1;" d="M 92.738281 49.757812 C 93.757812 49.757812 94.78125 49.757812 95.832031 49.757812 C 95.808594 52.800781 95.789062 55.839844 95.765625 58.972656 C 95.617188 59.132812 95.53125 59.132812 95.367188 59.136719 C 95.3125 59.136719 95.257812 59.136719 95.199219 59.136719 C 95.140625 59.136719 95.082031 59.136719 95.019531 59.140625 C 94.960938 59.140625 94.898438 59.140625 94.835938 59.140625 C 94.707031 59.140625 94.578125 59.140625 94.449219 59.140625 C 94.253906 59.140625 94.054688 59.144531 93.859375 59.148438 C 93.734375 59.148438 93.609375 59.148438 93.484375 59.148438 C 93.425781 59.148438 93.363281 59.148438 93.304688 59.152344 C 93.222656 59.148438 93.222656 59.148438 93.136719 59.148438 C 93.089844 59.148438 93.039062 59.148438 92.992188 59.148438 C 92.871094 59.113281 92.871094 59.113281 92.738281 58.832031 C 92.722656 58.453125 92.722656 58.453125 92.722656 57.964844 C 92.722656 57.785156 92.722656 57.601562 92.722656 57.414062 C 92.726562 57.21875 92.726562 57.019531 92.726562 56.820312 C 92.726562 56.617188 92.726562 56.414062 92.726562 56.210938 C 92.726562 55.675781 92.730469 55.140625 92.730469 54.605469 C 92.730469 53.964844 92.734375 53.324219 92.734375 52.683594 C 92.734375 51.707031 92.738281 50.734375 92.738281 49.757812 Z M 92.738281 49.757812 "/>
<path style=" stroke:none;fill-rule:nonzero;fill:rgb(14.901961%,14.901961%,14.901961%);fill-opacity:1;" d="M 77.648438 54.710938 C 77.726562 54.714844 77.726562 54.714844 77.808594 54.71875 C 77.96875 55.664062 78.078125 56.613281 78.179688 57.589844 C 78.238281 58.152344 78.238281 58.152344 78.335938 58.691406 C 78.507812 57.566406 78.683594 56.445312 78.863281 55.289062 C 79.257812 55.144531 79.257812 55.144531 79.386719 55.289062 C 79.445312 55.566406 79.445312 55.566406 79.5 55.933594 C 79.523438 56.0625 79.542969 56.195312 79.5625 56.332031 C 79.582031 56.46875 79.605469 56.605469 79.625 56.75 C 79.65625 56.953125 79.65625 56.953125 79.691406 57.164062 C 79.78125 57.753906 79.847656 58.203125 79.847656 58.832031 C 79.890625 58.832031 79.933594 58.832031 79.980469 58.832031 C 79.988281 58.699219 79.996094 58.570312 80 58.4375 C 80.050781 57.6875 80.132812 56.953125 80.214844 56.21875 C 80.238281 56 80.238281 56 80.261719 55.78125 C 80.296875 55.425781 80.335938 55.074219 80.375 54.71875 C 80.503906 54.71875 80.632812 54.71875 80.769531 54.71875 C 80.878906 55.433594 80.78125 56.015625 80.691406 56.714844 C 80.667969 56.890625 80.667969 56.890625 80.644531 57.074219 C 80.351562 59.351562 80.351562 59.351562 80.175781 60.105469 C 80.003906 60.105469 79.828125 60.105469 79.652344 60.105469 C 79.476562 58.984375 79.304688 57.863281 79.125 56.703125 C 78.953125 57.773438 78.953125 57.773438 78.785156 58.839844 C 78.761719 58.96875 78.742188 59.101562 78.71875 59.238281 C 78.699219 59.375 78.675781 59.511719 78.652344 59.648438 C 78.597656 59.964844 78.597656 59.964844 78.53125 60.105469 C 78.378906 60.113281 78.226562 60.113281 78.070312 60.105469 C 77.855469 59.152344 77.714844 58.195312 77.59375 57.164062 C 77.578125 57.023438 77.558594 56.878906 77.542969 56.730469 C 77.394531 55.511719 77.394531 55.511719 77.414062 54.863281 C 77.480469 54.71875 77.480469 54.71875 77.648438 54.710938 Z M 77.648438 54.710938 "/>
<path style=" stroke:none;fill-rule:nonzero;fill:rgb(15.294118%,15.294118%,15.294118%);fill-opacity:1;" d="M 59.917969 52.734375 C 60.070312 52.734375 60.222656 52.734375 60.378906 52.734375 C 60.457031 53.0625 60.453125 53.261719 60.457031 53.625 C 60.457031 53.75 60.460938 53.875 60.460938 54.003906 C 60.464844 54.578125 60.464844 55.152344 60.46875 55.726562 C 60.46875 56.03125 60.472656 56.332031 60.472656 56.636719 C 60.476562 57.070312 60.480469 57.507812 60.480469 57.945312 C 60.480469 58.078125 60.484375 58.214844 60.484375 58.351562 C 60.484375 59.007812 60.480469 59.300781 60.289062 59.835938 C 60.015625 60.261719 59.800781 60.273438 59.472656 60.285156 C 59.351562 60.289062 59.351562 60.289062 59.230469 60.296875 C 58.878906 60.226562 58.671875 59.96875 58.421875 59.441406 C 58.132812 58.621094 58.117188 57.738281 58.179688 56.75 C 58.261719 55.839844 58.464844 55.390625 58.800781 54.863281 C 59.015625 54.710938 59.171875 54.703125 59.398438 54.703125 C 59.464844 54.703125 59.535156 54.703125 59.609375 54.703125 C 59.789062 54.71875 59.789062 54.71875 59.917969 54.863281 C 59.917969 54.160156 59.917969 53.457031 59.917969 52.734375 Z M 58.800781 56.136719 C 58.609375 56.804688 58.636719 57.507812 58.667969 58.265625 C 58.773438 58.804688 58.902344 59.089844 59.128906 59.398438 C 59.296875 59.453125 59.296875 59.453125 59.464844 59.433594 C 59.550781 59.429688 59.550781 59.429688 59.640625 59.425781 C 59.789062 59.417969 59.789062 59.417969 59.917969 59.257812 C 59.925781 58.695312 59.929688 58.132812 59.929688 57.574219 C 59.933594 57.414062 59.933594 57.253906 59.9375 57.089844 C 59.9375 56.9375 59.9375 56.785156 59.9375 56.625 C 59.9375 56.484375 59.941406 56.34375 59.941406 56.199219 C 59.933594 56.085938 59.925781 55.972656 59.917969 55.855469 C 59.535156 55.304688 59.113281 55.402344 58.800781 56.136719 Z M 58.800781 56.136719 "/>
<path style=" stroke:none;fill-rule:nonzero;fill:rgb(10.588235%,10.588235%,10.588235%);fill-opacity:1;" d="M 81.359375 52.734375 C 81.492188 52.734375 81.621094 52.734375 81.753906 52.734375 C 81.882812 53.011719 81.847656 53.511719 81.859375 53.878906 C 81.863281 54.0625 81.871094 54.246094 81.875 54.433594 C 81.878906 54.574219 81.882812 54.714844 81.886719 54.863281 C 81.953125 54.816406 82.015625 54.769531 82.085938 54.71875 C 82.449219 54.652344 82.769531 54.617188 83.109375 54.949219 C 83.339844 55.441406 83.453125 55.898438 83.488281 56.597656 C 83.488281 56.839844 83.488281 56.839844 83.484375 57.089844 C 83.484375 57.355469 83.484375 57.355469 83.484375 57.625 C 83.480469 57.804688 83.480469 57.988281 83.476562 58.175781 C 83.476562 58.453125 83.476562 58.453125 83.476562 58.738281 C 83.472656 59.195312 83.46875 59.652344 83.464844 60.105469 C 83.335938 60.113281 83.203125 60.113281 83.070312 60.105469 C 82.957031 59.863281 82.992188 59.53125 82.988281 59.195312 C 82.988281 59.039062 82.984375 58.882812 82.980469 58.722656 C 82.976562 58.390625 82.972656 58.054688 82.972656 57.722656 C 82.96875 57.488281 82.96875 57.488281 82.964844 57.246094 C 82.960938 57.101562 82.960938 56.957031 82.960938 56.808594 C 82.9375 56.417969 82.90625 56.183594 82.808594 55.855469 C 82.652344 55.6875 82.554688 55.6875 82.382812 55.6875 C 82.332031 55.683594 82.28125 55.683594 82.226562 55.679688 C 82.066406 55.691406 82.066406 55.691406 81.886719 55.996094 C 81.851562 56.421875 81.851562 56.421875 81.851562 56.921875 C 81.851562 57.109375 81.847656 57.292969 81.847656 57.484375 C 81.84375 57.679688 81.84375 57.875 81.839844 58.070312 C 81.839844 58.265625 81.835938 58.464844 81.835938 58.660156 C 81.828125 59.140625 81.824219 59.625 81.820312 60.105469 C 81.667969 60.105469 81.515625 60.105469 81.359375 60.105469 C 81.359375 57.675781 81.359375 55.242188 81.359375 52.734375 Z M 81.359375 52.734375 "/>
<path style=" stroke:none;fill-rule:nonzero;fill:rgb(12.941177%,12.941177%,12.941177%);fill-opacity:1;" d="M 90.445312 54.8125 C 90.746094 55.136719 90.925781 55.605469 91.03125 56.28125 C 91.046875 56.671875 91.042969 57.019531 91.03125 57.414062 C 90.746094 57.636719 90.476562 57.765625 90.179688 57.855469 C 90.101562 57.878906 90.023438 57.90625 89.945312 57.929688 C 89.714844 57.980469 89.488281 57.988281 89.253906 57.980469 C 89.371094 58.558594 89.460938 58.933594 89.714844 59.257812 C 90.097656 59.371094 90.472656 59.304688 90.832031 58.972656 C 90.875 59.160156 90.917969 59.347656 90.964844 59.539062 C 90.753906 60.023438 90.628906 60.226562 90.316406 60.28125 C 89.753906 60.308594 89.378906 60.210938 88.964844 59.363281 C 88.703125 58.402344 88.691406 57.488281 88.792969 56.421875 C 88.917969 55.675781 89.09375 55.320312 89.386719 54.863281 C 89.722656 54.621094 90.105469 54.589844 90.445312 54.8125 Z M 89.320312 56.28125 C 89.296875 56.605469 89.277344 56.933594 89.253906 57.273438 C 89.664062 57.179688 90.078125 57.085938 90.503906 56.988281 C 90.601562 56.417969 90.601562 56.417969 90.445312 55.960938 C 90.289062 55.59375 90.175781 55.5 89.945312 55.472656 C 89.636719 55.523438 89.496094 55.722656 89.320312 56.28125 Z M 89.320312 56.28125 "/>
<path style=" stroke:none;fill-rule:nonzero;fill:rgb(12.941177%,12.941177%,12.941177%);fill-opacity:1;" d="M 85.777344 54.8125 C 86.074219 55.136719 86.257812 55.605469 86.359375 56.28125 C 86.378906 56.671875 86.371094 57.019531 86.359375 57.414062 C 86.078125 57.636719 85.804688 57.765625 85.507812 57.855469 C 85.433594 57.878906 85.355469 57.90625 85.277344 57.929688 C 85.042969 57.980469 84.816406 57.988281 84.582031 57.980469 C 84.703125 58.558594 84.789062 58.933594 85.042969 59.257812 C 85.429688 59.371094 85.804688 59.304688 86.164062 58.972656 C 86.207031 59.160156 86.25 59.347656 86.292969 59.539062 C 86.085938 60.023438 85.957031 60.226562 85.644531 60.28125 C 85.082031 60.308594 84.710938 60.210938 84.296875 59.363281 C 84.03125 58.402344 84.023438 57.488281 84.125 56.421875 C 84.246094 55.675781 84.425781 55.320312 84.714844 54.863281 C 85.050781 54.621094 85.433594 54.589844 85.777344 54.8125 Z M 84.648438 56.28125 C 84.628906 56.605469 84.605469 56.933594 84.582031 57.273438 C 84.996094 57.179688 85.410156 57.085938 85.832031 56.988281 C 85.933594 56.417969 85.933594 56.417969 85.777344 55.960938 C 85.621094 55.59375 85.503906 55.5 85.273438 55.472656 C 84.96875 55.523438 84.824219 55.722656 84.648438 56.28125 Z M 84.648438 56.28125 "/>
<path style=" stroke:none;fill-rule:nonzero;fill:rgb(12.941177%,12.941177%,12.941177%);fill-opacity:1;" d="M 71.765625 54.8125 C 72.066406 55.136719 72.246094 55.605469 72.351562 56.28125 C 72.371094 56.671875 72.363281 57.019531 72.351562 57.414062 C 72.066406 57.636719 71.796875 57.765625 71.5 57.855469 C 71.421875 57.878906 71.347656 57.90625 71.265625 57.929688 C 71.035156 57.980469 70.808594 57.988281 70.574219 57.980469 C 70.691406 58.558594 70.78125 58.933594 71.035156 59.257812 C 71.417969 59.371094 71.796875 59.304688 72.152344 58.972656 C 72.195312 59.160156 72.238281 59.347656 72.285156 59.539062 C 72.074219 60.023438 71.949219 60.226562 71.636719 60.28125 C 71.074219 60.308594 70.699219 60.210938 70.285156 59.363281 C 70.023438 58.402344 70.015625 57.488281 70.113281 56.421875 C 70.238281 55.675781 70.414062 55.320312 70.707031 54.863281 C 71.042969 54.621094 71.425781 54.589844 71.765625 54.8125 Z M 70.640625 56.28125 C 70.617188 56.605469 70.597656 56.933594 70.574219 57.273438 C 70.988281 57.179688 71.398438 57.085938 71.824219 56.988281 C 71.921875 56.417969 71.921875 56.417969 71.765625 55.960938 C 71.609375 55.59375 71.496094 55.5 71.265625 55.472656 C 70.957031 55.523438 70.816406 55.722656 70.640625 56.28125 Z M 70.640625 56.28125 "/>
<path style=" stroke:none;fill-rule:nonzero;fill:rgb(12.941177%,12.941177%,12.941177%);fill-opacity:1;" d="M 66.503906 54.8125 C 66.804688 55.136719 66.984375 55.605469 67.089844 56.28125 C 67.109375 56.671875 67.101562 57.019531 67.089844 57.414062 C 66.804688 57.636719 66.535156 57.765625 66.238281 57.855469 C 66.160156 57.878906 66.085938 57.90625 66.003906 57.929688 C 65.773438 57.980469 65.546875 57.988281 65.3125 57.980469 C 65.429688 58.558594 65.519531 58.933594 65.773438 59.257812 C 66.15625 59.371094 66.535156 59.304688 66.890625 58.972656 C 66.933594 59.160156 66.976562 59.347656 67.023438 59.539062 C 66.8125 60.023438 66.6875 60.226562 66.375 60.28125 C 65.8125 60.308594 65.4375 60.210938 65.023438 59.363281 C 64.761719 58.402344 64.75 57.488281 64.851562 56.421875 C 64.976562 55.675781 65.152344 55.320312 65.445312 54.863281 C 65.78125 54.621094 66.164062 54.589844 66.503906 54.8125 Z M 65.378906 56.28125 C 65.355469 56.605469 65.335938 56.933594 65.3125 57.273438 C 65.726562 57.179688 66.136719 57.085938 66.5625 56.988281 C 66.660156 56.417969 66.660156 56.417969 66.503906 55.960938 C 66.347656 55.59375 66.234375 55.5 66.003906 55.472656 C 65.695312 55.523438 65.554688 55.722656 65.378906 56.28125 Z M 65.378906 56.28125 "/>
<path style=" stroke:none;fill-rule:nonzero;fill:rgb(12.941177%,12.941177%,12.941177%);fill-opacity:1;" d="M 62.757812 54.8125 C 63.054688 55.136719 63.234375 55.605469 63.339844 56.28125 C 63.359375 56.671875 63.351562 57.019531 63.339844 57.414062 C 63.054688 57.636719 62.785156 57.765625 62.488281 57.855469 C 62.410156 57.878906 62.335938 57.90625 62.257812 57.929688 C 62.023438 57.980469 61.796875 57.988281 61.5625 57.980469 C 61.683594 58.558594 61.769531 58.933594 62.023438 59.257812 C 62.40625 59.371094 62.785156 59.304688 63.140625 58.972656 C 63.183594 59.160156 63.230469 59.347656 63.273438 59.539062 C 63.0625 60.023438 62.9375 60.226562 62.625 60.28125 C 62.0625 60.308594 61.691406 60.210938 61.277344 59.363281 C 61.011719 58.402344 61.003906 57.488281 61.101562 56.421875 C 61.226562 55.675781 61.402344 55.320312 61.695312 54.863281 C 62.03125 54.621094 62.414062 54.589844 62.757812 54.8125 Z M 61.628906 56.28125 C 61.605469 56.605469 61.585938 56.933594 61.5625 57.273438 C 61.976562 57.179688 62.386719 57.085938 62.8125 56.988281 C 62.910156 56.417969 62.910156 56.417969 62.753906 55.960938 C 62.601562 55.59375 62.484375 55.5 62.253906 55.472656 C 61.949219 55.523438 61.804688 55.722656 61.628906 56.28125 Z M 61.628906 56.28125 "/>
<path style=" stroke:none;fill-rule:nonzero;fill:rgb(13.725491%,13.725491%,13.725491%);fill-opacity:1;" d="M 74.785156 54.71875 C 74.9375 54.675781 74.9375 54.675781 75.113281 54.71875 C 75.265625 55.1875 75.363281 55.679688 75.457031 56.210938 C 75.496094 56.429688 75.496094 56.429688 75.539062 56.652344 C 75.578125 56.875 75.578125 56.875 75.617188 57.105469 C 75.644531 57.257812 75.671875 57.410156 75.699219 57.566406 C 75.769531 57.941406 75.835938 58.316406 75.902344 58.691406 C 76.132812 57.570312 76.304688 56.46875 76.441406 55.28125 C 76.492188 54.863281 76.492188 54.863281 76.558594 54.71875 C 76.691406 54.714844 76.824219 54.714844 76.953125 54.71875 C 76.976562 55.65625 76.898438 56.390625 76.757812 57.273438 C 76.734375 57.402344 76.714844 57.53125 76.695312 57.664062 C 76.097656 61.308594 76.097656 61.308594 75.507812 62.234375 C 75.28125 62.304688 75.28125 62.304688 75.113281 62.234375 C 75.0625 61.992188 75.0625 61.992188 75.046875 61.667969 C 75.152344 61.324219 75.152344 61.324219 75.296875 60.964844 C 75.484375 60.503906 75.613281 60.125 75.703125 59.539062 C 75.640625 59.492188 75.574219 59.445312 75.507812 59.398438 C 75.421875 59.082031 75.351562 58.78125 75.285156 58.449219 C 75.265625 58.355469 75.246094 58.261719 75.226562 58.164062 C 74.695312 55.597656 74.695312 55.597656 74.742188 54.949219 C 74.757812 54.871094 74.769531 54.796875 74.785156 54.71875 Z M 74.785156 54.71875 "/>
<path style=" stroke:none;fill-rule:nonzero;fill:rgb(13.725491%,13.725491%,13.725491%);fill-opacity:1;" d="M 55.644531 54.71875 C 55.796875 54.675781 55.796875 54.675781 55.972656 54.71875 C 56.125 55.1875 56.222656 55.679688 56.320312 56.210938 C 56.359375 56.429688 56.359375 56.429688 56.398438 56.652344 C 56.4375 56.875 56.4375 56.875 56.476562 57.105469 C 56.503906 57.257812 56.53125 57.410156 56.5625 57.566406 C 56.628906 57.941406 56.695312 58.316406 56.761719 58.691406 C 56.992188 57.570312 57.164062 56.46875 57.300781 55.28125 C 57.355469 54.863281 57.355469 54.863281 57.417969 54.71875 C 57.550781 54.714844 57.683594 54.714844 57.8125 54.71875 C 57.839844 55.65625 57.757812 56.390625 57.617188 57.273438 C 57.597656 57.402344 57.574219 57.53125 57.554688 57.664062 C 56.957031 61.308594 56.957031 61.308594 56.367188 62.234375 C 56.140625 62.304688 56.140625 62.304688 55.972656 62.234375 C 55.925781 61.992188 55.925781 61.992188 55.90625 61.667969 C 56.011719 61.324219 56.011719 61.324219 56.15625 60.964844 C 56.34375 60.503906 56.472656 60.125 56.566406 59.539062 C 56.5 59.492188 56.433594 59.445312 56.367188 59.398438 C 56.285156 59.082031 56.214844 58.78125 56.144531 58.449219 C 56.125 58.355469 56.105469 58.261719 56.085938 58.164062 C 55.554688 55.597656 55.554688 55.597656 55.601562 54.949219 C 55.617188 54.871094 55.628906 54.796875 55.644531 54.71875 Z M 55.644531 54.71875 "/>
<path style=" stroke:none;fill-rule:nonzero;fill:rgb(14.901961%,14.901961%,14.901961%);fill-opacity:1;" d="M 67.484375 54.71875 C 67.636719 54.675781 67.636719 54.675781 67.8125 54.71875 C 67.964844 55.1875 68.058594 55.667969 68.140625 56.207031 C 68.164062 56.351562 68.1875 56.496094 68.210938 56.644531 C 68.234375 56.792969 68.257812 56.941406 68.28125 57.09375 C 68.328125 57.390625 68.375 57.691406 68.421875 57.988281 C 68.441406 58.117188 68.460938 58.25 68.484375 58.386719 C 68.523438 58.683594 68.523438 58.683594 68.601562 58.832031 C 68.816406 57.476562 69.035156 56.117188 69.257812 54.71875 C 69.390625 54.71875 69.519531 54.71875 69.652344 54.71875 C 69.726562 55.191406 69.710938 55.460938 69.636719 55.929688 C 69.621094 56.050781 69.601562 56.175781 69.582031 56.300781 C 69.558594 56.433594 69.539062 56.5625 69.519531 56.695312 C 69.496094 56.828125 69.476562 56.960938 69.453125 57.097656 C 69.289062 58.136719 69.09375 59.128906 68.863281 60.105469 C 68.691406 60.105469 68.515625 60.105469 68.335938 60.105469 C 68.058594 59.035156 67.847656 57.925781 67.652344 56.777344 C 67.628906 56.640625 67.601562 56.5 67.578125 56.359375 C 67.546875 56.164062 67.546875 56.164062 67.511719 55.964844 C 67.492188 55.847656 67.472656 55.730469 67.453125 55.609375 C 67.414062 55.257812 67.429688 55.058594 67.484375 54.71875 Z M 67.484375 54.71875 "/>
<path style=" stroke:none;fill-rule:nonzero;fill:rgb(17.254902%,17.254902%,17.254902%);fill-opacity:1;" d="M 88.464844 54.863281 C 88.464844 55.097656 88.464844 55.328125 88.464844 55.570312 C 88.382812 55.582031 88.382812 55.582031 88.296875 55.597656 C 88.191406 55.613281 88.191406 55.613281 88.082031 55.632812 C 88.011719 55.644531 87.941406 55.65625 87.867188 55.667969 C 87.671875 55.699219 87.671875 55.699219 87.476562 55.855469 C 87.457031 57.257812 87.433594 58.660156 87.410156 60.105469 C 87.261719 60.105469 87.109375 60.105469 86.953125 60.105469 C 86.800781 59.464844 86.871094 58.574219 86.871094 57.867188 C 86.867188 57.683594 86.867188 57.5 86.863281 57.3125 C 86.863281 57.136719 86.863281 56.960938 86.863281 56.78125 C 86.863281 56.621094 86.863281 56.460938 86.863281 56.292969 C 86.886719 55.800781 86.945312 55.539062 87.082031 55.144531 C 87.460938 54.644531 88.054688 54.421875 88.464844 54.863281 Z M 88.464844 54.863281 "/>
<path style=" stroke:none;fill-rule:nonzero;fill:rgb(17.254902%,17.254902%,17.254902%);fill-opacity:1;" d="M 74.453125 54.863281 C 74.453125 55.097656 74.453125 55.328125 74.453125 55.570312 C 74.371094 55.582031 74.371094 55.582031 74.289062 55.597656 C 74.183594 55.613281 74.183594 55.613281 74.074219 55.632812 C 74 55.644531 73.929688 55.65625 73.855469 55.667969 C 73.660156 55.699219 73.660156 55.699219 73.46875 55.855469 C 73.445312 57.257812 73.425781 58.660156 73.402344 60.105469 C 73.25 60.105469 73.097656 60.105469 72.941406 60.105469 C 72.792969 59.464844 72.859375 58.574219 72.859375 57.867188 C 72.859375 57.683594 72.855469 57.5 72.855469 57.3125 C 72.855469 57.136719 72.855469 56.960938 72.855469 56.78125 C 72.855469 56.621094 72.851562 56.460938 72.851562 56.292969 C 72.878906 55.800781 72.933594 55.539062 73.074219 55.144531 C 73.449219 54.644531 74.042969 54.421875 74.453125 54.863281 Z M 74.453125 54.863281 "/>
<path style=" stroke:none;fill-rule:nonzero;fill:rgb(17.254902%,17.254902%,17.254902%);fill-opacity:1;" d="M 55.316406 54.863281 C 55.316406 55.097656 55.316406 55.328125 55.316406 55.570312 C 55.234375 55.582031 55.234375 55.582031 55.148438 55.597656 C 55.042969 55.613281 55.042969 55.613281 54.933594 55.632812 C 54.863281 55.644531 54.789062 55.65625 54.71875 55.667969 C 54.523438 55.699219 54.523438 55.699219 54.328125 55.855469 C 54.304688 57.257812 54.285156 58.660156 54.261719 60.105469 C 54.109375 60.105469 53.957031 60.105469 53.800781 60.105469 C 53.652344 59.464844 53.722656 58.574219 53.71875 57.867188 C 53.71875 57.683594 53.71875 57.5 53.714844 57.3125 C 53.714844 57.136719 53.714844 56.960938 53.714844 56.78125 C 53.714844 56.621094 53.714844 56.460938 53.710938 56.292969 C 53.738281 55.800781 53.796875 55.539062 53.933594 55.144531 C 54.308594 54.644531 54.90625 54.421875 55.316406 54.863281 Z M 55.316406 54.863281 "/>
<path style=" stroke:none;fill-rule:nonzero;fill:rgb(96.470588%,71.372551%,42.352942%);fill-opacity:1;" d="M 54.394531 27.359375 C 54.4375 27.40625 54.480469 27.453125 54.527344 27.5 C 54.222656 28.15625 53.917969 28.8125 53.605469 29.488281 C 53.5625 29.441406 53.519531 29.394531 53.472656 29.34375 C 53.761719 28.621094 54.042969 27.945312 54.394531 27.359375 Z M 54.394531 27.359375 "/>
<path style=" stroke:none;fill-rule:nonzero;fill:rgb(94.509804%,58.039218%,44.313726%);fill-opacity:1;" d="M 6.644531 26.367188 C 6.6875 26.414062 6.730469 26.460938 6.773438 26.507812 C 6.558594 26.976562 6.339844 27.445312 6.117188 27.925781 C 6.074219 27.878906 6.03125 27.832031 5.984375 27.785156 C 6.390625 26.726562 6.390625 26.726562 6.644531 26.367188 Z M 6.644531 26.367188 "/>
</g>
</svg>
