<?xml version="1.0" encoding="UTF-8"?>
<svg xmlns="http://www.w3.org/2000/svg" xmlns:xlink="http://www.w3.org/1999/xlink" width="29px" height="29px" viewBox="0 0 29 29" version="1.1">
<g id="surface1">
<path style=" stroke:none;fill-rule:nonzero;fill:rgb(3.529412%,3.529412%,3.529412%);fill-opacity:1;" d="M 2.945312 3.90625 C 3.890625 3.902344 4.835938 3.902344 5.78125 3.902344 C 6.21875 3.90625 6.65625 3.90625 7.097656 3.902344 C 7.480469 3.898438 7.859375 3.898438 8.242188 3.902344 C 8.445312 3.902344 8.648438 3.902344 8.851562 3.902344 C 9.078125 3.898438 9.304688 3.898438 9.53125 3.902344 C 9.628906 3.898438 9.628906 3.898438 9.730469 3.898438 C 10 3.902344 10.179688 3.90625 10.390625 4.078125 C 10.507812 4.203125 10.609375 4.332031 10.703125 4.476562 C 10.75 4.53125 10.792969 4.585938 10.835938 4.640625 C 10.871094 4.691406 10.910156 4.738281 10.945312 4.789062 C 10.988281 4.847656 11.03125 4.90625 11.074219 4.964844 C 11.109375 5.011719 11.109375 5.011719 11.144531 5.058594 C 11.273438 5.230469 11.402344 5.402344 11.53125 5.574219 C 11.570312 5.632812 11.570312 5.632812 11.613281 5.6875 C 11.859375 6.011719 12.101562 6.332031 12.347656 6.65625 C 12.726562 7.152344 13.105469 7.652344 13.480469 8.15625 C 13.910156 8.730469 14.339844 9.304688 14.777344 9.871094 C 14.933594 10.070312 15.085938 10.273438 15.234375 10.476562 C 15.441406 10.445312 15.519531 10.378906 15.652344 10.222656 C 15.683594 10.183594 15.71875 10.144531 15.753906 10.101562 C 15.898438 9.921875 16.035156 9.738281 16.171875 9.554688 C 16.199219 9.523438 16.226562 9.492188 16.257812 9.460938 C 16.292969 9.460938 16.332031 9.460938 16.367188 9.460938 C 16.382812 9.429688 16.394531 9.398438 16.410156 9.363281 C 16.5 9.199219 16.617188 9.074219 16.746094 8.933594 C 16.917969 8.75 17.085938 8.566406 17.25 8.378906 C 17.394531 8.210938 17.542969 8.046875 17.691406 7.882812 C 17.871094 7.6875 18.039062 7.488281 18.203125 7.285156 C 18.386719 7.058594 18.578125 6.839844 18.777344 6.625 C 19.109375 6.269531 19.421875 5.894531 19.71875 5.503906 C 19.753906 5.464844 19.789062 5.421875 19.824219 5.382812 C 19.863281 5.382812 19.898438 5.382812 19.9375 5.382812 C 19.949219 5.351562 19.960938 5.320312 19.976562 5.289062 C 20.074219 5.113281 20.207031 4.976562 20.34375 4.832031 C 20.398438 4.777344 20.449219 4.722656 20.503906 4.664062 C 20.53125 4.636719 20.554688 4.609375 20.582031 4.582031 C 20.679688 4.476562 20.679688 4.476562 20.746094 4.347656 C 20.886719 4.121094 20.988281 3.988281 21.246094 3.917969 C 21.472656 3.898438 21.691406 3.898438 21.914062 3.902344 C 21.996094 3.902344 22.078125 3.902344 22.160156 3.902344 C 22.375 3.898438 22.589844 3.902344 22.804688 3.902344 C 23.023438 3.90625 23.242188 3.902344 23.460938 3.902344 C 23.890625 3.902344 24.320312 3.902344 24.75 3.90625 C 24.714844 4.121094 24.679688 4.234375 24.53125 4.394531 C 24.496094 4.433594 24.460938 4.472656 24.425781 4.511719 C 24.363281 4.578125 24.363281 4.578125 24.296875 4.644531 C 24.195312 4.753906 24.09375 4.863281 23.996094 4.972656 C 23.96875 5.003906 23.941406 5.03125 23.914062 5.0625 C 23.742188 5.246094 23.582031 5.4375 23.425781 5.632812 C 23.207031 5.902344 22.976562 6.15625 22.738281 6.410156 C 22.5625 6.597656 22.394531 6.789062 22.234375 6.992188 C 22.035156 7.238281 21.824219 7.472656 21.609375 7.703125 C 21.34375 7.984375 21.09375 8.269531 20.855469 8.570312 C 20.675781 8.789062 20.484375 8.996094 20.296875 9.203125 C 20.0625 9.457031 19.835938 9.71875 19.613281 9.980469 C 19.296875 10.351562 18.976562 10.71875 18.648438 11.078125 C 18.46875 11.269531 18.296875 11.46875 18.125 11.667969 C 18.097656 11.699219 18.074219 11.726562 18.046875 11.757812 C 17.71875 12.132812 17.398438 12.507812 17.105469 12.914062 C 17.332031 13.265625 17.574219 13.597656 17.832031 13.921875 C 17.902344 14.011719 17.972656 14.101562 18.042969 14.191406 C 18.078125 14.234375 18.109375 14.277344 18.144531 14.324219 C 18.304688 14.53125 18.460938 14.738281 18.617188 14.949219 C 18.773438 15.15625 18.933594 15.363281 19.089844 15.574219 C 20.257812 17.097656 20.257812 17.097656 20.8125 17.835938 C 21.042969 18.148438 21.28125 18.457031 21.515625 18.765625 C 21.808594 19.148438 22.097656 19.53125 22.378906 19.917969 C 22.667969 20.3125 22.964844 20.699219 23.265625 21.082031 C 23.542969 21.4375 23.808594 21.796875 24.074219 22.160156 C 24.300781 22.46875 24.53125 22.773438 24.765625 23.074219 C 24.976562 23.347656 25.183594 23.621094 25.394531 23.894531 C 25.429688 23.945312 25.46875 23.996094 25.511719 24.046875 C 25.617188 24.1875 25.722656 24.328125 25.828125 24.46875 C 25.871094 24.527344 25.871094 24.527344 25.917969 24.585938 C 26.109375 24.84375 26.109375 24.84375 26.109375 25.035156 C 25.179688 25.035156 24.246094 25.03125 23.3125 25.027344 C 22.878906 25.027344 22.445312 25.023438 22.011719 25.023438 C 21.636719 25.023438 21.257812 25.023438 20.878906 25.019531 C 20.679688 25.019531 20.480469 25.019531 20.28125 25.019531 C 20.058594 25.019531 19.832031 25.019531 19.609375 25.015625 C 19.511719 25.015625 19.511719 25.015625 19.410156 25.015625 C 18.960938 25.011719 18.960938 25.011719 18.742188 24.839844 C 18.707031 24.792969 18.671875 24.746094 18.632812 24.695312 C 18.597656 24.660156 18.558594 24.625 18.519531 24.589844 C 18.40625 24.464844 18.335938 24.335938 18.253906 24.191406 C 18.132812 23.992188 17.980469 23.824219 17.832031 23.648438 C 17.585938 23.347656 17.355469 23.03125 17.125 22.71875 C 16.90625 22.421875 16.90625 22.421875 16.675781 22.140625 C 16.480469 21.90625 16.308594 21.664062 16.132812 21.417969 C 15.996094 21.214844 15.996094 21.214844 15.804688 21.070312 C 15.746094 20.976562 15.6875 20.882812 15.632812 20.789062 C 15.421875 20.492188 15.421875 20.492188 15.179688 20.21875 C 15.125 20.152344 15.074219 20.085938 15.023438 20.015625 C 14.992188 19.976562 14.964844 19.933594 14.933594 19.890625 C 14.902344 19.851562 14.871094 19.808594 14.839844 19.765625 C 14.785156 19.695312 14.734375 19.625 14.679688 19.554688 C 14.582031 19.425781 14.484375 19.292969 14.386719 19.164062 C 14.144531 18.839844 13.902344 18.519531 13.652344 18.199219 C 13.628906 18.164062 13.601562 18.128906 13.574219 18.09375 C 13.4375 17.914062 13.4375 17.914062 13.253906 17.785156 C 13.242188 17.816406 13.230469 17.847656 13.21875 17.878906 C 13.113281 18.0625 12.972656 18.203125 12.824219 18.355469 C 12.609375 18.582031 12.402344 18.8125 12.207031 19.058594 C 12.015625 19.296875 11.816406 19.519531 11.609375 19.738281 C 11.359375 20.007812 11.121094 20.285156 10.890625 20.574219 C 10.722656 20.777344 10.546875 20.964844 10.371094 21.15625 C 10.203125 21.335938 10.042969 21.523438 9.890625 21.714844 C 9.660156 22 9.414062 22.265625 9.164062 22.53125 C 8.933594 22.777344 8.71875 23.03125 8.511719 23.296875 C 8.34375 23.496094 8.167969 23.683594 7.992188 23.875 C 7.773438 24.113281 7.566406 24.359375 7.367188 24.613281 C 7.023438 25.023438 7.023438 25.023438 6.796875 25.070312 C 6.730469 25.070312 6.667969 25.066406 6.601562 25.066406 C 6.492188 25.066406 6.492188 25.066406 6.382812 25.066406 C 6.304688 25.066406 6.226562 25.0625 6.144531 25.0625 C 6.066406 25.0625 5.984375 25.0625 5.902344 25.0625 C 5.691406 25.058594 5.480469 25.058594 5.265625 25.054688 C 5.050781 25.050781 4.832031 25.050781 4.617188 25.050781 C 4.191406 25.046875 3.765625 25.042969 3.34375 25.035156 C 3.382812 24.785156 3.4375 24.691406 3.625 24.519531 C 3.867188 24.285156 4.078125 24.039062 4.289062 23.777344 C 4.457031 23.574219 4.632812 23.378906 4.808594 23.183594 C 4.914062 23.070312 5.015625 22.953125 5.117188 22.832031 C 5.257812 22.671875 5.402344 22.515625 5.546875 22.359375 C 5.820312 22.066406 6.074219 21.765625 6.324219 21.457031 C 6.472656 21.277344 6.625 21.109375 6.78125 20.941406 C 6.945312 20.765625 7.105469 20.59375 7.242188 20.394531 C 7.363281 20.21875 7.496094 20.085938 7.648438 19.9375 C 7.949219 19.617188 8.242188 19.296875 8.515625 18.953125 C 8.746094 18.667969 8.992188 18.402344 9.242188 18.136719 C 9.472656 17.890625 9.6875 17.636719 9.898438 17.371094 C 10.039062 17.203125 10.1875 17.039062 10.335938 16.878906 C 10.582031 16.613281 10.816406 16.339844 11.042969 16.058594 C 11.191406 15.875 11.34375 15.695312 11.5 15.519531 C 11.40625 15.234375 11.238281 15.027344 11.054688 14.796875 C 10.988281 14.710938 10.921875 14.625 10.855469 14.539062 C 10.804688 14.472656 10.804688 14.472656 10.75 14.40625 C 10.589844 14.195312 10.425781 13.984375 10.265625 13.773438 C 10.234375 13.734375 10.203125 13.695312 10.171875 13.652344 C 9.992188 13.414062 9.8125 13.175781 9.632812 12.933594 C 9.496094 12.75 9.351562 12.570312 9.199219 12.398438 C 9.0625 12.234375 9.0625 12.234375 9.0625 12.121094 C 9.023438 12.121094 8.988281 12.121094 8.949219 12.121094 C 8.878906 12.023438 8.816406 11.921875 8.753906 11.820312 C 8.640625 11.632812 8.535156 11.480469 8.382812 11.328125 C 8.382812 11.289062 8.382812 11.253906 8.382812 11.214844 C 8.34375 11.214844 8.308594 11.214844 8.269531 11.214844 C 8.199219 11.121094 8.199219 11.121094 8.117188 10.992188 C 7.933594 10.707031 7.730469 10.441406 7.523438 10.175781 C 7.488281 10.128906 7.453125 10.085938 7.417969 10.039062 C 7.238281 9.808594 7.238281 9.808594 7.046875 9.59375 C 6.96875 9.515625 6.96875 9.515625 6.894531 9.390625 C 6.761719 9.175781 6.609375 8.980469 6.453125 8.78125 C 6.421875 8.738281 6.386719 8.695312 6.355469 8.648438 C 6.257812 8.523438 6.160156 8.394531 6.0625 8.269531 C 5.761719 7.882812 5.460938 7.492188 5.167969 7.097656 C 4.757812 6.546875 4.339844 6 3.90625 5.464844 C 3.722656 5.230469 3.542969 4.992188 3.367188 4.75 C 3.324219 4.691406 3.324219 4.691406 3.277344 4.632812 C 3.238281 4.578125 3.238281 4.578125 3.195312 4.519531 C 3.125 4.429688 3.050781 4.347656 2.976562 4.261719 C 2.949219 4.21875 2.917969 4.179688 2.890625 4.132812 C 2.910156 4.011719 2.910156 4.011719 2.945312 3.90625 Z M 7.25 6.117188 C 7.359375 6.304688 7.472656 6.476562 7.605469 6.648438 C 7.640625 6.695312 7.675781 6.742188 7.714844 6.789062 C 7.753906 6.839844 7.789062 6.890625 7.832031 6.941406 C 7.914062 7.050781 7.996094 7.15625 8.078125 7.265625 C 8.117188 7.316406 8.160156 7.371094 8.203125 7.429688 C 8.390625 7.671875 8.574219 7.921875 8.757812 8.167969 C 9.058594 8.570312 9.367188 8.972656 9.679688 9.371094 C 10.023438 9.8125 10.363281 10.257812 10.703125 10.703125 C 10.777344 10.800781 10.847656 10.894531 10.921875 10.988281 C 11.230469 11.394531 11.539062 11.800781 11.851562 12.207031 C 12.214844 12.6875 12.578125 13.164062 12.945312 13.636719 C 13.269531 14.058594 13.59375 14.484375 13.914062 14.910156 C 14.269531 15.371094 14.621094 15.832031 14.976562 16.292969 C 15.179688 16.558594 15.382812 16.824219 15.585938 17.089844 C 15.769531 17.328125 15.949219 17.5625 16.132812 17.800781 C 16.421875 18.175781 16.710938 18.554688 17 18.933594 C 17.207031 19.207031 17.417969 19.484375 17.628906 19.757812 C 17.828125 20.015625 18.027344 20.28125 18.222656 20.542969 C 18.503906 20.917969 18.789062 21.289062 19.078125 21.65625 C 19.109375 21.695312 19.140625 21.734375 19.171875 21.777344 C 19.203125 21.816406 19.234375 21.855469 19.269531 21.894531 C 19.371094 22.03125 19.371094 22.03125 19.476562 22.214844 C 19.707031 22.585938 19.707031 22.585938 20.085938 22.765625 C 20.320312 22.789062 20.554688 22.773438 20.789062 22.753906 C 20.871094 22.753906 20.957031 22.75 21.039062 22.746094 C 21.238281 22.738281 21.4375 22.726562 21.636719 22.710938 C 21.546875 22.472656 21.433594 22.300781 21.277344 22.101562 C 21.226562 22.035156 21.175781 21.972656 21.125 21.90625 C 21.097656 21.871094 21.070312 21.835938 21.042969 21.800781 C 20.890625 21.609375 20.746094 21.414062 20.597656 21.21875 C 20.570312 21.183594 20.542969 21.144531 20.515625 21.105469 C 20.488281 21.070312 20.460938 21.035156 20.433594 21 C 20.40625 20.964844 20.382812 20.929688 20.355469 20.894531 C 20.273438 20.785156 20.199219 20.671875 20.121094 20.5625 C 20.082031 20.503906 20.039062 20.449219 19.992188 20.390625 C 19.957031 20.390625 19.917969 20.390625 19.882812 20.390625 C 19.867188 20.351562 19.855469 20.3125 19.839844 20.269531 C 19.753906 20.078125 19.644531 19.933594 19.511719 19.765625 C 19.460938 19.703125 19.410156 19.636719 19.359375 19.570312 C 19.332031 19.535156 19.304688 19.503906 19.277344 19.46875 C 18.890625 18.976562 18.515625 18.476562 18.148438 17.972656 C 17.890625 17.621094 17.625 17.273438 17.359375 16.929688 C 17.144531 16.648438 16.9375 16.363281 16.738281 16.074219 C 16.707031 16.042969 16.679688 16.007812 16.652344 15.972656 C 16.613281 15.972656 16.578125 15.972656 16.539062 15.972656 C 16.519531 15.898438 16.5 15.824219 16.484375 15.746094 C 16.445312 15.746094 16.40625 15.746094 16.367188 15.746094 C 16.355469 15.703125 16.339844 15.664062 16.324219 15.621094 C 16.253906 15.460938 16.175781 15.351562 16.066406 15.21875 C 15.859375 14.96875 15.660156 14.710938 15.464844 14.449219 C 15.421875 14.390625 15.421875 14.390625 15.378906 14.332031 C 15.320312 14.253906 15.261719 14.175781 15.203125 14.097656 C 15.089844 13.945312 14.972656 13.789062 14.859375 13.636719 C 14.816406 13.582031 14.777344 13.527344 14.734375 13.472656 C 14.648438 13.359375 14.5625 13.246094 14.480469 13.132812 C 14.433594 13.074219 14.390625 13.015625 14.34375 12.953125 C 14.300781 12.898438 14.261719 12.84375 14.21875 12.785156 C 14.121094 12.65625 14.027344 12.523438 13.9375 12.390625 C 13.898438 12.339844 13.859375 12.289062 13.820312 12.234375 C 13.78125 12.234375 13.746094 12.234375 13.707031 12.234375 C 13.691406 12.191406 13.675781 12.148438 13.65625 12.101562 C 13.597656 11.941406 13.597656 11.941406 13.480469 11.78125 C 13.441406 11.78125 13.40625 11.78125 13.367188 11.78125 C 13.347656 11.707031 13.328125 11.632812 13.3125 11.554688 C 13.273438 11.554688 13.234375 11.554688 13.195312 11.554688 C 13.183594 11.515625 13.167969 11.476562 13.15625 11.433594 C 13.074219 11.25 12.976562 11.105469 12.859375 10.941406 C 12.816406 10.886719 12.777344 10.832031 12.738281 10.773438 C 12.703125 10.734375 12.667969 10.691406 12.632812 10.648438 C 12.59375 10.648438 12.554688 10.648438 12.515625 10.648438 C 12.503906 10.609375 12.492188 10.570312 12.480469 10.53125 C 12.386719 10.324219 12.261719 10.160156 12.121094 9.980469 C 12.09375 9.945312 12.070312 9.910156 12.042969 9.875 C 11.976562 9.792969 11.910156 9.710938 11.835938 9.628906 C 11.800781 9.628906 11.761719 9.628906 11.726562 9.628906 C 11.71875 9.597656 11.714844 9.566406 11.710938 9.535156 C 11.652344 9.351562 11.550781 9.238281 11.429688 9.085938 C 11.246094 8.855469 11.066406 8.617188 10.890625 8.378906 C 10.855469 8.328125 10.820312 8.28125 10.785156 8.230469 C 10.710938 8.132812 10.640625 8.035156 10.570312 7.933594 C 10.539062 7.890625 10.507812 7.84375 10.472656 7.800781 C 10.445312 7.757812 10.414062 7.71875 10.386719 7.675781 C 10.359375 7.648438 10.335938 7.621094 10.308594 7.589844 C 10.269531 7.589844 10.234375 7.589844 10.195312 7.589844 C 10.179688 7.550781 10.167969 7.507812 10.152344 7.464844 C 10.074219 7.289062 9.984375 7.164062 9.855469 7.023438 C 9.816406 7.023438 9.78125 7.023438 9.742188 7.023438 C 9.730469 6.976562 9.722656 6.933594 9.710938 6.886719 C 9.597656 6.605469 9.398438 6.257812 9.117188 6.117188 C 8.980469 6.113281 8.839844 6.109375 8.699219 6.113281 C 8.636719 6.113281 8.636719 6.113281 8.574219 6.113281 C 8.441406 6.113281 8.308594 6.113281 8.175781 6.113281 C 8.089844 6.113281 8 6.113281 7.910156 6.113281 C 7.6875 6.113281 7.46875 6.117188 7.25 6.117188 Z M 7.25 6.117188 "/>
<path style=" stroke:none;fill-rule:nonzero;fill:rgb(65.490198%,65.490198%,65.490198%);fill-opacity:1;" d="M 2.945312 3.90625 C 3.894531 3.910156 4.839844 3.910156 5.789062 3.914062 C 6.230469 3.917969 6.667969 3.917969 7.109375 3.917969 C 7.492188 3.917969 7.875 3.921875 8.257812 3.921875 C 8.460938 3.925781 8.664062 3.925781 8.867188 3.925781 C 9.09375 3.925781 9.324219 3.925781 9.550781 3.925781 C 9.617188 3.925781 9.683594 3.925781 9.753906 3.925781 C 10.257812 3.933594 10.257812 3.933594 10.4375 4.109375 C 10.46875 4.15625 10.5 4.199219 10.535156 4.25 C 10.515625 4.285156 10.496094 4.324219 10.476562 4.359375 C 10.460938 4.335938 10.441406 4.308594 10.421875 4.277344 C 10.253906 4.148438 10.078125 4.160156 9.875 4.152344 C 9.832031 4.152344 9.785156 4.148438 9.738281 4.148438 C 9.125 4.125 8.507812 4.125 7.890625 4.128906 C 7.761719 4.128906 7.628906 4.128906 7.496094 4.128906 C 7.222656 4.128906 6.949219 4.128906 6.675781 4.128906 C 6.328125 4.128906 5.976562 4.128906 5.625 4.128906 C 5.355469 4.128906 5.082031 4.128906 4.8125 4.128906 C 4.683594 4.128906 4.554688 4.128906 4.425781 4.128906 C 4.246094 4.125 4.0625 4.128906 3.882812 4.128906 C 3.832031 4.128906 3.777344 4.128906 3.722656 4.128906 C 3.671875 4.128906 3.625 4.128906 3.574219 4.128906 C 3.511719 4.128906 3.511719 4.128906 3.445312 4.128906 C 3.335938 4.128906 3.335938 4.128906 3.226562 4.191406 C 3.171875 4.171875 3.117188 4.152344 3.058594 4.132812 C 3.078125 4.210938 3.097656 4.285156 3.117188 4.359375 C 3 4.261719 3 4.261719 2.890625 4.132812 C 2.910156 4.011719 2.910156 4.011719 2.945312 3.90625 Z M 2.945312 3.90625 "/>
<path style=" stroke:none;fill-rule:nonzero;fill:rgb(53.725493%,53.725493%,53.725493%);fill-opacity:1;" d="M 24.75 3.90625 C 24.734375 4.210938 24.554688 4.378906 24.355469 4.585938 C 24.355469 4.386719 24.417969 4.300781 24.523438 4.132812 C 24.09375 4.136719 23.664062 4.136719 23.234375 4.140625 C 23.03125 4.144531 22.832031 4.144531 22.632812 4.144531 C 22.402344 4.144531 22.171875 4.148438 21.941406 4.152344 C 21.871094 4.152344 21.800781 4.152344 21.726562 4.152344 C 21.386719 4.144531 21.386719 4.144531 21.078125 4.257812 C 20.996094 4.34375 20.996094 4.34375 20.898438 4.476562 C 20.84375 4.476562 20.789062 4.476562 20.730469 4.476562 C 20.765625 4.398438 20.804688 4.324219 20.84375 4.25 C 20.867188 4.199219 20.890625 4.152344 20.917969 4.101562 C 21.167969 3.875 21.457031 3.921875 21.78125 3.925781 C 21.851562 3.925781 21.921875 3.921875 21.996094 3.921875 C 22.183594 3.921875 22.371094 3.917969 22.554688 3.917969 C 22.746094 3.917969 22.933594 3.917969 23.121094 3.914062 C 23.664062 3.910156 24.207031 3.90625 24.75 3.90625 Z M 24.75 3.90625 "/>
<path style=" stroke:none;fill-rule:nonzero;fill:rgb(36.470589%,36.470589%,36.470589%);fill-opacity:1;" d="M 25.828125 24.582031 C 25.96875 24.714844 25.96875 24.714844 26.109375 24.867188 C 26.109375 24.921875 26.109375 24.976562 26.109375 25.035156 C 23.738281 25.015625 21.363281 24.996094 18.917969 24.976562 C 18.917969 24.960938 18.917969 24.941406 18.917969 24.921875 C 21.253906 24.921875 23.589844 24.921875 26 24.921875 C 25.941406 24.847656 25.886719 24.773438 25.828125 24.695312 C 25.828125 24.65625 25.828125 24.621094 25.828125 24.582031 Z M 25.828125 24.582031 "/>
<path style=" stroke:none;fill-rule:nonzero;fill:rgb(50.980395%,50.980395%,50.980395%);fill-opacity:1;" d="M 3.90625 24.242188 C 3.90625 24.414062 3.90625 24.414062 3.835938 24.496094 C 3.804688 24.523438 3.773438 24.554688 3.742188 24.582031 C 3.609375 24.703125 3.570312 24.746094 3.511719 24.921875 C 4.671875 24.921875 5.828125 24.921875 7.023438 24.921875 C 7.003906 24.960938 6.984375 24.996094 6.96875 25.035156 C 5.769531 25.035156 4.574219 25.035156 3.34375 25.035156 C 3.402344 24.734375 3.441406 24.679688 3.65625 24.480469 C 3.703125 24.433594 3.75 24.390625 3.796875 24.34375 C 3.835938 24.308594 3.871094 24.277344 3.90625 24.242188 Z M 3.90625 24.242188 "/>
<path style=" stroke:none;fill-rule:nonzero;fill:rgb(76.862746%,76.862746%,76.862746%);fill-opacity:1;" d="M 21.523438 22.429688 C 21.5625 22.429688 21.597656 22.429688 21.636719 22.429688 C 21.804688 22.679688 21.804688 22.679688 21.804688 22.828125 C 21.171875 22.828125 20.535156 22.828125 19.882812 22.828125 C 19.882812 22.769531 19.882812 22.714844 19.882812 22.65625 C 20.460938 22.675781 21.039062 22.695312 21.636719 22.710938 C 21.597656 22.621094 21.5625 22.527344 21.523438 22.429688 Z M 21.523438 22.429688 "/>
<path style=" stroke:none;fill-rule:nonzero;fill:rgb(41.960785%,41.960785%,41.960785%);fill-opacity:1;" d="M 18.351562 7.136719 C 18.371094 7.175781 18.390625 7.210938 18.40625 7.25 C 18.300781 7.457031 18.164062 7.640625 18.023438 7.828125 C 17.984375 7.875 17.949219 7.925781 17.910156 7.972656 C 17.765625 8.121094 17.644531 8.164062 17.445312 8.210938 C 17.613281 7.941406 17.808594 7.714844 18.027344 7.484375 C 18.074219 7.433594 18.074219 7.433594 18.121094 7.382812 C 18.199219 7.300781 18.273438 7.21875 18.351562 7.136719 Z M 18.351562 7.136719 "/>
<path style=" stroke:none;fill-rule:nonzero;fill:rgb(55.29412%,55.29412%,55.29412%);fill-opacity:1;" d="M 4.929688 23.054688 C 4.929688 23.394531 4.648438 23.667969 4.417969 23.902344 C 4.273438 24.023438 4.121094 24.132812 3.964844 24.242188 C 4.0625 24 4.238281 23.832031 4.414062 23.648438 C 4.6875 23.363281 4.6875 23.363281 4.929688 23.054688 Z M 4.929688 23.054688 "/>
<path style=" stroke:none;fill-rule:nonzero;fill:rgb(49.019608%,49.019608%,49.019608%);fill-opacity:1;" d="M 9.515625 17.84375 C 9.515625 17.898438 9.515625 17.953125 9.515625 18.011719 C 9.476562 18.046875 9.441406 18.085938 9.402344 18.121094 C 9.261719 18.238281 9.261719 18.238281 9.289062 18.464844 C 9.207031 18.5625 9.207031 18.5625 9.101562 18.648438 C 9.066406 18.679688 9.03125 18.707031 8.996094 18.738281 C 8.890625 18.804688 8.890625 18.804688 8.722656 18.804688 C 8.796875 18.644531 8.875 18.523438 8.996094 18.394531 C 9.027344 18.363281 9.054688 18.328125 9.085938 18.296875 C 9.117188 18.261719 9.152344 18.230469 9.183594 18.195312 C 9.214844 18.160156 9.246094 18.128906 9.28125 18.09375 C 9.359375 18.007812 9.4375 17.925781 9.515625 17.84375 Z M 9.515625 17.84375 "/>
<path style=" stroke:none;fill-rule:nonzero;fill:rgb(47.058824%,47.058824%,47.058824%);fill-opacity:1;" d="M 6.289062 21.523438 C 6.289062 21.578125 6.289062 21.636719 6.289062 21.695312 C 6.257812 21.71875 6.230469 21.746094 6.203125 21.773438 C 6.089844 21.871094 6.089844 21.871094 6.117188 22.089844 C 6.035156 22.1875 6.035156 22.1875 5.929688 22.273438 C 5.894531 22.304688 5.859375 22.332031 5.824219 22.363281 C 5.71875 22.429688 5.71875 22.429688 5.550781 22.429688 C 5.644531 22.195312 5.8125 22.03125 5.984375 21.847656 C 6.011719 21.816406 6.042969 21.785156 6.070312 21.753906 C 6.144531 21.675781 6.214844 21.601562 6.289062 21.523438 Z M 6.289062 21.523438 "/>
<path style=" stroke:none;fill-rule:nonzero;fill:rgb(37.254903%,37.254903%,37.254903%);fill-opacity:1;" d="M 17.953125 7.703125 C 17.953125 7.875 17.953125 7.875 17.828125 8.023438 C 17.6875 8.144531 17.625 8.191406 17.445312 8.210938 C 17.589844 7.972656 17.703125 7.828125 17.953125 7.703125 Z M 17.953125 7.703125 "/>
<path style=" stroke:none;fill-rule:nonzero;fill:rgb(39.607844%,39.607844%,39.607844%);fill-opacity:1;" d="M 20.957031 4.132812 C 21.078125 4.15625 21.078125 4.15625 21.183594 4.191406 C 21.050781 4.332031 21.050781 4.332031 20.898438 4.476562 C 20.84375 4.476562 20.789062 4.476562 20.730469 4.476562 C 20.796875 4.335938 20.847656 4.246094 20.957031 4.132812 Z M 20.957031 4.132812 "/>
<path style=" stroke:none;fill-rule:nonzero;fill:rgb(71.764708%,71.764708%,71.764708%);fill-opacity:1;" d="M 25.828125 24.582031 C 25.96875 24.714844 25.96875 24.714844 26.109375 24.867188 C 26.109375 24.921875 26.109375 24.976562 26.109375 25.035156 C 26 25.035156 25.886719 25.035156 25.773438 25.035156 C 25.753906 24.996094 25.734375 24.960938 25.714844 24.921875 C 25.808594 24.921875 25.902344 24.921875 26 24.921875 C 25.957031 24.871094 25.957031 24.871094 25.914062 24.816406 C 25.828125 24.695312 25.828125 24.695312 25.828125 24.582031 Z M 25.828125 24.582031 "/>
</g>
</svg>
