<?xml version="1.0" encoding="UTF-8"?>
<svg version="1.1" xmlns="http://www.w3.org/2000/svg" width="1152" height="648">
<path d="M0 0 C1.6920475 -0.00135806 3.3840947 -0.00314026 5.07614136 -0.00531006 C9.64569004 -0.00984357 14.21521596 -0.00810974 18.78476501 -0.00493097 C23.60995397 -0.00237748 28.43514115 -0.00475397 33.2603302 -0.00631714 C41.38302962 -0.00813383 49.50571994 -0.00574949 57.62841797 -0.00097656 C66.92906091 0.00442654 76.22968179 0.0027304 85.53032416 -0.00280297 C93.57942488 -0.00739492 101.62851909 -0.00795427 109.67762071 -0.0053643 C114.45553178 -0.0038295 119.23343264 -0.0035278 124.011343 -0.00690079 C142.12093656 -0.01791248 160.21845556 0.0349585 178.32080078 0.59082031 C179.33047206 0.6215396 179.33047206 0.6215396 180.36054075 0.65287948 C220.54407838 1.91141186 261.54678248 9.06805935 292.91333008 36.12939453 C294.26297852 37.28955078 294.26297852 37.28955078 295.63989258 38.47314453 C298.10732208 40.64984971 300.51539451 42.87666267 302.91333008 45.12939453 C303.5759082 45.71591797 304.23848633 46.30244141 304.92114258 46.90673828 C332.31520396 72.24901774 342.04742006 114.42165516 343.91333008 150.12939453 C344.09562295 157.0259449 344.06060268 163.92632008 344.05859375 170.82470703 C344.06159119 172.89104777 344.06499505 174.95738795 344.06877136 177.02372742 C344.0775577 182.60477115 344.07994725 188.18579953 344.08058715 193.76684952 C344.08130089 197.26452033 344.08344137 200.76218732 344.08608437 204.25985718 C344.09532122 216.49322759 344.09942148 228.72658715 344.09863281 240.95996094 C344.09803301 252.31205833 344.10856995 263.66410805 344.12437648 275.01619339 C344.13751217 284.80354152 344.14281417 294.59087419 344.1421774 304.37823105 C344.14192411 310.20539785 344.14468085 316.03252226 344.15535545 321.85968018 C344.16513811 327.34929298 344.16504703 332.83882378 344.15783882 338.32843971 C344.15680536 340.32565241 344.15908061 342.32287049 344.16519928 344.32007408 C344.21423578 361.45743835 343.32137378 378.57301855 340.10083008 395.44189453 C339.93123779 396.34794434 339.76164551 397.25399414 339.58691406 398.1875 C333.46413065 429.50629733 318.14049309 455.59092672 295.91333008 478.12939453 C295.17856445 478.87705078 294.44379883 479.62470703 293.68676758 480.39501953 C287.23178536 486.53571422 279.64330279 490.80914983 271.91333008 495.12939453 C270.48053711 495.94923828 270.48053711 495.94923828 269.01879883 496.78564453 C249.57116653 507.24674574 226.27251324 512.57759333 204.39111328 514.22753906 C203.31685498 514.3102965 202.24259668 514.39305393 201.1357851 514.47831917 C188.60643902 515.38046744 176.07577773 515.59016948 163.51879883 515.74658203 C160.91334334 515.78435752 158.3078899 515.82227431 155.70243835 515.86032104 C127.3223026 516.25743631 98.94029335 516.28230539 70.55791366 516.25796485 C65.58824424 516.25414501 60.61859453 516.25559758 55.64892578 516.25976562 C-77.98469267 516.3688733 -77.98469267 516.3688733 -122.08666992 478.12939453 C-122.9400293 477.41009766 -123.79338867 476.69080078 -124.67260742 475.94970703 C-155.53819589 449.26284438 -166.53139041 408.58712823 -169.6628418 369.38818359 C-170.41486151 358.97799007 -170.57611024 348.56275736 -170.71166992 338.12939453 C-170.73001892 336.90034393 -170.74836792 335.67129333 -170.76727295 334.40499878 C-171.20789076 304.17048159 -171.19269949 273.93088492 -171.20915985 243.69378662 C-171.21142243 239.72741552 -171.21560909 235.76104728 -171.2197876 231.79467773 C-171.34937396 88.4573028 -171.34937396 88.4573028 -128.80541992 43.77392578 C-124.47361959 39.56037862 -119.90672768 35.76917422 -115.08666992 32.12939453 C-114.3106543 31.53771484 -113.53463867 30.94603516 -112.73510742 30.33642578 C-99.56002228 20.70847895 -85.51272898 14.24807323 -70.08666992 9.12939453 C-68.41991211 8.54544922 -68.41991211 8.54544922 -66.71948242 7.94970703 C-45.498449 1.12299054 -22.13726506 -0.03009343 0 0 Z " fill="#000000" transform="translate(486.086669921875,45.87060546875)"/>
<path d="M0 0 C1.6920475 -0.00135806 3.3840947 -0.00314026 5.07614136 -0.00531006 C9.64569004 -0.00984357 14.21521596 -0.00810974 18.78476501 -0.00493097 C23.60995397 -0.00237748 28.43514115 -0.00475397 33.2603302 -0.00631714 C41.38302962 -0.00813383 49.50571994 -0.00574949 57.62841797 -0.00097656 C66.92906091 0.00442654 76.22968179 0.0027304 85.53032416 -0.00280297 C93.57942488 -0.00739492 101.62851909 -0.00795427 109.67762071 -0.0053643 C114.45553178 -0.0038295 119.23343264 -0.0035278 124.011343 -0.00690079 C142.12093656 -0.01791248 160.21845556 0.0349585 178.32080078 0.59082031 C179.33047206 0.6215396 179.33047206 0.6215396 180.36054075 0.65287948 C220.54407838 1.91141186 261.54678248 9.06805935 292.91333008 36.12939453 C294.26297852 37.28955078 294.26297852 37.28955078 295.63989258 38.47314453 C298.10732208 40.64984971 300.51539451 42.87666267 302.91333008 45.12939453 C303.5759082 45.71591797 304.23848633 46.30244141 304.92114258 46.90673828 C332.31520396 72.24901774 342.04742006 114.42165516 343.91333008 150.12939453 C344.09562295 157.0259449 344.06060268 163.92632008 344.05859375 170.82470703 C344.06159119 172.89104777 344.06499505 174.95738795 344.06877136 177.02372742 C344.0775577 182.60477115 344.07994725 188.18579953 344.08058715 193.76684952 C344.08130089 197.26452033 344.08344137 200.76218732 344.08608437 204.25985718 C344.09532122 216.49322759 344.09942148 228.72658715 344.09863281 240.95996094 C344.09803301 252.31205833 344.10856995 263.66410805 344.12437648 275.01619339 C344.13751217 284.80354152 344.14281417 294.59087419 344.1421774 304.37823105 C344.14192411 310.20539785 344.14468085 316.03252226 344.15535545 321.85968018 C344.16513811 327.34929298 344.16504703 332.83882378 344.15783882 338.32843971 C344.15680536 340.32565241 344.15908061 342.32287049 344.16519928 344.32007408 C344.21423578 361.45743835 343.32137378 378.57301855 340.10083008 395.44189453 C339.93123779 396.34794434 339.76164551 397.25399414 339.58691406 398.1875 C333.46413065 429.50629733 318.14049309 455.59092672 295.91333008 478.12939453 C295.17856445 478.87705078 294.44379883 479.62470703 293.68676758 480.39501953 C287.23178536 486.53571422 279.64330279 490.80914983 271.91333008 495.12939453 C270.48053711 495.94923828 270.48053711 495.94923828 269.01879883 496.78564453 C249.57116653 507.24674574 226.27251324 512.57759333 204.39111328 514.22753906 C203.31685498 514.3102965 202.24259668 514.39305393 201.1357851 514.47831917 C188.60643902 515.38046744 176.07577773 515.59016948 163.51879883 515.74658203 C160.91334334 515.78435752 158.3078899 515.82227431 155.70243835 515.86032104 C127.3223026 516.25743631 98.94029335 516.28230539 70.55791366 516.25796485 C65.58824424 516.25414501 60.61859453 516.25559758 55.64892578 516.25976562 C-77.98469267 516.3688733 -77.98469267 516.3688733 -122.08666992 478.12939453 C-122.9400293 477.41009766 -123.79338867 476.69080078 -124.67260742 475.94970703 C-155.53819589 449.26284438 -166.53139041 408.58712823 -169.6628418 369.38818359 C-170.41486151 358.97799007 -170.57611024 348.56275736 -170.71166992 338.12939453 C-170.73001892 336.90034393 -170.74836792 335.67129333 -170.76727295 334.40499878 C-171.20789076 304.17048159 -171.19269949 273.93088492 -171.20915985 243.69378662 C-171.21142243 239.72741552 -171.21560909 235.76104728 -171.2197876 231.79467773 C-171.34937396 88.4573028 -171.34937396 88.4573028 -128.80541992 43.77392578 C-124.47361959 39.56037862 -119.90672768 35.76917422 -115.08666992 32.12939453 C-114.3106543 31.53771484 -113.53463867 30.94603516 -112.73510742 30.33642578 C-99.56002228 20.70847895 -85.51272898 14.24807323 -70.08666992 9.12939453 C-68.41991211 8.54544922 -68.41991211 8.54544922 -66.71948242 7.94970703 C-45.498449 1.12299054 -22.13726506 -0.03009343 0 0 Z M-48.46166992 53.25439453 C-49.45078369 53.46684814 -50.43989746 53.67930176 -51.45898438 53.89819336 C-73.87597924 59.07441854 -93.61642854 72.95751704 -105.89306641 92.5390625 C-115.47833055 108.55521814 -120.19753794 125.81540444 -121.80151367 144.33251953 C-121.86179182 145.00624855 -121.92206997 145.67997757 -121.98417473 146.37412262 C-123.89332589 168.30715701 -123.5812131 190.38229013 -123.63964844 212.37896729 C-123.66785588 222.74899785 -123.71358394 233.1189019 -123.77807617 243.48876953 C-123.78457184 244.59232662 -123.7910675 245.69588371 -123.79776001 246.83288193 C-123.89544131 261.60217433 -124.42708091 276.19880594 -125.63037109 290.92041016 C-126.38558479 300.40771822 -126.45877991 309.90294397 -126.45727539 319.41601562 C-126.46170357 322.52804249 -126.49845586 325.63870364 -126.53588867 328.75048828 C-126.64830983 348.37355388 -123.93955364 366.96470753 -117.21166992 385.44189453 C-116.73550623 386.77475994 -116.25951884 388.10768834 -115.78369141 389.44067383 C-114.51933318 392.95112085 -113.2196025 396.44735762 -111.90679932 399.93994141 C-111.06344623 402.19139351 -110.2324578 404.44716003 -109.40258789 406.70361328 C-107.9786273 410.55774014 -106.51128342 414.39297287 -105.01312256 418.21884155 C-104.44737407 419.67457976 -103.89181802 421.13433009 -103.34771729 422.59829712 C-97.19053374 439.05514768 -85.73347675 448.40634064 -70.08666992 456.12939453 C-56.45990312 462.32967231 -42.23276509 465.36686335 -27.37426758 466.79638672 C-26.7235073 466.85936872 -26.07274703 466.92235072 -25.40226674 466.98724127 C-7.41648644 468.67910249 10.60290437 468.53447979 28.65069246 468.46650791 C33.54970385 468.45113392 38.44871634 468.45263811 43.3477478 468.45184326 C51.56203033 468.44818406 59.77622763 468.4333901 67.99047852 468.41064453 C78.44009277 468.3817626 88.88963885 468.37141108 99.33928871 468.36696243 C108.44887448 468.36294124 117.55844626 468.35045261 126.66802168 468.33661556 C129.53675396 468.33257675 132.40548579 468.32962138 135.27421951 468.32682037 C152.62423017 468.30693314 169.96751785 468.26537415 187.30932617 467.68701172 C188.44208292 467.64960499 189.57483967 467.61219826 190.74192238 467.57365799 C221.00106943 466.4149555 250.00188788 458.46272088 271.28833008 435.75439453 C282.05604765 422.7826239 289.72003187 406.67273945 292.91333008 390.12939453 C293.0643581 389.37718408 293.21538612 388.62497362 293.37099075 387.84996891 C298.44166251 361.58299307 297.21505895 334.09064314 297.18198109 307.46612287 C297.1768344 302.01020452 297.18163513 296.5542921 297.18475342 291.09837341 C297.18836364 281.96180997 297.18366733 272.82527916 297.17407227 263.6887207 C297.16314429 253.16206986 297.16675655 242.63549625 297.17772508 232.1088472 C297.18682406 223.00747539 297.18807194 213.9061267 297.18284774 204.80475181 C297.17974865 199.39555878 297.17926247 193.98640201 297.18592072 188.57721138 C297.19173358 183.50353139 297.18762582 178.42995064 297.1761322 173.35628128 C297.17350869 171.50608547 297.17421071 169.65588118 297.17865753 167.80568886 C297.23410244 142.37742309 290.69785891 122.93522817 279.43579102 100.24902344 C278.00482735 97.31687884 276.63988756 94.3640325 275.29614258 91.39111328 C270.69390815 81.36048544 266.61747034 74.03305401 256.91333008 68.12939453 C256.34404785 67.75814453 255.77476562 67.38689453 255.18823242 67.00439453 C237.98890696 55.81724301 217.04371228 50.62051039 196.67350769 49.56425476 C195.5092738 49.502373 195.5092738 49.502373 194.32152003 49.43924111 C185.17459568 48.99225062 176.03126688 48.98124871 166.87548828 48.98413086 C164.93973222 48.98112947 163.00397676 48.97772473 161.06822205 48.97395325 C155.86542699 48.96520948 150.66264843 48.96277926 145.45984674 48.96213746 C142.19480425 48.96142155 138.92976582 48.95927712 135.66472435 48.95664024 C124.23302321 48.94741922 112.80133364 48.94330134 101.36962891 48.9440918 C90.7792035 48.94469196 80.18882913 48.93414369 69.59841663 48.91834813 C60.44957218 48.90519772 51.30074426 48.89991101 42.15189046 48.90054721 C36.71261904 48.90079996 31.27339309 48.89807337 25.83413124 48.88736916 C-11.51667282 48.41810881 -11.51667282 48.41810881 -48.46166992 53.25439453 Z " fill="#FBFBFB" transform="translate(486.086669921875,45.87060546875)"/>
<path d="M0 0 C1.01788605 0.00747757 1.01788605 0.00747757 2.05633545 0.0151062 C38.265223 0.32619739 71.12150771 14.5508153 97.25 39.625 C115.10440451 58.02044707 127.28176557 81.36636544 132.6875 106.375 C133.02394531 107.81166016 133.02394531 107.81166016 133.3671875 109.27734375 C139.96788779 142.95899931 131.30353965 177.88900515 112.375 206.0625 C97.16782059 227.12860984 79.38819727 242.48953703 55.6875 253.375 C54.65834473 253.85912354 54.65834473 253.85912354 53.60839844 254.35302734 C51.52102387 255.32534304 49.42068209 256.26126767 47.3125 257.1875 C46.71469727 257.4654541 46.11689453 257.7434082 45.50097656 258.02978516 C32.60719447 263.47566793 17.76502161 263.87528381 3.97314453 263.76611328 C1.55574594 263.74995485 -0.85999335 263.76612199 -3.27734375 263.78515625 C-35.96395785 263.8313756 -64.15276274 250.20666028 -87.59375 227.91796875 C-90.29661567 225.32535953 -90.29661567 225.32535953 -93.3125 222.96875 C-96.60469293 220.12237486 -99.17240313 217.12552427 -101.8125 213.6875 C-102.53022583 212.7605835 -102.53022583 212.7605835 -103.26245117 211.81494141 C-107.02858156 206.88345444 -110.36960509 201.84409673 -113.3125 196.375 C-113.80105469 195.50101563 -114.28960937 194.62703125 -114.79296875 193.7265625 C-117.91282631 187.87181695 -120.35134606 181.8878685 -122.5 175.625 C-122.85674805 174.60889648 -122.85674805 174.60889648 -123.22070312 173.57226562 C-127.64968627 160.11163057 -128.85007541 146.76291417 -128.81347656 132.69458008 C-128.81250448 130.07456242 -128.85430762 127.45748907 -128.8984375 124.83789062 C-129.10694379 95.28761849 -116.18137132 68.58780195 -97.3125 46.375 C-96.6006958 45.53340332 -96.6006958 45.53340332 -95.87451172 44.67480469 C-72.25549376 17.09393858 -36.47485858 -0.39720599 0 0 Z " fill="#FBFBFB" transform="translate(570.3125,171.625)"/>
<path d="M0 0 C0.63647461 0.27875977 1.27294922 0.55751953 1.92871094 0.84472656 C14.91046495 6.75028015 27.37711215 15.54004801 36 27 C36.87011719 28.10021484 36.87011719 28.10021484 37.7578125 29.22265625 C52.03724046 48.23098567 55.53486083 72.83637995 53 96 C50.65148677 108.44771772 45.42202757 119.78396591 38 130 C37.37351562 130.88816406 36.74703125 131.77632812 36.1015625 132.69140625 C22.87865229 150.36692908 1.5669207 161.54421232 -19.8125 165.75 C-42.53149571 167.71929984 -65.71471749 163.18446509 -83.86328125 148.68359375 C-84.91551237 147.7969041 -85.96112895 146.90230584 -87 146 C-87.78576416 145.3196167 -87.78576416 145.3196167 -88.58740234 144.62548828 C-104.99519322 130.06275019 -116.74378139 109.62467698 -118.1640625 87.43701172 C-119.17315242 63.45851248 -112.66423539 42.18226094 -96.6875 23.875 C-72.17100123 -2.25388234 -34.44564837 -15.15896927 0 0 Z " fill="#000000" transform="translate(605,224)"/>
<path d="M0 0 C380.16 0 760.32 0 1152 0 C1152 213.84 1152 427.68 1152 648 C771.84 648 391.68 648 0 648 C0 434.16 0 220.32 0 0 Z M1 1 C1 214.18 1 427.36 1 647 C380.5 647 760 647 1151 647 C1151 433.82 1151 220.64 1151 1 C771.5 1 392 1 1 1 Z " fill="#000000" transform="translate(0,0)"/>
<path d="M0 0 C6.06230248 4.95824077 10.74103869 10.37633811 11.82470703 18.34863281 C12.77642838 29.3160884 11.80045759 37.77197176 4.75 46.5390625 C-1.31353129 53.18469279 -7.14959383 56.31606919 -16.18359375 56.87524414 C-25.88254545 57.12886354 -33.4948116 54.74065022 -40.86328125 48.1484375 C-47.10297199 41.53504477 -50.03415156 35.06511046 -49.953125 25.9921875 C-49.94740479 25.24598145 -49.94168457 24.49977539 -49.93579102 23.73095703 C-49.66812063 15.42326149 -46.79805196 9.64078523 -41.265625 3.4921875 C-29.56394487 -7.33890811 -13.14533688 -9.08451625 0 0 Z " fill="#F9F9F9" transform="translate(728.453125,141.6953125)"/>
<path d="M0 0 C1.6920475 -0.00135806 3.3840947 -0.00314026 5.07614136 -0.00531006 C9.64569004 -0.00984357 14.21521596 -0.00810974 18.78476501 -0.00493097 C23.60995397 -0.00237748 28.43514115 -0.00475397 33.2603302 -0.00631714 C41.38302962 -0.00813383 49.50571994 -0.00574949 57.62841797 -0.00097656 C66.92906091 0.00442654 76.22968179 0.0027304 85.53032416 -0.00280297 C93.57942488 -0.00739492 101.62851909 -0.00795427 109.67762071 -0.0053643 C114.45553178 -0.0038295 119.23343264 -0.0035278 124.011343 -0.00690079 C142.12093656 -0.01791248 160.21845556 0.0349585 178.32080078 0.59082031 C179.33047206 0.6215396 179.33047206 0.6215396 180.36054075 0.65287948 C220.54407838 1.91141186 261.54678248 9.06805935 292.91333008 36.12939453 C294.26297852 37.28955078 294.26297852 37.28955078 295.63989258 38.47314453 C298.10732208 40.64984971 300.51539451 42.87666267 302.91333008 45.12939453 C303.5759082 45.71591797 304.23848633 46.30244141 304.92114258 46.90673828 C332.31520396 72.24901774 342.04742006 114.42165516 343.91333008 150.12939453 C344.09562295 157.0259449 344.06060268 163.92632008 344.05859375 170.82470703 C344.06159119 172.89104777 344.06499505 174.95738795 344.06877136 177.02372742 C344.0775577 182.60477115 344.07994725 188.18579953 344.08058715 193.76684952 C344.08130089 197.26452033 344.08344137 200.76218732 344.08608437 204.25985718 C344.09532122 216.49322759 344.09942148 228.72658715 344.09863281 240.95996094 C344.09803301 252.31205833 344.10856995 263.66410805 344.12437648 275.01619339 C344.13751217 284.80354152 344.14281417 294.59087419 344.1421774 304.37823105 C344.14192411 310.20539785 344.14468085 316.03252226 344.15535545 321.85968018 C344.16513811 327.34929298 344.16504703 332.83882378 344.15783882 338.32843971 C344.15680536 340.32565241 344.15908061 342.32287049 344.16519928 344.32007408 C344.21423578 361.45743835 343.32137378 378.57301855 340.10083008 395.44189453 C339.93123779 396.34794434 339.76164551 397.25399414 339.58691406 398.1875 C333.46413065 429.50629733 318.14049309 455.59092672 295.91333008 478.12939453 C295.17856445 478.87705078 294.44379883 479.62470703 293.68676758 480.39501953 C287.23178536 486.53571422 279.64330279 490.80914983 271.91333008 495.12939453 C270.48053711 495.94923828 270.48053711 495.94923828 269.01879883 496.78564453 C249.57116653 507.24674574 226.27251324 512.57759333 204.39111328 514.22753906 C203.31685498 514.3102965 202.24259668 514.39305393 201.1357851 514.47831917 C188.60643902 515.38046744 176.07577773 515.59016948 163.51879883 515.74658203 C160.91334334 515.78435752 158.3078899 515.82227431 155.70243835 515.86032104 C127.3223026 516.25743631 98.94029335 516.28230539 70.55791366 516.25796485 C65.58824424 516.25414501 60.61859453 516.25559758 55.64892578 516.25976562 C-77.98469267 516.3688733 -77.98469267 516.3688733 -122.08666992 478.12939453 C-122.9400293 477.41009766 -123.79338867 476.69080078 -124.67260742 475.94970703 C-155.53819589 449.26284438 -166.53139041 408.58712823 -169.6628418 369.38818359 C-170.41486151 358.97799007 -170.57611024 348.56275736 -170.71166992 338.12939453 C-170.73001892 336.90034393 -170.74836792 335.67129333 -170.76727295 334.40499878 C-171.20789076 304.17048159 -171.19269949 273.93088492 -171.20915985 243.69378662 C-171.21142243 239.72741552 -171.21560909 235.76104728 -171.2197876 231.79467773 C-171.34937396 88.4573028 -171.34937396 88.4573028 -128.80541992 43.77392578 C-124.47361959 39.56037862 -119.90672768 35.76917422 -115.08666992 32.12939453 C-114.3106543 31.53771484 -113.53463867 30.94603516 -112.73510742 30.33642578 C-99.56002228 20.70847895 -85.51272898 14.24807323 -70.08666992 9.12939453 C-68.41991211 8.54544922 -68.41991211 8.54544922 -66.71948242 7.94970703 C-45.498449 1.12299054 -22.13726506 -0.03009343 0 0 Z M-128.08666992 46.12939453 C-128.64572021 46.66072998 -129.20477051 47.19206543 -129.78076172 47.73950195 C-134.04230274 51.86562625 -137.62903157 56.20786508 -141.02416992 61.06689453 C-141.53995605 61.80415771 -142.05574219 62.5414209 -142.5871582 63.30102539 C-147.55617523 70.56552066 -151.54031991 78.08692491 -155.08666992 86.12939453 C-155.88331055 87.88123047 -155.88331055 87.88123047 -156.69604492 89.66845703 C-164.32179854 108.02529693 -167.748147 129.09467662 -168.63909912 148.88188171 C-168.68117265 149.79814793 -168.72324617 150.71441415 -168.76659465 151.65844601 C-169.17316342 161.13618282 -169.24223428 170.60454705 -169.24780273 180.08959961 C-169.25245021 181.98163953 -169.25747732 183.87367855 -169.2628479 185.76571655 C-169.27578804 190.83877355 -169.28238016 195.91181745 -169.28685856 200.98488832 C-169.28981925 204.17514033 -169.29392914 207.36538898 -169.29836273 210.55563927 C-169.31198891 220.59790107 -169.32167941 230.64015493 -169.32556462 240.68242532 C-169.33003426 252.16239931 -169.34755207 263.64225359 -169.37656522 275.12219125 C-169.39837799 284.07251235 -169.4082792 293.02280025 -169.40960574 301.97314757 C-169.41063984 307.28358114 -169.416242 312.59390151 -169.43442535 317.90430641 C-169.60692634 371.33606904 -168.34342783 428.22549993 -129.08666992 469.12939453 C-128.39057617 469.87705078 -127.69448242 470.62470703 -126.97729492 471.39501953 C-115.88198411 482.97625637 -103.18166171 490.78129455 -89.08666992 498.12939453 C-88.36447266 498.50902344 -87.64227539 498.88865234 -86.89819336 499.27978516 C-61.89039058 512.36219962 -37.61667446 514.29240272 -9.76928711 514.25878906 C-7.86182115 514.26014724 -5.95435546 514.2619295 -4.04689026 514.26409912 C1.10110024 514.26863013 6.24907053 514.26690016 11.39706135 514.26372004 C16.83036155 514.26116657 22.26366017 514.2635429 27.69696045 514.2651062 C36.83923651 514.26692234 45.98150447 514.26453942 55.1237793 514.25976562 C65.60141636 514.2543567 76.07903386 514.25606321 86.55667043 514.26159203 C95.61983124 514.26617836 104.68298627 514.26674615 113.74614787 514.26415336 C119.12824621 514.26261634 124.51033546 514.26232352 129.89243317 514.26568985 C149.65351685 514.27628933 169.40779136 514.25532523 189.16235352 513.69921875 C189.85402886 513.68087424 190.5457042 513.66252972 191.25833941 513.64362931 C202.01551469 513.3480664 212.40622203 512.46797456 222.91333008 510.12939453 C224.09693115 509.87416016 224.09693115 509.87416016 225.30444336 509.61376953 C249.12538062 504.37737115 272.40249237 496.59465054 290.91333008 480.12939453 C292.04254883 479.19546875 292.04254883 479.19546875 293.19458008 478.24267578 C299.23704056 473.14176308 304.08153297 467.36802338 308.91333008 461.12939453 C309.66743164 460.17935547 310.4215332 459.22931641 311.19848633 458.25048828 C341.55219203 419.14991713 342.54882869 371.93647019 342.41770053 324.60495782 C342.4036762 318.27237837 342.41032942 311.93981296 342.41383362 305.60722351 C342.41652159 294.98394513 342.40327119 284.36079218 342.37988281 273.73754883 C342.35595659 262.86836527 342.34889039 251.99933213 342.359375 241.13012695 C342.37207824 227.93779474 342.36942863 214.74554855 342.3537159 201.55321312 C342.34800892 196.55104123 342.3479965 191.54891972 342.3527813 186.54674721 C342.35760834 180.64240951 342.34721635 174.73827577 342.32582664 168.83397675 C342.32033641 166.68763351 342.31972033 164.54127036 342.32477951 162.39492607 C342.41400656 119.05600701 331.96559891 76.3141316 300.64379883 44.76611328 C293.66675977 38.00196877 286.12857271 32.32719022 277.91333008 27.12939453 C276.82536133 26.44103516 275.73739258 25.75267578 274.61645508 25.04345703 C249.56588848 9.97848496 220.16300903 3.65820157 191.20849609 2.56323242 C190.18947236 2.52310311 189.17044863 2.4829738 188.12054539 2.44162846 C174.66787199 1.9571852 161.20775292 1.90153961 147.74794078 1.8260715 C143.89562623 1.80361898 140.04334393 1.77648738 136.1910553 1.75001526 C129.70534811 1.70609696 123.21962766 1.66530585 116.73388672 1.62670898 C110.18634106 1.58773108 103.63881902 1.54622019 97.09130859 1.50170898 C96.29035873 1.49626855 95.48940886 1.49082811 94.66418779 1.48522282 C93.46524005 1.47707633 93.46524005 1.47707633 92.24207115 1.46876526 C74.51051075 1.34829271 56.77891697 1.24579726 39.04715455 1.16017151 C34.50376792 1.13799986 29.96041188 1.11238452 25.41705322 1.08496094 C19.9175747 1.05223965 14.41813116 1.02788987 8.91858101 1.01121712 C7.01126414 1.00425408 5.10395454 0.99456242 3.19666862 0.98165703 C-45.71110815 0.66184838 -92.19790928 11.23616123 -128.08666992 46.12939453 Z " fill="#191919" transform="translate(486.086669921875,45.87060546875)"/>
<path d="M0 0 C20.49871373 -0.04693155 40.9974164 -0.08209172 61.4961729 -0.10362434 C71.01626581 -0.11389256 80.53632514 -0.12786658 90.05639648 -0.15087891 C98.36388751 -0.17095038 106.67135418 -0.18374871 114.97886878 -0.18817699 C119.36871694 -0.19076133 123.75849552 -0.1967401 128.14832115 -0.21146011 C150.13060414 -0.28228718 171.9252437 -0.31004847 193.5625 4.1875 C194.60567383 4.40325684 195.64884766 4.61901367 196.72363281 4.84130859 C219.89008996 9.8610609 241.95330514 19.43030247 260 35 C261.34964844 36.16015625 261.34964844 36.16015625 262.7265625 37.34375 C265.193992 39.52045518 267.60206443 41.74726814 270 44 C270.66257812 44.58652344 271.32515625 45.17304687 272.0078125 45.77734375 C292.90952694 65.11354516 302.874233 94.83012556 308 122 C308.17648512 122.93465151 308.35297024 123.86930302 308.53480339 124.8322773 C310.37119457 135.93555032 310.26751985 146.92724636 310.22705078 158.15185547 C310.22648568 160.36078893 310.22680516 162.56972276 310.22793579 164.77865601 C310.22850644 170.73634809 310.216799 176.6939586 310.20278788 182.65163183 C310.19023225 188.89227217 310.18910622 195.13291465 310.18673706 201.37356567 C310.18123964 211.83548354 310.16877198 222.2973737 310.15087891 232.75927734 C310.13248013 243.52815606 310.11834327 254.29702668 310.10986328 265.06591797 C310.10933783 265.73132685 310.10881239 266.39673573 310.10827102 267.08230852 C310.10566067 270.42095155 310.10313784 273.75959463 310.10064721 277.09823775 C310.07977736 304.73217915 310.0446291 332.36608748 310 360 C309.67 360 309.34 360 309 360 C308.99761165 358.89253386 308.99522329 357.78506773 308.99276257 356.64404202 C308.93377668 329.60580558 308.85777729 302.56765688 308.76428509 275.52951717 C308.71945911 262.45368701 308.68001451 249.37788327 308.65356445 236.30200195 C308.63047696 224.89536821 308.59696042 213.48881906 308.55129844 202.08225256 C308.52751028 196.05138874 308.50868765 190.02060795 308.50238609 183.98969841 C308.49626935 178.29416617 308.47603668 172.59884598 308.44572449 166.90339279 C308.43704848 164.83125732 308.43319952 162.75909401 308.43499184 160.68694115 C308.4603707 117.74368602 297.9799729 75.12893618 266.953125 43.859375 C237.97012588 15.84152026 197.86890908 3.93672802 158.3984375 2.43383789 C157.38274185 2.39370858 156.3670462 2.35357927 155.3205719 2.31223392 C141.31486091 1.80920477 127.29990815 1.77148434 113.28682709 1.69667697 C109.287064 1.6744026 105.28733389 1.64722208 101.28759766 1.62062073 C93.75543895 1.57124151 86.2232614 1.52610597 78.69106674 1.48259836 C70.09814879 1.43274941 61.50526399 1.37801232 52.91237831 1.32291877 C35.27494971 1.20994257 17.63749005 1.10292894 0 1 C0 0.67 0 0.34 0 0 Z " fill="#333333" transform="translate(519,47)"/>
<path d="M0 0 C1.74559019 0.00028262 3.49118051 0.00012268 5.23677063 -0.0004425 C9.94046606 -0.00072757 14.6441356 0.00512197 19.34782505 0.01213145 C24.2765394 0.01841357 29.20525444 0.01897262 34.13397217 0.02015686 C43.45151921 0.02325591 52.76905441 0.03144997 62.08659625 0.04150635 C72.70093941 0.05271191 83.31528315 0.05818911 93.92963076 0.06320179 C115.74964324 0.07363386 137.56964509 0.09120553 159.38964844 0.11352539 C159.38964844 0.44352539 159.38964844 0.77352539 159.38964844 1.11352539 C158.09291844 1.11572523 158.09291844 1.11572523 156.76999187 1.11796951 C135.56080884 1.15531066 114.35178213 1.21467895 93.14272594 1.29742813 C82.88543179 1.33693763 72.62821124 1.36947061 62.37084961 1.38452148 C53.41197428 1.39768593 44.45326283 1.4250169 35.49447995 1.46813846 C30.76770285 1.49042754 26.0411253 1.50645625 21.314291 1.50540924 C2.79840402 1.50578287 -15.51340862 1.83669973 -33.92163086 3.97973633 C-34.63619245 4.06259903 -35.35075404 4.14546174 -36.08696902 4.23083544 C-75.41588779 8.91221897 -112.51759806 25.69226439 -137.61035156 57.11352539 C-157.34933916 83.51078558 -166.45280269 115.03692727 -168.14550781 147.76977539 C-168.18848495 148.55751343 -168.2314621 149.34525146 -168.27574158 150.15686035 C-168.41074164 152.64228177 -168.54186358 155.12788963 -168.67285156 157.61352539 C-168.76439076 159.31145597 -168.85618526 161.0093728 -168.94824219 162.70727539 C-169.17189463 166.84253917 -169.39207226 170.97797465 -169.61035156 175.11352539 C-169.94035156 175.11352539 -170.27035156 175.11352539 -170.61035156 175.11352539 C-171.43488495 126.9480904 -163.68441838 79.84101152 -129.32910156 43.75805664 C-124.99730124 39.54450948 -120.43040932 35.75330508 -115.61035156 32.11352539 C-114.83433594 31.5218457 -114.05832031 30.93016602 -113.25878906 30.32055664 C-100.08370392 20.69260981 -86.03641063 14.23220409 -70.61035156 9.11352539 C-68.94359375 8.52958008 -68.94359375 8.52958008 -67.24316406 7.93383789 C-45.84452505 1.04998644 -22.31575895 -0.05101975 0 0 Z " fill="#0C0C0C" transform="translate(486.6103515625,45.886474609375)"/>
<path d="M0 0 C0.33 0 0.66 0 1 0 C1.04685789 27.40905753 1.08205613 54.81810899 1.10362434 82.2271986 C1.11390796 94.95559725 1.12791215 107.68397091 1.15087891 120.41235352 C1.17090247 131.51494325 1.18373758 142.61751487 1.18817699 153.72012216 C1.19076927 159.59108334 1.19680055 165.46199276 1.21146011 171.33293724 C1.22518618 176.8757209 1.22919277 182.41843219 1.22621536 187.96123123 C1.22675889 189.97939893 1.23064579 191.99756944 1.23841095 194.01572227 C1.30125744 211.21484688 0.41977397 228.38218208 -2.8125 245.3125 C-2.98209229 246.2185498 -3.15168457 247.12459961 -3.32641602 248.05810547 C-9.44919943 279.3769028 -24.77283699 305.46153219 -47 328 C-47.73476563 328.74765625 -48.46953125 329.4953125 -49.2265625 330.265625 C-60.86736123 341.33964327 -77.54063621 350.10095692 -93 354 C-93 353.34 -93 352.68 -93 352 C-91.80246094 351.52691406 -90.60492187 351.05382812 -89.37109375 350.56640625 C-73.52884963 344.18568406 -60.17430447 337.13412525 -48 325 C-47.16082031 324.16855469 -46.32164062 323.33710937 -45.45703125 322.48046875 C-9.85265716 286.53646629 -0.93903354 239.3940971 -0.79467773 190.26855469 C-0.78508366 188.18799146 -0.77507272 186.10743012 -0.76467896 184.02687073 C-0.73778938 178.41000403 -0.71669411 172.79312907 -0.69667697 167.17623425 C-0.67471832 161.2945781 -0.64737823 155.41294696 -0.62062073 149.53131104 C-0.5708268 138.40756907 -0.52583896 127.28381312 -0.48259836 116.16004395 C-0.43311189 103.49009901 -0.37823629 90.82017916 -0.32291877 78.15025854 C-0.20930306 52.10019582 -0.10242005 26.05010898 0 0 Z " fill="#0C0C0C" transform="translate(829,196)"/>
<path d="M0 0 C3.68069887 1.53643852 5.98775204 3.78150945 8.75 6.625 C9.54921875 7.44226563 10.3484375 8.25953125 11.171875 9.1015625 C12.07679688 10.04128906 12.07679688 10.04128906 13 11 C12.01 11.33 11.02 11.66 10 12 C8.32737283 10.38113585 6.66204463 8.7547271 5 7.125 C4.071875 6.22007812 3.14375 5.31515625 2.1875 4.3828125 C0 2 0 2 0 0 Z " fill="#1E1E1E" transform="translate(351,510)"/>
<path d="M0 0 C6.56351224 1.84598782 11.3373347 7.26493307 16 12 C11.86570534 11.44024989 9.45284712 9.18294987 6.3125 6.5625 C5.33925781 5.75941406 4.36601562 4.95632813 3.36328125 4.12890625 C1 2 1 2 0 0 Z " fill="#0D0D0D" transform="translate(363,522)"/>
<path d="M0 0 C4.875 4.625 4.875 4.625 6 8 C2.57701423 6.85900474 1.85241234 5.99914379 0 3 C0 2.01 0 1.02 0 0 Z " fill="#151515" transform="translate(797,101)"/>
</svg>
