<?xml version="1.0" encoding="UTF-8"?>
<svg xmlns="http://www.w3.org/2000/svg" xmlns:xlink="http://www.w3.org/1999/xlink" width="512px" height="512px" viewBox="0 0 512 512" version="1.1">
<g id="surface1">
<path style=" stroke:none;fill-rule:nonzero;fill:rgb(0%,0%,0%);fill-opacity:1;" d="M 216.039062 36.242188 C 216.789062 36.242188 217.542969 36.242188 218.292969 36.238281 C 220.324219 36.234375 222.355469 36.238281 224.386719 36.238281 C 226.53125 36.242188 228.675781 36.238281 230.820312 36.238281 C 234.429688 36.238281 238.042969 36.238281 241.652344 36.242188 C 245.785156 36.246094 249.917969 36.246094 254.050781 36.242188 C 257.628906 36.238281 261.207031 36.238281 264.785156 36.238281 C 266.90625 36.242188 269.03125 36.242188 271.15625 36.238281 C 279.203125 36.230469 287.246094 36.269531 295.292969 36.710938 C 295.742188 36.734375 295.742188 36.734375 296.199219 36.757812 C 314.058594 37.753906 332.28125 43.410156 346.222656 64.789062 C 346.820312 65.707031 346.820312 65.707031 347.433594 66.640625 C 348.53125 68.363281 349.601562 70.121094 350.667969 71.902344 C 350.960938 72.363281 351.253906 72.828125 351.558594 73.304688 C 363.734375 93.328125 368.058594 126.652344 368.890625 154.863281 C 368.96875 160.3125 368.953125 165.765625 368.953125 171.214844 C 368.953125 172.847656 368.957031 174.480469 368.957031 176.113281 C 368.960938 180.523438 368.964844 184.933594 368.964844 189.34375 C 368.964844 192.105469 368.964844 194.871094 368.964844 197.632812 C 368.96875 207.300781 368.972656 216.964844 368.972656 226.632812 C 368.972656 235.601562 368.976562 244.570312 368.984375 253.539062 C 368.988281 261.273438 368.992188 269.007812 368.992188 276.738281 C 368.992188 281.34375 368.992188 285.949219 368.996094 290.550781 C 369 294.890625 369 299.226562 368.996094 303.566406 C 368.996094 305.144531 369 306.722656 369 308.296875 C 369.023438 321.839844 368.625 335.363281 367.195312 348.691406 C 367.117188 349.40625 367.042969 350.125 366.964844 350.859375 C 364.246094 375.605469 357.433594 396.214844 347.554688 414.023438 C 347.230469 414.617188 346.902344 415.207031 346.566406 415.816406 C 343.695312 420.667969 340.324219 424.042969 336.890625 427.457031 C 336.253906 428.105469 336.253906 428.105469 335.601562 428.765625 C 326.960938 437.03125 316.605469 441.242188 306.878906 442.546875 C 306.402344 442.613281 305.925781 442.675781 305.433594 442.746094 C 299.863281 443.457031 294.292969 443.625 288.714844 443.746094 C 287.554688 443.777344 286.398438 443.808594 285.238281 443.835938 C 272.625 444.152344 260.011719 444.171875 247.398438 444.152344 C 245.1875 444.148438 242.980469 444.148438 240.769531 444.152344 C 181.378906 444.238281 181.378906 444.238281 161.777344 414.023438 C 161.398438 413.457031 161.019531 412.886719 160.628906 412.300781 C 146.910156 391.214844 142.023438 359.078125 140.632812 328.105469 C 140.296875 319.878906 140.226562 311.652344 140.167969 303.40625 C 140.160156 302.4375 140.148438 301.464844 140.140625 300.464844 C 139.945312 276.574219 139.953125 252.683594 139.945312 228.792969 C 139.945312 225.65625 139.941406 222.523438 139.941406 219.390625 C 139.882812 106.136719 139.882812 106.136719 158.792969 70.832031 C 160.71875 67.5 162.746094 64.503906 164.890625 61.628906 C 165.234375 61.164062 165.578125 60.695312 165.933594 60.214844 C 171.789062 52.605469 178.03125 47.5 184.890625 43.457031 C 185.628906 42.996094 185.628906 42.996094 186.386719 42.523438 C 195.816406 37.128906 206.199219 36.21875 216.039062 36.242188 Z M 216.039062 36.242188 "/>
<path style=" stroke:none;fill-rule:nonzero;fill:rgb(98.431373%,98.431373%,98.431373%);fill-opacity:1;" d="M 216.039062 36.242188 C 216.789062 36.242188 217.542969 36.242188 218.292969 36.238281 C 220.324219 36.234375 222.355469 36.238281 224.386719 36.238281 C 226.53125 36.242188 228.675781 36.238281 230.820312 36.238281 C 234.429688 36.238281 238.042969 36.238281 241.652344 36.242188 C 245.785156 36.246094 249.917969 36.246094 254.050781 36.242188 C 257.628906 36.238281 261.207031 36.238281 264.785156 36.238281 C 266.90625 36.242188 269.03125 36.242188 271.15625 36.238281 C 279.203125 36.230469 287.246094 36.269531 295.292969 36.710938 C 295.742188 36.734375 295.742188 36.734375 296.199219 36.757812 C 314.058594 37.753906 332.28125 43.410156 346.222656 64.789062 C 346.820312 65.707031 346.820312 65.707031 347.433594 66.640625 C 348.53125 68.363281 349.601562 70.121094 350.667969 71.902344 C 350.960938 72.363281 351.253906 72.828125 351.558594 73.304688 C 363.734375 93.328125 368.058594 126.652344 368.890625 154.863281 C 368.96875 160.3125 368.953125 165.765625 368.953125 171.214844 C 368.953125 172.847656 368.957031 174.480469 368.957031 176.113281 C 368.960938 180.523438 368.964844 184.933594 368.964844 189.34375 C 368.964844 192.105469 368.964844 194.871094 368.964844 197.632812 C 368.96875 207.300781 368.972656 216.964844 368.972656 226.632812 C 368.972656 235.601562 368.976562 244.570312 368.984375 253.539062 C 368.988281 261.273438 368.992188 269.007812 368.992188 276.738281 C 368.992188 281.34375 368.992188 285.949219 368.996094 290.550781 C 369 294.890625 369 299.226562 368.996094 303.566406 C 368.996094 305.144531 369 306.722656 369 308.296875 C 369.023438 321.839844 368.625 335.363281 367.195312 348.691406 C 367.117188 349.40625 367.042969 350.125 366.964844 350.859375 C 364.246094 375.605469 357.433594 396.214844 347.554688 414.023438 C 347.230469 414.617188 346.902344 415.207031 346.566406 415.816406 C 343.695312 420.667969 340.324219 424.042969 336.890625 427.457031 C 336.253906 428.105469 336.253906 428.105469 335.601562 428.765625 C 326.960938 437.03125 316.605469 441.242188 306.878906 442.546875 C 306.402344 442.613281 305.925781 442.675781 305.433594 442.746094 C 299.863281 443.457031 294.292969 443.625 288.714844 443.746094 C 287.554688 443.777344 286.398438 443.808594 285.238281 443.835938 C 272.625 444.152344 260.011719 444.171875 247.398438 444.152344 C 245.1875 444.148438 242.980469 444.148438 240.769531 444.152344 C 181.378906 444.238281 181.378906 444.238281 161.777344 414.023438 C 161.398438 413.457031 161.019531 412.886719 160.628906 412.300781 C 146.910156 391.214844 142.023438 359.078125 140.632812 328.105469 C 140.296875 319.878906 140.226562 311.652344 140.167969 303.40625 C 140.160156 302.4375 140.148438 301.464844 140.140625 300.464844 C 139.945312 276.574219 139.953125 252.683594 139.945312 228.792969 C 139.945312 225.65625 139.941406 222.523438 139.941406 219.390625 C 139.882812 106.136719 139.882812 106.136719 158.792969 70.832031 C 160.71875 67.5 162.746094 64.503906 164.890625 61.628906 C 165.234375 61.164062 165.578125 60.695312 165.933594 60.214844 C 171.789062 52.605469 178.03125 47.5 184.890625 43.457031 C 185.628906 42.996094 185.628906 42.996094 186.386719 42.523438 C 195.816406 37.128906 206.199219 36.21875 216.039062 36.242188 Z M 194.5 78.320312 C 194.058594 78.488281 193.621094 78.65625 193.167969 78.828125 C 183.203125 82.917969 174.429688 93.890625 168.976562 109.359375 C 164.714844 122.015625 162.617188 135.652344 161.90625 150.285156 C 161.878906 150.816406 161.851562 151.347656 161.824219 151.898438 C 160.976562 169.226562 161.113281 186.667969 161.085938 204.050781 C 161.074219 212.242188 161.054688 220.4375 161.027344 228.628906 C 161.023438 229.5 161.019531 230.375 161.015625 231.273438 C 160.972656 242.941406 160.738281 254.472656 160.203125 266.105469 C 159.867188 273.601562 159.835938 281.105469 159.835938 288.621094 C 159.832031 291.082031 159.816406 293.539062 159.800781 295.996094 C 159.75 311.5 160.953125 326.191406 163.945312 340.789062 C 164.15625 341.84375 164.367188 342.894531 164.578125 343.949219 C 165.140625 346.722656 165.71875 349.484375 166.300781 352.246094 C 166.675781 354.023438 167.046875 355.804688 167.414062 357.589844 C 168.046875 360.632812 168.699219 363.664062 169.367188 366.6875 C 169.617188 367.839844 169.863281 368.992188 170.105469 370.148438 C 172.84375 383.152344 177.933594 390.539062 184.890625 396.640625 C 190.945312 401.539062 197.269531 403.941406 203.871094 405.070312 C 204.160156 405.121094 204.449219 405.167969 204.75 405.222656 C 212.742188 406.558594 220.75 406.445312 228.773438 406.390625 C 230.949219 406.378906 233.125 406.378906 235.304688 406.378906 C 238.953125 406.375 242.605469 406.363281 246.257812 406.34375 C 250.902344 406.324219 255.546875 406.316406 260.1875 406.3125 C 264.238281 406.308594 268.285156 406.296875 272.335938 406.289062 C 273.609375 406.285156 274.886719 406.28125 276.160156 406.28125 C 283.871094 406.265625 291.578125 406.230469 299.285156 405.773438 C 299.789062 405.746094 300.292969 405.714844 300.8125 405.683594 C 314.261719 404.769531 327.152344 398.484375 336.609375 380.542969 C 341.398438 370.292969 344.804688 357.566406 346.222656 344.492188 C 346.289062 343.898438 346.355469 343.304688 346.425781 342.691406 C 348.679688 321.9375 348.132812 300.214844 348.121094 279.179688 C 348.117188 274.867188 348.121094 270.558594 348.121094 266.246094 C 348.121094 259.027344 348.121094 251.808594 348.117188 244.589844 C 348.109375 236.273438 348.113281 227.957031 348.117188 219.636719 C 348.121094 212.445312 348.121094 205.253906 348.121094 198.066406 C 348.117188 193.789062 348.117188 189.515625 348.121094 185.242188 C 348.125 181.234375 348.121094 177.226562 348.117188 173.214844 C 348.117188 171.753906 348.117188 170.292969 348.117188 168.832031 C 348.140625 148.738281 345.238281 133.378906 340.230469 115.453125 C 339.597656 113.136719 338.988281 110.800781 338.390625 108.453125 C 336.347656 100.527344 334.535156 94.738281 330.222656 90.074219 C 329.96875 89.78125 329.714844 89.488281 329.457031 89.183594 C 321.8125 80.347656 312.503906 76.238281 303.449219 75.40625 C 302.929688 75.355469 302.929688 75.355469 302.402344 75.304688 C 298.339844 74.953125 294.273438 74.945312 290.207031 74.945312 C 289.34375 74.945312 288.484375 74.941406 287.625 74.9375 C 285.3125 74.933594 283 74.929688 280.6875 74.929688 C 279.234375 74.929688 277.785156 74.925781 276.332031 74.925781 C 271.253906 74.917969 266.171875 74.914062 261.089844 74.914062 C 256.386719 74.914062 251.679688 74.90625 246.972656 74.894531 C 242.90625 74.882812 238.839844 74.878906 234.773438 74.882812 C 232.355469 74.882812 229.9375 74.878906 227.519531 74.871094 C 210.921875 74.5 210.921875 74.5 194.5 78.320312 Z M 194.5 78.320312 "/>
<path style=" stroke:none;fill-rule:nonzero;fill:rgb(98.431373%,98.431373%,98.431373%);fill-opacity:1;" d="M 253.472656 135.605469 C 253.925781 135.609375 253.925781 135.609375 254.386719 135.617188 C 270.480469 135.863281 285.082031 147.101562 296.695312 166.914062 C 304.628906 181.449219 310.042969 199.894531 312.445312 219.65625 C 312.59375 220.789062 312.59375 220.789062 312.746094 221.949219 C 315.679688 248.558594 311.828125 276.160156 303.417969 298.417969 C 296.65625 315.066406 288.757812 327.203125 278.222656 335.800781 C 277.765625 336.183594 277.765625 336.183594 277.296875 336.574219 C 276.371094 337.34375 275.4375 338.082031 274.5 338.816406 C 274.234375 339.035156 273.96875 339.253906 273.695312 339.480469 C 267.964844 343.785156 261.367188 344.097656 255.238281 344.011719 C 254.164062 344 253.089844 344.011719 252.015625 344.027344 C 237.488281 344.0625 224.960938 333.300781 214.542969 315.6875 C 213.339844 313.640625 213.339844 313.640625 212 311.777344 C 210.535156 309.527344 209.394531 307.160156 208.222656 304.445312 C 207.902344 303.710938 207.902344 303.710938 207.578125 302.964844 C 205.902344 299.070312 204.417969 295.085938 203.109375 290.765625 C 202.894531 290.074219 202.675781 289.382812 202.453125 288.671875 C 201.066406 284.046875 199.984375 279.320312 199.027344 274.371094 C 198.871094 273.566406 198.871094 273.566406 198.707031 272.75 C 196.738281 262.113281 196.207031 251.566406 196.222656 240.449219 C 196.222656 238.378906 196.203125 236.3125 196.183594 234.242188 C 196.089844 210.894531 201.835938 189.796875 210.222656 172.246094 C 210.539062 171.582031 210.539062 171.582031 210.859375 170.902344 C 221.359375 149.109375 237.261719 135.292969 253.472656 135.605469 Z M 253.472656 135.605469 "/>
<path style=" stroke:none;fill-rule:nonzero;fill:rgb(0%,0%,0%);fill-opacity:1;" d="M 268.890625 176.988281 C 269.171875 177.207031 269.453125 177.429688 269.746094 177.65625 C 275.515625 182.320312 281.054688 189.265625 284.890625 198.320312 C 285.277344 199.191406 285.277344 199.191406 285.671875 200.078125 C 292.015625 215.097656 293.570312 234.539062 292.445312 252.839844 C 291.402344 262.675781 289.078125 271.632812 285.777344 279.703125 C 285.5 280.40625 285.222656 281.105469 284.933594 281.832031 C 279.058594 295.796875 269.585938 304.628906 260.082031 307.949219 C 249.984375 309.507812 239.683594 305.921875 231.617188 294.464844 C 231.148438 293.765625 230.683594 293.058594 230.222656 292.34375 C 229.871094 291.808594 229.871094 291.808594 229.515625 291.257812 C 222.222656 279.753906 217.003906 263.605469 216.371094 246.074219 C 215.921875 227.128906 218.816406 210.316406 225.917969 195.851562 C 236.8125 175.207031 253.578125 165.011719 268.890625 176.988281 Z M 268.890625 176.988281 "/>
<path style=" stroke:none;fill-rule:nonzero;fill:rgb(0%,0%,0%);fill-opacity:1;" d="M 0 0 C 168.960938 0 337.921875 0 512 0 C 512 168.960938 512 337.921875 512 512 C 343.039062 512 174.078125 512 0 512 C 0 343.039062 0 174.078125 0 0 Z M 0.445312 0.789062 C 0.445312 169.230469 0.445312 337.667969 0.445312 511.210938 C 169.109375 511.210938 337.777344 511.210938 511.554688 511.210938 C 511.554688 342.769531 511.554688 174.332031 511.554688 0.789062 C 342.890625 0.789062 174.222656 0.789062 0.445312 0.789062 Z M 0.445312 0.789062 "/>
<path style=" stroke:none;fill-rule:nonzero;fill:rgb(97.647059%,97.647059%,97.647059%);fill-opacity:1;" d="M 323.757812 111.957031 C 326.453125 115.875 328.53125 120.15625 329.011719 126.453125 C 329.433594 135.121094 329 141.800781 325.867188 148.726562 C 323.171875 153.980469 320.578125 156.453125 316.5625 156.894531 C 312.253906 157.09375 308.871094 155.207031 305.59375 150 C 302.824219 144.773438 301.519531 139.664062 301.554688 132.492188 C 301.558594 131.902344 301.5625 131.316406 301.5625 130.707031 C 301.683594 124.144531 302.957031 119.574219 305.417969 114.714844 C 310.617188 106.15625 317.914062 104.777344 323.757812 111.957031 Z M 323.757812 111.957031 "/>
<path style=" stroke:none;fill-rule:nonzero;fill:rgb(9.803922%,9.803922%,9.803922%);fill-opacity:1;" d="M 216.039062 36.242188 C 216.789062 36.242188 217.542969 36.242188 218.292969 36.238281 C 220.324219 36.234375 222.355469 36.238281 224.386719 36.238281 C 226.53125 36.242188 228.675781 36.238281 230.820312 36.238281 C 234.429688 36.238281 238.042969 36.238281 241.652344 36.242188 C 245.785156 36.246094 249.917969 36.246094 254.050781 36.242188 C 257.628906 36.238281 261.207031 36.238281 264.785156 36.238281 C 266.90625 36.242188 269.03125 36.242188 271.15625 36.238281 C 279.203125 36.230469 287.246094 36.269531 295.292969 36.710938 C 295.742188 36.734375 295.742188 36.734375 296.199219 36.757812 C 314.058594 37.753906 332.28125 43.410156 346.222656 64.789062 C 346.820312 65.707031 346.820312 65.707031 347.433594 66.640625 C 348.53125 68.363281 349.601562 70.121094 350.667969 71.902344 C 350.960938 72.363281 351.253906 72.828125 351.558594 73.304688 C 363.734375 93.328125 368.058594 126.652344 368.890625 154.863281 C 368.96875 160.3125 368.953125 165.765625 368.953125 171.214844 C 368.953125 172.847656 368.957031 174.480469 368.957031 176.113281 C 368.960938 180.523438 368.964844 184.933594 368.964844 189.34375 C 368.964844 192.105469 368.964844 194.871094 368.964844 197.632812 C 368.96875 207.300781 368.972656 216.964844 368.972656 226.632812 C 368.972656 235.601562 368.976562 244.570312 368.984375 253.539062 C 368.988281 261.273438 368.992188 269.007812 368.992188 276.738281 C 368.992188 281.34375 368.992188 285.949219 368.996094 290.550781 C 369 294.890625 369 299.226562 368.996094 303.566406 C 368.996094 305.144531 369 306.722656 369 308.296875 C 369.023438 321.839844 368.625 335.363281 367.195312 348.691406 C 367.117188 349.40625 367.042969 350.125 366.964844 350.859375 C 364.246094 375.605469 357.433594 396.214844 347.554688 414.023438 C 347.230469 414.617188 346.902344 415.207031 346.566406 415.816406 C 343.695312 420.667969 340.324219 424.042969 336.890625 427.457031 C 336.253906 428.105469 336.253906 428.105469 335.601562 428.765625 C 326.960938 437.03125 316.605469 441.242188 306.878906 442.546875 C 306.402344 442.613281 305.925781 442.675781 305.433594 442.746094 C 299.863281 443.457031 294.292969 443.625 288.714844 443.746094 C 287.554688 443.777344 286.398438 443.808594 285.238281 443.835938 C 272.625 444.152344 260.011719 444.171875 247.398438 444.152344 C 245.1875 444.148438 242.980469 444.148438 240.769531 444.152344 C 181.378906 444.238281 181.378906 444.238281 161.777344 414.023438 C 161.398438 413.457031 161.019531 412.886719 160.628906 412.300781 C 146.910156 391.214844 142.023438 359.078125 140.632812 328.105469 C 140.296875 319.878906 140.226562 311.652344 140.167969 303.40625 C 140.160156 302.4375 140.148438 301.464844 140.140625 300.464844 C 139.945312 276.574219 139.953125 252.683594 139.945312 228.792969 C 139.945312 225.65625 139.941406 222.523438 139.941406 219.390625 C 139.882812 106.136719 139.882812 106.136719 158.792969 70.832031 C 160.71875 67.5 162.746094 64.503906 164.890625 61.628906 C 165.234375 61.164062 165.578125 60.695312 165.933594 60.214844 C 171.789062 52.605469 178.03125 47.5 184.890625 43.457031 C 185.628906 42.996094 185.628906 42.996094 186.386719 42.523438 C 195.816406 37.128906 206.199219 36.21875 216.039062 36.242188 Z M 159.109375 72.691406 C 158.863281 73.109375 158.613281 73.53125 158.359375 73.964844 C 156.464844 77.222656 154.871094 80.65625 153.359375 84.492188 C 153.132812 85.078125 152.902344 85.660156 152.667969 86.257812 C 150.457031 92 148.6875 97.941406 147.109375 104.296875 C 146.757812 105.679688 146.757812 105.679688 146.394531 107.09375 C 143.007812 121.597656 141.484375 138.246094 141.085938 153.878906 C 141.070312 154.601562 141.050781 155.328125 141.03125 156.074219 C 140.851562 163.5625 140.820312 171.042969 140.816406 178.535156 C 140.816406 180.03125 140.8125 181.527344 140.8125 183.019531 C 140.804688 187.03125 140.800781 191.039062 140.800781 195.046875 C 140.796875 197.566406 140.796875 200.085938 140.792969 202.609375 C 140.789062 210.542969 140.785156 218.476562 140.78125 226.414062 C 140.78125 235.484375 140.773438 244.554688 140.761719 253.625 C 140.75 260.695312 140.746094 267.769531 140.746094 274.839844 C 140.746094 279.035156 140.742188 283.230469 140.734375 287.425781 C 140.65625 329.644531 141.21875 374.59375 158.667969 406.914062 C 158.976562 407.503906 159.285156 408.09375 159.605469 408.703125 C 164.535156 417.855469 170.179688 424.019531 176.445312 429.828125 C 176.765625 430.128906 177.085938 430.425781 177.417969 430.734375 C 188.53125 441.074219 199.320312 442.597656 211.695312 442.570312 C 212.542969 442.574219 213.390625 442.574219 214.238281 442.574219 C 216.527344 442.578125 218.816406 442.578125 221.105469 442.574219 C 223.519531 442.574219 225.933594 442.574219 228.347656 442.578125 C 232.410156 442.578125 236.476562 442.574219 240.539062 442.570312 C 245.195312 442.566406 249.851562 442.570312 254.507812 442.574219 C 258.535156 442.578125 262.5625 442.578125 266.59375 442.574219 C 268.984375 442.574219 271.375 442.574219 273.769531 442.578125 C 282.550781 442.585938 291.332031 442.570312 300.109375 442.128906 C 300.417969 442.113281 300.726562 442.101562 301.042969 442.085938 C 305.824219 441.851562 310.441406 441.15625 315.109375 439.308594 C 315.636719 439.105469 315.636719 439.105469 316.175781 438.902344 C 326.761719 434.765625 337.105469 428.613281 345.332031 415.605469 C 345.835938 414.867188 345.835938 414.867188 346.347656 414.113281 C 349.03125 410.082031 351.1875 405.523438 353.332031 400.59375 C 353.667969 399.84375 354.003906 399.089844 354.347656 398.316406 C 367.839844 367.421875 368.28125 330.121094 368.222656 292.722656 C 368.21875 287.71875 368.222656 282.714844 368.222656 277.710938 C 368.222656 269.316406 368.21875 260.921875 368.207031 252.53125 C 368.195312 243.941406 368.195312 235.355469 368.199219 226.765625 C 368.203125 216.34375 368.203125 205.917969 368.195312 195.496094 C 368.191406 191.542969 368.191406 187.589844 368.195312 183.636719 C 368.199219 178.972656 368.191406 174.308594 368.183594 169.644531 C 368.179688 167.945312 368.179688 166.25 368.183594 164.554688 C 368.222656 130.3125 363.578125 96.542969 349.65625 71.613281 C 346.558594 66.269531 343.207031 61.785156 339.554688 57.679688 C 339.070312 57.136719 338.589844 56.589844 338.089844 56.03125 C 326.957031 44.128906 313.890625 39.132812 301.019531 38.269531 C 300.566406 38.238281 300.113281 38.207031 299.648438 38.171875 C 293.667969 37.789062 287.6875 37.746094 281.703125 37.6875 C 279.992188 37.667969 278.28125 37.648438 276.566406 37.625 C 273.683594 37.589844 270.804688 37.558594 267.921875 37.527344 C 265.011719 37.496094 262.101562 37.464844 259.191406 37.429688 C 258.835938 37.425781 258.476562 37.421875 258.113281 37.417969 C 257.578125 37.410156 257.578125 37.410156 257.035156 37.402344 C 249.15625 37.308594 241.273438 37.226562 233.394531 37.160156 C 231.375 37.144531 229.355469 37.121094 227.335938 37.101562 C 224.890625 37.074219 222.445312 37.054688 220.003906 37.042969 C 219.15625 37.035156 218.308594 37.027344 217.460938 37.019531 C 195.722656 36.765625 175.0625 45.121094 159.109375 72.691406 Z M 159.109375 72.691406 "/>
<path style=" stroke:none;fill-rule:nonzero;fill:rgb(20%,20%,20%);fill-opacity:1;" d="M 230.667969 37.136719 C 239.777344 37.097656 248.886719 37.070312 258 37.054688 C 262.230469 37.046875 266.460938 37.035156 270.691406 37.015625 C 274.382812 37 278.074219 36.992188 281.769531 36.988281 C 283.71875 36.984375 285.671875 36.980469 287.621094 36.96875 C 297.390625 36.914062 307.078125 36.890625 316.695312 40.445312 C 317.15625 40.613281 317.621094 40.785156 318.097656 40.960938 C 328.394531 44.925781 338.203125 52.488281 346.222656 64.789062 C 346.820312 65.707031 346.820312 65.707031 347.433594 66.640625 C 348.53125 68.363281 349.601562 70.121094 350.667969 71.902344 C 350.960938 72.363281 351.253906 72.828125 351.558594 73.304688 C 360.847656 88.582031 365.277344 112.0625 367.554688 133.53125 C 367.632812 134.269531 367.710938 135.007812 367.792969 135.769531 C 368.609375 144.542969 368.5625 153.226562 368.546875 162.09375 C 368.546875 163.839844 368.546875 165.585938 368.546875 167.332031 C 368.546875 172.039062 368.539062 176.746094 368.535156 181.453125 C 368.527344 186.382812 368.527344 191.316406 368.527344 196.246094 C 368.523438 204.511719 368.519531 212.777344 368.511719 221.042969 C 368.503906 229.554688 368.496094 238.0625 368.492188 246.570312 C 368.492188 247.097656 368.492188 247.621094 368.492188 248.164062 C 368.492188 250.800781 368.492188 253.441406 368.488281 256.078125 C 368.480469 277.910156 368.464844 299.746094 368.445312 321.582031 C 368.296875 321.582031 368.152344 321.582031 368 321.582031 C 368 320.707031 367.996094 319.832031 367.996094 318.929688 C 367.96875 297.566406 367.9375 276.203125 367.894531 254.839844 C 367.875 244.507812 367.859375 234.175781 367.847656 223.84375 C 367.835938 214.832031 367.820312 205.816406 367.800781 196.804688 C 367.789062 192.039062 367.78125 187.277344 367.777344 182.511719 C 367.777344 178.011719 367.765625 173.511719 367.753906 169.011719 C 367.75 167.371094 367.75 165.734375 367.75 164.097656 C 367.761719 130.167969 363.101562 96.496094 349.3125 71.789062 C 336.429688 49.652344 318.609375 40.246094 301.066406 39.058594 C 300.613281 39.027344 300.164062 38.996094 299.699219 38.960938 C 293.472656 38.566406 287.246094 38.535156 281.015625 38.476562 C 279.238281 38.457031 277.460938 38.4375 275.683594 38.417969 C 272.335938 38.378906 268.988281 38.339844 265.640625 38.308594 C 261.820312 38.269531 258.003906 38.222656 254.183594 38.179688 C 246.34375 38.09375 238.503906 38.007812 230.667969 37.925781 C 230.667969 37.664062 230.667969 37.40625 230.667969 37.136719 Z M 230.667969 37.136719 "/>
<path style=" stroke:none;fill-rule:nonzero;fill:rgb(4.705882%,4.705882%,4.705882%);fill-opacity:1;" d="M 216.269531 36.257812 C 217.046875 36.257812 217.824219 36.257812 218.597656 36.253906 C 220.6875 36.253906 222.78125 36.261719 224.871094 36.265625 C 227.0625 36.269531 229.25 36.269531 231.441406 36.273438 C 235.582031 36.273438 239.722656 36.28125 243.867188 36.289062 C 248.582031 36.296875 253.300781 36.300781 258.019531 36.304688 C 267.714844 36.3125 277.414062 36.328125 287.109375 36.34375 C 287.109375 36.605469 287.109375 36.867188 287.109375 37.136719 C 286.535156 37.136719 286.535156 37.136719 285.945312 37.140625 C 276.519531 37.167969 267.09375 37.214844 257.667969 37.28125 C 253.109375 37.3125 248.550781 37.339844 243.992188 37.351562 C 240.011719 37.359375 236.027344 37.382812 232.046875 37.414062 C 229.945312 37.433594 227.84375 37.445312 225.746094 37.445312 C 217.515625 37.445312 209.375 37.707031 201.195312 39.402344 C 200.878906 39.464844 200.558594 39.53125 200.234375 39.597656 C 182.753906 43.296875 166.261719 56.554688 155.109375 81.382812 C 146.339844 102.238281 142.292969 127.148438 141.539062 153.011719 C 141.519531 153.632812 141.5 154.257812 141.480469 154.898438 C 141.421875 156.863281 141.363281 158.824219 141.304688 160.789062 C 141.265625 162.132812 141.222656 163.472656 141.183594 164.816406 C 141.082031 168.082031 140.984375 171.351562 140.890625 174.617188 C 140.742188 174.617188 140.59375 174.617188 140.445312 174.617188 C 140.078125 136.5625 143.523438 99.339844 158.792969 70.832031 C 160.71875 67.5 162.746094 64.503906 164.890625 61.628906 C 165.234375 61.164062 165.578125 60.695312 165.933594 60.214844 C 171.789062 52.605469 178.03125 47.5 184.890625 43.457031 C 185.628906 42.996094 185.628906 42.996094 186.386719 42.523438 C 195.894531 37.085938 206.351562 36.214844 216.269531 36.257812 Z M 216.269531 36.257812 "/>
<path style=" stroke:none;fill-rule:nonzero;fill:rgb(4.705882%,4.705882%,4.705882%);fill-opacity:1;" d="M 368.445312 154.863281 C 368.589844 154.863281 368.738281 154.863281 368.890625 154.863281 C 368.910156 176.519531 368.925781 198.175781 368.933594 219.832031 C 368.941406 229.890625 368.945312 239.949219 368.957031 250.003906 C 368.964844 258.777344 368.96875 267.550781 368.972656 276.320312 C 368.972656 280.960938 368.976562 285.597656 368.984375 290.238281 C 368.988281 294.617188 368.992188 298.996094 368.988281 303.375 C 368.988281 304.972656 368.992188 306.566406 368.996094 308.160156 C 369.023438 321.75 368.632812 335.3125 367.195312 348.691406 C 367.117188 349.40625 367.042969 350.125 366.964844 350.859375 C 364.246094 375.605469 357.433594 396.214844 347.554688 414.023438 C 347.230469 414.617188 346.902344 415.207031 346.566406 415.816406 C 341.390625 424.566406 333.980469 431.488281 327.109375 434.566406 C 327.109375 434.046875 327.109375 433.523438 327.109375 432.988281 C 327.644531 432.613281 328.175781 432.238281 328.722656 431.855469 C 335.765625 426.8125 341.699219 421.242188 347.109375 411.65625 C 347.484375 410.996094 347.855469 410.339844 348.242188 409.664062 C 364.066406 381.261719 368.027344 344.015625 368.089844 305.199219 C 368.09375 303.554688 368.101562 301.910156 368.105469 300.269531 C 368.117188 295.832031 368.125 291.390625 368.136719 286.953125 C 368.144531 282.308594 368.15625 277.660156 368.167969 273.011719 C 368.191406 264.222656 368.210938 255.433594 368.230469 246.644531 C 368.25 236.632812 368.277344 226.625 368.300781 216.613281 C 368.351562 196.03125 368.398438 175.445312 368.445312 154.863281 Z M 368.445312 154.863281 "/>
<path style=" stroke:none;fill-rule:nonzero;fill:rgb(11.764706%,11.764706%,11.764706%);fill-opacity:1;" d="M 156 402.964844 C 157.636719 404.175781 158.660156 405.949219 159.890625 408.199219 C 160.242188 408.84375 160.597656 409.488281 160.964844 410.15625 C 161.367188 410.898438 161.367188 410.898438 161.777344 411.65625 C 161.335938 411.914062 160.898438 412.175781 160.445312 412.445312 C 159.699219 411.164062 158.960938 409.878906 158.222656 408.59375 C 157.808594 407.878906 157.398438 407.164062 156.972656 406.425781 C 156 404.542969 156 404.542969 156 402.964844 Z M 156 402.964844 "/>
<path style=" stroke:none;fill-rule:nonzero;fill:rgb(5.098039%,5.098039%,5.098039%);fill-opacity:1;" d="M 161.332031 412.445312 C 164.25 413.902344 166.371094 418.183594 168.445312 421.925781 C 166.605469 421.484375 165.535156 419.699219 164.140625 417.628906 C 163.707031 416.996094 163.273438 416.359375 162.828125 415.707031 C 161.777344 414.023438 161.777344 414.023438 161.332031 412.445312 Z M 161.332031 412.445312 "/>
<path style=" stroke:none;fill-rule:nonzero;fill:rgb(8.235294%,8.235294%,8.235294%);fill-opacity:1;" d="M 354.222656 79.800781 C 356.390625 83.457031 356.390625 83.457031 356.890625 86.125 C 355.367188 85.222656 355.046875 84.542969 354.222656 82.171875 C 354.222656 81.390625 354.222656 80.609375 354.222656 79.800781 Z M 354.222656 79.800781 "/>
</g>
</svg>
