<?xml version="1.0" encoding="UTF-8"?>
<svg xmlns="http://www.w3.org/2000/svg" xmlns:xlink="http://www.w3.org/1999/xlink" width="512px" height="288px" viewBox="0 0 512 288" version="1.1">
<g id="surface1">
<path style=" stroke:none;fill-rule:nonzero;fill:rgb(0%,0%,0%);fill-opacity:1;" d="M 216.039062 20.386719 C 216.789062 20.386719 217.542969 20.386719 218.292969 20.382812 C 220.324219 20.382812 222.355469 20.382812 224.386719 20.382812 C 226.53125 20.386719 228.675781 20.386719 230.820312 20.382812 C 234.429688 20.382812 238.042969 20.382812 241.652344 20.386719 C 245.785156 20.390625 249.917969 20.386719 254.050781 20.386719 C 257.628906 20.382812 261.207031 20.382812 264.785156 20.382812 C 266.90625 20.386719 269.03125 20.386719 271.15625 20.382812 C 279.203125 20.378906 287.246094 20.402344 295.292969 20.648438 C 295.742188 20.664062 295.742188 20.664062 296.199219 20.675781 C 314.058594 21.238281 332.28125 24.417969 346.222656 36.445312 C 346.820312 36.960938 346.820312 36.960938 347.433594 37.484375 C 348.53125 38.453125 349.601562 39.441406 350.667969 40.445312 C 350.960938 40.707031 351.253906 40.964844 351.558594 41.234375 C 363.734375 52.496094 368.058594 71.242188 368.890625 87.109375 C 368.96875 90.175781 368.953125 93.242188 368.953125 96.308594 C 368.953125 97.226562 368.957031 98.144531 368.957031 99.0625 C 368.960938 101.542969 368.964844 104.023438 368.964844 106.503906 C 368.964844 108.058594 368.964844 109.613281 368.964844 111.167969 C 368.96875 116.605469 368.972656 122.042969 368.972656 127.480469 C 368.972656 132.527344 368.976562 137.570312 368.984375 142.617188 C 368.988281 146.964844 368.992188 151.316406 368.992188 155.667969 C 368.992188 158.257812 368.992188 160.847656 368.996094 163.4375 C 369 165.875 369 168.316406 368.996094 170.753906 C 368.996094 171.644531 369 172.53125 369 173.417969 C 369.023438 181.035156 368.625 188.640625 367.195312 196.140625 C 367.117188 196.542969 367.042969 196.945312 366.964844 197.359375 C 364.246094 211.277344 357.433594 222.871094 347.554688 232.890625 C 347.230469 233.222656 346.902344 233.554688 346.566406 233.894531 C 343.695312 236.625 340.324219 238.523438 336.890625 240.445312 C 336.253906 240.808594 336.253906 240.808594 335.601562 241.179688 C 326.960938 245.828125 316.605469 248.199219 306.878906 248.933594 C 306.402344 248.96875 305.925781 249.007812 305.433594 249.042969 C 299.863281 249.445312 294.292969 249.539062 288.714844 249.609375 C 287.554688 249.625 286.398438 249.640625 285.238281 249.65625 C 272.625 249.835938 260.011719 249.847656 247.398438 249.835938 C 245.1875 249.832031 242.980469 249.832031 240.769531 249.835938 C 181.378906 249.882812 181.378906 249.882812 161.777344 232.890625 C 161.398438 232.570312 161.019531 232.25 160.628906 231.921875 C 146.910156 220.058594 142.023438 201.980469 140.632812 184.558594 C 140.296875 179.933594 140.226562 175.304688 140.167969 170.667969 C 140.160156 170.121094 140.148438 169.574219 140.140625 169.011719 C 139.945312 155.574219 139.953125 142.132812 139.945312 128.695312 C 139.945312 126.933594 139.941406 125.167969 139.941406 123.40625 C 139.882812 59.703125 139.882812 59.703125 158.792969 39.84375 C 160.71875 37.96875 162.746094 36.285156 164.890625 34.667969 C 165.234375 34.402344 165.578125 34.140625 165.933594 33.871094 C 171.789062 29.589844 178.03125 26.71875 184.890625 24.445312 C 185.628906 24.183594 185.628906 24.183594 186.386719 23.921875 C 195.816406 20.886719 206.199219 20.375 216.039062 20.386719 Z M 216.039062 20.386719 "/>
<path style=" stroke:none;fill-rule:nonzero;fill:rgb(98.431373%,98.431373%,98.431373%);fill-opacity:1;" d="M 216.039062 20.386719 C 216.789062 20.386719 217.542969 20.386719 218.292969 20.382812 C 220.324219 20.382812 222.355469 20.382812 224.386719 20.382812 C 226.53125 20.386719 228.675781 20.386719 230.820312 20.382812 C 234.429688 20.382812 238.042969 20.382812 241.652344 20.386719 C 245.785156 20.390625 249.917969 20.386719 254.050781 20.386719 C 257.628906 20.382812 261.207031 20.382812 264.785156 20.382812 C 266.90625 20.386719 269.03125 20.386719 271.15625 20.382812 C 279.203125 20.378906 287.246094 20.402344 295.292969 20.648438 C 295.742188 20.664062 295.742188 20.664062 296.199219 20.675781 C 314.058594 21.238281 332.28125 24.417969 346.222656 36.445312 C 346.820312 36.960938 346.820312 36.960938 347.433594 37.484375 C 348.53125 38.453125 349.601562 39.441406 350.667969 40.445312 C 350.960938 40.707031 351.253906 40.964844 351.558594 41.234375 C 363.734375 52.496094 368.058594 71.242188 368.890625 87.109375 C 368.96875 90.175781 368.953125 93.242188 368.953125 96.308594 C 368.953125 97.226562 368.957031 98.144531 368.957031 99.0625 C 368.960938 101.542969 368.964844 104.023438 368.964844 106.503906 C 368.964844 108.058594 368.964844 109.613281 368.964844 111.167969 C 368.96875 116.605469 368.972656 122.042969 368.972656 127.480469 C 368.972656 132.527344 368.976562 137.570312 368.984375 142.617188 C 368.988281 146.964844 368.992188 151.316406 368.992188 155.667969 C 368.992188 158.257812 368.992188 160.847656 368.996094 163.4375 C 369 165.875 369 168.316406 368.996094 170.753906 C 368.996094 171.644531 369 172.53125 369 173.417969 C 369.023438 181.035156 368.625 188.640625 367.195312 196.140625 C 367.117188 196.542969 367.042969 196.945312 366.964844 197.359375 C 364.246094 211.277344 357.433594 222.871094 347.554688 232.890625 C 347.230469 233.222656 346.902344 233.554688 346.566406 233.894531 C 343.695312 236.625 340.324219 238.523438 336.890625 240.445312 C 336.253906 240.808594 336.253906 240.808594 335.601562 241.179688 C 326.960938 245.828125 316.605469 248.199219 306.878906 248.933594 C 306.402344 248.96875 305.925781 249.007812 305.433594 249.042969 C 299.863281 249.445312 294.292969 249.539062 288.714844 249.609375 C 287.554688 249.625 286.398438 249.640625 285.238281 249.65625 C 272.625 249.835938 260.011719 249.847656 247.398438 249.835938 C 245.1875 249.832031 242.980469 249.832031 240.769531 249.835938 C 181.378906 249.882812 181.378906 249.882812 161.777344 232.890625 C 161.398438 232.570312 161.019531 232.25 160.628906 231.921875 C 146.910156 220.058594 142.023438 201.980469 140.632812 184.558594 C 140.296875 179.933594 140.226562 175.304688 140.167969 170.667969 C 140.160156 170.121094 140.148438 169.574219 140.140625 169.011719 C 139.945312 155.574219 139.953125 142.132812 139.945312 128.695312 C 139.945312 126.933594 139.941406 125.167969 139.941406 123.40625 C 139.882812 59.703125 139.882812 59.703125 158.792969 39.84375 C 160.71875 37.96875 162.746094 36.285156 164.890625 34.667969 C 165.234375 34.402344 165.578125 34.140625 165.933594 33.871094 C 171.789062 29.589844 178.03125 26.71875 184.890625 24.445312 C 185.628906 24.183594 185.628906 24.183594 186.386719 23.921875 C 195.816406 20.886719 206.199219 20.375 216.039062 20.386719 Z M 194.5 44.054688 C 194.058594 44.148438 193.621094 44.246094 193.167969 44.339844 C 183.203125 46.640625 174.429688 52.8125 168.976562 61.515625 C 164.714844 68.632812 162.617188 76.304688 161.90625 84.535156 C 161.878906 84.835938 161.851562 85.132812 161.824219 85.441406 C 160.976562 95.191406 161.113281 105 161.085938 114.777344 C 161.074219 119.386719 161.054688 123.996094 161.027344 128.605469 C 161.023438 129.09375 161.019531 129.585938 161.015625 130.089844 C 160.972656 136.65625 160.738281 143.140625 160.203125 149.683594 C 159.867188 153.902344 159.835938 158.121094 159.835938 162.347656 C 159.832031 163.734375 159.816406 165.117188 159.800781 166.5 C 159.75 175.21875 160.953125 183.480469 163.945312 191.695312 C 164.15625 192.285156 164.367188 192.878906 164.578125 193.472656 C 165.140625 195.03125 165.71875 196.585938 166.300781 198.136719 C 166.675781 199.136719 167.046875 200.140625 167.414062 201.144531 C 168.046875 202.855469 168.699219 204.5625 169.367188 206.261719 C 169.617188 206.910156 169.863281 207.558594 170.105469 208.207031 C 172.84375 215.523438 177.933594 219.679688 184.890625 223.109375 C 190.945312 225.867188 197.269531 227.214844 203.871094 227.851562 C 204.160156 227.878906 204.449219 227.90625 204.75 227.9375 C 212.742188 228.6875 220.75 228.625 228.773438 228.59375 C 230.949219 228.585938 233.125 228.589844 235.304688 228.585938 C 238.953125 228.585938 242.605469 228.578125 246.257812 228.570312 C 250.902344 228.554688 255.546875 228.550781 260.1875 228.550781 C 264.238281 228.546875 268.285156 228.542969 272.335938 228.535156 C 273.609375 228.535156 274.886719 228.535156 276.160156 228.53125 C 283.871094 228.523438 291.578125 228.503906 299.285156 228.246094 C 299.789062 228.230469 300.292969 228.214844 300.8125 228.199219 C 314.261719 227.683594 327.152344 224.148438 336.609375 214.054688 C 341.398438 208.289062 344.804688 201.128906 346.222656 193.777344 C 346.289062 193.445312 346.355469 193.109375 346.425781 192.765625 C 348.679688 181.089844 348.132812 168.871094 348.121094 157.039062 C 348.117188 154.613281 348.121094 152.1875 348.121094 149.765625 C 348.121094 145.703125 348.121094 141.644531 348.117188 137.582031 C 348.109375 132.902344 348.113281 128.226562 348.117188 123.546875 C 348.121094 119.5 348.121094 115.457031 348.121094 111.410156 C 348.117188 109.007812 348.117188 106.601562 348.121094 104.199219 C 348.125 101.945312 348.121094 99.6875 348.117188 97.433594 C 348.117188 96.613281 348.117188 95.789062 348.117188 94.96875 C 348.140625 83.664062 345.238281 75.023438 340.230469 64.941406 C 339.597656 63.640625 338.988281 62.328125 338.390625 61.003906 C 336.347656 56.546875 334.535156 53.289062 330.222656 50.667969 C 329.96875 50.5 329.714844 50.335938 329.457031 50.167969 C 321.8125 45.195312 312.503906 42.886719 303.449219 42.414062 C 302.929688 42.386719 302.929688 42.386719 302.402344 42.359375 C 298.339844 42.160156 294.273438 42.15625 290.207031 42.15625 C 289.34375 42.15625 288.484375 42.15625 287.625 42.152344 C 285.3125 42.148438 283 42.148438 280.6875 42.148438 C 279.234375 42.148438 277.785156 42.148438 276.332031 42.144531 C 271.253906 42.140625 266.171875 42.140625 261.089844 42.140625 C 256.386719 42.140625 251.679688 42.136719 246.972656 42.128906 C 242.90625 42.121094 238.839844 42.121094 234.773438 42.121094 C 232.355469 42.121094 229.9375 42.121094 227.519531 42.113281 C 210.921875 41.90625 210.921875 41.90625 194.5 44.054688 Z M 194.5 44.054688 "/>
<path style=" stroke:none;fill-rule:nonzero;fill:rgb(98.431373%,98.431373%,98.431373%);fill-opacity:1;" d="M 253.472656 76.277344 C 253.925781 76.28125 253.925781 76.28125 254.386719 76.285156 C 270.480469 76.421875 285.082031 82.746094 296.695312 93.890625 C 304.628906 102.066406 310.042969 112.441406 312.445312 123.554688 C 312.59375 124.195312 312.59375 124.195312 312.746094 124.84375 C 315.679688 139.816406 311.828125 155.339844 303.417969 167.859375 C 296.65625 177.222656 288.757812 184.050781 278.222656 188.890625 C 277.765625 189.105469 277.765625 189.105469 277.296875 189.324219 C 276.371094 189.753906 275.4375 190.171875 274.5 190.582031 C 274.234375 190.707031 273.96875 190.832031 273.695312 190.957031 C 267.964844 193.378906 261.367188 193.554688 255.238281 193.507812 C 254.164062 193.5 253.089844 193.507812 252.015625 193.515625 C 237.488281 193.535156 224.960938 187.480469 214.542969 177.574219 C 213.339844 176.421875 213.339844 176.421875 212 175.375 C 210.535156 174.109375 209.394531 172.777344 208.222656 171.25 C 207.902344 170.839844 207.902344 170.839844 207.578125 170.417969 C 205.902344 168.226562 204.417969 165.984375 203.109375 163.554688 C 202.894531 163.167969 202.675781 162.777344 202.453125 162.378906 C 201.066406 159.777344 199.984375 157.117188 199.027344 154.332031 C 198.871094 153.882812 198.871094 153.882812 198.707031 153.421875 C 196.738281 147.4375 196.207031 141.503906 196.222656 135.253906 C 196.222656 134.089844 196.203125 132.925781 196.183594 131.761719 C 196.089844 118.628906 201.835938 106.761719 210.222656 96.890625 C 210.539062 96.515625 210.539062 96.515625 210.859375 96.132812 C 221.359375 83.875 237.261719 76.101562 253.472656 76.277344 Z M 253.472656 76.277344 "/>
<path style=" stroke:none;fill-rule:nonzero;fill:rgb(0%,0%,0%);fill-opacity:1;" d="M 268.890625 99.554688 C 269.171875 99.679688 269.453125 99.804688 269.746094 99.929688 C 275.515625 102.554688 281.054688 106.460938 284.890625 111.554688 C 285.277344 112.042969 285.277344 112.042969 285.671875 112.542969 C 292.015625 120.992188 293.570312 131.925781 292.445312 142.222656 C 291.402344 147.753906 289.078125 152.792969 285.777344 157.332031 C 285.5 157.726562 285.222656 158.121094 284.933594 158.53125 C 279.058594 166.386719 269.585938 171.351562 260.082031 173.222656 C 249.984375 174.097656 239.683594 172.082031 231.617188 165.636719 C 231.148438 165.242188 230.683594 164.84375 230.222656 164.445312 C 229.871094 164.140625 229.871094 164.140625 229.515625 163.832031 C 222.222656 157.359375 217.003906 148.277344 216.371094 138.417969 C 215.921875 127.757812 218.816406 118.304688 225.917969 110.167969 C 236.8125 98.554688 253.578125 92.816406 268.890625 99.554688 Z M 268.890625 99.554688 "/>
<path style=" stroke:none;fill-rule:nonzero;fill:rgb(0%,0%,0%);fill-opacity:1;" d="M 0 0 C 168.960938 0 337.921875 0 512 0 C 512 95.039062 512 190.078125 512 288 C 343.039062 288 174.078125 288 0 288 C 0 192.960938 0 97.921875 0 0 Z M 0.445312 0.445312 C 0.445312 95.191406 0.445312 189.9375 0.445312 287.554688 C 169.109375 287.554688 337.777344 287.554688 511.554688 287.554688 C 511.554688 192.808594 511.554688 98.0625 511.554688 0.445312 C 342.890625 0.445312 174.222656 0.445312 0.445312 0.445312 Z M 0.445312 0.445312 "/>
<path style=" stroke:none;fill-rule:nonzero;fill:rgb(97.647059%,97.647059%,97.647059%);fill-opacity:1;" d="M 323.757812 62.976562 C 326.453125 65.179688 328.53125 67.585938 329.011719 71.128906 C 329.433594 76.003906 329 79.761719 325.867188 83.660156 C 323.171875 86.613281 320.578125 88.003906 316.5625 88.253906 C 312.253906 88.367188 308.871094 87.304688 305.59375 84.375 C 302.824219 81.4375 301.519531 78.558594 301.554688 74.527344 C 301.558594 74.195312 301.5625 73.863281 301.5625 73.523438 C 301.683594 69.832031 302.957031 67.261719 305.417969 64.527344 C 310.617188 59.714844 317.914062 58.9375 323.757812 62.976562 Z M 323.757812 62.976562 "/>
<path style=" stroke:none;fill-rule:nonzero;fill:rgb(9.803922%,9.803922%,9.803922%);fill-opacity:1;" d="M 216.039062 20.386719 C 216.789062 20.386719 217.542969 20.386719 218.292969 20.382812 C 220.324219 20.382812 222.355469 20.382812 224.386719 20.382812 C 226.53125 20.386719 228.675781 20.386719 230.820312 20.382812 C 234.429688 20.382812 238.042969 20.382812 241.652344 20.386719 C 245.785156 20.390625 249.917969 20.386719 254.050781 20.386719 C 257.628906 20.382812 261.207031 20.382812 264.785156 20.382812 C 266.90625 20.386719 269.03125 20.386719 271.15625 20.382812 C 279.203125 20.378906 287.246094 20.402344 295.292969 20.648438 C 295.742188 20.664062 295.742188 20.664062 296.199219 20.675781 C 314.058594 21.238281 332.28125 24.417969 346.222656 36.445312 C 346.820312 36.960938 346.820312 36.960938 347.433594 37.484375 C 348.53125 38.453125 349.601562 39.441406 350.667969 40.445312 C 350.960938 40.707031 351.253906 40.964844 351.558594 41.234375 C 363.734375 52.496094 368.058594 71.242188 368.890625 87.109375 C 368.96875 90.175781 368.953125 93.242188 368.953125 96.308594 C 368.953125 97.226562 368.957031 98.144531 368.957031 99.0625 C 368.960938 101.542969 368.964844 104.023438 368.964844 106.503906 C 368.964844 108.058594 368.964844 109.613281 368.964844 111.167969 C 368.96875 116.605469 368.972656 122.042969 368.972656 127.480469 C 368.972656 132.527344 368.976562 137.570312 368.984375 142.617188 C 368.988281 146.964844 368.992188 151.316406 368.992188 155.667969 C 368.992188 158.257812 368.992188 160.847656 368.996094 163.4375 C 369 165.875 369 168.316406 368.996094 170.753906 C 368.996094 171.644531 369 172.53125 369 173.417969 C 369.023438 181.035156 368.625 188.640625 367.195312 196.140625 C 367.117188 196.542969 367.042969 196.945312 366.964844 197.359375 C 364.246094 211.277344 357.433594 222.871094 347.554688 232.890625 C 347.230469 233.222656 346.902344 233.554688 346.566406 233.894531 C 343.695312 236.625 340.324219 238.523438 336.890625 240.445312 C 336.253906 240.808594 336.253906 240.808594 335.601562 241.179688 C 326.960938 245.828125 316.605469 248.199219 306.878906 248.933594 C 306.402344 248.96875 305.925781 249.007812 305.433594 249.042969 C 299.863281 249.445312 294.292969 249.539062 288.714844 249.609375 C 287.554688 249.625 286.398438 249.640625 285.238281 249.65625 C 272.625 249.835938 260.011719 249.847656 247.398438 249.835938 C 245.1875 249.832031 242.980469 249.832031 240.769531 249.835938 C 181.378906 249.882812 181.378906 249.882812 161.777344 232.890625 C 161.398438 232.570312 161.019531 232.25 160.628906 231.921875 C 146.910156 220.058594 142.023438 201.980469 140.632812 184.558594 C 140.296875 179.933594 140.226562 175.304688 140.167969 170.667969 C 140.160156 170.121094 140.148438 169.574219 140.140625 169.011719 C 139.945312 155.574219 139.953125 142.132812 139.945312 128.695312 C 139.945312 126.933594 139.941406 125.167969 139.941406 123.40625 C 139.882812 59.703125 139.882812 59.703125 158.792969 39.84375 C 160.71875 37.96875 162.746094 36.285156 164.890625 34.667969 C 165.234375 34.402344 165.578125 34.140625 165.933594 33.871094 C 171.789062 29.589844 178.03125 26.71875 184.890625 24.445312 C 185.628906 24.183594 185.628906 24.183594 186.386719 23.921875 C 195.816406 20.886719 206.199219 20.375 216.039062 20.386719 Z M 159.109375 40.890625 C 158.863281 41.125 158.613281 41.359375 158.359375 41.605469 C 156.464844 43.4375 154.871094 45.367188 153.359375 47.527344 C 153.132812 47.855469 152.902344 48.183594 152.667969 48.519531 C 150.457031 51.75 148.6875 55.09375 147.109375 58.667969 C 146.757812 59.445312 146.757812 59.445312 146.394531 60.238281 C 143.007812 68.398438 141.484375 77.761719 141.085938 86.558594 C 141.070312 86.964844 141.050781 87.371094 141.03125 87.789062 C 140.851562 92.003906 140.820312 96.210938 140.816406 100.425781 C 140.816406 101.269531 140.8125 102.109375 140.8125 102.949219 C 140.804688 105.203125 140.800781 107.457031 140.800781 109.714844 C 140.796875 111.132812 140.796875 112.550781 140.792969 113.96875 C 140.789062 118.429688 140.785156 122.894531 140.78125 127.355469 C 140.78125 132.460938 140.773438 137.5625 140.761719 142.664062 C 140.75 146.640625 140.746094 150.621094 140.746094 154.597656 C 140.746094 156.957031 140.742188 159.316406 140.734375 161.679688 C 140.65625 185.425781 141.21875 210.710938 158.667969 228.890625 C 158.976562 229.222656 159.285156 229.554688 159.605469 229.894531 C 164.535156 235.042969 170.179688 238.511719 176.445312 241.777344 C 176.765625 241.945312 177.085938 242.113281 177.417969 242.289062 C 188.53125 248.101562 199.320312 248.960938 211.695312 248.945312 C 212.542969 248.945312 213.390625 248.949219 214.238281 248.949219 C 216.527344 248.949219 218.816406 248.949219 221.105469 248.949219 C 223.519531 248.949219 225.933594 248.949219 228.347656 248.949219 C 232.410156 248.949219 236.476562 248.949219 240.539062 248.945312 C 245.195312 248.945312 249.851562 248.945312 254.507812 248.949219 C 258.535156 248.949219 262.5625 248.949219 266.59375 248.949219 C 268.984375 248.949219 271.375 248.949219 273.769531 248.949219 C 282.550781 248.953125 291.332031 248.945312 300.109375 248.699219 C 300.417969 248.691406 300.726562 248.679688 301.042969 248.671875 C 305.824219 248.542969 310.441406 248.152344 315.109375 247.109375 C 315.636719 246.996094 315.636719 246.996094 316.175781 246.882812 C 326.761719 244.554688 337.105469 241.09375 345.332031 233.777344 C 345.835938 233.363281 345.835938 233.363281 346.347656 232.9375 C 349.03125 230.671875 351.1875 228.105469 353.332031 225.332031 C 353.667969 224.910156 354.003906 224.488281 354.347656 224.054688 C 367.839844 206.675781 368.28125 185.691406 368.222656 164.65625 C 368.21875 161.839844 368.222656 159.027344 368.222656 156.210938 C 368.222656 151.492188 368.21875 146.769531 368.207031 142.046875 C 368.195312 137.21875 368.195312 132.386719 368.199219 127.554688 C 368.203125 121.691406 368.203125 115.828125 368.195312 109.964844 C 368.191406 107.742188 368.191406 105.519531 368.195312 103.296875 C 368.199219 100.671875 368.191406 98.046875 368.183594 95.425781 C 368.179688 94.46875 368.179688 93.515625 368.183594 92.5625 C 368.222656 73.300781 363.578125 54.304688 349.65625 40.28125 C 346.558594 37.277344 343.207031 34.753906 339.554688 32.445312 C 339.070312 32.136719 338.589844 31.832031 338.089844 31.515625 C 326.957031 24.820312 313.890625 22.011719 301.019531 21.527344 C 300.566406 21.507812 300.113281 21.492188 299.648438 21.472656 C 293.667969 21.257812 287.6875 21.230469 281.703125 21.199219 C 279.992188 21.1875 278.28125 21.175781 276.566406 21.164062 C 273.683594 21.144531 270.804688 21.128906 267.921875 21.109375 C 265.011719 21.09375 262.101562 21.074219 259.191406 21.054688 C 258.835938 21.050781 258.476562 21.050781 258.113281 21.046875 C 257.578125 21.042969 257.578125 21.042969 257.035156 21.039062 C 249.15625 20.984375 241.273438 20.941406 233.394531 20.902344 C 231.375 20.894531 229.355469 20.882812 227.335938 20.871094 C 224.890625 20.855469 222.445312 20.84375 220.003906 20.835938 C 219.15625 20.832031 218.308594 20.828125 217.460938 20.824219 C 195.722656 20.679688 175.0625 25.378906 159.109375 40.890625 Z M 159.109375 40.890625 "/>
<path style=" stroke:none;fill-rule:nonzero;fill:rgb(20%,20%,20%);fill-opacity:1;" d="M 230.667969 20.890625 C 239.777344 20.867188 248.886719 20.851562 258 20.84375 C 262.230469 20.839844 266.460938 20.832031 270.691406 20.820312 C 274.382812 20.8125 278.074219 20.808594 281.769531 20.804688 C 283.71875 20.804688 285.671875 20.800781 287.621094 20.792969 C 297.390625 20.761719 307.078125 20.75 316.695312 22.75 C 317.15625 22.847656 317.621094 22.941406 318.097656 23.039062 C 328.394531 25.273438 338.203125 29.523438 346.222656 36.445312 C 346.820312 36.960938 346.820312 36.960938 347.433594 37.484375 C 348.53125 38.453125 349.601562 39.441406 350.667969 40.445312 C 350.960938 40.707031 351.253906 40.964844 351.558594 41.234375 C 360.847656 49.828125 365.277344 63.035156 367.554688 75.109375 C 367.632812 75.527344 367.710938 75.941406 367.792969 76.371094 C 368.609375 81.304688 368.5625 86.191406 368.546875 91.179688 C 368.546875 92.160156 368.546875 93.140625 368.546875 94.125 C 368.546875 96.773438 368.539062 99.417969 368.535156 102.066406 C 368.527344 104.839844 368.527344 107.613281 368.527344 110.386719 C 368.523438 115.039062 368.519531 119.6875 368.511719 124.335938 C 368.503906 129.125 368.496094 133.910156 368.492188 138.695312 C 368.492188 138.992188 368.492188 139.289062 368.492188 139.59375 C 368.492188 141.074219 368.492188 142.558594 368.488281 144.042969 C 368.480469 156.324219 368.464844 168.605469 368.445312 180.890625 C 368.296875 180.890625 368.152344 180.890625 368 180.890625 C 368 180.398438 367.996094 179.90625 367.996094 179.398438 C 367.96875 167.378906 367.9375 155.363281 367.894531 143.347656 C 367.875 137.535156 367.859375 131.722656 367.847656 125.910156 C 367.835938 120.84375 367.820312 115.773438 367.800781 110.703125 C 367.789062 108.023438 367.78125 105.34375 367.777344 102.660156 C 367.777344 100.128906 367.765625 97.597656 367.753906 95.066406 C 367.75 94.148438 367.75 93.226562 367.75 92.304688 C 367.761719 73.21875 363.101562 54.28125 349.3125 40.382812 C 336.429688 27.929688 318.609375 22.636719 301.066406 21.96875 C 300.613281 21.953125 300.164062 21.933594 299.699219 21.917969 C 293.472656 21.691406 287.246094 21.675781 281.015625 21.644531 C 279.238281 21.632812 277.460938 21.621094 275.683594 21.609375 C 272.335938 21.585938 268.988281 21.566406 265.640625 21.546875 C 261.820312 21.527344 258.003906 21.5 254.183594 21.476562 C 246.34375 21.425781 238.503906 21.378906 230.667969 21.332031 C 230.667969 21.1875 230.667969 21.039062 230.667969 20.890625 Z M 230.667969 20.890625 "/>
<path style=" stroke:none;fill-rule:nonzero;fill:rgb(4.705882%,4.705882%,4.705882%);fill-opacity:1;" d="M 216.269531 20.394531 C 217.046875 20.394531 217.824219 20.394531 218.597656 20.394531 C 220.6875 20.394531 222.78125 20.394531 224.871094 20.398438 C 227.0625 20.402344 229.25 20.402344 231.441406 20.402344 C 235.582031 20.40625 239.722656 20.40625 243.867188 20.414062 C 248.582031 20.417969 253.300781 20.417969 258.019531 20.421875 C 267.714844 20.425781 277.414062 20.433594 287.109375 20.445312 C 287.109375 20.589844 287.109375 20.738281 287.109375 20.890625 C 286.535156 20.890625 286.535156 20.890625 285.945312 20.890625 C 276.519531 20.90625 267.09375 20.933594 257.667969 20.96875 C 253.109375 20.988281 248.550781 21.003906 243.992188 21.007812 C 240.011719 21.015625 236.027344 21.027344 232.046875 21.046875 C 229.945312 21.054688 227.84375 21.0625 225.746094 21.0625 C 217.515625 21.0625 209.375 21.210938 201.195312 22.164062 C 200.878906 22.199219 200.558594 22.238281 200.234375 22.273438 C 182.753906 24.355469 166.261719 31.8125 155.109375 45.777344 C 146.339844 57.511719 142.292969 71.523438 141.539062 86.070312 C 141.519531 86.417969 141.5 86.769531 141.480469 87.128906 C 141.421875 88.234375 141.363281 89.339844 141.304688 90.445312 C 141.265625 91.199219 141.222656 91.953125 141.183594 92.707031 C 141.082031 94.546875 140.984375 96.382812 140.890625 98.222656 C 140.742188 98.222656 140.59375 98.222656 140.445312 98.222656 C 140.078125 76.816406 143.523438 55.878906 158.792969 39.84375 C 160.71875 37.96875 162.746094 36.285156 164.890625 34.667969 C 165.234375 34.402344 165.578125 34.140625 165.933594 33.871094 C 171.789062 29.589844 178.03125 26.71875 184.890625 24.445312 C 185.628906 24.183594 185.628906 24.183594 186.386719 23.921875 C 195.894531 20.859375 206.351562 20.371094 216.269531 20.394531 Z M 216.269531 20.394531 "/>
<path style=" stroke:none;fill-rule:nonzero;fill:rgb(4.705882%,4.705882%,4.705882%);fill-opacity:1;" d="M 368.445312 87.109375 C 368.589844 87.109375 368.738281 87.109375 368.890625 87.109375 C 368.910156 99.292969 368.925781 111.476562 368.933594 123.65625 C 368.941406 129.3125 368.945312 134.96875 368.957031 140.628906 C 368.964844 145.5625 368.96875 150.496094 368.972656 155.429688 C 368.972656 158.039062 368.976562 160.648438 368.984375 163.257812 C 368.988281 165.722656 368.992188 168.1875 368.988281 170.648438 C 368.988281 171.546875 368.992188 172.445312 368.996094 173.339844 C 369.023438 180.984375 368.632812 188.613281 367.195312 196.140625 C 367.117188 196.542969 367.042969 196.945312 366.964844 197.359375 C 364.246094 211.277344 357.433594 222.871094 347.554688 232.890625 C 347.230469 233.222656 346.902344 233.554688 346.566406 233.894531 C 341.390625 238.816406 333.980469 242.710938 327.109375 244.445312 C 327.109375 244.152344 327.109375 243.859375 327.109375 243.554688 C 327.644531 243.34375 328.175781 243.136719 328.722656 242.917969 C 335.765625 240.082031 341.699219 236.949219 347.109375 231.554688 C 347.484375 231.1875 347.855469 230.816406 348.242188 230.4375 C 364.066406 214.460938 368.027344 193.507812 368.089844 171.675781 C 368.09375 170.75 368.101562 169.824219 368.105469 168.902344 C 368.117188 166.40625 368.125 163.90625 368.136719 161.410156 C 368.144531 158.796875 368.15625 156.183594 368.167969 153.570312 C 368.191406 148.625 368.210938 143.683594 368.230469 138.738281 C 368.25 133.105469 368.277344 127.476562 368.300781 121.84375 C 368.351562 110.265625 368.398438 98.6875 368.445312 87.109375 Z M 368.445312 87.109375 "/>
<path style=" stroke:none;fill-rule:nonzero;fill:rgb(11.764706%,11.764706%,11.764706%);fill-opacity:1;" d="M 156 226.667969 C 157.636719 227.347656 158.660156 228.347656 159.890625 229.609375 C 160.242188 229.972656 160.597656 230.335938 160.964844 230.710938 C 161.367188 231.128906 161.367188 231.128906 161.777344 231.554688 C 161.335938 231.703125 160.898438 231.847656 160.445312 232 C 159.699219 231.28125 158.960938 230.558594 158.222656 229.832031 C 157.808594 229.429688 157.398438 229.027344 156.972656 228.613281 C 156 227.554688 156 227.554688 156 226.667969 Z M 156 226.667969 "/>
<path style=" stroke:none;fill-rule:nonzero;fill:rgb(5.098039%,5.098039%,5.098039%);fill-opacity:1;" d="M 161.332031 232 C 164.25 232.820312 166.371094 235.230469 168.445312 237.332031 C 166.605469 237.085938 165.535156 236.082031 164.140625 234.917969 C 163.707031 234.558594 163.273438 234.203125 162.828125 233.835938 C 161.777344 232.890625 161.777344 232.890625 161.332031 232 Z M 161.332031 232 "/>
<path style=" stroke:none;fill-rule:nonzero;fill:rgb(8.235294%,8.235294%,8.235294%);fill-opacity:1;" d="M 354.222656 44.890625 C 356.390625 46.945312 356.390625 46.945312 356.890625 48.445312 C 355.367188 47.9375 355.046875 47.554688 354.222656 46.222656 C 354.222656 45.78125 354.222656 45.34375 354.222656 44.890625 Z M 354.222656 44.890625 "/>
</g>
</svg>
