<?xml version="1.0" encoding="UTF-8"?>
<svg version="1.1" xmlns="http://www.w3.org/2000/svg" width="736" height="736">
<path d="M0 0 C4.01852214 0.18303511 8.0374138 0.35519478 12.05651855 0.52484131 C20.0301849 0.86212958 28.00321384 1.21228366 35.97583008 1.57354355 C37.35057013 1.63574531 38.72532572 1.69760487 40.10009766 1.75909805 C77.70686096 3.4428343 77.70686096 3.4428343 92.99890137 6.98040771 C93.74397949 7.15 94.48905762 7.31959229 95.25671387 7.49432373 C105.37494182 9.91356757 114.49385751 14.38859841 123.68640137 19.16790771 C123.68640137 19.82790771 123.68640137 20.48790771 123.68640137 21.16790771 C124.38765137 21.39478271 125.08890137 21.62165771 125.81140137 21.85540771 C138.04034771 27.43818757 145.03453381 42.29565677 149.68640137 54.16790771 C151.20284463 58.45933899 152.49893358 62.7748094 153.68640137 67.16790771 C153.9635498 68.15919678 154.24069824 69.15048584 154.52624512 70.17181396 C156.12055968 76.38250204 157.04995594 82.55853921 157.67468262 88.92572021 C157.75943344 89.78513718 157.84418427 90.64455414 157.9315033 91.53001404 C159.04230968 103.32413539 159.63242196 115.15220792 160.24890137 126.98040771 C160.31332428 128.19633606 160.37774719 129.4122644 160.44412231 130.66503906 C170.49151632 320.66261635 170.49151632 320.66261635 136.68640137 359.16790771 C130.44769201 365.71803351 123.81332413 370.26073331 115.68640137 374.16790771 C114.95937012 374.53529053 114.23233887 374.90267334 113.48327637 375.28118896 C101.30918085 381.12024589 87.93790096 383.30443441 74.68640137 385.16790771 C73.60866455 385.33057129 72.53092773 385.49323486 71.42053223 385.66082764 C58.98512325 387.40180104 46.53757795 387.80094331 33.99890137 388.23040771 C30.77009305 388.34725797 27.54136283 388.46610606 24.31263733 388.58522034 C22.17394673 388.66396885 20.03522349 388.74183541 17.89646912 388.8188324 C11.44607165 389.05377006 5.0000671 389.33612453 -1.44641113 389.66009521 C-15.45853197 390.35052997 -29.47852597 390.81423259 -43.50109863 391.23040771 C-44.24465858 391.25262516 -44.98821854 391.27484261 -45.75431061 391.29773331 C-75.12815249 392.16657327 -104.49532209 392.36178371 -133.88092422 392.35593796 C-137.1810239 392.35540893 -140.48112008 392.35658078 -143.78121948 392.35787964 C-149.01615695 392.35884432 -154.25104656 392.35312009 -159.48597145 392.34173203 C-161.42372217 392.33787894 -163.36147626 392.33542223 -165.29923058 392.33447647 C-182.79726814 392.32042486 -182.79726814 392.32042486 -190.42874146 391.38905334 C-192.9756019 391.09023651 -195.48594173 391.0710052 -198.04797363 391.10540771 C-199.02733887 391.11386719 -200.0067041 391.12232666 -201.01574707 391.13104248 C-202.02153809 391.14320801 -203.0273291 391.15537354 -204.06359863 391.16790771 C-213.73413979 391.22626188 -223.19078358 390.8648482 -232.81872559 389.92279053 C-240.49958045 389.21789991 -248.1574916 388.98605163 -255.8649292 388.8371582 C-268.59635489 388.57342828 -281.2555243 387.93634686 -293.93859863 386.79290771 C-295.24530518 386.67898682 -296.55201172 386.56506592 -297.89831543 386.44769287 C-320.76091242 384.26419461 -344.83889222 379.87576191 -362.71203613 364.41790771 C-364.2377663 362.96281743 -364.2377663 362.96281743 -366.31359863 363.16790771 C-366.80859863 361.18790771 -366.80859863 361.18790771 -367.31359863 359.16790771 C-367.97359863 359.16790771 -368.63359863 359.16790771 -369.31359863 359.16790771 C-374.66112537 352.95831118 -381.31359863 343.61978628 -381.31359863 335.16790771 C-381.97359863 334.83790771 -382.63359863 334.50790771 -383.31359863 334.16790771 C-384.07481217 331.31038347 -384.72704144 328.49924263 -385.31359863 325.60540771 C-385.64588602 324.02055264 -385.97921289 322.43591514 -386.31359863 320.85150146 C-386.47730957 320.0676709 -386.64102051 319.28384033 -386.80969238 318.47625732 C-387.28764979 316.28677705 -387.81859025 314.11956883 -388.37609863 311.94915771 C-391.53716049 299.19954154 -392.08941116 285.90511253 -393.04272461 272.84854126 C-393.21732049 270.4761341 -393.39536169 268.10397674 -393.57763672 265.73214722 C-395.06126614 246.30464478 -395.63446485 226.99543512 -395.57434082 207.51507568 C-395.56292641 203.78358364 -395.5697433 200.05237667 -395.58123875 196.32089424 C-395.6254967 179.25849757 -395.10302674 162.39274552 -393.77697754 145.37640381 C-393.21091735 138.09714036 -393.00255095 130.84279693 -392.87609863 123.54290771 C-392.11582557 94.39725728 -390.02998744 63.56813206 -374.31359863 38.16790771 C-373.75479004 37.23978271 -373.75479004 37.23978271 -373.18469238 36.29290771 C-372.29443932 34.87375892 -371.31323763 33.51224982 -370.31359863 32.16790771 C-369.65359863 32.16790771 -368.99359863 32.16790771 -368.31359863 32.16790771 C-368.06609863 31.58525146 -367.81859863 31.00259521 -367.56359863 30.40228271 C-366.12834417 27.83676536 -364.53696851 26.33065974 -362.31359863 24.41790771 C-361.26172363 23.49751709 -361.26172363 23.49751709 -360.18859863 22.55853271 C-358.31359863 21.16790771 -358.31359863 21.16790771 -356.31359863 21.16790771 C-356.31359863 20.50790771 -356.31359863 19.84790771 -356.31359863 19.16790771 C-327.14505286 4.39686914 -297.72133562 2.57446177 -265.50500488 1.19525146 C-264.49369633 1.15191366 -263.48238777 1.10857586 -262.4404335 1.06392479 C-175.06440949 -2.6485222 -87.39627744 -4.05068305 0 0 Z " fill="#010101" transform="translate(484.3135986328125,172.83209228515625)"/>
<path d="M0 0 C3.75550914 1.50220366 7.00077384 3.01846187 10.5 4.9765625 C11.54551025 5.56091064 12.59102051 6.14525879 13.66821289 6.74731445 C14.76770264 7.36695068 15.86719238 7.98658691 17 8.625 C18.69467407 9.57669067 18.69467407 9.57669067 20.42358398 10.54760742 C27.03761734 14.27846605 33.55340045 18.10463281 39.98046875 22.1484375 C44.2292204 24.75375222 48.58124525 27.16098743 52.93554688 29.58422852 C57.36431803 32.05724 61.72892598 34.61420112 66.0625 37.25 C72.5039666 41.16426804 79.05254398 44.873117 85.625 48.5625 C92.70137603 52.53674732 99.68169777 56.5861062 106.5546875 60.90234375 C112.06810364 64.31128589 117.75170706 67.44387143 123.40478516 70.61352539 C129.11240563 73.83682384 134.5987155 77.28600201 140 81 C138.76231969 84.71304094 137.82478743 84.94843182 134.46875 86.78515625 C133.52201416 87.31036865 132.57527832 87.83558105 131.59985352 88.37670898 C130.57690186 88.93302002 129.5539502 89.48933105 128.5 90.0625 C126.37304965 91.24101829 124.24675118 92.42071381 122.12109375 93.6015625 C121.07163574 94.18196289 120.02217773 94.76236328 118.94091797 95.36035156 C115.11276311 97.49466071 111.33098295 99.69996325 107.5625 101.9375 C106.20974425 102.73846509 104.85687616 103.53924046 103.50390625 104.33984375 C102.79637207 104.75862793 102.08883789 105.17741211 101.35986328 105.60888672 C96.58395981 108.42422895 91.79042763 111.2094705 87 114 C80.15888026 117.98688126 73.3215388 121.97970147 66.5 126 C53.33306741 133.7560837 40.14357544 141.47476363 26.89453125 149.08984375 C26.30613968 149.4282579 25.71774811 149.76667206 25.11152649 150.11534119 C22.26024266 151.75503425 19.40770495 153.39242313 16.55297852 155.02612305 C10.36530429 158.56295168 10.36530429 158.56295168 4.3828125 162.4296875 C2 164 2 164 0 164 C0 109.88 0 55.76 0 0 Z " fill="#FDFDFD" transform="translate(312,286)"/>
<path d="M0 0 C0 0.33 0 0.66 0 1 C-19.14 1 -38.28 1 -58 1 C-58 0.34 -58 -0.32 -58 -1 C-78.0998214 -0.89199366 -98.19961002 -0.77910768 -118.29937267 -0.66066074 C-127.63536172 -0.60575382 -136.97135452 -0.5523497 -146.30737305 -0.50268555 C-154.45967759 -0.45931428 -162.61195882 -0.41291765 -170.76422673 -0.36312145 C-175.06710053 -0.33693784 -179.36997099 -0.31210998 -183.67287254 -0.29092598 C-202.12053357 -0.19912052 -220.53307283 0.04580225 -238.96801758 0.78283691 C-247.24998672 1.10605999 -255.52583254 1.11359871 -263.8125 1.0625 C-265.31835778 1.05744405 -266.82421733 1.0528888 -268.33007812 1.04882812 C-271.88675785 1.03821624 -275.44336559 1.02121123 -279 1 C-279 0.67 -279 0.34 -279 0 C-186.23872149 -4.80569005 -92.7507526 -5.51266372 0 0 Z " fill="#919191" transform="translate(506,174)"/>
<path d="M0 0 C34.74260128 -0.63265698 67.7626169 0.62148021 99 17 C99 17.66 99 18.32 99 19 C99.70125 19.226875 100.4025 19.45375 101.125 19.6875 C111.94054639 24.62503205 118.16111447 36.82676769 123.3203125 46.9765625 C124 49 124 49 123 52 C117.33027523 42.88073394 117.33027523 42.88073394 115.6875 38.5 C108.57927477 23.75701433 92.82585833 15.82183101 78.1875 10.375 C59.07457005 3.80493033 39.45566643 2.74174044 19.4375 1.875 C17.53968812 1.78831524 15.64190136 1.70107859 13.74414062 1.61328125 C9.16302391 1.40251725 4.58163646 1.19913199 0 1 C0 0.67 0 0.34 0 0 Z " fill="#D0D0D0" transform="translate(509,175)"/>
<path d="M0 0 C2.56956201 4.63325798 2.8936593 9.23675612 3.5 14.4375 C3.62673096 15.51064453 3.75346191 16.58378906 3.8840332 17.68945312 C4.99653316 27.77311332 5.63711254 37.872383 6.1875 48 C6.2302002 48.76843231 6.27290039 49.53686462 6.31689453 50.32858276 C6.91040261 61.2271657 7.10102171 72.08620105 7 83 C6.67 83 6.34 83 6 83 C5.11315641 77.51802852 4.74726647 72.12399576 4.53515625 66.578125 C4.45650638 64.72785922 4.3777259 62.87759898 4.29882812 61.02734375 C4.1805256 58.15844677 4.06406418 55.28949629 3.95043945 52.42041016 C3.54588491 42.3302406 3.03973639 32.28139776 1.99609375 22.234375 C1.91327652 21.43082581 1.83045929 20.62727661 1.74513245 19.79937744 C1.35255447 15.77174696 1.35255447 15.77174696 0 12 C-0.07065617 9.95944995 -0.08421976 7.91665743 -0.0625 5.875 C-0.05347656 4.77929688 -0.04445313 3.68359375 -0.03515625 2.5546875 C-0.02355469 1.71164063 -0.01195312 0.86859375 0 0 Z " fill="#A6A6A6" transform="translate(638,244)"/>
<path d="M0 0 C7.06536889 1.25353319 12.71456473 3.56203749 19 7 C19 7.66 19 8.32 19 9 C19.70125 9.226875 20.4025 9.45375 21.125 9.6875 C31.94054639 14.62503205 38.16111447 26.82676769 43.3203125 36.9765625 C44 39 44 39 43 42 C37.33027523 32.88073394 37.33027523 32.88073394 35.6875 28.5 C28.88153464 14.3839237 13.99450594 6.47395719 0 1 C0 0.67 0 0.34 0 0 Z " fill="#C4C4C4" transform="translate(589,185)"/>
<path d="M0 0 C0.33 0 0.66 0 1 0 C2.13477971 4.65165899 2.25249774 9.23996734 2.4375 14 C2.1810358 26.82213342 2.1810358 26.82213342 6 38 C6.22706694 39.47509551 6.39453457 40.95948219 6.53515625 42.4453125 C6.62216797 43.35796875 6.70917969 44.270625 6.79882812 45.2109375 C6.88583984 46.17257812 6.97285156 47.13421875 7.0625 48.125 C7.15337891 49.0634375 7.24425781 50.001875 7.33789062 50.96875 C7.80680338 56.00339217 8.10503918 60.94411416 8 66 C7.67 66 7.34 66 7 66 C2.09615109 44.48844944 -0.79092888 22.10206811 0 0 Z " fill="#A0A0A0" transform="translate(91,429)"/>
<path d="M0 0 C-2.98704072 1.67372456 -5.51396805 2.3829534 -8.90234375 2.81640625 C-10.34746338 3.0026355 -10.34746338 3.0026355 -11.82177734 3.19262695 C-12.84996582 3.31468506 -13.8781543 3.43674316 -14.9375 3.5625 C-16.52232178 3.75428833 -16.52232178 3.75428833 -18.13916016 3.94995117 C-25.37342299 4.78633519 -32.60324128 5.41889748 -39.875 5.8125 C-40.76566162 5.86543213 -41.65632324 5.91836426 -42.57397461 5.97290039 C-44.71393242 6.06704084 -46.85843535 6.04452758 -49 6 C-49.66 5.34 -50.32 4.68 -51 4 C-47.25518897 2.86161539 -43.56722812 2.71454613 -39.671875 2.5 C-38.9640387 2.45939453 -38.25620239 2.41878906 -37.5269165 2.37695312 C-35.2681313 2.24768436 -33.00911337 2.12339087 -30.75 2 C-28.5051961 1.87622878 -26.26048449 1.75126837 -24.01593018 1.62304688 C-21.96878976 1.50624289 -19.92141158 1.39362808 -17.87402344 1.28125 C-15.1288176 1.08195096 -12.45183839 0.82568167 -9.72753906 0.47265625 C-6.42940304 0.0544488 -3.31791162 -0.08294779 0 0 Z " fill="#808080" transform="translate(571,555)"/>
<path d="M0 0 C0.33 0 0.66 0 1 0 C1.4561436 10.29364064 0.0421061 20.11349856 -1.5 30.25 C-1.74167591 31.88139351 -1.98256688 33.5129035 -2.22265625 35.14453125 C-2.80607818 39.09775317 -3.40004832 43.04925436 -4 47 C-4.33 47 -4.66 47 -5 47 C-4.86184471 43.18718055 -4.71319438 39.37484283 -4.5625 35.5625 C-4.52318359 34.47388672 -4.48386719 33.38527344 -4.44335938 32.26367188 C-4.40146484 31.22919922 -4.35957031 30.19472656 -4.31640625 29.12890625 C-4.27974854 28.17056885 -4.24309082 27.21223145 -4.20532227 26.22485352 C-4 24 -4 24 -3 23 C-2.76572222 20.98405418 -2.58663876 18.961526 -2.4375 16.9375 C-2.31181641 15.28041016 -2.31181641 15.28041016 -2.18359375 13.58984375 C-2.12300781 12.73519531 -2.06242188 11.88054687 -2 11 C-1.34 11 -0.68 11 0 11 C0 7.37 0 3.74 0 0 Z " fill="#979797" transform="translate(643,443)"/>
<path d="M0 0 C16.17 0 32.34 0 49 0 C49 0.33 49 0.66 49 1 C47.6078125 1.2165625 47.6078125 1.2165625 46.1875 1.4375 C42.99274889 1.92100111 42.99274889 1.92100111 40 3 C38.2412426 2.9257342 36.48507076 2.78152404 34.734375 2.59765625 C27.57804475 1.92580668 20.43231228 1.66616443 13.25 1.4375 C11.96867188 1.39431641 10.68734375 1.35113281 9.3671875 1.30664062 C6.24486934 1.20178666 3.12248879 1.09961982 0 1 C0 0.67 0 0.34 0 0 Z " fill="#888888" transform="translate(214,560)"/>
<path d="M0 0 C1.72974441 0.00015918 3.45949355 0.0058569 5.18920898 0.01586914 C6.09783188 0.01728409 7.00645477 0.01869904 7.94261169 0.02015686 C10.85687494 0.02577346 13.77106254 0.03832874 16.68530273 0.05102539 C18.65600475 0.05603825 20.62670797 0.06060153 22.59741211 0.06469727 C27.43923832 0.07574828 32.28100768 0.09302401 37.12280273 0.11352539 C37.12280273 0.44352539 37.12280273 0.77352539 37.12280273 1.11352539 C31.46348979 1.44830165 25.80363287 1.76946095 20.14282227 2.07788086 C18.21617721 2.18479033 16.28973677 2.29545465 14.36352539 2.40991211 C11.59883761 2.5735452 8.8337013 2.72377325 6.06811523 2.87133789 C5.20348663 2.92540802 4.33885803 2.97947815 3.44802856 3.03518677 C1.34210988 3.14089989 -0.76875792 3.13702584 -2.87719727 3.11352539 C-3.53719727 2.45352539 -4.19719727 1.79352539 -4.87719727 1.11352539 C-3.87719727 0.11352539 -3.87719727 0.11352539 0 0 Z " fill="#808080" transform="translate(479.877197265625,559.886474609375)"/>
<path d="M0 0 C2.5864584 2.5864584 3.62271883 5.2938548 5.125 8.625 C5.66382812 9.81351563 6.20265625 11.00203125 6.7578125 12.2265625 C7.37269531 13.59941406 7.37269531 13.59941406 8 15 C8.99 15 9.98 15 11 15 C11 16.98 11 18.96 11 21 C7.08708763 17.44038296 4.83356036 14.19947679 2.6875 9.375 C2.17574219 8.24835937 1.66398437 7.12171875 1.13671875 5.9609375 C0 3 0 3 0 0 Z " fill="#959595" transform="translate(103,508)"/>
<path d="M0 0 C0.99 0.33 1.98 0.66 3 1 C-6.41002278 5.40774487 -6.41002278 5.40774487 -11 6 C-10.67 5.01 -10.34 4.02 -10 3 C-8.22265625 2.3046875 -8.22265625 2.3046875 -6.0625 1.875 C-3.81226851 1.40943487 -2.06266481 1.03133241 0 0 Z " fill="#AAAAAA" transform="translate(597,546)"/>
<path d="M0 0 C2.475 0.495 2.475 0.495 5 1 C5.33 2.65 5.66 4.3 6 6 C5.01 6.495 5.01 6.495 4 7 C3.67 5.68 3.34 4.36 3 3 C2.34 3 1.68 3 1 3 C0.67 2.01 0.34 1.02 0 0 Z " fill="#848484" transform="translate(114,529)"/>
</svg>
