<?xml version="1.0" encoding="UTF-8"?>
<svg xmlns="http://www.w3.org/2000/svg" xmlns:xlink="http://www.w3.org/1999/xlink" width="64px" height="64px" viewBox="0 0 64 64" version="1.1">
<g id="surface1">
<path style=" stroke:none;fill-rule:nonzero;fill:rgb(100%,100%,100%);fill-opacity:1;" d="M 21.5 13.75 C 21.542969 13.84375 21.585938 13.9375 21.628906 14.035156 C 22.484375 15.84375 23.664062 17.171875 25.546875 17.929688 C 27.5625 18.566406 29.367188 18.433594 31.25 17.5 C 31.351562 17.425781 31.453125 17.351562 31.558594 17.277344 C 31.875 17.125 31.875 17.125 32.207031 17.179688 C 32.796875 17.453125 33.351562 17.769531 33.914062 18.09375 C 34.171875 18.242188 34.429688 18.386719 34.6875 18.535156 C 34.886719 18.648438 34.886719 18.648438 35.089844 18.765625 C 35.632812 19.078125 36.183594 19.382812 36.730469 19.6875 C 37.125 19.910156 37.523438 20.132812 37.917969 20.355469 C 38.335938 20.589844 38.757812 20.824219 39.183594 21.050781 C 40.109375 21.554688 40.800781 22.007812 41.296875 22.953125 C 41.382812 23.273438 41.378906 23.546875 41.375 23.875 C 41.519531 23.871094 41.667969 23.871094 41.816406 23.867188 C 42.011719 23.863281 42.203125 23.863281 42.398438 23.859375 C 42.496094 23.855469 42.589844 23.855469 42.691406 23.851562 C 43.683594 23.84375 43.683594 23.84375 44.125 24.125 C 44.328125 24.402344 44.496094 24.65625 44.664062 24.953125 C 44.730469 25.066406 44.730469 25.066406 44.800781 25.183594 C 44.910156 25.371094 45.019531 25.5625 45.125 25.75 C 45.257812 25.683594 45.394531 25.613281 45.53125 25.542969 C 45.710938 25.453125 45.890625 25.363281 46.070312 25.273438 C 46.160156 25.230469 46.246094 25.183594 46.335938 25.136719 C 47.855469 24.375 47.855469 24.375 48.390625 24.375 C 48.941406 24.566406 49.226562 24.945312 49.589844 25.382812 C 49.957031 25.695312 50.246094 25.734375 50.71875 25.8125 C 52.019531 26.0625 52.820312 26.476562 53.585938 27.585938 C 54.3125 28.820312 54.246094 30.394531 53.90625 31.75 C 53.566406 32.679688 53.023438 33.425781 52.125 33.875 C 52.203125 34.332031 52.332031 34.734375 52.507812 35.164062 C 52.554688 35.273438 52.597656 35.386719 52.644531 35.5 C 52.695312 35.621094 52.695312 35.621094 52.75 35.75 C 52.898438 35.746094 53.050781 35.746094 53.203125 35.742188 C 57.035156 35.6875 60.664062 36.703125 63.5 39.375 C 63.699219 39.777344 63.683594 40.191406 63.625 40.625 C 63.4375 40.9375 63.4375 40.9375 63.125 41.125 C 62.53125 41.183594 62.257812 41.207031 61.746094 40.890625 C 61.625 40.785156 61.507812 40.679688 61.382812 40.570312 C 59.117188 38.6875 56.511719 38.074219 53.625 37.875 C 53.679688 38.007812 53.679688 38.007812 53.734375 38.140625 C 53.78125 38.253906 53.828125 38.367188 53.875 38.484375 C 53.921875 38.597656 53.96875 38.710938 54.015625 38.828125 C 54.125 39.125 54.125 39.125 54.125 39.375 C 54.308594 39.378906 54.308594 39.378906 54.496094 39.382812 C 57.414062 39.492188 59.71875 40.546875 61.765625 42.625 C 63.664062 44.789062 64.167969 47.335938 64.027344 50.144531 C 63.84375 52.535156 62.53125 54.75 60.765625 56.320312 C 58.535156 58.082031 56.050781 58.6875 53.25 58.5 C 51.351562 58.273438 49.699219 57.488281 48.25 56.25 C 48.09375 56.128906 48.09375 56.128906 47.9375 56.007812 C 46.332031 54.675781 45.25 52.433594 45 50.375 C 44.824219 47.46875 45.355469 44.890625 47.269531 42.621094 C 47.464844 42.410156 47.667969 42.222656 47.882812 42.03125 C 48.164062 41.765625 48.164062 41.765625 48.125 41.390625 C 47.984375 40.953125 47.816406 40.542969 47.625 40.125 C 47.210938 40.453125 46.800781 40.785156 46.375 41.125 C 46.089844 40.699219 45.875 40.257812 45.652344 39.796875 C 45.496094 39.480469 45.496094 39.480469 45.25 39.125 C 45.335938 39.058594 45.421875 38.988281 45.511719 38.917969 C 45.621094 38.828125 45.734375 38.742188 45.851562 38.648438 C 46.019531 38.515625 46.019531 38.515625 46.191406 38.378906 C 46.519531 38.117188 46.519531 38.117188 46.875 37.75 C 46.6875 37.132812 46.6875 37.132812 46.5 36.5 C 46.316406 36.46875 46.132812 36.4375 45.945312 36.40625 C 45.195312 36.269531 44.457031 36.097656 43.71875 35.914062 C 43.34375 35.824219 43.011719 35.75 42.625 35.75 C 42.371094 37.84375 42.371094 37.84375 43.148438 39.703125 C 43.460938 40.027344 43.785156 40.328125 44.125 40.625 C 44.4375 41.089844 44.460938 41.460938 44.375 42 C 44.207031 42.332031 44.050781 42.597656 43.835938 42.898438 C 43.710938 43.085938 43.582031 43.273438 43.457031 43.460938 C 43.382812 43.5625 43.3125 43.667969 43.238281 43.773438 C 42.820312 44.390625 42.417969 45.011719 42.011719 45.632812 C 41.757812 46.027344 41.5 46.417969 41.242188 46.804688 C 40.839844 47.425781 40.433594 48.042969 40.03125 48.660156 C 39.933594 48.808594 39.839844 48.957031 39.742188 49.101562 C 39.566406 49.375 39.390625 49.644531 39.210938 49.917969 C 38.820312 50.515625 38.429688 51.113281 38.023438 51.703125 C 37.957031 51.800781 37.890625 51.902344 37.820312 52.003906 C 37.625 52.25 37.625 52.25 37.25 52.5 C 36.917969 52.523438 36.597656 52.53125 36.265625 52.527344 C 36.117188 52.527344 36.117188 52.527344 35.964844 52.527344 C 35.632812 52.527344 35.300781 52.527344 34.972656 52.523438 C 34.742188 52.523438 34.511719 52.523438 34.285156 52.523438 C 33.679688 52.523438 33.078125 52.519531 32.472656 52.515625 C 31.855469 52.515625 31.242188 52.511719 30.625 52.511719 C 29.417969 52.507812 28.207031 52.503906 27 52.5 C 26.960938 52.640625 26.925781 52.777344 26.886719 52.921875 C 26.753906 53.363281 26.664062 53.542969 26.335938 53.851562 C 26.265625 53.921875 26.191406 53.992188 26.117188 54.066406 C 25.542969 54.5 25.042969 54.523438 24.335938 54.5 C 24.15625 54.496094 23.976562 54.496094 23.796875 54.492188 C 23.515625 54.488281 23.238281 54.484375 22.957031 54.472656 C 21.742188 54.410156 21.742188 54.410156 20.703125 54.953125 C 20.347656 55.316406 20.050781 55.714844 19.75 56.125 C 18.5 57.464844 16.390625 58.414062 14.5625 58.519531 C 11.644531 58.617188 9.316406 58.085938 7.050781 56.171875 C 6.742188 55.867188 6.507812 55.546875 6.257812 55.1875 C 5.972656 54.808594 5.84375 54.648438 5.382812 54.53125 C 5.121094 54.515625 4.855469 54.507812 4.59375 54.503906 C 4.007812 54.496094 3.675781 54.296875 3.265625 53.890625 C 2.65625 53.222656 2.65625 53.222656 2.5 52.75 C 2.367188 52.738281 2.230469 52.730469 2.09375 52.71875 C 1.578125 52.617188 1.417969 52.554688 1.125 52.125 C 1 51.695312 1 51.695312 1 51.25 C 1.222656 50.898438 1.378906 50.6875 1.75 50.5 C 2 50.496094 2.25 50.496094 2.5 50.5 C 2.507812 50.414062 2.515625 50.328125 2.523438 50.242188 C 2.699219 49.605469 3.054688 49.140625 3.585938 48.757812 C 3.875 48.625 3.875 48.625 4.125 48.625 C 4.128906 48.503906 4.128906 48.503906 4.132812 48.382812 C 4.265625 46.28125 5.113281 44.441406 6.5 42.875 C 6.566406 42.796875 6.628906 42.722656 6.695312 42.640625 C 8.339844 40.835938 10.785156 40.003906 13.160156 39.847656 C 13.785156 39.839844 14.386719 39.890625 15 40 C 15.019531 39.914062 15.042969 39.828125 15.0625 39.742188 C 15.339844 39.199219 15.78125 38.878906 16.25 38.5 C 13.363281 37.699219 10.421875 38.253906 7.789062 39.59375 C 5.234375 41.066406 3.328125 43.347656 2.53125 46.21875 C 2.300781 47.113281 2.167969 48.003906 2.117188 48.925781 C 2.082031 49.390625 2.03125 49.59375 1.703125 49.929688 C 1.296875 50.171875 1.089844 50.203125 0.625 50.125 C 0.292969 49.929688 0.292969 49.929688 0 49.625 C -0.078125 49.210938 -0.078125 49.210938 -0.078125 48.710938 C -0.078125 48.621094 -0.0820312 48.53125 -0.0820312 48.4375 C -0.0820312 48.136719 -0.0820312 47.835938 -0.078125 47.53125 C -0.078125 47.324219 -0.078125 47.113281 -0.078125 46.902344 C -0.078125 46.464844 -0.078125 46.023438 -0.0742188 45.582031 C -0.0703125 45.019531 -0.0703125 44.460938 -0.0742188 43.898438 C -0.0742188 43.464844 -0.0742188 43.03125 -0.0703125 42.597656 C -0.0703125 42.390625 -0.0703125 42.183594 -0.0703125 41.976562 C -0.078125 39.773438 -0.078125 39.773438 0.75 38.84375 C 0.832031 38.777344 0.914062 38.710938 1 38.640625 C 1.082031 38.570312 1.164062 38.503906 1.25 38.429688 C 1.976562 37.90625 2.699219 37.859375 3.582031 37.867188 C 5.816406 37.902344 5.816406 37.902344 7.863281 37.105469 C 8.597656 36.667969 9.429688 36.472656 10.25 36.25 C 10.40625 36.207031 10.40625 36.207031 10.566406 36.160156 C 13.101562 35.550781 16.199219 35.777344 18.59375 36.824219 C 19.136719 37.058594 19.488281 37.101562 20.046875 36.886719 C 20.328125 36.765625 20.601562 36.636719 20.875 36.5 C 20.453125 36.277344 20.019531 36.101562 19.578125 35.929688 C 19.441406 35.875 19.304688 35.820312 19.160156 35.765625 C 18.417969 35.511719 17.691406 35.476562 16.914062 35.445312 C 14.296875 35.308594 14.296875 35.308594 13.375 34.375 C 12.914062 33.785156 12.929688 33.136719 12.949219 32.414062 C 13.074219 31.402344 13.609375 30.648438 14.375 30 C 14.457031 30 14.539062 30 14.625 30 C 14.683594 30.121094 14.683594 30.121094 14.742188 30.25 C 15.699219 32.15625 17.117188 33.382812 19.113281 34.148438 C 19.207031 34.183594 19.304688 34.222656 19.40625 34.257812 C 20.703125 34.757812 22.015625 35.214844 23.328125 35.679688 C 23.589844 35.773438 23.851562 35.863281 24.109375 35.957031 C 24.738281 36.179688 25.371094 36.402344 26 36.625 C 26.011719 36.730469 26.023438 36.839844 26.035156 36.949219 C 26.144531 37.957031 26.253906 38.96875 26.367188 39.976562 C 26.421875 40.496094 26.480469 41.015625 26.535156 41.53125 C 26.589844 42.035156 26.644531 42.535156 26.699219 43.039062 C 26.722656 43.226562 26.742188 43.417969 26.761719 43.609375 C 26.96875 45.585938 27.417969 47.117188 28.980469 48.433594 C 30.136719 49.257812 31.371094 49.347656 32.75 49.25 C 34.183594 48.933594 35.226562 48.175781 36.042969 46.972656 C 36.980469 45.398438 36.753906 43.519531 36.660156 41.757812 C 36.652344 41.542969 36.640625 41.328125 36.628906 41.113281 C 36.605469 40.667969 36.582031 40.21875 36.558594 39.769531 C 36.53125 39.203125 36.5 38.632812 36.472656 38.0625 C 36.449219 37.621094 36.425781 37.179688 36.40625 36.734375 C 36.394531 36.523438 36.382812 36.316406 36.371094 36.105469 C 36.25 33.636719 36.128906 31.308594 34.375 29.375 C 33.9375 29.003906 33.480469 28.683594 33 28.375 C 32.898438 28.308594 32.796875 28.242188 32.691406 28.175781 C 32.460938 28.03125 32.230469 27.890625 32 27.75 C 32.367188 27.382812 32.8125 27.347656 33.304688 27.242188 C 33.40625 27.21875 33.507812 27.199219 33.613281 27.175781 C 34.367188 27.019531 35.105469 26.902344 35.875 26.875 C 36.03125 26.867188 36.03125 26.867188 36.195312 26.859375 C 37.953125 26.816406 39.738281 27.0625 41.296875 27.914062 C 41.800781 28.148438 41.980469 28.152344 42.5 28 C 42.617188 27.976562 42.738281 27.953125 42.859375 27.929688 C 42.945312 27.910156 43.035156 27.894531 43.125 27.875 C 43.132812 27.726562 43.140625 27.574219 43.148438 27.421875 C 43.152344 27.335938 43.15625 27.253906 43.160156 27.167969 C 43.113281 26.769531 42.941406 26.472656 42.75 26.125 C 42.394531 26.113281 42.035156 26.101562 41.679688 26.09375 C 41.578125 26.089844 41.480469 26.085938 41.375 26.082031 C 40.636719 26.070312 40.238281 26.214844 39.625 26.625 C 38.757812 26.949219 37.933594 26.683594 37.105469 26.375 C 36.996094 26.335938 36.890625 26.296875 36.777344 26.257812 C 35.566406 25.816406 34.367188 25.347656 33.171875 24.875 C 32.957031 24.789062 32.738281 24.703125 32.523438 24.621094 C 32.097656 24.453125 31.675781 24.289062 31.25 24.121094 C 30.292969 23.746094 29.335938 23.371094 28.375 23 C 28.15625 23.632812 27.953125 24.265625 27.800781 24.917969 C 27.765625 25.054688 27.734375 25.191406 27.699219 25.335938 C 27.667969 25.472656 27.636719 25.613281 27.601562 25.757812 C 27.566406 25.902344 27.535156 26.046875 27.5 26.195312 C 27.414062 26.546875 27.332031 26.898438 27.25 27.25 C 27.324219 27.289062 27.402344 27.328125 27.476562 27.367188 C 28.363281 27.824219 29.246094 28.285156 30.125 28.75 C 30.238281 28.808594 30.347656 28.867188 30.464844 28.925781 C 32.097656 29.789062 33.539062 30.570312 34.25 32.375 C 34.535156 33.691406 34.570312 35.054688 34.632812 36.398438 C 34.644531 36.613281 34.65625 36.824219 34.667969 37.039062 C 34.6875 37.484375 34.710938 37.929688 34.734375 38.375 C 34.761719 38.941406 34.789062 39.511719 34.816406 40.082031 C 34.84375 40.625 34.871094 41.171875 34.898438 41.71875 C 34.90625 41.820312 34.910156 41.925781 34.914062 42.03125 C 34.929688 42.324219 34.945312 42.617188 34.957031 42.910156 C 34.960938 42.992188 34.964844 43.078125 34.972656 43.167969 C 35.03125 44.421875 35.054688 45.523438 34.234375 46.546875 C 33.53125 47.273438 32.824219 47.523438 31.820312 47.570312 C 30.902344 47.535156 30.164062 47.300781 29.515625 46.632812 C 28.980469 45.953125 28.734375 45.320312 28.636719 44.457031 C 28.621094 44.296875 28.601562 44.136719 28.582031 43.96875 C 28.5625 43.792969 28.542969 43.613281 28.523438 43.4375 C 28.503906 43.253906 28.480469 43.070312 28.460938 42.886719 C 28.402344 42.371094 28.34375 41.859375 28.289062 41.34375 C 28.246094 40.980469 28.207031 40.613281 28.167969 40.25 C 27.984375 38.625 27.804688 37 27.625 35.375 C 27.53125 35.34375 27.4375 35.308594 27.34375 35.277344 C 26.457031 34.96875 25.570312 34.65625 24.683594 34.34375 C 24.230469 34.183594 23.773438 34.023438 23.316406 33.867188 C 22.875 33.710938 22.4375 33.558594 21.996094 33.402344 C 21.828125 33.34375 21.664062 33.285156 21.496094 33.226562 C 19.292969 32.464844 17.496094 31.691406 16.332031 29.570312 C 15.535156 27.761719 16.011719 25.746094 16.632812 23.96875 C 16.699219 23.769531 16.765625 23.570312 16.832031 23.367188 C 16.941406 23.046875 17.046875 22.730469 17.15625 22.410156 C 17.445312 21.542969 17.722656 20.671875 17.992188 19.800781 C 18.113281 19.402344 18.238281 19.003906 18.363281 18.601562 C 18.441406 18.34375 18.523438 18.085938 18.601562 17.824219 C 18.714844 17.457031 18.828125 17.09375 18.945312 16.726562 C 18.992188 16.566406 18.992188 16.566406 19.042969 16.402344 C 19.410156 15.25 20.125 13.75 21.5 13.75 Z M 43.625 29.875 C 43.46875 30.117188 43.46875 30.117188 43.566406 30.355469 C 43.601562 30.449219 43.636719 30.539062 43.671875 30.632812 C 44.042969 31.699219 44.003906 32.632812 43.875 33.75 C 44.410156 33.875 44.949219 33.996094 45.5 34.125 C 45.398438 33.523438 45.285156 33.089844 45.0625 32.535156 C 45.03125 32.460938 45 32.382812 44.96875 32.304688 C 44.875 32.0625 44.777344 31.820312 44.679688 31.578125 C 44.613281 31.414062 44.546875 31.246094 44.484375 31.082031 C 44.324219 30.679688 44.160156 30.277344 44 29.875 C 43.875 29.875 43.753906 29.875 43.625 29.875 Z M 23.992188 46.476562 C 23.523438 46.886719 23.089844 47.0625 22.5 47.25 C 22.519531 47.414062 22.535156 47.574219 22.554688 47.742188 C 22.566406 47.832031 22.574219 47.925781 22.585938 48.019531 C 22.601562 48.25 22.601562 48.25 22.75 48.375 C 23.109375 48.382812 23.460938 48.386719 23.820312 48.382812 C 23.972656 48.382812 23.972656 48.382812 24.125 48.382812 C 24.375 48.378906 24.625 48.378906 24.875 48.375 C 24.890625 47.796875 24.851562 47.3125 24.6875 46.757812 C 24.652344 46.636719 24.617188 46.519531 24.582031 46.394531 C 24.554688 46.304688 24.527344 46.21875 24.5 46.125 C 24.28125 46.125 24.148438 46.332031 23.992188 46.476562 Z M 23.992188 46.476562 "/>
<path style=" stroke:none;fill-rule:nonzero;fill:rgb(100%,100%,100%);fill-opacity:1;" d="M 22.25 15.375 C 22.535156 15.648438 22.785156 15.921875 23.03125 16.234375 C 23.363281 16.632812 23.746094 16.925781 24.1875 17.203125 C 24.265625 17.25 24.339844 17.300781 24.417969 17.347656 C 25.816406 18.199219 27.332031 18.488281 28.941406 18.261719 C 30 18.183594 30.648438 18.554688 31.53125 19.101562 C 31.679688 19.191406 31.828125 19.277344 31.976562 19.363281 C 32.269531 19.535156 32.5625 19.710938 32.855469 19.886719 C 33.359375 20.191406 33.875 20.476562 34.390625 20.757812 C 34.566406 20.855469 34.738281 20.953125 34.914062 21.046875 C 35.375 21.308594 35.839844 21.5625 36.304688 21.820312 C 36.589844 21.976562 36.871094 22.132812 37.15625 22.289062 C 37.289062 22.363281 37.425781 22.4375 37.5625 22.511719 C 38.222656 22.878906 38.820312 23.238281 39.375 23.75 C 39.28125 24.34375 39.28125 24.34375 39 24.625 C 38.269531 24.730469 37.660156 24.433594 36.996094 24.167969 C 36.871094 24.117188 36.75 24.070312 36.625 24.023438 C 36.222656 23.863281 35.820312 23.707031 35.421875 23.546875 C 35.144531 23.4375 34.867188 23.328125 34.589844 23.21875 C 34.03125 23 33.472656 22.78125 32.914062 22.558594 C 32.21875 22.285156 31.523438 22.015625 30.828125 21.746094 C 30.730469 21.707031 30.632812 21.671875 30.53125 21.632812 C 30.160156 21.488281 29.785156 21.34375 29.414062 21.199219 C 28.5 20.84375 27.589844 20.488281 26.683594 20.109375 C 26.539062 20.050781 26.394531 19.992188 26.246094 19.929688 C 25.984375 19.820312 25.71875 19.707031 25.457031 19.59375 C 24.785156 19.3125 24.335938 19.164062 23.625 19.375 C 23.300781 19.699219 23.339844 19.9375 23.328125 20.378906 C 23.390625 20.703125 23.5 20.789062 23.75 21 C 24.023438 21.140625 24.023438 21.140625 24.332031 21.253906 C 24.445312 21.300781 24.558594 21.34375 24.671875 21.386719 C 24.789062 21.433594 24.902344 21.476562 25.023438 21.523438 C 25.140625 21.570312 25.257812 21.617188 25.378906 21.664062 C 25.667969 21.777344 25.960938 21.886719 26.25 22 C 26.179688 22.746094 26.0625 23.4375 25.863281 24.160156 C 25.8125 24.351562 25.757812 24.542969 25.707031 24.734375 C 25.628906 25.035156 25.546875 25.328125 25.464844 25.625 C 25.382812 25.917969 25.308594 26.207031 25.230469 26.496094 C 25.203125 26.585938 25.179688 26.671875 25.152344 26.761719 C 25 27.339844 24.96875 27.796875 25.125 28.375 C 25.335938 28.601562 25.335938 28.601562 25.632812 28.738281 C 25.800781 28.828125 25.800781 28.828125 25.976562 28.921875 C 26.171875 29.023438 26.171875 29.023438 26.375 29.125 C 26.527344 29.207031 26.679688 29.289062 26.835938 29.371094 C 27.4375 29.695312 28.042969 30.011719 28.648438 30.328125 C 31.859375 32.003906 31.859375 32.003906 32.375 33.25 C 32.417969 33.585938 32.417969 33.585938 32.4375 33.972656 C 32.441406 34.117188 32.449219 34.261719 32.457031 34.410156 C 32.464844 34.570312 32.46875 34.726562 32.476562 34.886719 C 32.488281 35.132812 32.5 35.382812 32.511719 35.628906 C 32.527344 35.976562 32.542969 36.324219 32.558594 36.671875 C 32.585938 37.277344 32.613281 37.882812 32.640625 38.484375 C 32.65625 38.808594 32.671875 39.128906 32.683594 39.449219 C 32.722656 40.273438 32.773438 41.097656 32.847656 41.917969 C 32.890625 42.464844 32.90625 43.007812 32.914062 43.554688 C 32.917969 43.714844 32.917969 43.714844 32.925781 43.878906 C 32.929688 44.394531 32.917969 44.675781 32.648438 45.128906 C 32.265625 45.472656 32.007812 45.507812 31.5 45.5 C 31.148438 45.277344 30.9375 45.121094 30.75 44.75 C 30.699219 44.390625 30.65625 44.027344 30.617188 43.667969 C 30.605469 43.554688 30.59375 43.445312 30.582031 43.328125 C 30.554688 43.085938 30.527344 42.847656 30.503906 42.605469 C 30.460938 42.226562 30.417969 41.847656 30.375 41.464844 C 30.238281 40.207031 30.105469 38.945312 29.992188 37.683594 C 29.96875 37.460938 29.949219 37.234375 29.925781 37.011719 C 29.886719 36.589844 29.851562 36.164062 29.816406 35.742188 C 29.796875 35.550781 29.777344 35.359375 29.761719 35.167969 C 29.753906 35.082031 29.75 34.996094 29.742188 34.90625 C 29.683594 34.339844 29.550781 34.113281 29.125 33.75 C 28.828125 33.597656 28.828125 33.597656 28.496094 33.488281 C 28.371094 33.445312 28.246094 33.398438 28.121094 33.355469 C 27.984375 33.308594 27.847656 33.261719 27.710938 33.210938 C 27.5 33.136719 27.5 33.136719 27.285156 33.0625 C 26.832031 32.902344 26.382812 32.742188 25.929688 32.585938 C 25.632812 32.480469 25.335938 32.375 25.039062 32.273438 C 24.820312 32.195312 24.820312 32.195312 24.597656 32.117188 C 24.382812 32.039062 24.382812 32.039062 24.164062 31.960938 C 23.878906 31.863281 23.589844 31.761719 23.304688 31.660156 C 23.167969 31.609375 23.035156 31.5625 22.894531 31.515625 C 22.640625 31.425781 22.386719 31.335938 22.132812 31.246094 C 21.808594 31.132812 21.484375 31.015625 21.160156 30.902344 C 21.070312 30.867188 20.976562 30.835938 20.882812 30.804688 C 19.769531 30.402344 18.84375 29.816406 18.246094 28.773438 C 17.789062 27.75 17.898438 26.691406 18.273438 25.664062 C 18.332031 25.515625 18.390625 25.367188 18.449219 25.214844 C 18.625 24.75 18.765625 24.289062 18.898438 23.8125 C 19.214844 22.695312 19.589844 21.601562 19.957031 20.503906 C 20.332031 19.394531 20.6875 18.285156 20.996094 17.15625 C 21.175781 16.589844 21.382812 15.992188 21.875 15.625 C 22 15.625 22.121094 15.625 22.25 15.625 C 22.25 15.542969 22.25 15.460938 22.25 15.375 Z M 22.25 15.375 "/>
<path style=" stroke:none;fill-rule:nonzero;fill:rgb(100%,100%,100%);fill-opacity:1;" d="M 30.800781 6.1875 C 31.9375 7.007812 32.644531 8.023438 33 9.375 C 33.066406 9.917969 33.070312 10.453125 33.0625 11 C 33.066406 11.207031 33.066406 11.207031 33.070312 11.414062 C 33.0625 12.882812 32.644531 14.058594 31.625 15.125 C 30.472656 16.226562 29.269531 16.578125 27.703125 16.558594 C 26.226562 16.5 25.144531 15.929688 24.128906 14.867188 C 23.152344 13.707031 22.917969 12.484375 22.9375 11 C 22.9375 10.863281 22.933594 10.726562 22.929688 10.585938 C 22.9375 9.117188 23.355469 7.941406 24.375 6.875 C 26.097656 5.230469 28.761719 4.917969 30.800781 6.1875 Z M 30.800781 6.1875 "/>
<path style=" stroke:none;fill-rule:nonzero;fill:rgb(100%,100%,100%);fill-opacity:1;" d="M 55 41.5 C 57.035156 41.660156 58.78125 42.507812 60.183594 43.992188 C 61.507812 45.59375 62.113281 47.460938 62.046875 49.542969 C 61.8125 51.789062 60.746094 53.570312 59.066406 55.015625 C 58.28125 55.605469 57.425781 55.949219 56.5 56.25 C 56.40625 56.28125 56.308594 56.3125 56.210938 56.34375 C 54.867188 56.707031 53.425781 56.585938 52.125 56.125 C 52.019531 56.089844 51.917969 56.058594 51.8125 56.023438 C 49.902344 55.351562 48.53125 53.890625 47.625 52.125 C 46.855469 50.113281 46.742188 48.160156 47.5 46.125 C 47.894531 45.308594 48.363281 44.527344 49 43.875 C 49.082031 43.875 49.164062 43.875 49.25 43.875 C 49.359375 44.152344 49.464844 44.429688 49.570312 44.710938 C 49.601562 44.789062 49.632812 44.867188 49.664062 44.949219 C 49.949219 45.714844 49.804688 46.152344 49.5 46.882812 C 48.976562 48.128906 48.921875 49.558594 49.378906 50.839844 C 50.078125 52.46875 51.105469 53.476562 52.746094 54.15625 C 54.105469 54.652344 55.570312 54.402344 56.875 53.875 C 58.246094 53.226562 59.050781 52.265625 59.625 50.875 C 60.085938 49.585938 60.027344 48.121094 59.539062 46.847656 C 58.835938 45.371094 57.847656 44.527344 56.375 43.875 C 56.269531 43.847656 56.160156 43.820312 56.050781 43.789062 C 55.601562 43.542969 55.5 43.148438 55.335938 42.6875 C 55.285156 42.558594 55.285156 42.558594 55.234375 42.425781 C 55 41.796875 55 41.796875 55 41.5 Z M 55 41.5 "/>
<path style=" stroke:none;fill-rule:nonzero;fill:rgb(100%,100%,100%);fill-opacity:1;" d="M 47.875 26.75 C 48.75 27.5 48.75 27.5 49 27.75 C 49.253906 27.773438 49.511719 27.789062 49.765625 27.796875 C 50.480469 27.84375 51.054688 27.921875 51.625 28.375 C 52.144531 29.027344 52.058594 29.832031 52 30.625 C 51.9375 31.101562 51.820312 31.417969 51.5 31.789062 C 51.128906 31.996094 50.894531 32.050781 50.484375 32.117188 C 49.984375 32.199219 49.984375 32.199219 49.601562 32.53125 C 49.367188 33.316406 49.78125 34.066406 50.082031 34.789062 C 50.128906 34.902344 50.179688 35.019531 50.226562 35.136719 C 50.332031 35.390625 50.433594 35.640625 50.539062 35.894531 C 50.707031 36.292969 50.871094 36.695312 51.035156 37.097656 C 51.269531 37.671875 51.507812 38.25 51.746094 38.828125 C 52.308594 40.195312 52.871094 41.5625 53.425781 42.933594 C 53.621094 43.40625 53.816406 43.882812 54.011719 44.355469 C 54.160156 44.722656 54.308594 45.089844 54.460938 45.457031 C 54.515625 45.589844 54.570312 45.722656 54.625 45.859375 C 54.675781 45.984375 54.726562 46.105469 54.777344 46.234375 C 54.820312 46.339844 54.863281 46.445312 54.90625 46.554688 C 55.015625 46.933594 55.03125 47.234375 55 47.625 C 54.691406 48.117188 54.5 48.332031 53.945312 48.515625 C 53.386719 48.496094 53.183594 48.347656 52.75 48 C 52.558594 47.652344 52.558594 47.652344 52.417969 47.238281 C 52.390625 47.160156 52.363281 47.082031 52.335938 47.003906 C 52.273438 46.832031 52.214844 46.65625 52.15625 46.484375 C 52.058594 46.191406 51.957031 45.90625 51.859375 45.617188 C 51.699219 45.167969 51.546875 44.71875 51.390625 44.273438 C 50.898438 42.84375 50.394531 41.421875 49.894531 40 C 49.804688 39.75 49.714844 39.5 49.628906 39.25 C 48.683594 36.574219 47.691406 33.921875 46.65625 31.277344 C 46.605469 31.148438 46.558594 31.019531 46.503906 30.890625 C 46.414062 30.65625 46.320312 30.417969 46.226562 30.183594 C 46.167969 30.027344 46.167969 30.027344 46.101562 29.867188 C 46.066406 29.777344 46.03125 29.6875 45.996094 29.59375 C 45.8125 29.070312 45.660156 28.535156 45.5 28 C 46.285156 27.585938 47.066406 27.175781 47.875 26.75 Z M 47.875 26.75 "/>
<path style=" stroke:none;fill-rule:nonzero;fill:rgb(100%,100%,100%);fill-opacity:1;" d="M 5.539062 50.46875 C 5.660156 50.46875 5.660156 50.46875 5.785156 50.46875 C 6.058594 50.464844 6.335938 50.46875 6.609375 50.46875 C 6.808594 50.46875 7.003906 50.46875 7.199219 50.464844 C 7.734375 50.464844 8.269531 50.464844 8.804688 50.464844 C 9.363281 50.46875 9.925781 50.464844 10.484375 50.464844 C 11.421875 50.464844 12.359375 50.464844 13.300781 50.46875 C 14.386719 50.46875 15.472656 50.46875 16.558594 50.46875 C 17.492188 50.464844 18.425781 50.464844 19.355469 50.464844 C 19.914062 50.464844 20.46875 50.464844 21.027344 50.464844 C 21.550781 50.464844 22.074219 50.464844 22.597656 50.46875 C 22.789062 50.46875 22.984375 50.46875 23.175781 50.46875 C 23.4375 50.464844 23.699219 50.46875 23.960938 50.46875 C 24.109375 50.46875 24.257812 50.46875 24.40625 50.46875 C 24.75 50.5 24.75 50.5 25 50.75 C 25.039062 51.09375 25.039062 51.09375 25.039062 51.5 C 25.042969 51.632812 25.042969 51.769531 25.046875 51.90625 C 25.03125 52.019531 25.015625 52.132812 25 52.25 C 24.550781 52.546875 24.359375 52.53125 23.828125 52.53125 C 23.746094 52.53125 23.664062 52.53125 23.582031 52.53125 C 23.308594 52.535156 23.035156 52.53125 22.761719 52.53125 C 22.566406 52.53125 22.371094 52.53125 22.175781 52.535156 C 21.644531 52.535156 21.113281 52.535156 20.582031 52.535156 C 20.027344 52.53125 19.472656 52.535156 18.917969 52.535156 C 17.984375 52.535156 17.050781 52.535156 16.117188 52.53125 C 15.039062 52.53125 13.960938 52.53125 12.882812 52.53125 C 11.957031 52.535156 11.03125 52.535156 10.105469 52.535156 C 9.550781 52.535156 9 52.535156 8.445312 52.535156 C 7.925781 52.535156 7.40625 52.535156 6.886719 52.53125 C 6.695312 52.53125 6.503906 52.53125 6.3125 52.53125 C 6.050781 52.535156 5.792969 52.53125 5.53125 52.53125 C 5.3125 52.53125 5.3125 52.53125 5.089844 52.53125 C 4.75 52.5 4.75 52.5 4.5 52.25 C 4.46875 51.90625 4.46875 51.90625 4.46875 51.5 C 4.46875 51.367188 4.46875 51.230469 4.46875 51.09375 C 4.535156 50.398438 4.941406 50.46875 5.539062 50.46875 Z M 5.539062 50.46875 "/>
<path style=" stroke:none;fill-rule:nonzero;fill:rgb(100%,100%,100%);fill-opacity:1;" d="M 41.253906 40.648438 C 41.5625 40.777344 41.664062 40.917969 41.84375 41.195312 C 41.898438 41.277344 41.949219 41.355469 42.007812 41.4375 C 42.046875 41.5 42.085938 41.5625 42.125 41.625 C 41.433594 42.746094 40.730469 43.851562 39.996094 44.945312 C 39.414062 45.8125 38.84375 46.683594 38.273438 47.554688 C 38.183594 47.6875 38.097656 47.824219 38.007812 47.960938 C 37.921875 48.09375 37.835938 48.222656 37.746094 48.359375 C 37.671875 48.472656 37.597656 48.589844 37.519531 48.707031 C 37.25 49.101562 37.25 49.101562 37.101562 49.472656 C 36.894531 49.894531 36.71875 50.179688 36.375 50.5 C 35.652344 50.695312 34.953125 50.660156 34.210938 50.632812 C 34 50.632812 33.789062 50.628906 33.578125 50.628906 C 33.019531 50.625 32.464844 50.609375 31.910156 50.59375 C 31.34375 50.582031 30.777344 50.574219 30.210938 50.566406 C 29.097656 50.550781 27.988281 50.527344 26.875 50.5 C 26.875 50.421875 26.878906 50.339844 26.878906 50.257812 C 26.933594 48.207031 26.933594 48.207031 26.617188 46.1875 C 26.578125 46.019531 26.578125 46.019531 26.535156 45.847656 C 26.308594 44.96875 25.953125 44.199219 25.539062 43.394531 C 25.300781 42.824219 25.34375 42.464844 25.5 41.875 C 25.746094 41.792969 25.996094 41.710938 26.25 41.625 C 26.292969 41.417969 26.332031 41.210938 26.375 41 C 26.417969 41 26.457031 41 26.5 41 C 26.511719 41.125 26.523438 41.25 26.539062 41.378906 C 26.585938 41.851562 26.636719 42.324219 26.6875 42.792969 C 26.707031 42.996094 26.726562 43.199219 26.75 43.402344 C 26.953125 45.449219 27.34375 47.054688 28.980469 48.433594 C 30.136719 49.257812 31.371094 49.347656 32.75 49.25 C 34.183594 48.933594 35.222656 48.175781 36.042969 46.976562 C 36.324219 46.496094 36.496094 46.035156 36.625 45.5 C 36.667969 45.320312 36.714844 45.144531 36.757812 44.964844 C 36.816406 44.734375 36.816406 44.734375 36.875 44.5 C 36.953125 44.496094 37.027344 44.496094 37.109375 44.492188 C 37.457031 44.480469 37.808594 44.46875 38.15625 44.453125 C 38.335938 44.449219 38.335938 44.449219 38.523438 44.441406 C 38.699219 44.433594 38.699219 44.433594 38.875 44.425781 C 39.039062 44.421875 39.039062 44.421875 39.203125 44.414062 C 39.519531 44.371094 39.730469 44.296875 40 44.125 C 40.15625 43.808594 40.152344 43.574219 40.164062 43.222656 C 40.167969 43.09375 40.175781 42.964844 40.179688 42.832031 C 40.183594 42.695312 40.191406 42.5625 40.195312 42.421875 C 40.203125 42.21875 40.203125 42.21875 40.210938 42.007812 C 40.226562 41.671875 40.238281 41.335938 40.25 41 C 40.921875 40.617188 40.921875 40.617188 41.253906 40.648438 Z M 41.253906 40.648438 "/>
<path style=" stroke:none;fill-rule:nonzero;fill:rgb(100%,100%,100%);fill-opacity:1;" d="M 29.402344 7.753906 C 30.109375 8.136719 30.546875 8.605469 30.882812 9.332031 C 31.195312 10.457031 31.230469 11.910156 30.75 12.984375 C 30.28125 13.738281 29.585938 14.222656 28.75 14.5 C 27.714844 14.640625 26.847656 14.5 26 13.875 C 25.0625 12.910156 24.941406 11.992188 24.945312 10.699219 C 24.964844 9.851562 25.058594 9.164062 25.625 8.5 C 26.679688 7.492188 28.03125 7.144531 29.402344 7.753906 Z M 29.402344 7.753906 "/>
<path style=" stroke:none;fill-rule:nonzero;fill:rgb(100%,100%,100%);fill-opacity:1;" d="M 41.027344 30.171875 C 41.542969 30.644531 41.960938 31.191406 42.023438 31.90625 C 42.039062 32.710938 41.980469 33.328125 41.4375 33.972656 C 40.210938 35.175781 38.199219 35.75 36.5 35.75 C 36.5 36.039062 36.5 36.328125 36.5 36.625 C 36.457031 36.625 36.417969 36.625 36.375 36.625 C 36.371094 36.515625 36.363281 36.40625 36.359375 36.292969 C 36.339844 35.878906 36.320312 35.464844 36.296875 35.050781 C 36.285156 34.875 36.277344 34.695312 36.269531 34.519531 C 36.171875 32.382812 35.515625 30.835938 34.25 29.125 C 36.570312 28.835938 39.050781 28.710938 41.027344 30.171875 Z M 41.027344 30.171875 "/>
<path style=" stroke:none;fill-rule:nonzero;fill:rgb(100%,100%,100%);fill-opacity:1;" d="M 22.75 38.375 C 23.21875 38.625 23.453125 38.808594 23.75 39.25 C 23.859375 40.355469 23.699219 41.460938 23.523438 42.554688 C 23.503906 42.695312 23.480469 42.835938 23.460938 42.984375 C 23.210938 44.597656 23.210938 44.597656 22.59375 45.109375 C 22.160156 45.285156 21.832031 45.34375 21.375 45.25 C 20.863281 45.015625 20.386719 44.726562 19.90625 44.429688 C 19.777344 44.355469 19.652344 44.277344 19.519531 44.199219 C 19.136719 43.96875 18.753906 43.734375 18.375 43.5 C 18.246094 43.421875 18.117188 43.347656 17.984375 43.269531 C 17.863281 43.195312 17.742188 43.121094 17.617188 43.042969 C 17.503906 42.976562 17.394531 42.914062 17.285156 42.84375 C 16.820312 42.488281 16.644531 42.144531 16.5625 41.570312 C 16.640625 41.011719 16.824219 40.726562 17.25 40.375 C 17.785156 40.078125 18.34375 39.84375 18.90625 39.609375 C 19.054688 39.546875 19.203125 39.480469 19.355469 39.414062 C 19.648438 39.289062 19.9375 39.167969 20.226562 39.042969 C 20.660156 38.859375 21.085938 38.664062 21.511719 38.464844 C 21.953125 38.296875 22.28125 38.3125 22.75 38.375 Z M 22.75 38.375 "/>
<path style=" stroke:none;fill-rule:nonzero;fill:rgb(100%,100%,100%);fill-opacity:1;" d="M 5.523438 50.484375 C 5.605469 50.484375 5.6875 50.484375 5.769531 50.484375 C 6.046875 50.480469 6.320312 50.480469 6.597656 50.480469 C 6.792969 50.480469 6.988281 50.480469 7.1875 50.480469 C 7.722656 50.480469 8.257812 50.480469 8.792969 50.480469 C 9.238281 50.480469 9.6875 50.476562 10.132812 50.476562 C 11.183594 50.476562 12.238281 50.476562 13.289062 50.476562 C 14.378906 50.476562 15.464844 50.476562 16.554688 50.472656 C 17.484375 50.472656 18.417969 50.472656 19.351562 50.472656 C 19.910156 50.472656 20.464844 50.472656 21.023438 50.46875 C 21.546875 50.46875 22.070312 50.46875 22.597656 50.46875 C 22.789062 50.46875 22.980469 50.46875 23.175781 50.46875 C 23.4375 50.46875 23.699219 50.46875 23.960938 50.46875 C 24.183594 50.46875 24.183594 50.46875 24.40625 50.46875 C 24.75 50.5 24.75 50.5 25 50.75 C 24.929688 51.320312 24.929688 51.320312 24.75 51.5 C 24.492188 51.511719 24.234375 51.515625 23.976562 51.515625 C 23.894531 51.515625 23.8125 51.515625 23.730469 51.515625 C 23.453125 51.519531 23.179688 51.519531 22.902344 51.519531 C 22.707031 51.519531 22.511719 51.519531 22.3125 51.519531 C 21.777344 51.519531 21.242188 51.519531 20.707031 51.519531 C 20.261719 51.519531 19.8125 51.519531 19.367188 51.523438 C 18.316406 51.523438 17.261719 51.523438 16.210938 51.523438 C 15.121094 51.523438 14.035156 51.523438 12.945312 51.527344 C 12.015625 51.527344 11.082031 51.527344 10.148438 51.527344 C 9.589844 51.527344 9.035156 51.527344 8.476562 51.53125 C 7.953125 51.53125 7.429688 51.53125 6.902344 51.53125 C 6.710938 51.53125 6.519531 51.53125 6.324219 51.53125 C 6.0625 51.53125 5.800781 51.53125 5.539062 51.53125 C 5.316406 51.53125 5.316406 51.53125 5.09375 51.53125 C 4.75 51.5 4.75 51.5 4.5 51.25 C 4.597656 50.460938 4.757812 50.484375 5.523438 50.484375 Z M 5.523438 50.484375 "/>
<path style=" stroke:none;fill-rule:nonzero;fill:rgb(100%,100%,100%);fill-opacity:1;" d="M 13.328125 41.984375 C 13.570312 41.984375 13.570312 41.984375 13.816406 41.984375 C 14.5 42.007812 14.5 42.007812 14.75 42.125 C 14.863281 42.351562 14.863281 42.351562 14.9375 42.640625 C 15.097656 43.195312 15.320312 43.632812 15.625 44.125 C 15.484375 44.082031 15.339844 44.042969 15.195312 44 C 13.792969 43.695312 12.289062 43.710938 11 44.375 C 10.882812 44.433594 10.765625 44.492188 10.644531 44.554688 C 9.34375 45.296875 8.554688 46.449219 8.125 47.875 C 8.0625 48.183594 8.0625 48.183594 8 48.5 C 7.421875 48.5 6.84375 48.5 6.25 48.5 C 6.335938 46.589844 7.246094 45.027344 8.613281 43.726562 C 9.964844 42.554688 11.546875 41.980469 13.328125 41.984375 Z M 13.328125 41.984375 "/>
<path style=" stroke:none;fill-rule:nonzero;fill:rgb(100%,100%,100%);fill-opacity:1;" d="M 41.253906 40.648438 C 41.5625 40.777344 41.664062 40.917969 41.84375 41.195312 C 41.898438 41.277344 41.949219 41.355469 42.007812 41.4375 C 42.066406 41.53125 42.066406 41.53125 42.125 41.625 C 41.433594 42.746094 40.730469 43.851562 39.996094 44.945312 C 39.414062 45.8125 38.84375 46.683594 38.273438 47.554688 C 38.183594 47.6875 38.097656 47.824219 38.007812 47.960938 C 37.921875 48.09375 37.835938 48.222656 37.746094 48.359375 C 37.671875 48.472656 37.597656 48.589844 37.519531 48.707031 C 37.25 49.101562 37.25 49.101562 37.101562 49.472656 C 36.894531 49.894531 36.71875 50.179688 36.375 50.5 C 35.652344 50.695312 34.953125 50.660156 34.210938 50.632812 C 34 50.632812 33.789062 50.628906 33.578125 50.628906 C 33.019531 50.625 32.464844 50.609375 31.910156 50.59375 C 31.34375 50.582031 30.777344 50.574219 30.210938 50.566406 C 29.097656 50.550781 27.988281 50.527344 26.875 50.5 C 26.917969 50.171875 26.957031 49.839844 27 49.5 C 30.09375 49.5 33.1875 49.5 36.375 49.5 C 36.457031 49.292969 36.539062 49.085938 36.625 48.875 C 36.796875 48.597656 36.96875 48.324219 37.152344 48.050781 C 37.203125 47.972656 37.253906 47.898438 37.304688 47.816406 C 37.46875 47.570312 37.632812 47.324219 37.796875 47.078125 C 37.960938 46.832031 38.121094 46.585938 38.285156 46.34375 C 38.386719 46.191406 38.488281 46.039062 38.585938 45.886719 C 38.828125 45.519531 39.054688 45.152344 39.269531 44.769531 C 39.5 44.375 39.589844 44.28125 40 44.125 C 40.15625 43.808594 40.152344 43.574219 40.164062 43.222656 C 40.167969 43.09375 40.175781 42.964844 40.179688 42.832031 C 40.183594 42.695312 40.191406 42.5625 40.195312 42.421875 C 40.203125 42.21875 40.203125 42.21875 40.210938 42.007812 C 40.226562 41.671875 40.238281 41.335938 40.25 41 C 40.921875 40.617188 40.921875 40.617188 41.253906 40.648438 Z M 41.253906 40.648438 "/>
<path style=" stroke:none;fill-rule:nonzero;fill:rgb(100%,100%,100%);fill-opacity:1;" d="M 57 46.625 C 57.617188 47.132812 57.933594 47.804688 58.046875 48.585938 C 58.089844 49.625 57.804688 50.519531 57.171875 51.351562 C 56.609375 51.960938 55.6875 52.4375 54.859375 52.53125 C 53.828125 52.5625 52.96875 52.300781 52.148438 51.664062 C 51.347656 50.910156 51.050781 50.082031 51 49 C 51.054688 49.046875 51.105469 49.097656 51.160156 49.148438 C 52.035156 49.921875 52.832031 50.429688 54.03125 50.410156 C 54.871094 50.328125 55.539062 50.023438 56.117188 49.40625 C 56.792969 48.546875 56.9375 47.695312 57 46.625 Z M 57 46.625 "/>
<path style=" stroke:none;fill-rule:nonzero;fill:rgb(100%,100%,100%);fill-opacity:1;" d="M 47 48 C 47.042969 48 47.082031 48 47.125 48 C 47.136719 48.125 47.148438 48.25 47.15625 48.378906 C 47.375 50.613281 48.160156 52.382812 49.898438 53.867188 C 51.546875 55.074219 53.472656 55.585938 55.5 55.375 C 57.578125 54.984375 59.316406 53.992188 60.601562 52.28125 C 61.214844 51.355469 61.527344 50.296875 61.875 49.25 C 61.917969 49.25 61.957031 49.25 62 49.25 C 61.902344 51.421875 61.03125 53.113281 59.5 54.625 C 57.96875 55.992188 55.96875 56.601562 53.9375 56.539062 C 53.300781 56.480469 52.726562 56.339844 52.125 56.125 C 52.019531 56.089844 51.917969 56.058594 51.8125 56.023438 C 49.902344 55.351562 48.53125 53.890625 47.625 52.125 C 47.421875 51.589844 47.257812 51.054688 47.125 50.5 C 47.101562 50.402344 47.074219 50.304688 47.050781 50.203125 C 46.984375 49.765625 46.988281 49.335938 46.992188 48.898438 C 46.992188 48.8125 46.992188 48.726562 46.992188 48.636719 C 46.996094 48.425781 46.996094 48.210938 47 48 Z M 47 48 "/>
<path style=" stroke:none;fill-rule:nonzero;fill:rgb(100%,100%,100%);fill-opacity:1;" d="M 15.085938 46.074219 C 15.832031 46.527344 16.449219 47.171875 16.75 48 C 16.75 48.164062 16.75 48.328125 16.75 48.5 C 14.523438 48.5 12.296875 48.5 10 48.5 C 10.417969 47.242188 10.710938 46.695312 11.828125 46.070312 C 12.925781 45.5625 13.984375 45.574219 15.085938 46.074219 Z M 15.085938 46.074219 "/>
<path style=" stroke:none;fill-rule:nonzero;fill:rgb(100%,100%,100%);fill-opacity:1;" d="M 8.5 54.5 C 9.074219 54.496094 9.644531 54.496094 10.21875 54.492188 C 10.382812 54.492188 10.542969 54.488281 10.710938 54.488281 C 10.945312 54.488281 10.945312 54.488281 11.1875 54.488281 C 11.402344 54.488281 11.402344 54.488281 11.621094 54.484375 C 11.941406 54.496094 12.195312 54.539062 12.5 54.625 C 12.792969 54.636719 13.082031 54.640625 13.375 54.640625 C 13.527344 54.640625 13.679688 54.640625 13.835938 54.640625 C 14.222656 54.640625 14.222656 54.640625 14.476562 54.5625 C 14.84375 54.480469 15.1875 54.484375 15.5625 54.488281 C 15.722656 54.488281 15.878906 54.488281 16.039062 54.488281 C 16.28125 54.492188 16.28125 54.492188 16.53125 54.492188 C 16.695312 54.492188 16.859375 54.492188 17.03125 54.492188 C 17.4375 54.496094 17.84375 54.496094 18.25 54.5 C 17.273438 55.753906 15.789062 56.25 14.25 56.5 C 12.042969 56.625 10.203125 56.0625 8.5 54.625 C 8.5 54.582031 8.5 54.542969 8.5 54.5 Z M 8.5 54.5 "/>
<path style=" stroke:none;fill-rule:nonzero;fill:rgb(100%,100%,100%);fill-opacity:1;" d="M 40.5 36.875 C 40.5 37.492188 40.5 38.113281 40.5 38.75 C 40.300781 38.851562 40.300781 38.851562 40.097656 38.957031 C 39.925781 39.046875 39.75 39.136719 39.578125 39.226562 C 39.492188 39.269531 39.402344 39.316406 39.3125 39.363281 C 39.1875 39.425781 39.1875 39.425781 39.058594 39.496094 C 38.980469 39.535156 38.90625 39.574219 38.824219 39.617188 C 38.585938 39.757812 38.585938 39.757812 38.375 40.125 C 38.328125 40.390625 38.328125 40.390625 38.324219 40.679688 C 38.316406 40.839844 38.316406 40.839844 38.308594 41.003906 C 38.304688 41.167969 38.304688 41.167969 38.296875 41.335938 C 38.289062 41.503906 38.289062 41.503906 38.28125 41.675781 C 38.269531 41.949219 38.261719 42.226562 38.25 42.5 C 37.796875 42.5 37.34375 42.5 36.875 42.5 C 36.875 42.996094 36.875 43.488281 36.875 44 C 36.832031 44 36.792969 44 36.75 44 C 36.714844 43.3125 36.679688 42.621094 36.644531 41.933594 C 36.632812 41.699219 36.617188 41.464844 36.605469 41.230469 C 36.589844 40.890625 36.570312 40.554688 36.554688 40.214844 C 36.550781 40.113281 36.542969 40.011719 36.539062 39.902344 C 36.503906 39.183594 36.492188 38.46875 36.5 37.75 C 36.636719 37.722656 36.636719 37.722656 36.777344 37.691406 C 37.148438 37.613281 37.519531 37.53125 37.890625 37.453125 C 38.019531 37.425781 38.152344 37.398438 38.289062 37.367188 C 39.007812 37.214844 39.773438 36.875 40.5 36.875 Z M 40.5 36.875 "/>
<path style=" stroke:none;fill-rule:nonzero;fill:rgb(100%,100%,100%);fill-opacity:1;" d="M 18 26.5 C 18.042969 26.5 18.082031 26.5 18.125 26.5 C 18.132812 26.578125 18.144531 26.65625 18.152344 26.738281 C 18.289062 27.632812 18.566406 28.335938 19.3125 28.890625 C 20.054688 29.378906 20.839844 29.664062 21.675781 29.953125 C 21.824219 30.003906 21.972656 30.058594 22.125 30.113281 C 22.519531 30.25 22.914062 30.386719 23.308594 30.527344 C 26.925781 31.789062 26.925781 31.789062 28.449219 32.359375 C 28.539062 32.394531 28.632812 32.425781 28.722656 32.460938 C 29.199219 32.640625 29.503906 32.796875 29.75 33.25 C 29.796875 33.59375 29.765625 33.902344 29.75 34.25 C 29.675781 34.179688 29.601562 34.105469 29.527344 34.035156 C 28.960938 33.632812 28.351562 33.4375 27.699219 33.210938 C 27.558594 33.164062 27.417969 33.113281 27.273438 33.0625 C 26.824219 32.902344 26.371094 32.742188 25.921875 32.585938 C 25.625 32.480469 25.328125 32.375 25.03125 32.273438 C 24.886719 32.21875 24.742188 32.167969 24.59375 32.117188 C 23.347656 31.675781 23.347656 31.675781 22.890625 31.515625 C 22.640625 31.425781 22.386719 31.335938 22.136719 31.246094 C 21.808594 31.132812 21.484375 31.015625 21.160156 30.902344 C 21.070312 30.867188 20.976562 30.835938 20.882812 30.804688 C 19.773438 30.402344 18.84375 29.816406 18.246094 28.773438 C 17.917969 28.042969 17.964844 27.289062 18 26.5 Z M 18 26.5 "/>
<path style=" stroke:none;fill-rule:nonzero;fill:rgb(100%,100%,100%);fill-opacity:1;" d="M 42.875 47.5 C 42.917969 47.5 42.957031 47.5 43 47.5 C 42.996094 47.664062 42.992188 47.828125 42.988281 48 C 42.960938 49.46875 43.078125 50.8125 43.375 52.25 C 43.566406 53.226562 43.566406 53.226562 43.328125 53.757812 C 42.917969 54.0625 42.652344 54.070312 42.152344 54.070312 C 41.753906 53.96875 41.621094 53.828125 41.375 53.5 C 41.246094 53.160156 41.167969 52.816406 41.09375 52.460938 C 41.070312 52.371094 41.050781 52.277344 41.027344 52.183594 C 40.703125 50.726562 40.703125 50.726562 41.121094 50.042969 C 41.230469 49.886719 41.339844 49.730469 41.453125 49.578125 C 41.566406 49.414062 41.683594 49.25 41.796875 49.085938 C 41.851562 49.007812 41.910156 48.929688 41.96875 48.847656 C 42.175781 48.550781 42.375 48.25 42.570312 47.945312 C 42.667969 47.792969 42.769531 47.644531 42.875 47.5 Z M 42.875 47.5 "/>
<path style=" stroke:none;fill-rule:nonzero;fill:rgb(100%,100%,100%);fill-opacity:1;" d="M 31.390625 19.070312 C 31.648438 19.21875 31.902344 19.367188 32.160156 19.515625 C 32.363281 19.632812 32.363281 19.632812 32.570312 19.753906 C 33.246094 20.140625 33.929688 20.515625 34.609375 20.886719 C 35.75 21.511719 36.886719 22.140625 38.015625 22.789062 C 38.113281 22.84375 38.207031 22.898438 38.308594 22.953125 C 38.4375 23.03125 38.4375 23.03125 38.570312 23.109375 C 38.644531 23.152344 38.71875 23.195312 38.796875 23.238281 C 39.023438 23.390625 39.199219 23.539062 39.375 23.75 C 39.335938 24.085938 39.335938 24.085938 39.25 24.375 C 38.820312 24.375 38.65625 24.28125 38.28125 24.078125 C 38.164062 24.011719 38.042969 23.945312 37.921875 23.878906 C 37.792969 23.808594 37.664062 23.738281 37.53125 23.664062 C 37.398438 23.589844 37.261719 23.515625 37.125 23.441406 C 36.117188 22.886719 35.113281 22.324219 34.109375 21.753906 C 33.445312 21.375 32.78125 21.003906 32.113281 20.632812 C 32.039062 20.589844 31.964844 20.550781 31.886719 20.507812 C 31.519531 20.304688 31.15625 20.101562 30.789062 19.898438 C 28.945312 18.878906 28.945312 18.878906 28.375 18.5 C 28.375 18.457031 28.375 18.417969 28.375 18.375 C 29.617188 18.148438 30.34375 18.449219 31.390625 19.070312 Z M 31.390625 19.070312 "/>
<path style=" stroke:none;fill-rule:nonzero;fill:rgb(100%,100%,100%);fill-opacity:1;" d="M 13.328125 41.984375 C 13.570312 41.984375 13.570312 41.984375 13.816406 41.984375 C 14.5 42.007812 14.5 42.007812 14.75 42.125 C 14.863281 42.351562 14.863281 42.351562 14.9375 42.640625 C 15.097656 43.195312 15.320312 43.632812 15.625 44.125 C 15.378906 44.082031 15.128906 44.042969 14.875 44 C 14.75 43.566406 14.75 43.566406 14.625 43.125 C 12.273438 43.015625 10.457031 43.332031 8.574219 44.871094 C 7.523438 45.835938 6.808594 47.144531 6.375 48.5 C 6.332031 48.5 6.292969 48.5 6.25 48.5 C 6.292969 46.714844 7.148438 45.242188 8.359375 43.96875 C 9.746094 42.652344 11.414062 41.980469 13.328125 41.984375 Z M 13.328125 41.984375 "/>
<path style=" stroke:none;fill-rule:nonzero;fill:rgb(100%,100%,100%);fill-opacity:1;" d="M 45.75 28.75 C 45.875 28.75 45.996094 28.75 46.125 28.75 C 46.988281 30.789062 47.777344 32.847656 48.53125 34.929688 C 48.574219 35.042969 48.613281 35.160156 48.65625 35.277344 C 49.128906 36.578125 49.589844 37.878906 50.046875 39.183594 C 50.429688 40.28125 50.816406 41.375 51.207031 42.46875 C 51.328125 42.808594 51.449219 43.148438 51.570312 43.488281 C 51.761719 44.023438 51.953125 44.558594 52.148438 45.089844 C 52.242188 45.355469 52.335938 45.617188 52.429688 45.882812 C 52.480469 46.03125 52.535156 46.175781 52.589844 46.324219 C 52.632812 46.449219 52.675781 46.570312 52.722656 46.699219 C 52.894531 47.039062 53.046875 47.183594 53.375 47.375 C 53.863281 47.425781 54.210938 47.402344 54.625 47.125 C 54.667969 47.042969 54.707031 46.960938 54.75 46.875 C 54.832031 46.875 54.914062 46.875 55 46.875 C 55.0625 47.386719 55.019531 47.59375 54.742188 48.039062 C 54.300781 48.441406 54.09375 48.519531 53.5 48.5 C 52.878906 48.167969 52.644531 47.898438 52.417969 47.238281 C 52.390625 47.160156 52.363281 47.082031 52.335938 47.003906 C 52.273438 46.832031 52.214844 46.65625 52.15625 46.484375 C 52.058594 46.191406 51.957031 45.90625 51.859375 45.617188 C 51.699219 45.167969 51.546875 44.71875 51.390625 44.273438 C 50.898438 42.84375 50.394531 41.421875 49.894531 40 C 49.804688 39.75 49.714844 39.5 49.628906 39.25 C 48.675781 36.554688 47.675781 33.878906 46.636719 31.210938 C 46.585938 31.082031 46.535156 30.953125 46.480469 30.820312 C 46.386719 30.578125 46.292969 30.339844 46.199219 30.101562 C 46.160156 29.996094 46.117188 29.890625 46.074219 29.78125 C 46.039062 29.691406 46.003906 29.597656 45.964844 29.503906 C 45.875 29.253906 45.808594 29.007812 45.75 28.75 Z M 45.75 28.75 "/>
<path style=" stroke:none;fill-rule:nonzero;fill:rgb(100%,100%,100%);fill-opacity:1;" d="M 41.027344 30.175781 C 41.464844 30.566406 41.832031 30.929688 41.914062 31.527344 C 41.914062 31.804688 41.914062 31.804688 41.875 32.25 C 41.8125 32.164062 41.75 32.074219 41.6875 31.984375 C 40.765625 30.921875 39.511719 30.3125 38.125 30.125 C 37.457031 30.117188 36.789062 30.15625 36.121094 30.199219 C 35.125 30.234375 35.125 30.234375 34.738281 29.898438 C 34.546875 29.648438 34.390625 29.402344 34.25 29.125 C 36.5625 28.839844 39.066406 28.703125 41.027344 30.175781 Z M 41.027344 30.175781 "/>
<path style=" stroke:none;fill-rule:nonzero;fill:rgb(100%,100%,100%);fill-opacity:1;" d="M 57.875 48.25 C 57.917969 48.25 57.957031 48.25 58 48.25 C 58.082031 49.4375 57.902344 50.390625 57.171875 51.351562 C 56.609375 51.960938 55.6875 52.4375 54.859375 52.53125 C 53.828125 52.5625 52.96875 52.300781 52.148438 51.664062 C 51.347656 50.910156 51.050781 50.082031 51 49 C 51.375 49.25 51.375 49.25 51.53125 49.65625 C 51.832031 50.402344 52.453125 50.8125 53.148438 51.171875 C 53.984375 51.507812 54.796875 51.523438 55.652344 51.242188 C 56.640625 50.792969 57.183594 50.253906 57.664062 49.296875 C 57.765625 48.949219 57.824219 48.605469 57.875 48.25 Z M 57.875 48.25 "/>
<path style=" stroke:none;fill-rule:nonzero;fill:rgb(100%,100%,100%);fill-opacity:1;" d="M 23.171875 38.601562 C 23.5 38.875 23.5 38.875 23.75 39.25 C 23.765625 39.585938 23.765625 39.585938 23.75 39.875 C 23.375 39.875 23.375 39.875 23.171875 39.6875 C 22.710938 39.394531 22.273438 39.421875 21.75 39.5 C 21.167969 39.699219 20.617188 39.957031 20.0625 40.21875 C 19.84375 40.320312 19.84375 40.320312 19.617188 40.421875 C 19.089844 40.667969 18.558594 40.914062 18.03125 41.160156 C 17.933594 41.207031 17.832031 41.25 17.730469 41.296875 C 17.644531 41.339844 17.5625 41.378906 17.472656 41.417969 C 17.25 41.5 17.25 41.5 16.875 41.5 C 16.832031 41.292969 16.792969 41.085938 16.75 40.875 C 17.289062 40.390625 17.804688 40.070312 18.46875 39.777344 C 18.605469 39.71875 18.605469 39.71875 18.742188 39.65625 C 18.933594 39.570312 19.125 39.484375 19.316406 39.402344 C 19.609375 39.273438 19.898438 39.140625 20.1875 39.011719 C 20.375 38.929688 20.5625 38.84375 20.75 38.761719 C 20.835938 38.722656 20.921875 38.683594 21.007812 38.644531 C 21.757812 38.324219 22.421875 38.199219 23.171875 38.601562 Z M 23.171875 38.601562 "/>
<path style=" stroke:none;fill-rule:nonzero;fill:rgb(100%,100%,100%);fill-opacity:1;" d="M 55 41.5 C 57.101562 41.664062 58.964844 42.570312 60.34375 44.175781 C 61.347656 45.449219 61.953125 46.871094 61.875 48.5 C 61.832031 48.5 61.792969 48.5 61.75 48.5 C 61.722656 48.398438 61.699219 48.300781 61.671875 48.195312 C 61.105469 46.183594 60.074219 44.625 58.242188 43.570312 C 57.3125 43.058594 56.429688 42.738281 55.375 42.625 C 55.25 42.253906 55.128906 41.882812 55 41.5 Z M 55 41.5 "/>
<path style=" stroke:none;fill-rule:nonzero;fill:rgb(100%,100%,100%);fill-opacity:1;" d="M 16.625 41.125 C 16.734375 41.230469 16.847656 41.332031 16.960938 41.441406 C 17.621094 42.007812 18.382812 42.410156 19.140625 42.835938 C 19.289062 42.917969 19.433594 43.003906 19.582031 43.085938 C 19.851562 43.242188 20.125 43.394531 20.394531 43.546875 C 20.625 43.679688 20.855469 43.816406 21.082031 43.960938 C 21.492188 44.191406 21.785156 44.175781 22.25 44.125 C 22.714844 43.914062 22.972656 43.671875 23.25 43.25 C 23.289062 43.902344 23.238281 44.324219 22.875 44.875 C 22.492188 45.195312 22.152344 45.316406 21.648438 45.304688 C 21.007812 45.175781 20.457031 44.765625 19.90625 44.429688 C 19.777344 44.355469 19.652344 44.277344 19.519531 44.199219 C 19.136719 43.96875 18.753906 43.734375 18.375 43.5 C 18.246094 43.421875 18.117188 43.347656 17.984375 43.269531 C 17.800781 43.15625 17.800781 43.15625 17.617188 43.042969 C 17.503906 42.976562 17.394531 42.914062 17.285156 42.84375 C 16.957031 42.59375 16.800781 42.371094 16.625 42 C 16.601562 41.523438 16.601562 41.523438 16.625 41.125 Z M 16.625 41.125 "/>
<path style=" stroke:none;fill-rule:nonzero;fill:rgb(100%,100%,100%);fill-opacity:1;" d="M 29.402344 7.753906 C 30.257812 8.21875 30.683594 8.839844 31 9.75 C 31.046875 10.101562 31.03125 10.394531 31 10.75 C 30.78125 10.464844 30.582031 10.179688 30.390625 9.875 C 29.941406 9.242188 29.378906 8.832031 28.625 8.625 C 27.664062 8.476562 26.921875 8.710938 26.125 9.25 C 25.65625 9.667969 25.382812 10.183594 25.125 10.75 C 25.082031 10.75 25.042969 10.75 25 10.75 C 24.917969 9.863281 25.113281 9.234375 25.625 8.5 C 26.667969 7.480469 28.042969 7.148438 29.402344 7.753906 Z M 29.402344 7.753906 "/>
<path style=" stroke:none;fill-rule:nonzero;fill:rgb(100%,100%,100%);fill-opacity:1;" d="M 30.875 11.125 C 30.917969 11.125 30.957031 11.125 31 11.125 C 31.074219 12.0625 30.921875 12.722656 30.375 13.5 C 29.703125 14.15625 28.984375 14.535156 28.039062 14.554688 C 27.132812 14.535156 26.402344 14.289062 25.765625 13.632812 C 25.144531 12.84375 24.964844 12.242188 25 11.25 C 25.25 11.5 25.25 11.5 25.460938 11.90625 C 25.863281 12.628906 26.460938 13.121094 27.25 13.375 C 28.167969 13.484375 29 13.453125 29.75 12.875 C 30.300781 12.359375 30.707031 11.875 30.875 11.125 Z M 30.875 11.125 "/>
<path style=" stroke:none;fill-rule:nonzero;fill:rgb(100%,100%,100%);fill-opacity:1;" d="M 47.875 26.75 C 48.75 27.5 48.75 27.5 49 27.75 C 49.253906 27.773438 49.511719 27.789062 49.765625 27.796875 C 50.476562 27.84375 51.058594 27.917969 51.625 28.375 C 52.007812 28.914062 52.039062 29.347656 52 30 C 51.9375 29.90625 51.871094 29.808594 51.804688 29.710938 C 51.449219 29.316406 51.136719 29.121094 50.625 29 C 50.355469 28.988281 50.089844 28.980469 49.820312 28.976562 C 49.164062 28.945312 48.859375 28.835938 48.398438 28.367188 C 48.261719 28.207031 48.128906 28.042969 48 27.875 C 47.886719 27.929688 47.773438 27.984375 47.65625 28.039062 C 47.511719 28.109375 47.363281 28.179688 47.210938 28.25 C 47.066406 28.320312 46.917969 28.390625 46.765625 28.460938 C 46.375 28.625 46.375 28.625 46 28.625 C 45.917969 28.378906 45.835938 28.128906 45.75 27.875 C 46.453125 27.503906 47.152344 27.132812 47.875 26.75 Z M 47.875 26.75 "/>
<path style=" stroke:none;fill-rule:nonzero;fill:rgb(100%,100%,100%);fill-opacity:1;" d="M 41.875 31.625 C 41.917969 31.625 41.957031 31.625 42 31.625 C 42.046875 32.523438 42.046875 33.25 41.4375 33.972656 C 40.210938 35.175781 38.199219 35.75 36.5 35.75 C 36.5 35.421875 36.5 35.089844 36.5 34.75 C 36.574219 34.734375 36.648438 34.722656 36.726562 34.707031 C 39.5 34.207031 39.5 34.207031 41.625 32.5 C 41.746094 32.246094 41.746094 32.246094 41.789062 32.015625 C 41.816406 31.886719 41.847656 31.757812 41.875 31.625 Z M 41.875 31.625 "/>
<path style=" stroke:none;fill-rule:nonzero;fill:rgb(100%,100%,100%);fill-opacity:1;" d="M 17 45 C 17.675781 45.253906 18.269531 45.609375 18.890625 45.976562 C 19.058594 46.074219 19.058594 46.074219 19.234375 46.175781 C 20.277344 46.792969 20.277344 46.792969 20.5 47.375 C 20.578125 47.75 20.597656 48.113281 20.625 48.5 C 20.046875 48.5 19.46875 48.5 18.875 48.5 C 18.808594 48.277344 18.742188 48.054688 18.671875 47.828125 C 18.308594 46.746094 17.757812 45.847656 17 45 Z M 17 45 "/>
<path style=" stroke:none;fill-rule:nonzero;fill:rgb(100%,100%,100%);fill-opacity:1;" d="M 9.875 54.5 C 10.21875 54.496094 10.5625 54.496094 10.90625 54.492188 C 11.003906 54.492188 11.101562 54.488281 11.199219 54.488281 C 11.34375 54.488281 11.34375 54.488281 11.484375 54.488281 C 11.617188 54.488281 11.617188 54.488281 11.75 54.484375 C 12.011719 54.5 12.242188 54.558594 12.5 54.625 C 12.792969 54.636719 13.082031 54.640625 13.375 54.640625 C 13.527344 54.640625 13.679688 54.640625 13.835938 54.640625 C 14.226562 54.640625 14.226562 54.640625 14.492188 54.5625 C 14.769531 54.496094 15.007812 54.484375 15.289062 54.488281 C 15.441406 54.488281 15.441406 54.488281 15.59375 54.488281 C 15.695312 54.488281 15.800781 54.492188 15.90625 54.492188 C 16.011719 54.492188 16.117188 54.492188 16.226562 54.492188 C 16.484375 54.496094 16.742188 54.496094 17 54.5 C 16.628906 54.804688 16.28125 54.980469 15.828125 55.140625 C 15.714844 55.183594 15.597656 55.222656 15.480469 55.265625 C 13.5625 55.851562 11.625 55.53125 9.875 54.625 C 9.875 54.582031 9.875 54.542969 9.875 54.5 Z M 9.875 54.5 "/>
<path style=" stroke:none;fill-rule:nonzero;fill:rgb(100%,100%,100%);fill-opacity:1;" d="M 41.273438 40.636719 C 41.558594 40.777344 41.671875 40.933594 41.84375 41.195312 C 41.898438 41.277344 41.949219 41.355469 42.007812 41.4375 C 42.046875 41.5 42.085938 41.5625 42.125 41.625 C 41.929688 41.949219 41.730469 42.269531 41.53125 42.59375 C 41.476562 42.683594 41.421875 42.777344 41.363281 42.871094 C 41.074219 43.335938 40.804688 43.769531 40.375 44.125 C 40.292969 44.125 40.210938 44.125 40.125 44.125 C 40.167969 43.09375 40.207031 42.0625 40.25 41 C 41 40.625 41 40.625 41.273438 40.636719 Z M 41.273438 40.636719 "/>
<path style=" stroke:none;fill-rule:nonzero;fill:rgb(100%,100%,100%);fill-opacity:1;" d="M 26 36.625 C 26.042969 36.9375 26.085938 37.25 26.125 37.5625 C 26.136719 37.648438 26.148438 37.738281 26.160156 37.828125 C 26.238281 38.429688 26.261719 39.015625 26.25 39.625 C 26.085938 39.625 25.921875 39.625 25.75 39.625 C 25.710938 39.382812 25.710938 39.382812 25.671875 39.132812 C 25.480469 38.304688 25.125 37.640625 24.421875 37.140625 C 24.199219 37.011719 23.976562 36.882812 23.746094 36.761719 C 23.664062 36.714844 23.585938 36.671875 23.5 36.625 C 23.5 36.582031 23.5 36.542969 23.5 36.5 C 24.398438 36.390625 25.132812 36.339844 26 36.625 Z M 26 36.625 "/>
<path style=" stroke:none;fill-rule:nonzero;fill:rgb(100%,100%,100%);fill-opacity:1;" d="M 49 43.875 C 49.082031 43.875 49.164062 43.875 49.25 43.875 C 49.359375 44.152344 49.464844 44.429688 49.570312 44.710938 C 49.601562 44.789062 49.632812 44.867188 49.664062 44.949219 C 49.84375 45.429688 49.910156 45.753906 49.75 46.25 C 49.460938 45.960938 49.4375 45.816406 49.359375 45.421875 C 49.339844 45.320312 49.316406 45.21875 49.296875 45.113281 C 49.28125 45.035156 49.265625 44.957031 49.25 44.875 C 48.191406 45.839844 47.503906 47.085938 47.25 48.5 C 47.207031 48.5 47.167969 48.5 47.125 48.5 C 47.015625 46.851562 47.710938 45.441406 48.71875 44.171875 C 48.859375 44.023438 48.859375 44.023438 49 43.875 Z M 49 43.875 "/>
<path style=" stroke:none;fill-rule:nonzero;fill:rgb(100%,100%,100%);fill-opacity:1;" d="M 32.75 42.25 C 32.792969 42.25 32.832031 42.25 32.875 42.25 C 32.890625 42.652344 32.898438 43.058594 32.90625 43.460938 C 32.914062 43.632812 32.914062 43.632812 32.917969 43.804688 C 32.925781 44.34375 32.925781 44.664062 32.648438 45.132812 C 32.265625 45.46875 32.007812 45.507812 31.5 45.5 C 31.148438 45.277344 30.9375 45.121094 30.75 44.75 C 30.734375 44.414062 30.746094 44.085938 30.75 43.75 C 30.855469 43.855469 30.960938 43.960938 31.070312 44.070312 C 31.417969 44.363281 31.476562 44.375 31.96875 44.367188 C 32.382812 44.285156 32.382812 44.285156 32.625 44 C 32.664062 43.703125 32.6875 43.40625 32.703125 43.109375 C 32.710938 42.949219 32.722656 42.789062 32.730469 42.625 C 32.738281 42.5 32.742188 42.378906 32.75 42.25 Z M 32.75 42.25 "/>
<path style=" stroke:none;fill-rule:nonzero;fill:rgb(100%,100%,100%);fill-opacity:1;" d="M 41.273438 40.632812 C 41.566406 40.785156 41.617188 40.957031 41.75 41.25 C 41.542969 41.5625 41.339844 41.875 41.132812 42.1875 C 41.074219 42.277344 41.015625 42.367188 40.957031 42.457031 C 40.808594 42.683594 40.652344 42.902344 40.5 43.125 C 40.457031 43.125 40.417969 43.125 40.375 43.125 C 40.359375 42.777344 40.347656 42.433594 40.335938 42.085938 C 40.332031 41.988281 40.324219 41.890625 40.320312 41.789062 C 40.3125 41.511719 40.316406 41.269531 40.375 41 C 40.691406 40.730469 40.859375 40.621094 41.273438 40.632812 Z M 41.273438 40.632812 "/>
<path style=" stroke:none;fill-rule:nonzero;fill:rgb(100%,100%,100%);fill-opacity:1;" d="M 15.5 31.625 C 15.578125 31.707031 15.660156 31.789062 15.742188 31.875 C 16.152344 32.285156 16.589844 32.660156 17.027344 33.039062 C 17.101562 33.109375 17.171875 33.179688 17.25 33.25 C 17.25 33.292969 17.25 33.332031 17.25 33.375 C 16.488281 33.402344 15.847656 33.375 15.125 33.125 C 15.007812 32.800781 14.960938 32.585938 15.101562 32.265625 C 15.230469 32.046875 15.363281 31.835938 15.5 31.625 Z M 15.5 31.625 "/>
<path style=" stroke:none;fill-rule:nonzero;fill:rgb(100%,100%,100%);fill-opacity:1;" d="M 18.375 46.875 C 18.835938 46.988281 19.117188 47.121094 19.515625 47.359375 C 19.625 47.421875 19.734375 47.488281 19.84375 47.554688 C 20.125 47.75 20.125 47.75 20.375 48.125 C 20.457031 48.042969 20.539062 47.960938 20.625 47.875 C 20.625 48.082031 20.625 48.289062 20.625 48.5 C 20.046875 48.5 19.46875 48.5 18.875 48.5 C 18.710938 47.964844 18.546875 47.425781 18.375 46.875 Z M 18.375 46.875 "/>
<path style=" stroke:none;fill-rule:nonzero;fill:rgb(100%,100%,100%);fill-opacity:1;" d="M 3.75 40 C 3.589844 40.179688 3.589844 40.179688 3.429688 40.359375 C 3.015625 40.839844 2.65625 41.355469 2.300781 41.882812 C 2.242188 41.960938 2.183594 42.042969 2.125 42.125 C 2.082031 42.125 2.042969 42.125 2 42.125 C 1.902344 40.785156 1.902344 40.785156 2.242188 40.21875 C 2.757812 39.925781 3.171875 39.941406 3.75 40 Z M 3.75 40 "/>
<path style=" stroke:none;fill-rule:nonzero;fill:rgb(100%,100%,100%);fill-opacity:1;" d="M 24.25 36.125 C 24.554688 36.171875 24.554688 36.171875 24.875 36.25 C 24.917969 36.332031 24.957031 36.414062 25 36.5 C 24.195312 36.5625 24.195312 36.5625 23.375 36.625 C 23.332031 36.542969 23.292969 36.460938 23.25 36.375 C 23.578125 36.375 23.910156 36.375 24.25 36.375 C 24.25 36.292969 24.25 36.210938 24.25 36.125 Z M 24.25 36.125 "/>
<path style=" stroke:none;fill-rule:nonzero;fill:rgb(100%,100%,100%);fill-opacity:1;" d="M 45.625 27.875 C 45.9375 28.148438 46.054688 28.339844 46.125 28.75 C 45.960938 28.707031 45.796875 28.667969 45.625 28.625 C 45.578125 28.417969 45.535156 28.210938 45.5 28 C 45.542969 27.957031 45.582031 27.917969 45.625 27.875 Z M 45.625 27.875 "/>
</g>
</svg>
