<?xml version="1.0" encoding="UTF-8"?>
<svg version="1.1" xmlns="http://www.w3.org/2000/svg" width="512" height="512">
<path d="M0 0 C16.68158022 -0.07973185 33.36233419 -0.10790629 50.04403687 -0.07515812 C57.79019464 -0.06114592 65.53566675 -0.06383274 73.28173828 -0.10620117 C80.03543928 -0.14309889 86.78830407 -0.14828787 93.54204082 -0.11582941 C97.11655407 -0.09974635 100.68949958 -0.09925044 104.2638855 -0.13676643 C108.26039021 -0.17811747 112.25343524 -0.14864844 116.25 -0.11352539 C118.01622459 -0.14803551 118.01622459 -0.14803551 119.81813049 -0.1832428 C124.52388324 -0.09403053 127.71929598 -0.01858968 131.48260498 2.97450447 C133.51004981 5.22863928 135.2800265 7.5064497 137 10 C137.76828125 10.97066406 138.5365625 11.94132812 139.328125 12.94140625 C139.96234375 13.80636719 140.5965625 14.67132813 141.25 15.5625 C142.00667969 16.58601563 142.76335937 17.60953125 143.54296875 18.6640625 C144.13924072 19.47472168 144.13924072 19.47472168 144.74755859 20.30175781 C147.00257319 23.35943452 149.28312957 26.39796029 151.5625 29.4375 C152.3064502 30.43052124 152.3064502 30.43052124 153.06542969 31.44360352 C157.34798528 37.15122563 161.6710713 42.82750465 166 48.5 C172.71388227 57.29853639 179.37323727 66.13576152 186 75 C193.57973625 85.13495638 201.16276367 95.26369674 208.90234375 105.27734375 C211.63644239 108.8260714 214.3234262 112.40775622 217 116 C220.58621852 115.43745592 222.0145244 114.26415203 224.3125 111.5 C224.910625 110.7884375 225.50875 110.076875 226.125 109.34375 C228.65886543 106.17641821 231.11065372 102.95078489 233.51953125 99.6875 C234.00808594 99.130625 234.49664062 98.57375 235 98 C235.66 98 236.32 98 237 98 C237.23332031 97.44828125 237.46664062 96.8965625 237.70703125 96.328125 C239.34019284 93.38744733 241.39339207 91.20922749 243.6875 88.75 C246.68479616 85.51184489 249.67054609 82.27071448 252.5625 78.9375 C255.12673912 75.98292003 257.74137557 73.08039315 260.375 70.1875 C263.48528851 66.74621795 266.46478312 63.23678702 269.375 59.625 C272.61951836 55.61174558 275.98737379 51.7757534 279.5 48 C285.38345199 41.6727465 290.91730551 35.07820683 296.12890625 28.18359375 C296.74636719 27.46300781 297.36382812 26.74242188 298 26 C298.66 26 299.32 26 300 26 C300.22300781 25.45730469 300.44601562 24.91460937 300.67578125 24.35546875 C302.41572084 21.26053196 304.75106764 18.86102803 307.1875 16.3125 C308.12221116 15.3329649 309.05312287 14.34979206 309.98046875 13.36328125 C310.45086578 12.87317566 310.92126282 12.38307007 311.40591431 11.87811279 C313.07610633 10.02440684 313.07610633 10.02440684 314.30221558 7.74139404 C316.72492274 3.77378616 318.53409294 1.38791532 323.13710022 0.16984558 C327.07377384 -0.13794244 330.95936461 -0.1702431 334.90234375 -0.09765625 C336.34967564 -0.10331549 337.79699697 -0.11293456 339.24427795 -0.12632751 C343.03440279 -0.15085381 346.82226798 -0.12194419 350.61218262 -0.08154297 C354.48697441 -0.04981072 358.36148458 -0.06910486 362.23632812 -0.08398438 C369.82485215 -0.10566471 377.4117155 -0.07084433 385 0 C384.33653217 3.74878498 383.74326643 5.76258351 381.125 8.5625 C380.4959375 9.24828125 379.866875 9.9340625 379.21875 10.640625 C378.12046875 11.80851562 378.12046875 11.80851562 377 13 C375.20552776 14.9350032 373.41336466 16.87187471 371.625 18.8125 C371.15070557 19.32570801 370.67641113 19.83891602 370.18774414 20.36767578 C367.1897827 23.63363139 364.34002947 26.9794506 361.5625 30.4375 C357.71825361 35.21701922 353.62910955 39.69320344 349.43945312 44.16601562 C346.34234535 47.49137277 343.40385624 50.88710807 340.5625 54.4375 C337.05356496 58.81252427 333.34152347 62.92017409 329.5 67 C324.83614528 71.95383533 320.44091818 77.03185897 316.18359375 82.34375 C313.03392276 86.17519235 309.68212733 89.808573 306.328125 93.4609375 C302.20245281 97.9604122 298.21394527 102.57344855 294.25390625 107.21875 C288.67243614 113.76251142 283.03199262 120.22308967 277.22265625 126.56640625 C274.09064366 129.9956573 271.03559932 133.48541065 268 137 C267.54834473 137.51997559 267.09668945 138.03995117 266.63134766 138.57568359 C260.85781807 145.22573488 255.15026521 151.84685388 250 159 C253.99479178 165.17624805 258.25094908 171.04479704 262.8125 176.8125 C264.05807619 178.40042659 265.30286861 179.9889683 266.546875 181.578125 C267.14306641 182.33931641 267.73925781 183.10050781 268.35351562 183.88476562 C271.18468912 187.52196716 273.9333621 191.21825246 276.6875 194.9140625 C279.45504418 198.60723802 282.25634337 202.27362522 285.0625 205.9375 C305.68260148 232.86837987 305.68260148 232.86837987 315.42651367 245.90917969 C319.53901202 251.40538033 323.70570565 256.8593167 327.875 262.3125 C333.02824097 269.05450412 338.11428479 275.83895685 343.125 282.6875 C348.20737965 289.63246037 353.43017083 296.44939354 358.74169922 303.22021484 C363.63106136 309.47405014 368.34531408 315.84665455 373.03564453 322.25048828 C377.02652889 327.69464213 381.08922884 333.06924556 385.22265625 338.40625 C388.94331598 343.21074794 392.62677904 348.04368337 396.3125 352.875 C396.99489746 353.76751465 397.67729492 354.6600293 398.38037109 355.57958984 C400.26197156 358.04684482 402.1331263 360.52159115 404 363 C404.78769775 364.03108887 404.78769775 364.03108887 405.59130859 365.08300781 C409 369.65269112 409 369.65269112 409 373 C392.52743082 372.98619247 376.05521779 372.94395844 359.58282948 372.86790943 C351.93433762 372.83326052 344.28602597 372.80790406 336.63745117 372.80444336 C329.97069507 372.80140329 323.30425991 372.78090757 316.63762778 372.73947543 C313.10779894 372.718147 309.57842634 372.70554364 306.04853249 372.71384621 C302.10731858 372.72278909 298.16692442 372.69275943 294.22583008 372.65942383 C292.47147896 372.67236229 292.47147896 372.67236229 290.6816864 372.68556213 C282.74070239 372.57268358 282.74070239 372.57268358 278.86479187 369.57597351 C278.24941055 368.72590225 277.63402924 367.87583099 277 367 C276.319375 366.38125 275.63875 365.7625 274.9375 365.125 C272.93875911 362.93283258 271.7071228 360.65746069 270.2890625 358.0703125 C268.13972842 354.61835171 265.44605095 351.62138449 262.83984375 348.5078125 C258.46537695 343.18920464 254.41827927 337.61113032 250.31713867 332.08129883 C246.46884845 326.8960941 246.46884845 326.8960941 242.40234375 321.8828125 C238.99206729 317.79048075 235.93522889 313.46104446 232.84179688 309.12695312 C230.41853284 305.5231131 230.41853284 305.5231131 227 303 C225.99260254 301.33779419 224.99477045 299.66979326 224 298 C220.27173879 292.77310045 220.27173879 292.77310045 216 288 C215.06767664 286.80370557 214.1530076 285.59357478 213.25 284.375 C212.71503906 283.65570313 212.18007813 282.93640625 211.62890625 282.1953125 C211.09136719 281.47085937 210.55382812 280.74640625 210 280 C209.0633305 278.74937756 208.12583619 277.49937242 207.1875 276.25 C205.45569774 273.94392134 203.72845242 271.63474188 202.0078125 269.3203125 C197.74910535 263.60667337 193.43975781 257.93576477 189.0625 252.3125 C188.58981689 251.70003418 188.11713379 251.08756836 187.63012695 250.45654297 C185.22881266 247.25477033 185.22881266 247.25477033 182 245 C181.78472656 245.53496094 181.56945312 246.06992187 181.34765625 246.62109375 C179.5074967 249.86937539 177.00156955 252.38418973 174.4375 255.0625 C170.63648927 259.09937297 166.96724897 263.16752927 163.5 267.5 C160.15698041 271.6666621 156.64884863 275.60419812 153 279.5 C148.54125556 284.26088994 144.3620217 289.1646782 140.27734375 294.25390625 C137.33856664 297.79757744 134.21637652 301.15602502 131.08129883 304.52416992 C128.13053653 307.71341919 125.33999777 310.98373905 122.625 314.375 C118.57462766 319.41255986 114.22907464 324.10143711 109.80175781 328.80371094 C105.73833416 333.14294334 101.95822825 337.64741453 98.2421875 342.2890625 C95.32407768 345.81723012 92.21757183 349.1558545 89.09863281 352.50463867 C85.22418959 356.69059149 81.61589898 361.05828703 78.0703125 365.52734375 C71.97563707 372.8064561 71.97563707 372.8064561 67.96903992 373.60127258 C66.84318985 373.59016953 65.71733978 373.57906647 64.55737305 373.56762695 C62.63594734 373.56706047 62.63594734 373.56706047 60.67570496 373.56648254 C59.28769956 373.54095309 57.8997042 373.51487318 56.51171875 373.48828125 C55.08398173 373.47894881 53.65622864 373.47183473 52.22846985 373.46684265 C48.48142832 373.44780601 44.73536507 373.39873633 40.9887085 373.34332275 C37.16122673 373.29205685 33.33358595 373.2693131 29.50585938 373.24414062 C22.00346159 373.19061232 14.50186818 373.10534252 7 373 C7.72494928 368.60046404 8.68176948 366.90518967 12 363.875 C16.30772946 359.76493534 20.02175828 355.40643915 23.7421875 350.765625 C26.67417832 347.17418988 29.76994854 343.75158237 32.890625 340.32421875 C34.74626657 338.27957665 36.56756376 336.21215851 38.375 334.125 C40.85011096 331.27747651 43.3849274 328.49307512 45.94970703 325.72607422 C50.73102018 320.56474578 55.26285253 315.2843634 59.671875 309.796875 C62.26571109 306.68079003 64.98545647 303.71386073 67.75 300.75 C70.64679164 297.64431936 73.45843521 294.56575902 75.875 291.0625 C78.01823968 287.9737134 80.32786432 285.63728174 83 283 C88.32784247 277.36540297 93.52327959 271.67622324 98.375 265.625 C102.42537234 260.58744014 106.77092536 255.89856289 111.19824219 251.19628906 C115.26166584 246.85705666 119.04177175 242.35258547 122.7578125 237.7109375 C125.23907026 234.7109499 127.84874206 231.84856085 130.5 229 C134.85872761 224.31374233 138.96709798 219.47765719 142.984375 214.4921875 C145.59099903 211.26926864 148.28543427 208.13219123 151 205 C149.41227352 199.97382291 146.39763394 196.33192396 143.1875 192.25 C142.00897585 190.73057634 140.83059454 189.21104189 139.65234375 187.69140625 C138.74524658 186.52762451 138.74524658 186.52762451 137.81982422 185.34033203 C134.9417761 181.63910192 132.09608376 177.91332843 129.25 174.1875 C128.70939941 173.48157715 128.16879883 172.7756543 127.61181641 172.04833984 C124.39707526 167.84671142 121.21892951 163.62058274 118.0625 159.375 C115.62393982 156.09959076 113.13700054 152.93861922 110.4375 149.875 C108 147 108 147 108 145 C107.34 145 106.68 145 106 145 C104.78514615 143.27578573 103.65181296 141.49365116 102.5625 139.6875 C100.57419378 136.40228561 98.71145654 133.6948727 96 131 C96 130.34 96 129.68 96 129 C95.34 129 94.68 129 94 129 C92.74487305 127.36083984 92.74487305 127.36083984 91.32421875 125.0859375 C88.07550044 120.048599 84.51107843 115.3380231 80.8125 110.625 C80.19697266 109.83222656 79.58144531 109.03945312 78.94726562 108.22265625 C75.82714989 104.16724603 75.82714989 104.16724603 72.38525391 100.39208984 C71 99 71 99 69.69140625 96.8125 C67.38842333 92.98305958 64.67011192 89.53066285 61.9375 86 C61.35750244 85.245979 60.77750488 84.49195801 60.17993164 83.71508789 C58.45590916 81.47468923 56.72851585 79.23693298 55 77 C49.70249188 70.13816451 44.43520469 63.2594698 39.25 56.3125 C31.98344646 46.58329302 24.59072796 36.93465295 16.96875 27.48046875 C13.69240266 23.35253112 10.57123671 19.10794628 7.421875 14.8828125 C6.65617187 13.85800781 6.65617187 13.85800781 5.875 12.8125 C5.14216797 11.82443359 5.14216797 11.82443359 4.39453125 10.81640625 C3.18445948 9.24026235 1.88054783 7.73702832 0.5625 6.25 C0.046875 5.5075 -0.46875 4.765 -1 4 C-0.59765625 1.859375 -0.59765625 1.859375 0 0 Z M76 39 C77.91565495 42.29104324 79.94332985 45.36226493 82.265625 48.37890625 C82.90064941 49.20737061 83.53567383 50.03583496 84.18994141 50.8894043 C84.86976074 51.77152588 85.54958008 52.65364746 86.25 53.5625 C87.70120878 55.45520189 89.151713 57.34844417 90.6015625 59.2421875 C91.33665039 60.2022168 92.07173828 61.16224609 92.82910156 62.15136719 C96.12389985 66.47477097 99.37414117 70.83102348 102.625 75.1875 C107.96378286 82.33058726 113.38657394 89.40135554 118.87597656 96.42919922 C124.97727936 104.24058548 130.99293141 112.11603895 137 120 C138.26952994 121.66536558 139.53906124 123.33073013 140.80859375 124.99609375 C146.28226054 132.17792671 151.7530576 139.36194348 157.22265625 146.546875 C163.63790883 154.97260986 170.05926876 163.39296415 176.5234375 171.78125 C182.2671053 179.23909503 187.97103624 186.72758651 193.68652344 194.20703125 C199.91402995 202.35598224 206.14907612 210.49880015 212.40625 218.625 C216.01183501 223.31226051 219.59968657 228.01309552 223.19018555 232.71191406 C226.38949295 236.89760813 229.59640902 241.07718952 232.8125 245.25 C237.93646627 251.9036332 243.02160659 258.58665395 248.10766602 265.26928711 C251.80726126 270.12842433 255.51764007 274.97849189 259.25 279.8125 C262.79287225 284.40642435 266.28006924 289.03852685 269.75 293.6875 C274.6955877 300.31135636 279.7395444 306.8535002 284.84082031 313.3581543 C285.3819043 314.04949463 285.92298828 314.74083496 286.48046875 315.453125 C287.04822021 316.15598633 287.61597168 316.85884766 288.20092773 317.58300781 C290 320 290 320 291.86352539 323.19042969 C295.90199868 329.74694235 295.90199868 329.74694235 302.62231445 332.95605469 C306.79086063 333.3233636 310.89846382 333.05228593 315.0625 332.75 C316.51475173 332.68969889 317.96724584 332.6349647 319.41992188 332.5859375 C322.95171562 332.45473682 326.47428233 332.24840211 330 332 C328.40516064 327.77061383 326.44512439 324.74231699 323.625 321.1875 C322.72686586 320.0437523 321.82977893 318.8991817 320.93359375 317.75390625 C320.45905762 317.14949707 319.98452148 316.54508789 319.49560547 315.92236328 C316.8501936 312.5221065 314.26979222 309.07329012 311.6875 305.625 C311.19652832 304.97168701 310.70555664 304.31837402 310.19970703 303.64526367 C309.7251709 303.01209229 309.25063477 302.3789209 308.76171875 301.7265625 C308.30200684 301.11329102 307.84229492 300.50001953 307.36865234 299.86816406 C305.96080918 297.94650585 304.61747801 295.98740531 303.26953125 294.0234375 C302.52058594 293.02570313 301.77164063 292.02796875 301 291 C300.34 291 299.68 291 299 291 C298.7628125 290.29875 298.525625 289.5975 298.28125 288.875 C296.76430541 285.47112433 294.81032699 282.92446455 292.5 280 C291.58846661 278.83599628 290.67701029 277.67193219 289.765625 276.5078125 C289.30220703 275.92032227 288.83878906 275.33283203 288.36132812 274.72753906 C281.52493893 266.05209251 274.92765776 257.21455657 268.39697266 248.30810547 C263.84119332 242.10804214 259.19628051 235.98215983 254.49755859 229.88989258 C250.69559274 224.94993539 247.0425676 219.93072375 243.48828125 214.80859375 C242.99714844 214.21175781 242.50601563 213.61492187 242 213 C241.34 213 240.68 213 240 213 C239.67 211.68 239.34 210.36 239 209 C238.34 209 237.68 209 237 209 C236.73960937 208.26394531 236.47921875 207.52789062 236.2109375 206.76953125 C234.97044059 203.93239476 233.61269704 202.04841442 231.625 199.6875 C227.98178234 195.25084111 224.49507053 190.72474223 221.0625 186.125 C220.28966675 185.09040649 220.28966675 185.09040649 219.5012207 184.03491211 C218.47884323 182.66523909 217.45694252 181.29521004 216.43554688 179.92480469 C214.4001135 177.19566238 212.35639518 174.47281141 210.3125 171.75 C209.60222656 170.80253906 208.89195312 169.85507813 208.16015625 168.87890625 C206.64878069 166.86464985 205.13561079 164.85173913 203.62109375 162.83984375 C202.83863281 161.79957031 202.05617188 160.75929688 201.25 159.6875 C200.51136719 158.70652344 199.77273437 157.72554688 199.01171875 156.71484375 C197.31271569 154.42201438 195.67665693 152.10259823 194.0625 149.75 C193.381875 148.8425 192.70125 147.935 192 147 C191.34 147 190.68 147 190 147 C189.71125 146.236875 189.4225 145.47375 189.125 144.6875 C188.03730987 141.84970692 188.03730987 141.84970692 186 139 C185.34 139 184.68 139 184 139 C183.67 137.68 183.34 136.36 183 135 C182.34 135 181.68 135 181 135 C180.7525 134.29488281 180.505 133.58976562 180.25 132.86328125 C178.83896341 129.63112557 177.0749274 127.03671098 175 124.1875 C174.29875 123.21167969 173.5975 122.23585938 172.875 121.23046875 C172.25625 120.49441406 171.6375 119.75835937 171 119 C170.34 119 169.68 119 169 119 C168.773125 118.31550781 168.54625 117.63101563 168.3125 116.92578125 C166.66571281 113.25481814 164.46488786 110.34607773 162 107.1875 C161.54882812 106.59001953 161.09765625 105.99253906 160.6328125 105.37695312 C159.47362397 103.87652419 158.24186081 102.43275496 157 101 C156.34 101 155.68 101 155 101 C154.92136719 100.45472656 154.84273438 99.90945312 154.76171875 99.34765625 C153.71947807 96.13541704 151.92137527 94.07617428 149.8125 91.4375 C146.55430033 87.32390098 143.37346546 83.1709454 140.29296875 78.921875 C139.66479248 78.0563501 139.03661621 77.1908252 138.3894043 76.29907227 C137.13744779 74.56859303 135.89014725 72.83473503 134.64770508 71.09741211 C134.0730249 70.3060083 133.49834473 69.51460449 132.90625 68.69921875 C132.39384766 67.98596436 131.88144531 67.27270996 131.35351562 66.5378418 C130.90685547 66.030354 130.46019531 65.52286621 130 65 C129.34 65 128.68 65 128 65 C127.7525 64.278125 127.505 63.55625 127.25 62.8125 C125.87730408 59.72393418 124.27646704 57.48988582 122 55 C121.34 55 120.68 55 120 55 C119.814375 54.195625 119.62875 53.39125 119.4375 52.5625 C117.43912075 47.6099949 113.93874628 41.46937314 109 39 C106.51900266 38.91350549 104.06655072 38.88434946 101.5859375 38.90234375 C100.49147812 38.90446617 100.49147812 38.90446617 99.37490845 38.90663147 C97.04156415 38.91223469 94.70831536 38.92478765 92.375 38.9375 C90.79427222 38.94251459 89.21354293 38.94707757 87.6328125 38.95117188 C83.75517146 38.96220516 79.87760193 38.97947189 76 39 Z " fill="#090909" transform="translate(52,69)"/>
<path d="M0 0 C16.73333402 0.01380712 33.46631742 0.05603925 50.19947338 0.13209057 C57.96903305 0.16674043 65.73841531 0.19209606 73.50805664 0.19555664 C80.28028587 0.19859657 87.05219913 0.21909051 93.82430631 0.26052457 C97.41002449 0.28185419 100.99529349 0.29445573 104.58107567 0.28615379 C108.58468541 0.27721159 112.58709524 0.30723758 116.59057617 0.34057617 C117.77884506 0.33195053 118.96711395 0.32332489 120.19139099 0.31443787 C129.13459508 0.43960413 129.13459508 0.43960413 132.27558899 3.54121399 C132.84464462 4.35261337 133.41370026 5.16401276 134 6 C133.67 6.66 133.34 7.32 133 8 C132.66270874 7.51900848 132.32541748 7.03801697 131.97790527 6.54244995 C129.02423614 4.23906017 125.96053119 4.42801892 122.35351562 4.32080078 C121.56423927 4.28771379 120.77496292 4.25462681 119.9617691 4.22053719 C109.09470756 3.81539826 98.21651816 3.8559463 87.34375 3.8671875 C85.0201415 3.86651233 82.69653307 3.86554054 80.3729248 3.86428833 C75.54564733 3.86282606 70.71838856 3.86492126 65.89111328 3.86962891 C59.69490862 3.87537687 53.4987468 3.87200625 47.30254364 3.86605644 C42.5243497 3.86245449 37.74616604 3.86358683 32.9679718 3.86618423 C30.68093358 3.86685188 28.39389443 3.86603074 26.1068573 3.86370468 C22.93123866 3.8611787 19.75569141 3.86501565 16.58007812 3.87060547 C15.63371994 3.86858124 14.68736176 3.86655701 13.71232605 3.86447144 C12.85210342 3.86729126 11.9918808 3.87011108 11.10559082 3.87301636 C9.98196514 3.8735819 9.98196514 3.8735819 8.83563995 3.87415886 C6.90247798 3.88834723 6.90247798 3.88834723 5 5 C4.01 4.67 3.02 4.34 2 4 C2.33 5.32 2.66 6.64 3 8 C0.9375 6.25 0.9375 6.25 -1 4 C-0.62109375 1.859375 -0.62109375 1.859375 0 0 Z " fill="#A7A7A7" transform="translate(52,69)"/>
<path d="M0 0 C-0.32433508 5.35152885 -3.49704824 8.28280043 -7 12 C-7 8.42424104 -5.91159393 6.94704065 -4 4 C-11.60659443 4.01488838 -19.21264625 4.05654185 -26.81887341 4.13209057 C-30.35109587 4.16633916 -33.88288686 4.19146704 -37.4152832 4.19555664 C-41.47919838 4.20066532 -45.54182261 4.24579176 -49.60546875 4.29296875 C-50.8702153 4.2890361 -52.13496185 4.28510345 -53.43803406 4.28105164 C-59.40080778 4.15841282 -59.40080778 4.15841282 -64.8331604 6.15982056 C-66.3112141 7.6612561 -66.3112141 7.6612561 -68 10 C-68.99 10 -69.98 10 -71 10 C-70.39456452 8.63777017 -69.70885894 7.31138904 -69 6 C-68.57364258 5.14188721 -68.14728516 4.28377441 -67.70800781 3.3996582 C-63.24560077 -0.55463307 -58.18080158 0.27411228 -52.421875 0.29296875 C-51.18133362 0.27784744 -49.94079224 0.26272614 -48.66265869 0.24714661 C-45.36442706 0.2114348 -42.06700957 0.19710954 -38.76861572 0.19311523 C-35.43537526 0.18384308 -32.10260493 0.14599209 -28.76953125 0.11132812 C-19.17974973 0.0200173 -9.59017661 -0.00809732 0 0 Z " fill="#898989" transform="translate(437,69)"/>
<path d="M0 0 C2.5 2.3125 2.5 2.3125 5 5 C5 5.99 5 6.98 5 8 C-36.91 7.67 -78.82 7.34 -122 7 C-122 6.67 -122 6.34 -122 6 C-80.75 6 -39.5 6 3 6 C2.01 4.68 1.02 3.36 0 2 C0 1.34 0 0.68 0 0 Z " fill="#5D5D5D" transform="translate(456,434)"/>
<path d="M0 0 C0 3 0 3 -1.27734375 4.5 C-1.82519531 4.995 -2.37304688 5.49 -2.9375 6 C-5.27535925 8.12231195 -5.96275884 8.88827651 -7 12 C13.46 12 33.92 12 55 12 C54.67 12.66 54.34 13.32 54 14 C32.88 14 11.76 14 -10 14 C-8.93206661 8.66033305 -8.21192208 7.74927858 -4.4375 4.1875 C-3.61121094 3.39730469 -2.78492187 2.60710937 -1.93359375 1.79296875 C-1.29550781 1.20128906 -0.65742187 0.60960937 0 0 Z " fill="#828282" transform="translate(69,428)"/>
<path d="M0 0 C0.66 0 1.32 0 2 0 C5 4.38461538 5 4.38461538 5 7 C-6.22 7 -17.44 7 -29 7 C-29 6.01 -29 5.02 -29 4 C-18.77 4.33 -8.54 4.66 2 5 C1.34 3.35 0.68 1.7 0 0 Z " fill="#C4C4C4" transform="translate(380,396)"/>
<path d="M0 0 C0.33 0.66 0.66 1.32 1 2 C-0.90508084 5.65502481 -3.30776768 8.92196142 -5.8125 12.1875 C-6.45832031 13.04730469 -7.10414063 13.90710938 -7.76953125 14.79296875 C-10.36513518 17.36129838 -12.49758722 18.10566065 -16 19 C-13.01198105 14.22787265 -9.61334123 10.21015987 -5.75 6.125 C-4.91855469 5.23554688 -4.91855469 5.23554688 -4.0703125 4.328125 C-2.71734496 2.88184935 -1.35920496 1.44041532 0 0 Z " fill="#6B6B6B" transform="translate(324,126)"/>
<path d="M0 0 C0 6.02481368 -4.92650053 10.88133978 -9 15 C-11.58482163 17.12374534 -14.25073934 19.09505543 -17 21 C-15.30935414 16.71563036 -12.18644695 13.77624401 -9.0625 10.5 C-4.27350227 5.46868498 -4.27350227 5.46868498 0 0 Z " fill="#8D8D8D" transform="translate(87,407)"/>
<path d="M0 0 C0 0.99 0 1.98 0 3 C-0.66 3.639375 -1.32 4.27875 -2 4.9375 C-4.46409722 6.99977339 -4.46409722 6.99977339 -4 11 C-5.42578125 12.703125 -5.42578125 12.703125 -7.3125 14.25 C-7.92738281 14.77078125 -8.54226562 15.2915625 -9.17578125 15.828125 C-11 17 -11 17 -14 17 C-12.70396588 14.17131143 -11.30810402 12.0298979 -9.1796875 9.765625 C-8.64472656 9.19199219 -8.10976562 8.61835938 -7.55859375 8.02734375 C-7.00300781 7.44082031 -6.44742188 6.85429687 -5.875 6.25 C-5.31167969 5.64800781 -4.74835938 5.04601562 -4.16796875 4.42578125 C-2.78275854 2.94665849 -1.3919271 1.47280359 0 0 Z " fill="#7D7D7D" transform="translate(168,315)"/>
<path d="M0 0 C0 0.99 0 1.98 0 3 C-0.495 3.474375 -0.99 3.94875 -1.5 4.4375 C-3.46168789 6.11993064 -3.46168789 6.11993064 -3 10 C-4.42578125 11.703125 -4.42578125 11.703125 -6.3125 13.25 C-6.92738281 13.77078125 -7.54226562 14.2915625 -8.17578125 14.828125 C-10 16 -10 16 -13 16 C-11.3383196 11.87582937 -8.37661982 8.93445961 -5.375 5.75 C-4.859375 5.19570313 -4.34375 4.64140625 -3.8125 4.0703125 C-2.54574965 2.7097288 -1.27342185 1.35434163 0 0 Z " fill="#787878" transform="translate(111,380)"/>
<path d="M0 0 C0 3 0 3 -2.25 5.625 C-4.72881204 7.76579221 -5.83568489 8.64840943 -9 9 C-6.46636932 4.77728219 -4.43379675 2.21689838 0 0 Z " fill="#5F5F5F" transform="translate(317,136)"/>
<path d="M0 0 C2.125 0.375 2.125 0.375 4 1 C1.6875 3.5 1.6875 3.5 -1 6 C-1.99 6 -2.98 6 -4 6 C-2.84826645 3.53199953 -1.95216435 1.95216435 0 0 Z " fill="#656565" transform="translate(370,73)"/>
<path d="M0 0 C2.5 2.3125 2.5 2.3125 5 5 C5 5.99 5 6.98 5 8 C3.02 8 1.04 8 -1 8 C-1.33 7.34 -1.66 6.68 -2 6 C-0.35 6 1.3 6 3 6 C2.2575 5.071875 2.2575 5.071875 1.5 4.125 C0 2 0 2 0 0 Z " fill="#B7B7B7" transform="translate(456,434)"/>
<path d="" fill="#FFFFFF" transform="translate(0,0)"/>
</svg>
