<?xml version="1.0" encoding="UTF-8"?>
<svg version="1.1" xmlns="http://www.w3.org/2000/svg" width="310" height="308">
<path d="M0 0 C0.63679687 0.41894531 1.27359375 0.83789062 1.9296875 1.26953125 C12.51388315 9.15089582 14.7034084 22.13353824 16.64160156 34.39038086 C18.21933171 45.87836283 18.3552916 57.48623003 18.625 69.0625 C18.64679321 69.99174286 18.66858643 70.92098572 18.69104004 71.87838745 C20.36917708 146.58356152 20.36917708 146.58356152 5.2734375 163.83984375 C-10.71551589 179.03209672 -38.77027078 176.90861834 -59.59765625 178.078125 C-60.36170588 178.12124565 -61.1257555 178.1643663 -61.91295815 178.20879364 C-78.73304057 179.13525415 -95.53157853 179.30896698 -112.3737793 179.26074219 C-116.3929734 179.24931968 -120.41190318 179.2561644 -124.43108845 179.26762486 C-219.5417424 179.49695349 -219.5417424 179.49695349 -235.625 164.5625 C-245.51789685 153.88858498 -247.23613451 143.02444669 -249 129 C-249.08959488 128.30209854 -249.17918976 127.60419708 -249.27149963 126.88514709 C-250.16008644 119.11994948 -250.18251155 111.35952562 -250.203125 103.5546875 C-250.20595238 102.82153446 -250.20877975 102.08838142 -250.21169281 101.33301163 C-250.22661049 97.440917 -250.23588262 93.54885862 -250.24023438 89.65673828 C-250.24458918 86.49385859 -250.2583741 83.33125627 -250.28125 80.16845703 C-250.72160852 17.96959309 -250.72160852 17.96959309 -235.99609375 2.95703125 C-226.77631665 -4.77834524 -216.18622934 -6.62323248 -204.5 -7.625 C-203.2404248 -7.74343262 -201.98084961 -7.86186523 -200.68310547 -7.98388672 C-196.79016471 -8.34221035 -192.895903 -8.67558868 -189 -9 C-187.81051758 -9.10054687 -186.62103516 -9.20109375 -185.39550781 -9.3046875 C-177.6019075 -9.95178587 -169.80493133 -10.50904662 -162 -11 C-161.07719238 -11.05929688 -160.15438477 -11.11859375 -159.20361328 -11.1796875 C-27.30333917 -19.28920115 -27.30333917 -19.28920115 0 0 Z M-142.62036133 44.578125 C-144.48621064 47.85351435 -144.43455044 50.36393533 -144.51171875 54.125 C-144.52976059 54.81991043 -144.54780243 55.51482086 -144.56639099 56.23078918 C-144.62113538 58.48713962 -144.65489555 60.74322996 -144.6875 63 C-144.71958762 64.55820676 -144.75263182 66.11639411 -144.78662109 67.67456055 C-144.86468639 71.45605261 -144.92437193 75.23750478 -144.97393799 79.01947021 C-144.99673802 80.75211212 -145.02320908 82.48470492 -145.05029297 84.21728516 C-145.18718795 93.70022015 -144.97852564 103.15037746 -144.5625 112.625 C-144.52334473 113.53354736 -144.48418945 114.44209473 -144.44384766 115.37817383 C-144.40179199 116.21501709 -144.35973633 117.05186035 -144.31640625 117.9140625 C-144.27974854 118.6560791 -144.24309082 119.3980957 -144.20532227 120.16259766 C-144.09641665 122.09476412 -144.09641665 122.09476412 -143 124 C-137.58756047 125.6180212 -134.58752916 125.13563353 -129.55078125 122.59765625 C-127.45971243 121.44005512 -125.38088564 120.26016023 -123.3125 119.0625 C-121.59950967 118.10487411 -119.88650706 117.14726974 -118.17295837 116.19064331 C-116.36062448 115.17458693 -114.55389205 114.14912102 -112.74804688 113.12158203 C-108.92844031 110.95246762 -105.08458274 108.82905702 -101.234375 106.71484375 C-100.5919133 106.36196793 -99.9494516 106.0090921 -99.28752136 105.64552307 C-98.00538054 104.94135201 -96.72321023 104.23723462 -95.44100952 103.53317261 C-91.35298704 101.28477685 -87.27315775 99.02157873 -83.19580078 96.75390625 C-81.08133118 95.59345173 -78.95464486 94.45495975 -76.81591797 93.33984375 C-75.34276123 92.56833984 -75.34276123 92.56833984 -73.83984375 91.78125 C-72.54421509 91.11706055 -72.54421509 91.11706055 -71.22241211 90.43945312 C-68.81115123 88.87768292 -67.49707213 87.43926615 -66 85 C-65.8509288 82.9254644 -65.8509288 82.9254644 -67 81 C-70.83969861 77.57046628 -74.96662937 75.25994183 -79.50390625 72.91796875 C-80.58260231 72.35206779 -80.58260231 72.35206779 -81.68309021 71.7747345 C-83.9736038 70.57389279 -86.26773636 69.38019706 -88.5625 68.1875 C-91.56569324 66.62208432 -94.56702014 65.05316675 -97.56640625 63.48046875 C-98.29489777 63.09870987 -99.02338928 62.71695099 -99.7739563 62.32362366 C-105.09690468 59.51725664 -110.29174837 56.54473339 -115.46850586 53.47631836 C-118.75090286 51.562088 -122.08745776 49.85854993 -125.5 48.1875 C-126.6446875 47.62417969 -127.789375 47.06085938 -128.96875 46.48046875 C-129.9690625 45.99191406 -130.969375 45.50335938 -132 45 C-132.74121094 44.61199219 -133.48242188 44.22398438 -134.24609375 43.82421875 C-137.45094809 42.31815134 -140.00566103 42.03157946 -142.62036133 44.578125 Z " fill="#020202" transform="translate(271,70)"/>
<path d="M0 0 C0.66 0.33 1.32 0.66 2 1 C-0.8563698 5.2845547 -4.30676111 7.87956074 -9 10 C-12.48683162 10.29383413 -15.65642483 10.06145244 -19 9 C-19.33 8.34 -19.66 7.68 -20 7 C-18.98550781 7.07347656 -17.97101563 7.14695313 -16.92578125 7.22265625 C-12.38982838 6.96539325 -10.06435204 5.74375308 -6.1875 3.4375 C-4.155705 2.2380629 -2.0990514 1.07741519 0 0 Z " fill="#232323" transform="translate(149,187)"/>
<path d="M0 0 C-0.16757813 0.55429688 -0.33515625 1.10859375 -0.5078125 1.6796875 C-0.71148437 2.40414062 -0.91515625 3.12859375 -1.125 3.875 C-1.33382812 4.59429687 -1.54265625 5.31359375 -1.7578125 6.0546875 C-1.87769531 7.01761719 -1.87769531 7.01761719 -2 8 C-1.34 8.66 -0.68 9.32 0 10 C-1.98 10.99 -1.98 10.99 -4 12 C-4.66 11.34 -5.32 10.68 -6 10 C-5.34 9.01 -4.68 8.02 -4 7 C-4.37931547 3.96547627 -5.25040681 2.62438979 -7 0 C-4.3333581 -1.33332095 -2.83319697 -0.67102033 0 0 Z " fill="#232323" transform="translate(208,148)"/>
<path d="M0 0 C0.99 0.33 1.98 0.66 3 1 C3.12375 1.969375 3.2475 2.93875 3.375 3.9375 C3.684375 5.4534375 3.684375 5.4534375 4 7 C4.66 7.33 5.32 7.66 6 8 C5.67 8.66 5.34 9.32 5 10 C4.01 10 3.02 10 2 10 C0.68373308 6.38026598 0 3.90432869 0 0 Z " fill="#3B3B3B" transform="translate(25,214)"/>
<path d="M0 0 C0.33 0.66 0.66 1.32 1 2 C-1.64 2.33 -4.28 2.66 -7 3 C-7 3.66 -7 4.32 -7 5 C-7.515625 4.855625 -8.03125 4.71125 -8.5625 4.5625 C-11.68509571 3.84190099 -14.82550692 3.42733561 -18 3 C-18 2.67 -18 2.34 -18 2 C-9.09 1.01 -9.09 1.01 0 0 Z " fill="#676767" transform="translate(71,62)"/>
<path d="M0 0 C0.33 1.32 0.66 2.64 1 4 C-3.5 7 -3.5 7 -8 10 C-6.23915938 6.0381086 -3.9706445 1.98532225 0 0 Z " fill="#464646" transform="translate(38,71)"/>
<path d="M0 0 C0.99 0.33 1.98 0.66 3 1 C1 3 1 3 -2 4 C-2.66 4.66 -3.32 5.32 -4 6 C-7.5625 5.75 -7.5625 5.75 -11 5 C-11.33 4.34 -11.66 3.68 -12 3 C-10.948125 3.061875 -9.89625 3.12375 -8.8125 3.1875 C-4.77178932 2.98877652 -3.31189793 2.11593479 0 0 Z " fill="#575757" transform="translate(141,191)"/>
<path d="M0 0 C-1 3 -1 3 -3.0625 4.1875 C-3.701875 4.455625 -4.34125 4.72375 -5 5 C-5 4.34 -5 3.68 -5 3 C-6.32 2.67 -7.64 2.34 -9 2 C-3.375 -1.125 -3.375 -1.125 0 0 Z " fill="#3A3A3A" transform="translate(176,175)"/>
<path d="M0 0 C0 0.66 0 1.32 0 2 C-0.99 2 -1.98 2 -3 2 C-3 2.66 -3 3.32 -3 4 C-2.34 4.33 -1.68 4.66 -1 5 C-3.3125 5.625 -3.3125 5.625 -6 6 C-6.99 5.34 -7.98 4.68 -9 4 C-2.25 0 -2.25 0 0 0 Z " fill="#4B4B4B" transform="translate(189,166)"/>
<path d="M0 0 C1.98 0.99 1.98 0.99 4 2 C2.68 2 1.36 2 0 2 C0 1.34 0 0.68 0 0 Z M-7 1 C-4.69 1.33 -2.38 1.66 0 2 C0 2.99 0 3.98 0 5 C-2.91517292 3.92598892 -4.77810176 3.22189824 -7 1 Z " fill="#4A4A4A" transform="translate(148,115)"/>
<path d="M0 0 C0.66 0 1.32 0 2 0 C1.95875 0.78375 1.9175 1.5675 1.875 2.375 C1.71271266 5.16116119 1.71271266 5.16116119 4 7 C2.02 7.99 2.02 7.99 0 9 C-0.66 8.34 -1.32 7.68 -2 7 C-1.34 6.01 -0.68 5.02 0 4 C0 2.68 0 1.36 0 0 Z " fill="#404040" transform="translate(204,151)"/>
<path d="M0 0 C-0.66 1.65 -1.32 3.3 -2 5 C-3.65 4.67 -5.3 4.34 -7 4 C-3.17391304 0 -3.17391304 0 0 0 Z " fill="#545454" transform="translate(158,183)"/>
<path d="M0 0 C0 0.66 0 1.32 0 2 C-0.99 2 -1.98 2 -3 2 C-3 2.66 -3 3.32 -3 4 C-4.98 4.99 -4.98 4.99 -7 6 C-7.66 5.34 -8.32 4.68 -9 4 C-2.25 0 -2.25 0 0 0 Z " fill="#666666" transform="translate(200,160)"/>
<path d="M0 0 C2.625 0.9375 2.625 0.9375 5 2 C5 2.99 5 3.98 5 5 C2.08482708 3.92598892 0.22189824 3.22189824 -2 1 C-1.34 0.67 -0.68 0.34 0 0 Z " fill="#474747" transform="translate(164,126)"/>
</svg>
