<?xml version="1.0" encoding="UTF-8"?>
<svg xmlns="http://www.w3.org/2000/svg" xmlns:xlink="http://www.w3.org/1999/xlink" width="29px" height="29px" viewBox="0 0 29 29" version="1.1">
<g id="surface1">
<path style=" stroke:none;fill-rule:nonzero;fill:rgb(0%,0%,0%);fill-opacity:1;" d="M 27.765625 6.453125 C 26.980469 5.054688 26.128906 4.796875 24.390625 4.699219 C 22.652344 4.582031 18.285156 4.53125 14.503906 4.53125 C 10.714844 4.53125 6.34375 4.582031 4.609375 4.695312 C 2.875 4.796875 2.019531 5.050781 1.226562 6.453125 C 0.417969 7.851562 0 10.257812 0 14.496094 C 0 14.5 0 14.5 0 14.5 C 0 14.503906 0 14.503906 0 14.503906 L 0 14.507812 C 0 18.730469 0.417969 21.152344 1.226562 22.535156 C 2.019531 23.9375 2.875 24.191406 4.609375 24.308594 C 6.34375 24.410156 10.714844 24.46875 14.503906 24.46875 C 18.285156 24.46875 22.652344 24.410156 24.390625 24.308594 C 26.128906 24.191406 26.984375 23.9375 27.769531 22.539062 C 28.585938 21.15625 29 18.730469 29 14.511719 C 29 14.511719 29 14.503906 29 14.5 C 29 14.5 29 14.5 29 14.496094 C 29 10.257812 28.585938 7.851562 27.765625 6.453125 Z M 10.875 19.9375 L 10.875 9.0625 L 19.9375 14.5 Z M 10.875 19.9375 "/>
</g>
</svg>
